v -0.042500 -0.054000 -1.079000
v -0.042500 -0.054000 1.079000
v -0.042500 0.054000 -1.079000
v -0.042500 0.054000 1.079000
v -0.042500 -0.054000 -1.079000
v -0.042500 -0.054000 1.079000
v -0.036500 -0.060000 1.079000
v -0.036500 -0.060000 -1.079000
v -0.036500 -0.054000 -1.085000
v -0.042500 -0.054000 -1.079000
v -0.042500 0.054000 -1.079000
v -0.036500 0.054000 -1.085000
v -0.036500 -0.054000 1.085000
v -0.042500 -0.054000 1.079000
v -0.042500 0.054000 1.079000
v -0.036500 0.054000 1.085000
v -0.042500 0.054000 -1.079000
v -0.042500 0.054000 1.079000
v -0.036500 0.060000 1.079000
v -0.036500 0.060000 -1.079000
v -0.036500 -0.054000 -1.085000
v -0.042500 -0.054000 -1.079000
v -0.036500 -0.060000 -1.079000
v -0.036500 -0.054000 1.085000
v -0.042500 -0.054000 1.079000
v -0.036500 -0.060000 1.079000
v -0.036500 -0.060000 -1.079000
v -0.036500 -0.060000 1.079000
v 0.036500 -0.060000 1.079000
v 0.036500 -0.060000 -1.079000
v -0.036500 -0.054000 -1.085000
v -0.036500 0.054000 -1.085000
v 0.036500 -0.054000 -1.085000
v 0.036500 0.054000 -1.085000
v -0.036500 0.054000 -1.085000
v -0.042500 0.054000 -1.079000
v -0.036500 0.060000 -1.079000
v -0.036500 -0.054000 1.085000
v -0.036500 0.054000 1.085000
v 0.036500 -0.054000 1.085000
v 0.036500 0.054000 1.085000
v -0.036500 0.060000 1.079000
v -0.042500 0.054000 1.079000
v -0.036500 0.054000 1.085000
v -0.036500 0.060000 -1.079000
v -0.036500 0.060000 1.079000
v 0.036500 0.060000 1.079000
v 0.036500 0.060000 -1.079000
v -0.036500 -0.054000 -1.085000
v -0.036500 -0.060000 -1.079000
v 0.036500 -0.060000 -1.079000
v 0.036500 -0.054000 -1.085000
v -0.036500 -0.054000 1.085000
v -0.036500 -0.060000 1.079000
v 0.036500 -0.060000 1.079000
v 0.036500 -0.054000 1.085000
v 0.042500 -0.054000 -1.079000
v 0.042500 -0.054000 1.079000
v 0.036500 -0.060000 1.079000
v 0.036500 -0.060000 -1.079000
v -0.036500 0.054000 -1.085000
v -0.036500 0.060000 -1.079000
v 0.036500 0.060000 -1.079000
v 0.036500 0.054000 -1.085000
v 0.036500 -0.054000 -1.085000
v 0.042500 -0.054000 -1.079000
v 0.042500 0.054000 -1.079000
v 0.036500 0.054000 -1.085000
v -0.036500 0.060000 1.079000
v -0.036500 0.054000 1.085000
v 0.036500 0.060000 1.079000
v 0.036500 0.054000 1.085000
v 0.036500 -0.054000 1.085000
v 0.042500 -0.054000 1.079000
v 0.042500 0.054000 1.079000
v 0.036500 0.054000 1.085000
v 0.042500 0.054000 -1.079000
v 0.042500 0.054000 1.079000
v 0.036500 0.060000 1.079000
v 0.036500 0.060000 -1.079000
v 0.036500 -0.054000 -1.085000
v 0.042500 -0.054000 -1.079000
v 0.036500 -0.060000 -1.079000
v 0.036500 -0.054000 1.085000
v 0.042500 -0.054000 1.079000
v 0.036500 -0.060000 1.079000
v 0.042500 -0.054000 -1.079000
v 0.042500 -0.054000 1.079000
v 0.042500 0.054000 -1.079000
v 0.042500 0.054000 1.079000
v 0.036500 0.054000 -1.085000
v 0.042500 0.054000 -1.079000
v 0.036500 0.060000 -1.079000
v 0.036500 0.060000 1.079000
v 0.042500 0.054000 1.079000
v 0.036500 0.054000 1.085000
f 2 3 1
f 2 4 3
f 6 5 8
f 7 6 8
f 12 9 10
f 12 10 11
f 16 14 13
f 16 15 14
f 18 20 17
f 19 20 18
f 23 22 21
f 26 24 25
f 29 28 27
f 29 27 30
f 34 31 32
f 34 33 31
f 37 35 36
f 41 39 38
f 41 38 40
f 44 42 43
f 47 45 46
f 47 48 45
f 52 50 49
f 52 51 50
f 56 53 54
f 56 54 55
f 58 60 57
f 59 60 58
f 64 61 62
f 64 62 63
f 68 66 65
f 68 67 66
f 72 69 70
f 72 71 69
f 76 73 74
f 76 74 75
f 78 77 80
f 79 78 80
f 83 81 82
f 86 85 84
f 88 87 89
f 88 89 90
f 93 92 91
f 96 95 94
