o mesh
v 0.004000 0.010200 0.012000
v 0.004000 0.053000 0.012000
v 0.024000 0.010200 0.012000
v 0.024000 0.053000 0.012000
v 0.109000 0.010200 0.012000
v 0.109000 0.053000 0.012000
v 0.133000 0.010200 0.012000
v 0.133000 0.053000 0.012000
v 0.157000 0.010200 0.012000
v 0.157000 0.053000 0.012000
v 0.244000 0.010200 0.012000
v 0.244000 0.053000 0.012000
v 0.331000 0.010200 0.012000
v 0.331000 0.053000 0.012000
v 0.355000 0.010200 0.012000
v 0.355000 0.053000 0.012000
v 0.379000 0.010200 0.012000
v 0.379000 0.053000 0.012000
v 0.434000 0.010200 0.012000
v 0.434000 0.053000 0.012000
v 0.489000 0.010200 0.012000
v 0.489000 0.053000 0.012000
v 0.513000 0.010200 0.012000
v 0.513000 0.053000 0.012000
v 0.537000 0.010200 0.012000
v 0.537000 0.053000 0.012000
v 0.624000 0.010200 0.012000
v 0.624000 0.053000 0.012000
v 0.711000 0.010200 0.012000
v 0.711000 0.053000 0.012000
v 0.735000 0.010200 0.012000
v 0.735000 0.053000 0.012000
v 0.759000 0.010200 0.012000
v 0.759000 0.053000 0.012000
v 0.844000 0.010200 0.012000
v 0.844000 0.053000 0.012000
v 0.864000 0.010200 0.012000
v 0.864000 0.053000 0.012000
v 0.004000 0.010200 0.062000
v 0.004000 0.053000 0.062000
v 0.024000 0.009000 0.062000
v 0.024000 0.053000 0.062000
v 0.109000 0.009000 0.062000
v 0.109000 0.053000 0.062000
v 0.133000 0.009000 0.062000
v 0.133000 0.053000 0.062000
v 0.157000 0.009000 0.062000
v 0.157000 0.053000 0.062000
v 0.244000 0.009000 0.062000
v 0.244000 0.053000 0.062000
v 0.331000 0.009000 0.062000
v 0.331000 0.053000 0.062000
v 0.355000 0.009000 0.062000
v 0.355000 0.053000 0.062000
v 0.379000 0.009000 0.062000
v 0.379000 0.053000 0.062000
v 0.434000 0.009000 0.062000
v 0.434000 0.053000 0.062000
v 0.489000 0.009000 0.062000
v 0.489000 0.053000 0.062000
v 0.513000 0.009000 0.062000
v 0.513000 0.053000 0.062000
v 0.537000 0.009000 0.062000
v 0.537000 0.053000 0.062000
v 0.624000 0.009000 0.062000
v 0.624000 0.053000 0.062000
v 0.711000 0.009000 0.062000
v 0.711000 0.053000 0.062000
v 0.735000 0.009000 0.062000
v 0.735000 0.053000 0.062000
v 0.759000 0.009000 0.062000
v 0.759000 0.053000 0.062000
v 0.844000 0.009000 0.062000
v 0.844000 0.053000 0.062000
v 0.864000 0.010200 0.062000
v 0.864000 0.053000 0.062000
v 0.004000 0.010200 0.197000
v 0.004000 0.053000 0.197000
v 0.024000 0.009000 0.197000
v 0.024000 0.053000 0.197000
v 0.109000 0.009000 0.197000
v 0.109000 0.053000 0.197000
v 0.133000 0.009000 0.197000
v 0.133000 0.053000 0.197000
v 0.157000 0.009000 0.197000
v 0.157000 0.053000 0.197000
v 0.244000 0.009000 0.197000
v 0.244000 0.053000 0.197000
v 0.331000 0.009000 0.197000
v 0.331000 0.053000 0.197000
v 0.355000 0.009000 0.197000
v 0.355000 0.053000 0.197000
v 0.379000 0.009000 0.197000
v 0.379000 0.053000 0.197000
v 0.434000 0.009000 0.197000
v 0.434000 0.053000 0.197000
v 0.489000 0.009000 0.197000
v 0.489000 0.053000 0.197000
v 0.513000 0.009000 0.197000
v 0.513000 0.053000 0.197000
v 0.537000 0.009000 0.197000
v 0.537000 0.053000 0.197000
v 0.624000 0.009000 0.197000
v 0.624000 0.053000 0.197000
v 0.711000 0.009000 0.197000
v 0.711000 0.053000 0.197000
v 0.735000 0.009000 0.197000
v 0.735000 0.053000 0.197000
v 0.759000 0.009000 0.197000
v 0.759000 0.053000 0.197000
v 0.844000 0.009000 0.197000
v 0.844000 0.053000 0.197000
v 0.864000 0.010200 0.197000
v 0.864000 0.053000 0.197000
v 0.004000 0.010200 0.221000
v 0.004000 0.053000 0.221000
v 0.024000 0.009000 0.221000
v 0.024000 0.053000 0.221000
v 0.109000 0.009000 0.221000
v 0.109000 0.053000 0.221000
v 0.133000 0.015800 0.221000
v 0.133000 0.053000 0.221000
v 0.157000 0.015800 0.221000
v 0.157000 0.053000 0.221000
v 0.244000 0.015800 0.221000
v 0.244000 0.053000 0.221000
v 0.331000 0.015800 0.221000
v 0.331000 0.053000 0.221000
v 0.355000 0.015800 0.221000
v 0.355000 0.053000 0.221000
v 0.379000 0.009000 0.221000
v 0.379000 0.053000 0.221000
v 0.434000 0.009000 0.221000
v 0.434000 0.053000 0.221000
v 0.489000 0.009000 0.221000
v 0.489000 0.053000 0.221000
v 0.513000 0.015800 0.221000
v 0.513000 0.053000 0.221000
v 0.537000 0.015800 0.221000
v 0.537000 0.053000 0.221000
v 0.624000 0.015800 0.221000
v 0.624000 0.053000 0.221000
v 0.711000 0.015800 0.221000
v 0.711000 0.053000 0.221000
v 0.735000 0.015800 0.221000
v 0.735000 0.053000 0.221000
v 0.759000 0.009000 0.221000
v 0.759000 0.053000 0.221000
v 0.844000 0.009000 0.221000
v 0.844000 0.053000 0.221000
v 0.864000 0.010200 0.221000
v 0.864000 0.053000 0.221000
v 0.004000 0.010200 0.245000
v 0.004000 0.053000 0.245000
v 0.024000 0.009000 0.245000
v 0.024000 0.053000 0.245000
v 0.109000 0.009000 0.245000
v 0.109000 0.053000 0.245000
v 0.133000 0.015800 0.245000
v 0.133000 0.053000 0.245000
v 0.157000 0.011200 0.245000
v 0.157000 0.053000 0.245000
v 0.244000 0.011200 0.245000
v 0.244000 0.053000 0.245000
v 0.331000 0.011200 0.245000
v 0.331000 0.053000 0.245000
v 0.355000 0.015800 0.245000
v 0.355000 0.053000 0.245000
v 0.379000 0.009000 0.245000
v 0.379000 0.053000 0.245000
v 0.434000 0.009000 0.245000
v 0.434000 0.053000 0.245000
v 0.489000 0.009000 0.245000
v 0.489000 0.053000 0.245000
v 0.513000 0.015800 0.245000
v 0.513000 0.053000 0.245000
v 0.537000 0.011200 0.245000
v 0.537000 0.053000 0.245000
v 0.624000 0.011200 0.245000
v 0.624000 0.053000 0.245000
v 0.711000 0.011200 0.245000
v 0.711000 0.053000 0.245000
v 0.735000 0.015800 0.245000
v 0.735000 0.053000 0.245000
v 0.759000 0.009000 0.245000
v 0.759000 0.053000 0.245000
v 0.844000 0.009000 0.245000
v 0.844000 0.053000 0.245000
v 0.864000 0.010200 0.245000
v 0.864000 0.053000 0.245000
v 0.004000 0.010200 0.457000
v 0.004000 0.053000 0.457000
v 0.024000 0.009000 0.457000
v 0.024000 0.053000 0.457000
v 0.109000 0.009000 0.457000
v 0.109000 0.053000 0.457000
v 0.133000 0.015800 0.457000
v 0.133000 0.053000 0.457000
v 0.157000 0.011200 0.457000
v 0.157000 0.053000 0.457000
v 0.244000 0.011200 0.457000
v 0.244000 0.053000 0.457000
v 0.331000 0.011200 0.457000
v 0.331000 0.053000 0.457000
v 0.355000 0.015800 0.457000
v 0.355000 0.053000 0.457000
v 0.379000 0.009000 0.457000
v 0.379000 0.053000 0.457000
v 0.434000 0.009000 0.457000
v 0.434000 0.053000 0.457000
v 0.489000 0.009000 0.457000
v 0.489000 0.053000 0.457000
v 0.513000 0.015800 0.457000
v 0.513000 0.053000 0.457000
v 0.537000 0.011200 0.457000
v 0.537000 0.053000 0.457000
v 0.624000 0.011200 0.457000
v 0.624000 0.053000 0.457000
v 0.711000 0.011200 0.457000
v 0.711000 0.053000 0.457000
v 0.735000 0.015800 0.457000
v 0.735000 0.053000 0.457000
v 0.759000 0.009000 0.457000
v 0.759000 0.053000 0.457000
v 0.844000 0.009000 0.457000
v 0.844000 0.053000 0.457000
v 0.864000 0.010200 0.457000
v 0.864000 0.053000 0.457000
v 0.004000 0.010200 0.669000
v 0.004000 0.053000 0.669000
v 0.024000 0.009000 0.669000
v 0.024000 0.053000 0.669000
v 0.109000 0.009000 0.669000
v 0.109000 0.053000 0.669000
v 0.133000 0.015800 0.669000
v 0.133000 0.053000 0.669000
v 0.157000 0.011200 0.669000
v 0.157000 0.053000 0.669000
v 0.244000 0.011200 0.669000
v 0.244000 0.053000 0.669000
v 0.331000 0.011200 0.669000
v 0.331000 0.053000 0.669000
v 0.355000 0.015800 0.669000
v 0.355000 0.053000 0.669000
v 0.379000 0.009000 0.669000
v 0.379000 0.053000 0.669000
v 0.434000 0.009000 0.669000
v 0.434000 0.053000 0.669000
v 0.489000 0.009000 0.669000
v 0.489000 0.053000 0.669000
v 0.513000 0.015800 0.669000
v 0.513000 0.053000 0.669000
v 0.537000 0.011200 0.669000
v 0.537000 0.053000 0.669000
v 0.624000 0.011200 0.669000
v 0.624000 0.053000 0.669000
v 0.711000 0.011200 0.669000
v 0.711000 0.053000 0.669000
v 0.735000 0.015800 0.669000
v 0.735000 0.053000 0.669000
v 0.759000 0.009000 0.669000
v 0.759000 0.053000 0.669000
v 0.844000 0.009000 0.669000
v 0.844000 0.053000 0.669000
v 0.864000 0.010200 0.669000
v 0.864000 0.053000 0.669000
v 0.004000 0.010200 0.693000
v 0.004000 0.053000 0.693000
v 0.024000 0.009000 0.693000
v 0.024000 0.053000 0.693000
v 0.109000 0.009000 0.693000
v 0.109000 0.053000 0.693000
v 0.133000 0.015800 0.693000
v 0.133000 0.053000 0.693000
v 0.157000 0.015800 0.693000
v 0.157000 0.053000 0.693000
v 0.244000 0.015800 0.693000
v 0.244000 0.053000 0.693000
v 0.331000 0.015800 0.693000
v 0.331000 0.053000 0.693000
v 0.355000 0.015800 0.693000
v 0.355000 0.053000 0.693000
v 0.379000 0.009000 0.693000
v 0.379000 0.053000 0.693000
v 0.434000 0.009000 0.693000
v 0.434000 0.053000 0.693000
v 0.489000 0.009000 0.693000
v 0.489000 0.053000 0.693000
v 0.513000 0.015800 0.693000
v 0.513000 0.053000 0.693000
v 0.537000 0.015800 0.693000
v 0.537000 0.053000 0.693000
v 0.624000 0.015800 0.693000
v 0.624000 0.053000 0.693000
v 0.711000 0.015800 0.693000
v 0.711000 0.053000 0.693000
v 0.735000 0.015800 0.693000
v 0.735000 0.053000 0.693000
v 0.759000 0.009000 0.693000
v 0.759000 0.053000 0.693000
v 0.844000 0.009000 0.693000
v 0.844000 0.053000 0.693000
v 0.864000 0.010200 0.693000
v 0.864000 0.053000 0.693000
v 0.004000 0.010200 0.717000
v 0.004000 0.053000 0.717000
v 0.024000 0.009000 0.717000
v 0.024000 0.053000 0.717000
v 0.109000 0.009000 0.717000
v 0.109000 0.053000 0.717000
v 0.133000 0.009000 0.717000
v 0.133000 0.053000 0.717000
v 0.157000 0.009000 0.717000
v 0.157000 0.053000 0.717000
v 0.244000 0.009000 0.717000
v 0.244000 0.053000 0.717000
v 0.331000 0.009000 0.717000
v 0.331000 0.053000 0.717000
v 0.355000 0.009000 0.717000
v 0.355000 0.053000 0.717000
v 0.379000 0.009000 0.717000
v 0.379000 0.053000 0.717000
v 0.434000 0.009000 0.717000
v 0.434000 0.053000 0.717000
v 0.489000 0.009000 0.717000
v 0.489000 0.053000 0.717000
v 0.513000 0.009000 0.717000
v 0.513000 0.053000 0.717000
v 0.537000 0.009000 0.717000
v 0.537000 0.053000 0.717000
v 0.624000 0.009000 0.717000
v 0.624000 0.053000 0.717000
v 0.711000 0.009000 0.717000
v 0.711000 0.053000 0.717000
v 0.735000 0.009000 0.717000
v 0.735000 0.053000 0.717000
v 0.759000 0.009000 0.717000
v 0.759000 0.053000 0.717000
v 0.844000 0.009000 0.717000
v 0.844000 0.053000 0.717000
v 0.864000 0.010200 0.717000
v 0.864000 0.053000 0.717000
v 0.004000 0.010200 0.887000
v 0.004000 0.053000 0.887000
v 0.024000 0.009000 0.887000
v 0.024000 0.053000 0.887000
v 0.109000 0.009000 0.887000
v 0.109000 0.053000 0.887000
v 0.133000 0.009000 0.887000
v 0.133000 0.053000 0.887000
v 0.157000 0.009000 0.887000
v 0.157000 0.053000 0.887000
v 0.244000 0.009000 0.887000
v 0.244000 0.053000 0.887000
v 0.331000 0.009000 0.887000
v 0.331000 0.053000 0.887000
v 0.355000 0.009000 0.887000
v 0.355000 0.053000 0.887000
v 0.379000 0.009000 0.887000
v 0.379000 0.053000 0.887000
v 0.434000 0.009000 0.887000
v 0.434000 0.053000 0.887000
v 0.489000 0.009000 0.887000
v 0.489000 0.053000 0.887000
v 0.513000 0.009000 0.887000
v 0.513000 0.053000 0.887000
v 0.537000 0.009000 0.887000
v 0.537000 0.053000 0.887000
v 0.624000 0.009000 0.887000
v 0.624000 0.053000 0.887000
v 0.711000 0.009000 0.887000
v 0.711000 0.053000 0.887000
v 0.735000 0.009000 0.887000
v 0.735000 0.053000 0.887000
v 0.759000 0.009000 0.887000
v 0.759000 0.053000 0.887000
v 0.844000 0.009000 0.887000
v 0.844000 0.053000 0.887000
v 0.864000 0.010200 0.887000
v 0.864000 0.053000 0.887000
v 0.004000 0.010200 0.911000
v 0.004000 0.053000 0.911000
v 0.024000 0.009000 0.911000
v 0.024000 0.053000 0.911000
v 0.109000 0.009000 0.911000
v 0.109000 0.053000 0.911000
v 0.133000 0.015800 0.911000
v 0.133000 0.053000 0.911000
v 0.157000 0.015800 0.911000
v 0.157000 0.053000 0.911000
v 0.244000 0.015800 0.911000
v 0.244000 0.053000 0.911000
v 0.331000 0.015800 0.911000
v 0.331000 0.053000 0.911000
v 0.355000 0.015800 0.911000
v 0.355000 0.053000 0.911000
v 0.379000 0.009000 0.911000
v 0.379000 0.053000 0.911000
v 0.434000 0.009000 0.911000
v 0.434000 0.053000 0.911000
v 0.489000 0.009000 0.911000
v 0.489000 0.053000 0.911000
v 0.513000 0.015800 0.911000
v 0.513000 0.053000 0.911000
v 0.537000 0.015800 0.911000
v 0.537000 0.053000 0.911000
v 0.624000 0.015800 0.911000
v 0.624000 0.053000 0.911000
v 0.711000 0.015800 0.911000
v 0.711000 0.053000 0.911000
v 0.735000 0.015800 0.911000
v 0.735000 0.053000 0.911000
v 0.759000 0.009000 0.911000
v 0.759000 0.053000 0.911000
v 0.844000 0.009000 0.911000
v 0.844000 0.053000 0.911000
v 0.864000 0.010200 0.911000
v 0.864000 0.053000 0.911000
v 0.004000 0.010200 0.935000
v 0.004000 0.053000 0.935000
v 0.024000 0.009000 0.935000
v 0.024000 0.053000 0.935000
v 0.109000 0.009000 0.935000
v 0.109000 0.053000 0.935000
v 0.133000 0.015800 0.935000
v 0.133000 0.053000 0.935000
v 0.157000 0.011200 0.935000
v 0.157000 0.053000 0.935000
v 0.244000 0.011200 0.935000
v 0.244000 0.053000 0.935000
v 0.331000 0.011200 0.935000
v 0.331000 0.053000 0.935000
v 0.355000 0.015800 0.935000
v 0.355000 0.053000 0.935000
v 0.379000 0.009000 0.935000
v 0.379000 0.053000 0.935000
v 0.434000 0.009000 0.935000
v 0.434000 0.053000 0.935000
v 0.489000 0.009000 0.935000
v 0.489000 0.053000 0.935000
v 0.513000 0.015800 0.935000
v 0.513000 0.053000 0.935000
v 0.537000 0.011200 0.935000
v 0.537000 0.053000 0.935000
v 0.624000 0.011200 0.935000
v 0.624000 0.053000 0.935000
v 0.711000 0.011200 0.935000
v 0.711000 0.053000 0.935000
v 0.735000 0.015800 0.935000
v 0.735000 0.053000 0.935000
v 0.759000 0.009000 0.935000
v 0.759000 0.053000 0.935000
v 0.844000 0.009000 0.935000
v 0.844000 0.053000 0.935000
v 0.864000 0.010200 0.935000
v 0.864000 0.053000 0.935000
v 0.004000 0.010200 1.022000
v 0.004000 0.053000 1.022000
v 0.024000 0.009000 1.022000
v 0.024000 0.053000 1.022000
v 0.109000 0.009000 1.022000
v 0.109000 0.053000 1.022000
v 0.133000 0.015800 1.022000
v 0.133000 0.053000 1.022000
v 0.157000 0.011200 1.022000
v 0.157000 0.053000 1.022000
v 0.244000 0.011200 1.022000
v 0.244000 0.053000 1.022000
v 0.331000 0.011200 1.022000
v 0.331000 0.053000 1.022000
v 0.355000 0.015800 1.022000
v 0.355000 0.053000 1.022000
v 0.379000 0.009000 1.022000
v 0.379000 0.053000 1.022000
v 0.434000 0.009000 1.022000
v 0.434000 0.053000 1.022000
v 0.489000 0.009000 1.022000
v 0.489000 0.053000 1.022000
v 0.513000 0.015800 1.022000
v 0.513000 0.053000 1.022000
v 0.537000 0.011200 1.022000
v 0.537000 0.053000 1.022000
v 0.624000 0.011200 1.022000
v 0.624000 0.053000 1.022000
v 0.711000 0.011200 1.022000
v 0.711000 0.053000 1.022000
v 0.735000 0.015800 1.022000
v 0.735000 0.053000 1.022000
v 0.759000 0.009000 1.022000
v 0.759000 0.053000 1.022000
v 0.844000 0.009000 1.022000
v 0.844000 0.053000 1.022000
v 0.864000 0.010200 1.022000
v 0.864000 0.053000 1.022000
v 0.004000 0.010200 1.147000
v 0.004000 0.053000 1.147000
v 0.024000 0.009000 1.147000
v 0.024000 0.053000 1.147000
v 0.109000 0.009000 1.147000
v 0.109000 0.053000 1.147000
v 0.133000 0.015800 1.147000
v 0.133000 0.053000 1.147000
v 0.157000 0.011200 1.147000
v 0.157000 0.053000 1.147000
v 0.244000 0.011200 1.147000
v 0.244000 0.053000 1.147000
v 0.331000 0.011200 1.147000
v 0.331000 0.053000 1.147000
v 0.355000 0.015800 1.147000
v 0.355000 0.053000 1.147000
v 0.379000 0.009000 1.147000
v 0.379000 0.053000 1.147000
v 0.434000 0.009000 1.147000
v 0.434000 0.053000 1.147000
v 0.489000 0.009000 1.147000
v 0.489000 0.053000 1.147000
v 0.513000 0.015800 1.147000
v 0.513000 0.053000 1.147000
v 0.537000 0.011200 1.147000
v 0.537000 0.053000 1.147000
v 0.624000 0.011200 1.147000
v 0.624000 0.053000 1.147000
v 0.711000 0.011200 1.147000
v 0.711000 0.053000 1.147000
v 0.735000 0.015800 1.147000
v 0.735000 0.053000 1.147000
v 0.759000 0.009000 1.147000
v 0.759000 0.053000 1.147000
v 0.844000 0.009000 1.147000
v 0.844000 0.053000 1.147000
v 0.864000 0.010200 1.147000
v 0.864000 0.053000 1.147000
v 0.004000 0.010200 1.359000
v 0.004000 0.053000 1.359000
v 0.024000 0.009000 1.359000
v 0.024000 0.053000 1.359000
v 0.109000 0.009000 1.359000
v 0.109000 0.053000 1.359000
v 0.133000 0.015800 1.359000
v 0.133000 0.053000 1.359000
v 0.157000 0.011200 1.359000
v 0.157000 0.053000 1.359000
v 0.244000 0.011200 1.359000
v 0.244000 0.053000 1.359000
v 0.331000 0.011200 1.359000
v 0.331000 0.053000 1.359000
v 0.355000 0.015800 1.359000
v 0.355000 0.053000 1.359000
v 0.379000 0.009000 1.359000
v 0.379000 0.053000 1.359000
v 0.434000 0.009000 1.359000
v 0.434000 0.053000 1.359000
v 0.489000 0.009000 1.359000
v 0.489000 0.053000 1.359000
v 0.513000 0.015800 1.359000
v 0.513000 0.053000 1.359000
v 0.537000 0.011200 1.359000
v 0.537000 0.053000 1.359000
v 0.624000 0.011200 1.359000
v 0.624000 0.053000 1.359000
v 0.711000 0.011200 1.359000
v 0.711000 0.053000 1.359000
v 0.735000 0.015800 1.359000
v 0.735000 0.053000 1.359000
v 0.759000 0.009000 1.359000
v 0.759000 0.053000 1.359000
v 0.844000 0.009000 1.359000
v 0.844000 0.053000 1.359000
v 0.864000 0.010200 1.359000
v 0.864000 0.053000 1.359000
v 0.004000 0.010200 1.383000
v 0.004000 0.053000 1.383000
v 0.024000 0.009000 1.383000
v 0.024000 0.053000 1.383000
v 0.109000 0.009000 1.383000
v 0.109000 0.053000 1.383000
v 0.133000 0.015800 1.383000
v 0.133000 0.053000 1.383000
v 0.157000 0.015800 1.383000
v 0.157000 0.053000 1.383000
v 0.244000 0.015800 1.383000
v 0.244000 0.053000 1.383000
v 0.331000 0.015800 1.383000
v 0.331000 0.053000 1.383000
v 0.355000 0.015800 1.383000
v 0.355000 0.053000 1.383000
v 0.379000 0.009000 1.383000
v 0.379000 0.053000 1.383000
v 0.434000 0.009000 1.383000
v 0.434000 0.053000 1.383000
v 0.489000 0.009000 1.383000
v 0.489000 0.053000 1.383000
v 0.513000 0.015800 1.383000
v 0.513000 0.053000 1.383000
v 0.537000 0.015800 1.383000
v 0.537000 0.053000 1.383000
v 0.624000 0.015800 1.383000
v 0.624000 0.053000 1.383000
v 0.711000 0.015800 1.383000
v 0.711000 0.053000 1.383000
v 0.735000 0.015800 1.383000
v 0.735000 0.053000 1.383000
v 0.759000 0.009000 1.383000
v 0.759000 0.053000 1.383000
v 0.844000 0.009000 1.383000
v 0.844000 0.053000 1.383000
v 0.864000 0.010200 1.383000
v 0.864000 0.053000 1.383000
v 0.004000 0.010200 1.407000
v 0.004000 0.053000 1.407000
v 0.024000 0.009000 1.407000
v 0.024000 0.053000 1.407000
v 0.109000 0.009000 1.407000
v 0.109000 0.053000 1.407000
v 0.133000 0.009000 1.407000
v 0.133000 0.053000 1.407000
v 0.157000 0.009000 1.407000
v 0.157000 0.053000 1.407000
v 0.244000 0.009000 1.407000
v 0.244000 0.053000 1.407000
v 0.331000 0.009000 1.407000
v 0.331000 0.053000 1.407000
v 0.355000 0.009000 1.407000
v 0.355000 0.053000 1.407000
v 0.379000 0.009000 1.407000
v 0.379000 0.053000 1.407000
v 0.434000 0.009000 1.407000
v 0.434000 0.053000 1.407000
v 0.489000 0.009000 1.407000
v 0.489000 0.053000 1.407000
v 0.513000 0.009000 1.407000
v 0.513000 0.053000 1.407000
v 0.537000 0.009000 1.407000
v 0.537000 0.053000 1.407000
v 0.624000 0.009000 1.407000
v 0.624000 0.053000 1.407000
v 0.711000 0.009000 1.407000
v 0.711000 0.053000 1.407000
v 0.735000 0.009000 1.407000
v 0.735000 0.053000 1.407000
v 0.759000 0.009000 1.407000
v 0.759000 0.053000 1.407000
v 0.844000 0.009000 1.407000
v 0.844000 0.053000 1.407000
v 0.864000 0.010200 1.407000
v 0.864000 0.053000 1.407000
v 0.004000 0.010200 1.597000
v 0.004000 0.053000 1.597000
v 0.024000 0.009000 1.597000
v 0.024000 0.053000 1.597000
v 0.109000 0.009000 1.597000
v 0.109000 0.053000 1.597000
v 0.133000 0.009000 1.597000
v 0.133000 0.053000 1.597000
v 0.157000 0.009000 1.597000
v 0.157000 0.053000 1.597000
v 0.244000 0.009000 1.597000
v 0.244000 0.053000 1.597000
v 0.331000 0.009000 1.597000
v 0.331000 0.053000 1.597000
v 0.355000 0.009000 1.597000
v 0.355000 0.053000 1.597000
v 0.379000 0.009000 1.597000
v 0.379000 0.053000 1.597000
v 0.434000 0.009000 1.597000
v 0.434000 0.053000 1.597000
v 0.489000 0.009000 1.597000
v 0.489000 0.053000 1.597000
v 0.513000 0.009000 1.597000
v 0.513000 0.053000 1.597000
v 0.537000 0.009000 1.597000
v 0.537000 0.053000 1.597000
v 0.624000 0.009000 1.597000
v 0.624000 0.053000 1.597000
v 0.711000 0.009000 1.597000
v 0.711000 0.053000 1.597000
v 0.735000 0.009000 1.597000
v 0.735000 0.053000 1.597000
v 0.759000 0.009000 1.597000
v 0.759000 0.053000 1.597000
v 0.844000 0.009000 1.597000
v 0.844000 0.053000 1.597000
v 0.864000 0.010200 1.597000
v 0.864000 0.053000 1.597000
v 0.004000 0.010200 1.621000
v 0.004000 0.053000 1.621000
v 0.024000 0.009000 1.621000
v 0.024000 0.053000 1.621000
v 0.109000 0.009000 1.621000
v 0.109000 0.053000 1.621000
v 0.133000 0.015800 1.621000
v 0.133000 0.053000 1.621000
v 0.157000 0.015800 1.621000
v 0.157000 0.053000 1.621000
v 0.244000 0.015800 1.621000
v 0.244000 0.053000 1.621000
v 0.331000 0.015800 1.621000
v 0.331000 0.053000 1.621000
v 0.355000 0.015800 1.621000
v 0.355000 0.053000 1.621000
v 0.379000 0.009000 1.621000
v 0.379000 0.053000 1.621000
v 0.434000 0.009000 1.621000
v 0.434000 0.053000 1.621000
v 0.489000 0.009000 1.621000
v 0.489000 0.053000 1.621000
v 0.513000 0.015800 1.621000
v 0.513000 0.053000 1.621000
v 0.537000 0.015800 1.621000
v 0.537000 0.053000 1.621000
v 0.624000 0.015800 1.621000
v 0.624000 0.053000 1.621000
v 0.711000 0.015800 1.621000
v 0.711000 0.053000 1.621000
v 0.735000 0.015800 1.621000
v 0.735000 0.053000 1.621000
v 0.759000 0.009000 1.621000
v 0.759000 0.053000 1.621000
v 0.844000 0.009000 1.621000
v 0.844000 0.053000 1.621000
v 0.864000 0.010200 1.621000
v 0.864000 0.053000 1.621000
v 0.004000 0.010200 1.645000
v 0.004000 0.053000 1.645000
v 0.024000 0.009000 1.645000
v 0.024000 0.053000 1.645000
v 0.109000 0.009000 1.645000
v 0.109000 0.053000 1.645000
v 0.133000 0.015800 1.645000
v 0.133000 0.053000 1.645000
v 0.157000 0.011200 1.645000
v 0.157000 0.053000 1.645000
v 0.244000 0.011200 1.645000
v 0.244000 0.053000 1.645000
v 0.331000 0.011200 1.645000
v 0.331000 0.053000 1.645000
v 0.355000 0.015800 1.645000
v 0.355000 0.053000 1.645000
v 0.379000 0.009000 1.645000
v 0.379000 0.053000 1.645000
v 0.434000 0.009000 1.645000
v 0.434000 0.053000 1.645000
v 0.489000 0.009000 1.645000
v 0.489000 0.053000 1.645000
v 0.513000 0.015800 1.645000
v 0.513000 0.053000 1.645000
v 0.537000 0.011200 1.645000
v 0.537000 0.053000 1.645000
v 0.624000 0.011200 1.645000
v 0.624000 0.053000 1.645000
v 0.711000 0.011200 1.645000
v 0.711000 0.053000 1.645000
v 0.735000 0.015800 1.645000
v 0.735000 0.053000 1.645000
v 0.759000 0.009000 1.645000
v 0.759000 0.053000 1.645000
v 0.844000 0.009000 1.645000
v 0.844000 0.053000 1.645000
v 0.864000 0.010200 1.645000
v 0.864000 0.053000 1.645000
v 0.004000 0.010200 1.717000
v 0.004000 0.053000 1.717000
v 0.024000 0.009000 1.717000
v 0.024000 0.053000 1.717000
v 0.109000 0.009000 1.717000
v 0.109000 0.053000 1.717000
v 0.133000 0.015800 1.717000
v 0.133000 0.053000 1.717000
v 0.157000 0.011200 1.717000
v 0.157000 0.053000 1.717000
v 0.244000 0.011200 1.717000
v 0.244000 0.053000 1.717000
v 0.331000 0.011200 1.717000
v 0.331000 0.053000 1.717000
v 0.355000 0.015800 1.717000
v 0.355000 0.053000 1.717000
v 0.379000 0.009000 1.717000
v 0.379000 0.053000 1.717000
v 0.434000 0.009000 1.717000
v 0.434000 0.053000 1.717000
v 0.489000 0.009000 1.717000
v 0.489000 0.053000 1.717000
v 0.513000 0.015800 1.717000
v 0.513000 0.053000 1.717000
v 0.537000 0.011200 1.717000
v 0.537000 0.053000 1.717000
v 0.624000 0.011200 1.717000
v 0.624000 0.053000 1.717000
v 0.711000 0.011200 1.717000
v 0.711000 0.053000 1.717000
v 0.735000 0.015800 1.717000
v 0.735000 0.053000 1.717000
v 0.759000 0.009000 1.717000
v 0.759000 0.053000 1.717000
v 0.844000 0.009000 1.717000
v 0.844000 0.053000 1.717000
v 0.864000 0.010200 1.717000
v 0.864000 0.053000 1.717000
v 0.004000 0.010200 1.789000
v 0.004000 0.053000 1.789000
v 0.024000 0.009000 1.789000
v 0.024000 0.053000 1.789000
v 0.109000 0.009000 1.789000
v 0.109000 0.053000 1.789000
v 0.133000 0.015800 1.789000
v 0.133000 0.053000 1.789000
v 0.157000 0.011200 1.789000
v 0.157000 0.053000 1.789000
v 0.244000 0.011200 1.789000
v 0.244000 0.053000 1.789000
v 0.331000 0.011200 1.789000
v 0.331000 0.053000 1.789000
v 0.355000 0.015800 1.789000
v 0.355000 0.053000 1.789000
v 0.379000 0.009000 1.789000
v 0.379000 0.053000 1.789000
v 0.434000 0.009000 1.789000
v 0.434000 0.053000 1.789000
v 0.489000 0.009000 1.789000
v 0.489000 0.053000 1.789000
v 0.513000 0.015800 1.789000
v 0.513000 0.053000 1.789000
v 0.537000 0.011200 1.789000
v 0.537000 0.053000 1.789000
v 0.624000 0.011200 1.789000
v 0.624000 0.053000 1.789000
v 0.711000 0.011200 1.789000
v 0.711000 0.053000 1.789000
v 0.735000 0.015800 1.789000
v 0.735000 0.053000 1.789000
v 0.759000 0.009000 1.789000
v 0.759000 0.053000 1.789000
v 0.844000 0.009000 1.789000
v 0.844000 0.053000 1.789000
v 0.864000 0.010200 1.789000
v 0.864000 0.053000 1.789000
v 0.004000 0.010200 1.813000
v 0.004000 0.053000 1.813000
v 0.024000 0.009000 1.813000
v 0.024000 0.053000 1.813000
v 0.109000 0.009000 1.813000
v 0.109000 0.053000 1.813000
v 0.133000 0.015800 1.813000
v 0.133000 0.053000 1.813000
v 0.157000 0.015800 1.813000
v 0.157000 0.053000 1.813000
v 0.244000 0.015800 1.813000
v 0.244000 0.053000 1.813000
v 0.331000 0.015800 1.813000
v 0.331000 0.053000 1.813000
v 0.355000 0.015800 1.813000
v 0.355000 0.053000 1.813000
v 0.379000 0.009000 1.813000
v 0.379000 0.053000 1.813000
v 0.434000 0.009000 1.813000
v 0.434000 0.053000 1.813000
v 0.489000 0.009000 1.813000
v 0.489000 0.053000 1.813000
v 0.513000 0.015800 1.813000
v 0.513000 0.053000 1.813000
v 0.537000 0.015800 1.813000
v 0.537000 0.053000 1.813000
v 0.624000 0.015800 1.813000
v 0.624000 0.053000 1.813000
v 0.711000 0.015800 1.813000
v 0.711000 0.053000 1.813000
v 0.735000 0.015800 1.813000
v 0.735000 0.053000 1.813000
v 0.759000 0.009000 1.813000
v 0.759000 0.053000 1.813000
v 0.844000 0.009000 1.813000
v 0.844000 0.053000 1.813000
v 0.864000 0.010200 1.813000
v 0.864000 0.053000 1.813000
v 0.004000 0.010200 1.837000
v 0.004000 0.053000 1.837000
v 0.024000 0.009000 1.837000
v 0.024000 0.053000 1.837000
v 0.109000 0.009000 1.837000
v 0.109000 0.053000 1.837000
v 0.133000 0.009000 1.837000
v 0.133000 0.053000 1.837000
v 0.157000 0.009000 1.837000
v 0.157000 0.053000 1.837000
v 0.244000 0.009000 1.837000
v 0.244000 0.053000 1.837000
v 0.331000 0.009000 1.837000
v 0.331000 0.053000 1.837000
v 0.355000 0.009000 1.837000
v 0.355000 0.053000 1.837000
v 0.379000 0.009000 1.837000
v 0.379000 0.053000 1.837000
v 0.434000 0.009000 1.837000
v 0.434000 0.053000 1.837000
v 0.489000 0.009000 1.837000
v 0.489000 0.053000 1.837000
v 0.513000 0.009000 1.837000
v 0.513000 0.053000 1.837000
v 0.537000 0.009000 1.837000
v 0.537000 0.053000 1.837000
v 0.624000 0.009000 1.837000
v 0.624000 0.053000 1.837000
v 0.711000 0.009000 1.837000
v 0.711000 0.053000 1.837000
v 0.735000 0.009000 1.837000
v 0.735000 0.053000 1.837000
v 0.759000 0.009000 1.837000
v 0.759000 0.053000 1.837000
v 0.844000 0.009000 1.837000
v 0.844000 0.053000 1.837000
v 0.864000 0.010200 1.837000
v 0.864000 0.053000 1.837000
v 0.004000 0.010200 1.982000
v 0.004000 0.053000 1.982000
v 0.024000 0.009000 1.982000
v 0.024000 0.053000 1.982000
v 0.109000 0.009000 1.982000
v 0.109000 0.053000 1.982000
v 0.133000 0.009000 1.982000
v 0.133000 0.053000 1.982000
v 0.157000 0.009000 1.982000
v 0.157000 0.053000 1.982000
v 0.244000 0.009000 1.982000
v 0.244000 0.053000 1.982000
v 0.331000 0.009000 1.982000
v 0.331000 0.053000 1.982000
v 0.355000 0.009000 1.982000
v 0.355000 0.053000 1.982000
v 0.379000 0.009000 1.982000
v 0.379000 0.053000 1.982000
v 0.434000 0.009000 1.982000
v 0.434000 0.053000 1.982000
v 0.489000 0.009000 1.982000
v 0.489000 0.053000 1.982000
v 0.513000 0.009000 1.982000
v 0.513000 0.053000 1.982000
v 0.537000 0.009000 1.982000
v 0.537000 0.053000 1.982000
v 0.624000 0.009000 1.982000
v 0.624000 0.053000 1.982000
v 0.711000 0.009000 1.982000
v 0.711000 0.053000 1.982000
v 0.735000 0.009000 1.982000
v 0.735000 0.053000 1.982000
v 0.759000 0.009000 1.982000
v 0.759000 0.053000 1.982000
v 0.844000 0.009000 1.982000
v 0.844000 0.053000 1.982000
v 0.864000 0.010200 1.982000
v 0.864000 0.053000 1.982000
v 0.004000 0.010200 2.032000
v 0.004000 0.053000 2.032000
v 0.024000 0.010200 2.032000
v 0.024000 0.053000 2.032000
v 0.109000 0.010200 2.032000
v 0.109000 0.053000 2.032000
v 0.133000 0.010200 2.032000
v 0.133000 0.053000 2.032000
v 0.157000 0.010200 2.032000
v 0.157000 0.053000 2.032000
v 0.244000 0.010200 2.032000
v 0.244000 0.053000 2.032000
v 0.331000 0.010200 2.032000
v 0.331000 0.053000 2.032000
v 0.355000 0.010200 2.032000
v 0.355000 0.053000 2.032000
v 0.379000 0.010200 2.032000
v 0.379000 0.053000 2.032000
v 0.434000 0.010200 2.032000
v 0.434000 0.053000 2.032000
v 0.489000 0.010200 2.032000
v 0.489000 0.053000 2.032000
v 0.513000 0.010200 2.032000
v 0.513000 0.053000 2.032000
v 0.537000 0.010200 2.032000
v 0.537000 0.053000 2.032000
v 0.624000 0.010200 2.032000
v 0.624000 0.053000 2.032000
v 0.711000 0.010200 2.032000
v 0.711000 0.053000 2.032000
v 0.735000 0.010200 2.032000
v 0.735000 0.053000 2.032000
v 0.759000 0.010200 2.032000
v 0.759000 0.053000 2.032000
v 0.844000 0.010200 2.032000
v 0.844000 0.053000 2.032000
v 0.864000 0.010200 2.032000
v 0.864000 0.053000 2.032000
f 1 3 41
f 1 41 39
f 4 2 40
f 4 40 42
f 3 5 43
f 3 43 41
f 6 4 42
f 6 42 44
f 5 7 45
f 5 45 43
f 8 6 44
f 8 44 46
f 7 9 47
f 7 47 45
f 10 8 46
f 10 46 48
f 9 11 49
f 9 49 47
f 12 10 48
f 12 48 50
f 11 13 51
f 11 51 49
f 14 12 50
f 14 50 52
f 13 15 53
f 13 53 51
f 16 14 52
f 16 52 54
f 15 17 55
f 15 55 53
f 18 16 54
f 18 54 56
f 17 19 57
f 17 57 55
f 20 18 56
f 20 56 58
f 19 21 59
f 19 59 57
f 22 20 58
f 22 58 60
f 21 23 61
f 21 61 59
f 24 22 60
f 24 60 62
f 23 25 63
f 23 63 61
f 26 24 62
f 26 62 64
f 25 27 65
f 25 65 63
f 28 26 64
f 28 64 66
f 27 29 67
f 27 67 65
f 30 28 66
f 30 66 68
f 29 31 69
f 29 69 67
f 32 30 68
f 32 68 70
f 31 33 71
f 31 71 69
f 34 32 70
f 34 70 72
f 33 35 73
f 33 73 71
f 36 34 72
f 36 72 74
f 35 37 75
f 35 75 73
f 38 36 74
f 38 74 76
f 39 41 79
f 39 79 77
f 42 40 78
f 42 78 80
f 41 43 81
f 41 81 79
f 44 42 80
f 44 80 82
f 43 45 83
f 43 83 81
f 46 44 82
f 46 82 84
f 45 47 85
f 45 85 83
f 48 46 84
f 48 84 86
f 47 49 87
f 47 87 85
f 50 48 86
f 50 86 88
f 49 51 89
f 49 89 87
f 52 50 88
f 52 88 90
f 51 53 91
f 51 91 89
f 54 52 90
f 54 90 92
f 53 55 93
f 53 93 91
f 56 54 92
f 56 92 94
f 55 57 95
f 55 95 93
f 58 56 94
f 58 94 96
f 57 59 97
f 57 97 95
f 60 58 96
f 60 96 98
f 59 61 99
f 59 99 97
f 62 60 98
f 62 98 100
f 61 63 101
f 61 101 99
f 64 62 100
f 64 100 102
f 63 65 103
f 63 103 101
f 66 64 102
f 66 102 104
f 65 67 105
f 65 105 103
f 68 66 104
f 68 104 106
f 67 69 107
f 67 107 105
f 70 68 106
f 70 106 108
f 69 71 109
f 69 109 107
f 72 70 108
f 72 108 110
f 71 73 111
f 71 111 109
f 74 72 110
f 74 110 112
f 73 75 113
f 73 113 111
f 76 74 112
f 76 112 114
f 77 79 117
f 77 117 115
f 80 78 116
f 80 116 118
f 79 81 119
f 79 119 117
f 82 80 118
f 82 118 120
f 81 83 121
f 81 121 119
f 84 82 120
f 84 120 122
f 83 85 123
f 83 123 121
f 86 84 122
f 86 122 124
f 85 87 125
f 85 125 123
f 88 86 124
f 88 124 126
f 87 89 127
f 87 127 125
f 90 88 126
f 90 126 128
f 89 91 129
f 89 129 127
f 92 90 128
f 92 128 130
f 91 93 131
f 91 131 129
f 94 92 130
f 94 130 132
f 93 95 133
f 93 133 131
f 96 94 132
f 96 132 134
f 95 97 135
f 95 135 133
f 98 96 134
f 98 134 136
f 97 99 137
f 97 137 135
f 100 98 136
f 100 136 138
f 99 101 139
f 99 139 137
f 102 100 138
f 102 138 140
f 101 103 141
f 101 141 139
f 104 102 140
f 104 140 142
f 103 105 143
f 103 143 141
f 106 104 142
f 106 142 144
f 105 107 145
f 105 145 143
f 108 106 144
f 108 144 146
f 107 109 147
f 107 147 145
f 110 108 146
f 110 146 148
f 109 111 149
f 109 149 147
f 112 110 148
f 112 148 150
f 111 113 151
f 111 151 149
f 114 112 150
f 114 150 152
f 115 117 155
f 115 155 153
f 118 116 154
f 118 154 156
f 117 119 157
f 117 157 155
f 120 118 156
f 120 156 158
f 119 121 159
f 119 159 157
f 122 120 158
f 122 158 160
f 121 123 161
f 121 161 159
f 124 122 160
f 124 160 162
f 123 125 163
f 123 163 161
f 126 124 162
f 126 162 164
f 125 127 165
f 125 165 163
f 128 126 164
f 128 164 166
f 127 129 167
f 127 167 165
f 130 128 166
f 130 166 168
f 129 131 169
f 129 169 167
f 132 130 168
f 132 168 170
f 131 133 171
f 131 171 169
f 134 132 170
f 134 170 172
f 133 135 173
f 133 173 171
f 136 134 172
f 136 172 174
f 135 137 175
f 135 175 173
f 138 136 174
f 138 174 176
f 137 139 177
f 137 177 175
f 140 138 176
f 140 176 178
f 139 141 179
f 139 179 177
f 142 140 178
f 142 178 180
f 141 143 181
f 141 181 179
f 144 142 180
f 144 180 182
f 143 145 183
f 143 183 181
f 146 144 182
f 146 182 184
f 145 147 185
f 145 185 183
f 148 146 184
f 148 184 186
f 147 149 187
f 147 187 185
f 150 148 186
f 150 186 188
f 149 151 189
f 149 189 187
f 152 150 188
f 152 188 190
f 153 155 193
f 153 193 191
f 156 154 192
f 156 192 194
f 155 157 195
f 155 195 193
f 158 156 194
f 158 194 196
f 157 159 197
f 157 197 195
f 160 158 196
f 160 196 198
f 159 161 199
f 159 199 197
f 162 160 198
f 162 198 200
f 161 163 201
f 161 201 199
f 164 162 200
f 164 200 202
f 163 165 203
f 163 203 201
f 166 164 202
f 166 202 204
f 165 167 205
f 165 205 203
f 168 166 204
f 168 204 206
f 167 169 207
f 167 207 205
f 170 168 206
f 170 206 208
f 169 171 209
f 169 209 207
f 172 170 208
f 172 208 210
f 171 173 211
f 171 211 209
f 174 172 210
f 174 210 212
f 173 175 213
f 173 213 211
f 176 174 212
f 176 212 214
f 175 177 215
f 175 215 213
f 178 176 214
f 178 214 216
f 177 179 217
f 177 217 215
f 180 178 216
f 180 216 218
f 179 181 219
f 179 219 217
f 182 180 218
f 182 218 220
f 181 183 221
f 181 221 219
f 184 182 220
f 184 220 222
f 183 185 223
f 183 223 221
f 186 184 222
f 186 222 224
f 185 187 225
f 185 225 223
f 188 186 224
f 188 224 226
f 187 189 227
f 187 227 225
f 190 188 226
f 190 226 228
f 191 193 231
f 191 231 229
f 194 192 230
f 194 230 232
f 193 195 233
f 193 233 231
f 196 194 232
f 196 232 234
f 195 197 235
f 195 235 233
f 198 196 234
f 198 234 236
f 197 199 237
f 197 237 235
f 200 198 236
f 200 236 238
f 199 201 239
f 199 239 237
f 202 200 238
f 202 238 240
f 201 203 241
f 201 241 239
f 204 202 240
f 204 240 242
f 203 205 243
f 203 243 241
f 206 204 242
f 206 242 244
f 205 207 245
f 205 245 243
f 208 206 244
f 208 244 246
f 207 209 247
f 207 247 245
f 210 208 246
f 210 246 248
f 209 211 249
f 209 249 247
f 212 210 248
f 212 248 250
f 211 213 251
f 211 251 249
f 214 212 250
f 214 250 252
f 213 215 253
f 213 253 251
f 216 214 252
f 216 252 254
f 215 217 255
f 215 255 253
f 218 216 254
f 218 254 256
f 217 219 257
f 217 257 255
f 220 218 256
f 220 256 258
f 219 221 259
f 219 259 257
f 222 220 258
f 222 258 260
f 221 223 261
f 221 261 259
f 224 222 260
f 224 260 262
f 223 225 263
f 223 263 261
f 226 224 262
f 226 262 264
f 225 227 265
f 225 265 263
f 228 226 264
f 228 264 266
f 229 231 269
f 229 269 267
f 232 230 268
f 232 268 270
f 231 233 271
f 231 271 269
f 234 232 270
f 234 270 272
f 233 235 273
f 233 273 271
f 236 234 272
f 236 272 274
f 235 237 275
f 235 275 273
f 238 236 274
f 238 274 276
f 237 239 277
f 237 277 275
f 240 238 276
f 240 276 278
f 239 241 279
f 239 279 277
f 242 240 278
f 242 278 280
f 241 243 281
f 241 281 279
f 244 242 280
f 244 280 282
f 243 245 283
f 243 283 281
f 246 244 282
f 246 282 284
f 245 247 285
f 245 285 283
f 248 246 284
f 248 284 286
f 247 249 287
f 247 287 285
f 250 248 286
f 250 286 288
f 249 251 289
f 249 289 287
f 252 250 288
f 252 288 290
f 251 253 291
f 251 291 289
f 254 252 290
f 254 290 292
f 253 255 293
f 253 293 291
f 256 254 292
f 256 292 294
f 255 257 295
f 255 295 293
f 258 256 294
f 258 294 296
f 257 259 297
f 257 297 295
f 260 258 296
f 260 296 298
f 259 261 299
f 259 299 297
f 262 260 298
f 262 298 300
f 261 263 301
f 261 301 299
f 264 262 300
f 264 300 302
f 263 265 303
f 263 303 301
f 266 264 302
f 266 302 304
f 267 269 307
f 267 307 305
f 270 268 306
f 270 306 308
f 269 271 309
f 269 309 307
f 272 270 308
f 272 308 310
f 271 273 311
f 271 311 309
f 274 272 310
f 274 310 312
f 273 275 313
f 273 313 311
f 276 274 312
f 276 312 314
f 275 277 315
f 275 315 313
f 278 276 314
f 278 314 316
f 277 279 317
f 277 317 315
f 280 278 316
f 280 316 318
f 279 281 319
f 279 319 317
f 282 280 318
f 282 318 320
f 281 283 321
f 281 321 319
f 284 282 320
f 284 320 322
f 283 285 323
f 283 323 321
f 286 284 322
f 286 322 324
f 285 287 325
f 285 325 323
f 288 286 324
f 288 324 326
f 287 289 327
f 287 327 325
f 290 288 326
f 290 326 328
f 289 291 329
f 289 329 327
f 292 290 328
f 292 328 330
f 291 293 331
f 291 331 329
f 294 292 330
f 294 330 332
f 293 295 333
f 293 333 331
f 296 294 332
f 296 332 334
f 295 297 335
f 295 335 333
f 298 296 334
f 298 334 336
f 297 299 337
f 297 337 335
f 300 298 336
f 300 336 338
f 299 301 339
f 299 339 337
f 302 300 338
f 302 338 340
f 301 303 341
f 301 341 339
f 304 302 340
f 304 340 342
f 305 307 345
f 305 345 343
f 308 306 344
f 308 344 346
f 307 309 347
f 307 347 345
f 310 308 346
f 310 346 348
f 309 311 349
f 309 349 347
f 312 310 348
f 312 348 350
f 311 313 351
f 311 351 349
f 314 312 350
f 314 350 352
f 313 315 353
f 313 353 351
f 316 314 352
f 316 352 354
f 315 317 355
f 315 355 353
f 318 316 354
f 318 354 356
f 317 319 357
f 317 357 355
f 320 318 356
f 320 356 358
f 319 321 359
f 319 359 357
f 322 320 358
f 322 358 360
f 321 323 361
f 321 361 359
f 324 322 360
f 324 360 362
f 323 325 363
f 323 363 361
f 326 324 362
f 326 362 364
f 325 327 365
f 325 365 363
f 328 326 364
f 328 364 366
f 327 329 367
f 327 367 365
f 330 328 366
f 330 366 368
f 329 331 369
f 329 369 367
f 332 330 368
f 332 368 370
f 331 333 371
f 331 371 369
f 334 332 370
f 334 370 372
f 333 335 373
f 333 373 371
f 336 334 372
f 336 372 374
f 335 337 375
f 335 375 373
f 338 336 374
f 338 374 376
f 337 339 377
f 337 377 375
f 340 338 376
f 340 376 378
f 339 341 379
f 339 379 377
f 342 340 378
f 342 378 380
f 343 345 383
f 343 383 381
f 346 344 382
f 346 382 384
f 345 347 385
f 345 385 383
f 348 346 384
f 348 384 386
f 347 349 387
f 347 387 385
f 350 348 386
f 350 386 388
f 349 351 389
f 349 389 387
f 352 350 388
f 352 388 390
f 351 353 391
f 351 391 389
f 354 352 390
f 354 390 392
f 353 355 393
f 353 393 391
f 356 354 392
f 356 392 394
f 355 357 395
f 355 395 393
f 358 356 394
f 358 394 396
f 357 359 397
f 357 397 395
f 360 358 396
f 360 396 398
f 359 361 399
f 359 399 397
f 362 360 398
f 362 398 400
f 361 363 401
f 361 401 399
f 364 362 400
f 364 400 402
f 363 365 403
f 363 403 401
f 366 364 402
f 366 402 404
f 365 367 405
f 365 405 403
f 368 366 404
f 368 404 406
f 367 369 407
f 367 407 405
f 370 368 406
f 370 406 408
f 369 371 409
f 369 409 407
f 372 370 408
f 372 408 410
f 371 373 411
f 371 411 409
f 374 372 410
f 374 410 412
f 373 375 413
f 373 413 411
f 376 374 412
f 376 412 414
f 375 377 415
f 375 415 413
f 378 376 414
f 378 414 416
f 377 379 417
f 377 417 415
f 380 378 416
f 380 416 418
f 381 383 421
f 381 421 419
f 384 382 420
f 384 420 422
f 383 385 423
f 383 423 421
f 386 384 422
f 386 422 424
f 385 387 425
f 385 425 423
f 388 386 424
f 388 424 426
f 387 389 427
f 387 427 425
f 390 388 426
f 390 426 428
f 389 391 429
f 389 429 427
f 392 390 428
f 392 428 430
f 391 393 431
f 391 431 429
f 394 392 430
f 394 430 432
f 393 395 433
f 393 433 431
f 396 394 432
f 396 432 434
f 395 397 435
f 395 435 433
f 398 396 434
f 398 434 436
f 397 399 437
f 397 437 435
f 400 398 436
f 400 436 438
f 399 401 439
f 399 439 437
f 402 400 438
f 402 438 440
f 401 403 441
f 401 441 439
f 404 402 440
f 404 440 442
f 403 405 443
f 403 443 441
f 406 404 442
f 406 442 444
f 405 407 445
f 405 445 443
f 408 406 444
f 408 444 446
f 407 409 447
f 407 447 445
f 410 408 446
f 410 446 448
f 409 411 449
f 409 449 447
f 412 410 448
f 412 448 450
f 411 413 451
f 411 451 449
f 414 412 450
f 414 450 452
f 413 415 453
f 413 453 451
f 416 414 452
f 416 452 454
f 415 417 455
f 415 455 453
f 418 416 454
f 418 454 456
f 419 421 459
f 419 459 457
f 422 420 458
f 422 458 460
f 421 423 461
f 421 461 459
f 424 422 460
f 424 460 462
f 423 425 463
f 423 463 461
f 426 424 462
f 426 462 464
f 425 427 465
f 425 465 463
f 428 426 464
f 428 464 466
f 427 429 467
f 427 467 465
f 430 428 466
f 430 466 468
f 429 431 469
f 429 469 467
f 432 430 468
f 432 468 470
f 431 433 471
f 431 471 469
f 434 432 470
f 434 470 472
f 433 435 473
f 433 473 471
f 436 434 472
f 436 472 474
f 435 437 475
f 435 475 473
f 438 436 474
f 438 474 476
f 437 439 477
f 437 477 475
f 440 438 476
f 440 476 478
f 439 441 479
f 439 479 477
f 442 440 478
f 442 478 480
f 441 443 481
f 441 481 479
f 444 442 480
f 444 480 482
f 443 445 483
f 443 483 481
f 446 444 482
f 446 482 484
f 445 447 485
f 445 485 483
f 448 446 484
f 448 484 486
f 447 449 487
f 447 487 485
f 450 448 486
f 450 486 488
f 449 451 489
f 449 489 487
f 452 450 488
f 452 488 490
f 451 453 491
f 451 491 489
f 454 452 490
f 454 490 492
f 453 455 493
f 453 493 491
f 456 454 492
f 456 492 494
f 457 459 497
f 457 497 495
f 460 458 496
f 460 496 498
f 459 461 499
f 459 499 497
f 462 460 498
f 462 498 500
f 461 463 501
f 461 501 499
f 464 462 500
f 464 500 502
f 463 465 503
f 463 503 501
f 466 464 502
f 466 502 504
f 465 467 505
f 465 505 503
f 468 466 504
f 468 504 506
f 467 469 507
f 467 507 505
f 470 468 506
f 470 506 508
f 469 471 509
f 469 509 507
f 472 470 508
f 472 508 510
f 471 473 511
f 471 511 509
f 474 472 510
f 474 510 512
f 473 475 513
f 473 513 511
f 476 474 512
f 476 512 514
f 475 477 515
f 475 515 513
f 478 476 514
f 478 514 516
f 477 479 517
f 477 517 515
f 480 478 516
f 480 516 518
f 479 481 519
f 479 519 517
f 482 480 518
f 482 518 520
f 481 483 521
f 481 521 519
f 484 482 520
f 484 520 522
f 483 485 523
f 483 523 521
f 486 484 522
f 486 522 524
f 485 487 525
f 485 525 523
f 488 486 524
f 488 524 526
f 487 489 527
f 487 527 525
f 490 488 526
f 490 526 528
f 489 491 529
f 489 529 527
f 492 490 528
f 492 528 530
f 491 493 531
f 491 531 529
f 494 492 530
f 494 530 532
f 495 497 535
f 495 535 533
f 498 496 534
f 498 534 536
f 497 499 537
f 497 537 535
f 500 498 536
f 500 536 538
f 499 501 539
f 499 539 537
f 502 500 538
f 502 538 540
f 501 503 541
f 501 541 539
f 504 502 540
f 504 540 542
f 503 505 543
f 503 543 541
f 506 504 542
f 506 542 544
f 505 507 545
f 505 545 543
f 508 506 544
f 508 544 546
f 507 509 547
f 507 547 545
f 510 508 546
f 510 546 548
f 509 511 549
f 509 549 547
f 512 510 548
f 512 548 550
f 511 513 551
f 511 551 549
f 514 512 550
f 514 550 552
f 513 515 553
f 513 553 551
f 516 514 552
f 516 552 554
f 515 517 555
f 515 555 553
f 518 516 554
f 518 554 556
f 517 519 557
f 517 557 555
f 520 518 556
f 520 556 558
f 519 521 559
f 519 559 557
f 522 520 558
f 522 558 560
f 521 523 561
f 521 561 559
f 524 522 560
f 524 560 562
f 523 525 563
f 523 563 561
f 526 524 562
f 526 562 564
f 525 527 565
f 525 565 563
f 528 526 564
f 528 564 566
f 527 529 567
f 527 567 565
f 530 528 566
f 530 566 568
f 529 531 569
f 529 569 567
f 532 530 568
f 532 568 570
f 533 535 573
f 533 573 571
f 536 534 572
f 536 572 574
f 535 537 575
f 535 575 573
f 538 536 574
f 538 574 576
f 537 539 577
f 537 577 575
f 540 538 576
f 540 576 578
f 539 541 579
f 539 579 577
f 542 540 578
f 542 578 580
f 541 543 581
f 541 581 579
f 544 542 580
f 544 580 582
f 543 545 583
f 543 583 581
f 546 544 582
f 546 582 584
f 545 547 585
f 545 585 583
f 548 546 584
f 548 584 586
f 547 549 587
f 547 587 585
f 550 548 586
f 550 586 588
f 549 551 589
f 549 589 587
f 552 550 588
f 552 588 590
f 551 553 591
f 551 591 589
f 554 552 590
f 554 590 592
f 553 555 593
f 553 593 591
f 556 554 592
f 556 592 594
f 555 557 595
f 555 595 593
f 558 556 594
f 558 594 596
f 557 559 597
f 557 597 595
f 560 558 596
f 560 596 598
f 559 561 599
f 559 599 597
f 562 560 598
f 562 598 600
f 561 563 601
f 561 601 599
f 564 562 600
f 564 600 602
f 563 565 603
f 563 603 601
f 566 564 602
f 566 602 604
f 565 567 605
f 565 605 603
f 568 566 604
f 568 604 606
f 567 569 607
f 567 607 605
f 570 568 606
f 570 606 608
f 571 573 611
f 571 611 609
f 574 572 610
f 574 610 612
f 573 575 613
f 573 613 611
f 576 574 612
f 576 612 614
f 575 577 615
f 575 615 613
f 578 576 614
f 578 614 616
f 577 579 617
f 577 617 615
f 580 578 616
f 580 616 618
f 579 581 619
f 579 619 617
f 582 580 618
f 582 618 620
f 581 583 621
f 581 621 619
f 584 582 620
f 584 620 622
f 583 585 623
f 583 623 621
f 586 584 622
f 586 622 624
f 585 587 625
f 585 625 623
f 588 586 624
f 588 624 626
f 587 589 627
f 587 627 625
f 590 588 626
f 590 626 628
f 589 591 629
f 589 629 627
f 592 590 628
f 592 628 630
f 591 593 631
f 591 631 629
f 594 592 630
f 594 630 632
f 593 595 633
f 593 633 631
f 596 594 632
f 596 632 634
f 595 597 635
f 595 635 633
f 598 596 634
f 598 634 636
f 597 599 637
f 597 637 635
f 600 598 636
f 600 636 638
f 599 601 639
f 599 639 637
f 602 600 638
f 602 638 640
f 601 603 641
f 601 641 639
f 604 602 640
f 604 640 642
f 603 605 643
f 603 643 641
f 606 604 642
f 606 642 644
f 605 607 645
f 605 645 643
f 608 606 644
f 608 644 646
f 609 611 649
f 609 649 647
f 612 610 648
f 612 648 650
f 611 613 651
f 611 651 649
f 614 612 650
f 614 650 652
f 613 615 653
f 613 653 651
f 616 614 652
f 616 652 654
f 615 617 655
f 615 655 653
f 618 616 654
f 618 654 656
f 617 619 657
f 617 657 655
f 620 618 656
f 620 656 658
f 619 621 659
f 619 659 657
f 622 620 658
f 622 658 660
f 621 623 661
f 621 661 659
f 624 622 660
f 624 660 662
f 623 625 663
f 623 663 661
f 626 624 662
f 626 662 664
f 625 627 665
f 625 665 663
f 628 626 664
f 628 664 666
f 627 629 667
f 627 667 665
f 630 628 666
f 630 666 668
f 629 631 669
f 629 669 667
f 632 630 668
f 632 668 670
f 631 633 671
f 631 671 669
f 634 632 670
f 634 670 672
f 633 635 673
f 633 673 671
f 636 634 672
f 636 672 674
f 635 637 675
f 635 675 673
f 638 636 674
f 638 674 676
f 637 639 677
f 637 677 675
f 640 638 676
f 640 676 678
f 639 641 679
f 639 679 677
f 642 640 678
f 642 678 680
f 641 643 681
f 641 681 679
f 644 642 680
f 644 680 682
f 643 645 683
f 643 683 681
f 646 644 682
f 646 682 684
f 647 649 687
f 647 687 685
f 650 648 686
f 650 686 688
f 649 651 689
f 649 689 687
f 652 650 688
f 652 688 690
f 651 653 691
f 651 691 689
f 654 652 690
f 654 690 692
f 653 655 693
f 653 693 691
f 656 654 692
f 656 692 694
f 655 657 695
f 655 695 693
f 658 656 694
f 658 694 696
f 657 659 697
f 657 697 695
f 660 658 696
f 660 696 698
f 659 661 699
f 659 699 697
f 662 660 698
f 662 698 700
f 661 663 701
f 661 701 699
f 664 662 700
f 664 700 702
f 663 665 703
f 663 703 701
f 666 664 702
f 666 702 704
f 665 667 705
f 665 705 703
f 668 666 704
f 668 704 706
f 667 669 707
f 667 707 705
f 670 668 706
f 670 706 708
f 669 671 709
f 669 709 707
f 672 670 708
f 672 708 710
f 671 673 711
f 671 711 709
f 674 672 710
f 674 710 712
f 673 675 713
f 673 713 711
f 676 674 712
f 676 712 714
f 675 677 715
f 675 715 713
f 678 676 714
f 678 714 716
f 677 679 717
f 677 717 715
f 680 678 716
f 680 716 718
f 679 681 719
f 679 719 717
f 682 680 718
f 682 718 720
f 681 683 721
f 681 721 719
f 684 682 720
f 684 720 722
f 685 687 725
f 685 725 723
f 688 686 724
f 688 724 726
f 687 689 727
f 687 727 725
f 690 688 726
f 690 726 728
f 689 691 729
f 689 729 727
f 692 690 728
f 692 728 730
f 691 693 731
f 691 731 729
f 694 692 730
f 694 730 732
f 693 695 733
f 693 733 731
f 696 694 732
f 696 732 734
f 695 697 735
f 695 735 733
f 698 696 734
f 698 734 736
f 697 699 737
f 697 737 735
f 700 698 736
f 700 736 738
f 699 701 739
f 699 739 737
f 702 700 738
f 702 738 740
f 701 703 741
f 701 741 739
f 704 702 740
f 704 740 742
f 703 705 743
f 703 743 741
f 706 704 742
f 706 742 744
f 705 707 745
f 705 745 743
f 708 706 744
f 708 744 746
f 707 709 747
f 707 747 745
f 710 708 746
f 710 746 748
f 709 711 749
f 709 749 747
f 712 710 748
f 712 748 750
f 711 713 751
f 711 751 749
f 714 712 750
f 714 750 752
f 713 715 753
f 713 753 751
f 716 714 752
f 716 752 754
f 715 717 755
f 715 755 753
f 718 716 754
f 718 754 756
f 717 719 757
f 717 757 755
f 720 718 756
f 720 756 758
f 719 721 759
f 719 759 757
f 722 720 758
f 722 758 760
f 723 725 763
f 723 763 761
f 726 724 762
f 726 762 764
f 725 727 765
f 725 765 763
f 728 726 764
f 728 764 766
f 727 729 767
f 727 767 765
f 730 728 766
f 730 766 768
f 729 731 769
f 729 769 767
f 732 730 768
f 732 768 770
f 731 733 771
f 731 771 769
f 734 732 770
f 734 770 772
f 733 735 773
f 733 773 771
f 736 734 772
f 736 772 774
f 735 737 775
f 735 775 773
f 738 736 774
f 738 774 776
f 737 739 777
f 737 777 775
f 740 738 776
f 740 776 778
f 739 741 779
f 739 779 777
f 742 740 778
f 742 778 780
f 741 743 781
f 741 781 779
f 744 742 780
f 744 780 782
f 743 745 783
f 743 783 781
f 746 744 782
f 746 782 784
f 745 747 785
f 745 785 783
f 748 746 784
f 748 784 786
f 747 749 787
f 747 787 785
f 750 748 786
f 750 786 788
f 749 751 789
f 749 789 787
f 752 750 788
f 752 788 790
f 751 753 791
f 751 791 789
f 754 752 790
f 754 790 792
f 753 755 793
f 753 793 791
f 756 754 792
f 756 792 794
f 755 757 795
f 755 795 793
f 758 756 794
f 758 794 796
f 757 759 797
f 757 797 795
f 760 758 796
f 760 796 798
f 761 763 801
f 761 801 799
f 764 762 800
f 764 800 802
f 763 765 803
f 763 803 801
f 766 764 802
f 766 802 804
f 765 767 805
f 765 805 803
f 768 766 804
f 768 804 806
f 767 769 807
f 767 807 805
f 770 768 806
f 770 806 808
f 769 771 809
f 769 809 807
f 772 770 808
f 772 808 810
f 771 773 811
f 771 811 809
f 774 772 810
f 774 810 812
f 773 775 813
f 773 813 811
f 776 774 812
f 776 812 814
f 775 777 815
f 775 815 813
f 778 776 814
f 778 814 816
f 777 779 817
f 777 817 815
f 780 778 816
f 780 816 818
f 779 781 819
f 779 819 817
f 782 780 818
f 782 818 820
f 781 783 821
f 781 821 819
f 784 782 820
f 784 820 822
f 783 785 823
f 783 823 821
f 786 784 822
f 786 822 824
f 785 787 825
f 785 825 823
f 788 786 824
f 788 824 826
f 787 789 827
f 787 827 825
f 790 788 826
f 790 826 828
f 789 791 829
f 789 829 827
f 792 790 828
f 792 828 830
f 791 793 831
f 791 831 829
f 794 792 830
f 794 830 832
f 793 795 833
f 793 833 831
f 796 794 832
f 796 832 834
f 795 797 835
f 795 835 833
f 798 796 834
f 798 834 836
f 799 801 839
f 799 839 837
f 802 800 838
f 802 838 840
f 801 803 841
f 801 841 839
f 804 802 840
f 804 840 842
f 803 805 843
f 803 843 841
f 806 804 842
f 806 842 844
f 805 807 845
f 805 845 843
f 808 806 844
f 808 844 846
f 807 809 847
f 807 847 845
f 810 808 846
f 810 846 848
f 809 811 849
f 809 849 847
f 812 810 848
f 812 848 850
f 811 813 851
f 811 851 849
f 814 812 850
f 814 850 852
f 813 815 853
f 813 853 851
f 816 814 852
f 816 852 854
f 815 817 855
f 815 855 853
f 818 816 854
f 818 854 856
f 817 819 857
f 817 857 855
f 820 818 856
f 820 856 858
f 819 821 859
f 819 859 857
f 822 820 858
f 822 858 860
f 821 823 861
f 821 861 859
f 824 822 860
f 824 860 862
f 823 825 863
f 823 863 861
f 826 824 862
f 826 862 864
f 825 827 865
f 825 865 863
f 828 826 864
f 828 864 866
f 827 829 867
f 827 867 865
f 830 828 866
f 830 866 868
f 829 831 869
f 829 869 867
f 832 830 868
f 832 868 870
f 831 833 871
f 831 871 869
f 834 832 870
f 834 870 872
f 833 835 873
f 833 873 871
f 836 834 872
f 836 872 874
f 837 839 877
f 837 877 875
f 840 838 876
f 840 876 878
f 839 841 879
f 839 879 877
f 842 840 878
f 842 878 880
f 841 843 881
f 841 881 879
f 844 842 880
f 844 880 882
f 843 845 883
f 843 883 881
f 846 844 882
f 846 882 884
f 845 847 885
f 845 885 883
f 848 846 884
f 848 884 886
f 847 849 887
f 847 887 885
f 850 848 886
f 850 886 888
f 849 851 889
f 849 889 887
f 852 850 888
f 852 888 890
f 851 853 891
f 851 891 889
f 854 852 890
f 854 890 892
f 853 855 893
f 853 893 891
f 856 854 892
f 856 892 894
f 855 857 895
f 855 895 893
f 858 856 894
f 858 894 896
f 857 859 897
f 857 897 895
f 860 858 896
f 860 896 898
f 859 861 899
f 859 899 897
f 862 860 898
f 862 898 900
f 861 863 901
f 861 901 899
f 864 862 900
f 864 900 902
f 863 865 903
f 863 903 901
f 866 864 902
f 866 902 904
f 865 867 905
f 865 905 903
f 868 866 904
f 868 904 906
f 867 869 907
f 867 907 905
f 870 868 906
f 870 906 908
f 869 871 909
f 869 909 907
f 872 870 908
f 872 908 910
f 871 873 911
f 871 911 909
f 874 872 910
f 874 910 912
f 875 877 915
f 875 915 913
f 878 876 914
f 878 914 916
f 877 879 917
f 877 917 915
f 880 878 916
f 880 916 918
f 879 881 919
f 879 919 917
f 882 880 918
f 882 918 920
f 881 883 921
f 881 921 919
f 884 882 920
f 884 920 922
f 883 885 923
f 883 923 921
f 886 884 922
f 886 922 924
f 885 887 925
f 885 925 923
f 888 886 924
f 888 924 926
f 887 889 927
f 887 927 925
f 890 888 926
f 890 926 928
f 889 891 929
f 889 929 927
f 892 890 928
f 892 928 930
f 891 893 931
f 891 931 929
f 894 892 930
f 894 930 932
f 893 895 933
f 893 933 931
f 896 894 932
f 896 932 934
f 895 897 935
f 895 935 933
f 898 896 934
f 898 934 936
f 897 899 937
f 897 937 935
f 900 898 936
f 900 936 938
f 899 901 939
f 899 939 937
f 902 900 938
f 902 938 940
f 901 903 941
f 901 941 939
f 904 902 940
f 904 940 942
f 903 905 943
f 903 943 941
f 906 904 942
f 906 942 944
f 905 907 945
f 905 945 943
f 908 906 944
f 908 944 946
f 907 909 947
f 907 947 945
f 910 908 946
f 910 946 948
f 909 911 949
f 909 949 947
f 912 910 948
f 912 948 950
f 913 915 953
f 913 953 951
f 916 914 952
f 916 952 954
f 915 917 955
f 915 955 953
f 918 916 954
f 918 954 956
f 917 919 957
f 917 957 955
f 920 918 956
f 920 956 958
f 919 921 959
f 919 959 957
f 922 920 958
f 922 958 960
f 921 923 961
f 921 961 959
f 924 922 960
f 924 960 962
f 923 925 963
f 923 963 961
f 926 924 962
f 926 962 964
f 925 927 965
f 925 965 963
f 928 926 964
f 928 964 966
f 927 929 967
f 927 967 965
f 930 928 966
f 930 966 968
f 929 931 969
f 929 969 967
f 932 930 968
f 932 968 970
f 931 933 971
f 931 971 969
f 934 932 970
f 934 970 972
f 933 935 973
f 933 973 971
f 936 934 972
f 936 972 974
f 935 937 975
f 935 975 973
f 938 936 974
f 938 974 976
f 937 939 977
f 937 977 975
f 940 938 976
f 940 976 978
f 939 941 979
f 939 979 977
f 942 940 978
f 942 978 980
f 941 943 981
f 941 981 979
f 944 942 980
f 944 980 982
f 943 945 983
f 943 983 981
f 946 944 982
f 946 982 984
f 945 947 985
f 945 985 983
f 948 946 984
f 948 984 986
f 947 949 987
f 947 987 985
f 950 948 986
f 950 986 988
f 1 2 4
f 1 4 3
f 953 954 952
f 953 952 951
f 3 4 6
f 3 6 5
f 955 956 954
f 955 954 953
f 5 6 8
f 5 8 7
f 957 958 956
f 957 956 955
f 7 8 10
f 7 10 9
f 959 960 958
f 959 958 957
f 9 10 12
f 9 12 11
f 961 962 960
f 961 960 959
f 11 12 14
f 11 14 13
f 963 964 962
f 963 962 961
f 13 14 16
f 13 16 15
f 965 966 964
f 965 964 963
f 15 16 18
f 15 18 17
f 967 968 966
f 967 966 965
f 17 18 20
f 17 20 19
f 969 970 968
f 969 968 967
f 19 20 22
f 19 22 21
f 971 972 970
f 971 970 969
f 21 22 24
f 21 24 23
f 973 974 972
f 973 972 971
f 23 24 26
f 23 26 25
f 975 976 974
f 975 974 973
f 25 26 28
f 25 28 27
f 977 978 976
f 977 976 975
f 27 28 30
f 27 30 29
f 979 980 978
f 979 978 977
f 29 30 32
f 29 32 31
f 981 982 980
f 981 980 979
f 31 32 34
f 31 34 33
f 983 984 982
f 983 982 981
f 33 34 36
f 33 36 35
f 985 986 984
f 985 984 983
f 35 36 38
f 35 38 37
f 987 988 986
f 987 986 985
f 39 40 2
f 39 2 1
f 37 38 76
f 37 76 75
f 77 78 40
f 77 40 39
f 75 76 114
f 75 114 113
f 115 116 78
f 115 78 77
f 113 114 152
f 113 152 151
f 153 154 116
f 153 116 115
f 151 152 190
f 151 190 189
f 191 192 154
f 191 154 153
f 189 190 228
f 189 228 227
f 229 230 192
f 229 192 191
f 227 228 266
f 227 266 265
f 267 268 230
f 267 230 229
f 265 266 304
f 265 304 303
f 305 306 268
f 305 268 267
f 303 304 342
f 303 342 341
f 343 344 306
f 343 306 305
f 341 342 380
f 341 380 379
f 381 382 344
f 381 344 343
f 379 380 418
f 379 418 417
f 419 420 382
f 419 382 381
f 417 418 456
f 417 456 455
f 457 458 420
f 457 420 419
f 455 456 494
f 455 494 493
f 495 496 458
f 495 458 457
f 493 494 532
f 493 532 531
f 533 534 496
f 533 496 495
f 531 532 570
f 531 570 569
f 571 572 534
f 571 534 533
f 569 570 608
f 569 608 607
f 609 610 572
f 609 572 571
f 607 608 646
f 607 646 645
f 647 648 610
f 647 610 609
f 645 646 684
f 645 684 683
f 685 686 648
f 685 648 647
f 683 684 722
f 683 722 721
f 723 724 686
f 723 686 685
f 721 722 760
f 721 760 759
f 761 762 724
f 761 724 723
f 759 760 798
f 759 798 797
f 799 800 762
f 799 762 761
f 797 798 836
f 797 836 835
f 837 838 800
f 837 800 799
f 835 836 874
f 835 874 873
f 875 876 838
f 875 838 837
f 873 874 912
f 873 912 911
f 913 914 876
f 913 876 875
f 911 912 950
f 911 950 949
f 951 952 914
f 951 914 913
f 949 950 988
f 949 988 987
