o mesh
v -0.002591 -0.014900 0.000000
v -0.002639 -0.014563 0.002588
v -0.002780 -0.013574 0.005000
v -0.003004 -0.012001 0.007071
v -0.003295 -0.009950 0.008660
v -0.003635 -0.007562 0.009659
v -0.004000 -0.005000 0.010000
v -0.004365 -0.002438 0.009659
v -0.004705 -0.000050 0.008660
v -0.004996 0.002001 0.007071
v -0.005220 0.003574 0.005000
v -0.005361 0.004563 0.002588
v -0.005409 0.004900 0.000000
v -0.005361 0.004563 -0.002588
v -0.005220 0.003574 -0.005000
v -0.004996 0.002001 -0.007071
v -0.004705 -0.000050 -0.008660
v -0.004365 -0.002438 -0.009659
v -0.004000 -0.005000 -0.010000
v -0.003635 -0.007562 -0.009659
v -0.003295 -0.009950 -0.008660
v -0.003004 -0.012001 -0.007071
v -0.002780 -0.013574 -0.005000
v -0.002639 -0.014563 -0.002588
v -0.005122 -0.015260 0.000000
v -0.005171 -0.014923 0.002588
v -0.005315 -0.013935 0.005000
v -0.005543 -0.012362 0.007071
v -0.005841 -0.010312 0.008660
v -0.006188 -0.007926 0.009659
v -0.006560 -0.005364 0.010000
v -0.006932 -0.002803 0.009659
v -0.007278 -0.000416 0.008660
v -0.007576 0.001633 0.007071
v -0.007805 0.003206 0.005000
v -0.007948 0.004195 0.002588
v -0.007997 0.004532 0.000000
v -0.007948 0.004195 -0.002588
v -0.007805 0.003206 -0.005000
v -0.007576 0.001633 -0.007071
v -0.007278 -0.000416 -0.008660
v -0.006932 -0.002803 -0.009659
v -0.006560 -0.005364 -0.010000
v -0.006188 -0.007926 -0.009659
v -0.005841 -0.010312 -0.008660
v -0.005543 -0.012362 -0.007071
v -0.005315 -0.013935 -0.005000
v -0.005171 -0.014923 -0.002588
v -0.007612 -0.015630 0.000000
v -0.007663 -0.015293 0.002588
v -0.007811 -0.014305 0.005000
v -0.008048 -0.012733 0.007071
v -0.008356 -0.010685 0.008660
v -0.008714 -0.008300 0.009659
v -0.009099 -0.005741 0.010000
v -0.009484 -0.003181 0.009659
v -0.009843 -0.000796 0.008660
v -0.010151 0.001252 0.007071
v -0.010387 0.002823 0.005000
v -0.010536 0.003811 0.002588
v -0.010587 0.004148 0.000000
v -0.010536 0.003811 -0.002588
v -0.010387 0.002823 -0.005000
v -0.010151 0.001252 -0.007071
v -0.009843 -0.000796 -0.008660
v -0.009484 -0.003181 -0.009659
v -0.009099 -0.005741 -0.010000
v -0.008714 -0.008300 -0.009659
v -0.008356 -0.010685 -0.008660
v -0.008048 -0.012733 -0.007071
v -0.007811 -0.014305 -0.005000
v -0.007663 -0.015293 -0.002588
v -0.010103 -0.016010 0.000000
v -0.010155 -0.015673 0.002588
v -0.010307 -0.014686 0.005000
v -0.010549 -0.013115 0.007071
v -0.010864 -0.011068 0.008660
v -0.011231 -0.008684 0.009659
v -0.011625 -0.006126 0.010000
v -0.012018 -0.003568 0.009659
v -0.012385 -0.001184 0.008660
v -0.012701 0.000863 0.007071
v -0.012942 0.002433 0.005000
v -0.013094 0.003421 0.002588
v -0.013146 0.003757 0.000000
v -0.013094 0.003421 -0.002588
v -0.012942 0.002433 -0.005000
v -0.012701 0.000863 -0.007071
v -0.012385 -0.001184 -0.008660
v -0.012018 -0.003568 -0.009659
v -0.011625 -0.006126 -0.010000
v -0.011231 -0.008684 -0.009659
v -0.010864 -0.011068 -0.008660
v -0.010549 -0.013115 -0.007071
v -0.010307 -0.014686 -0.005000
v -0.010155 -0.015673 -0.002588
v -0.012601 -0.016398 0.000000
v -0.012653 -0.016061 0.002588
v -0.012807 -0.015074 0.005000
v -0.013052 -0.013504 0.007071
v -0.013371 -0.011457 0.008660
v -0.013742 -0.009074 0.009659
v -0.014141 -0.006517 0.010000
v -0.014539 -0.003960 0.009659
v -0.014911 -0.001577 0.008660
v -0.015230 0.000470 0.007071
v -0.015475 0.002040 0.005000
v -0.015629 0.003027 0.002588
v -0.015681 0.003364 0.000000
v -0.015629 0.003027 -0.002588
v -0.015475 0.002040 -0.005000
v -0.015230 0.000470 -0.007071
v -0.014911 -0.001577 -0.008660
v -0.014539 -0.003960 -0.009659
v -0.014141 -0.006517 -0.010000
v -0.013742 -0.009074 -0.009659
v -0.013371 -0.011457 -0.008660
v -0.013052 -0.013504 -0.007071
v -0.012807 -0.015074 -0.005000
v -0.012653 -0.016061 -0.002588
v -0.015110 -0.016790 0.000000
v -0.015163 -0.016454 0.002588
v -0.015317 -0.015467 0.005000
v -0.015562 -0.013896 0.007071
v -0.015882 -0.011850 0.008660
v -0.016254 -0.009467 0.009659
v -0.016653 -0.006910 0.010000
v -0.017053 -0.004353 0.009659
v -0.017425 -0.001970 0.008660
v -0.017744 0.000076 0.007071
v -0.017990 0.001646 0.005000
v -0.018144 0.002634 0.002588
v -0.018196 0.002970 0.000000
v -0.018144 0.002634 -0.002588
v -0.017990 0.001646 -0.005000
v -0.017744 0.000076 -0.007071
v -0.017425 -0.001970 -0.008660
v -0.017053 -0.004353 -0.009659
v -0.016653 -0.006910 -0.010000
v -0.016254 -0.009467 -0.009659
v -0.015882 -0.011850 -0.008660
v -0.015562 -0.013896 -0.007071
v -0.015317 -0.015467 -0.005000
v -0.015163 -0.016454 -0.002588
v -0.017638 -0.017184 0.000000
v -0.017690 -0.016848 0.002588
v -0.017843 -0.015860 0.005000
v -0.018086 -0.014290 0.007071
v -0.018403 -0.012243 0.008660
v -0.018772 -0.009860 0.009659
v -0.019168 -0.007302 0.010000
v -0.019564 -0.004744 0.009659
v -0.019933 -0.002361 0.008660
v -0.020249 -0.000314 0.007071
v -0.020492 0.001256 0.005000
v -0.020645 0.002244 0.002588
v -0.020697 0.002580 0.000000
v -0.020645 0.002244 -0.002588
v -0.020492 0.001256 -0.005000
v -0.020249 -0.000314 -0.007071
v -0.019933 -0.002361 -0.008660
v -0.019564 -0.004744 -0.009659
v -0.019168 -0.007302 -0.010000
v -0.018772 -0.009860 -0.009659
v -0.018403 -0.012243 -0.008660
v -0.018086 -0.014290 -0.007071
v -0.017843 -0.015860 -0.005000
v -0.017690 -0.016848 -0.002588
v -0.020189 -0.017576 0.000000
v -0.020240 -0.017239 0.002588
v -0.020390 -0.016252 0.005000
v -0.020628 -0.014681 0.007071
v -0.020939 -0.012633 0.008660
v -0.021301 -0.010248 0.009659
v -0.021689 -0.007690 0.010000
v -0.022078 -0.005131 0.009659
v -0.022440 -0.002746 0.008660
v -0.022750 -0.000699 0.007071
v -0.022989 0.000873 0.005000
v -0.023139 0.001860 0.002588
v -0.023190 0.002197 0.000000
v -0.023139 0.001860 -0.002588
v -0.022989 0.000873 -0.005000
v -0.022750 -0.000699 -0.007071
v -0.022440 -0.002746 -0.008660
v -0.022078 -0.005131 -0.009659
v -0.021689 -0.007690 -0.010000
v -0.021301 -0.010248 -0.009659
v -0.020939 -0.012633 -0.008660
v -0.020628 -0.014681 -0.007071
v -0.020390 -0.016252 -0.005000
v -0.020240 -0.017239 -0.002588
v -0.022768 -0.017963 0.000000
v -0.022817 -0.017626 0.002588
v -0.022963 -0.016637 0.005000
v -0.023194 -0.015065 0.007071
v -0.023496 -0.013016 0.008660
v -0.023847 -0.010630 0.009659
v -0.024224 -0.008069 0.010000
v -0.024600 -0.005509 0.009659
v -0.024952 -0.003123 0.008660
v -0.025253 -0.001074 0.007071
v -0.025485 0.000499 0.005000
v -0.025630 0.001487 0.002588
v -0.025680 0.001824 0.000000
v -0.025630 0.001487 -0.002588
v -0.025485 0.000499 -0.005000
v -0.025253 -0.001074 -0.007071
v -0.024952 -0.003123 -0.008660
v -0.024600 -0.005509 -0.009659
v -0.024224 -0.008069 -0.010000
v -0.023847 -0.010630 -0.009659
v -0.023496 -0.013016 -0.008660
v -0.023194 -0.015065 -0.007071
v -0.022963 -0.016637 -0.005000
v -0.022817 -0.017626 -0.002588
v -0.025380 -0.018340 0.000000
v -0.025427 -0.018003 0.002588
v -0.025567 -0.017014 0.005000
v -0.025789 -0.015440 0.007071
v -0.026078 -0.013389 0.008660
v -0.026415 -0.011001 0.009659
v -0.026776 -0.008438 0.010000
v -0.027137 -0.005875 0.009659
v -0.027474 -0.003487 0.008660
v -0.027763 -0.001436 0.007071
v -0.027985 0.000137 0.005000
v -0.028125 0.001127 0.002588
v -0.028172 0.001464 0.000000
v -0.028125 0.001127 -0.002588
v -0.027985 0.000137 -0.005000
v -0.027763 -0.001436 -0.007071
v -0.027474 -0.003487 -0.008660
v -0.027137 -0.005875 -0.009659
v -0.026776 -0.008438 -0.010000
v -0.026415 -0.011001 -0.009659
v -0.026078 -0.013389 -0.008660
v -0.025789 -0.015440 -0.007071
v -0.025567 -0.017014 -0.005000
v -0.025427 -0.018003 -0.002588
v -0.028030 -0.018705 0.000000
v -0.028075 -0.018367 0.002588
v -0.028207 -0.017377 0.005000
v -0.028417 -0.015801 0.007071
v -0.028691 -0.013749 0.008660
v -0.029010 -0.011358 0.009659
v -0.029352 -0.008793 0.010000
v -0.029694 -0.006227 0.009659
v -0.030013 -0.003836 0.008660
v -0.030287 -0.001784 0.007071
v -0.030497 -0.000208 0.005000
v -0.030629 0.000782 0.002588
v -0.030674 0.001120 0.000000
v -0.030629 0.000782 -0.002588
v -0.030497 -0.000208 -0.005000
v -0.030287 -0.001784 -0.007071
v -0.030013 -0.003836 -0.008660
v -0.029694 -0.006227 -0.009659
v -0.029352 -0.008793 -0.010000
v -0.029010 -0.011358 -0.009659
v -0.028691 -0.013749 -0.008660
v -0.028417 -0.015801 -0.007071
v -0.028207 -0.017377 -0.005000
v -0.028075 -0.018367 -0.002588
v -0.030723 -0.019053 0.000000
v -0.030765 -0.018715 0.002588
v -0.030888 -0.017723 0.005000
v -0.031084 -0.016146 0.007071
v -0.031340 -0.014091 0.008660
v -0.031637 -0.011698 0.009659
v -0.031957 -0.009129 0.010000
v -0.032276 -0.006561 0.009659
v -0.032574 -0.004167 0.008660
v -0.032830 -0.002112 0.007071
v -0.033026 -0.000535 0.005000
v -0.033149 0.000456 0.002588
v -0.033191 0.000794 0.000000
v -0.033149 0.000456 -0.002588
v -0.033026 -0.000535 -0.005000
v -0.032830 -0.002112 -0.007071
v -0.032574 -0.004167 -0.008660
v -0.032276 -0.006561 -0.009659
v -0.031957 -0.009129 -0.010000
v -0.031637 -0.011698 -0.009659
v -0.031340 -0.014091 -0.008660
v -0.031084 -0.016146 -0.007071
v -0.030888 -0.017723 -0.005000
v -0.030765 -0.018715 -0.002588
v -0.033462 -0.019380 0.000000
v -0.033501 -0.019042 0.002588
v -0.033614 -0.018049 0.005000
v -0.033794 -0.016470 0.007071
v -0.034029 -0.014413 0.008660
v -0.034303 -0.012016 0.009659
v -0.034596 -0.009445 0.010000
v -0.034890 -0.006873 0.009659
v -0.035163 -0.004477 0.008660
v -0.035398 -0.002419 0.007071
v -0.035578 -0.000841 0.005000
v -0.035692 0.000152 0.002588
v -0.035730 0.000491 0.000000
v -0.035692 0.000152 -0.002588
v -0.035578 -0.000841 -0.005000
v -0.035398 -0.002419 -0.007071
v -0.035163 -0.004477 -0.008660
v -0.034890 -0.006873 -0.009659
v -0.034596 -0.009445 -0.010000
v -0.034303 -0.012016 -0.009659
v -0.034029 -0.014413 -0.008660
v -0.033794 -0.016470 -0.007071
v -0.033614 -0.018049 -0.005000
v -0.033501 -0.019042 -0.002588
v -0.036254 -0.019684 0.000000
v -0.036288 -0.019345 0.002588
v -0.036391 -0.018351 0.005000
v -0.036553 -0.016770 0.007071
v -0.036765 -0.014710 0.008660
v -0.037011 -0.012311 0.009659
v -0.037276 -0.009736 0.010000
v -0.037540 -0.007162 0.009659
v -0.037786 -0.004762 0.008660
v -0.037998 -0.002702 0.007071
v -0.038161 -0.001121 0.005000
v -0.038263 -0.000128 0.002588
v -0.038297 0.000211 0.000000
v -0.038263 -0.000128 -0.002588
v -0.038161 -0.001121 -0.005000
v -0.037998 -0.002702 -0.007071
v -0.037786 -0.004762 -0.008660
v -0.037540 -0.007162 -0.009659
v -0.037276 -0.009736 -0.010000
v -0.037011 -0.012311 -0.009659
v -0.036765 -0.014710 -0.008660
v -0.036553 -0.016770 -0.007071
v -0.036391 -0.018351 -0.005000
v -0.036288 -0.019345 -0.002588
v -0.039091 -0.019959 0.000000
v -0.039121 -0.019619 0.002588
v -0.039211 -0.018624 0.005000
v -0.039354 -0.017042 0.007071
v -0.039542 -0.014979 0.008660
v -0.039761 -0.012577 0.009659
v -0.039996 -0.010000 0.010000
v -0.040231 -0.007422 0.009659
v -0.040451 -0.005020 0.008660
v -0.040640 -0.002958 0.007071
v -0.040785 -0.001375 0.005000
v -0.040877 -0.000381 0.002588
v -0.040909 -0.000041 -0.000000
v -0.040879 -0.000381 -0.002588
v -0.040789 -0.001376 -0.005000
v -0.040646 -0.002958 -0.007071
v -0.040458 -0.005021 -0.008660
v -0.040239 -0.007423 -0.009659
v -0.040004 -0.010000 -0.010000
v -0.039769 -0.012578 -0.009659
v -0.039549 -0.014980 -0.008660
v -0.039360 -0.017042 -0.007071
v -0.039215 -0.018625 -0.005000
v -0.039123 -0.019619 -0.002588
v -0.042338 -0.020239 0.000003
v -0.042363 -0.019900 0.002591
v -0.042442 -0.018904 0.005003
v -0.042569 -0.017320 0.007074
v -0.042738 -0.015255 0.008663
v -0.042935 -0.012852 0.009662
v -0.043147 -0.010272 0.010002
v -0.043361 -0.007693 0.009662
v -0.043561 -0.005289 0.008663
v -0.043734 -0.003225 0.007073
v -0.043867 -0.001642 0.005002
v -0.043953 -0.000647 0.002590
v -0.043985 -0.000307 0.000002
v -0.043960 -0.000647 -0.002586
v -0.043881 -0.001643 -0.004998
v -0.043754 -0.003227 -0.007069
v -0.043585 -0.005292 -0.008658
v -0.043388 -0.007695 -0.009657
v -0.043176 -0.010275 -0.009998
v -0.042962 -0.012854 -0.009657
v -0.042762 -0.015258 -0.008658
v -0.042589 -0.017321 -0.007068
v -0.042456 -0.018905 -0.004997
v -0.042370 -0.019900 -0.002586
v -0.045637 -0.020499 0.000009
v -0.045656 -0.020159 0.002598
v -0.045725 -0.019162 0.005009
v -0.045838 -0.017577 0.007080
v -0.045990 -0.015512 0.008669
v -0.046168 -0.013106 0.009668
v -0.046361 -0.010525 0.010009
v -0.046556 -0.007944 0.009668
v -0.046739 -0.005540 0.008669
v -0.046898 -0.003475 0.007080
v -0.047022 -0.001890 0.005009
v -0.047103 -0.000895 0.002597
v -0.047135 -0.000556 0.000009
v -0.047116 -0.000896 -0.002579
v -0.047047 -0.001893 -0.004991
v -0.046933 -0.003478 -0.007062
v -0.046782 -0.005543 -0.008651
v -0.046603 -0.007949 -0.009650
v -0.046410 -0.010530 -0.009991
v -0.046216 -0.013111 -0.009650
v -0.046033 -0.015515 -0.008651
v -0.045873 -0.017580 -0.007062
v -0.045749 -0.019165 -0.004991
v -0.045668 -0.020160 -0.002579
v -0.048986 -0.020739 0.000019
v -0.049001 -0.020398 0.002607
v -0.049061 -0.019401 0.005019
v -0.049162 -0.017815 0.007090
v -0.049298 -0.015748 0.008679
v -0.049458 -0.013342 0.009678
v -0.049633 -0.010759 0.010019
v -0.049810 -0.008177 0.009678
v -0.049976 -0.005771 0.008679
v -0.050122 -0.003705 0.007089
v -0.050236 -0.002120 0.005018
v -0.050312 -0.001124 0.002606
v -0.050343 -0.000785 0.000018
v -0.050328 -0.001126 -0.002570
v -0.050268 -0.002123 -0.004982
v -0.050167 -0.003709 -0.007053
v -0.050031 -0.005776 -0.008642
v -0.049871 -0.008182 -0.009641
v -0.049696 -0.010765 -0.009981
v -0.049519 -0.013347 -0.009640
v -0.049353 -0.015753 -0.008641
v -0.049207 -0.017819 -0.007052
v -0.049093 -0.019404 -0.004981
v -0.049017 -0.020400 -0.002569
v -0.052378 -0.020958 0.000031
v -0.052390 -0.020617 0.002619
v -0.052443 -0.019619 0.005031
v -0.052533 -0.018032 0.007102
v -0.052654 -0.015965 0.008691
v -0.052797 -0.013557 0.009690
v -0.052954 -0.010974 0.010030
v -0.053114 -0.008391 0.009689
v -0.053265 -0.005984 0.008690
v -0.053397 -0.003917 0.007101
v -0.053501 -0.002331 0.005029
v -0.053571 -0.001335 0.002617
v -0.053601 -0.000995 0.000029
v -0.053589 -0.001336 -0.002559
v -0.053537 -0.002334 -0.004971
v -0.053447 -0.003921 -0.007041
v -0.053326 -0.005989 -0.008630
v -0.053182 -0.008396 -0.009629
v -0.053025 -0.010980 -0.009970
v -0.052866 -0.013563 -0.009629
v -0.052715 -0.015970 -0.008630
v -0.052582 -0.018037 -0.007040
v -0.052478 -0.019622 -0.004969
v -0.052408 -0.020619 -0.002557
v -0.055807 -0.021157 0.000043
v -0.055816 -0.020816 0.002632
v -0.055862 -0.019817 0.005043
v -0.055942 -0.018230 0.007114
v -0.056049 -0.016162 0.008703
v -0.056178 -0.013753 0.009702
v -0.056318 -0.011169 0.010042
v -0.056460 -0.008584 0.009701
v -0.056596 -0.006176 0.008702
v -0.056714 -0.004109 0.007113
v -0.056808 -0.002523 0.005041
v -0.056872 -0.001526 0.002630
v -0.056899 -0.001187 0.000041
v -0.056890 -0.001528 -0.002547
v -0.056844 -0.002526 -0.004959
v -0.056764 -0.004113 -0.007029
v -0.056657 -0.006182 -0.008618
v -0.056529 -0.008590 -0.009617
v -0.056389 -0.011175 -0.009958
v -0.056246 -0.013759 -0.009617
v -0.056111 -0.016167 -0.008617
v -0.055992 -0.018234 -0.007028
v -0.055898 -0.019820 -0.004957
v -0.055835 -0.020817 -0.002545
v -0.059264 -0.021335 0.000055
v -0.059272 -0.020994 0.002644
v -0.059312 -0.019995 0.005055
v -0.059382 -0.018407 0.007126
v -0.059477 -0.016338 0.008715
v -0.059590 -0.013929 0.009714
v -0.059714 -0.011344 0.010054
v -0.059840 -0.008758 0.009713
v -0.059960 -0.006350 0.008714
v -0.060065 -0.004282 0.007124
v -0.060149 -0.002695 0.005053
v -0.060205 -0.001698 0.002641
v -0.060230 -0.001358 0.000053
v -0.060222 -0.001699 -0.002535
v -0.060181 -0.002698 -0.004947
v -0.060111 -0.004286 -0.007018
v -0.060016 -0.006355 -0.008607
v -0.059903 -0.008764 -0.009605
v -0.059779 -0.011349 -0.009946
v -0.059653 -0.013934 -0.009605
v -0.059533 -0.016343 -0.008605
v -0.059428 -0.018411 -0.007016
v -0.059345 -0.019998 -0.004945
v -0.059289 -0.020995 -0.002533
v -0.062741 -0.021492 0.000066
v -0.062749 -0.021151 0.002654
v -0.062784 -0.020152 0.005066
v -0.062846 -0.018564 0.007137
v -0.062929 -0.016494 0.008725
v -0.063028 -0.014084 0.009724
v -0.063136 -0.011498 0.010065
v -0.063246 -0.008912 0.009723
v -0.063350 -0.006503 0.008724
v -0.063442 -0.004434 0.007135
v -0.063514 -0.002847 0.005063
v -0.063562 -0.001849 0.002651
v -0.063583 -0.001510 0.000063
v -0.063576 -0.001851 -0.002525
v -0.063540 -0.002850 -0.004937
v -0.063479 -0.004438 -0.007007
v -0.063396 -0.006507 -0.008596
v -0.063297 -0.008917 -0.009595
v -0.063189 -0.011503 -0.009935
v -0.063079 -0.014089 -0.009594
v -0.062974 -0.016499 -0.008595
v -0.062883 -0.018567 -0.007005
v -0.062811 -0.020155 -0.004934
v -0.062762 -0.021152 -0.002522
v -0.066231 -0.021628 0.000074
v -0.066239 -0.021287 0.002662
v -0.066271 -0.020288 0.005074
v -0.066325 -0.018700 0.007144
v -0.066397 -0.016630 0.008733
v -0.066482 -0.014219 0.009732
v -0.066575 -0.011633 0.010072
v -0.066668 -0.009046 0.009731
v -0.066757 -0.006636 0.008732
v -0.066834 -0.004567 0.007142
v -0.066895 -0.002979 0.005071
v -0.066935 -0.001981 0.002659
v -0.066952 -0.001641 0.000071
v -0.066944 -0.001982 -0.002517
v -0.066912 -0.002981 -0.004929
v -0.066858 -0.004570 -0.007000
v -0.066786 -0.006640 -0.008589
v -0.066701 -0.009050 -0.009587
v -0.066609 -0.011637 -0.009928
v -0.066515 -0.014223 -0.009587
v -0.066426 -0.016633 -0.008587
v -0.066349 -0.018703 -0.006998
v -0.066288 -0.020291 -0.004926
v -0.066248 -0.021288 -0.002514
v -0.069727 -0.021744 0.000078
v -0.069736 -0.021403 0.002666
v -0.069765 -0.020404 0.005078
v -0.069811 -0.018815 0.007148
v -0.069873 -0.016745 0.008737
v -0.069945 -0.014334 0.009736
v -0.070022 -0.011747 0.010076
v -0.070100 -0.009160 0.009735
v -0.070173 -0.006749 0.008736
v -0.070236 -0.004679 0.007146
v -0.070284 -0.003091 0.005075
v -0.070315 -0.002093 0.002663
v -0.070326 -0.001753 0.000075
v -0.070317 -0.002094 -0.002513
v -0.070288 -0.003093 -0.004925
v -0.070242 -0.004682 -0.006996
v -0.070180 -0.006752 -0.008585
v -0.070108 -0.009163 -0.009583
v -0.070031 -0.011750 -0.009924
v -0.069953 -0.014337 -0.009583
v -0.069880 -0.016748 -0.008583
v -0.069818 -0.018817 -0.006994
v -0.069769 -0.020405 -0.004922
v -0.069738 -0.021404 -0.002510
v -0.073219 -0.021838 0.000077
v -0.073230 -0.021497 0.002665
v -0.073257 -0.020498 0.005077
v -0.073298 -0.018909 0.007147
v -0.073349 -0.016838 0.008736
v -0.073408 -0.014427 0.009735
v -0.073470 -0.011840 0.010075
v -0.073532 -0.009252 0.009734
v -0.073589 -0.006841 0.008735
v -0.073637 -0.004771 0.007145
v -0.073672 -0.003183 0.005074
v -0.073693 -0.002184 0.002662
v -0.073699 -0.001844 0.000074
v -0.073687 -0.002185 -0.002514
v -0.073661 -0.003184 -0.004926
v -0.073620 -0.004773 -0.006997
v -0.073569 -0.006843 -0.008586
v -0.073510 -0.009255 -0.009584
v -0.073447 -0.011842 -0.009925
v -0.073386 -0.014430 -0.009584
v -0.073329 -0.016841 -0.008584
v -0.073281 -0.018911 -0.006995
v -0.073246 -0.020499 -0.004923
v -0.073224 -0.021498 -0.002511
v -0.076702 -0.021911 0.000070
v -0.076716 -0.021570 0.002658
v -0.076741 -0.020571 0.005069
v -0.076776 -0.018982 0.007140
v -0.076818 -0.016911 0.008729
v -0.076864 -0.014500 0.009728
v -0.076912 -0.011912 0.010068
v -0.076957 -0.009324 0.009727
v -0.076997 -0.006913 0.008728
v -0.077029 -0.004842 0.007138
v -0.077051 -0.003253 0.005067
v -0.077062 -0.002255 0.002655
v -0.077060 -0.001914 0.000067
v -0.077046 -0.002255 -0.002521
v -0.077020 -0.003254 -0.004933
v -0.076985 -0.004843 -0.007004
v -0.076943 -0.006914 -0.008593
v -0.076897 -0.009326 -0.009591
v -0.076850 -0.011913 -0.009932
v -0.076804 -0.014501 -0.009591
v -0.076764 -0.016912 -0.008591
v -0.076732 -0.018983 -0.007002
v -0.076710 -0.020572 -0.004931
v -0.076700 -0.021571 -0.002519
v -0.080166 -0.021962 0.000055
v -0.080184 -0.021622 0.002643
v -0.080209 -0.020623 0.005055
v -0.080238 -0.019033 0.007126
v -0.080271 -0.016962 0.008715
v -0.080305 -0.014551 0.009714
v -0.080337 -0.011963 0.010054
v -0.080366 -0.009375 0.009713
v -0.080389 -0.006963 0.008714
v -0.080405 -0.004892 0.007124
v -0.080412 -0.003303 0.005053
v -0.080411 -0.002304 0.002641
v -0.080401 -0.001964 0.000053
v -0.080383 -0.002305 -0.002535
v -0.080358 -0.003304 -0.004947
v -0.080329 -0.004893 -0.007017
v -0.080296 -0.006964 -0.008606
v -0.080262 -0.009375 -0.009605
v -0.080230 -0.011963 -0.009946
v -0.080201 -0.014551 -0.009605
v -0.080178 -0.016963 -0.008605
v -0.080162 -0.019034 -0.007016
v -0.080155 -0.020623 -0.004945
v -0.080156 -0.021622 -0.002533
v -0.083604 -0.021992 0.000032
v -0.083627 -0.021651 0.002620
v -0.083652 -0.020652 0.005032
v -0.083678 -0.019063 0.007103
v -0.083702 -0.016992 0.008692
v -0.083723 -0.014580 0.009691
v -0.083740 -0.011992 0.010031
v -0.083751 -0.009404 0.009691
v -0.083757 -0.006992 0.008692
v -0.083755 -0.004921 0.007102
v -0.083747 -0.003332 0.005031
v -0.083733 -0.002333 0.002619
v -0.083714 -0.001992 0.000031
v -0.083691 -0.002333 -0.002557
v -0.083667 -0.003332 -0.004968
v -0.083641 -0.004921 -0.007039
v -0.083617 -0.006992 -0.008628
v -0.083596 -0.009404 -0.009627
v -0.083579 -0.011992 -0.009968
v -0.083567 -0.014580 -0.009627
v -0.083562 -0.016992 -0.008628
v -0.083563 -0.019063 -0.007039
v -0.083571 -0.020652 -0.004968
v -0.083585 -0.021651 -0.002556
v -0.087022 -0.022000 -0.000000
v -0.087050 -0.021659 0.002588
v -0.087074 -0.020660 0.004999
v -0.087094 -0.019071 0.007070
v -0.087107 -0.017000 0.008660
v -0.087112 -0.014588 0.009659
v -0.087110 -0.012000 0.009999
v -0.087101 -0.009412 0.009659
v -0.087085 -0.007000 0.008660
v -0.087062 -0.004929 0.007071
v -0.087036 -0.003340 0.005000
v -0.087007 -0.002341 0.002588
v -0.086978 -0.002000 0.000000
v -0.086950 -0.002341 -0.002588
v -0.086926 -0.003340 -0.004999
v -0.086906 -0.004929 -0.007070
v -0.086893 -0.007000 -0.008660
v -0.086888 -0.009412 -0.009659
v -0.086890 -0.012000 -0.009999
v -0.086899 -0.014588 -0.009659
v -0.086915 -0.017000 -0.008660
v -0.086938 -0.019071 -0.007071
v -0.086964 -0.020660 -0.005000
v -0.086993 -0.021659 -0.002588
v -0.090368 -0.021977 -0.000043
v -0.090401 -0.021636 0.002545
v -0.090422 -0.020637 0.004957
v -0.090431 -0.019048 0.007028
v -0.090428 -0.016977 0.008618
v -0.090412 -0.014566 0.009617
v -0.090385 -0.011978 0.009958
v -0.090348 -0.009390 0.009618
v -0.090304 -0.006978 0.008619
v -0.090256 -0.004907 0.007031
v -0.090208 -0.003318 0.004960
v -0.090161 -0.002319 0.002549
v -0.090121 -0.001978 -0.000039
v -0.090089 -0.002319 -0.002627
v -0.090067 -0.003318 -0.005039
v -0.090058 -0.004907 -0.007110
v -0.090061 -0.006978 -0.008699
v -0.090077 -0.009390 -0.009699
v -0.090104 -0.011978 -0.010040
v -0.090141 -0.014566 -0.009700
v -0.090185 -0.016977 -0.008701
v -0.090233 -0.019048 -0.007113
v -0.090282 -0.020637 -0.005042
v -0.090328 -0.021636 -0.002631
v -0.093708 -0.021917 -0.000095
v -0.093744 -0.021576 0.002493
v -0.093761 -0.020578 0.004905
v -0.093759 -0.018989 0.006977
v -0.093739 -0.016918 0.008566
v -0.093700 -0.014507 0.009566
v -0.093647 -0.011919 0.009908
v -0.093583 -0.009332 0.009568
v -0.093511 -0.006921 0.008570
v -0.093437 -0.004850 0.006982
v -0.093366 -0.003262 0.004911
v -0.093303 -0.002263 0.002500
v -0.093252 -0.001922 -0.000087
v -0.093217 -0.002263 -0.002675
v -0.093200 -0.003262 -0.005087
v -0.093201 -0.004851 -0.007159
v -0.093222 -0.006921 -0.008748
v -0.093260 -0.009332 -0.009748
v -0.093313 -0.011920 -0.010090
v -0.093378 -0.014507 -0.009750
v -0.093450 -0.016919 -0.008752
v -0.093523 -0.018989 -0.007164
v -0.093594 -0.020578 -0.005093
v -0.093657 -0.021577 -0.002682
v -0.097027 -0.021825 -0.000154
v -0.097065 -0.021485 0.002434
v -0.097079 -0.020486 0.004846
v -0.097068 -0.018897 0.006917
v -0.097032 -0.016827 0.008507
v -0.096974 -0.014416 0.009507
v -0.096898 -0.011830 0.009849
v -0.096809 -0.009243 0.009510
v -0.096713 -0.006832 0.008512
v -0.096617 -0.004762 0.006925
v -0.096527 -0.003174 0.004855
v -0.096449 -0.002176 0.002444
v -0.096389 -0.001835 -0.000144
v -0.096351 -0.002176 -0.002731
v -0.096337 -0.003175 -0.005143
v -0.096348 -0.004763 -0.007215
v -0.096384 -0.006834 -0.008805
v -0.096442 -0.009244 -0.009805
v -0.096518 -0.011831 -0.010147
v -0.096607 -0.014418 -0.009808
v -0.096703 -0.016828 -0.008810
v -0.096799 -0.018898 -0.007222
v -0.096889 -0.020487 -0.005153
v -0.096967 -0.021485 -0.002742
v -0.100326 -0.021706 -0.000221
v -0.100367 -0.021365 0.002367
v -0.100378 -0.020367 0.004779
v -0.100358 -0.018778 0.006851
v -0.100309 -0.016709 0.008441
v -0.100235 -0.014299 0.009442
v -0.100139 -0.011712 0.009784
v -0.100029 -0.009126 0.009445
v -0.099912 -0.006717 0.008448
v -0.099797 -0.004647 0.006861
v -0.099690 -0.003060 0.004791
v -0.099600 -0.002062 0.002381
v -0.099532 -0.001722 -0.000207
v -0.099491 -0.002063 -0.002795
v -0.099480 -0.003061 -0.005207
v -0.099500 -0.004649 -0.007278
v -0.099549 -0.006719 -0.008868
v -0.099623 -0.009129 -0.009869
v -0.099719 -0.011715 -0.010211
v -0.099829 -0.014301 -0.009873
v -0.099946 -0.016711 -0.008875
v -0.100061 -0.018780 -0.007288
v -0.100168 -0.020368 -0.005219
v -0.100258 -0.021366 -0.002808
v -0.103606 -0.021564 -0.000293
v -0.103649 -0.021223 0.002295
v -0.103657 -0.020225 0.004707
v -0.103631 -0.018637 0.006779
v -0.103571 -0.016567 0.008370
v -0.103483 -0.014158 0.009370
v -0.103371 -0.011573 0.009713
v -0.103244 -0.008987 0.009375
v -0.103110 -0.006578 0.008378
v -0.102978 -0.004510 0.006791
v -0.102858 -0.002923 0.004722
v -0.102757 -0.001925 0.002311
v -0.102682 -0.001585 -0.000276
v -0.102640 -0.001926 -0.002864
v -0.102631 -0.002925 -0.005276
v -0.102657 -0.004513 -0.007347
v -0.102717 -0.006582 -0.008938
v -0.102806 -0.008991 -0.009939
v -0.102918 -0.011577 -0.010282
v -0.103045 -0.014162 -0.009943
v -0.103179 -0.016571 -0.008946
v -0.103310 -0.018640 -0.007359
v -0.103431 -0.020227 -0.005290
v -0.103532 -0.021224 -0.002880
v -0.106868 -0.021404 -0.000369
v -0.106913 -0.021063 0.002219
v -0.106919 -0.020064 0.004631
v -0.106887 -0.018477 0.006703
v -0.106819 -0.016408 0.008294
v -0.106719 -0.013999 0.009295
v -0.106595 -0.011414 0.009638
v -0.106454 -0.008829 0.009300
v -0.106306 -0.006421 0.008303
v -0.106161 -0.004353 0.006716
v -0.106030 -0.002767 0.004648
v -0.105921 -0.001770 0.002237
v -0.105841 -0.001430 -0.000350
v -0.105797 -0.001771 -0.002937
v -0.105790 -0.002769 -0.005350
v -0.105822 -0.004357 -0.007422
v -0.105890 -0.006426 -0.009012
v -0.105990 -0.008835 -0.010013
v -0.106115 -0.011419 -0.010356
v -0.106256 -0.014004 -0.010018
v -0.106404 -0.016412 -0.009022
v -0.106548 -0.018480 -0.007435
v -0.106679 -0.020067 -0.005366
v -0.106788 -0.021064 -0.002956
v -0.110113 -0.021229 -0.000449
v -0.110159 -0.020888 0.002139
v -0.110164 -0.019890 0.004551
v -0.110128 -0.018303 0.006623
v -0.110053 -0.016234 0.008214
v -0.109945 -0.013826 0.009215
v -0.109811 -0.011241 0.009559
v -0.109660 -0.008657 0.009221
v -0.109502 -0.006250 0.008225
v -0.109348 -0.004182 0.006638
v -0.109209 -0.002596 0.004569
v -0.109094 -0.001599 0.002159
v -0.109010 -0.001260 -0.000428
v -0.108964 -0.001601 -0.003015
v -0.108959 -0.002599 -0.005427
v -0.108995 -0.004187 -0.007500
v -0.109070 -0.006255 -0.009090
v -0.109178 -0.008663 -0.010092
v -0.109312 -0.011248 -0.010435
v -0.109463 -0.013832 -0.010097
v -0.109621 -0.016240 -0.009101
v -0.109775 -0.018307 -0.007515
v -0.109914 -0.019893 -0.005446
v -0.110030 -0.020890 -0.003036
v -0.113342 -0.021046 -0.000531
v -0.113389 -0.020705 0.002057
v -0.113393 -0.019707 0.004469
v -0.113354 -0.018119 0.006541
v -0.113276 -0.016051 0.008132
v -0.113162 -0.013643 0.009134
v -0.113022 -0.011059 0.009477
v -0.112864 -0.008475 0.009139
v -0.112700 -0.006068 0.008144
v -0.112540 -0.004001 0.006557
v -0.112395 -0.002415 0.004489
v -0.112276 -0.001418 0.002079
v -0.112190 -0.001079 -0.000508
v -0.112143 -0.001420 -0.003096
v -0.112139 -0.002418 -0.005508
v -0.112178 -0.004006 -0.007580
v -0.112256 -0.006074 -0.009171
v -0.112370 -0.008482 -0.010173
v -0.112510 -0.011066 -0.010516
v -0.112668 -0.013650 -0.010179
v -0.112832 -0.016057 -0.009183
v -0.112992 -0.018124 -0.007596
v -0.113137 -0.019710 -0.005528
v -0.113256 -0.020707 -0.003118
v -0.116556 -0.020858 -0.000614
v -0.116603 -0.020516 0.001974
v -0.116607 -0.019518 0.004386
v -0.116567 -0.017931 0.006458
v -0.116487 -0.015863 0.008049
v -0.116371 -0.013455 0.009051
v -0.116228 -0.010871 0.009394
v -0.116067 -0.008287 0.009057
v -0.115899 -0.005880 0.008061
v -0.115737 -0.003813 0.006475
v -0.115590 -0.002228 0.004406
v -0.115469 -0.001231 0.001996
v -0.115382 -0.000892 -0.000591
v -0.115335 -0.001233 -0.003179
v -0.115331 -0.002231 -0.005591
v -0.115371 -0.003819 -0.007663
v -0.115451 -0.005887 -0.009254
v -0.115567 -0.008295 -0.010255
v -0.115710 -0.010878 -0.010599
v -0.115871 -0.013462 -0.010261
v -0.116039 -0.015869 -0.009265
v -0.116201 -0.017936 -0.007679
v -0.116348 -0.019522 -0.005611
v -0.116469 -0.020518 -0.003201
v -0.119757 -0.020668 -0.000697
v -0.119804 -0.020327 0.001891
v -0.119807 -0.019329 0.004303
v -0.119768 -0.017742 0.006375
v -0.119688 -0.015674 0.007966
v -0.119572 -0.013266 0.008968
v -0.119430 -0.010682 0.009311
v -0.119270 -0.008098 0.008974
v -0.119103 -0.005691 0.007978
v -0.118940 -0.003624 0.006391
v -0.118794 -0.002038 0.004323
v -0.118673 -0.001042 0.001913
v -0.118587 -0.000703 -0.000674
v -0.118540 -0.001044 -0.003262
v -0.118536 -0.002042 -0.005674
v -0.118575 -0.003629 -0.007746
v -0.118656 -0.005697 -0.009337
v -0.118771 -0.008105 -0.010339
v -0.118913 -0.010689 -0.010682
v -0.119074 -0.013273 -0.010344
v -0.119241 -0.015680 -0.009349
v -0.119403 -0.017747 -0.007762
v -0.119549 -0.019333 -0.005694
v -0.119670 -0.020329 -0.003284
v -0.122944 -0.020483 -0.000779
v -0.122991 -0.020142 0.001809
v -0.122995 -0.019144 0.004221
v -0.122957 -0.017556 0.006293
v -0.122880 -0.015488 0.007884
v -0.122768 -0.013080 0.008885
v -0.122629 -0.010496 0.009229
v -0.122473 -0.007912 0.008891
v -0.122310 -0.005504 0.007895
v -0.122152 -0.003437 0.006309
v -0.122009 -0.001851 0.004240
v -0.121891 -0.000855 0.001830
v -0.121806 -0.000515 -0.000757
v -0.121759 -0.000856 -0.003345
v -0.121755 -0.001855 -0.005757
v -0.121793 -0.003442 -0.007829
v -0.121870 -0.005510 -0.009420
v -0.121982 -0.007919 -0.010421
v -0.122121 -0.010503 -0.010765
v -0.122277 -0.013086 -0.010427
v -0.122439 -0.015494 -0.009431
v -0.122598 -0.017561 -0.007844
v -0.122741 -0.019147 -0.005776
v -0.122859 -0.020144 -0.003366
v -0.126120 -0.020305 -0.000859
v -0.126166 -0.019964 0.001729
v -0.126171 -0.018966 0.004141
v -0.126136 -0.017379 0.006213
v -0.126064 -0.015310 0.007804
v -0.125958 -0.012901 0.008805
v -0.125827 -0.010317 0.009148
v -0.125679 -0.007733 0.008811
v -0.125524 -0.005325 0.007814
v -0.125373 -0.003257 0.006228
v -0.125236 -0.001671 0.004159
v -0.125122 -0.000674 0.001749
v -0.125040 -0.000335 -0.000838
v -0.124994 -0.000676 -0.003426
v -0.124989 -0.001674 -0.005838
v -0.125024 -0.003261 -0.007910
v -0.125096 -0.005330 -0.009501
v -0.125202 -0.007738 -0.010502
v -0.125333 -0.010323 -0.010845
v -0.125482 -0.012907 -0.010507
v -0.125636 -0.015315 -0.009511
v -0.125788 -0.017383 -0.007925
v -0.125924 -0.018969 -0.005856
v -0.126038 -0.019966 -0.003446
v -0.129286 -0.020140 -0.000936
v -0.129330 -0.019799 0.001652
v -0.129337 -0.018800 0.004064
v -0.129307 -0.017213 0.006136
v -0.129241 -0.015144 0.007727
v -0.129145 -0.012735 0.008728
v -0.129024 -0.010150 0.009071
v -0.128887 -0.007565 0.008733
v -0.128744 -0.005156 0.007736
v -0.128603 -0.003088 0.006149
v -0.128475 -0.001501 0.004080
v -0.128369 -0.000504 0.001670
v -0.128291 -0.000165 -0.000917
v -0.128246 -0.000505 -0.003505
v -0.128239 -0.001504 -0.005917
v -0.128269 -0.003092 -0.007989
v -0.128335 -0.005160 -0.009579
v -0.128432 -0.007569 -0.010580
v -0.128552 -0.010155 -0.010923
v -0.128689 -0.012739 -0.010585
v -0.128833 -0.015148 -0.009589
v -0.128973 -0.017216 -0.008002
v -0.129101 -0.018803 -0.005933
v -0.129208 -0.019800 -0.003523
v -0.132473 -0.019989 -0.001009
v -0.132516 -0.019648 0.001579
v -0.132524 -0.018650 0.003991
v -0.132497 -0.017062 0.006063
v -0.132435 -0.014993 0.007654
v -0.132344 -0.012583 0.008654
v -0.132230 -0.009998 0.008997
v -0.132099 -0.007413 0.008659
v -0.131962 -0.005004 0.007662
v -0.131828 -0.002935 0.006075
v -0.131705 -0.001348 0.004006
v -0.131603 -0.000351 0.001596
v -0.131527 -0.000011 -0.000991
v -0.131484 -0.000352 -0.003579
v -0.131476 -0.001350 -0.005991
v -0.131503 -0.002938 -0.008063
v -0.131565 -0.005007 -0.009654
v -0.131656 -0.007417 -0.010654
v -0.131770 -0.010002 -0.010997
v -0.131901 -0.012587 -0.010659
v -0.132038 -0.014996 -0.009662
v -0.132172 -0.017065 -0.008075
v -0.132295 -0.018652 -0.006006
v -0.132397 -0.019649 -0.003596
v -0.004000 -0.005000 -0.000000
v -0.132000 -0.010000 -0.001000
f 1 2 26
f 1 26 25
f 2 3 27
f 2 27 26
f 3 4 28
f 3 28 27
f 4 5 29
f 4 29 28
f 5 6 30
f 5 30 29
f 6 7 31
f 6 31 30
f 7 8 32
f 7 32 31
f 8 9 33
f 8 33 32
f 9 10 34
f 9 34 33
f 10 11 35
f 10 35 34
f 11 12 36
f 11 36 35
f 12 13 37
f 12 37 36
f 13 14 38
f 13 38 37
f 14 15 39
f 14 39 38
f 15 16 40
f 15 40 39
f 16 17 41
f 16 41 40
f 17 18 42
f 17 42 41
f 18 19 43
f 18 43 42
f 19 20 44
f 19 44 43
f 20 21 45
f 20 45 44
f 21 22 46
f 21 46 45
f 22 23 47
f 22 47 46
f 23 24 48
f 23 48 47
f 24 1 25
f 24 25 48
f 25 26 50
f 25 50 49
f 26 27 51
f 26 51 50
f 27 28 52
f 27 52 51
f 28 29 53
f 28 53 52
f 29 30 54
f 29 54 53
f 30 31 55
f 30 55 54
f 31 32 56
f 31 56 55
f 32 33 57
f 32 57 56
f 33 34 58
f 33 58 57
f 34 35 59
f 34 59 58
f 35 36 60
f 35 60 59
f 36 37 61
f 36 61 60
f 37 38 62
f 37 62 61
f 38 39 63
f 38 63 62
f 39 40 64
f 39 64 63
f 40 41 65
f 40 65 64
f 41 42 66
f 41 66 65
f 42 43 67
f 42 67 66
f 43 44 68
f 43 68 67
f 44 45 69
f 44 69 68
f 45 46 70
f 45 70 69
f 46 47 71
f 46 71 70
f 47 48 72
f 47 72 71
f 48 25 49
f 48 49 72
f 49 50 74
f 49 74 73
f 50 51 75
f 50 75 74
f 51 52 76
f 51 76 75
f 52 53 77
f 52 77 76
f 53 54 78
f 53 78 77
f 54 55 79
f 54 79 78
f 55 56 80
f 55 80 79
f 56 57 81
f 56 81 80
f 57 58 82
f 57 82 81
f 58 59 83
f 58 83 82
f 59 60 84
f 59 84 83
f 60 61 85
f 60 85 84
f 61 62 86
f 61 86 85
f 62 63 87
f 62 87 86
f 63 64 88
f 63 88 87
f 64 65 89
f 64 89 88
f 65 66 90
f 65 90 89
f 66 67 91
f 66 91 90
f 67 68 92
f 67 92 91
f 68 69 93
f 68 93 92
f 69 70 94
f 69 94 93
f 70 71 95
f 70 95 94
f 71 72 96
f 71 96 95
f 72 49 73
f 72 73 96
f 73 74 98
f 73 98 97
f 74 75 99
f 74 99 98
f 75 76 100
f 75 100 99
f 76 77 101
f 76 101 100
f 77 78 102
f 77 102 101
f 78 79 103
f 78 103 102
f 79 80 104
f 79 104 103
f 80 81 105
f 80 105 104
f 81 82 106
f 81 106 105
f 82 83 107
f 82 107 106
f 83 84 108
f 83 108 107
f 84 85 109
f 84 109 108
f 85 86 110
f 85 110 109
f 86 87 111
f 86 111 110
f 87 88 112
f 87 112 111
f 88 89 113
f 88 113 112
f 89 90 114
f 89 114 113
f 90 91 115
f 90 115 114
f 91 92 116
f 91 116 115
f 92 93 117
f 92 117 116
f 93 94 118
f 93 118 117
f 94 95 119
f 94 119 118
f 95 96 120
f 95 120 119
f 96 73 97
f 96 97 120
f 97 98 122
f 97 122 121
f 98 99 123
f 98 123 122
f 99 100 124
f 99 124 123
f 100 101 125
f 100 125 124
f 101 102 126
f 101 126 125
f 102 103 127
f 102 127 126
f 103 104 128
f 103 128 127
f 104 105 129
f 104 129 128
f 105 106 130
f 105 130 129
f 106 107 131
f 106 131 130
f 107 108 132
f 107 132 131
f 108 109 133
f 108 133 132
f 109 110 134
f 109 134 133
f 110 111 135
f 110 135 134
f 111 112 136
f 111 136 135
f 112 113 137
f 112 137 136
f 113 114 138
f 113 138 137
f 114 115 139
f 114 139 138
f 115 116 140
f 115 140 139
f 116 117 141
f 116 141 140
f 117 118 142
f 117 142 141
f 118 119 143
f 118 143 142
f 119 120 144
f 119 144 143
f 120 97 121
f 120 121 144
f 121 122 146
f 121 146 145
f 122 123 147
f 122 147 146
f 123 124 148
f 123 148 147
f 124 125 149
f 124 149 148
f 125 126 150
f 125 150 149
f 126 127 151
f 126 151 150
f 127 128 152
f 127 152 151
f 128 129 153
f 128 153 152
f 129 130 154
f 129 154 153
f 130 131 155
f 130 155 154
f 131 132 156
f 131 156 155
f 132 133 157
f 132 157 156
f 133 134 158
f 133 158 157
f 134 135 159
f 134 159 158
f 135 136 160
f 135 160 159
f 136 137 161
f 136 161 160
f 137 138 162
f 137 162 161
f 138 139 163
f 138 163 162
f 139 140 164
f 139 164 163
f 140 141 165
f 140 165 164
f 141 142 166
f 141 166 165
f 142 143 167
f 142 167 166
f 143 144 168
f 143 168 167
f 144 121 145
f 144 145 168
f 145 146 170
f 145 170 169
f 146 147 171
f 146 171 170
f 147 148 172
f 147 172 171
f 148 149 173
f 148 173 172
f 149 150 174
f 149 174 173
f 150 151 175
f 150 175 174
f 151 152 176
f 151 176 175
f 152 153 177
f 152 177 176
f 153 154 178
f 153 178 177
f 154 155 179
f 154 179 178
f 155 156 180
f 155 180 179
f 156 157 181
f 156 181 180
f 157 158 182
f 157 182 181
f 158 159 183
f 158 183 182
f 159 160 184
f 159 184 183
f 160 161 185
f 160 185 184
f 161 162 186
f 161 186 185
f 162 163 187
f 162 187 186
f 163 164 188
f 163 188 187
f 164 165 189
f 164 189 188
f 165 166 190
f 165 190 189
f 166 167 191
f 166 191 190
f 167 168 192
f 167 192 191
f 168 145 169
f 168 169 192
f 169 170 194
f 169 194 193
f 170 171 195
f 170 195 194
f 171 172 196
f 171 196 195
f 172 173 197
f 172 197 196
f 173 174 198
f 173 198 197
f 174 175 199
f 174 199 198
f 175 176 200
f 175 200 199
f 176 177 201
f 176 201 200
f 177 178 202
f 177 202 201
f 178 179 203
f 178 203 202
f 179 180 204
f 179 204 203
f 180 181 205
f 180 205 204
f 181 182 206
f 181 206 205
f 182 183 207
f 182 207 206
f 183 184 208
f 183 208 207
f 184 185 209
f 184 209 208
f 185 186 210
f 185 210 209
f 186 187 211
f 186 211 210
f 187 188 212
f 187 212 211
f 188 189 213
f 188 213 212
f 189 190 214
f 189 214 213
f 190 191 215
f 190 215 214
f 191 192 216
f 191 216 215
f 192 169 193
f 192 193 216
f 193 194 218
f 193 218 217
f 194 195 219
f 194 219 218
f 195 196 220
f 195 220 219
f 196 197 221
f 196 221 220
f 197 198 222
f 197 222 221
f 198 199 223
f 198 223 222
f 199 200 224
f 199 224 223
f 200 201 225
f 200 225 224
f 201 202 226
f 201 226 225
f 202 203 227
f 202 227 226
f 203 204 228
f 203 228 227
f 204 205 229
f 204 229 228
f 205 206 230
f 205 230 229
f 206 207 231
f 206 231 230
f 207 208 232
f 207 232 231
f 208 209 233
f 208 233 232
f 209 210 234
f 209 234 233
f 210 211 235
f 210 235 234
f 211 212 236
f 211 236 235
f 212 213 237
f 212 237 236
f 213 214 238
f 213 238 237
f 214 215 239
f 214 239 238
f 215 216 240
f 215 240 239
f 216 193 217
f 216 217 240
f 217 218 242
f 217 242 241
f 218 219 243
f 218 243 242
f 219 220 244
f 219 244 243
f 220 221 245
f 220 245 244
f 221 222 246
f 221 246 245
f 222 223 247
f 222 247 246
f 223 224 248
f 223 248 247
f 224 225 249
f 224 249 248
f 225 226 250
f 225 250 249
f 226 227 251
f 226 251 250
f 227 228 252
f 227 252 251
f 228 229 253
f 228 253 252
f 229 230 254
f 229 254 253
f 230 231 255
f 230 255 254
f 231 232 256
f 231 256 255
f 232 233 257
f 232 257 256
f 233 234 258
f 233 258 257
f 234 235 259
f 234 259 258
f 235 236 260
f 235 260 259
f 236 237 261
f 236 261 260
f 237 238 262
f 237 262 261
f 238 239 263
f 238 263 262
f 239 240 264
f 239 264 263
f 240 217 241
f 240 241 264
f 241 242 266
f 241 266 265
f 242 243 267
f 242 267 266
f 243 244 268
f 243 268 267
f 244 245 269
f 244 269 268
f 245 246 270
f 245 270 269
f 246 247 271
f 246 271 270
f 247 248 272
f 247 272 271
f 248 249 273
f 248 273 272
f 249 250 274
f 249 274 273
f 250 251 275
f 250 275 274
f 251 252 276
f 251 276 275
f 252 253 277
f 252 277 276
f 253 254 278
f 253 278 277
f 254 255 279
f 254 279 278
f 255 256 280
f 255 280 279
f 256 257 281
f 256 281 280
f 257 258 282
f 257 282 281
f 258 259 283
f 258 283 282
f 259 260 284
f 259 284 283
f 260 261 285
f 260 285 284
f 261 262 286
f 261 286 285
f 262 263 287
f 262 287 286
f 263 264 288
f 263 288 287
f 264 241 265
f 264 265 288
f 265 266 290
f 265 290 289
f 266 267 291
f 266 291 290
f 267 268 292
f 267 292 291
f 268 269 293
f 268 293 292
f 269 270 294
f 269 294 293
f 270 271 295
f 270 295 294
f 271 272 296
f 271 296 295
f 272 273 297
f 272 297 296
f 273 274 298
f 273 298 297
f 274 275 299
f 274 299 298
f 275 276 300
f 275 300 299
f 276 277 301
f 276 301 300
f 277 278 302
f 277 302 301
f 278 279 303
f 278 303 302
f 279 280 304
f 279 304 303
f 280 281 305
f 280 305 304
f 281 282 306
f 281 306 305
f 282 283 307
f 282 307 306
f 283 284 308
f 283 308 307
f 284 285 309
f 284 309 308
f 285 286 310
f 285 310 309
f 286 287 311
f 286 311 310
f 287 288 312
f 287 312 311
f 288 265 289
f 288 289 312
f 289 290 314
f 289 314 313
f 290 291 315
f 290 315 314
f 291 292 316
f 291 316 315
f 292 293 317
f 292 317 316
f 293 294 318
f 293 318 317
f 294 295 319
f 294 319 318
f 295 296 320
f 295 320 319
f 296 297 321
f 296 321 320
f 297 298 322
f 297 322 321
f 298 299 323
f 298 323 322
f 299 300 324
f 299 324 323
f 300 301 325
f 300 325 324
f 301 302 326
f 301 326 325
f 302 303 327
f 302 327 326
f 303 304 328
f 303 328 327
f 304 305 329
f 304 329 328
f 305 306 330
f 305 330 329
f 306 307 331
f 306 331 330
f 307 308 332
f 307 332 331
f 308 309 333
f 308 333 332
f 309 310 334
f 309 334 333
f 310 311 335
f 310 335 334
f 311 312 336
f 311 336 335
f 312 289 313
f 312 313 336
f 313 314 338
f 313 338 337
f 314 315 339
f 314 339 338
f 315 316 340
f 315 340 339
f 316 317 341
f 316 341 340
f 317 318 342
f 317 342 341
f 318 319 343
f 318 343 342
f 319 320 344
f 319 344 343
f 320 321 345
f 320 345 344
f 321 322 346
f 321 346 345
f 322 323 347
f 322 347 346
f 323 324 348
f 323 348 347
f 324 325 349
f 324 349 348
f 325 326 350
f 325 350 349
f 326 327 351
f 326 351 350
f 327 328 352
f 327 352 351
f 328 329 353
f 328 353 352
f 329 330 354
f 329 354 353
f 330 331 355
f 330 355 354
f 331 332 356
f 331 356 355
f 332 333 357
f 332 357 356
f 333 334 358
f 333 358 357
f 334 335 359
f 334 359 358
f 335 336 360
f 335 360 359
f 336 313 337
f 336 337 360
f 337 338 362
f 337 362 361
f 338 339 363
f 338 363 362
f 339 340 364
f 339 364 363
f 340 341 365
f 340 365 364
f 341 342 366
f 341 366 365
f 342 343 367
f 342 367 366
f 343 344 368
f 343 368 367
f 344 345 369
f 344 369 368
f 345 346 370
f 345 370 369
f 346 347 371
f 346 371 370
f 347 348 372
f 347 372 371
f 348 349 373
f 348 373 372
f 349 350 374
f 349 374 373
f 350 351 375
f 350 375 374
f 351 352 376
f 351 376 375
f 352 353 377
f 352 377 376
f 353 354 378
f 353 378 377
f 354 355 379
f 354 379 378
f 355 356 380
f 355 380 379
f 356 357 381
f 356 381 380
f 357 358 382
f 357 382 381
f 358 359 383
f 358 383 382
f 359 360 384
f 359 384 383
f 360 337 361
f 360 361 384
f 361 362 386
f 361 386 385
f 362 363 387
f 362 387 386
f 363 364 388
f 363 388 387
f 364 365 389
f 364 389 388
f 365 366 390
f 365 390 389
f 366 367 391
f 366 391 390
f 367 368 392
f 367 392 391
f 368 369 393
f 368 393 392
f 369 370 394
f 369 394 393
f 370 371 395
f 370 395 394
f 371 372 396
f 371 396 395
f 372 373 397
f 372 397 396
f 373 374 398
f 373 398 397
f 374 375 399
f 374 399 398
f 375 376 400
f 375 400 399
f 376 377 401
f 376 401 400
f 377 378 402
f 377 402 401
f 378 379 403
f 378 403 402
f 379 380 404
f 379 404 403
f 380 381 405
f 380 405 404
f 381 382 406
f 381 406 405
f 382 383 407
f 382 407 406
f 383 384 408
f 383 408 407
f 384 361 385
f 384 385 408
f 385 386 410
f 385 410 409
f 386 387 411
f 386 411 410
f 387 388 412
f 387 412 411
f 388 389 413
f 388 413 412
f 389 390 414
f 389 414 413
f 390 391 415
f 390 415 414
f 391 392 416
f 391 416 415
f 392 393 417
f 392 417 416
f 393 394 418
f 393 418 417
f 394 395 419
f 394 419 418
f 395 396 420
f 395 420 419
f 396 397 421
f 396 421 420
f 397 398 422
f 397 422 421
f 398 399 423
f 398 423 422
f 399 400 424
f 399 424 423
f 400 401 425
f 400 425 424
f 401 402 426
f 401 426 425
f 402 403 427
f 402 427 426
f 403 404 428
f 403 428 427
f 404 405 429
f 404 429 428
f 405 406 430
f 405 430 429
f 406 407 431
f 406 431 430
f 407 408 432
f 407 432 431
f 408 385 409
f 408 409 432
f 409 410 434
f 409 434 433
f 410 411 435
f 410 435 434
f 411 412 436
f 411 436 435
f 412 413 437
f 412 437 436
f 413 414 438
f 413 438 437
f 414 415 439
f 414 439 438
f 415 416 440
f 415 440 439
f 416 417 441
f 416 441 440
f 417 418 442
f 417 442 441
f 418 419 443
f 418 443 442
f 419 420 444
f 419 444 443
f 420 421 445
f 420 445 444
f 421 422 446
f 421 446 445
f 422 423 447
f 422 447 446
f 423 424 448
f 423 448 447
f 424 425 449
f 424 449 448
f 425 426 450
f 425 450 449
f 426 427 451
f 426 451 450
f 427 428 452
f 427 452 451
f 428 429 453
f 428 453 452
f 429 430 454
f 429 454 453
f 430 431 455
f 430 455 454
f 431 432 456
f 431 456 455
f 432 409 433
f 432 433 456
f 433 434 458
f 433 458 457
f 434 435 459
f 434 459 458
f 435 436 460
f 435 460 459
f 436 437 461
f 436 461 460
f 437 438 462
f 437 462 461
f 438 439 463
f 438 463 462
f 439 440 464
f 439 464 463
f 440 441 465
f 440 465 464
f 441 442 466
f 441 466 465
f 442 443 467
f 442 467 466
f 443 444 468
f 443 468 467
f 444 445 469
f 444 469 468
f 445 446 470
f 445 470 469
f 446 447 471
f 446 471 470
f 447 448 472
f 447 472 471
f 448 449 473
f 448 473 472
f 449 450 474
f 449 474 473
f 450 451 475
f 450 475 474
f 451 452 476
f 451 476 475
f 452 453 477
f 452 477 476
f 453 454 478
f 453 478 477
f 454 455 479
f 454 479 478
f 455 456 480
f 455 480 479
f 456 433 457
f 456 457 480
f 457 458 482
f 457 482 481
f 458 459 483
f 458 483 482
f 459 460 484
f 459 484 483
f 460 461 485
f 460 485 484
f 461 462 486
f 461 486 485
f 462 463 487
f 462 487 486
f 463 464 488
f 463 488 487
f 464 465 489
f 464 489 488
f 465 466 490
f 465 490 489
f 466 467 491
f 466 491 490
f 467 468 492
f 467 492 491
f 468 469 493
f 468 493 492
f 469 470 494
f 469 494 493
f 470 471 495
f 470 495 494
f 471 472 496
f 471 496 495
f 472 473 497
f 472 497 496
f 473 474 498
f 473 498 497
f 474 475 499
f 474 499 498
f 475 476 500
f 475 500 499
f 476 477 501
f 476 501 500
f 477 478 502
f 477 502 501
f 478 479 503
f 478 503 502
f 479 480 504
f 479 504 503
f 480 457 481
f 480 481 504
f 481 482 506
f 481 506 505
f 482 483 507
f 482 507 506
f 483 484 508
f 483 508 507
f 484 485 509
f 484 509 508
f 485 486 510
f 485 510 509
f 486 487 511
f 486 511 510
f 487 488 512
f 487 512 511
f 488 489 513
f 488 513 512
f 489 490 514
f 489 514 513
f 490 491 515
f 490 515 514
f 491 492 516
f 491 516 515
f 492 493 517
f 492 517 516
f 493 494 518
f 493 518 517
f 494 495 519
f 494 519 518
f 495 496 520
f 495 520 519
f 496 497 521
f 496 521 520
f 497 498 522
f 497 522 521
f 498 499 523
f 498 523 522
f 499 500 524
f 499 524 523
f 500 501 525
f 500 525 524
f 501 502 526
f 501 526 525
f 502 503 527
f 502 527 526
f 503 504 528
f 503 528 527
f 504 481 505
f 504 505 528
f 505 506 530
f 505 530 529
f 506 507 531
f 506 531 530
f 507 508 532
f 507 532 531
f 508 509 533
f 508 533 532
f 509 510 534
f 509 534 533
f 510 511 535
f 510 535 534
f 511 512 536
f 511 536 535
f 512 513 537
f 512 537 536
f 513 514 538
f 513 538 537
f 514 515 539
f 514 539 538
f 515 516 540
f 515 540 539
f 516 517 541
f 516 541 540
f 517 518 542
f 517 542 541
f 518 519 543
f 518 543 542
f 519 520 544
f 519 544 543
f 520 521 545
f 520 545 544
f 521 522 546
f 521 546 545
f 522 523 547
f 522 547 546
f 523 524 548
f 523 548 547
f 524 525 549
f 524 549 548
f 525 526 550
f 525 550 549
f 526 527 551
f 526 551 550
f 527 528 552
f 527 552 551
f 528 505 529
f 528 529 552
f 529 530 554
f 529 554 553
f 530 531 555
f 530 555 554
f 531 532 556
f 531 556 555
f 532 533 557
f 532 557 556
f 533 534 558
f 533 558 557
f 534 535 559
f 534 559 558
f 535 536 560
f 535 560 559
f 536 537 561
f 536 561 560
f 537 538 562
f 537 562 561
f 538 539 563
f 538 563 562
f 539 540 564
f 539 564 563
f 540 541 565
f 540 565 564
f 541 542 566
f 541 566 565
f 542 543 567
f 542 567 566
f 543 544 568
f 543 568 567
f 544 545 569
f 544 569 568
f 545 546 570
f 545 570 569
f 546 547 571
f 546 571 570
f 547 548 572
f 547 572 571
f 548 549 573
f 548 573 572
f 549 550 574
f 549 574 573
f 550 551 575
f 550 575 574
f 551 552 576
f 551 576 575
f 552 529 553
f 552 553 576
f 553 554 578
f 553 578 577
f 554 555 579
f 554 579 578
f 555 556 580
f 555 580 579
f 556 557 581
f 556 581 580
f 557 558 582
f 557 582 581
f 558 559 583
f 558 583 582
f 559 560 584
f 559 584 583
f 560 561 585
f 560 585 584
f 561 562 586
f 561 586 585
f 562 563 587
f 562 587 586
f 563 564 588
f 563 588 587
f 564 565 589
f 564 589 588
f 565 566 590
f 565 590 589
f 566 567 591
f 566 591 590
f 567 568 592
f 567 592 591
f 568 569 593
f 568 593 592
f 569 570 594
f 569 594 593
f 570 571 595
f 570 595 594
f 571 572 596
f 571 596 595
f 572 573 597
f 572 597 596
f 573 574 598
f 573 598 597
f 574 575 599
f 574 599 598
f 575 576 600
f 575 600 599
f 576 553 577
f 576 577 600
f 577 578 602
f 577 602 601
f 578 579 603
f 578 603 602
f 579 580 604
f 579 604 603
f 580 581 605
f 580 605 604
f 581 582 606
f 581 606 605
f 582 583 607
f 582 607 606
f 583 584 608
f 583 608 607
f 584 585 609
f 584 609 608
f 585 586 610
f 585 610 609
f 586 587 611
f 586 611 610
f 587 588 612
f 587 612 611
f 588 589 613
f 588 613 612
f 589 590 614
f 589 614 613
f 590 591 615
f 590 615 614
f 591 592 616
f 591 616 615
f 592 593 617
f 592 617 616
f 593 594 618
f 593 618 617
f 594 595 619
f 594 619 618
f 595 596 620
f 595 620 619
f 596 597 621
f 596 621 620
f 597 598 622
f 597 622 621
f 598 599 623
f 598 623 622
f 599 600 624
f 599 624 623
f 600 577 601
f 600 601 624
f 601 602 626
f 601 626 625
f 602 603 627
f 602 627 626
f 603 604 628
f 603 628 627
f 604 605 629
f 604 629 628
f 605 606 630
f 605 630 629
f 606 607 631
f 606 631 630
f 607 608 632
f 607 632 631
f 608 609 633
f 608 633 632
f 609 610 634
f 609 634 633
f 610 611 635
f 610 635 634
f 611 612 636
f 611 636 635
f 612 613 637
f 612 637 636
f 613 614 638
f 613 638 637
f 614 615 639
f 614 639 638
f 615 616 640
f 615 640 639
f 616 617 641
f 616 641 640
f 617 618 642
f 617 642 641
f 618 619 643
f 618 643 642
f 619 620 644
f 619 644 643
f 620 621 645
f 620 645 644
f 621 622 646
f 621 646 645
f 622 623 647
f 622 647 646
f 623 624 648
f 623 648 647
f 624 601 625
f 624 625 648
f 625 626 650
f 625 650 649
f 626 627 651
f 626 651 650
f 627 628 652
f 627 652 651
f 628 629 653
f 628 653 652
f 629 630 654
f 629 654 653
f 630 631 655
f 630 655 654
f 631 632 656
f 631 656 655
f 632 633 657
f 632 657 656
f 633 634 658
f 633 658 657
f 634 635 659
f 634 659 658
f 635 636 660
f 635 660 659
f 636 637 661
f 636 661 660
f 637 638 662
f 637 662 661
f 638 639 663
f 638 663 662
f 639 640 664
f 639 664 663
f 640 641 665
f 640 665 664
f 641 642 666
f 641 666 665
f 642 643 667
f 642 667 666
f 643 644 668
f 643 668 667
f 644 645 669
f 644 669 668
f 645 646 670
f 645 670 669
f 646 647 671
f 646 671 670
f 647 648 672
f 647 672 671
f 648 625 649
f 648 649 672
f 649 650 674
f 649 674 673
f 650 651 675
f 650 675 674
f 651 652 676
f 651 676 675
f 652 653 677
f 652 677 676
f 653 654 678
f 653 678 677
f 654 655 679
f 654 679 678
f 655 656 680
f 655 680 679
f 656 657 681
f 656 681 680
f 657 658 682
f 657 682 681
f 658 659 683
f 658 683 682
f 659 660 684
f 659 684 683
f 660 661 685
f 660 685 684
f 661 662 686
f 661 686 685
f 662 663 687
f 662 687 686
f 663 664 688
f 663 688 687
f 664 665 689
f 664 689 688
f 665 666 690
f 665 690 689
f 666 667 691
f 666 691 690
f 667 668 692
f 667 692 691
f 668 669 693
f 668 693 692
f 669 670 694
f 669 694 693
f 670 671 695
f 670 695 694
f 671 672 696
f 671 696 695
f 672 649 673
f 672 673 696
f 673 674 698
f 673 698 697
f 674 675 699
f 674 699 698
f 675 676 700
f 675 700 699
f 676 677 701
f 676 701 700
f 677 678 702
f 677 702 701
f 678 679 703
f 678 703 702
f 679 680 704
f 679 704 703
f 680 681 705
f 680 705 704
f 681 682 706
f 681 706 705
f 682 683 707
f 682 707 706
f 683 684 708
f 683 708 707
f 684 685 709
f 684 709 708
f 685 686 710
f 685 710 709
f 686 687 711
f 686 711 710
f 687 688 712
f 687 712 711
f 688 689 713
f 688 713 712
f 689 690 714
f 689 714 713
f 690 691 715
f 690 715 714
f 691 692 716
f 691 716 715
f 692 693 717
f 692 717 716
f 693 694 718
f 693 718 717
f 694 695 719
f 694 719 718
f 695 696 720
f 695 720 719
f 696 673 697
f 696 697 720
f 697 698 722
f 697 722 721
f 698 699 723
f 698 723 722
f 699 700 724
f 699 724 723
f 700 701 725
f 700 725 724
f 701 702 726
f 701 726 725
f 702 703 727
f 702 727 726
f 703 704 728
f 703 728 727
f 704 705 729
f 704 729 728
f 705 706 730
f 705 730 729
f 706 707 731
f 706 731 730
f 707 708 732
f 707 732 731
f 708 709 733
f 708 733 732
f 709 710 734
f 709 734 733
f 710 711 735
f 710 735 734
f 711 712 736
f 711 736 735
f 712 713 737
f 712 737 736
f 713 714 738
f 713 738 737
f 714 715 739
f 714 739 738
f 715 716 740
f 715 740 739
f 716 717 741
f 716 741 740
f 717 718 742
f 717 742 741
f 718 719 743
f 718 743 742
f 719 720 744
f 719 744 743
f 720 697 721
f 720 721 744
f 721 722 746
f 721 746 745
f 722 723 747
f 722 747 746
f 723 724 748
f 723 748 747
f 724 725 749
f 724 749 748
f 725 726 750
f 725 750 749
f 726 727 751
f 726 751 750
f 727 728 752
f 727 752 751
f 728 729 753
f 728 753 752
f 729 730 754
f 729 754 753
f 730 731 755
f 730 755 754
f 731 732 756
f 731 756 755
f 732 733 757
f 732 757 756
f 733 734 758
f 733 758 757
f 734 735 759
f 734 759 758
f 735 736 760
f 735 760 759
f 736 737 761
f 736 761 760
f 737 738 762
f 737 762 761
f 738 739 763
f 738 763 762
f 739 740 764
f 739 764 763
f 740 741 765
f 740 765 764
f 741 742 766
f 741 766 765
f 742 743 767
f 742 767 766
f 743 744 768
f 743 768 767
f 744 721 745
f 744 745 768
f 745 746 770
f 745 770 769
f 746 747 771
f 746 771 770
f 747 748 772
f 747 772 771
f 748 749 773
f 748 773 772
f 749 750 774
f 749 774 773
f 750 751 775
f 750 775 774
f 751 752 776
f 751 776 775
f 752 753 777
f 752 777 776
f 753 754 778
f 753 778 777
f 754 755 779
f 754 779 778
f 755 756 780
f 755 780 779
f 756 757 781
f 756 781 780
f 757 758 782
f 757 782 781
f 758 759 783
f 758 783 782
f 759 760 784
f 759 784 783
f 760 761 785
f 760 785 784
f 761 762 786
f 761 786 785
f 762 763 787
f 762 787 786
f 763 764 788
f 763 788 787
f 764 765 789
f 764 789 788
f 765 766 790
f 765 790 789
f 766 767 791
f 766 791 790
f 767 768 792
f 767 792 791
f 768 745 769
f 768 769 792
f 769 770 794
f 769 794 793
f 770 771 795
f 770 795 794
f 771 772 796
f 771 796 795
f 772 773 797
f 772 797 796
f 773 774 798
f 773 798 797
f 774 775 799
f 774 799 798
f 775 776 800
f 775 800 799
f 776 777 801
f 776 801 800
f 777 778 802
f 777 802 801
f 778 779 803
f 778 803 802
f 779 780 804
f 779 804 803
f 780 781 805
f 780 805 804
f 781 782 806
f 781 806 805
f 782 783 807
f 782 807 806
f 783 784 808
f 783 808 807
f 784 785 809
f 784 809 808
f 785 786 810
f 785 810 809
f 786 787 811
f 786 811 810
f 787 788 812
f 787 812 811
f 788 789 813
f 788 813 812
f 789 790 814
f 789 814 813
f 790 791 815
f 790 815 814
f 791 792 816
f 791 816 815
f 792 769 793
f 792 793 816
f 793 794 818
f 793 818 817
f 794 795 819
f 794 819 818
f 795 796 820
f 795 820 819
f 796 797 821
f 796 821 820
f 797 798 822
f 797 822 821
f 798 799 823
f 798 823 822
f 799 800 824
f 799 824 823
f 800 801 825
f 800 825 824
f 801 802 826
f 801 826 825
f 802 803 827
f 802 827 826
f 803 804 828
f 803 828 827
f 804 805 829
f 804 829 828
f 805 806 830
f 805 830 829
f 806 807 831
f 806 831 830
f 807 808 832
f 807 832 831
f 808 809 833
f 808 833 832
f 809 810 834
f 809 834 833
f 810 811 835
f 810 835 834
f 811 812 836
f 811 836 835
f 812 813 837
f 812 837 836
f 813 814 838
f 813 838 837
f 814 815 839
f 814 839 838
f 815 816 840
f 815 840 839
f 816 793 817
f 816 817 840
f 817 818 842
f 817 842 841
f 818 819 843
f 818 843 842
f 819 820 844
f 819 844 843
f 820 821 845
f 820 845 844
f 821 822 846
f 821 846 845
f 822 823 847
f 822 847 846
f 823 824 848
f 823 848 847
f 824 825 849
f 824 849 848
f 825 826 850
f 825 850 849
f 826 827 851
f 826 851 850
f 827 828 852
f 827 852 851
f 828 829 853
f 828 853 852
f 829 830 854
f 829 854 853
f 830 831 855
f 830 855 854
f 831 832 856
f 831 856 855
f 832 833 857
f 832 857 856
f 833 834 858
f 833 858 857
f 834 835 859
f 834 859 858
f 835 836 860
f 835 860 859
f 836 837 861
f 836 861 860
f 837 838 862
f 837 862 861
f 838 839 863
f 838 863 862
f 839 840 864
f 839 864 863
f 840 817 841
f 840 841 864
f 841 842 866
f 841 866 865
f 842 843 867
f 842 867 866
f 843 844 868
f 843 868 867
f 844 845 869
f 844 869 868
f 845 846 870
f 845 870 869
f 846 847 871
f 846 871 870
f 847 848 872
f 847 872 871
f 848 849 873
f 848 873 872
f 849 850 874
f 849 874 873
f 850 851 875
f 850 875 874
f 851 852 876
f 851 876 875
f 852 853 877
f 852 877 876
f 853 854 878
f 853 878 877
f 854 855 879
f 854 879 878
f 855 856 880
f 855 880 879
f 856 857 881
f 856 881 880
f 857 858 882
f 857 882 881
f 858 859 883
f 858 883 882
f 859 860 884
f 859 884 883
f 860 861 885
f 860 885 884
f 861 862 886
f 861 886 885
f 862 863 887
f 862 887 886
f 863 864 888
f 863 888 887
f 864 841 865
f 864 865 888
f 865 866 890
f 865 890 889
f 866 867 891
f 866 891 890
f 867 868 892
f 867 892 891
f 868 869 893
f 868 893 892
f 869 870 894
f 869 894 893
f 870 871 895
f 870 895 894
f 871 872 896
f 871 896 895
f 872 873 897
f 872 897 896
f 873 874 898
f 873 898 897
f 874 875 899
f 874 899 898
f 875 876 900
f 875 900 899
f 876 877 901
f 876 901 900
f 877 878 902
f 877 902 901
f 878 879 903
f 878 903 902
f 879 880 904
f 879 904 903
f 880 881 905
f 880 905 904
f 881 882 906
f 881 906 905
f 882 883 907
f 882 907 906
f 883 884 908
f 883 908 907
f 884 885 909
f 884 909 908
f 885 886 910
f 885 910 909
f 886 887 911
f 886 911 910
f 887 888 912
f 887 912 911
f 888 865 889
f 888 889 912
f 889 890 914
f 889 914 913
f 890 891 915
f 890 915 914
f 891 892 916
f 891 916 915
f 892 893 917
f 892 917 916
f 893 894 918
f 893 918 917
f 894 895 919
f 894 919 918
f 895 896 920
f 895 920 919
f 896 897 921
f 896 921 920
f 897 898 922
f 897 922 921
f 898 899 923
f 898 923 922
f 899 900 924
f 899 924 923
f 900 901 925
f 900 925 924
f 901 902 926
f 901 926 925
f 902 903 927
f 902 927 926
f 903 904 928
f 903 928 927
f 904 905 929
f 904 929 928
f 905 906 930
f 905 930 929
f 906 907 931
f 906 931 930
f 907 908 932
f 907 932 931
f 908 909 933
f 908 933 932
f 909 910 934
f 909 934 933
f 910 911 935
f 910 935 934
f 911 912 936
f 911 936 935
f 912 889 913
f 912 913 936
f 913 914 938
f 913 938 937
f 914 915 939
f 914 939 938
f 915 916 940
f 915 940 939
f 916 917 941
f 916 941 940
f 917 918 942
f 917 942 941
f 918 919 943
f 918 943 942
f 919 920 944
f 919 944 943
f 920 921 945
f 920 945 944
f 921 922 946
f 921 946 945
f 922 923 947
f 922 947 946
f 923 924 948
f 923 948 947
f 924 925 949
f 924 949 948
f 925 926 950
f 925 950 949
f 926 927 951
f 926 951 950
f 927 928 952
f 927 952 951
f 928 929 953
f 928 953 952
f 929 930 954
f 929 954 953
f 930 931 955
f 930 955 954
f 931 932 956
f 931 956 955
f 932 933 957
f 932 957 956
f 933 934 958
f 933 958 957
f 934 935 959
f 934 959 958
f 935 936 960
f 935 960 959
f 936 913 937
f 936 937 960
f 937 938 962
f 937 962 961
f 938 939 963
f 938 963 962
f 939 940 964
f 939 964 963
f 940 941 965
f 940 965 964
f 941 942 966
f 941 966 965
f 942 943 967
f 942 967 966
f 943 944 968
f 943 968 967
f 944 945 969
f 944 969 968
f 945 946 970
f 945 970 969
f 946 947 971
f 946 971 970
f 947 948 972
f 947 972 971
f 948 949 973
f 948 973 972
f 949 950 974
f 949 974 973
f 950 951 975
f 950 975 974
f 951 952 976
f 951 976 975
f 952 953 977
f 952 977 976
f 953 954 978
f 953 978 977
f 954 955 979
f 954 979 978
f 955 956 980
f 955 980 979
f 956 957 981
f 956 981 980
f 957 958 982
f 957 982 981
f 958 959 983
f 958 983 982
f 959 960 984
f 959 984 983
f 960 937 961
f 960 961 984
f 961 962 986
f 961 986 985
f 962 963 987
f 962 987 986
f 963 964 988
f 963 988 987
f 964 965 989
f 964 989 988
f 965 966 990
f 965 990 989
f 966 967 991
f 966 991 990
f 967 968 992
f 967 992 991
f 968 969 993
f 968 993 992
f 969 970 994
f 969 994 993
f 970 971 995
f 970 995 994
f 971 972 996
f 971 996 995
f 972 973 997
f 972 997 996
f 973 974 998
f 973 998 997
f 974 975 999
f 974 999 998
f 975 976 1000
f 975 1000 999
f 976 977 1001
f 976 1001 1000
f 977 978 1002
f 977 1002 1001
f 978 979 1003
f 978 1003 1002
f 979 980 1004
f 979 1004 1003
f 980 981 1005
f 980 1005 1004
f 981 982 1006
f 981 1006 1005
f 982 983 1007
f 982 1007 1006
f 983 984 1008
f 983 1008 1007
f 984 961 985
f 984 985 1008
f 985 986 1010
f 985 1010 1009
f 986 987 1011
f 986 1011 1010
f 987 988 1012
f 987 1012 1011
f 988 989 1013
f 988 1013 1012
f 989 990 1014
f 989 1014 1013
f 990 991 1015
f 990 1015 1014
f 991 992 1016
f 991 1016 1015
f 992 993 1017
f 992 1017 1016
f 993 994 1018
f 993 1018 1017
f 994 995 1019
f 994 1019 1018
f 995 996 1020
f 995 1020 1019
f 996 997 1021
f 996 1021 1020
f 997 998 1022
f 997 1022 1021
f 998 999 1023
f 998 1023 1022
f 999 1000 1024
f 999 1024 1023
f 1000 1001 1025
f 1000 1025 1024
f 1001 1002 1026
f 1001 1026 1025
f 1002 1003 1027
f 1002 1027 1026
f 1003 1004 1028
f 1003 1028 1027
f 1004 1005 1029
f 1004 1029 1028
f 1005 1006 1030
f 1005 1030 1029
f 1006 1007 1031
f 1006 1031 1030
f 1007 1008 1032
f 1007 1032 1031
f 1008 985 1009
f 1008 1009 1032
f 1033 2 1
f 1034 1009 1010
f 1033 3 2
f 1034 1010 1011
f 1033 4 3
f 1034 1011 1012
f 1033 5 4
f 1034 1012 1013
f 1033 6 5
f 1034 1013 1014
f 1033 7 6
f 1034 1014 1015
f 1033 8 7
f 1034 1015 1016
f 1033 9 8
f 1034 1016 1017
f 1033 10 9
f 1034 1017 1018
f 1033 11 10
f 1034 1018 1019
f 1033 12 11
f 1034 1019 1020
f 1033 13 12
f 1034 1020 1021
f 1033 14 13
f 1034 1021 1022
f 1033 15 14
f 1034 1022 1023
f 1033 16 15
f 1034 1023 1024
f 1033 17 16
f 1034 1024 1025
f 1033 18 17
f 1034 1025 1026
f 1033 19 18
f 1034 1026 1027
f 1033 20 19
f 1034 1027 1028
f 1033 21 20
f 1034 1028 1029
f 1033 22 21
f 1034 1029 1030
f 1033 23 22
f 1034 1030 1031
f 1033 24 23
f 1034 1031 1032
f 1033 1 24
f 1034 1032 1009
