v 0.357000 0.000000 1.826000
v 0.527000 0.000000 1.826000
v 0.527000 0.024000 1.826000
v 0.357000 0.024000 1.826000
v 0.357000 0.000000 1.644000
v 0.352464 0.000000 1.644113
v 0.347939 0.000000 1.644452
v 0.343437 0.000000 1.645016
v 0.338969 0.000000 1.645804
v 0.334545 0.000000 1.646814
v 0.330177 0.000000 1.648043
v 0.325876 0.000000 1.649488
v 0.321652 0.000000 1.651146
v 0.317517 0.000000 1.653012
v 0.313479 0.000000 1.655082
v 0.309549 0.000000 1.657351
v 0.305738 0.000000 1.659812
v 0.302054 0.000000 1.662461
v 0.298506 0.000000 1.665290
v 0.295104 0.000000 1.668292
v 0.291856 0.000000 1.671460
v 0.288770 0.000000 1.674787
v 0.285853 0.000000 1.678262
v 0.283114 0.000000 1.681879
v 0.280558 0.000000 1.685628
v 0.278192 0.000000 1.689500
v 0.276022 0.000000 1.693485
v 0.274053 0.000000 1.697573
v 0.272290 0.000000 1.701754
v 0.270739 0.000000 1.706018
v 0.269401 0.000000 1.710354
v 0.268282 0.000000 1.714751
v 0.267382 0.000000 1.719198
v 0.266706 0.000000 1.723685
v 0.266254 0.000000 1.728200
v 0.266028 0.000000 1.732731
v 0.266028 0.000000 1.737269
v 0.266254 0.000000 1.741800
v 0.266706 0.000000 1.746315
v 0.267382 0.000000 1.750802
v 0.268282 0.000000 1.755249
v 0.269401 0.000000 1.759646
v 0.270739 0.000000 1.763982
v 0.272290 0.000000 1.768246
v 0.274053 0.000000 1.772427
v 0.276022 0.000000 1.776515
v 0.278192 0.000000 1.780500
v 0.280558 0.000000 1.784372
v 0.283114 0.000000 1.788121
v 0.285853 0.000000 1.791738
v 0.288770 0.000000 1.795213
v 0.291856 0.000000 1.798540
v 0.295104 0.000000 1.801708
v 0.298506 0.000000 1.804710
v 0.302054 0.000000 1.807539
v 0.305738 0.000000 1.810188
v 0.309549 0.000000 1.812649
v 0.313479 0.000000 1.814918
v 0.317517 0.000000 1.816988
v 0.321652 0.000000 1.818854
v 0.325876 0.000000 1.820512
v 0.330177 0.000000 1.821957
v 0.334545 0.000000 1.823186
v 0.338969 0.000000 1.824196
v 0.343437 0.000000 1.824984
v 0.347939 0.000000 1.825548
v 0.352464 0.000000 1.825887
v 0.357000 0.000000 1.826000
v 0.357000 0.024000 1.826000
v 0.357000 0.024000 1.644000
v 0.352464 0.024000 1.644113
v 0.347939 0.024000 1.644452
v 0.343437 0.024000 1.645016
v 0.338969 0.024000 1.645804
v 0.334545 0.024000 1.646814
v 0.330177 0.024000 1.648043
v 0.325876 0.024000 1.649488
v 0.321652 0.024000 1.651146
v 0.317517 0.024000 1.653012
v 0.313479 0.024000 1.655082
v 0.309549 0.024000 1.657351
v 0.305738 0.024000 1.659812
v 0.302054 0.024000 1.662461
v 0.298506 0.024000 1.665290
v 0.295104 0.024000 1.668292
v 0.291856 0.024000 1.671460
v 0.288770 0.024000 1.674787
v 0.285853 0.024000 1.678262
v 0.283114 0.024000 1.681879
v 0.280558 0.024000 1.685628
v 0.278192 0.024000 1.689500
v 0.276022 0.024000 1.693485
v 0.274053 0.024000 1.697573
v 0.272290 0.024000 1.701754
v 0.270739 0.024000 1.706018
v 0.269401 0.024000 1.710354
v 0.268282 0.024000 1.714751
v 0.267382 0.024000 1.719198
v 0.266706 0.024000 1.723685
v 0.266254 0.024000 1.728200
v 0.266028 0.024000 1.732731
v 0.266028 0.024000 1.737269
v 0.266254 0.024000 1.741800
v 0.266706 0.024000 1.746315
v 0.267382 0.024000 1.750802
v 0.268282 0.024000 1.755249
v 0.269401 0.024000 1.759646
v 0.270739 0.024000 1.763982
v 0.272290 0.024000 1.768246
v 0.274053 0.024000 1.772427
v 0.276022 0.024000 1.776515
v 0.278192 0.024000 1.780500
v 0.280558 0.024000 1.784372
v 0.283114 0.024000 1.788121
v 0.285853 0.024000 1.791738
v 0.288770 0.024000 1.795213
v 0.291856 0.024000 1.798540
v 0.295104 0.024000 1.801708
v 0.298506 0.024000 1.804710
v 0.302054 0.024000 1.807539
v 0.305738 0.024000 1.810188
v 0.309549 0.024000 1.812649
v 0.313479 0.024000 1.814918
v 0.317517 0.024000 1.816988
v 0.321652 0.024000 1.818854
v 0.325876 0.024000 1.820512
v 0.330177 0.024000 1.821957
v 0.334545 0.024000 1.823186
v 0.338969 0.024000 1.824196
v 0.343437 0.024000 1.824984
v 0.347939 0.024000 1.825548
v 0.352464 0.024000 1.825887
v 0.527000 0.000000 1.826000
v 0.527000 0.024000 1.826000
v 0.531536 0.000000 1.825887
v 0.536061 0.000000 1.825548
v 0.540563 0.000000 1.824984
v 0.545031 0.000000 1.824196
v 0.549455 0.000000 1.823186
v 0.553823 0.000000 1.821957
v 0.558124 0.000000 1.820512
v 0.562348 0.000000 1.818854
v 0.566483 0.000000 1.816988
v 0.570521 0.000000 1.814918
v 0.574451 0.000000 1.812649
v 0.578262 0.000000 1.810188
v 0.581946 0.000000 1.807539
v 0.585494 0.000000 1.804710
v 0.588896 0.000000 1.801708
v 0.592144 0.000000 1.798540
v 0.595230 0.000000 1.795213
v 0.598147 0.000000 1.791738
v 0.600886 0.000000 1.788121
v 0.603442 0.000000 1.784372
v 0.605808 0.000000 1.780500
v 0.607978 0.000000 1.776515
v 0.609947 0.000000 1.772427
v 0.611710 0.000000 1.768246
v 0.613261 0.000000 1.763982
v 0.614599 0.000000 1.759646
v 0.615718 0.000000 1.755249
v 0.616618 0.000000 1.750802
v 0.617294 0.000000 1.746315
v 0.617746 0.000000 1.741800
v 0.617972 0.000000 1.737269
v 0.617972 0.000000 1.732731
v 0.617746 0.000000 1.728200
v 0.617294 0.000000 1.723685
v 0.616618 0.000000 1.719198
v 0.615718 0.000000 1.714751
v 0.614599 0.000000 1.710354
v 0.613261 0.000000 1.706018
v 0.611710 0.000000 1.701754
v 0.609947 0.000000 1.697573
v 0.607978 0.000000 1.693485
v 0.605808 0.000000 1.689500
v 0.603442 0.000000 1.685628
v 0.600886 0.000000 1.681879
v 0.598147 0.000000 1.678262
v 0.595230 0.000000 1.674787
v 0.592144 0.000000 1.671460
v 0.588896 0.000000 1.668292
v 0.585494 0.000000 1.665290
v 0.581946 0.000000 1.662461
v 0.578262 0.000000 1.659812
v 0.574451 0.000000 1.657351
v 0.570521 0.000000 1.655082
v 0.566483 0.000000 1.653012
v 0.562348 0.000000 1.651146
v 0.558124 0.000000 1.649488
v 0.553823 0.000000 1.648043
v 0.549455 0.000000 1.646814
v 0.545031 0.000000 1.645804
v 0.540563 0.000000 1.645016
v 0.536061 0.000000 1.644452
v 0.531536 0.000000 1.644113
v 0.527000 0.000000 1.644000
v 0.527000 0.024000 1.644000
v 0.531536 0.024000 1.825887
v 0.536061 0.024000 1.825548
v 0.540563 0.024000 1.824984
v 0.545031 0.024000 1.824196
v 0.549455 0.024000 1.823186
v 0.553823 0.024000 1.821957
v 0.558124 0.024000 1.820512
v 0.562348 0.024000 1.818854
v 0.566483 0.024000 1.816988
v 0.570521 0.024000 1.814918
v 0.574451 0.024000 1.812649
v 0.578262 0.024000 1.810188
v 0.581946 0.024000 1.807539
v 0.585494 0.024000 1.804710
v 0.588896 0.024000 1.801708
v 0.592144 0.024000 1.798540
v 0.595230 0.024000 1.795213
v 0.598147 0.024000 1.791738
v 0.600886 0.024000 1.788121
v 0.603442 0.024000 1.784372
v 0.605808 0.024000 1.780500
v 0.607978 0.024000 1.776515
v 0.609947 0.024000 1.772427
v 0.611710 0.024000 1.768246
v 0.613261 0.024000 1.763982
v 0.614599 0.024000 1.759646
v 0.615718 0.024000 1.755249
v 0.616618 0.024000 1.750802
v 0.617294 0.024000 1.746315
v 0.617746 0.024000 1.741800
v 0.617972 0.024000 1.737269
v 0.617972 0.024000 1.732731
v 0.617746 0.024000 1.728200
v 0.617294 0.024000 1.723685
v 0.616618 0.024000 1.719198
v 0.615718 0.024000 1.714751
v 0.614599 0.024000 1.710354
v 0.613261 0.024000 1.706018
v 0.611710 0.024000 1.701754
v 0.609947 0.024000 1.697573
v 0.607978 0.024000 1.693485
v 0.605808 0.024000 1.689500
v 0.603442 0.024000 1.685628
v 0.600886 0.024000 1.681879
v 0.598147 0.024000 1.678262
v 0.595230 0.024000 1.674787
v 0.592144 0.024000 1.671460
v 0.588896 0.024000 1.668292
v 0.585494 0.024000 1.665290
v 0.581946 0.024000 1.662461
v 0.578262 0.024000 1.659812
v 0.574451 0.024000 1.657351
v 0.570521 0.024000 1.655082
v 0.566483 0.024000 1.653012
v 0.562348 0.024000 1.651146
v 0.558124 0.024000 1.649488
v 0.553823 0.024000 1.648043
v 0.549455 0.024000 1.646814
v 0.545031 0.024000 1.645804
v 0.540563 0.024000 1.645016
v 0.536061 0.024000 1.644452
v 0.531536 0.024000 1.644113
v 0.357000 0.000000 1.826000
v 0.527000 0.000000 1.826000
v 0.531536 0.000000 1.825887
v 0.536061 0.000000 1.825548
v 0.540563 0.000000 1.824984
v 0.545031 0.000000 1.824196
v 0.549455 0.000000 1.823186
v 0.553823 0.000000 1.821957
v 0.558124 0.000000 1.820512
v 0.562348 0.000000 1.818854
v 0.566483 0.000000 1.816988
v 0.570521 0.000000 1.814918
v 0.574451 0.000000 1.812649
v 0.578262 0.000000 1.810188
v 0.581946 0.000000 1.807539
v 0.585494 0.000000 1.804710
v 0.588896 0.000000 1.801708
v 0.592144 0.000000 1.798540
v 0.595230 0.000000 1.795213
v 0.598147 0.000000 1.791738
v 0.600886 0.000000 1.788121
v 0.603442 0.000000 1.784372
v 0.605808 0.000000 1.780500
v 0.607978 0.000000 1.776515
v 0.609947 0.000000 1.772427
v 0.611710 0.000000 1.768246
v 0.613261 0.000000 1.763982
v 0.614599 0.000000 1.759646
v 0.615718 0.000000 1.755249
v 0.616618 0.000000 1.750802
v 0.617294 0.000000 1.746315
v 0.617746 0.000000 1.741800
v 0.617972 0.000000 1.737269
v 0.617972 0.000000 1.732731
v 0.617746 0.000000 1.728200
v 0.617294 0.000000 1.723685
v 0.616618 0.000000 1.719198
v 0.615718 0.000000 1.714751
v 0.614599 0.000000 1.710354
v 0.613261 0.000000 1.706018
v 0.611710 0.000000 1.701754
v 0.609947 0.000000 1.697573
v 0.607978 0.000000 1.693485
v 0.605808 0.000000 1.689500
v 0.603442 0.000000 1.685628
v 0.600886 0.000000 1.681879
v 0.598147 0.000000 1.678262
v 0.595230 0.000000 1.674787
v 0.592144 0.000000 1.671460
v 0.588896 0.000000 1.668292
v 0.585494 0.000000 1.665290
v 0.581946 0.000000 1.662461
v 0.578262 0.000000 1.659812
v 0.574451 0.000000 1.657351
v 0.570521 0.000000 1.655082
v 0.566483 0.000000 1.653012
v 0.562348 0.000000 1.651146
v 0.558124 0.000000 1.649488
v 0.553823 0.000000 1.648043
v 0.549455 0.000000 1.646814
v 0.545031 0.000000 1.645804
v 0.540563 0.000000 1.645016
v 0.536061 0.000000 1.644452
v 0.531536 0.000000 1.644113
v 0.527000 0.000000 1.644000
v 0.357000 0.000000 1.644000
v 0.352464 0.000000 1.644113
v 0.347939 0.000000 1.644452
v 0.343437 0.000000 1.645016
v 0.338969 0.000000 1.645804
v 0.334545 0.000000 1.646814
v 0.330177 0.000000 1.648043
v 0.325876 0.000000 1.649488
v 0.321652 0.000000 1.651146
v 0.317517 0.000000 1.653012
v 0.313479 0.000000 1.655082
v 0.309549 0.000000 1.657351
v 0.305738 0.000000 1.659812
v 0.302054 0.000000 1.662461
v 0.298506 0.000000 1.665290
v 0.295104 0.000000 1.668292
v 0.291856 0.000000 1.671460
v 0.288770 0.000000 1.674787
v 0.285853 0.000000 1.678262
v 0.283114 0.000000 1.681879
v 0.280558 0.000000 1.685628
v 0.278192 0.000000 1.689500
v 0.276022 0.000000 1.693485
v 0.274053 0.000000 1.697573
v 0.272290 0.000000 1.701754
v 0.270739 0.000000 1.706018
v 0.269401 0.000000 1.710354
v 0.268282 0.000000 1.714751
v 0.267382 0.000000 1.719198
v 0.266706 0.000000 1.723685
v 0.266254 0.000000 1.728200
v 0.266028 0.000000 1.732731
v 0.266028 0.000000 1.737269
v 0.266254 0.000000 1.741800
v 0.266706 0.000000 1.746315
v 0.267382 0.000000 1.750802
v 0.268282 0.000000 1.755249
v 0.269401 0.000000 1.759646
v 0.270739 0.000000 1.763982
v 0.272290 0.000000 1.768246
v 0.274053 0.000000 1.772427
v 0.276022 0.000000 1.776515
v 0.278192 0.000000 1.780500
v 0.280558 0.000000 1.784372
v 0.283114 0.000000 1.788121
v 0.285853 0.000000 1.791738
v 0.288770 0.000000 1.795213
v 0.291856 0.000000 1.798540
v 0.295104 0.000000 1.801708
v 0.298506 0.000000 1.804710
v 0.302054 0.000000 1.807539
v 0.305738 0.000000 1.810188
v 0.309549 0.000000 1.812649
v 0.313479 0.000000 1.814918
v 0.317517 0.000000 1.816988
v 0.321652 0.000000 1.818854
v 0.325876 0.000000 1.820512
v 0.330177 0.000000 1.821957
v 0.334545 0.000000 1.823186
v 0.338969 0.000000 1.824196
v 0.343437 0.000000 1.824984
v 0.347939 0.000000 1.825548
v 0.352464 0.000000 1.825887
v 0.527000 0.000000 1.644000
v 0.527000 0.024000 1.644000
v 0.357000 0.000000 1.644000
v 0.357000 0.024000 1.644000
v 0.357000 0.024000 1.826000
v 0.527000 0.024000 1.826000
v 0.531536 0.024000 1.825887
v 0.536061 0.024000 1.825548
v 0.540563 0.024000 1.824984
v 0.545031 0.024000 1.824196
v 0.549455 0.024000 1.823186
v 0.553823 0.024000 1.821957
v 0.558124 0.024000 1.820512
v 0.562348 0.024000 1.818854
v 0.566483 0.024000 1.816988
v 0.570521 0.024000 1.814918
v 0.574451 0.024000 1.812649
v 0.578262 0.024000 1.810188
v 0.581946 0.024000 1.807539
v 0.585494 0.024000 1.804710
v 0.588896 0.024000 1.801708
v 0.592144 0.024000 1.798540
v 0.595230 0.024000 1.795213
v 0.598147 0.024000 1.791738
v 0.600886 0.024000 1.788121
v 0.603442 0.024000 1.784372
v 0.605808 0.024000 1.780500
v 0.607978 0.024000 1.776515
v 0.609947 0.024000 1.772427
v 0.611710 0.024000 1.768246
v 0.613261 0.024000 1.763982
v 0.614599 0.024000 1.759646
v 0.615718 0.024000 1.755249
v 0.616618 0.024000 1.750802
v 0.617294 0.024000 1.746315
v 0.617746 0.024000 1.741800
v 0.617972 0.024000 1.737269
v 0.617972 0.024000 1.732731
v 0.617746 0.024000 1.728200
v 0.617294 0.024000 1.723685
v 0.616618 0.024000 1.719198
v 0.615718 0.024000 1.714751
v 0.614599 0.024000 1.710354
v 0.613261 0.024000 1.706018
v 0.611710 0.024000 1.701754
v 0.609947 0.024000 1.697573
v 0.607978 0.024000 1.693485
v 0.605808 0.024000 1.689500
v 0.603442 0.024000 1.685628
v 0.600886 0.024000 1.681879
v 0.598147 0.024000 1.678262
v 0.595230 0.024000 1.674787
v 0.592144 0.024000 1.671460
v 0.588896 0.024000 1.668292
v 0.585494 0.024000 1.665290
v 0.581946 0.024000 1.662461
v 0.578262 0.024000 1.659812
v 0.574451 0.024000 1.657351
v 0.570521 0.024000 1.655082
v 0.566483 0.024000 1.653012
v 0.562348 0.024000 1.651146
v 0.558124 0.024000 1.649488
v 0.553823 0.024000 1.648043
v 0.549455 0.024000 1.646814
v 0.545031 0.024000 1.645804
v 0.540563 0.024000 1.645016
v 0.536061 0.024000 1.644452
v 0.531536 0.024000 1.644113
v 0.527000 0.024000 1.644000
v 0.357000 0.024000 1.644000
v 0.352464 0.024000 1.644113
v 0.347939 0.024000 1.644452
v 0.343437 0.024000 1.645016
v 0.338969 0.024000 1.645804
v 0.334545 0.024000 1.646814
v 0.330177 0.024000 1.648043
v 0.325876 0.024000 1.649488
v 0.321652 0.024000 1.651146
v 0.317517 0.024000 1.653012
v 0.313479 0.024000 1.655082
v 0.309549 0.024000 1.657351
v 0.305738 0.024000 1.659812
v 0.302054 0.024000 1.662461
v 0.298506 0.024000 1.665290
v 0.295104 0.024000 1.668292
v 0.291856 0.024000 1.671460
v 0.288770 0.024000 1.674787
v 0.285853 0.024000 1.678262
v 0.283114 0.024000 1.681879
v 0.280558 0.024000 1.685628
v 0.278192 0.024000 1.689500
v 0.276022 0.024000 1.693485
v 0.274053 0.024000 1.697573
v 0.272290 0.024000 1.701754
v 0.270739 0.024000 1.706018
v 0.269401 0.024000 1.710354
v 0.268282 0.024000 1.714751
v 0.267382 0.024000 1.719198
v 0.266706 0.024000 1.723685
v 0.266254 0.024000 1.728200
v 0.266028 0.024000 1.732731
v 0.266028 0.024000 1.737269
v 0.266254 0.024000 1.741800
v 0.266706 0.024000 1.746315
v 0.267382 0.024000 1.750802
v 0.268282 0.024000 1.755249
v 0.269401 0.024000 1.759646
v 0.270739 0.024000 1.763982
v 0.272290 0.024000 1.768246
v 0.274053 0.024000 1.772427
v 0.276022 0.024000 1.776515
v 0.278192 0.024000 1.780500
v 0.280558 0.024000 1.784372
v 0.283114 0.024000 1.788121
v 0.285853 0.024000 1.791738
v 0.288770 0.024000 1.795213
v 0.291856 0.024000 1.798540
v 0.295104 0.024000 1.801708
v 0.298506 0.024000 1.804710
v 0.302054 0.024000 1.807539
v 0.305738 0.024000 1.810188
v 0.309549 0.024000 1.812649
v 0.313479 0.024000 1.814918
v 0.317517 0.024000 1.816988
v 0.321652 0.024000 1.818854
v 0.325876 0.024000 1.820512
v 0.330177 0.024000 1.821957
v 0.334545 0.024000 1.823186
v 0.338969 0.024000 1.824196
v 0.343437 0.024000 1.824984
v 0.347939 0.024000 1.825548
v 0.352464 0.024000 1.825887
f 3 1 2
f 3 4 1
f 71 5 6
f 71 70 5
f 72 6 7
f 72 71 6
f 73 7 8
f 73 72 7
f 74 8 9
f 74 73 8
f 75 9 10
f 75 74 9
f 76 10 11
f 76 75 10
f 77 11 12
f 77 76 11
f 78 12 13
f 78 77 12
f 79 13 14
f 79 78 13
f 80 14 15
f 80 79 14
f 81 15 16
f 81 80 15
f 82 16 17
f 82 81 16
f 83 17 18
f 83 82 17
f 84 18 19
f 84 83 18
f 85 19 20
f 85 84 19
f 86 20 21
f 86 85 20
f 87 21 22
f 87 86 21
f 88 87 22
f 88 22 23
f 89 88 23
f 89 23 24
f 90 89 24
f 90 24 25
f 91 90 25
f 91 25 26
f 92 91 26
f 92 26 27
f 93 27 28
f 93 92 27
f 94 28 29
f 94 93 28
f 95 29 30
f 95 94 29
f 96 30 31
f 96 95 30
f 97 31 32
f 97 32 33
f 97 96 31
f 98 97 33
f 99 33 34
f 99 98 33
f 100 34 35
f 100 35 36
f 100 99 34
f 101 100 36
f 102 36 37
f 102 101 36
f 103 37 38
f 103 38 39
f 103 102 37
f 104 103 39
f 105 39 40
f 105 104 39
f 106 40 41
f 106 105 40
f 107 41 42
f 107 106 41
f 108 42 43
f 108 107 42
f 109 43 44
f 109 108 43
f 110 44 45
f 110 109 44
f 111 45 46
f 111 110 45
f 112 46 47
f 112 111 46
f 113 112 47
f 113 47 48
f 114 113 48
f 114 48 49
f 115 114 49
f 115 49 50
f 116 115 50
f 116 50 51
f 116 51 52
f 117 116 52
f 118 117 52
f 118 52 53
f 119 118 53
f 119 53 54
f 120 119 54
f 120 54 55
f 121 120 55
f 121 55 56
f 122 121 56
f 122 56 57
f 123 122 57
f 123 57 58
f 124 123 58
f 124 58 59
f 125 124 59
f 125 59 60
f 126 125 60
f 126 60 61
f 127 61 62
f 127 126 61
f 128 62 63
f 128 127 62
f 129 63 64
f 129 128 63
f 130 64 65
f 130 129 64
f 131 65 66
f 131 130 65
f 132 66 67
f 132 67 68
f 132 131 66
f 69 132 68
f 199 134 133
f 199 133 135
f 200 135 136
f 200 199 135
f 201 136 137
f 201 200 136
f 202 137 138
f 202 201 137
f 203 138 139
f 203 202 138
f 204 139 140
f 204 203 139
f 205 140 141
f 205 204 140
f 206 141 142
f 206 205 141
f 207 142 143
f 207 206 142
f 208 143 144
f 208 207 143
f 209 144 145
f 209 208 144
f 210 145 146
f 210 209 145
f 211 146 147
f 211 210 146
f 212 147 148
f 212 211 147
f 213 148 149
f 213 212 148
f 214 149 150
f 214 213 149
f 215 150 151
f 215 214 150
f 216 215 151
f 216 151 152
f 217 216 152
f 217 152 153
f 218 217 153
f 218 153 154
f 219 218 154
f 219 154 155
f 220 219 155
f 220 155 156
f 221 156 157
f 221 220 156
f 222 157 158
f 222 221 157
f 223 158 159
f 223 222 158
f 224 159 160
f 224 223 159
f 225 160 161
f 225 161 162
f 225 224 160
f 226 225 162
f 227 162 163
f 227 226 162
f 228 163 164
f 228 164 165
f 228 227 163
f 229 228 165
f 230 165 166
f 230 229 165
f 231 166 167
f 231 167 168
f 231 230 166
f 232 231 168
f 233 168 169
f 233 232 168
f 234 169 170
f 234 233 169
f 235 170 171
f 235 234 170
f 236 171 172
f 236 235 171
f 237 172 173
f 237 236 172
f 238 173 174
f 238 237 173
f 239 174 175
f 239 238 174
f 240 175 176
f 240 239 175
f 241 240 176
f 241 176 177
f 242 241 177
f 242 177 178
f 243 242 178
f 243 178 179
f 244 243 179
f 244 179 180
f 244 180 181
f 245 244 181
f 246 245 181
f 246 181 182
f 247 246 182
f 247 182 183
f 248 247 183
f 248 183 184
f 249 248 184
f 249 184 185
f 250 249 185
f 250 185 186
f 251 250 186
f 251 186 187
f 252 251 187
f 252 187 188
f 253 252 188
f 253 188 189
f 254 253 189
f 254 189 190
f 255 190 191
f 255 254 190
f 256 191 192
f 256 255 191
f 257 192 193
f 257 256 192
f 258 193 194
f 258 257 193
f 259 194 195
f 259 258 194
f 260 195 196
f 260 196 197
f 260 259 195
f 198 260 197
f 326 328 327
f 326 329 328
f 326 330 329
f 326 331 330
f 326 332 331
f 326 333 332
f 326 334 333
f 326 335 334
f 326 336 335
f 326 337 336
f 374 373 372
f 377 375 374
f 377 376 375
f 381 379 378
f 381 380 379
f 384 383 382
f 388 387 386
f 261 362 361
f 261 363 362
f 261 364 363
f 261 365 364
f 261 366 365
f 261 367 366
f 261 368 367
f 261 369 368
f 261 370 369
f 261 371 370
f 261 372 371
f 261 378 377
f 261 374 372
f 261 388 386
f 261 382 381
f 261 385 384
f 261 386 385
f 261 377 374
f 261 384 382
f 261 337 326
f 261 381 378
f 261 338 337
f 261 339 338
f 261 340 339
f 261 341 340
f 261 342 341
f 261 343 342
f 261 344 343
f 261 345 344
f 261 346 345
f 261 347 346
f 261 348 347
f 261 349 348
f 261 350 349
f 261 351 350
f 261 352 351
f 261 353 352
f 261 354 353
f 261 355 354
f 261 356 355
f 261 357 356
f 261 358 357
f 261 359 358
f 261 360 359
f 261 361 360
f 320 322 321
f 313 315 314
f 313 316 315
f 309 311 310
f 309 312 311
f 306 308 307
f 302 304 303
f 302 305 304
f 302 306 305
f 299 301 300
f 262 261 326
f 262 326 325
f 265 264 263
f 289 291 290
f 267 266 265
f 288 291 289
f 269 268 267
f 286 288 287
f 270 263 262
f 270 265 263
f 270 269 267
f 270 267 265
f 285 288 286
f 282 284 283
f 281 285 284
f 281 284 282
f 276 272 271
f 276 273 272
f 276 274 273
f 276 275 274
f 278 271 270
f 278 277 276
f 278 280 279
f 278 281 280
f 278 262 325
f 278 292 291
f 278 293 292
f 278 294 293
f 278 295 294
f 278 296 295
f 278 297 296
f 278 298 297
f 278 299 298
f 278 291 288
f 278 302 301
f 278 285 281
f 278 309 308
f 278 270 262
f 278 313 312
f 278 317 316
f 278 322 320
f 278 318 317
f 278 319 318
f 278 320 319
f 278 323 322
f 278 324 323
f 278 325 324
f 278 288 285
f 278 276 271
f 278 316 313
f 278 312 309
f 278 306 302
f 278 308 306
f 278 301 299
f 392 390 389
f 392 389 391
f 458 459 460
f 458 460 461
f 458 461 462
f 458 462 463
f 458 463 464
f 458 464 465
f 458 465 466
f 458 466 467
f 458 467 468
f 458 468 469
f 506 504 505
f 509 506 507
f 509 507 508
f 513 510 511
f 513 511 512
f 516 514 515
f 520 518 519
f 393 493 494
f 393 494 495
f 393 495 496
f 393 496 497
f 393 497 498
f 393 498 499
f 393 499 500
f 393 500 501
f 393 501 502
f 393 502 503
f 393 503 504
f 393 509 510
f 393 504 506
f 393 518 520
f 393 513 514
f 393 516 517
f 393 517 518
f 393 506 509
f 393 514 516
f 393 458 469
f 393 510 513
f 393 469 470
f 393 470 471
f 393 471 472
f 393 472 473
f 393 473 474
f 393 474 475
f 393 475 476
f 393 476 477
f 393 477 478
f 393 478 479
f 393 479 480
f 393 480 481
f 393 481 482
f 393 482 483
f 393 483 484
f 393 484 485
f 393 485 486
f 393 486 487
f 393 487 488
f 393 488 489
f 393 489 490
f 393 490 491
f 393 491 492
f 393 492 493
f 452 453 454
f 445 446 447
f 445 447 448
f 441 442 443
f 441 443 444
f 438 439 440
f 434 435 436
f 434 436 437
f 434 437 438
f 431 432 433
f 394 458 393
f 394 457 458
f 397 395 396
f 421 422 423
f 399 397 398
f 420 421 423
f 401 399 400
f 418 419 420
f 402 394 395
f 402 395 397
f 402 399 401
f 402 397 399
f 417 418 420
f 414 415 416
f 413 416 417
f 413 414 416
f 408 403 404
f 408 404 405
f 408 405 406
f 408 406 407
f 410 402 403
f 410 408 409
f 410 411 412
f 410 412 413
f 410 457 394
f 410 423 424
f 410 424 425
f 410 425 426
f 410 426 427
f 410 427 428
f 410 428 429
f 410 429 430
f 410 430 431
f 410 420 423
f 410 433 434
f 410 413 417
f 410 440 441
f 410 394 402
f 410 444 445
f 410 448 449
f 410 452 454
f 410 449 450
f 410 450 451
f 410 451 452
f 410 454 455
f 410 455 456
f 410 456 457
f 410 417 420
f 410 403 408
f 410 445 448
f 410 441 444
f 410 434 438
f 410 438 440
f 410 431 433
