v 0.357000 -0.003000 1.855000
v 0.527000 -0.003000 1.855000
v 0.527000 0.009000 1.855000
v 0.357000 0.009000 1.855000
v 0.357000 -0.003000 1.855000
v 0.527000 -0.003000 1.855000
v 0.532982 -0.003000 1.854851
v 0.538948 -0.003000 1.854404
v 0.544885 -0.003000 1.853660
v 0.550778 -0.003000 1.852621
v 0.556611 -0.003000 1.851289
v 0.562371 -0.003000 1.849669
v 0.568042 -0.003000 1.847763
v 0.573612 -0.003000 1.845577
v 0.579066 -0.003000 1.843116
v 0.584390 -0.003000 1.840387
v 0.589572 -0.003000 1.837395
v 0.594598 -0.003000 1.834149
v 0.599457 -0.003000 1.830656
v 0.604135 -0.003000 1.826925
v 0.608621 -0.003000 1.822966
v 0.612904 -0.003000 1.818788
v 0.616974 -0.003000 1.814402
v 0.620820 -0.003000 1.809819
v 0.624433 -0.003000 1.805049
v 0.627803 -0.003000 1.800106
v 0.630923 -0.003000 1.795000
v 0.633785 -0.003000 1.789745
v 0.636381 -0.003000 1.784354
v 0.638705 -0.003000 1.778841
v 0.640751 -0.003000 1.773218
v 0.642515 -0.003000 1.767501
v 0.643991 -0.003000 1.761703
v 0.645177 -0.003000 1.755838
v 0.646069 -0.003000 1.749921
v 0.646664 -0.003000 1.743968
v 0.646963 -0.003000 1.737992
v 0.646963 -0.003000 1.732008
v 0.646664 -0.003000 1.726032
v 0.646069 -0.003000 1.720079
v 0.645177 -0.003000 1.714162
v 0.643991 -0.003000 1.708297
v 0.642515 -0.003000 1.702499
v 0.640751 -0.003000 1.696782
v 0.638705 -0.003000 1.691159
v 0.636381 -0.003000 1.685646
v 0.633785 -0.003000 1.680255
v 0.630923 -0.003000 1.675000
v 0.627803 -0.003000 1.669894
v 0.624433 -0.003000 1.664951
v 0.620820 -0.003000 1.660181
v 0.616974 -0.003000 1.655598
v 0.612904 -0.003000 1.651212
v 0.608621 -0.003000 1.647034
v 0.604135 -0.003000 1.643075
v 0.599457 -0.003000 1.639344
v 0.594598 -0.003000 1.635851
v 0.589572 -0.003000 1.632605
v 0.584390 -0.003000 1.629613
v 0.579066 -0.003000 1.626884
v 0.573612 -0.003000 1.624423
v 0.568042 -0.003000 1.622237
v 0.562371 -0.003000 1.620331
v 0.556611 -0.003000 1.618711
v 0.550778 -0.003000 1.617379
v 0.544885 -0.003000 1.616340
v 0.538948 -0.003000 1.615596
v 0.532982 -0.003000 1.615149
v 0.527000 -0.003000 1.615000
v 0.357000 -0.003000 1.615000
v 0.351018 -0.003000 1.615149
v 0.345052 -0.003000 1.615596
v 0.339115 -0.003000 1.616340
v 0.333222 -0.003000 1.617379
v 0.327389 -0.003000 1.618711
v 0.321629 -0.003000 1.620331
v 0.315958 -0.003000 1.622237
v 0.310388 -0.003000 1.624423
v 0.304934 -0.003000 1.626884
v 0.299610 -0.003000 1.629613
v 0.294428 -0.003000 1.632605
v 0.289402 -0.003000 1.635851
v 0.284543 -0.003000 1.639344
v 0.279865 -0.003000 1.643075
v 0.275379 -0.003000 1.647034
v 0.271096 -0.003000 1.651212
v 0.267026 -0.003000 1.655598
v 0.263180 -0.003000 1.660181
v 0.259567 -0.003000 1.664951
v 0.256197 -0.003000 1.669894
v 0.253077 -0.003000 1.675000
v 0.250215 -0.003000 1.680255
v 0.247619 -0.003000 1.685646
v 0.245295 -0.003000 1.691159
v 0.243249 -0.003000 1.696782
v 0.241485 -0.003000 1.702499
v 0.240009 -0.003000 1.708297
v 0.238823 -0.003000 1.714162
v 0.237931 -0.003000 1.720079
v 0.237336 -0.003000 1.726032
v 0.237037 -0.003000 1.732008
v 0.237037 -0.003000 1.737992
v 0.237336 -0.003000 1.743968
v 0.237931 -0.003000 1.749921
v 0.238823 -0.003000 1.755838
v 0.240009 -0.003000 1.761703
v 0.241485 -0.003000 1.767501
v 0.243249 -0.003000 1.773218
v 0.245295 -0.003000 1.778841
v 0.247619 -0.003000 1.784354
v 0.250215 -0.003000 1.789745
v 0.253077 -0.003000 1.795000
v 0.256197 -0.003000 1.800106
v 0.259567 -0.003000 1.805049
v 0.263180 -0.003000 1.809819
v 0.267026 -0.003000 1.814402
v 0.271096 -0.003000 1.818788
v 0.275379 -0.003000 1.822966
v 0.279865 -0.003000 1.826925
v 0.284543 -0.003000 1.830656
v 0.289402 -0.003000 1.834149
v 0.294428 -0.003000 1.837395
v 0.299610 -0.003000 1.840387
v 0.304934 -0.003000 1.843116
v 0.310388 -0.003000 1.845577
v 0.315958 -0.003000 1.847763
v 0.321629 -0.003000 1.849669
v 0.327389 -0.003000 1.851289
v 0.333222 -0.003000 1.852621
v 0.339115 -0.003000 1.853660
v 0.345052 -0.003000 1.854404
v 0.351018 -0.003000 1.854851
v 0.357000 -0.003000 1.817500
v 0.527000 -0.003000 1.817500
v 0.357000 -0.003000 1.652500
v 0.352888 -0.003000 1.652603
v 0.348786 -0.003000 1.652910
v 0.344704 -0.003000 1.653421
v 0.340653 -0.003000 1.654136
v 0.336643 -0.003000 1.655051
v 0.332683 -0.003000 1.656165
v 0.328783 -0.003000 1.657475
v 0.324954 -0.003000 1.658978
v 0.321205 -0.003000 1.660670
v 0.317544 -0.003000 1.662547
v 0.313982 -0.003000 1.664604
v 0.310526 -0.003000 1.666835
v 0.307186 -0.003000 1.669237
v 0.303970 -0.003000 1.671801
v 0.300886 -0.003000 1.674523
v 0.297941 -0.003000 1.677395
v 0.295143 -0.003000 1.680411
v 0.292499 -0.003000 1.683562
v 0.290015 -0.003000 1.686841
v 0.287698 -0.003000 1.690240
v 0.285553 -0.003000 1.693750
v 0.283586 -0.003000 1.697363
v 0.281801 -0.003000 1.701069
v 0.280203 -0.003000 1.704859
v 0.278796 -0.003000 1.708725
v 0.277583 -0.003000 1.712656
v 0.276568 -0.003000 1.716642
v 0.275753 -0.003000 1.720674
v 0.275140 -0.003000 1.724742
v 0.274731 -0.003000 1.728835
v 0.274526 -0.003000 1.732943
v 0.274526 -0.003000 1.737057
v 0.274731 -0.003000 1.741165
v 0.275140 -0.003000 1.745258
v 0.275753 -0.003000 1.749326
v 0.276568 -0.003000 1.753358
v 0.277583 -0.003000 1.757344
v 0.278796 -0.003000 1.761275
v 0.280203 -0.003000 1.765141
v 0.281801 -0.003000 1.768931
v 0.283586 -0.003000 1.772637
v 0.285553 -0.003000 1.776250
v 0.287698 -0.003000 1.779760
v 0.290015 -0.003000 1.783159
v 0.292499 -0.003000 1.786438
v 0.295143 -0.003000 1.789589
v 0.297941 -0.003000 1.792605
v 0.300886 -0.003000 1.795477
v 0.303970 -0.003000 1.798199
v 0.307186 -0.003000 1.800763
v 0.310526 -0.003000 1.803165
v 0.313982 -0.003000 1.805396
v 0.317544 -0.003000 1.807453
v 0.321205 -0.003000 1.809330
v 0.324954 -0.003000 1.811022
v 0.328783 -0.003000 1.812525
v 0.332683 -0.003000 1.813835
v 0.336643 -0.003000 1.814949
v 0.340653 -0.003000 1.815864
v 0.344704 -0.003000 1.816579
v 0.348786 -0.003000 1.817090
v 0.352888 -0.003000 1.817397
v 0.527000 -0.003000 1.652500
v 0.531112 -0.003000 1.817397
v 0.535214 -0.003000 1.817090
v 0.539296 -0.003000 1.816579
v 0.543347 -0.003000 1.815864
v 0.547357 -0.003000 1.814949
v 0.551317 -0.003000 1.813835
v 0.555217 -0.003000 1.812525
v 0.559046 -0.003000 1.811022
v 0.562795 -0.003000 1.809330
v 0.566456 -0.003000 1.807453
v 0.570018 -0.003000 1.805396
v 0.573474 -0.003000 1.803165
v 0.576814 -0.003000 1.800763
v 0.580030 -0.003000 1.798199
v 0.583114 -0.003000 1.795477
v 0.586059 -0.003000 1.792605
v 0.588857 -0.003000 1.789589
v 0.591501 -0.003000 1.786438
v 0.593985 -0.003000 1.783159
v 0.596302 -0.003000 1.779760
v 0.598447 -0.003000 1.776250
v 0.600414 -0.003000 1.772637
v 0.602199 -0.003000 1.768931
v 0.603797 -0.003000 1.765141
v 0.605204 -0.003000 1.761275
v 0.606417 -0.003000 1.757344
v 0.607432 -0.003000 1.753358
v 0.608247 -0.003000 1.749326
v 0.608860 -0.003000 1.745258
v 0.609269 -0.003000 1.741165
v 0.609474 -0.003000 1.737057
v 0.609474 -0.003000 1.732943
v 0.609269 -0.003000 1.728835
v 0.608860 -0.003000 1.724742
v 0.608247 -0.003000 1.720674
v 0.607432 -0.003000 1.716642
v 0.606417 -0.003000 1.712656
v 0.605204 -0.003000 1.708725
v 0.603797 -0.003000 1.704859
v 0.602199 -0.003000 1.701069
v 0.600414 -0.003000 1.697363
v 0.598447 -0.003000 1.693750
v 0.596302 -0.003000 1.690240
v 0.593985 -0.003000 1.686841
v 0.591501 -0.003000 1.683562
v 0.588857 -0.003000 1.680411
v 0.586059 -0.003000 1.677395
v 0.583114 -0.003000 1.674523
v 0.580030 -0.003000 1.671801
v 0.576814 -0.003000 1.669237
v 0.573474 -0.003000 1.666835
v 0.570018 -0.003000 1.664604
v 0.566456 -0.003000 1.662547
v 0.562795 -0.003000 1.660670
v 0.559046 -0.003000 1.658978
v 0.555217 -0.003000 1.657475
v 0.551317 -0.003000 1.656165
v 0.547357 -0.003000 1.655051
v 0.543347 -0.003000 1.654136
v 0.539296 -0.003000 1.653421
v 0.535214 -0.003000 1.652910
v 0.531112 -0.003000 1.652603
v 0.527000 -0.003000 1.855000
v 0.527000 0.009000 1.855000
v 0.532982 -0.003000 1.854851
v 0.538948 -0.003000 1.854404
v 0.544885 -0.003000 1.853660
v 0.550778 -0.003000 1.852621
v 0.556611 -0.003000 1.851289
v 0.562371 -0.003000 1.849669
v 0.568042 -0.003000 1.847763
v 0.573612 -0.003000 1.845577
v 0.579066 -0.003000 1.843116
v 0.584390 -0.003000 1.840387
v 0.589572 -0.003000 1.837395
v 0.594598 -0.003000 1.834149
v 0.599457 -0.003000 1.830656
v 0.604135 -0.003000 1.826925
v 0.608621 -0.003000 1.822966
v 0.612904 -0.003000 1.818788
v 0.616974 -0.003000 1.814402
v 0.620820 -0.003000 1.809819
v 0.624433 -0.003000 1.805049
v 0.627803 -0.003000 1.800106
v 0.630923 -0.003000 1.795000
v 0.633785 -0.003000 1.789745
v 0.636381 -0.003000 1.784354
v 0.638705 -0.003000 1.778841
v 0.640751 -0.003000 1.773218
v 0.642515 -0.003000 1.767501
v 0.643991 -0.003000 1.761703
v 0.645177 -0.003000 1.755838
v 0.646069 -0.003000 1.749921
v 0.646664 -0.003000 1.743968
v 0.646963 -0.003000 1.737992
v 0.646963 -0.003000 1.732008
v 0.646664 -0.003000 1.726032
v 0.646069 -0.003000 1.720079
v 0.645177 -0.003000 1.714162
v 0.643991 -0.003000 1.708297
v 0.642515 -0.003000 1.702499
v 0.640751 -0.003000 1.696782
v 0.638705 -0.003000 1.691159
v 0.636381 -0.003000 1.685646
v 0.633785 -0.003000 1.680255
v 0.630923 -0.003000 1.675000
v 0.627803 -0.003000 1.669894
v 0.624433 -0.003000 1.664951
v 0.620820 -0.003000 1.660181
v 0.616974 -0.003000 1.655598
v 0.612904 -0.003000 1.651212
v 0.608621 -0.003000 1.647034
v 0.604135 -0.003000 1.643075
v 0.599457 -0.003000 1.639344
v 0.594598 -0.003000 1.635851
v 0.589572 -0.003000 1.632605
v 0.584390 -0.003000 1.629613
v 0.579066 -0.003000 1.626884
v 0.573612 -0.003000 1.624423
v 0.568042 -0.003000 1.622237
v 0.562371 -0.003000 1.620331
v 0.556611 -0.003000 1.618711
v 0.550778 -0.003000 1.617379
v 0.544885 -0.003000 1.616340
v 0.538948 -0.003000 1.615596
v 0.532982 -0.003000 1.615149
v 0.527000 -0.003000 1.615000
v 0.527000 0.009000 1.615000
v 0.532982 0.009000 1.854851
v 0.538948 0.009000 1.854404
v 0.544885 0.009000 1.853660
v 0.550778 0.009000 1.852621
v 0.556611 0.009000 1.851289
v 0.562371 0.009000 1.849669
v 0.568042 0.009000 1.847763
v 0.573612 0.009000 1.845577
v 0.579066 0.009000 1.843116
v 0.584390 0.009000 1.840387
v 0.589572 0.009000 1.837395
v 0.594598 0.009000 1.834149
v 0.599457 0.009000 1.830656
v 0.604135 0.009000 1.826925
v 0.608621 0.009000 1.822966
v 0.612904 0.009000 1.818788
v 0.616974 0.009000 1.814402
v 0.620820 0.009000 1.809819
v 0.624433 0.009000 1.805049
v 0.627803 0.009000 1.800106
v 0.630923 0.009000 1.795000
v 0.633785 0.009000 1.789745
v 0.636381 0.009000 1.784354
v 0.638705 0.009000 1.778841
v 0.640751 0.009000 1.773218
v 0.642515 0.009000 1.767501
v 0.643991 0.009000 1.761703
v 0.645177 0.009000 1.755838
v 0.646069 0.009000 1.749921
v 0.646664 0.009000 1.743968
v 0.646963 0.009000 1.737992
v 0.646963 0.009000 1.732008
v 0.646664 0.009000 1.726032
v 0.646069 0.009000 1.720079
v 0.645177 0.009000 1.714162
v 0.643991 0.009000 1.708297
v 0.642515 0.009000 1.702499
v 0.640751 0.009000 1.696782
v 0.638705 0.009000 1.691159
v 0.636381 0.009000 1.685646
v 0.633785 0.009000 1.680255
v 0.630923 0.009000 1.675000
v 0.627803 0.009000 1.669894
v 0.624433 0.009000 1.664951
v 0.620820 0.009000 1.660181
v 0.616974 0.009000 1.655598
v 0.612904 0.009000 1.651212
v 0.608621 0.009000 1.647034
v 0.604135 0.009000 1.643075
v 0.599457 0.009000 1.639344
v 0.594598 0.009000 1.635851
v 0.589572 0.009000 1.632605
v 0.584390 0.009000 1.629613
v 0.579066 0.009000 1.626884
v 0.573612 0.009000 1.624423
v 0.568042 0.009000 1.622237
v 0.562371 0.009000 1.620331
v 0.556611 0.009000 1.618711
v 0.550778 0.009000 1.617379
v 0.544885 0.009000 1.616340
v 0.538948 0.009000 1.615596
v 0.532982 0.009000 1.615149
v 0.357000 0.009000 1.855000
v 0.527000 0.009000 1.855000
v 0.532982 0.009000 1.854851
v 0.538948 0.009000 1.854404
v 0.544885 0.009000 1.853660
v 0.550778 0.009000 1.852621
v 0.556611 0.009000 1.851289
v 0.562371 0.009000 1.849669
v 0.568042 0.009000 1.847763
v 0.573612 0.009000 1.845577
v 0.579066 0.009000 1.843116
v 0.584390 0.009000 1.840387
v 0.589572 0.009000 1.837395
v 0.594598 0.009000 1.834149
v 0.599457 0.009000 1.830656
v 0.604135 0.009000 1.826925
v 0.608621 0.009000 1.822966
v 0.612904 0.009000 1.818788
v 0.616974 0.009000 1.814402
v 0.620820 0.009000 1.809819
v 0.624433 0.009000 1.805049
v 0.627803 0.009000 1.800106
v 0.630923 0.009000 1.795000
v 0.633785 0.009000 1.789745
v 0.636381 0.009000 1.784354
v 0.638705 0.009000 1.778841
v 0.640751 0.009000 1.773218
v 0.642515 0.009000 1.767501
v 0.643991 0.009000 1.761703
v 0.645177 0.009000 1.755838
v 0.646069 0.009000 1.749921
v 0.646664 0.009000 1.743968
v 0.646963 0.009000 1.737992
v 0.646963 0.009000 1.732008
v 0.646664 0.009000 1.726032
v 0.646069 0.009000 1.720079
v 0.645177 0.009000 1.714162
v 0.643991 0.009000 1.708297
v 0.642515 0.009000 1.702499
v 0.640751 0.009000 1.696782
v 0.638705 0.009000 1.691159
v 0.636381 0.009000 1.685646
v 0.633785 0.009000 1.680255
v 0.630923 0.009000 1.675000
v 0.627803 0.009000 1.669894
v 0.624433 0.009000 1.664951
v 0.620820 0.009000 1.660181
v 0.616974 0.009000 1.655598
v 0.612904 0.009000 1.651212
v 0.608621 0.009000 1.647034
v 0.604135 0.009000 1.643075
v 0.599457 0.009000 1.639344
v 0.594598 0.009000 1.635851
v 0.589572 0.009000 1.632605
v 0.584390 0.009000 1.629613
v 0.579066 0.009000 1.626884
v 0.573612 0.009000 1.624423
v 0.568042 0.009000 1.622237
v 0.562371 0.009000 1.620331
v 0.556611 0.009000 1.618711
v 0.550778 0.009000 1.617379
v 0.544885 0.009000 1.616340
v 0.538948 0.009000 1.615596
v 0.532982 0.009000 1.615149
v 0.527000 0.009000 1.615000
v 0.357000 0.009000 1.615000
v 0.351018 0.009000 1.615149
v 0.345052 0.009000 1.615596
v 0.339115 0.009000 1.616340
v 0.333222 0.009000 1.617379
v 0.327389 0.009000 1.618711
v 0.321629 0.009000 1.620331
v 0.315958 0.009000 1.622237
v 0.310388 0.009000 1.624423
v 0.304934 0.009000 1.626884
v 0.299610 0.009000 1.629613
v 0.294428 0.009000 1.632605
v 0.289402 0.009000 1.635851
v 0.284543 0.009000 1.639344
v 0.279865 0.009000 1.643075
v 0.275379 0.009000 1.647034
v 0.271096 0.009000 1.651212
v 0.267026 0.009000 1.655598
v 0.263180 0.009000 1.660181
v 0.259567 0.009000 1.664951
v 0.256197 0.009000 1.669894
v 0.253077 0.009000 1.675000
v 0.250215 0.009000 1.680255
v 0.247619 0.009000 1.685646
v 0.245295 0.009000 1.691159
v 0.243249 0.009000 1.696782
v 0.241485 0.009000 1.702499
v 0.240009 0.009000 1.708297
v 0.238823 0.009000 1.714162
v 0.237931 0.009000 1.720079
v 0.237336 0.009000 1.726032
v 0.237037 0.009000 1.732008
v 0.237037 0.009000 1.737992
v 0.237336 0.009000 1.743968
v 0.237931 0.009000 1.749921
v 0.238823 0.009000 1.755838
v 0.240009 0.009000 1.761703
v 0.241485 0.009000 1.767501
v 0.243249 0.009000 1.773218
v 0.245295 0.009000 1.778841
v 0.247619 0.009000 1.784354
v 0.250215 0.009000 1.789745
v 0.253077 0.009000 1.795000
v 0.256197 0.009000 1.800106
v 0.259567 0.009000 1.805049
v 0.263180 0.009000 1.809819
v 0.267026 0.009000 1.814402
v 0.271096 0.009000 1.818788
v 0.275379 0.009000 1.822966
v 0.279865 0.009000 1.826925
v 0.284543 0.009000 1.830656
v 0.289402 0.009000 1.834149
v 0.294428 0.009000 1.837395
v 0.299610 0.009000 1.840387
v 0.304934 0.009000 1.843116
v 0.310388 0.009000 1.845577
v 0.315958 0.009000 1.847763
v 0.321629 0.009000 1.849669
v 0.327389 0.009000 1.851289
v 0.333222 0.009000 1.852621
v 0.339115 0.009000 1.853660
v 0.345052 0.009000 1.854404
v 0.351018 0.009000 1.854851
v 0.357000 0.009000 1.817500
v 0.527000 0.009000 1.817500
v 0.357000 0.009000 1.652500
v 0.352888 0.009000 1.652603
v 0.348786 0.009000 1.652910
v 0.344704 0.009000 1.653421
v 0.340653 0.009000 1.654136
v 0.336643 0.009000 1.655051
v 0.332683 0.009000 1.656165
v 0.328783 0.009000 1.657475
v 0.324954 0.009000 1.658978
v 0.321205 0.009000 1.660670
v 0.317544 0.009000 1.662547
v 0.313982 0.009000 1.664604
v 0.310526 0.009000 1.666835
v 0.307186 0.009000 1.669237
v 0.303970 0.009000 1.671801
v 0.300886 0.009000 1.674523
v 0.297941 0.009000 1.677395
v 0.295143 0.009000 1.680411
v 0.292499 0.009000 1.683562
v 0.290015 0.009000 1.686841
v 0.287698 0.009000 1.690240
v 0.285553 0.009000 1.693750
v 0.283586 0.009000 1.697363
v 0.281801 0.009000 1.701069
v 0.280203 0.009000 1.704859
v 0.278796 0.009000 1.708725
v 0.277583 0.009000 1.712656
v 0.276568 0.009000 1.716642
v 0.275753 0.009000 1.720674
v 0.275140 0.009000 1.724742
v 0.274731 0.009000 1.728835
v 0.274526 0.009000 1.732943
v 0.274526 0.009000 1.737057
v 0.274731 0.009000 1.741165
v 0.275140 0.009000 1.745258
v 0.275753 0.009000 1.749326
v 0.276568 0.009000 1.753358
v 0.277583 0.009000 1.757344
v 0.278796 0.009000 1.761275
v 0.280203 0.009000 1.765141
v 0.281801 0.009000 1.768931
v 0.283586 0.009000 1.772637
v 0.285553 0.009000 1.776250
v 0.287698 0.009000 1.779760
v 0.290015 0.009000 1.783159
v 0.292499 0.009000 1.786438
v 0.295143 0.009000 1.789589
v 0.297941 0.009000 1.792605
v 0.300886 0.009000 1.795477
v 0.303970 0.009000 1.798199
v 0.307186 0.009000 1.800763
v 0.310526 0.009000 1.803165
v 0.313982 0.009000 1.805396
v 0.317544 0.009000 1.807453
v 0.321205 0.009000 1.809330
v 0.324954 0.009000 1.811022
v 0.328783 0.009000 1.812525
v 0.332683 0.009000 1.813835
v 0.336643 0.009000 1.814949
v 0.340653 0.009000 1.815864
v 0.344704 0.009000 1.816579
v 0.348786 0.009000 1.817090
v 0.352888 0.009000 1.817397
v 0.527000 0.009000 1.652500
v 0.531112 0.009000 1.817397
v 0.535214 0.009000 1.817090
v 0.539296 0.009000 1.816579
v 0.543347 0.009000 1.815864
v 0.547357 0.009000 1.814949
v 0.551317 0.009000 1.813835
v 0.555217 0.009000 1.812525
v 0.559046 0.009000 1.811022
v 0.562795 0.009000 1.809330
v 0.566456 0.009000 1.807453
v 0.570018 0.009000 1.805396
v 0.573474 0.009000 1.803165
v 0.576814 0.009000 1.800763
v 0.580030 0.009000 1.798199
v 0.583114 0.009000 1.795477
v 0.586059 0.009000 1.792605
v 0.588857 0.009000 1.789589
v 0.591501 0.009000 1.786438
v 0.593985 0.009000 1.783159
v 0.596302 0.009000 1.779760
v 0.598447 0.009000 1.776250
v 0.600414 0.009000 1.772637
v 0.602199 0.009000 1.768931
v 0.603797 0.009000 1.765141
v 0.605204 0.009000 1.761275
v 0.606417 0.009000 1.757344
v 0.607432 0.009000 1.753358
v 0.608247 0.009000 1.749326
v 0.608860 0.009000 1.745258
v 0.609269 0.009000 1.741165
v 0.609474 0.009000 1.737057
v 0.609474 0.009000 1.732943
v 0.609269 0.009000 1.728835
v 0.608860 0.009000 1.724742
v 0.608247 0.009000 1.720674
v 0.607432 0.009000 1.716642
v 0.606417 0.009000 1.712656
v 0.605204 0.009000 1.708725
v 0.603797 0.009000 1.704859
v 0.602199 0.009000 1.701069
v 0.600414 0.009000 1.697363
v 0.598447 0.009000 1.693750
v 0.596302 0.009000 1.690240
v 0.593985 0.009000 1.686841
v 0.591501 0.009000 1.683562
v 0.588857 0.009000 1.680411
v 0.586059 0.009000 1.677395
v 0.583114 0.009000 1.674523
v 0.580030 0.009000 1.671801
v 0.576814 0.009000 1.669237
v 0.573474 0.009000 1.666835
v 0.570018 0.009000 1.664604
v 0.566456 0.009000 1.662547
v 0.562795 0.009000 1.660670
v 0.559046 0.009000 1.658978
v 0.555217 0.009000 1.657475
v 0.551317 0.009000 1.656165
v 0.547357 0.009000 1.655051
v 0.543347 0.009000 1.654136
v 0.539296 0.009000 1.653421
v 0.535214 0.009000 1.652910
v 0.531112 0.009000 1.652603
v 0.357000 -0.003000 1.615000
v 0.351018 -0.003000 1.615149
v 0.345052 -0.003000 1.615596
v 0.339115 -0.003000 1.616340
v 0.333222 -0.003000 1.617379
v 0.327389 -0.003000 1.618711
v 0.321629 -0.003000 1.620331
v 0.315958 -0.003000 1.622237
v 0.310388 -0.003000 1.624423
v 0.304934 -0.003000 1.626884
v 0.299610 -0.003000 1.629613
v 0.294428 -0.003000 1.632605
v 0.289402 -0.003000 1.635851
v 0.284543 -0.003000 1.639344
v 0.279865 -0.003000 1.643075
v 0.275379 -0.003000 1.647034
v 0.271096 -0.003000 1.651212
v 0.267026 -0.003000 1.655598
v 0.263180 -0.003000 1.660181
v 0.259567 -0.003000 1.664951
v 0.256197 -0.003000 1.669894
v 0.253077 -0.003000 1.675000
v 0.250215 -0.003000 1.680255
v 0.247619 -0.003000 1.685646
v 0.245295 -0.003000 1.691159
v 0.243249 -0.003000 1.696782
v 0.241485 -0.003000 1.702499
v 0.240009 -0.003000 1.708297
v 0.238823 -0.003000 1.714162
v 0.237931 -0.003000 1.720079
v 0.237336 -0.003000 1.726032
v 0.237037 -0.003000 1.732008
v 0.237037 -0.003000 1.737992
v 0.237336 -0.003000 1.743968
v 0.237931 -0.003000 1.749921
v 0.238823 -0.003000 1.755838
v 0.240009 -0.003000 1.761703
v 0.241485 -0.003000 1.767501
v 0.243249 -0.003000 1.773218
v 0.245295 -0.003000 1.778841
v 0.247619 -0.003000 1.784354
v 0.250215 -0.003000 1.789745
v 0.253077 -0.003000 1.795000
v 0.256197 -0.003000 1.800106
v 0.259567 -0.003000 1.805049
v 0.263180 -0.003000 1.809819
v 0.267026 -0.003000 1.814402
v 0.271096 -0.003000 1.818788
v 0.275379 -0.003000 1.822966
v 0.279865 -0.003000 1.826925
v 0.284543 -0.003000 1.830656
v 0.289402 -0.003000 1.834149
v 0.294428 -0.003000 1.837395
v 0.299610 -0.003000 1.840387
v 0.304934 -0.003000 1.843116
v 0.310388 -0.003000 1.845577
v 0.315958 -0.003000 1.847763
v 0.321629 -0.003000 1.849669
v 0.327389 -0.003000 1.851289
v 0.333222 -0.003000 1.852621
v 0.339115 -0.003000 1.853660
v 0.345052 -0.003000 1.854404
v 0.351018 -0.003000 1.854851
v 0.357000 -0.003000 1.855000
v 0.357000 0.009000 1.855000
v 0.357000 0.009000 1.615000
v 0.351018 0.009000 1.615149
v 0.345052 0.009000 1.615596
v 0.339115 0.009000 1.616340
v 0.333222 0.009000 1.617379
v 0.327389 0.009000 1.618711
v 0.321629 0.009000 1.620331
v 0.315958 0.009000 1.622237
v 0.310388 0.009000 1.624423
v 0.304934 0.009000 1.626884
v 0.299610 0.009000 1.629613
v 0.294428 0.009000 1.632605
v 0.289402 0.009000 1.635851
v 0.284543 0.009000 1.639344
v 0.279865 0.009000 1.643075
v 0.275379 0.009000 1.647034
v 0.271096 0.009000 1.651212
v 0.267026 0.009000 1.655598
v 0.263180 0.009000 1.660181
v 0.259567 0.009000 1.664951
v 0.256197 0.009000 1.669894
v 0.253077 0.009000 1.675000
v 0.250215 0.009000 1.680255
v 0.247619 0.009000 1.685646
v 0.245295 0.009000 1.691159
v 0.243249 0.009000 1.696782
v 0.241485 0.009000 1.702499
v 0.240009 0.009000 1.708297
v 0.238823 0.009000 1.714162
v 0.237931 0.009000 1.720079
v 0.237336 0.009000 1.726032
v 0.237037 0.009000 1.732008
v 0.237037 0.009000 1.737992
v 0.237336 0.009000 1.743968
v 0.237931 0.009000 1.749921
v 0.238823 0.009000 1.755838
v 0.240009 0.009000 1.761703
v 0.241485 0.009000 1.767501
v 0.243249 0.009000 1.773218
v 0.245295 0.009000 1.778841
v 0.247619 0.009000 1.784354
v 0.250215 0.009000 1.789745
v 0.253077 0.009000 1.795000
v 0.256197 0.009000 1.800106
v 0.259567 0.009000 1.805049
v 0.263180 0.009000 1.809819
v 0.267026 0.009000 1.814402
v 0.271096 0.009000 1.818788
v 0.275379 0.009000 1.822966
v 0.279865 0.009000 1.826925
v 0.284543 0.009000 1.830656
v 0.289402 0.009000 1.834149
v 0.294428 0.009000 1.837395
v 0.299610 0.009000 1.840387
v 0.304934 0.009000 1.843116
v 0.310388 0.009000 1.845577
v 0.315958 0.009000 1.847763
v 0.321629 0.009000 1.849669
v 0.327389 0.009000 1.851289
v 0.333222 0.009000 1.852621
v 0.339115 0.009000 1.853660
v 0.345052 0.009000 1.854404
v 0.351018 0.009000 1.854851
v 0.527000 -0.003000 1.615000
v 0.527000 0.009000 1.615000
v 0.357000 -0.003000 1.615000
v 0.357000 0.009000 1.615000
v 0.357000 0.009000 1.817500
v 0.357000 -0.003000 1.817500
v 0.527000 -0.003000 1.817500
v 0.527000 0.009000 1.817500
v 0.527000 -0.003000 1.817500
v 0.527000 0.009000 1.817500
v 0.531112 -0.003000 1.817397
v 0.535214 -0.003000 1.817090
v 0.539296 -0.003000 1.816579
v 0.543347 -0.003000 1.815864
v 0.547357 -0.003000 1.814949
v 0.551317 -0.003000 1.813835
v 0.555217 -0.003000 1.812525
v 0.559046 -0.003000 1.811022
v 0.562795 -0.003000 1.809330
v 0.566456 -0.003000 1.807453
v 0.570018 -0.003000 1.805396
v 0.573474 -0.003000 1.803165
v 0.576814 -0.003000 1.800763
v 0.580030 -0.003000 1.798199
v 0.583114 -0.003000 1.795477
v 0.586059 -0.003000 1.792605
v 0.588857 -0.003000 1.789589
v 0.591501 -0.003000 1.786438
v 0.593985 -0.003000 1.783159
v 0.596302 -0.003000 1.779760
v 0.598447 -0.003000 1.776250
v 0.600414 -0.003000 1.772637
v 0.602199 -0.003000 1.768931
v 0.603797 -0.003000 1.765141
v 0.605204 -0.003000 1.761275
v 0.606417 -0.003000 1.757344
v 0.607432 -0.003000 1.753358
v 0.608247 -0.003000 1.749326
v 0.608860 -0.003000 1.745258
v 0.609269 -0.003000 1.741165
v 0.609474 -0.003000 1.737057
v 0.609474 -0.003000 1.732943
v 0.609269 -0.003000 1.728835
v 0.608860 -0.003000 1.724742
v 0.608247 -0.003000 1.720674
v 0.607432 -0.003000 1.716642
v 0.606417 -0.003000 1.712656
v 0.605204 -0.003000 1.708725
v 0.603797 -0.003000 1.704859
v 0.602199 -0.003000 1.701069
v 0.600414 -0.003000 1.697363
v 0.598447 -0.003000 1.693750
v 0.596302 -0.003000 1.690240
v 0.593985 -0.003000 1.686841
v 0.591501 -0.003000 1.683562
v 0.588857 -0.003000 1.680411
v 0.586059 -0.003000 1.677395
v 0.583114 -0.003000 1.674523
v 0.580030 -0.003000 1.671801
v 0.576814 -0.003000 1.669237
v 0.573474 -0.003000 1.666835
v 0.570018 -0.003000 1.664604
v 0.566456 -0.003000 1.662547
v 0.562795 -0.003000 1.660670
v 0.559046 -0.003000 1.658978
v 0.555217 -0.003000 1.657475
v 0.551317 -0.003000 1.656165
v 0.547357 -0.003000 1.655051
v 0.543347 -0.003000 1.654136
v 0.539296 -0.003000 1.653421
v 0.535214 -0.003000 1.652910
v 0.531112 -0.003000 1.652603
v 0.527000 -0.003000 1.652500
v 0.527000 0.009000 1.652500
v 0.531112 0.009000 1.817397
v 0.535214 0.009000 1.817090
v 0.539296 0.009000 1.816579
v 0.543347 0.009000 1.815864
v 0.547357 0.009000 1.814949
v 0.551317 0.009000 1.813835
v 0.555217 0.009000 1.812525
v 0.559046 0.009000 1.811022
v 0.562795 0.009000 1.809330
v 0.566456 0.009000 1.807453
v 0.570018 0.009000 1.805396
v 0.573474 0.009000 1.803165
v 0.576814 0.009000 1.800763
v 0.580030 0.009000 1.798199
v 0.583114 0.009000 1.795477
v 0.586059 0.009000 1.792605
v 0.588857 0.009000 1.789589
v 0.591501 0.009000 1.786438
v 0.593985 0.009000 1.783159
v 0.596302 0.009000 1.779760
v 0.598447 0.009000 1.776250
v 0.600414 0.009000 1.772637
v 0.602199 0.009000 1.768931
v 0.603797 0.009000 1.765141
v 0.605204 0.009000 1.761275
v 0.606417 0.009000 1.757344
v 0.607432 0.009000 1.753358
v 0.608247 0.009000 1.749326
v 0.608860 0.009000 1.745258
v 0.609269 0.009000 1.741165
v 0.609474 0.009000 1.737057
v 0.609474 0.009000 1.732943
v 0.609269 0.009000 1.728835
v 0.608860 0.009000 1.724742
v 0.608247 0.009000 1.720674
v 0.607432 0.009000 1.716642
v 0.606417 0.009000 1.712656
v 0.605204 0.009000 1.708725
v 0.603797 0.009000 1.704859
v 0.602199 0.009000 1.701069
v 0.600414 0.009000 1.697363
v 0.598447 0.009000 1.693750
v 0.596302 0.009000 1.690240
v 0.593985 0.009000 1.686841
v 0.591501 0.009000 1.683562
v 0.588857 0.009000 1.680411
v 0.586059 0.009000 1.677395
v 0.583114 0.009000 1.674523
v 0.580030 0.009000 1.671801
v 0.576814 0.009000 1.669237
v 0.573474 0.009000 1.666835
v 0.570018 0.009000 1.664604
v 0.566456 0.009000 1.662547
v 0.562795 0.009000 1.660670
v 0.559046 0.009000 1.658978
v 0.555217 0.009000 1.657475
v 0.551317 0.009000 1.656165
v 0.547357 0.009000 1.655051
v 0.543347 0.009000 1.654136
v 0.539296 0.009000 1.653421
v 0.535214 0.009000 1.652910
v 0.531112 0.009000 1.652603
v 0.527000 -0.003000 1.652500
v 0.527000 0.009000 1.652500
v 0.357000 -0.003000 1.652500
v 0.357000 0.009000 1.652500
v 0.357000 0.009000 1.652500
v 0.357000 -0.003000 1.652500
v 0.352888 -0.003000 1.652603
v 0.348786 -0.003000 1.652910
v 0.344704 -0.003000 1.653421
v 0.340653 -0.003000 1.654136
v 0.336643 -0.003000 1.655051
v 0.332683 -0.003000 1.656165
v 0.328783 -0.003000 1.657475
v 0.324954 -0.003000 1.658978
v 0.321205 -0.003000 1.660670
v 0.317544 -0.003000 1.662547
v 0.313982 -0.003000 1.664604
v 0.310526 -0.003000 1.666835
v 0.307186 -0.003000 1.669237
v 0.303970 -0.003000 1.671801
v 0.300886 -0.003000 1.674523
v 0.297941 -0.003000 1.677395
v 0.295143 -0.003000 1.680411
v 0.292499 -0.003000 1.683562
v 0.290015 -0.003000 1.686841
v 0.287698 -0.003000 1.690240
v 0.285553 -0.003000 1.693750
v 0.283586 -0.003000 1.697363
v 0.281801 -0.003000 1.701069
v 0.280203 -0.003000 1.704859
v 0.278796 -0.003000 1.708725
v 0.277583 -0.003000 1.712656
v 0.276568 -0.003000 1.716642
v 0.275753 -0.003000 1.720674
v 0.275140 -0.003000 1.724742
v 0.274731 -0.003000 1.728835
v 0.274526 -0.003000 1.732943
v 0.274526 -0.003000 1.737057
v 0.274731 -0.003000 1.741165
v 0.275140 -0.003000 1.745258
v 0.275753 -0.003000 1.749326
v 0.276568 -0.003000 1.753358
v 0.277583 -0.003000 1.757344
v 0.278796 -0.003000 1.761275
v 0.280203 -0.003000 1.765141
v 0.281801 -0.003000 1.768931
v 0.283586 -0.003000 1.772637
v 0.285553 -0.003000 1.776250
v 0.287698 -0.003000 1.779760
v 0.290015 -0.003000 1.783159
v 0.292499 -0.003000 1.786438
v 0.295143 -0.003000 1.789589
v 0.297941 -0.003000 1.792605
v 0.300886 -0.003000 1.795477
v 0.303970 -0.003000 1.798199
v 0.307186 -0.003000 1.800763
v 0.310526 -0.003000 1.803165
v 0.313982 -0.003000 1.805396
v 0.317544 -0.003000 1.807453
v 0.321205 -0.003000 1.809330
v 0.324954 -0.003000 1.811022
v 0.328783 -0.003000 1.812525
v 0.332683 -0.003000 1.813835
v 0.336643 -0.003000 1.814949
v 0.340653 -0.003000 1.815864
v 0.344704 -0.003000 1.816579
v 0.348786 -0.003000 1.817090
v 0.352888 -0.003000 1.817397
v 0.357000 -0.003000 1.817500
v 0.357000 0.009000 1.817500
v 0.352888 0.009000 1.652603
v 0.348786 0.009000 1.652910
v 0.344704 0.009000 1.653421
v 0.340653 0.009000 1.654136
v 0.336643 0.009000 1.655051
v 0.332683 0.009000 1.656165
v 0.328783 0.009000 1.657475
v 0.324954 0.009000 1.658978
v 0.321205 0.009000 1.660670
v 0.317544 0.009000 1.662547
v 0.313982 0.009000 1.664604
v 0.310526 0.009000 1.666835
v 0.307186 0.009000 1.669237
v 0.303970 0.009000 1.671801
v 0.300886 0.009000 1.674523
v 0.297941 0.009000 1.677395
v 0.295143 0.009000 1.680411
v 0.292499 0.009000 1.683562
v 0.290015 0.009000 1.686841
v 0.287698 0.009000 1.690240
v 0.285553 0.009000 1.693750
v 0.283586 0.009000 1.697363
v 0.281801 0.009000 1.701069
v 0.280203 0.009000 1.704859
v 0.278796 0.009000 1.708725
v 0.277583 0.009000 1.712656
v 0.276568 0.009000 1.716642
v 0.275753 0.009000 1.720674
v 0.275140 0.009000 1.724742
v 0.274731 0.009000 1.728835
v 0.274526 0.009000 1.732943
v 0.274526 0.009000 1.737057
v 0.274731 0.009000 1.741165
v 0.275140 0.009000 1.745258
v 0.275753 0.009000 1.749326
v 0.276568 0.009000 1.753358
v 0.277583 0.009000 1.757344
v 0.278796 0.009000 1.761275
v 0.280203 0.009000 1.765141
v 0.281801 0.009000 1.768931
v 0.283586 0.009000 1.772637
v 0.285553 0.009000 1.776250
v 0.287698 0.009000 1.779760
v 0.290015 0.009000 1.783159
v 0.292499 0.009000 1.786438
v 0.295143 0.009000 1.789589
v 0.297941 0.009000 1.792605
v 0.300886 0.009000 1.795477
v 0.303970 0.009000 1.798199
v 0.307186 0.009000 1.800763
v 0.310526 0.009000 1.803165
v 0.313982 0.009000 1.805396
v 0.317544 0.009000 1.807453
v 0.321205 0.009000 1.809330
v 0.324954 0.009000 1.811022
v 0.328783 0.009000 1.812525
v 0.332683 0.009000 1.813835
v 0.336643 0.009000 1.814949
v 0.340653 0.009000 1.815864
v 0.344704 0.009000 1.816579
v 0.348786 0.009000 1.817090
v 0.352888 0.009000 1.817397
f 3 1 2
f 3 4 1
f 150 151 86
f 150 86 85
f 152 86 151
f 152 87 86
f 149 150 85
f 149 85 84
f 153 87 152
f 153 88 87
f 148 149 84
f 148 84 83
f 154 88 153
f 154 89 88
f 147 148 83
f 147 83 82
f 155 89 154
f 155 90 89
f 146 147 82
f 146 82 81
f 156 91 90
f 156 90 155
f 145 146 81
f 145 81 80
f 157 92 91
f 157 91 156
f 144 145 80
f 144 80 79
f 158 93 92
f 158 92 157
f 143 144 79
f 143 79 78
f 159 93 158
f 159 94 93
f 142 143 78
f 142 78 77
f 160 94 159
f 160 95 94
f 141 142 77
f 141 77 76
f 161 95 160
f 161 96 95
f 140 141 76
f 140 76 75
f 162 96 161
f 162 97 96
f 139 75 74
f 139 140 75
f 163 97 162
f 163 98 97
f 138 74 73
f 138 139 74
f 164 98 163
f 164 99 98
f 137 73 72
f 137 138 73
f 165 99 164
f 165 100 99
f 136 72 71
f 136 137 72
f 166 100 165
f 166 101 100
f 135 71 70
f 135 136 71
f 167 101 166
f 167 102 101
f 168 102 167
f 168 103 102
f 169 103 168
f 169 104 103
f 170 104 169
f 170 105 104
f 171 106 105
f 171 105 170
f 172 107 106
f 172 106 171
f 173 108 107
f 173 107 172
f 174 109 108
f 174 108 173
f 175 110 109
f 175 109 174
f 176 111 110
f 176 110 175
f 177 112 111
f 177 111 176
f 178 113 112
f 178 112 177
f 179 114 113
f 179 113 178
f 180 115 114
f 180 114 179
f 181 116 115
f 181 115 180
f 182 116 181
f 182 117 116
f 118 117 182
f 118 182 183
f 119 118 183
f 119 183 184
f 120 119 184
f 120 184 185
f 121 120 185
f 121 185 186
f 122 121 186
f 122 186 187
f 123 122 187
f 123 187 188
f 124 123 188
f 124 188 189
f 125 124 189
f 125 189 190
f 126 125 190
f 126 190 191
f 127 191 192
f 127 126 191
f 128 127 192
f 128 192 193
f 198 135 70
f 198 70 69
f 260 198 69
f 260 69 68
f 129 128 193
f 129 193 194
f 259 260 68
f 259 68 67
f 258 259 67
f 258 67 66
f 130 194 195
f 130 129 194
f 257 258 66
f 257 66 65
f 131 130 195
f 131 195 196
f 256 257 65
f 256 65 64
f 132 131 196
f 132 196 197
f 255 256 64
f 255 64 63
f 5 132 197
f 5 197 133
f 254 255 63
f 254 63 62
f 253 254 62
f 253 62 61
f 252 253 61
f 252 61 60
f 251 60 59
f 251 252 60
f 250 59 58
f 250 251 59
f 249 58 57
f 249 250 58
f 248 57 56
f 248 249 57
f 247 56 55
f 247 248 56
f 54 247 55
f 246 247 54
f 53 245 246
f 53 246 54
f 52 244 245
f 52 245 53
f 51 243 244
f 51 244 52
f 50 242 243
f 50 243 51
f 49 241 242
f 49 242 50
f 48 240 241
f 48 241 49
f 47 239 240
f 47 240 48
f 46 239 47
f 46 238 239
f 45 238 46
f 45 237 238
f 44 237 45
f 44 236 237
f 43 236 44
f 43 235 236
f 42 234 235
f 42 235 43
f 41 233 234
f 41 234 42
f 40 231 232
f 40 232 233
f 40 233 41
f 39 231 40
f 38 230 231
f 38 231 39
f 6 5 133
f 6 133 134
f 37 229 230
f 37 230 38
f 7 6 134
f 7 134 199
f 36 229 37
f 36 228 229
f 8 7 199
f 8 199 200
f 8 200 201
f 35 228 36
f 35 227 228
f 9 8 201
f 34 227 35
f 34 226 227
f 10 9 201
f 10 201 202
f 33 226 34
f 33 225 226
f 11 202 203
f 11 10 202
f 32 223 224
f 32 224 225
f 32 225 33
f 12 11 203
f 12 203 204
f 31 223 32
f 13 12 204
f 13 204 205
f 30 222 223
f 30 223 31
f 14 206 207
f 14 13 205
f 14 205 206
f 29 221 222
f 29 222 30
f 15 14 207
f 28 220 221
f 28 221 29
f 16 207 208
f 16 15 207
f 27 220 28
f 27 218 219
f 27 219 220
f 17 208 209
f 17 16 208
f 26 218 27
f 18 209 210
f 18 17 209
f 25 218 26
f 25 217 218
f 19 210 211
f 19 18 210
f 24 216 217
f 24 217 25
f 20 211 212
f 20 19 211
f 23 215 216
f 23 216 24
f 21 212 213
f 21 20 212
f 22 213 214
f 22 214 215
f 22 21 213
f 22 215 23
f 327 262 261
f 327 261 263
f 328 263 264
f 328 327 263
f 329 264 265
f 329 328 264
f 330 265 266
f 330 329 265
f 331 266 267
f 331 330 266
f 332 267 268
f 332 331 267
f 333 268 269
f 333 332 268
f 334 269 270
f 334 333 269
f 335 270 271
f 335 334 270
f 336 271 272
f 336 335 271
f 337 272 273
f 337 336 272
f 338 273 274
f 338 337 273
f 339 274 275
f 339 338 274
f 340 275 276
f 340 339 275
f 341 276 277
f 341 340 276
f 342 277 278
f 342 341 277
f 343 278 279
f 343 342 278
f 344 343 279
f 344 279 280
f 345 344 280
f 345 280 281
f 346 345 281
f 346 281 282
f 347 346 282
f 347 282 283
f 348 347 283
f 348 283 284
f 349 284 285
f 349 348 284
f 350 285 286
f 350 349 285
f 351 286 287
f 351 350 286
f 352 287 288
f 352 351 287
f 353 288 289
f 353 352 288
f 354 289 290
f 354 353 289
f 355 290 291
f 355 354 290
f 356 291 292
f 356 355 291
f 357 292 293
f 357 356 292
f 358 293 294
f 358 357 293
f 359 294 295
f 359 358 294
f 360 295 296
f 360 359 295
f 361 296 297
f 361 360 296
f 362 297 298
f 362 361 297
f 363 298 299
f 363 362 298
f 364 299 300
f 364 363 299
f 365 300 301
f 365 364 300
f 366 301 302
f 366 365 301
f 367 302 303
f 367 366 302
f 368 303 304
f 368 367 303
f 369 368 304
f 369 304 305
f 370 369 305
f 370 305 306
f 371 370 306
f 371 306 307
f 372 371 307
f 372 307 308
f 373 372 308
f 373 308 309
f 374 373 309
f 374 309 310
f 375 374 310
f 375 310 311
f 376 375 311
f 376 311 312
f 377 376 312
f 377 312 313
f 378 377 313
f 378 313 314
f 379 378 314
f 379 314 315
f 380 379 315
f 380 315 316
f 381 380 316
f 381 316 317
f 382 381 317
f 382 317 318
f 382 318 319
f 383 382 319
f 384 319 320
f 384 383 319
f 385 320 321
f 385 321 322
f 385 384 320
f 386 385 322
f 387 322 323
f 387 386 322
f 388 323 324
f 388 387 323
f 326 324 325
f 326 388 324
f 534 470 535
f 534 469 470
f 536 535 470
f 536 470 471
f 533 469 534
f 533 468 469
f 537 536 471
f 537 471 472
f 532 468 533
f 532 467 468
f 538 537 472
f 538 472 473
f 531 467 532
f 531 466 467
f 539 538 473
f 539 473 474
f 530 466 531
f 530 465 466
f 540 474 475
f 540 539 474
f 529 465 530
f 529 464 465
f 541 475 476
f 541 540 475
f 528 464 529
f 528 463 464
f 542 476 477
f 542 541 476
f 527 463 528
f 527 462 463
f 543 542 477
f 543 477 478
f 526 462 527
f 526 461 462
f 544 543 478
f 544 478 479
f 525 461 526
f 525 460 461
f 545 544 479
f 545 479 480
f 524 460 525
f 524 459 460
f 546 545 480
f 546 480 481
f 523 458 459
f 523 459 524
f 547 546 481
f 547 481 482
f 522 457 458
f 522 458 523
f 548 547 482
f 548 482 483
f 521 456 457
f 521 457 522
f 549 548 483
f 549 483 484
f 520 455 456
f 520 456 521
f 550 549 484
f 550 484 485
f 519 454 455
f 519 455 520
f 551 550 485
f 551 485 486
f 552 551 486
f 552 486 487
f 553 552 487
f 553 487 488
f 554 553 488
f 554 488 489
f 555 489 490
f 555 554 489
f 556 490 491
f 556 555 490
f 557 491 492
f 557 556 491
f 558 492 493
f 558 557 492
f 559 493 494
f 559 558 493
f 560 494 495
f 560 559 494
f 561 495 496
f 561 560 495
f 562 496 497
f 562 561 496
f 563 497 498
f 563 562 497
f 564 498 499
f 564 563 498
f 565 499 500
f 565 564 499
f 566 565 500
f 566 500 501
f 502 566 501
f 502 567 566
f 503 567 502
f 503 568 567
f 504 568 503
f 504 569 568
f 505 569 504
f 505 570 569
f 506 570 505
f 506 571 570
f 507 571 506
f 507 572 571
f 508 572 507
f 508 573 572
f 509 573 508
f 509 574 573
f 510 574 509
f 510 575 574
f 511 576 575
f 511 575 510
f 512 576 511
f 512 577 576
f 582 454 519
f 582 453 454
f 644 453 582
f 644 452 453
f 513 577 512
f 513 578 577
f 643 452 644
f 643 451 452
f 642 451 643
f 642 450 451
f 514 579 578
f 514 578 513
f 641 450 642
f 641 449 450
f 515 579 514
f 515 580 579
f 640 449 641
f 640 448 449
f 516 580 515
f 516 581 580
f 639 448 640
f 639 447 448
f 389 581 516
f 389 517 581
f 638 447 639
f 638 446 447
f 637 446 638
f 637 445 446
f 636 445 637
f 636 444 445
f 635 443 444
f 635 444 636
f 634 442 443
f 634 443 635
f 633 441 442
f 633 442 634
f 632 440 441
f 632 441 633
f 631 439 440
f 631 440 632
f 438 439 631
f 630 438 631
f 437 630 629
f 437 438 630
f 436 629 628
f 436 437 629
f 435 628 627
f 435 436 628
f 434 627 626
f 434 435 627
f 433 626 625
f 433 434 626
f 432 625 624
f 432 433 625
f 431 624 623
f 431 432 624
f 430 431 623
f 430 623 622
f 429 430 622
f 429 622 621
f 428 429 621
f 428 621 620
f 427 428 620
f 427 620 619
f 426 619 618
f 426 427 619
f 425 618 617
f 425 426 618
f 424 616 615
f 424 617 616
f 424 425 617
f 423 424 615
f 422 615 614
f 422 423 615
f 390 517 389
f 390 518 517
f 421 614 613
f 421 422 614
f 391 518 390
f 391 583 518
f 420 421 613
f 420 613 612
f 392 583 391
f 392 584 583
f 392 585 584
f 419 420 612
f 419 612 611
f 393 585 392
f 418 419 611
f 418 611 610
f 394 585 393
f 394 586 585
f 417 418 610
f 417 610 609
f 395 587 586
f 395 586 394
f 416 608 607
f 416 609 608
f 416 417 609
f 396 587 395
f 396 588 587
f 415 416 607
f 397 588 396
f 397 589 588
f 414 607 606
f 414 415 607
f 398 591 590
f 398 589 397
f 398 590 589
f 413 606 605
f 413 414 606
f 399 591 398
f 412 605 604
f 412 413 605
f 400 592 591
f 400 591 399
f 411 412 604
f 411 603 602
f 411 604 603
f 401 593 592
f 401 592 400
f 410 411 602
f 402 594 593
f 402 593 401
f 409 410 602
f 409 602 601
f 403 595 594
f 403 594 402
f 408 601 600
f 408 409 601
f 404 596 595
f 404 595 403
f 407 600 599
f 407 408 600
f 405 597 596
f 405 596 404
f 406 598 597
f 406 599 598
f 406 597 405
f 406 407 599
f 711 645 646
f 711 710 645
f 712 646 647
f 712 711 646
f 713 647 648
f 713 712 647
f 714 648 649
f 714 713 648
f 715 649 650
f 715 714 649
f 716 650 651
f 716 715 650
f 717 651 652
f 717 716 651
f 718 652 653
f 718 717 652
f 719 653 654
f 719 718 653
f 720 654 655
f 720 719 654
f 721 655 656
f 721 720 655
f 722 656 657
f 722 721 656
f 723 657 658
f 723 722 657
f 724 658 659
f 724 723 658
f 725 659 660
f 725 724 659
f 726 660 661
f 726 725 660
f 727 661 662
f 727 726 661
f 728 727 662
f 728 662 663
f 729 728 663
f 729 663 664
f 730 729 664
f 730 664 665
f 731 730 665
f 731 665 666
f 732 731 666
f 732 666 667
f 733 667 668
f 733 732 667
f 734 668 669
f 734 733 668
f 735 669 670
f 735 734 669
f 736 670 671
f 736 735 670
f 737 671 672
f 737 736 671
f 738 672 673
f 738 737 672
f 739 673 674
f 739 738 673
f 740 674 675
f 740 739 674
f 741 675 676
f 741 740 675
f 742 676 677
f 742 741 676
f 743 677 678
f 743 742 677
f 744 678 679
f 744 743 678
f 745 679 680
f 745 744 679
f 746 680 681
f 746 745 680
f 747 681 682
f 747 746 681
f 748 682 683
f 748 747 682
f 749 683 684
f 749 748 683
f 750 684 685
f 750 749 684
f 751 685 686
f 751 750 685
f 752 686 687
f 752 751 686
f 753 752 687
f 753 687 688
f 754 753 688
f 754 688 689
f 755 754 689
f 755 689 690
f 756 755 690
f 756 690 691
f 757 756 691
f 757 691 692
f 758 757 692
f 758 692 693
f 759 758 693
f 759 693 694
f 760 759 694
f 760 694 695
f 761 760 695
f 761 695 696
f 762 761 696
f 762 696 697
f 763 762 697
f 763 697 698
f 764 763 698
f 764 698 699
f 765 764 699
f 765 699 700
f 766 765 700
f 766 700 701
f 766 701 702
f 767 766 702
f 768 702 703
f 768 767 702
f 769 703 704
f 769 704 705
f 769 768 703
f 770 769 705
f 771 705 706
f 771 770 705
f 772 706 707
f 772 771 706
f 709 707 708
f 709 772 707
f 776 774 773
f 776 773 775
f 780 778 777
f 780 779 778
f 847 781 782
f 847 783 781
f 848 784 783
f 848 783 847
f 849 785 784
f 849 784 848
f 850 786 785
f 850 785 849
f 851 787 786
f 851 786 850
f 852 788 787
f 852 787 851
f 853 789 788
f 853 788 852
f 854 790 789
f 854 789 853
f 855 791 790
f 855 790 854
f 856 792 791
f 856 791 855
f 857 793 792
f 857 792 856
f 858 794 793
f 858 793 857
f 859 795 794
f 859 794 858
f 860 796 795
f 860 795 859
f 861 797 796
f 861 796 860
f 862 798 797
f 862 797 861
f 863 799 798
f 863 798 862
f 864 799 863
f 864 800 799
f 865 800 864
f 865 801 800
f 866 801 865
f 866 802 801
f 867 802 866
f 867 803 802
f 868 803 867
f 868 804 803
f 869 805 804
f 869 804 868
f 870 806 805
f 870 805 869
f 871 807 806
f 871 806 870
f 872 808 807
f 872 807 871
f 873 809 808
f 873 808 872
f 874 810 809
f 874 809 873
f 875 811 810
f 875 810 874
f 876 812 811
f 876 811 875
f 877 813 812
f 877 812 876
f 878 814 813
f 878 813 877
f 879 815 814
f 879 814 878
f 880 816 815
f 880 815 879
f 881 817 816
f 881 816 880
f 882 818 817
f 882 817 881
f 883 819 818
f 883 818 882
f 884 820 819
f 884 819 883
f 885 821 820
f 885 820 884
f 886 822 821
f 886 821 885
f 887 823 822
f 887 822 886
f 888 824 823
f 888 823 887
f 889 824 888
f 889 825 824
f 890 825 889
f 890 826 825
f 891 826 890
f 891 827 826
f 892 827 891
f 892 828 827
f 893 828 892
f 893 829 828
f 894 829 893
f 894 830 829
f 895 830 894
f 895 831 830
f 896 831 895
f 896 832 831
f 897 832 896
f 897 833 832
f 898 833 897
f 898 834 833
f 899 834 898
f 899 835 834
f 900 835 899
f 900 836 835
f 901 836 900
f 901 837 836
f 902 837 901
f 902 838 837
f 903 839 838
f 903 838 902
f 904 840 839
f 904 839 903
f 905 841 840
f 905 840 904
f 906 842 841
f 906 841 905
f 907 843 842
f 907 842 906
f 908 844 843
f 908 843 907
f 846 845 844
f 846 844 908
f 912 909 910
f 912 911 909
f 979 914 913
f 979 915 914
f 980 916 915
f 980 915 979
f 981 917 916
f 981 916 980
f 982 918 917
f 982 917 981
f 983 919 918
f 983 918 982
f 984 920 919
f 984 919 983
f 985 921 920
f 985 920 984
f 986 922 921
f 986 921 985
f 987 923 922
f 987 922 986
f 988 924 923
f 988 923 987
f 989 925 924
f 989 924 988
f 990 926 925
f 990 925 989
f 991 927 926
f 991 926 990
f 992 928 927
f 992 927 991
f 993 929 928
f 993 928 992
f 994 930 929
f 994 929 993
f 995 931 930
f 995 930 994
f 996 931 995
f 996 932 931
f 997 932 996
f 997 933 932
f 998 933 997
f 998 934 933
f 999 934 998
f 999 935 934
f 1000 935 999
f 1000 936 935
f 1001 937 936
f 1001 936 1000
f 1002 938 937
f 1002 937 1001
f 1003 939 938
f 1003 938 1002
f 1004 940 939
f 1004 939 1003
f 1005 941 940
f 1005 940 1004
f 1006 942 941
f 1006 941 1005
f 1007 943 942
f 1007 942 1006
f 1008 944 943
f 1008 943 1007
f 1009 945 944
f 1009 944 1008
f 1010 946 945
f 1010 945 1009
f 1011 947 946
f 1011 946 1010
f 1012 948 947
f 1012 947 1011
f 1013 949 948
f 1013 948 1012
f 1014 950 949
f 1014 949 1013
f 1015 951 950
f 1015 950 1014
f 1016 952 951
f 1016 951 1015
f 1017 953 952
f 1017 952 1016
f 1018 954 953
f 1018 953 1017
f 1019 955 954
f 1019 954 1018
f 1020 956 955
f 1020 955 1019
f 1021 956 1020
f 1021 957 956
f 1022 957 1021
f 1022 958 957
f 1023 958 1022
f 1023 959 958
f 1024 959 1023
f 1024 960 959
f 1025 960 1024
f 1025 961 960
f 1026 961 1025
f 1026 962 961
f 1027 962 1026
f 1027 963 962
f 1028 963 1027
f 1028 964 963
f 1029 964 1028
f 1029 965 964
f 1030 965 1029
f 1030 966 965
f 1031 966 1030
f 1031 967 966
f 1032 967 1031
f 1032 968 967
f 1033 968 1032
f 1033 969 968
f 1034 969 1033
f 1034 970 969
f 1035 971 970
f 1035 970 1034
f 1036 972 971
f 1036 971 1035
f 1037 973 972
f 1037 972 1036
f 1038 974 973
f 1038 973 1037
f 1039 975 974
f 1039 974 1038
f 1040 976 975
f 1040 975 1039
f 978 977 976
f 978 976 1040
