o mesh
v -0.013207 -0.013778 0.000000
v -0.012790 -0.013882 0.001945
v -0.012146 -0.014481 0.003733
v -0.011329 -0.015528 0.005219
v -0.010404 -0.016937 0.006281
v -0.009446 -0.018594 0.006835
v -0.008533 -0.020365 0.006835
v -0.007739 -0.022106 0.006281
v -0.007129 -0.023677 0.005219
v -0.006750 -0.02495 0.003733
v -0.006635 -0.025822 0.001945
v -0.006793 -0.026222 0.000000
v -0.007210 -0.026118 -0.001945
v -0.007854 -0.025519 -0.003733
v -0.008671 -0.024472 -0.005219
v -0.009596 -0.023063 -0.006281
v -0.010554 -0.021406 -0.006835
v -0.011467 -0.019635 -0.006835
v -0.012261 -0.017894 -0.006281
v -0.012871 -0.016323 -0.005219
v -0.013250 -0.01505 -0.003733
v -0.013365 -0.014178 -0.001945
v -0.014808 -0.014604 0.000300
v -0.014378 -0.014701 0.002243
v -0.013718 -0.015292 0.004028
v -0.012881 -0.016328 0.005509
v -0.011935 -0.017726 0.006568
v -0.010956 -0.019372 0.007117
v -0.010025 -0.021133 0.007114
v -0.009215 -0.022867 0.006557
v -0.008594 -0.024432 0.005492
v -0.008211 -0.025703 0.004006
v -0.008097 -0.026575 0.002218
v -0.008262 -0.026979 0.000274
v -0.008692 -0.026882 -0.001669
v -0.009352 -0.026291 -0.003453
v -0.010190 -0.025254 -0.004935
v -0.011136 -0.023857 -0.005993
v -0.012114 -0.02221 -0.006543
v -0.013046 -0.020449 -0.006539
v -0.013855 -0.018716 -0.005983
v -0.014476 -0.01715 -0.004918
v -0.014859 -0.01588 -0.003432
v -0.014973 -0.015007 -0.001644
v -0.016427 -0.015483 0.000629
v -0.015974 -0.015569 0.002567
v -0.015283 -0.016143 0.004345
v -0.014410 -0.01716 0.005820
v -0.013426 -0.018537 0.006870
v -0.012410 -0.020163 0.007412
v -0.011444 -0.021906 0.007401
v -0.010608 -0.023625 0.006839
v -0.009967 -0.02518 0.005770
v -0.009576 -0.026445 0.004282
v -0.009464 -0.027319 0.002495
v -0.009642 -0.027729 0.000553
v -0.010095 -0.027644 -0.001385
v -0.010785 -0.027069 -0.003163
v -0.011658 -0.026052 -0.004638
v -0.012643 -0.024675 -0.005688
v -0.013659 -0.023049 -0.006230
v -0.014624 -0.021306 -0.006219
v -0.015461 -0.019588 -0.005657
v -0.016101 -0.018033 -0.004588
v -0.016493 -0.016767 -0.003100
v -0.016604 -0.015894 -0.001313
v -0.017990 -0.01637 0.000966
v -0.017520 -0.016445 0.002901
v -0.016805 -0.017006 0.004674
v -0.015904 -0.018008 0.006142
v -0.014890 -0.019368 0.007186
v -0.013845 -0.020978 0.007722
v -0.012853 -0.022705 0.007705
v -0.011994 -0.024412 0.007138
v -0.011340 -0.025958 0.006066
v -0.010941 -0.02722 0.004576
v -0.010831 -0.028094 0.002789
v -0.011019 -0.028511 0.000850
v -0.011490 -0.028435 -0.001085
v -0.012204 -0.027874 -0.002858
v -0.013105 -0.026873 -0.004326
v -0.014119 -0.025512 -0.005370
v -0.015165 -0.023903 -0.005906
v -0.016157 -0.022175 -0.005889
v -0.017015 -0.020469 -0.005322
v -0.017670 -0.018922 -0.004250
v -0.018068 -0.017661 -0.002760
v -0.018178 -0.016786 -0.000973
v -0.019506 -0.017257 0.001308
v -0.019023 -0.017325 0.003240
v -0.018291 -0.017876 0.005009
v -0.017370 -0.018866 0.006473
v -0.016334 -0.020214 0.007512
v -0.015268 -0.021811 0.008043
v -0.014257 -0.023528 0.008022
v -0.013383 -0.025225 0.007451
v -0.012718 -0.026766 0.006377
v -0.012315 -0.028024 0.004886
v -0.012206 -0.028899 0.003099
v -0.012402 -0.02932 0.001162
v -0.012884 -0.029252 -0.000770
v -0.013616 -0.0287 -0.002540
v -0.014537 -0.027711 -0.004003
v -0.015573 -0.026363 -0.005042
v -0.016639 -0.024766 -0.005573
v -0.017650 -0.023049 -0.005552
v -0.018524 -0.021352 -0.004981
v -0.019189 -0.019811 -0.003907
v -0.019592 -0.018553 -0.002416
v -0.019701 -0.017677 -0.000630
v -0.020980 -0.018139 0.001651
v -0.020489 -0.018202 0.003581
v -0.019748 -0.018748 0.005348
v -0.018815 -0.01973 0.006809
v -0.017766 -0.02107 0.007845
v -0.016687 -0.02266 0.008373
v -0.015665 -0.02437 0.008349
v -0.014782 -0.026062 0.007776
v -0.014110 -0.027598 0.006701
v -0.013704 -0.028855 0.005209
v -0.013596 -0.029731 0.003423
v -0.013796 -0.030154 0.001486
v -0.014286 -0.03009 -0.000444
v -0.015028 -0.029545 -0.002211
v -0.015961 -0.028562 -0.003672
v -0.017010 -0.027222 -0.004708
v -0.018089 -0.025632 -0.005236
v -0.019111 -0.023922 -0.005212
v -0.019994 -0.022231 -0.004640
v -0.020666 -0.020694 -0.003564
v -0.021072 -0.019437 -0.002072
v -0.021179 -0.018562 -0.000286
v -0.022420 -0.019009 0.001991
v -0.021927 -0.019071 0.003921
v -0.021182 -0.019615 0.005687
v -0.020245 -0.020595 0.007147
v -0.019193 -0.021932 0.008182
v -0.018109 -0.023519 0.008709
v -0.017083 -0.025227 0.008684
v -0.016197 -0.026917 0.008111
v -0.015523 -0.028452 0.007034
v -0.015116 -0.029709 0.005542
v -0.015009 -0.030584 0.003756
v -0.015210 -0.031008 0.001820
v -0.015703 -0.030946 -0.000110
v -0.016448 -0.030403 -0.001876
v -0.017385 -0.029423 -0.003336
v -0.018438 -0.028085 -0.004371
v -0.019521 -0.026498 -0.004898
v -0.020547 -0.02479 -0.004873
v -0.021433 -0.0231 -0.004300
v -0.022107 -0.021565 -0.003224
v -0.022514 -0.020309 -0.001732
v -0.022621 -0.019433 0.000055
v -0.023834 -0.019864 0.002325
v -0.023344 -0.019927 0.004255
v -0.022602 -0.020473 0.006022
v -0.021669 -0.021455 0.007483
v -0.020621 -0.022795 0.008519
v -0.019541 -0.024385 0.009047
v -0.018519 -0.026095 0.009023
v -0.017636 -0.027787 0.008450
v -0.016965 -0.029323 0.007374
v -0.016558 -0.03058 0.005883
v -0.016451 -0.031456 0.004096
v -0.016650 -0.031879 0.002160
v -0.017141 -0.031815 0.000230
v -0.017883 -0.03127 -0.001537
v -0.018815 -0.030287 -0.002998
v -0.019864 -0.028947 -0.004034
v -0.020943 -0.027357 -0.004562
v -0.021966 -0.025647 -0.004539
v -0.022848 -0.023956 -0.003966
v -0.023520 -0.022419 -0.002890
v -0.023926 -0.021162 -0.001398
v -0.024034 -0.020287 0.000388
v -0.025229 -0.020697 0.002649
v -0.024746 -0.020766 0.004581
v -0.024014 -0.021317 0.006350
v -0.023093 -0.022307 0.007814
v -0.022058 -0.023655 0.008853
v -0.020991 -0.025252 0.009384
v -0.019980 -0.026969 0.009363
v -0.019106 -0.028666 0.008792
v -0.018441 -0.030206 0.007718
v -0.018038 -0.031465 0.006227
v -0.017930 -0.03234 0.004440
v -0.018125 -0.03276 0.002502
v -0.018608 -0.032692 0.000571
v -0.019339 -0.032141 -0.001199
v -0.020260 -0.031151 -0.002662
v -0.021296 -0.029803 -0.003701
v -0.022362 -0.028206 -0.004232
v -0.023373 -0.026489 -0.004211
v -0.024247 -0.024792 -0.003640
v -0.024912 -0.023252 -0.002566
v -0.025315 -0.021993 -0.001075
v -0.025424 -0.021118 0.000712
v -0.026611 -0.021507 0.002962
v -0.026140 -0.021582 0.004896
v -0.025426 -0.022144 0.006669
v -0.024525 -0.023145 0.008137
v -0.023510 -0.024506 0.009181
v -0.022465 -0.026115 0.009716
v -0.021473 -0.027843 0.009700
v -0.020615 -0.029549 0.009132
v -0.019960 -0.031096 0.008060
v -0.019562 -0.032357 0.006570
v -0.019452 -0.033231 0.004783
v -0.019640 -0.033648 0.002844
v -0.020111 -0.033572 0.000909
v -0.020825 -0.033011 -0.000864
v -0.021726 -0.032009 -0.002332
v -0.022740 -0.030649 -0.003376
v -0.023786 -0.029039 -0.003911
v -0.024778 -0.027311 -0.003894
v -0.025636 -0.025605 -0.003327
v -0.026291 -0.024059 -0.002255
v -0.026689 -0.022797 -0.000765
v -0.026799 -0.021923 0.001022
v -0.027988 -0.022288 0.003259
v -0.027535 -0.022374 0.005197
v -0.026844 -0.022949 0.006975
v -0.025971 -0.023966 0.008449
v -0.024987 -0.025343 0.009500
v -0.023971 -0.026969 0.010041
v -0.023005 -0.028712 0.010030
v -0.022168 -0.030431 0.009467
v -0.021529 -0.031986 0.008398
v -0.021137 -0.033251 0.006910
v -0.021026 -0.034124 0.005122
v -0.021204 -0.034534 0.003181
v -0.021657 -0.034449 0.001242
v -0.022348 -0.033874 -0.000536
v -0.023221 -0.032856 -0.002010
v -0.024205 -0.031479 -0.003060
v -0.025221 -0.029853 -0.003602
v -0.026187 -0.02811 -0.003590
v -0.027023 -0.026392 -0.003028
v -0.027663 -0.024837 -0.001959
v -0.028055 -0.023571 -0.000470
v -0.028166 -0.022698 0.001317
v -0.029368 -0.023038 0.003539
v -0.028937 -0.023136 0.005482
v -0.028277 -0.023728 0.007266
v -0.027439 -0.024765 0.008747
v -0.026493 -0.026163 0.009805
v -0.025515 -0.02781 0.010354
v -0.024583 -0.029571 0.010350
v -0.023774 -0.031304 0.009792
v -0.023153 -0.032869 0.008727
v -0.022771 -0.034139 0.007240
v -0.022657 -0.035011 0.005452
v -0.022823 -0.035414 0.003508
v -0.023253 -0.035316 0.001565
v -0.023913 -0.034724 -0.000219
v -0.024751 -0.033687 -0.001700
v -0.025697 -0.032289 -0.002758
v -0.026675 -0.030643 -0.003307
v -0.027607 -0.028881 -0.003303
v -0.028416 -0.027148 -0.002745
v -0.029037 -0.025583 -0.001680
v -0.029419 -0.024313 -0.000193
v -0.029533 -0.023441 0.001595
v -0.030758 -0.023755 0.003800
v -0.030355 -0.023867 0.005748
v -0.029731 -0.024478 0.007539
v -0.028937 -0.025538 0.009028
v -0.028037 -0.02696 0.010095
v -0.027104 -0.02863 0.010652
v -0.026214 -0.030413 0.010655
v -0.025439 -0.032163 0.010103
v -0.024841 -0.03374 0.009042
v -0.024469 -0.035015 0.007557
v -0.024353 -0.035885 0.005768
v -0.024503 -0.03628 0.003821
v -0.024906 -0.036167 0.001873
v -0.025530 -0.035557 0.000082
v -0.026323 -0.034497 -0.001407
v -0.027223 -0.033075 -0.002473
v -0.028156 -0.031405 -0.003030
v -0.029046 -0.029622 -0.003033
v -0.029822 -0.027872 -0.002482
v -0.030420 -0.026295 -0.001420
v -0.030792 -0.02502 0.000065
v -0.030907 -0.02415 0.001853
v -0.032166 -0.024436 0.004041
v -0.031795 -0.024564 0.005994
v -0.031215 -0.025196 0.007792
v -0.030471 -0.02628 0.009289
v -0.029626 -0.027729 0.010364
v -0.028747 -0.029425 0.010930
v -0.027905 -0.031231 0.010941
v -0.027168 -0.033 0.010395
v -0.026597 -0.034589 0.009338
v -0.026238 -0.03587 0.007855
v -0.026119 -0.036739 0.006066
v -0.026251 -0.037124 0.004115
v -0.026622 -0.036996 0.002162
v -0.027203 -0.036364 0.000364
v -0.027946 -0.03528 -0.001133
v -0.028791 -0.033831 -0.002208
v -0.029671 -0.032135 -0.002774
v -0.030512 -0.030329 -0.002785
v -0.031249 -0.02856 -0.002239
v -0.031820 -0.026971 -0.001182
v -0.032179 -0.02569 0.000301
v -0.032298 -0.024822 0.002090
v -0.033603 -0.025079 0.004258
v -0.033268 -0.025224 0.006216
v -0.032736 -0.025878 0.008022
v -0.032050 -0.026989 0.009527
v -0.031266 -0.028466 0.010611
v -0.030448 -0.030189 0.011185
v -0.029661 -0.032019 0.011204
v -0.028969 -0.033808 0.010664
v -0.028428 -0.035411 0.009612
v -0.028083 -0.036698 0.008130
v -0.027961 -0.037564 0.006340
v -0.028072 -0.03794 0.004387
v -0.028407 -0.037795 0.002428
v -0.028939 -0.037141 0.000623
v -0.029624 -0.03603 -0.000883
v -0.030408 -0.034554 -0.001967
v -0.031227 -0.03283 -0.002541
v -0.032014 -0.031 -0.002559
v -0.032706 -0.029211 -0.002020
v -0.033246 -0.027608 -0.000967
v -0.033591 -0.026322 0.000514
v -0.033713 -0.025455 0.002304
v -0.035075 -0.025683 0.004450
v -0.034781 -0.025845 0.006414
v -0.034303 -0.026522 0.008226
v -0.033681 -0.027659 0.009739
v -0.032966 -0.029164 0.010831
v -0.032214 -0.030915 0.011414
v -0.031488 -0.03277 0.011439
v -0.030846 -0.034579 0.010906
v -0.030339 -0.036196 0.009857
v -0.030010 -0.037488 0.008377
v -0.029884 -0.038353 0.006586
v -0.029972 -0.038719 0.004629
v -0.030267 -0.038557 0.002666
v -0.030744 -0.03788 0.000854
v -0.031366 -0.036743 -0.000660
v -0.032081 -0.035238 -0.001752
v -0.032833 -0.033487 -0.002334
v -0.033559 -0.031632 -0.002360
v -0.034201 -0.029823 -0.001827
v -0.034708 -0.028206 -0.000777
v -0.035038 -0.026914 0.000702
v -0.035163 -0.026049 0.002493
v -0.036595 -0.026246 0.004615
v -0.036344 -0.026425 0.006583
v -0.035925 -0.027125 0.008402
v -0.035373 -0.028288 0.009922
v -0.034731 -0.029821 0.011021
v -0.034053 -0.031599 0.011611
v -0.033393 -0.033478 0.011643
v -0.032804 -0.035307 0.011115
v -0.032334 -0.036936 0.010069
v -0.032021 -0.038235 0.008590
v -0.031891 -0.039097 0.006799
v -0.031955 -0.039453 0.004840
v -0.032206 -0.039274 0.002871
v -0.032624 -0.038575 0.001053
v -0.033177 -0.037412 -0.000467
v -0.033818 -0.035879 -0.001567
v -0.034496 -0.034101 -0.002156
v -0.035157 -0.032221 -0.002188
v -0.035746 -0.030393 -0.001660
v -0.036215 -0.028763 -0.000614
v -0.036528 -0.027465 0.000864
v -0.036658 -0.026602 0.002656
v -0.038171 -0.026766 0.004751
v -0.037967 -0.026961 0.006724
v -0.037611 -0.027682 0.008547
v -0.037132 -0.02887 0.010073
v -0.036570 -0.030429 0.011178
v -0.035969 -0.032233 0.011774
v -0.035379 -0.034136 0.011811
v -0.034847 -0.035983 0.011287
v -0.034417 -0.037625 0.010244
v -0.034122 -0.038929 0.008766
v -0.033988 -0.039789 0.006974
v -0.034024 -0.040136 0.005012
v -0.034229 -0.039941 0.003040
v -0.034585 -0.03922 0.001217
v -0.035063 -0.038032 -0.000309
v -0.035626 -0.036473 -0.001415
v -0.036226 -0.034669 -0.002010
v -0.036816 -0.032766 -0.002047
v -0.037348 -0.030919 -0.001523
v -0.037779 -0.029277 -0.000480
v -0.038073 -0.027973 0.000997
v -0.038208 -0.027113 0.002790
v -0.039792 -0.027235 0.004856
v -0.039643 -0.027447 0.006831
v -0.039360 -0.028189 0.008659
v -0.038968 -0.029403 0.010189
v -0.038496 -0.030989 0.011300
v -0.037985 -0.032818 0.011900
v -0.037475 -0.034744 0.011941
v -0.037007 -0.036609 0.011419
v -0.036620 -0.038263 0.010378
v -0.036345 -0.039572 0.008901
v -0.036203 -0.040429 0.007108
v -0.036208 -0.040765 0.005144
v -0.036357 -0.040553 0.003169
v -0.036640 -0.039811 0.001341
v -0.037032 -0.038597 -0.000189
v -0.037504 -0.037011 -0.001300
v -0.038015 -0.035182 -0.001900
v -0.038525 -0.033256 -0.001941
v -0.038993 -0.031391 -0.001419
v -0.039380 -0.029737 -0.000378
v -0.039655 -0.028428 0.001099
v -0.039797 -0.027571 0.002892
v -0.042436 -0.02789 0.004958
v -0.042333 -0.028114 0.006935
v -0.042112 -0.028872 0.008764
v -0.041791 -0.030103 0.010297
v -0.041394 -0.031708 0.011410
v -0.040955 -0.033556 0.012011
v -0.040510 -0.035497 0.012054
v -0.040093 -0.037375 0.011534
v -0.039739 -0.039037 0.010493
v -0.039477 -0.040348 0.009016
v -0.039328 -0.041203 0.007223
v -0.039303 -0.041531 0.005258
v -0.039406 -0.041307 0.003281
v -0.039627 -0.040549 0.001452
v -0.039948 -0.039317 -0.000081
v -0.040345 -0.037713 -0.001194
v -0.040783 -0.035865 -0.001796
v -0.041229 -0.033923 -0.001838
v -0.041646 -0.032046 -0.001318
v -0.042000 -0.030384 -0.000278
v -0.042262 -0.029073 0.001199
v -0.042411 -0.028218 0.002993
v -0.045277 -0.028491 0.005002
v -0.045220 -0.028725 0.006980
v -0.045059 -0.029497 0.008810
v -0.044807 -0.030744 0.010343
v -0.044483 -0.032364 0.011456
v -0.044115 -0.034227 0.012059
v -0.043731 -0.036182 0.012102
v -0.043363 -0.03807 0.011582
v -0.043041 -0.039738 0.010541
v -0.042791 -0.041051 0.009064
v -0.042633 -0.041903 0.007270
v -0.042580 -0.042225 0.005304
v -0.042637 -0.041991 0.003327
v -0.042798 -0.041219 0.001497
v -0.043050 -0.039973 -0.000037
v -0.043374 -0.038352 -0.001150
v -0.043743 -0.036489 -0.001752
v -0.044126 -0.034534 -0.001795
v -0.044494 -0.032647 -0.001275
v -0.044816 -0.030978 -0.000235
v -0.045066 -0.029665 0.001243
v -0.045224 -0.028813 0.003037
v -0.048316 -0.029042 0.004992
v -0.048299 -0.029284 0.006969
v -0.048189 -0.030066 0.008799
v -0.047996 -0.031324 0.010332
v -0.047735 -0.032956 0.011444
v -0.047427 -0.03483 0.012046
v -0.047097 -0.036794 0.012089
v -0.046772 -0.03869 0.011568
v -0.046478 -0.040363 0.010527
v -0.046239 -0.041678 0.009049
v -0.046074 -0.042529 0.007255
v -0.045998 -0.042846 0.005290
v -0.046015 -0.042604 0.003312
v -0.046124 -0.041822 0.001483
v -0.046318 -0.040564 -0.000050
v -0.046579 -0.038932 -0.001163
v -0.046887 -0.037058 -0.001765
v -0.047217 -0.035094 -0.001807
v -0.047542 -0.033198 -0.001287
v -0.047836 -0.031525 -0.000246
v -0.048075 -0.03021 0.001232
v -0.048239 -0.029359 0.003026
v -0.051527 -0.029542 0.004930
v -0.051544 -0.029789 0.006907
v -0.051479 -0.030578 0.008735
v -0.051337 -0.031844 0.010267
v -0.051130 -0.033485 0.011378
v -0.050875 -0.035367 0.011979
v -0.050592 -0.037339 0.012020
v -0.050305 -0.039241 0.011498
v -0.050036 -0.040917 0.010456
v -0.049807 -0.042234 0.008978
v -0.049638 -0.043083 0.007184
v -0.049541 -0.043397 0.005219
v -0.049524 -0.043149 0.003242
v -0.049589 -0.042361 0.001414
v -0.049731 -0.041094 -0.000118
v -0.049938 -0.039454 -0.001229
v -0.050193 -0.037571 -0.001830
v -0.050476 -0.035599 -0.001871
v -0.050763 -0.033698 -0.001350
v -0.051032 -0.032021 -0.000308
v -0.051261 -0.030705 0.001170
v -0.051430 -0.029855 0.002965
v -0.054885 -0.029987 0.004820
v -0.054931 -0.030239 0.006796
v -0.054904 -0.031033 0.008623
v -0.054808 -0.032306 0.010153
v -0.054649 -0.033953 0.011263
v -0.054441 -0.035842 0.011861
v -0.054200 -0.037819 0.011901
v -0.053946 -0.039725 0.011378
v -0.053700 -0.041405 0.010335
v -0.053481 -0.042722 0.008857
v -0.053308 -0.043571 0.007063
v -0.053194 -0.043882 0.005098
v -0.053148 -0.04363 0.003122
v -0.053175 -0.042836 0.001295
v -0.053271 -0.041564 -0.000235
v -0.053430 -0.039917 -0.001345
v -0.053638 -0.038028 -0.001944
v -0.053879 -0.03605 -0.001983
v -0.054133 -0.034145 -0.001460
v -0.054379 -0.032465 -0.000417
v -0.054598 -0.031147 0.001061
v -0.054771 -0.030298 0.002855
v -0.058366 -0.030379 0.004666
v -0.058437 -0.030634 0.006641
v -0.058444 -0.031432 0.008467
v -0.058388 -0.032709 0.009995
v -0.058272 -0.034361 0.011102
v -0.058105 -0.036255 0.011699
v -0.057903 -0.038237 0.011737
v -0.057679 -0.040146 0.011212
v -0.057454 -0.041828 0.010168
v -0.057245 -0.043146 0.008689
v -0.057069 -0.043995 0.006895
v -0.056940 -0.044304 0.004931
v -0.056869 -0.044049 0.002956
v -0.056861 -0.043251 0.001131
v -0.056918 -0.041974 -0.000398
v -0.057034 -0.040322 -0.001505
v -0.057200 -0.038428 -0.002102
v -0.057403 -0.036446 -0.002139
v -0.057626 -0.034537 -0.001615
v -0.057852 -0.032855 -0.000571
v -0.058061 -0.031537 0.000908
v -0.058237 -0.030688 0.002702
v -0.061945 -0.030717 0.004473
v -0.062038 -0.030974 0.006446
v -0.062076 -0.031775 0.008270
v -0.062056 -0.033055 0.009797
v -0.061978 -0.034711 0.010902
v -0.061850 -0.036609 0.011496
v -0.061682 -0.038594 0.011532
v -0.061487 -0.040505 0.011006
v -0.061281 -0.042189 0.009961
v -0.061082 -0.043508 0.008481
v -0.060904 -0.044356 0.006687
v -0.060762 -0.044664 0.004724
v -0.060669 -0.044407 0.002750
v -0.060631 -0.043606 0.000926
v -0.060652 -0.042326 -0.000600
v -0.060729 -0.04067 -0.001705
v -0.060857 -0.038772 -0.002300
v -0.061026 -0.036787 -0.002336
v -0.061221 -0.034875 -0.001809
v -0.061426 -0.033192 -0.000764
v -0.061626 -0.031872 0.000715
v -0.061804 -0.031024 0.002510
v -0.065601 -0.031 0.004244
v -0.065714 -0.031259 0.006216
v -0.065779 -0.032062 0.008038
v -0.065791 -0.033345 0.009563
v -0.065749 -0.035004 0.010665
v -0.065656 -0.036904 0.011258
v -0.065519 -0.038892 0.011291
v -0.065351 -0.040805 0.010763
v -0.065164 -0.042491 0.009717
v -0.064973 -0.04381 0.008237
v -0.064795 -0.044658 0.006442
v -0.064643 -0.044965 0.004480
v -0.064530 -0.044706 0.002507
v -0.064465 -0.043903 0.000685
v -0.064453 -0.04262 -0.000839
v -0.064495 -0.040961 -0.001942
v -0.064588 -0.039061 -0.002534
v -0.064724 -0.037074 -0.002568
v -0.064893 -0.03516 -0.002040
v -0.065080 -0.033475 -0.000993
v -0.065270 -0.032155 0.000487
v -0.065449 -0.031307 0.002281
v -0.069310 -0.03123 0.003984
v -0.069441 -0.03149 0.005955
v -0.069531 -0.032295 0.007775
v -0.069572 -0.03358 0.009297
v -0.069563 -0.035241 0.010398
v -0.069502 -0.037143 0.010988
v -0.069396 -0.039132 0.011019
v -0.069252 -0.041048 0.010489
v -0.069083 -0.042734 0.009442
v -0.068902 -0.044054 0.007961
v -0.068724 -0.044902 0.006166
v -0.068563 -0.045208 0.004204
v -0.068432 -0.044948 0.002233
v -0.068343 -0.044143 0.000413
v -0.068301 -0.042858 -0.001109
v -0.068311 -0.041197 -0.002210
v -0.068371 -0.039295 -0.002800
v -0.068477 -0.037306 -0.002831
v -0.068621 -0.03539 -0.002301
v -0.068790 -0.033704 -0.001254
v -0.068971 -0.032384 0.000228
v -0.069149 -0.031536 0.002022
v -0.073051 -0.031407 0.003697
v -0.073197 -0.031667 0.005667
v -0.073310 -0.032474 0.007485
v -0.073379 -0.03376 0.009005
v -0.073399 -0.035422 0.010103
v -0.073370 -0.037326 0.010691
v -0.073292 -0.039317 0.010720
v -0.073172 -0.041233 0.010188
v -0.073021 -0.04292 0.009139
v -0.072850 -0.044241 0.007657
v -0.072673 -0.045089 0.005863
v -0.072504 -0.045395 0.003901
v -0.072358 -0.045134 0.001931
v -0.072245 -0.044328 0.000113
v -0.072176 -0.043041 -0.001407
v -0.072156 -0.041379 -0.002505
v -0.072185 -0.039475 -0.003092
v -0.072263 -0.037485 -0.003122
v -0.072383 -0.035568 -0.002590
v -0.072534 -0.033881 -0.001541
v -0.072705 -0.03256 -0.000059
v -0.072882 -0.031713 0.001735
v -0.076801 -0.031531 0.003388
v -0.076962 -0.031793 0.005356
v -0.077095 -0.0326 0.007173
v -0.077190 -0.033887 0.008691
v -0.077239 -0.03555 0.009787
v -0.077239 -0.037455 0.010372
v -0.077188 -0.039446 0.010398
v -0.077092 -0.041364 0.009865
v -0.076958 -0.043051 0.008814
v -0.076797 -0.044372 0.007331
v -0.076622 -0.04522 0.005537
v -0.076448 -0.045526 0.003576
v -0.076287 -0.045264 0.001607
v -0.076154 -0.044457 -0.000210
v -0.076059 -0.04317 -0.001727
v -0.076010 -0.041507 -0.002823
v -0.076010 -0.039602 -0.003408
v -0.076060 -0.03761 -0.003435
v -0.076156 -0.035693 -0.002901
v -0.076290 -0.034006 -0.001851
v -0.076451 -0.032685 -0.000368
v -0.076626 -0.031837 0.001427
v -0.080539 -0.031604 0.003061
v -0.080712 -0.031866 0.005028
v -0.080865 -0.032673 0.006843
v -0.080984 -0.033961 0.008359
v -0.081061 -0.035625 0.009452
v -0.081089 -0.03753 0.010035
v -0.081065 -0.039523 0.010059
v -0.080993 -0.04144 0.009523
v -0.080876 -0.043128 0.008471
v -0.080726 -0.044449 0.006987
v -0.080554 -0.045297 0.005192
v -0.080374 -0.045602 0.003232
v -0.080201 -0.045341 0.001264
v -0.080048 -0.044533 -0.000551
v -0.079929 -0.043246 -0.002067
v -0.079852 -0.041582 -0.003160
v -0.079824 -0.039676 -0.003742
v -0.079848 -0.037684 -0.003766
v -0.079921 -0.035767 -0.003231
v -0.080037 -0.034079 -0.002178
v -0.080187 -0.032758 -0.000695
v -0.080359 -0.03191 0.001100
v -0.084242 -0.031627 0.002720
v -0.084427 -0.031889 0.004687
v -0.084598 -0.032696 0.006500
v -0.084741 -0.033984 0.008013
v -0.084844 -0.035648 0.009104
v -0.084900 -0.037554 0.009684
v -0.084903 -0.039546 0.009706
v -0.084854 -0.041464 0.009168
v -0.084756 -0.043152 0.008114
v -0.084617 -0.044473 0.006629
v -0.084449 -0.045321 0.004834
v -0.084265 -0.045626 0.002874
v -0.084080 -0.045364 0.000907
v -0.083910 -0.044557 -0.000906
v -0.083767 -0.043269 -0.002420
v -0.083663 -0.041605 -0.003510
v -0.083608 -0.039699 -0.004090
v -0.083605 -0.037707 -0.004112
v -0.083654 -0.035789 -0.003574
v -0.083752 -0.034101 -0.002520
v -0.083891 -0.03278 -0.001035
v -0.084059 -0.031932 0.000760
v -0.087890 -0.0316 0.002371
v -0.088085 -0.031862 0.004336
v -0.088273 -0.032669 0.006148
v -0.088439 -0.033957 0.007659
v -0.088568 -0.035621 0.008747
v -0.088652 -0.037526 0.009325
v -0.088682 -0.039518 0.009344
v -0.088656 -0.041436 0.008803
v -0.088577 -0.043124 0.007748
v -0.088451 -0.044445 0.006262
v -0.088288 -0.045293 0.004466
v -0.088101 -0.045598 0.002506
v -0.087906 -0.045336 0.000540
v -0.087718 -0.044529 -0.001271
v -0.087553 -0.043241 -0.002783
v -0.087423 -0.041577 -0.003871
v -0.087340 -0.039672 -0.004448
v -0.087310 -0.03768 -0.004467
v -0.087335 -0.035762 -0.003927
v -0.087414 -0.034074 -0.002871
v -0.087540 -0.032753 -0.001385
v -0.087703 -0.031905 0.000411
v -0.091459 -0.031525 0.002017
v -0.091663 -0.031786 0.003982
v -0.091868 -0.032593 0.005792
v -0.092056 -0.033881 0.007301
v -0.092212 -0.035544 0.008386
v -0.092323 -0.037449 0.008961
v -0.092381 -0.03944 0.008977
v -0.092381 -0.041357 0.008434
v -0.092322 -0.043045 0.007376
v -0.092209 -0.044366 0.005889
v -0.092053 -0.045213 0.004093
v -0.091864 -0.045518 0.002133
v -0.091660 -0.045257 0.000168
v -0.091455 -0.04445 -0.001642
v -0.091267 -0.043162 -0.003151
v -0.091111 -0.041499 -0.004236
v -0.091000 -0.039594 -0.004811
v -0.090942 -0.037603 -0.004827
v -0.090943 -0.035686 -0.004284
v -0.091001 -0.033998 -0.003226
v -0.091114 -0.032677 -0.001739
v -0.091270 -0.03183 0.000057
v -0.094927 -0.031402 0.001664
v -0.095141 -0.031663 0.003627
v -0.095361 -0.03247 0.005436
v -0.095572 -0.033757 0.006942
v -0.095754 -0.035419 0.008025
v -0.095895 -0.037323 0.008597
v -0.095981 -0.039313 0.008610
v -0.096007 -0.041229 0.008065
v -0.095970 -0.042916 0.007004
v -0.095873 -0.044236 0.005515
v -0.095724 -0.045083 0.003718
v -0.095535 -0.045388 0.001758
v -0.095322 -0.045127 -0.000205
v -0.095101 -0.044321 -0.002014
v -0.094891 -0.043034 -0.003520
v -0.094708 -0.041371 -0.004603
v -0.094568 -0.039468 -0.005174
v -0.094481 -0.037477 -0.005188
v -0.094455 -0.035561 -0.004642
v -0.094492 -0.033875 -0.003582
v -0.094589 -0.032554 -0.002093
v -0.094738 -0.031707 -0.000296
v -0.098272 -0.031233 0.001315
v -0.098494 -0.031494 0.003278
v -0.098731 -0.0323 0.005085
v -0.098964 -0.033586 0.006589
v -0.099174 -0.035247 0.007669
v -0.099345 -0.037149 0.008237
v -0.099462 -0.039138 0.008247
v -0.099516 -0.041052 0.007699
v -0.099503 -0.042738 0.006636
v -0.099423 -0.044057 0.005145
v -0.099284 -0.044904 0.003347
v -0.099096 -0.045209 0.001387
v -0.098874 -0.044948 -0.000575
v -0.098638 -0.044142 -0.002382
v -0.098405 -0.042857 -0.003886
v -0.098194 -0.041195 -0.004966
v -0.098023 -0.039293 -0.005534
v -0.097906 -0.037304 -0.005545
v -0.097852 -0.03539 -0.004996
v -0.097865 -0.033704 -0.003934
v -0.097945 -0.032385 -0.002443
v -0.098084 -0.031538 -0.000645
v -0.101460 -0.031021 0.000978
v -0.101692 -0.031281 0.002939
v -0.101950 -0.032086 0.004744
v -0.102211 -0.033369 0.006245
v -0.102456 -0.035028 0.007321
v -0.102663 -0.036928 0.007885
v -0.102817 -0.038914 0.007892
v -0.102905 -0.040827 0.007340
v -0.102919 -0.04251 0.006274
v -0.102859 -0.043828 0.004781
v -0.102729 -0.044674 0.002982
v -0.102540 -0.044979 0.001022
v -0.102308 -0.044719 -0.000939
v -0.102050 -0.043914 -0.002744
v -0.101789 -0.042631 -0.004245
v -0.101544 -0.040972 -0.005321
v -0.101337 -0.039072 -0.005885
v -0.101183 -0.037086 -0.005892
v -0.101095 -0.035173 -0.005340
v -0.101081 -0.03349 -0.004274
v -0.101141 -0.032172 -0.002781
v -0.101271 -0.031326 -0.000982
v -0.104045 -0.03079 0.000691
v -0.104298 -0.031048 0.002650
v -0.104589 -0.03185 0.004451
v -0.104894 -0.03313 0.005947
v -0.105189 -0.034784 0.007018
v -0.105448 -0.036679 0.007576
v -0.105653 -0.038661 0.007576
v -0.105785 -0.040569 0.007019
v -0.105835 -0.042249 0.005949
v -0.105798 -0.043565 0.004454
v -0.105677 -0.04441 0.002653
v -0.105482 -0.044716 0.000694
v -0.105229 -0.044457 -0.001265
v -0.104938 -0.043655 -0.003066
v -0.104633 -0.042376 -0.004562
v -0.104339 -0.040721 -0.005632
v -0.104079 -0.038826 -0.006191
v -0.103875 -0.036844 -0.006191
v -0.103742 -0.034936 -0.005634
v -0.103692 -0.033256 -0.004564
v -0.103730 -0.03194 -0.003068
v -0.103850 -0.031095 -0.001268
v -0.106581 -0.030493 0.000387
v -0.106857 -0.030749 0.002344
v -0.107184 -0.031546 0.004140
v -0.107534 -0.032821 0.005631
v -0.107880 -0.03447 0.006695
v -0.108194 -0.036358 0.007246
v -0.108450 -0.038334 0.007241
v -0.108627 -0.040237 0.006678
v -0.108711 -0.041913 0.005604
v -0.108696 -0.043227 0.004105
v -0.108582 -0.04407 0.002304
v -0.108378 -0.044377 0.000346
v -0.108102 -0.044121 -0.001611
v -0.107776 -0.043323 -0.003407
v -0.107425 -0.042048 -0.004898
v -0.107079 -0.0404 -0.005962
v -0.106766 -0.038511 -0.006513
v -0.106510 -0.036535 -0.006507
v -0.106333 -0.034632 -0.005944
v -0.106249 -0.032956 -0.004870
v -0.106264 -0.031643 -0.003372
v -0.106378 -0.030799 -0.001571
v -0.109088 -0.030135 0.000066
v -0.109385 -0.030388 0.002020
v -0.109745 -0.031181 0.003812
v -0.110137 -0.03245 0.005297
v -0.110531 -0.034092 0.006355
v -0.110894 -0.035973 0.006900
v -0.111197 -0.037943 0.006888
v -0.111416 -0.03984 0.006320
v -0.111532 -0.041511 0.005241
v -0.111536 -0.042821 0.003740
v -0.111429 -0.043664 0.001938
v -0.111218 -0.043971 -0.000019
v -0.110920 -0.043718 -0.001973
v -0.110561 -0.042925 -0.003765
v -0.110168 -0.041656 -0.005250
v -0.109775 -0.040014 -0.006308
v -0.109412 -0.038133 -0.006853
v -0.109109 -0.036163 -0.006840
v -0.108890 -0.034266 -0.006272
v -0.108774 -0.032595 -0.005194
v -0.108769 -0.031285 -0.003693
v -0.108877 -0.030442 -0.001891
v -0.111571 -0.02972 -0.000271
v -0.111888 -0.029971 0.001681
v -0.112277 -0.030759 0.003468
v -0.112708 -0.032022 0.004948
v -0.113145 -0.033656 0.006000
v -0.113553 -0.03553 0.006539
v -0.113899 -0.037493 0.006521
v -0.114155 -0.039383 0.005947
v -0.114300 -0.04105 0.004865
v -0.114323 -0.042357 0.003361
v -0.114221 -0.043199 0.001558
v -0.114003 -0.043507 -0.000398
v -0.113686 -0.043257 -0.002349
v -0.113297 -0.042468 -0.004137
v -0.112866 -0.041206 -0.005617
v -0.112429 -0.039571 -0.006669
v -0.112021 -0.037697 -0.007207
v -0.111675 -0.035735 -0.007189
v -0.111419 -0.033844 -0.006616
v -0.111274 -0.032178 -0.005533
v -0.111251 -0.03087 -0.004030
v -0.111353 -0.030029 -0.002227
v -0.114036 -0.029255 -0.000623
v -0.114369 -0.029502 0.001326
v -0.114786 -0.030286 0.003110
v -0.115250 -0.031542 0.004585
v -0.115726 -0.033169 0.005631
v -0.116175 -0.035036 0.006164
v -0.116559 -0.036991 0.006140
v -0.116849 -0.038876 0.005562
v -0.117020 -0.040537 0.004476
v -0.117058 -0.041841 0.002970
v -0.116962 -0.042682 0.001166
v -0.116737 -0.042991 -0.000789
v -0.116404 -0.042744 -0.002738
v -0.115987 -0.041961 -0.004522
v -0.115523 -0.040704 -0.005997
v -0.115047 -0.039077 -0.007043
v -0.114598 -0.03721 -0.007576
v -0.114214 -0.035255 -0.007552
v -0.113924 -0.033371 -0.006974
v -0.113753 -0.031709 -0.005888
v -0.113715 -0.030405 -0.004382
v -0.113811 -0.029565 -0.002578
v -0.116487 -0.028744 -0.000988
v -0.116836 -0.028988 0.000958
v -0.117275 -0.029767 0.002739
v -0.117770 -0.031017 0.004209
v -0.118280 -0.032638 0.005250
v -0.118763 -0.034497 0.005778
v -0.119181 -0.036445 0.005749
v -0.119500 -0.038323 0.005166
v -0.119694 -0.03998 0.004076
v -0.119747 -0.041281 0.002568
v -0.119655 -0.042121 0.000764
v -0.119425 -0.042431 -0.001191
v -0.119076 -0.042187 -0.003137
v -0.118636 -0.041409 -0.004918
v -0.118142 -0.040158 -0.006388
v -0.117632 -0.038538 -0.007429
v -0.117148 -0.036678 -0.007957
v -0.116730 -0.034731 -0.007928
v -0.116411 -0.032852 -0.007345
v -0.116218 -0.031195 -0.006255
v -0.116165 -0.029895 -0.004747
v -0.116257 -0.029055 -0.002943
v -0.118929 -0.028193 -0.001366
v -0.119291 -0.028435 0.000578
v -0.119751 -0.029209 0.002356
v -0.120271 -0.030453 0.003822
v -0.120809 -0.032067 0.004859
v -0.121323 -0.03392 0.005381
v -0.121770 -0.035862 0.005348
v -0.122114 -0.037734 0.004761
v -0.122327 -0.039387 0.003669
v -0.122392 -0.040685 0.002159
v -0.122303 -0.041523 0.000353
v -0.122069 -0.041835 -0.001600
v -0.121707 -0.041594 -0.003545
v -0.121248 -0.040819 -0.005322
v -0.120727 -0.039575 -0.006789
v -0.120189 -0.037961 -0.007825
v -0.119675 -0.036108 -0.008348
v -0.119228 -0.034167 -0.008315
v -0.118885 -0.032294 -0.007728
v -0.118671 -0.030642 -0.006635
v -0.118606 -0.029344 -0.005125
v -0.118695 -0.028505 -0.003320
v -0.121368 -0.027608 -0.001755
v -0.121740 -0.027846 0.000188
v -0.122216 -0.028617 0.001963
v -0.122757 -0.029856 0.003426
v -0.123320 -0.031465 0.004458
v -0.123858 -0.033311 0.004977
v -0.124329 -0.035247 0.004940
v -0.124693 -0.037115 0.004350
v -0.124922 -0.038763 0.003255
v -0.124997 -0.040059 0.001743
v -0.124912 -0.040897 -0.000063
v -0.124673 -0.041209 -0.002016
v -0.124301 -0.040971 -0.003959
v -0.123825 -0.0402 -0.005733
v -0.123284 -0.038961 -0.007196
v -0.122722 -0.037352 -0.008229
v -0.122183 -0.035506 -0.008748
v -0.121713 -0.03357 -0.008711
v -0.121348 -0.031702 -0.008121
v -0.121120 -0.030054 -0.007025
v -0.121045 -0.028758 -0.005514
v -0.121130 -0.02792 -0.003708
v -0.123808 -0.026993 -0.002153
v -0.124188 -0.027229 -0.000212
v -0.124677 -0.027996 0.001561
v -0.125235 -0.029232 0.003021
v -0.125816 -0.030836 0.004051
v -0.126373 -0.032678 0.004567
v -0.126862 -0.034609 0.004526
v -0.127242 -0.036472 0.003934
v -0.127484 -0.038118 0.002836
v -0.127567 -0.039412 0.001323
v -0.127484 -0.040249 -0.000483
v -0.127242 -0.040562 -0.002436
v -0.126862 -0.040325 -0.004377
v -0.126373 -0.039558 -0.006150
v -0.125816 -0.038323 -0.007610
v -0.125235 -0.036719 -0.008640
v -0.124677 -0.034877 -0.009155
v -0.124188 -0.032946 -0.009115
v -0.123808 -0.031082 -0.008522
v -0.123566 -0.029437 -0.007425
v -0.123484 -0.028143 -0.005912
v -0.123566 -0.027306 -0.004106
v -0.126253 -0.026354 -0.002559
v -0.126639 -0.026589 -0.000619
v -0.127137 -0.027354 0.001152
v -0.127706 -0.028587 0.002611
v -0.128301 -0.030187 0.003638
v -0.128872 -0.032025 0.004151
v -0.129374 -0.033953 0.004109
v -0.129766 -0.035814 0.003514
v -0.130016 -0.037457 0.002415
v -0.130105 -0.038749 0.000902
v -0.130024 -0.039586 -0.000905
v -0.129780 -0.039899 -0.002857
v -0.129394 -0.039664 -0.004798
v -0.128896 -0.038899 -0.006569
v -0.128327 -0.037667 -0.008027
v -0.127732 -0.036067 -0.009055
v -0.127161 -0.034228 -0.009568
v -0.126659 -0.032301 -0.009526
v -0.126267 -0.03044 -0.008931
v -0.126017 -0.028797 -0.007832
v -0.125928 -0.027505 -0.006318
v -0.126009 -0.026668 -0.004512
v -0.128708 -0.025698 -0.002972
v -0.129098 -0.025933 -0.001032
v -0.129601 -0.026696 0.000738
v -0.130178 -0.027926 0.002195
v -0.130780 -0.029525 0.003221
v -0.131360 -0.031361 0.003733
v -0.131869 -0.033286 0.003689
v -0.132268 -0.035145 0.003094
v -0.132524 -0.036787 0.001994
v -0.132616 -0.038078 0.000479
v -0.132536 -0.038915 -0.001327
v -0.132291 -0.039229 -0.003279
v -0.131901 -0.038994 -0.005219
v -0.131397 -0.038231 -0.006989
v -0.130821 -0.037001 -0.008447
v -0.130219 -0.035403 -0.009473
v -0.129639 -0.033566 -0.009985
v -0.129129 -0.031641 -0.009941
v -0.128730 -0.029782 -0.009345
v -0.128475 -0.02814 -0.008245
v -0.128383 -0.026849 -0.006731
v -0.128463 -0.026012 -0.004924
v -0.131177 -0.025031 -0.003390
v -0.131568 -0.025265 -0.001450
v -0.132073 -0.026028 0.000320
v -0.132652 -0.027258 0.001777
v -0.133257 -0.028855 0.002802
v -0.133840 -0.030691 0.003314
v -0.134352 -0.032616 0.003270
v -0.134753 -0.034474 0.002673
v -0.135011 -0.036115 0.001573
v -0.135103 -0.037406 0.000059
v -0.135024 -0.038243 -0.001748
v -0.134779 -0.038557 -0.003700
v -0.134388 -0.038323 -0.005640
v -0.133882 -0.03756 -0.007409
v -0.133304 -0.03633 -0.008866
v -0.132699 -0.034733 -0.009892
v -0.132116 -0.032897 -0.010403
v -0.131604 -0.030972 -0.010359
v -0.131202 -0.029114 -0.009763
v -0.130945 -0.027473 -0.008663
v -0.130852 -0.026182 -0.007148
v -0.130932 -0.025345 -0.005342
v -0.133665 -0.024359 -0.003810
v -0.134055 -0.024593 -0.001870
v -0.134558 -0.025357 -0.000100
v -0.135135 -0.026587 0.001357
v -0.135737 -0.028185 0.002383
v -0.136316 -0.030022 0.002895
v -0.136826 -0.031947 0.002851
v -0.137225 -0.033806 0.002255
v -0.137481 -0.035448 0.001156
v -0.137573 -0.036739 -0.000359
v -0.137493 -0.037576 -0.002165
v -0.137248 -0.037889 -0.004118
v -0.136858 -0.037655 -0.006057
v -0.136354 -0.036892 -0.007828
v -0.135778 -0.035661 -0.009285
v -0.135176 -0.034063 -0.010311
v -0.134596 -0.032227 -0.010823
v -0.134086 -0.030302 -0.010779
v -0.133687 -0.028443 -0.010183
v -0.133432 -0.026801 -0.009083
v -0.133340 -0.02551 -0.007569
v -0.133420 -0.024673 -0.005762
v -0.136175 -0.023689 -0.004232
v -0.136562 -0.023924 -0.002292
v -0.137060 -0.024688 -0.000521
v -0.137629 -0.025921 0.000938
v -0.138223 -0.027521 0.001965
v -0.138795 -0.02936 0.002478
v -0.139297 -0.031287 0.002436
v -0.139689 -0.033148 0.001841
v -0.139939 -0.034791 0.000742
v -0.140027 -0.036083 -0.000771
v -0.139946 -0.03692 -0.002578
v -0.139703 -0.037234 -0.004530
v -0.139316 -0.036998 -0.006471
v -0.138818 -0.036234 -0.008242
v -0.138249 -0.035001 -0.009700
v -0.137655 -0.033401 -0.010728
v -0.137084 -0.031563 -0.011241
v -0.136582 -0.029635 -0.011198
v -0.136190 -0.027774 -0.010604
v -0.135939 -0.026131 -0.009505
v -0.135851 -0.024839 -0.007991
v -0.135932 -0.024002 -0.006185
v -0.138713 -0.023026 -0.004654
v -0.139094 -0.023263 -0.002713
v -0.139583 -0.02403 -0.000940
v -0.140140 -0.025265 0.000520
v -0.140721 -0.026869 0.001550
v -0.141279 -0.028711 0.002066
v -0.141767 -0.030642 0.002025
v -0.142148 -0.032506 0.001433
v -0.142389 -0.034151 0.000335
v -0.142472 -0.035445 -0.001178
v -0.142389 -0.036282 -0.002984
v -0.142148 -0.036595 -0.004937
v -0.141767 -0.036359 -0.006878
v -0.141279 -0.035591 -0.008651
v -0.140721 -0.034356 -0.010111
v -0.140140 -0.032752 -0.011141
v -0.139583 -0.03091 -0.011656
v -0.139094 -0.028979 -0.011616
v -0.138713 -0.027115 -0.011023
v -0.138472 -0.02547 -0.009926
v -0.138389 -0.024176 -0.008413
v -0.138472 -0.023339 -0.006607
v -0.141282 -0.022378 -0.005073
v -0.141655 -0.022617 -0.003131
v -0.142131 -0.023388 -0.001356
v -0.142672 -0.024627 0.000107
v -0.143234 -0.026236 0.001140
v -0.143773 -0.028083 0.001658
v -0.144243 -0.030018 0.001621
v -0.144607 -0.031886 0.001031
v -0.144836 -0.033535 -0.000064
v -0.144911 -0.03483 -0.001576
v -0.144826 -0.035668 -0.003382
v -0.144588 -0.03598 -0.005335
v -0.144215 -0.035741 -0.007278
v -0.143739 -0.034971 -0.009052
v -0.143198 -0.033731 -0.010515
v -0.142636 -0.032123 -0.011548
v -0.142097 -0.030276 -0.012067
v -0.141627 -0.02834 -0.012030
v -0.141263 -0.026473 -0.011439
v -0.141034 -0.024824 -0.010344
v -0.140959 -0.023528 -0.008832
v -0.141044 -0.022691 -0.007027
v -0.143887 -0.021753 -0.005488
v -0.144249 -0.021994 -0.003544
v -0.144708 -0.022769 -0.001767
v -0.145229 -0.024013 -0.000301
v -0.145767 -0.025627 0.000736
v -0.146281 -0.02748 0.001258
v -0.146727 -0.029422 0.001225
v -0.147071 -0.031294 0.000638
v -0.147284 -0.032947 -0.000455
v -0.147349 -0.034245 -0.001965
v -0.147261 -0.035083 -0.003770
v -0.147026 -0.035394 -0.005724
v -0.146665 -0.035153 -0.007669
v -0.146205 -0.034379 -0.009446
v -0.145685 -0.033134 -0.010912
v -0.145146 -0.03152 -0.011949
v -0.144633 -0.029667 -0.012471
v -0.144186 -0.027726 -0.012438
v -0.143842 -0.025853 -0.011851
v -0.143629 -0.024201 -0.010758
v -0.143564 -0.022903 -0.009248
v -0.143653 -0.022064 -0.007442
v -0.146476 -0.021169 -0.005889
v -0.146832 -0.021411 -0.003944
v -0.147283 -0.022188 -0.002165
v -0.147791 -0.023435 -0.000697
v -0.148317 -0.025052 0.000341
v -0.148817 -0.026908 0.000866
v -0.149250 -0.028853 0.000834
v -0.149583 -0.030728 0.000249
v -0.149787 -0.032382 -0.000842
v -0.149846 -0.033682 -0.002352
v -0.149756 -0.034521 -0.004157
v -0.149524 -0.034831 -0.006111
v -0.149168 -0.034589 -0.008056
v -0.148717 -0.033812 -0.009835
v -0.148209 -0.032565 -0.011303
v -0.147683 -0.030948 -0.012341
v -0.147183 -0.029092 -0.012866
v -0.146750 -0.027147 -0.012834
v -0.146417 -0.025272 -0.012249
v -0.146213 -0.023618 -0.011158
v -0.146154 -0.022318 -0.009648
v -0.146244 -0.021479 -0.007843
v -0.010000 -0.02 0.000000
v -0.148000 -0.028 -0.006000
f 24 2 1
f 23 24 1
f 25 3 2
f 24 25 2
f 26 4 3
f 25 26 3
f 27 5 4
f 26 27 4
f 28 6 5
f 27 28 5
f 29 7 6
f 28 29 6
f 30 8 7
f 29 30 7
f 31 9 8
f 30 31 8
f 32 10 9
f 31 32 9
f 33 11 10
f 32 33 10
f 34 12 11
f 33 34 11
f 35 13 12
f 34 35 12
f 36 14 13
f 35 36 13
f 37 15 14
f 36 37 14
f 38 16 15
f 37 38 15
f 39 17 16
f 38 39 16
f 40 18 17
f 39 40 17
f 41 19 18
f 40 41 18
f 42 20 19
f 41 42 19
f 43 21 20
f 42 43 20
f 44 22 21
f 43 44 21
f 23 1 22
f 44 23 22
f 46 24 23
f 45 46 23
f 47 25 24
f 46 47 24
f 48 26 25
f 47 48 25
f 49 27 26
f 48 49 26
f 50 28 27
f 49 50 27
f 51 29 28
f 50 51 28
f 52 30 29
f 51 52 29
f 53 31 30
f 52 53 30
f 54 32 31
f 53 54 31
f 55 33 32
f 54 55 32
f 56 34 33
f 55 56 33
f 57 35 34
f 56 57 34
f 58 36 35
f 57 58 35
f 59 37 36
f 58 59 36
f 60 38 37
f 59 60 37
f 61 39 38
f 60 61 38
f 62 40 39
f 61 62 39
f 63 41 40
f 62 63 40
f 64 42 41
f 63 64 41
f 65 43 42
f 64 65 42
f 66 44 43
f 65 66 43
f 45 23 44
f 66 45 44
f 68 46 45
f 67 68 45
f 69 47 46
f 68 69 46
f 70 48 47
f 69 70 47
f 71 49 48
f 70 71 48
f 72 50 49
f 71 72 49
f 73 51 50
f 72 73 50
f 74 52 51
f 73 74 51
f 75 53 52
f 74 75 52
f 76 54 53
f 75 76 53
f 77 55 54
f 76 77 54
f 78 56 55
f 77 78 55
f 79 57 56
f 78 79 56
f 80 58 57
f 79 80 57
f 81 59 58
f 80 81 58
f 82 60 59
f 81 82 59
f 83 61 60
f 82 83 60
f 84 62 61
f 83 84 61
f 85 63 62
f 84 85 62
f 86 64 63
f 85 86 63
f 87 65 64
f 86 87 64
f 88 66 65
f 87 88 65
f 67 45 66
f 88 67 66
f 90 68 67
f 89 90 67
f 91 69 68
f 90 91 68
f 92 70 69
f 91 92 69
f 93 71 70
f 92 93 70
f 94 72 71
f 93 94 71
f 95 73 72
f 94 95 72
f 96 74 73
f 95 96 73
f 97 75 74
f 96 97 74
f 98 76 75
f 97 98 75
f 99 77 76
f 98 99 76
f 100 78 77
f 99 100 77
f 101 79 78
f 100 101 78
f 102 80 79
f 101 102 79
f 103 81 80
f 102 103 80
f 104 82 81
f 103 104 81
f 105 83 82
f 104 105 82
f 106 84 83
f 105 106 83
f 107 85 84
f 106 107 84
f 108 86 85
f 107 108 85
f 109 87 86
f 108 109 86
f 110 88 87
f 109 110 87
f 89 67 88
f 110 89 88
f 112 90 89
f 111 112 89
f 113 91 90
f 112 113 90
f 114 92 91
f 113 114 91
f 115 93 92
f 114 115 92
f 116 94 93
f 115 116 93
f 117 95 94
f 116 117 94
f 118 96 95
f 117 118 95
f 119 97 96
f 118 119 96
f 120 98 97
f 119 120 97
f 121 99 98
f 120 121 98
f 122 100 99
f 121 122 99
f 123 101 100
f 122 123 100
f 124 102 101
f 123 124 101
f 125 103 102
f 124 125 102
f 126 104 103
f 125 126 103
f 127 105 104
f 126 127 104
f 128 106 105
f 127 128 105
f 129 107 106
f 128 129 106
f 130 108 107
f 129 130 107
f 131 109 108
f 130 131 108
f 132 110 109
f 131 132 109
f 111 89 110
f 132 111 110
f 134 112 111
f 133 134 111
f 135 113 112
f 134 135 112
f 136 114 113
f 135 136 113
f 137 115 114
f 136 137 114
f 138 116 115
f 137 138 115
f 139 117 116
f 138 139 116
f 140 118 117
f 139 140 117
f 141 119 118
f 140 141 118
f 142 120 119
f 141 142 119
f 143 121 120
f 142 143 120
f 144 122 121
f 143 144 121
f 145 123 122
f 144 145 122
f 146 124 123
f 145 146 123
f 147 125 124
f 146 147 124
f 148 126 125
f 147 148 125
f 149 127 126
f 148 149 126
f 150 128 127
f 149 150 127
f 151 129 128
f 150 151 128
f 152 130 129
f 151 152 129
f 153 131 130
f 152 153 130
f 154 132 131
f 153 154 131
f 133 111 132
f 154 133 132
f 156 134 133
f 155 156 133
f 157 135 134
f 156 157 134
f 158 136 135
f 157 158 135
f 159 137 136
f 158 159 136
f 160 138 137
f 159 160 137
f 161 139 138
f 160 161 138
f 162 140 139
f 161 162 139
f 163 141 140
f 162 163 140
f 164 142 141
f 163 164 141
f 165 143 142
f 164 165 142
f 166 144 143
f 165 166 143
f 167 145 144
f 166 167 144
f 168 146 145
f 167 168 145
f 169 147 146
f 168 169 146
f 170 148 147
f 169 170 147
f 171 149 148
f 170 171 148
f 172 150 149
f 171 172 149
f 173 151 150
f 172 173 150
f 174 152 151
f 173 174 151
f 175 153 152
f 174 175 152
f 176 154 153
f 175 176 153
f 155 133 154
f 176 155 154
f 178 156 155
f 177 178 155
f 179 157 156
f 178 179 156
f 180 158 157
f 179 180 157
f 181 159 158
f 180 181 158
f 182 160 159
f 181 182 159
f 183 161 160
f 182 183 160
f 184 162 161
f 183 184 161
f 185 163 162
f 184 185 162
f 186 164 163
f 185 186 163
f 187 165 164
f 186 187 164
f 188 166 165
f 187 188 165
f 189 167 166
f 188 189 166
f 190 168 167
f 189 190 167
f 191 169 168
f 190 191 168
f 192 170 169
f 191 192 169
f 193 171 170
f 192 193 170
f 194 172 171
f 193 194 171
f 195 173 172
f 194 195 172
f 196 174 173
f 195 196 173
f 197 175 174
f 196 197 174
f 198 176 175
f 197 198 175
f 177 155 176
f 198 177 176
f 200 178 177
f 199 200 177
f 201 179 178
f 200 201 178
f 202 180 179
f 201 202 179
f 203 181 180
f 202 203 180
f 204 182 181
f 203 204 181
f 205 183 182
f 204 205 182
f 206 184 183
f 205 206 183
f 207 185 184
f 206 207 184
f 208 186 185
f 207 208 185
f 209 187 186
f 208 209 186
f 210 188 187
f 209 210 187
f 211 189 188
f 210 211 188
f 212 190 189
f 211 212 189
f 213 191 190
f 212 213 190
f 214 192 191
f 213 214 191
f 215 193 192
f 214 215 192
f 216 194 193
f 215 216 193
f 217 195 194
f 216 217 194
f 218 196 195
f 217 218 195
f 219 197 196
f 218 219 196
f 220 198 197
f 219 220 197
f 199 177 198
f 220 199 198
f 222 200 199
f 221 222 199
f 223 201 200
f 222 223 200
f 224 202 201
f 223 224 201
f 225 203 202
f 224 225 202
f 226 204 203
f 225 226 203
f 227 205 204
f 226 227 204
f 228 206 205
f 227 228 205
f 229 207 206
f 228 229 206
f 230 208 207
f 229 230 207
f 231 209 208
f 230 231 208
f 232 210 209
f 231 232 209
f 233 211 210
f 232 233 210
f 234 212 211
f 233 234 211
f 235 213 212
f 234 235 212
f 236 214 213
f 235 236 213
f 237 215 214
f 236 237 214
f 238 216 215
f 237 238 215
f 239 217 216
f 238 239 216
f 240 218 217
f 239 240 217
f 241 219 218
f 240 241 218
f 242 220 219
f 241 242 219
f 221 199 220
f 242 221 220
f 244 222 221
f 243 244 221
f 245 223 222
f 244 245 222
f 246 224 223
f 245 246 223
f 247 225 224
f 246 247 224
f 248 226 225
f 247 248 225
f 249 227 226
f 248 249 226
f 250 228 227
f 249 250 227
f 251 229 228
f 250 251 228
f 252 230 229
f 251 252 229
f 253 231 230
f 252 253 230
f 254 232 231
f 253 254 231
f 255 233 232
f 254 255 232
f 256 234 233
f 255 256 233
f 257 235 234
f 256 257 234
f 258 236 235
f 257 258 235
f 259 237 236
f 258 259 236
f 260 238 237
f 259 260 237
f 261 239 238
f 260 261 238
f 262 240 239
f 261 262 239
f 263 241 240
f 262 263 240
f 264 242 241
f 263 264 241
f 243 221 242
f 264 243 242
f 266 244 243
f 265 266 243
f 267 245 244
f 266 267 244
f 268 246 245
f 267 268 245
f 269 247 246
f 268 269 246
f 270 248 247
f 269 270 247
f 271 249 248
f 270 271 248
f 272 250 249
f 271 272 249
f 273 251 250
f 272 273 250
f 274 252 251
f 273 274 251
f 275 253 252
f 274 275 252
f 276 254 253
f 275 276 253
f 277 255 254
f 276 277 254
f 278 256 255
f 277 278 255
f 279 257 256
f 278 279 256
f 280 258 257
f 279 280 257
f 281 259 258
f 280 281 258
f 282 260 259
f 281 282 259
f 283 261 260
f 282 283 260
f 284 262 261
f 283 284 261
f 285 263 262
f 284 285 262
f 286 264 263
f 285 286 263
f 265 243 264
f 286 265 264
f 288 266 265
f 287 288 265
f 289 267 266
f 288 289 266
f 290 268 267
f 289 290 267
f 291 269 268
f 290 291 268
f 292 270 269
f 291 292 269
f 293 271 270
f 292 293 270
f 294 272 271
f 293 294 271
f 295 273 272
f 294 295 272
f 296 274 273
f 295 296 273
f 297 275 274
f 296 297 274
f 298 276 275
f 297 298 275
f 299 277 276
f 298 299 276
f 300 278 277
f 299 300 277
f 301 279 278
f 300 301 278
f 302 280 279
f 301 302 279
f 303 281 280
f 302 303 280
f 304 282 281
f 303 304 281
f 305 283 282
f 304 305 282
f 306 284 283
f 305 306 283
f 307 285 284
f 306 307 284
f 308 286 285
f 307 308 285
f 287 265 286
f 308 287 286
f 310 288 287
f 309 310 287
f 311 289 288
f 310 311 288
f 312 290 289
f 311 312 289
f 313 291 290
f 312 313 290
f 314 292 291
f 313 314 291
f 315 293 292
f 314 315 292
f 316 294 293
f 315 316 293
f 317 295 294
f 316 317 294
f 318 296 295
f 317 318 295
f 319 297 296
f 318 319 296
f 320 298 297
f 319 320 297
f 321 299 298
f 320 321 298
f 322 300 299
f 321 322 299
f 323 301 300
f 322 323 300
f 324 302 301
f 323 324 301
f 325 303 302
f 324 325 302
f 326 304 303
f 325 326 303
f 327 305 304
f 326 327 304
f 328 306 305
f 327 328 305
f 329 307 306
f 328 329 306
f 330 308 307
f 329 330 307
f 309 287 308
f 330 309 308
f 332 310 309
f 331 332 309
f 333 311 310
f 332 333 310
f 334 312 311
f 333 334 311
f 335 313 312
f 334 335 312
f 336 314 313
f 335 336 313
f 337 315 314
f 336 337 314
f 338 316 315
f 337 338 315
f 339 317 316
f 338 339 316
f 340 318 317
f 339 340 317
f 341 319 318
f 340 341 318
f 342 320 319
f 341 342 319
f 343 321 320
f 342 343 320
f 344 322 321
f 343 344 321
f 345 323 322
f 344 345 322
f 346 324 323
f 345 346 323
f 347 325 324
f 346 347 324
f 348 326 325
f 347 348 325
f 349 327 326
f 348 349 326
f 350 328 327
f 349 350 327
f 351 329 328
f 350 351 328
f 352 330 329
f 351 352 329
f 331 309 330
f 352 331 330
f 354 332 331
f 353 354 331
f 355 333 332
f 354 355 332
f 356 334 333
f 355 356 333
f 357 335 334
f 356 357 334
f 358 336 335
f 357 358 335
f 359 337 336
f 358 359 336
f 360 338 337
f 359 360 337
f 361 339 338
f 360 361 338
f 362 340 339
f 361 362 339
f 363 341 340
f 362 363 340
f 364 342 341
f 363 364 341
f 365 343 342
f 364 365 342
f 366 344 343
f 365 366 343
f 367 345 344
f 366 367 344
f 368 346 345
f 367 368 345
f 369 347 346
f 368 369 346
f 370 348 347
f 369 370 347
f 371 349 348
f 370 371 348
f 372 350 349
f 371 372 349
f 373 351 350
f 372 373 350
f 374 352 351
f 373 374 351
f 353 331 352
f 374 353 352
f 376 354 353
f 375 376 353
f 377 355 354
f 376 377 354
f 378 356 355
f 377 378 355
f 379 357 356
f 378 379 356
f 380 358 357
f 379 380 357
f 381 359 358
f 380 381 358
f 382 360 359
f 381 382 359
f 383 361 360
f 382 383 360
f 384 362 361
f 383 384 361
f 385 363 362
f 384 385 362
f 386 364 363
f 385 386 363
f 387 365 364
f 386 387 364
f 388 366 365
f 387 388 365
f 389 367 366
f 388 389 366
f 390 368 367
f 389 390 367
f 391 369 368
f 390 391 368
f 392 370 369
f 391 392 369
f 393 371 370
f 392 393 370
f 394 372 371
f 393 394 371
f 395 373 372
f 394 395 372
f 396 374 373
f 395 396 373
f 375 353 374
f 396 375 374
f 398 376 375
f 397 398 375
f 399 377 376
f 398 399 376
f 400 378 377
f 399 400 377
f 401 379 378
f 400 401 378
f 402 380 379
f 401 402 379
f 403 381 380
f 402 403 380
f 404 382 381
f 403 404 381
f 405 383 382
f 404 405 382
f 406 384 383
f 405 406 383
f 407 385 384
f 406 407 384
f 408 386 385
f 407 408 385
f 409 387 386
f 408 409 386
f 410 388 387
f 409 410 387
f 411 389 388
f 410 411 388
f 412 390 389
f 411 412 389
f 413 391 390
f 412 413 390
f 414 392 391
f 413 414 391
f 415 393 392
f 414 415 392
f 416 394 393
f 415 416 393
f 417 395 394
f 416 417 394
f 418 396 395
f 417 418 395
f 397 375 396
f 418 397 396
f 420 398 397
f 419 420 397
f 421 399 398
f 420 421 398
f 422 400 399
f 421 422 399
f 423 401 400
f 422 423 400
f 424 402 401
f 423 424 401
f 425 403 402
f 424 425 402
f 426 404 403
f 425 426 403
f 427 405 404
f 426 427 404
f 428 406 405
f 427 428 405
f 429 407 406
f 428 429 406
f 430 408 407
f 429 430 407
f 431 409 408
f 430 431 408
f 432 410 409
f 431 432 409
f 433 411 410
f 432 433 410
f 434 412 411
f 433 434 411
f 435 413 412
f 434 435 412
f 436 414 413
f 435 436 413
f 437 415 414
f 436 437 414
f 438 416 415
f 437 438 415
f 439 417 416
f 438 439 416
f 440 418 417
f 439 440 417
f 419 397 418
f 440 419 418
f 442 420 419
f 441 442 419
f 443 421 420
f 442 443 420
f 444 422 421
f 443 444 421
f 445 423 422
f 444 445 422
f 446 424 423
f 445 446 423
f 447 425 424
f 446 447 424
f 448 426 425
f 447 448 425
f 449 427 426
f 448 449 426
f 450 428 427
f 449 450 427
f 451 429 428
f 450 451 428
f 452 430 429
f 451 452 429
f 453 431 430
f 452 453 430
f 454 432 431
f 453 454 431
f 455 433 432
f 454 455 432
f 456 434 433
f 455 456 433
f 457 435 434
f 456 457 434
f 458 436 435
f 457 458 435
f 459 437 436
f 458 459 436
f 460 438 437
f 459 460 437
f 461 439 438
f 460 461 438
f 462 440 439
f 461 462 439
f 441 419 440
f 462 441 440
f 464 442 441
f 463 464 441
f 465 443 442
f 464 465 442
f 466 444 443
f 465 466 443
f 467 445 444
f 466 467 444
f 468 446 445
f 467 468 445
f 469 447 446
f 468 469 446
f 470 448 447
f 469 470 447
f 471 449 448
f 470 471 448
f 472 450 449
f 471 472 449
f 473 451 450
f 472 473 450
f 474 452 451
f 473 474 451
f 475 453 452
f 474 475 452
f 476 454 453
f 475 476 453
f 477 455 454
f 476 477 454
f 478 456 455
f 477 478 455
f 479 457 456
f 478 479 456
f 480 458 457
f 479 480 457
f 481 459 458
f 480 481 458
f 482 460 459
f 481 482 459
f 483 461 460
f 482 483 460
f 484 462 461
f 483 484 461
f 463 441 462
f 484 463 462
f 486 464 463
f 485 486 463
f 487 465 464
f 486 487 464
f 488 466 465
f 487 488 465
f 489 467 466
f 488 489 466
f 490 468 467
f 489 490 467
f 491 469 468
f 490 491 468
f 492 470 469
f 491 492 469
f 493 471 470
f 492 493 470
f 494 472 471
f 493 494 471
f 495 473 472
f 494 495 472
f 496 474 473
f 495 496 473
f 497 475 474
f 496 497 474
f 498 476 475
f 497 498 475
f 499 477 476
f 498 499 476
f 500 478 477
f 499 500 477
f 501 479 478
f 500 501 478
f 502 480 479
f 501 502 479
f 503 481 480
f 502 503 480
f 504 482 481
f 503 504 481
f 505 483 482
f 504 505 482
f 506 484 483
f 505 506 483
f 485 463 484
f 506 485 484
f 508 486 485
f 507 508 485
f 509 487 486
f 508 509 486
f 510 488 487
f 509 510 487
f 511 489 488
f 510 511 488
f 512 490 489
f 511 512 489
f 513 491 490
f 512 513 490
f 514 492 491
f 513 514 491
f 515 493 492
f 514 515 492
f 516 494 493
f 515 516 493
f 517 495 494
f 516 517 494
f 518 496 495
f 517 518 495
f 519 497 496
f 518 519 496
f 520 498 497
f 519 520 497
f 521 499 498
f 520 521 498
f 522 500 499
f 521 522 499
f 523 501 500
f 522 523 500
f 524 502 501
f 523 524 501
f 525 503 502
f 524 525 502
f 526 504 503
f 525 526 503
f 527 505 504
f 526 527 504
f 528 506 505
f 527 528 505
f 507 485 506
f 528 507 506
f 530 508 507
f 529 530 507
f 531 509 508
f 530 531 508
f 532 510 509
f 531 532 509
f 533 511 510
f 532 533 510
f 534 512 511
f 533 534 511
f 535 513 512
f 534 535 512
f 536 514 513
f 535 536 513
f 537 515 514
f 536 537 514
f 538 516 515
f 537 538 515
f 539 517 516
f 538 539 516
f 540 518 517
f 539 540 517
f 541 519 518
f 540 541 518
f 542 520 519
f 541 542 519
f 543 521 520
f 542 543 520
f 544 522 521
f 543 544 521
f 545 523 522
f 544 545 522
f 546 524 523
f 545 546 523
f 547 525 524
f 546 547 524
f 548 526 525
f 547 548 525
f 549 527 526
f 548 549 526
f 550 528 527
f 549 550 527
f 529 507 528
f 550 529 528
f 552 530 529
f 551 552 529
f 553 531 530
f 552 553 530
f 554 532 531
f 553 554 531
f 555 533 532
f 554 555 532
f 556 534 533
f 555 556 533
f 557 535 534
f 556 557 534
f 558 536 535
f 557 558 535
f 559 537 536
f 558 559 536
f 560 538 537
f 559 560 537
f 561 539 538
f 560 561 538
f 562 540 539
f 561 562 539
f 563 541 540
f 562 563 540
f 564 542 541
f 563 564 541
f 565 543 542
f 564 565 542
f 566 544 543
f 565 566 543
f 567 545 544
f 566 567 544
f 568 546 545
f 567 568 545
f 569 547 546
f 568 569 546
f 570 548 547
f 569 570 547
f 571 549 548
f 570 571 548
f 572 550 549
f 571 572 549
f 551 529 550
f 572 551 550
f 574 552 551
f 573 574 551
f 575 553 552
f 574 575 552
f 576 554 553
f 575 576 553
f 577 555 554
f 576 577 554
f 578 556 555
f 577 578 555
f 579 557 556
f 578 579 556
f 580 558 557
f 579 580 557
f 581 559 558
f 580 581 558
f 582 560 559
f 581 582 559
f 583 561 560
f 582 583 560
f 584 562 561
f 583 584 561
f 585 563 562
f 584 585 562
f 586 564 563
f 585 586 563
f 587 565 564
f 586 587 564
f 588 566 565
f 587 588 565
f 589 567 566
f 588 589 566
f 590 568 567
f 589 590 567
f 591 569 568
f 590 591 568
f 592 570 569
f 591 592 569
f 593 571 570
f 592 593 570
f 594 572 571
f 593 594 571
f 573 551 572
f 594 573 572
f 596 574 573
f 595 596 573
f 597 575 574
f 596 597 574
f 598 576 575
f 597 598 575
f 599 577 576
f 598 599 576
f 600 578 577
f 599 600 577
f 601 579 578
f 600 601 578
f 602 580 579
f 601 602 579
f 603 581 580
f 602 603 580
f 604 582 581
f 603 604 581
f 605 583 582
f 604 605 582
f 606 584 583
f 605 606 583
f 607 585 584
f 606 607 584
f 608 586 585
f 607 608 585
f 609 587 586
f 608 609 586
f 610 588 587
f 609 610 587
f 611 589 588
f 610 611 588
f 612 590 589
f 611 612 589
f 613 591 590
f 612 613 590
f 614 592 591
f 613 614 591
f 615 593 592
f 614 615 592
f 616 594 593
f 615 616 593
f 595 573 594
f 616 595 594
f 618 596 595
f 617 618 595
f 619 597 596
f 618 619 596
f 620 598 597
f 619 620 597
f 621 599 598
f 620 621 598
f 622 600 599
f 621 622 599
f 623 601 600
f 622 623 600
f 624 602 601
f 623 624 601
f 625 603 602
f 624 625 602
f 626 604 603
f 625 626 603
f 627 605 604
f 626 627 604
f 628 606 605
f 627 628 605
f 629 607 606
f 628 629 606
f 630 608 607
f 629 630 607
f 631 609 608
f 630 631 608
f 632 610 609
f 631 632 609
f 633 611 610
f 632 633 610
f 634 612 611
f 633 634 611
f 635 613 612
f 634 635 612
f 636 614 613
f 635 636 613
f 637 615 614
f 636 637 614
f 638 616 615
f 637 638 615
f 617 595 616
f 638 617 616
f 640 618 617
f 639 640 617
f 641 619 618
f 640 641 618
f 642 620 619
f 641 642 619
f 643 621 620
f 642 643 620
f 644 622 621
f 643 644 621
f 645 623 622
f 644 645 622
f 646 624 623
f 645 646 623
f 647 625 624
f 646 647 624
f 648 626 625
f 647 648 625
f 649 627 626
f 648 649 626
f 650 628 627
f 649 650 627
f 651 629 628
f 650 651 628
f 652 630 629
f 651 652 629
f 653 631 630
f 652 653 630
f 654 632 631
f 653 654 631
f 655 633 632
f 654 655 632
f 656 634 633
f 655 656 633
f 657 635 634
f 656 657 634
f 658 636 635
f 657 658 635
f 659 637 636
f 658 659 636
f 660 638 637
f 659 660 637
f 639 617 638
f 660 639 638
f 662 640 639
f 661 662 639
f 663 641 640
f 662 663 640
f 664 642 641
f 663 664 641
f 665 643 642
f 664 665 642
f 666 644 643
f 665 666 643
f 667 645 644
f 666 667 644
f 668 646 645
f 667 668 645
f 669 647 646
f 668 669 646
f 670 648 647
f 669 670 647
f 671 649 648
f 670 671 648
f 672 650 649
f 671 672 649
f 673 651 650
f 672 673 650
f 674 652 651
f 673 674 651
f 675 653 652
f 674 675 652
f 676 654 653
f 675 676 653
f 677 655 654
f 676 677 654
f 678 656 655
f 677 678 655
f 679 657 656
f 678 679 656
f 680 658 657
f 679 680 657
f 681 659 658
f 680 681 658
f 682 660 659
f 681 682 659
f 661 639 660
f 682 661 660
f 684 662 661
f 683 684 661
f 685 663 662
f 684 685 662
f 686 664 663
f 685 686 663
f 687 665 664
f 686 687 664
f 688 666 665
f 687 688 665
f 689 667 666
f 688 689 666
f 690 668 667
f 689 690 667
f 691 669 668
f 690 691 668
f 692 670 669
f 691 692 669
f 693 671 670
f 692 693 670
f 694 672 671
f 693 694 671
f 695 673 672
f 694 695 672
f 696 674 673
f 695 696 673
f 697 675 674
f 696 697 674
f 698 676 675
f 697 698 675
f 699 677 676
f 698 699 676
f 700 678 677
f 699 700 677
f 701 679 678
f 700 701 678
f 702 680 679
f 701 702 679
f 703 681 680
f 702 703 680
f 704 682 681
f 703 704 681
f 683 661 682
f 704 683 682
f 706 684 683
f 705 706 683
f 707 685 684
f 706 707 684
f 708 686 685
f 707 708 685
f 709 687 686
f 708 709 686
f 710 688 687
f 709 710 687
f 711 689 688
f 710 711 688
f 712 690 689
f 711 712 689
f 713 691 690
f 712 713 690
f 714 692 691
f 713 714 691
f 715 693 692
f 714 715 692
f 716 694 693
f 715 716 693
f 717 695 694
f 716 717 694
f 718 696 695
f 717 718 695
f 719 697 696
f 718 719 696
f 720 698 697
f 719 720 697
f 721 699 698
f 720 721 698
f 722 700 699
f 721 722 699
f 723 701 700
f 722 723 700
f 724 702 701
f 723 724 701
f 725 703 702
f 724 725 702
f 726 704 703
f 725 726 703
f 705 683 704
f 726 705 704
f 728 706 705
f 727 728 705
f 729 707 706
f 728 729 706
f 730 708 707
f 729 730 707
f 731 709 708
f 730 731 708
f 732 710 709
f 731 732 709
f 733 711 710
f 732 733 710
f 734 712 711
f 733 734 711
f 735 713 712
f 734 735 712
f 736 714 713
f 735 736 713
f 737 715 714
f 736 737 714
f 738 716 715
f 737 738 715
f 739 717 716
f 738 739 716
f 740 718 717
f 739 740 717
f 741 719 718
f 740 741 718
f 742 720 719
f 741 742 719
f 743 721 720
f 742 743 720
f 744 722 721
f 743 744 721
f 745 723 722
f 744 745 722
f 746 724 723
f 745 746 723
f 747 725 724
f 746 747 724
f 748 726 725
f 747 748 725
f 727 705 726
f 748 727 726
f 750 728 727
f 749 750 727
f 751 729 728
f 750 751 728
f 752 730 729
f 751 752 729
f 753 731 730
f 752 753 730
f 754 732 731
f 753 754 731
f 755 733 732
f 754 755 732
f 756 734 733
f 755 756 733
f 757 735 734
f 756 757 734
f 758 736 735
f 757 758 735
f 759 737 736
f 758 759 736
f 760 738 737
f 759 760 737
f 761 739 738
f 760 761 738
f 762 740 739
f 761 762 739
f 763 741 740
f 762 763 740
f 764 742 741
f 763 764 741
f 765 743 742
f 764 765 742
f 766 744 743
f 765 766 743
f 767 745 744
f 766 767 744
f 768 746 745
f 767 768 745
f 769 747 746
f 768 769 746
f 770 748 747
f 769 770 747
f 749 727 748
f 770 749 748
f 772 750 749
f 771 772 749
f 773 751 750
f 772 773 750
f 774 752 751
f 773 774 751
f 775 753 752
f 774 775 752
f 776 754 753
f 775 776 753
f 777 755 754
f 776 777 754
f 778 756 755
f 777 778 755
f 779 757 756
f 778 779 756
f 780 758 757
f 779 780 757
f 781 759 758
f 780 781 758
f 782 760 759
f 781 782 759
f 783 761 760
f 782 783 760
f 784 762 761
f 783 784 761
f 785 763 762
f 784 785 762
f 786 764 763
f 785 786 763
f 787 765 764
f 786 787 764
f 788 766 765
f 787 788 765
f 789 767 766
f 788 789 766
f 790 768 767
f 789 790 767
f 791 769 768
f 790 791 768
f 792 770 769
f 791 792 769
f 771 749 770
f 792 771 770
f 794 772 771
f 793 794 771
f 795 773 772
f 794 795 772
f 796 774 773
f 795 796 773
f 797 775 774
f 796 797 774
f 798 776 775
f 797 798 775
f 799 777 776
f 798 799 776
f 800 778 777
f 799 800 777
f 801 779 778
f 800 801 778
f 802 780 779
f 801 802 779
f 803 781 780
f 802 803 780
f 804 782 781
f 803 804 781
f 805 783 782
f 804 805 782
f 806 784 783
f 805 806 783
f 807 785 784
f 806 807 784
f 808 786 785
f 807 808 785
f 809 787 786
f 808 809 786
f 810 788 787
f 809 810 787
f 811 789 788
f 810 811 788
f 812 790 789
f 811 812 789
f 813 791 790
f 812 813 790
f 814 792 791
f 813 814 791
f 793 771 792
f 814 793 792
f 816 794 793
f 815 816 793
f 817 795 794
f 816 817 794
f 818 796 795
f 817 818 795
f 819 797 796
f 818 819 796
f 820 798 797
f 819 820 797
f 821 799 798
f 820 821 798
f 822 800 799
f 821 822 799
f 823 801 800
f 822 823 800
f 824 802 801
f 823 824 801
f 825 803 802
f 824 825 802
f 826 804 803
f 825 826 803
f 827 805 804
f 826 827 804
f 828 806 805
f 827 828 805
f 829 807 806
f 828 829 806
f 830 808 807
f 829 830 807
f 831 809 808
f 830 831 808
f 832 810 809
f 831 832 809
f 833 811 810
f 832 833 810
f 834 812 811
f 833 834 811
f 835 813 812
f 834 835 812
f 836 814 813
f 835 836 813
f 815 793 814
f 836 815 814
f 838 816 815
f 837 838 815
f 839 817 816
f 838 839 816
f 840 818 817
f 839 840 817
f 841 819 818
f 840 841 818
f 842 820 819
f 841 842 819
f 843 821 820
f 842 843 820
f 844 822 821
f 843 844 821
f 845 823 822
f 844 845 822
f 846 824 823
f 845 846 823
f 847 825 824
f 846 847 824
f 848 826 825
f 847 848 825
f 849 827 826
f 848 849 826
f 850 828 827
f 849 850 827
f 851 829 828
f 850 851 828
f 852 830 829
f 851 852 829
f 853 831 830
f 852 853 830
f 854 832 831
f 853 854 831
f 855 833 832
f 854 855 832
f 856 834 833
f 855 856 833
f 857 835 834
f 856 857 834
f 858 836 835
f 857 858 835
f 837 815 836
f 858 837 836
f 860 838 837
f 859 860 837
f 861 839 838
f 860 861 838
f 862 840 839
f 861 862 839
f 863 841 840
f 862 863 840
f 864 842 841
f 863 864 841
f 865 843 842
f 864 865 842
f 866 844 843
f 865 866 843
f 867 845 844
f 866 867 844
f 868 846 845
f 867 868 845
f 869 847 846
f 868 869 846
f 870 848 847
f 869 870 847
f 871 849 848
f 870 871 848
f 872 850 849
f 871 872 849
f 873 851 850
f 872 873 850
f 874 852 851
f 873 874 851
f 875 853 852
f 874 875 852
f 876 854 853
f 875 876 853
f 877 855 854
f 876 877 854
f 878 856 855
f 877 878 855
f 879 857 856
f 878 879 856
f 880 858 857
f 879 880 857
f 859 837 858
f 880 859 858
f 882 860 859
f 881 882 859
f 883 861 860
f 882 883 860
f 884 862 861
f 883 884 861
f 885 863 862
f 884 885 862
f 886 864 863
f 885 886 863
f 887 865 864
f 886 887 864
f 888 866 865
f 887 888 865
f 889 867 866
f 888 889 866
f 890 868 867
f 889 890 867
f 891 869 868
f 890 891 868
f 892 870 869
f 891 892 869
f 893 871 870
f 892 893 870
f 894 872 871
f 893 894 871
f 895 873 872
f 894 895 872
f 896 874 873
f 895 896 873
f 897 875 874
f 896 897 874
f 898 876 875
f 897 898 875
f 899 877 876
f 898 899 876
f 900 878 877
f 899 900 877
f 901 879 878
f 900 901 878
f 902 880 879
f 901 902 879
f 881 859 880
f 902 881 880
f 904 882 881
f 903 904 881
f 905 883 882
f 904 905 882
f 906 884 883
f 905 906 883
f 907 885 884
f 906 907 884
f 908 886 885
f 907 908 885
f 909 887 886
f 908 909 886
f 910 888 887
f 909 910 887
f 911 889 888
f 910 911 888
f 912 890 889
f 911 912 889
f 913 891 890
f 912 913 890
f 914 892 891
f 913 914 891
f 915 893 892
f 914 915 892
f 916 894 893
f 915 916 893
f 917 895 894
f 916 917 894
f 918 896 895
f 917 918 895
f 919 897 896
f 918 919 896
f 920 898 897
f 919 920 897
f 921 899 898
f 920 921 898
f 922 900 899
f 921 922 899
f 923 901 900
f 922 923 900
f 924 902 901
f 923 924 901
f 903 881 902
f 924 903 902
f 926 904 903
f 925 926 903
f 927 905 904
f 926 927 904
f 928 906 905
f 927 928 905
f 929 907 906
f 928 929 906
f 930 908 907
f 929 930 907
f 931 909 908
f 930 931 908
f 932 910 909
f 931 932 909
f 933 911 910
f 932 933 910
f 934 912 911
f 933 934 911
f 935 913 912
f 934 935 912
f 936 914 913
f 935 936 913
f 937 915 914
f 936 937 914
f 938 916 915
f 937 938 915
f 939 917 916
f 938 939 916
f 940 918 917
f 939 940 917
f 941 919 918
f 940 941 918
f 942 920 919
f 941 942 919
f 943 921 920
f 942 943 920
f 944 922 921
f 943 944 921
f 945 923 922
f 944 945 922
f 946 924 923
f 945 946 923
f 925 903 924
f 946 925 924
f 948 926 925
f 947 948 925
f 949 927 926
f 948 949 926
f 950 928 927
f 949 950 927
f 951 929 928
f 950 951 928
f 952 930 929
f 951 952 929
f 953 931 930
f 952 953 930
f 954 932 931
f 953 954 931
f 955 933 932
f 954 955 932
f 956 934 933
f 955 956 933
f 957 935 934
f 956 957 934
f 958 936 935
f 957 958 935
f 959 937 936
f 958 959 936
f 960 938 937
f 959 960 937
f 961 939 938
f 960 961 938
f 962 940 939
f 961 962 939
f 963 941 940
f 962 963 940
f 964 942 941
f 963 964 941
f 965 943 942
f 964 965 942
f 966 944 943
f 965 966 943
f 967 945 944
f 966 967 944
f 968 946 945
f 967 968 945
f 947 925 946
f 968 947 946
f 970 948 947
f 969 970 947
f 971 949 948
f 970 971 948
f 972 950 949
f 971 972 949
f 973 951 950
f 972 973 950
f 974 952 951
f 973 974 951
f 975 953 952
f 974 975 952
f 976 954 953
f 975 976 953
f 977 955 954
f 976 977 954
f 978 956 955
f 977 978 955
f 979 957 956
f 978 979 956
f 980 958 957
f 979 980 957
f 981 959 958
f 980 981 958
f 982 960 959
f 981 982 959
f 983 961 960
f 982 983 960
f 984 962 961
f 983 984 961
f 985 963 962
f 984 985 962
f 986 964 963
f 985 986 963
f 987 965 964
f 986 987 964
f 988 966 965
f 987 988 965
f 989 967 966
f 988 989 966
f 990 968 967
f 989 990 967
f 969 947 968
f 990 969 968
f 992 970 969
f 991 992 969
f 993 971 970
f 992 993 970
f 994 972 971
f 993 994 971
f 995 973 972
f 994 995 972
f 996 974 973
f 995 996 973
f 997 975 974
f 996 997 974
f 998 976 975
f 997 998 975
f 999 977 976
f 998 999 976
f 1000 978 977
f 999 1000 977
f 1001 979 978
f 1000 1001 978
f 1002 980 979
f 1001 1002 979
f 1003 981 980
f 1002 1003 980
f 1004 982 981
f 1003 1004 981
f 1005 983 982
f 1004 1005 982
f 1006 984 983
f 1005 1006 983
f 1007 985 984
f 1006 1007 984
f 1008 986 985
f 1007 1008 985
f 1009 987 986
f 1008 1009 986
f 1010 988 987
f 1009 1010 987
f 1011 989 988
f 1010 1011 988
f 1012 990 989
f 1011 1012 989
f 991 969 990
f 1012 991 990
f 1014 992 991
f 1013 1014 991
f 1015 993 992
f 1014 1015 992
f 1016 994 993
f 1015 1016 993
f 1017 995 994
f 1016 1017 994
f 1018 996 995
f 1017 1018 995
f 1019 997 996
f 1018 1019 996
f 1020 998 997
f 1019 1020 997
f 1021 999 998
f 1020 1021 998
f 1022 1000 999
f 1021 1022 999
f 1023 1001 1000
f 1022 1023 1000
f 1024 1002 1001
f 1023 1024 1001
f 1025 1003 1002
f 1024 1025 1002
f 1026 1004 1003
f 1025 1026 1003
f 1027 1005 1004
f 1026 1027 1004
f 1028 1006 1005
f 1027 1028 1005
f 1029 1007 1006
f 1028 1029 1006
f 1030 1008 1007
f 1029 1030 1007
f 1031 1009 1008
f 1030 1031 1008
f 1032 1010 1009
f 1031 1032 1009
f 1033 1011 1010
f 1032 1033 1010
f 1034 1012 1011
f 1033 1034 1011
f 1013 991 1012
f 1034 1013 1012
f 1036 1014 1013
f 1035 1036 1013
f 1037 1015 1014
f 1036 1037 1014
f 1038 1016 1015
f 1037 1038 1015
f 1039 1017 1016
f 1038 1039 1016
f 1040 1018 1017
f 1039 1040 1017
f 1041 1019 1018
f 1040 1041 1018
f 1042 1020 1019
f 1041 1042 1019
f 1043 1021 1020
f 1042 1043 1020
f 1044 1022 1021
f 1043 1044 1021
f 1045 1023 1022
f 1044 1045 1022
f 1046 1024 1023
f 1045 1046 1023
f 1047 1025 1024
f 1046 1047 1024
f 1048 1026 1025
f 1047 1048 1025
f 1049 1027 1026
f 1048 1049 1026
f 1050 1028 1027
f 1049 1050 1027
f 1051 1029 1028
f 1050 1051 1028
f 1052 1030 1029
f 1051 1052 1029
f 1053 1031 1030
f 1052 1053 1030
f 1054 1032 1031
f 1053 1054 1031
f 1055 1033 1032
f 1054 1055 1032
f 1056 1034 1033
f 1055 1056 1033
f 1035 1013 1034
f 1056 1035 1034
f 1058 1036 1035
f 1057 1058 1035
f 1059 1037 1036
f 1058 1059 1036
f 1060 1038 1037
f 1059 1060 1037
f 1061 1039 1038
f 1060 1061 1038
f 1062 1040 1039
f 1061 1062 1039
f 1063 1041 1040
f 1062 1063 1040
f 1064 1042 1041
f 1063 1064 1041
f 1065 1043 1042
f 1064 1065 1042
f 1066 1044 1043
f 1065 1066 1043
f 1067 1045 1044
f 1066 1067 1044
f 1068 1046 1045
f 1067 1068 1045
f 1069 1047 1046
f 1068 1069 1046
f 1070 1048 1047
f 1069 1070 1047
f 1071 1049 1048
f 1070 1071 1048
f 1072 1050 1049
f 1071 1072 1049
f 1073 1051 1050
f 1072 1073 1050
f 1074 1052 1051
f 1073 1074 1051
f 1075 1053 1052
f 1074 1075 1052
f 1076 1054 1053
f 1075 1076 1053
f 1077 1055 1054
f 1076 1077 1054
f 1078 1056 1055
f 1077 1078 1055
f 1057 1035 1056
f 1078 1057 1056
f 1080 1058 1057
f 1079 1080 1057
f 1081 1059 1058
f 1080 1081 1058
f 1082 1060 1059
f 1081 1082 1059
f 1083 1061 1060
f 1082 1083 1060
f 1084 1062 1061
f 1083 1084 1061
f 1085 1063 1062
f 1084 1085 1062
f 1086 1064 1063
f 1085 1086 1063
f 1087 1065 1064
f 1086 1087 1064
f 1088 1066 1065
f 1087 1088 1065
f 1089 1067 1066
f 1088 1089 1066
f 1090 1068 1067
f 1089 1090 1067
f 1091 1069 1068
f 1090 1091 1068
f 1092 1070 1069
f 1091 1092 1069
f 1093 1071 1070
f 1092 1093 1070
f 1094 1072 1071
f 1093 1094 1071
f 1095 1073 1072
f 1094 1095 1072
f 1096 1074 1073
f 1095 1096 1073
f 1097 1075 1074
f 1096 1097 1074
f 1098 1076 1075
f 1097 1098 1075
f 1099 1077 1076
f 1098 1099 1076
f 1100 1078 1077
f 1099 1100 1077
f 1079 1057 1078
f 1100 1079 1078
f 1102 1080 1079
f 1101 1102 1079
f 1103 1081 1080
f 1102 1103 1080
f 1104 1082 1081
f 1103 1104 1081
f 1105 1083 1082
f 1104 1105 1082
f 1106 1084 1083
f 1105 1106 1083
f 1107 1085 1084
f 1106 1107 1084
f 1108 1086 1085
f 1107 1108 1085
f 1109 1087 1086
f 1108 1109 1086
f 1110 1088 1087
f 1109 1110 1087
f 1111 1089 1088
f 1110 1111 1088
f 1112 1090 1089
f 1111 1112 1089
f 1113 1091 1090
f 1112 1113 1090
f 1114 1092 1091
f 1113 1114 1091
f 1115 1093 1092
f 1114 1115 1092
f 1116 1094 1093
f 1115 1116 1093
f 1117 1095 1094
f 1116 1117 1094
f 1118 1096 1095
f 1117 1118 1095
f 1119 1097 1096
f 1118 1119 1096
f 1120 1098 1097
f 1119 1120 1097
f 1121 1099 1098
f 1120 1121 1098
f 1122 1100 1099
f 1121 1122 1099
f 1101 1079 1100
f 1122 1101 1100
f 1124 1102 1101
f 1123 1124 1101
f 1125 1103 1102
f 1124 1125 1102
f 1126 1104 1103
f 1125 1126 1103
f 1127 1105 1104
f 1126 1127 1104
f 1128 1106 1105
f 1127 1128 1105
f 1129 1107 1106
f 1128 1129 1106
f 1130 1108 1107
f 1129 1130 1107
f 1131 1109 1108
f 1130 1131 1108
f 1132 1110 1109
f 1131 1132 1109
f 1133 1111 1110
f 1132 1133 1110
f 1134 1112 1111
f 1133 1134 1111
f 1135 1113 1112
f 1134 1135 1112
f 1136 1114 1113
f 1135 1136 1113
f 1137 1115 1114
f 1136 1137 1114
f 1138 1116 1115
f 1137 1138 1115
f 1139 1117 1116
f 1138 1139 1116
f 1140 1118 1117
f 1139 1140 1117
f 1141 1119 1118
f 1140 1141 1118
f 1142 1120 1119
f 1141 1142 1119
f 1143 1121 1120
f 1142 1143 1120
f 1144 1122 1121
f 1143 1144 1121
f 1123 1101 1122
f 1144 1123 1122
f 1146 1124 1123
f 1145 1146 1123
f 1147 1125 1124
f 1146 1147 1124
f 1148 1126 1125
f 1147 1148 1125
f 1149 1127 1126
f 1148 1149 1126
f 1150 1128 1127
f 1149 1150 1127
f 1151 1129 1128
f 1150 1151 1128
f 1152 1130 1129
f 1151 1152 1129
f 1153 1131 1130
f 1152 1153 1130
f 1154 1132 1131
f 1153 1154 1131
f 1155 1133 1132
f 1154 1155 1132
f 1156 1134 1133
f 1155 1156 1133
f 1157 1135 1134
f 1156 1157 1134
f 1158 1136 1135
f 1157 1158 1135
f 1159 1137 1136
f 1158 1159 1136
f 1160 1138 1137
f 1159 1160 1137
f 1161 1139 1138
f 1160 1161 1138
f 1162 1140 1139
f 1161 1162 1139
f 1163 1141 1140
f 1162 1163 1140
f 1164 1142 1141
f 1163 1164 1141
f 1165 1143 1142
f 1164 1165 1142
f 1166 1144 1143
f 1165 1166 1143
f 1145 1123 1144
f 1166 1145 1144
f 1168 1146 1145
f 1167 1168 1145
f 1169 1147 1146
f 1168 1169 1146
f 1170 1148 1147
f 1169 1170 1147
f 1171 1149 1148
f 1170 1171 1148
f 1172 1150 1149
f 1171 1172 1149
f 1173 1151 1150
f 1172 1173 1150
f 1174 1152 1151
f 1173 1174 1151
f 1175 1153 1152
f 1174 1175 1152
f 1176 1154 1153
f 1175 1176 1153
f 1177 1155 1154
f 1176 1177 1154
f 1178 1156 1155
f 1177 1178 1155
f 1179 1157 1156
f 1178 1179 1156
f 1180 1158 1157
f 1179 1180 1157
f 1181 1159 1158
f 1180 1181 1158
f 1182 1160 1159
f 1181 1182 1159
f 1183 1161 1160
f 1182 1183 1160
f 1184 1162 1161
f 1183 1184 1161
f 1185 1163 1162
f 1184 1185 1162
f 1186 1164 1163
f 1185 1186 1163
f 1187 1165 1164
f 1186 1187 1164
f 1188 1166 1165
f 1187 1188 1165
f 1167 1145 1166
f 1188 1167 1166
f 1190 1168 1167
f 1189 1190 1167
f 1191 1169 1168
f 1190 1191 1168
f 1192 1170 1169
f 1191 1192 1169
f 1193 1171 1170
f 1192 1193 1170
f 1194 1172 1171
f 1193 1194 1171
f 1195 1173 1172
f 1194 1195 1172
f 1196 1174 1173
f 1195 1196 1173
f 1197 1175 1174
f 1196 1197 1174
f 1198 1176 1175
f 1197 1198 1175
f 1199 1177 1176
f 1198 1199 1176
f 1200 1178 1177
f 1199 1200 1177
f 1201 1179 1178
f 1200 1201 1178
f 1202 1180 1179
f 1201 1202 1179
f 1203 1181 1180
f 1202 1203 1180
f 1204 1182 1181
f 1203 1204 1181
f 1205 1183 1182
f 1204 1205 1182
f 1206 1184 1183
f 1205 1206 1183
f 1207 1185 1184
f 1206 1207 1184
f 1208 1186 1185
f 1207 1208 1185
f 1209 1187 1186
f 1208 1209 1186
f 1210 1188 1187
f 1209 1210 1187
f 1189 1167 1188
f 1210 1189 1188
f 1 2 1211
f 1190 1189 1212
f 2 3 1211
f 1191 1190 1212
f 3 4 1211
f 1192 1191 1212
f 4 5 1211
f 1193 1192 1212
f 5 6 1211
f 1194 1193 1212
f 6 7 1211
f 1195 1194 1212
f 7 8 1211
f 1196 1195 1212
f 8 9 1211
f 1197 1196 1212
f 9 10 1211
f 1198 1197 1212
f 10 11 1211
f 1199 1198 1212
f 11 12 1211
f 1200 1199 1212
f 12 13 1211
f 1201 1200 1212
f 13 14 1211
f 1202 1201 1212
f 14 15 1211
f 1203 1202 1212
f 15 16 1211
f 1204 1203 1212
f 16 17 1211
f 1205 1204 1212
f 17 18 1211
f 1206 1205 1212
f 18 19 1211
f 1207 1206 1212
f 19 20 1211
f 1208 1207 1212
f 20 21 1211
f 1209 1208 1212
f 21 22 1211
f 1210 1209 1212
f 22 1 1211
f 1189 1210 1212
