v -0.445000 0.017 -1.012000
v -0.445000 0.017 1.012000
v -0.445000 -0.017 -1.012000
v -0.445000 -0.017 1.012000
v -0.445000 0.017 -1.012000
v -0.445000 0.017 1.012000
v -0.442000 0.02 1.012000
v -0.442000 0.02 -1.012000
v -0.442000 0.017 -1.015000
v -0.445000 0.017 -1.012000
v -0.445000 -0.017 -1.012000
v -0.442000 -0.017 -1.015000
v -0.442000 0.017 1.015000
v -0.445000 0.017 1.012000
v -0.445000 -0.017 1.012000
v -0.442000 -0.017 1.015000
v -0.445000 -0.017 -1.012000
v -0.445000 -0.017 1.012000
v -0.442000 -0.02 1.012000
v -0.442000 -0.02 -1.012000
v -0.442000 0.017 -1.015000
v -0.445000 0.017 -1.012000
v -0.442000 0.02 -1.012000
v -0.442000 0.017 1.015000
v -0.445000 0.017 1.012000
v -0.442000 0.02 1.012000
v -0.442000 0.02 -1.012000
v -0.442000 0.02 1.012000
v 0.442000 0.02 1.012000
v 0.442000 0.02 -1.012000
v -0.158100 0.02 0.576600
v 0.175900 0.02 0.576600
v -0.164100 0.02 0.570600
v -0.164100 0.02 -0.083400
v -0.158100 0.02 -0.089400
v 0.175900 0.02 -0.089400
v 0.181900 0.02 -0.083400
v 0.181900 0.02 0.570600
v -0.442000 0.017 -1.015000
v -0.442000 -0.017 -1.015000
v 0.442000 0.017 -1.015000
v 0.442000 -0.017 -1.015000
v -0.442000 -0.017 -1.015000
v -0.445000 -0.017 -1.012000
v -0.442000 -0.02 -1.012000
v -0.442000 0.017 1.015000
v -0.442000 -0.017 1.015000
v 0.442000 0.017 1.015000
v 0.442000 -0.017 1.015000
v -0.442000 -0.02 1.012000
v -0.445000 -0.017 1.012000
v -0.442000 -0.017 1.015000
v -0.442000 -0.02 -1.012000
v -0.442000 -0.02 1.012000
v 0.442000 -0.02 1.012000
v 0.442000 -0.02 -1.012000
v -0.158100 -0.02 0.576600
v 0.175900 -0.02 0.576600
v -0.164100 -0.02 0.570600
v -0.164100 -0.02 -0.083400
v -0.158100 -0.02 -0.089400
v 0.175900 -0.02 -0.089400
v 0.181900 -0.02 -0.083400
v 0.181900 -0.02 0.570600
v -0.442000 0.017 -1.015000
v -0.442000 0.02 -1.012000
v 0.442000 0.02 -1.012000
v 0.442000 0.017 -1.015000
v -0.442000 0.017 1.015000
v -0.442000 0.02 1.012000
v 0.442000 0.02 1.012000
v 0.442000 0.017 1.015000
v 0.445000 0.017 -1.012000
v 0.442000 0.02 -1.012000
v 0.442000 0.02 1.012000
v 0.445000 0.017 1.012000
v -0.158100 0.02 0.576600
v -0.158100 0.017 0.573600
v 0.175900 0.02 0.576600
v 0.175900 0.017 0.573600
v -0.158100 0.02 0.576600
v -0.158100 0.017 0.573600
v -0.164100 0.02 0.570600
v -0.161100 0.017 0.570600
v 0.175900 0.02 0.576600
v 0.175900 0.017 0.573600
v 0.181900 0.02 0.570600
v 0.178900 0.017 0.570600
v -0.164100 0.02 0.570600
v -0.161100 0.017 0.570600
v -0.164100 0.02 -0.083400
v -0.161100 0.017 -0.083400
v 0.181900 0.02 0.570600
v 0.178900 0.017 0.570600
v 0.181900 0.02 -0.083400
v 0.178900 0.017 -0.083400
v -0.158100 0.02 -0.089400
v -0.158100 0.017 -0.086400
v -0.164100 0.02 -0.083400
v -0.161100 0.017 -0.083400
v 0.181900 0.02 -0.083400
v 0.178900 0.017 -0.083400
v 0.175900 0.02 -0.089400
v 0.175900 0.017 -0.086400
v -0.158100 0.02 -0.089400
v -0.158100 0.017 -0.086400
v 0.175900 0.02 -0.089400
v 0.175900 0.017 -0.086400
v -0.442000 -0.017 -1.015000
v -0.442000 -0.02 -1.012000
v 0.442000 -0.02 -1.012000
v 0.442000 -0.017 -1.015000
v 0.445000 0.017 -1.012000
v 0.442000 0.017 -1.015000
v 0.442000 -0.017 -1.015000
v 0.445000 -0.017 -1.012000
v -0.442000 -0.02 1.012000
v -0.442000 -0.017 1.015000
v 0.442000 -0.017 1.015000
v 0.442000 -0.02 1.012000
v 0.442000 0.017 1.015000
v 0.445000 0.017 1.012000
v 0.442000 -0.017 1.015000
v 0.445000 -0.017 1.012000
v 0.445000 -0.017 -1.012000
v 0.442000 -0.02 -1.012000
v 0.442000 -0.02 1.012000
v 0.445000 -0.017 1.012000
v -0.158100 -0.02 0.576600
v -0.158100 -0.017 0.573600
v 0.175900 -0.02 0.576600
v 0.175900 -0.017 0.573600
v -0.158100 -0.02 0.576600
v -0.158100 -0.017 0.573600
v -0.164100 -0.02 0.570600
v -0.161100 -0.017 0.570600
v 0.175900 -0.02 0.576600
v 0.175900 -0.017 0.573600
v 0.181900 -0.02 0.570600
v 0.178900 -0.017 0.570600
v -0.164100 -0.02 0.570600
v -0.161100 -0.017 0.570600
v -0.164100 -0.02 -0.083400
v -0.161100 -0.017 -0.083400
v 0.181900 -0.02 0.570600
v 0.178900 -0.017 0.570600
v 0.181900 -0.02 -0.083400
v 0.178900 -0.017 -0.083400
v -0.158100 -0.02 -0.089400
v -0.158100 -0.017 -0.086400
v -0.164100 -0.02 -0.083400
v -0.161100 -0.017 -0.083400
v 0.181900 -0.02 -0.083400
v 0.178900 -0.017 -0.083400
v 0.175900 -0.02 -0.089400
v 0.175900 -0.017 -0.086400
v -0.158100 -0.02 -0.089400
v -0.158100 -0.017 -0.086400
v 0.175900 -0.02 -0.089400
v 0.175900 -0.017 -0.086400
v 0.445000 0.017 -1.012000
v 0.442000 0.02 -1.012000
v 0.442000 0.017 -1.015000
v 0.442000 0.017 1.015000
v 0.442000 0.02 1.012000
v 0.445000 0.017 1.012000
v 0.445000 0.017 -1.012000
v 0.445000 0.017 1.012000
v 0.445000 -0.017 -1.012000
v 0.445000 -0.017 1.012000
v -0.158100 0.017 0.573600
v 0.175900 0.017 0.573600
v 0.175900 -0.017 0.573600
v -0.158100 -0.017 0.573600
v -0.158100 0.017 0.573600
v -0.158100 -0.017 0.573600
v -0.161100 -0.017 0.570600
v -0.161100 0.017 0.570600
v 0.175900 0.017 0.573600
v 0.175900 -0.017 0.573600
v 0.178900 -0.017 0.570600
v 0.178900 0.017 0.570600
v -0.161100 0.017 0.570600
v -0.161100 0.017 -0.083400
v -0.161100 -0.017 -0.083400
v -0.161100 -0.017 0.570600
v 0.178900 0.017 0.570600
v 0.178900 0.017 -0.083400
v 0.178900 -0.017 -0.083400
v 0.178900 -0.017 0.570600
v -0.158100 0.017 -0.086400
v -0.158100 -0.017 -0.086400
v -0.161100 -0.017 -0.083400
v -0.161100 0.017 -0.083400
v 0.178900 0.017 -0.083400
v 0.178900 -0.017 -0.083400
v 0.175900 -0.017 -0.086400
v 0.175900 0.017 -0.086400
v -0.158100 0.017 -0.086400
v 0.175900 0.017 -0.086400
v 0.175900 -0.017 -0.086400
v -0.158100 -0.017 -0.086400
v 0.445000 -0.017 -1.012000
v 0.442000 -0.02 -1.012000
v 0.442000 -0.017 -1.015000
v 0.445000 -0.017 1.012000
v 0.442000 -0.017 1.015000
v 0.442000 -0.02 1.012000
f 1 3 2
f 3 4 2
f 8 5 6
f 8 6 7
f 10 9 12
f 11 10 12
f 13 14 16
f 14 15 16
f 18 17 19
f 17 20 19
f 21 22 23
f 25 24 26
f 30 27 35
f 27 34 35
f 30 35 36
f 30 36 37
f 31 33 28
f 33 34 28
f 34 27 28
f 32 31 29
f 37 38 29
f 38 32 29
f 31 28 29
f 30 37 29
f 40 39 42
f 39 41 42
f 44 43 45
f 46 47 49
f 48 46 49
f 51 50 52
f 53 56 61
f 60 53 61
f 61 56 62
f 62 56 63
f 59 57 54
f 60 59 54
f 53 60 54
f 57 58 55
f 64 63 55
f 58 64 55
f 54 57 55
f 63 56 55
f 65 66 68
f 66 67 68
f 70 69 71
f 71 69 72
f 73 74 75
f 73 75 76
f 78 77 80
f 77 79 80
f 81 82 84
f 83 81 84
f 86 85 88
f 85 87 88
f 89 90 92
f 91 89 92
f 94 93 96
f 93 95 96
f 98 97 100
f 97 99 100
f 102 101 104
f 101 103 104
f 105 106 108
f 107 105 108
f 110 109 112
f 111 110 112
f 114 113 116
f 115 114 116
f 118 117 120
f 119 118 120
f 122 121 124
f 121 123 124
f 126 125 128
f 127 126 128
f 129 130 132
f 131 129 132
f 134 133 136
f 133 135 136
f 137 138 140
f 139 137 140
f 142 141 144
f 141 143 144
f 145 146 148
f 147 145 148
f 149 150 152
f 151 149 152
f 153 154 156
f 155 153 156
f 158 157 160
f 157 159 160
f 162 161 163
f 165 164 166
f 169 167 168
f 170 169 168
f 171 172 173
f 174 171 173
f 175 176 177
f 178 175 177
f 180 179 181
f 179 182 181
f 185 184 183
f 186 185 183
f 188 189 187
f 189 190 187
f 192 191 193
f 191 194 193
f 196 195 197
f 195 198 197
f 200 199 201
f 199 202 201
f 203 204 205
f 206 207 208
