v 0.009000 0.011200 0.031200
v 0.009000 0.011200 2.076800
v 0.009000 0.051800 0.031200
v 0.009000 0.051800 2.076800
v 0.009000 0.011200 0.031200
v 0.009000 0.011200 2.076800
v 0.011200 0.009000 2.076800
v 0.011200 0.009000 0.031200
v 0.011200 0.011200 0.029000
v 0.009000 0.011200 0.031200
v 0.009000 0.051800 0.031200
v 0.011200 0.051800 0.029000
v 0.011200 0.011200 2.079000
v 0.009000 0.011200 2.076800
v 0.009000 0.051800 2.076800
v 0.011200 0.051800 2.079000
v 0.009000 0.051800 0.031200
v 0.009000 0.051800 2.076800
v 0.011200 0.054000 2.076800
v 0.011200 0.054000 0.031200
v 0.011200 0.011200 0.029000
v 0.009000 0.011200 0.031200
v 0.011200 0.009000 0.031200
v 0.011200 0.011200 2.079000
v 0.009000 0.011200 2.076800
v 0.011200 0.009000 2.076800
v 0.011200 0.009000 0.031200
v 0.011200 0.009000 2.076800
v 0.897800 0.009000 2.076800
v 0.897800 0.009000 0.031200
v 0.025000 0.009000 0.547100
v 0.785750 0.009000 0.547100
v 0.025000 0.009000 0.542900
v 0.785750 0.009000 0.542900
v 0.785750 0.009000 0.049000
v 0.790250 0.009000 0.049000
v 0.790250 0.009000 0.542900
v 0.884000 0.009000 0.542900
v 0.884000 0.009000 0.547100
v 0.790250 0.009000 0.547100
v 0.790250 0.009000 1.112900
v 0.884000 0.009000 1.112900
v 0.884000 0.009000 1.117100
v 0.790250 0.009000 1.117100
v 0.790250 0.009000 1.682900
v 0.884000 0.009000 1.682900
v 0.884000 0.009000 1.687100
v 0.790250 0.009000 1.687100
v 0.790250 0.009000 2.059000
v 0.785750 0.009000 2.059000
v 0.785750 0.009000 1.687100
v 0.025000 0.009000 1.687100
v 0.025000 0.009000 1.682900
v 0.785750 0.009000 1.682900
v 0.785750 0.009000 1.117100
v 0.025000 0.009000 1.117100
v 0.025000 0.009000 1.112900
v 0.785750 0.009000 1.112900
v 0.011200 0.011200 0.029000
v 0.011200 0.051800 0.029000
v 0.897800 0.011200 0.029000
v 0.897800 0.051800 0.029000
v 0.011200 0.051800 0.029000
v 0.009000 0.051800 0.031200
v 0.011200 0.054000 0.031200
v 0.011200 0.011200 2.079000
v 0.011200 0.051800 2.079000
v 0.897800 0.011200 2.079000
v 0.897800 0.051800 2.079000
v 0.011200 0.054000 2.076800
v 0.009000 0.051800 2.076800
v 0.011200 0.051800 2.079000
v 0.011200 0.054000 0.031200
v 0.011200 0.054000 2.076800
v 0.897800 0.054000 2.076800
v 0.897800 0.054000 0.031200
v 0.011200 0.011200 0.029000
v 0.011200 0.009000 0.031200
v 0.897800 0.009000 0.031200
v 0.897800 0.011200 0.029000
v 0.011200 0.011200 2.079000
v 0.011200 0.009000 2.076800
v 0.897800 0.009000 2.076800
v 0.897800 0.011200 2.079000
v 0.900000 0.011200 0.031200
v 0.900000 0.011200 2.076800
v 0.897800 0.009000 2.076800
v 0.897800 0.009000 0.031200
v 0.025000 0.009000 0.547100
v 0.025000 0.011200 0.547100
v 0.785750 0.009000 0.547100
v 0.785750 0.011200 0.547100
v 0.785750 0.009000 0.547100
v 0.785750 0.011200 0.547100
v 0.785750 0.011200 1.112900
v 0.785750 0.009000 1.112900
v 0.025000 0.009000 1.112900
v 0.025000 0.011200 1.112900
v 0.785750 0.009000 1.112900
v 0.785750 0.011200 1.112900
v 0.025000 0.009000 1.117100
v 0.025000 0.011200 1.117100
v 0.025000 0.009000 1.112900
v 0.025000 0.011200 1.112900
v 0.025000 0.009000 1.117100
v 0.025000 0.011200 1.117100
v 0.785750 0.009000 1.117100
v 0.785750 0.011200 1.117100
v 0.785750 0.011200 1.117100
v 0.785750 0.011200 1.682900
v 0.785750 0.009000 1.682900
v 0.785750 0.009000 1.117100
v 0.025000 0.009000 1.682900
v 0.025000 0.011200 1.682900
v 0.785750 0.009000 1.682900
v 0.785750 0.011200 1.682900
v 0.025000 0.009000 1.687100
v 0.025000 0.011200 1.687100
v 0.025000 0.009000 1.682900
v 0.025000 0.011200 1.682900
v 0.025000 0.009000 1.687100
v 0.025000 0.011200 1.687100
v 0.785750 0.009000 1.687100
v 0.785750 0.011200 1.687100
v 0.785750 0.009000 2.059000
v 0.785750 0.011200 2.059000
v 0.785750 0.009000 1.687100
v 0.785750 0.011200 1.687100
v 0.785750 0.009000 2.059000
v 0.785750 0.011200 2.059000
v 0.790250 0.009000 2.059000
v 0.790250 0.011200 2.059000
v 0.790250 0.009000 2.059000
v 0.790250 0.011200 2.059000
v 0.790250 0.009000 1.687100
v 0.790250 0.011200 1.687100
v 0.790250 0.009000 1.687100
v 0.790250 0.011200 1.687100
v 0.884000 0.009000 1.687100
v 0.884000 0.011200 1.687100
v 0.884000 0.009000 1.687100
v 0.884000 0.011200 1.687100
v 0.884000 0.009000 1.682900
v 0.884000 0.011200 1.682900
v 0.790250 0.009000 1.682900
v 0.790250 0.011200 1.682900
v 0.884000 0.009000 1.682900
v 0.884000 0.011200 1.682900
v 0.790250 0.011200 1.117100
v 0.790250 0.011200 1.682900
v 0.790250 0.009000 1.682900
v 0.790250 0.009000 1.117100
v 0.790250 0.009000 1.117100
v 0.790250 0.011200 1.117100
v 0.884000 0.009000 1.117100
v 0.884000 0.011200 1.117100
v 0.884000 0.009000 1.117100
v 0.884000 0.011200 1.117100
v 0.884000 0.009000 1.112900
v 0.884000 0.011200 1.112900
v 0.790250 0.009000 1.112900
v 0.790250 0.011200 1.112900
v 0.884000 0.009000 1.112900
v 0.884000 0.011200 1.112900
v 0.790250 0.009000 0.547100
v 0.790250 0.011200 0.547100
v 0.790250 0.011200 1.112900
v 0.790250 0.009000 1.112900
v 0.790250 0.009000 0.547100
v 0.790250 0.011200 0.547100
v 0.884000 0.009000 0.547100
v 0.884000 0.011200 0.547100
v 0.884000 0.009000 0.547100
v 0.884000 0.011200 0.547100
v 0.884000 0.009000 0.542900
v 0.884000 0.011200 0.542900
v 0.790250 0.009000 0.542900
v 0.790250 0.011200 0.542900
v 0.884000 0.009000 0.542900
v 0.884000 0.011200 0.542900
v 0.790250 0.009000 0.542900
v 0.790250 0.009000 0.049000
v 0.790250 0.011200 0.049000
v 0.790250 0.011200 0.542900
v 0.785750 0.009000 0.049000
v 0.785750 0.011200 0.049000
v 0.790250 0.009000 0.049000
v 0.790250 0.011200 0.049000
v 0.785750 0.009000 0.542900
v 0.785750 0.009000 0.049000
v 0.785750 0.011200 0.049000
v 0.785750 0.011200 0.542900
v 0.025000 0.009000 0.542900
v 0.025000 0.011200 0.542900
v 0.785750 0.009000 0.542900
v 0.785750 0.011200 0.542900
v 0.025000 0.009000 0.547100
v 0.025000 0.011200 0.547100
v 0.025000 0.009000 0.542900
v 0.025000 0.011200 0.542900
v 0.011200 0.051800 0.029000
v 0.011200 0.054000 0.031200
v 0.897800 0.054000 0.031200
v 0.897800 0.051800 0.029000
v 0.897800 0.011200 0.029000
v 0.900000 0.011200 0.031200
v 0.900000 0.051800 0.031200
v 0.897800 0.051800 0.029000
v 0.011200 0.054000 2.076800
v 0.011200 0.051800 2.079000
v 0.897800 0.054000 2.076800
v 0.897800 0.051800 2.079000
v 0.897800 0.011200 2.079000
v 0.900000 0.011200 2.076800
v 0.900000 0.051800 2.076800
v 0.897800 0.051800 2.079000
v 0.900000 0.051800 0.031200
v 0.900000 0.051800 2.076800
v 0.897800 0.054000 2.076800
v 0.897800 0.054000 0.031200
v 0.897800 0.011200 0.029000
v 0.900000 0.011200 0.031200
v 0.897800 0.009000 0.031200
v 0.897800 0.011200 2.079000
v 0.900000 0.011200 2.076800
v 0.897800 0.009000 2.076800
v 0.900000 0.011200 0.031200
v 0.900000 0.011200 2.076800
v 0.900000 0.051800 0.031200
v 0.900000 0.051800 2.076800
v 0.025000 0.011200 0.542900
v 0.785750 0.011200 0.542900
v 0.025000 0.011200 0.547100
v 0.785750 0.011200 0.547100
v 0.785750 0.011200 1.112900
v 0.025000 0.011200 1.112900
v 0.025000 0.011200 1.117100
v 0.785750 0.011200 1.117100
v 0.785750 0.011200 1.682900
v 0.025000 0.011200 1.682900
v 0.025000 0.011200 1.687100
v 0.785750 0.011200 1.687100
v 0.785750 0.011200 2.059000
v 0.790250 0.011200 2.059000
v 0.790250 0.011200 1.687100
v 0.884000 0.011200 1.687100
v 0.884000 0.011200 1.682900
v 0.790250 0.011200 1.682900
v 0.790250 0.011200 1.117100
v 0.884000 0.011200 1.117100
v 0.884000 0.011200 1.112900
v 0.790250 0.011200 1.112900
v 0.790250 0.011200 0.547100
v 0.884000 0.011200 0.547100
v 0.884000 0.011200 0.542900
v 0.790250 0.011200 0.542900
v 0.790250 0.011200 0.049000
v 0.785750 0.011200 0.049000
v 0.897800 0.051800 0.029000
v 0.900000 0.051800 0.031200
v 0.897800 0.054000 0.031200
v 0.897800 0.054000 2.076800
v 0.900000 0.051800 2.076800
v 0.897800 0.051800 2.079000
f 2 3 1
f 2 4 3
f 6 5 8
f 7 6 8
f 12 9 10
f 12 10 11
f 16 14 13
f 16 15 14
f 19 17 18
f 19 20 17
f 23 22 21
f 26 24 25
f 35 33 27
f 30 36 35
f 34 33 35
f 38 37 36
f 38 36 30
f 58 31 32
f 58 57 31
f 42 40 39
f 42 41 40
f 28 53 52
f 54 56 55
f 54 53 56
f 46 44 43
f 46 45 44
f 50 52 51
f 50 28 52
f 49 48 47
f 29 50 49
f 29 49 47
f 27 53 28
f 27 56 53
f 27 57 56
f 27 31 57
f 27 33 31
f 28 50 29
f 29 38 30
f 29 39 38
f 29 42 39
f 29 43 42
f 29 46 43
f 29 47 46
f 30 35 27
f 62 59 60
f 62 61 59
f 65 63 64
f 69 67 66
f 69 66 68
f 72 70 71
f 75 73 74
f 75 76 73
f 79 78 77
f 80 79 77
f 84 81 82
f 84 82 83
f 87 85 86
f 87 88 85
f 92 89 90
f 92 91 89
f 96 93 94
f 96 94 95
f 100 98 97
f 100 97 99
f 101 103 104
f 101 104 102
f 108 105 106
f 108 107 105
f 111 109 110
f 111 112 109
f 116 114 113
f 116 113 115
f 117 119 120
f 117 120 118
f 124 121 122
f 124 123 121
f 125 127 128
f 125 128 126
f 132 129 130
f 132 131 129
f 133 136 135
f 133 134 136
f 140 137 138
f 140 139 137
f 141 144 143
f 141 142 144
f 148 146 145
f 148 145 147
f 151 150 149
f 151 149 152
f 156 153 154
f 156 155 153
f 157 160 159
f 157 158 160
f 164 162 161
f 164 161 163
f 168 166 165
f 168 167 166
f 172 169 170
f 172 171 169
f 173 176 175
f 173 174 176
f 180 178 177
f 180 177 179
f 181 183 182
f 181 184 183
f 188 186 185
f 188 185 187
f 189 190 191
f 189 191 192
f 196 194 193
f 196 193 195
f 197 199 200
f 197 200 198
f 204 201 202
f 204 202 203
f 208 206 205
f 208 207 206
f 212 209 210
f 212 211 209
f 216 213 214
f 216 214 215
f 219 218 217
f 219 217 220
f 223 221 222
f 226 225 224
f 228 227 229
f 228 229 230
f 234 231 232
f 234 233 231
f 256 258 257
f 256 232 258
f 253 232 256
f 253 234 232
f 254 256 255
f 254 253 256
f 238 236 235
f 238 237 236
f 252 235 234
f 252 234 253
f 252 238 235
f 249 238 252
f 250 252 251
f 250 249 252
f 242 240 239
f 242 241 240
f 248 239 238
f 248 238 249
f 245 242 239
f 245 239 248
f 247 245 248
f 246 245 247
f 243 242 245
f 244 243 245
f 261 260 259
f 264 263 262
