o mesh
v -0.013207 0.013778 0.000000
v -0.012790 0.013882 0.001945
v -0.012146 0.014481 0.003733
v -0.011329 0.015528 0.005219
v -0.010404 0.016937 0.006281
v -0.009446 0.018594 0.006835
v -0.008533 0.020365 0.006835
v -0.007739 0.022106 0.006281
v -0.007129 0.023677 0.005219
v -0.006750 0.024950 0.003733
v -0.006635 0.025822 0.001945
v -0.006793 0.026222 0.000000
v -0.007210 0.026118 -0.001945
v -0.007854 0.025519 -0.003733
v -0.008671 0.024472 -0.005219
v -0.009596 0.023063 -0.006281
v -0.010554 0.021406 -0.006835
v -0.011467 0.019635 -0.006835
v -0.012261 0.017894 -0.006281
v -0.012871 0.016323 -0.005219
v -0.013250 0.015050 -0.003733
v -0.013365 0.014178 -0.001945
v -0.014808 0.014604 0.000300
v -0.014378 0.014701 0.002243
v -0.013718 0.015292 0.004028
v -0.012881 0.016328 0.005509
v -0.011935 0.017726 0.006568
v -0.010956 0.019372 0.007117
v -0.010025 0.021133 0.007114
v -0.009215 0.022867 0.006557
v -0.008594 0.024432 0.005492
v -0.008211 0.025703 0.004006
v -0.008097 0.026575 0.002218
v -0.008262 0.026979 0.000274
v -0.008692 0.026882 -0.001669
v -0.009352 0.026291 -0.003453
v -0.010190 0.025254 -0.004935
v -0.011136 0.023857 -0.005993
v -0.012114 0.022210 -0.006543
v -0.013046 0.020449 -0.006539
v -0.013855 0.018716 -0.005983
v -0.014476 0.017150 -0.004918
v -0.014859 0.015880 -0.003432
v -0.014973 0.015007 -0.001644
v -0.016427 0.015483 0.000629
v -0.015974 0.015569 0.002567
v -0.015283 0.016143 0.004345
v -0.014410 0.017160 0.005820
v -0.013426 0.018537 0.006870
v -0.012410 0.020163 0.007412
v -0.011444 0.021906 0.007401
v -0.010608 0.023625 0.006839
v -0.009967 0.025180 0.005770
v -0.009576 0.026445 0.004282
v -0.009464 0.027319 0.002495
v -0.009642 0.027729 0.000553
v -0.010095 0.027644 -0.001385
v -0.010785 0.027069 -0.003163
v -0.011658 0.026052 -0.004638
v -0.012643 0.024675 -0.005688
v -0.013659 0.023049 -0.006230
v -0.014624 0.021306 -0.006219
v -0.015461 0.019588 -0.005657
v -0.016101 0.018033 -0.004588
v -0.016493 0.016767 -0.003100
v -0.016604 0.015894 -0.001313
v -0.017990 0.016370 0.000966
v -0.017520 0.016445 0.002901
v -0.016805 0.017006 0.004674
v -0.015904 0.018008 0.006142
v -0.014890 0.019368 0.007186
v -0.013845 0.020978 0.007722
v -0.012853 0.022705 0.007705
v -0.011994 0.024412 0.007138
v -0.011340 0.025958 0.006066
v -0.010941 0.027220 0.004576
v -0.010831 0.028094 0.002789
v -0.011019 0.028511 0.000850
v -0.011490 0.028435 -0.001085
v -0.012204 0.027874 -0.002858
v -0.013105 0.026873 -0.004326
v -0.014119 0.025512 -0.005370
v -0.015165 0.023903 -0.005906
v -0.016157 0.022175 -0.005889
v -0.017015 0.020469 -0.005322
v -0.017670 0.018922 -0.004250
v -0.018068 0.017661 -0.002760
v -0.018178 0.016786 -0.000973
v -0.019506 0.017257 0.001308
v -0.019023 0.017325 0.003240
v -0.018291 0.017876 0.005009
v -0.017370 0.018866 0.006473
v -0.016334 0.020214 0.007512
v -0.015268 0.021811 0.008043
v -0.014257 0.023528 0.008022
v -0.013383 0.025225 0.007451
v -0.012718 0.026766 0.006377
v -0.012315 0.028024 0.004886
v -0.012206 0.028899 0.003099
v -0.012402 0.029320 0.001162
v -0.012884 0.029252 -0.000770
v -0.013616 0.028700 -0.002540
v -0.014537 0.027711 -0.004003
v -0.015573 0.026363 -0.005042
v -0.016639 0.024766 -0.005573
v -0.017650 0.023049 -0.005552
v -0.018524 0.021352 -0.004981
v -0.019189 0.019811 -0.003907
v -0.019592 0.018553 -0.002416
v -0.019701 0.017677 -0.000630
v -0.020980 0.018139 0.001651
v -0.020489 0.018202 0.003581
v -0.019748 0.018748 0.005348
v -0.018815 0.019730 0.006809
v -0.017766 0.021070 0.007845
v -0.016687 0.022660 0.008373
v -0.015665 0.024370 0.008349
v -0.014782 0.026062 0.007776
v -0.014110 0.027598 0.006701
v -0.013704 0.028855 0.005209
v -0.013596 0.029731 0.003423
v -0.013796 0.030154 0.001486
v -0.014286 0.030090 -0.000444
v -0.015028 0.029545 -0.002211
v -0.015961 0.028562 -0.003672
v -0.017010 0.027222 -0.004708
v -0.018089 0.025632 -0.005236
v -0.019111 0.023922 -0.005212
v -0.019994 0.022231 -0.004640
v -0.020666 0.020694 -0.003564
v -0.021072 0.019437 -0.002072
v -0.021179 0.018562 -0.000286
v -0.022420 0.019009 0.001991
v -0.021927 0.019071 0.003921
v -0.021182 0.019615 0.005687
v -0.020245 0.020595 0.007147
v -0.019193 0.021932 0.008182
v -0.018109 0.023519 0.008709
v -0.017083 0.025227 0.008684
v -0.016197 0.026917 0.008111
v -0.015523 0.028452 0.007034
v -0.015116 0.029709 0.005542
v -0.015009 0.030584 0.003756
v -0.015210 0.031008 0.001820
v -0.015703 0.030946 -0.000110
v -0.016448 0.030403 -0.001876
v -0.017385 0.029423 -0.003336
v -0.018438 0.028085 -0.004371
v -0.019521 0.026498 -0.004898
v -0.020547 0.024790 -0.004873
v -0.021433 0.023100 -0.004300
v -0.022107 0.021565 -0.003224
v -0.022514 0.020309 -0.001732
v -0.022621 0.019433 0.000055
v -0.023834 0.019864 0.002325
v -0.023344 0.019927 0.004255
v -0.022602 0.020473 0.006022
v -0.021669 0.021455 0.007483
v -0.020621 0.022795 0.008519
v -0.019541 0.024385 0.009047
v -0.018519 0.026095 0.009023
v -0.017636 0.027787 0.008450
v -0.016965 0.029323 0.007374
v -0.016558 0.030580 0.005883
v -0.016451 0.031456 0.004096
v -0.016650 0.031879 0.002160
v -0.017141 0.031815 0.000230
v -0.017883 0.031270 -0.001537
v -0.018815 0.030287 -0.002998
v -0.019864 0.028947 -0.004034
v -0.020943 0.027357 -0.004562
v -0.021966 0.025647 -0.004539
v -0.022848 0.023956 -0.003966
v -0.023520 0.022419 -0.002890
v -0.023926 0.021162 -0.001398
v -0.024034 0.020287 0.000388
v -0.025229 0.020697 0.002649
v -0.024746 0.020766 0.004581
v -0.024014 0.021317 0.006350
v -0.023093 0.022307 0.007814
v -0.022058 0.023655 0.008853
v -0.020991 0.025252 0.009384
v -0.019980 0.026969 0.009363
v -0.019106 0.028666 0.008792
v -0.018441 0.030206 0.007718
v -0.018038 0.031465 0.006227
v -0.017930 0.032340 0.004440
v -0.018125 0.032760 0.002502
v -0.018608 0.032692 0.000571
v -0.019339 0.032141 -0.001199
v -0.020260 0.031151 -0.002662
v -0.021296 0.029803 -0.003701
v -0.022362 0.028206 -0.004232
v -0.023373 0.026489 -0.004211
v -0.024247 0.024792 -0.003640
v -0.024912 0.023252 -0.002566
v -0.025315 0.021993 -0.001075
v -0.025424 0.021118 0.000712
v -0.026611 0.021507 0.002962
v -0.026140 0.021582 0.004896
v -0.025426 0.022144 0.006669
v -0.024525 0.023145 0.008137
v -0.023510 0.024506 0.009181
v -0.022465 0.026115 0.009716
v -0.021473 0.027843 0.009700
v -0.020615 0.029549 0.009132
v -0.019960 0.031096 0.008060
v -0.019562 0.032357 0.006570
v -0.019452 0.033231 0.004783
v -0.019640 0.033648 0.002844
v -0.020111 0.033572 0.000909
v -0.020825 0.033011 -0.000864
v -0.021726 0.032009 -0.002332
v -0.022740 0.030649 -0.003376
v -0.023786 0.029039 -0.003911
v -0.024778 0.027311 -0.003894
v -0.025636 0.025605 -0.003327
v -0.026291 0.024059 -0.002255
v -0.026689 0.022797 -0.000765
v -0.026799 0.021923 0.001022
v -0.027988 0.022288 0.003259
v -0.027535 0.022374 0.005197
v -0.026844 0.022949 0.006975
v -0.025971 0.023966 0.008449
v -0.024987 0.025343 0.009500
v -0.023971 0.026969 0.010041
v -0.023005 0.028712 0.010030
v -0.022168 0.030431 0.009467
v -0.021529 0.031986 0.008398
v -0.021137 0.033251 0.006910
v -0.021026 0.034124 0.005122
v -0.021204 0.034534 0.003181
v -0.021657 0.034449 0.001242
v -0.022348 0.033874 -0.000536
v -0.023221 0.032856 -0.002010
v -0.024205 0.031479 -0.003060
v -0.025221 0.029853 -0.003602
v -0.026187 0.028110 -0.003590
v -0.027023 0.026392 -0.003028
v -0.027663 0.024837 -0.001959
v -0.028055 0.023571 -0.000470
v -0.028166 0.022698 0.001317
v -0.029368 0.023038 0.003539
v -0.028937 0.023136 0.005482
v -0.028277 0.023728 0.007266
v -0.027439 0.024765 0.008747
v -0.026493 0.026163 0.009805
v -0.025515 0.027810 0.010354
v -0.024583 0.029571 0.010350
v -0.023774 0.031304 0.009792
v -0.023153 0.032869 0.008727
v -0.022771 0.034139 0.007240
v -0.022657 0.035011 0.005452
v -0.022823 0.035414 0.003508
v -0.023253 0.035316 0.001565
v -0.023913 0.034724 -0.000219
v -0.024751 0.033687 -0.001700
v -0.025697 0.032289 -0.002758
v -0.026675 0.030643 -0.003307
v -0.027607 0.028881 -0.003303
v -0.028416 0.027148 -0.002745
v -0.029037 0.025583 -0.001680
v -0.029419 0.024313 -0.000193
v -0.029533 0.023441 0.001595
v -0.030758 0.023755 0.003800
v -0.030355 0.023867 0.005748
v -0.029731 0.024478 0.007539
v -0.028937 0.025538 0.009028
v -0.028037 0.026960 0.010095
v -0.027104 0.028630 0.010652
v -0.026214 0.030413 0.010655
v -0.025439 0.032163 0.010103
v -0.024841 0.033740 0.009042
v -0.024469 0.035015 0.007557
v -0.024353 0.035885 0.005768
v -0.024503 0.036280 0.003821
v -0.024906 0.036167 0.001873
v -0.025530 0.035557 0.000082
v -0.026323 0.034497 -0.001407
v -0.027223 0.033075 -0.002473
v -0.028156 0.031405 -0.003030
v -0.029046 0.029622 -0.003033
v -0.029822 0.027872 -0.002482
v -0.030420 0.026295 -0.001420
v -0.030792 0.025020 0.000065
v -0.030907 0.024150 0.001853
v -0.032166 0.024436 0.004041
v -0.031795 0.024564 0.005994
v -0.031215 0.025196 0.007792
v -0.030471 0.026280 0.009289
v -0.029626 0.027729 0.010364
v -0.028747 0.029425 0.010930
v -0.027905 0.031231 0.010941
v -0.027168 0.033000 0.010395
v -0.026597 0.034589 0.009338
v -0.026238 0.035870 0.007855
v -0.026119 0.036739 0.006066
v -0.026251 0.037124 0.004115
v -0.026622 0.036996 0.002162
v -0.027203 0.036364 0.000364
v -0.027946 0.035280 -0.001133
v -0.028791 0.033831 -0.002208
v -0.029671 0.032135 -0.002774
v -0.030512 0.030329 -0.002785
v -0.031249 0.028560 -0.002239
v -0.031820 0.026971 -0.001182
v -0.032179 0.025690 0.000301
v -0.032298 0.024822 0.002090
v -0.033603 0.025079 0.004258
v -0.033268 0.025224 0.006216
v -0.032736 0.025878 0.008022
v -0.032050 0.026989 0.009527
v -0.031266 0.028466 0.010611
v -0.030448 0.030189 0.011185
v -0.029661 0.032019 0.011204
v -0.028969 0.033808 0.010664
v -0.028428 0.035411 0.009612
v -0.028083 0.036698 0.008130
v -0.027961 0.037564 0.006340
v -0.028072 0.037940 0.004387
v -0.028407 0.037795 0.002428
v -0.028939 0.037141 0.000623
v -0.029624 0.036030 -0.000883
v -0.030408 0.034554 -0.001967
v -0.031227 0.032830 -0.002541
v -0.032014 0.031000 -0.002559
v -0.032706 0.029211 -0.002020
v -0.033246 0.027608 -0.000967
v -0.033591 0.026322 0.000514
v -0.033713 0.025455 0.002304
v -0.035075 0.025683 0.004450
v -0.034781 0.025845 0.006414
v -0.034303 0.026522 0.008226
v -0.033681 0.027659 0.009739
v -0.032966 0.029164 0.010831
v -0.032214 0.030915 0.011414
v -0.031488 0.032770 0.011439
v -0.030846 0.034579 0.010906
v -0.030339 0.036196 0.009857
v -0.030010 0.037488 0.008377
v -0.029884 0.038353 0.006586
v -0.029972 0.038719 0.004629
v -0.030267 0.038557 0.002666
v -0.030744 0.037880 0.000854
v -0.031366 0.036743 -0.000660
v -0.032081 0.035238 -0.001752
v -0.032833 0.033487 -0.002334
v -0.033559 0.031632 -0.002360
v -0.034201 0.029823 -0.001827
v -0.034708 0.028206 -0.000777
v -0.035038 0.026914 0.000702
v -0.035163 0.026049 0.002493
v -0.036595 0.026246 0.004615
v -0.036344 0.026425 0.006583
v -0.035925 0.027125 0.008402
v -0.035373 0.028288 0.009922
v -0.034731 0.029821 0.011021
v -0.034053 0.031599 0.011611
v -0.033393 0.033478 0.011643
v -0.032804 0.035307 0.011115
v -0.032334 0.036936 0.010069
v -0.032021 0.038235 0.008590
v -0.031891 0.039097 0.006799
v -0.031955 0.039453 0.004840
v -0.032206 0.039274 0.002871
v -0.032624 0.038575 0.001053
v -0.033177 0.037412 -0.000467
v -0.033818 0.035879 -0.001567
v -0.034496 0.034101 -0.002156
v -0.035157 0.032221 -0.002188
v -0.035746 0.030393 -0.001660
v -0.036215 0.028763 -0.000614
v -0.036528 0.027465 0.000864
v -0.036658 0.026602 0.002656
v -0.038171 0.026766 0.004751
v -0.037967 0.026961 0.006724
v -0.037611 0.027682 0.008547
v -0.037132 0.028870 0.010073
v -0.036570 0.030429 0.011178
v -0.035969 0.032233 0.011774
v -0.035379 0.034136 0.011811
v -0.034847 0.035983 0.011287
v -0.034417 0.037625 0.010244
v -0.034122 0.038929 0.008766
v -0.033988 0.039789 0.006974
v -0.034024 0.040136 0.005012
v -0.034229 0.039941 0.003040
v -0.034585 0.039220 0.001217
v -0.035063 0.038032 -0.000309
v -0.035626 0.036473 -0.001415
v -0.036226 0.034669 -0.002010
v -0.036816 0.032766 -0.002047
v -0.037348 0.030919 -0.001523
v -0.037779 0.029277 -0.000480
v -0.038073 0.027973 0.000997
v -0.038208 0.027113 0.002790
v -0.039792 0.027235 0.004856
v -0.039643 0.027447 0.006831
v -0.039360 0.028189 0.008659
v -0.038968 0.029403 0.010189
v -0.038496 0.030989 0.011300
v -0.037985 0.032818 0.011900
v -0.037475 0.034744 0.011941
v -0.037007 0.036609 0.011419
v -0.036620 0.038263 0.010378
v -0.036345 0.039572 0.008901
v -0.036203 0.040429 0.007108
v -0.036208 0.040765 0.005144
v -0.036357 0.040553 0.003169
v -0.036640 0.039811 0.001341
v -0.037032 0.038597 -0.000189
v -0.037504 0.037011 -0.001300
v -0.038015 0.035182 -0.001900
v -0.038525 0.033256 -0.001941
v -0.038993 0.031391 -0.001419
v -0.039380 0.029737 -0.000378
v -0.039655 0.028428 0.001099
v -0.039797 0.027571 0.002892
v -0.042436 0.027890 0.004958
v -0.042333 0.028114 0.006935
v -0.042112 0.028872 0.008764
v -0.041791 0.030103 0.010297
v -0.041394 0.031708 0.011410
v -0.040955 0.033556 0.012011
v -0.040510 0.035497 0.012054
v -0.040093 0.037375 0.011534
v -0.039739 0.039037 0.010493
v -0.039477 0.040348 0.009016
v -0.039328 0.041203 0.007223
v -0.039303 0.041531 0.005258
v -0.039406 0.041307 0.003281
v -0.039627 0.040549 0.001452
v -0.039948 0.039317 -0.000081
v -0.040345 0.037713 -0.001194
v -0.040783 0.035865 -0.001796
v -0.041229 0.033923 -0.001838
v -0.041646 0.032046 -0.001318
v -0.042000 0.030384 -0.000278
v -0.042262 0.029073 0.001199
v -0.042411 0.028218 0.002993
v -0.045277 0.028491 0.005002
v -0.045220 0.028725 0.006980
v -0.045059 0.029497 0.008810
v -0.044807 0.030744 0.010343
v -0.044483 0.032364 0.011456
v -0.044115 0.034227 0.012059
v -0.043731 0.036182 0.012102
v -0.043363 0.038070 0.011582
v -0.043041 0.039738 0.010541
v -0.042791 0.041051 0.009064
v -0.042633 0.041903 0.007270
v -0.042580 0.042225 0.005304
v -0.042637 0.041991 0.003327
v -0.042798 0.041219 0.001497
v -0.043050 0.039973 -0.000037
v -0.043374 0.038352 -0.001150
v -0.043743 0.036489 -0.001752
v -0.044126 0.034534 -0.001795
v -0.044494 0.032647 -0.001275
v -0.044816 0.030978 -0.000235
v -0.045066 0.029665 0.001243
v -0.045224 0.028813 0.003037
v -0.048316 0.029042 0.004992
v -0.048299 0.029284 0.006969
v -0.048189 0.030066 0.008799
v -0.047996 0.031324 0.010332
v -0.047735 0.032956 0.011444
v -0.047427 0.034830 0.012046
v -0.047097 0.036794 0.012089
v -0.046772 0.038690 0.011568
v -0.046478 0.040363 0.010527
v -0.046239 0.041678 0.009049
v -0.046074 0.042529 0.007255
v -0.045998 0.042846 0.005290
v -0.046015 0.042604 0.003312
v -0.046124 0.041822 0.001483
v -0.046318 0.040564 -0.000050
v -0.046579 0.038932 -0.001163
v -0.046887 0.037058 -0.001765
v -0.047217 0.035094 -0.001807
v -0.047542 0.033198 -0.001287
v -0.047836 0.031525 -0.000246
v -0.048075 0.030210 0.001232
v -0.048239 0.029359 0.003026
v -0.051527 0.029542 0.004930
v -0.051544 0.029789 0.006907
v -0.051479 0.030578 0.008735
v -0.051337 0.031844 0.010267
v -0.051130 0.033485 0.011378
v -0.050875 0.035367 0.011979
v -0.050592 0.037339 0.012020
v -0.050305 0.039241 0.011498
v -0.050036 0.040917 0.010456
v -0.049807 0.042234 0.008978
v -0.049638 0.043083 0.007184
v -0.049541 0.043397 0.005219
v -0.049524 0.043149 0.003242
v -0.049589 0.042361 0.001414
v -0.049731 0.041094 -0.000118
v -0.049938 0.039454 -0.001229
v -0.050193 0.037571 -0.001830
v -0.050476 0.035599 -0.001871
v -0.050763 0.033698 -0.001350
v -0.051032 0.032021 -0.000308
v -0.051261 0.030705 0.001170
v -0.051430 0.029855 0.002965
v -0.054885 0.029987 0.004820
v -0.054931 0.030239 0.006796
v -0.054904 0.031033 0.008623
v -0.054808 0.032306 0.010153
v -0.054649 0.033953 0.011263
v -0.054441 0.035842 0.011861
v -0.054200 0.037819 0.011901
v -0.053946 0.039725 0.011378
v -0.053700 0.041405 0.010335
v -0.053481 0.042722 0.008857
v -0.053308 0.043571 0.007063
v -0.053194 0.043882 0.005098
v -0.053148 0.043630 0.003122
v -0.053175 0.042836 0.001295
v -0.053271 0.041564 -0.000235
v -0.053430 0.039917 -0.001345
v -0.053638 0.038028 -0.001944
v -0.053879 0.036050 -0.001983
v -0.054133 0.034145 -0.001460
v -0.054379 0.032465 -0.000417
v -0.054598 0.031147 0.001061
v -0.054771 0.030298 0.002855
v -0.058366 0.030379 0.004666
v -0.058437 0.030634 0.006641
v -0.058444 0.031432 0.008467
v -0.058388 0.032709 0.009995
v -0.058272 0.034361 0.011102
v -0.058105 0.036255 0.011699
v -0.057903 0.038237 0.011737
v -0.057679 0.040146 0.011212
v -0.057454 0.041828 0.010168
v -0.057245 0.043146 0.008689
v -0.057069 0.043995 0.006895
v -0.056940 0.044304 0.004931
v -0.056869 0.044049 0.002956
v -0.056861 0.043251 0.001131
v -0.056918 0.041974 -0.000398
v -0.057034 0.040322 -0.001505
v -0.057200 0.038428 -0.002102
v -0.057403 0.036446 -0.002139
v -0.057626 0.034537 -0.001615
v -0.057852 0.032855 -0.000571
v -0.058061 0.031537 0.000908
v -0.058237 0.030688 0.002702
v -0.061945 0.030717 0.004473
v -0.062038 0.030974 0.006446
v -0.062076 0.031775 0.008270
v -0.062056 0.033055 0.009797
v -0.061978 0.034711 0.010902
v -0.061850 0.036609 0.011496
v -0.061682 0.038594 0.011532
v -0.061487 0.040505 0.011006
v -0.061281 0.042189 0.009961
v -0.061082 0.043508 0.008481
v -0.060904 0.044356 0.006687
v -0.060762 0.044664 0.004724
v -0.060669 0.044407 0.002750
v -0.060631 0.043606 0.000926
v -0.060652 0.042326 -0.000600
v -0.060729 0.040670 -0.001705
v -0.060857 0.038772 -0.002300
v -0.061026 0.036787 -0.002336
v -0.061221 0.034875 -0.001809
v -0.061426 0.033192 -0.000764
v -0.061626 0.031872 0.000715
v -0.061804 0.031024 0.002510
v -0.065601 0.031000 0.004244
v -0.065714 0.031259 0.006216
v -0.065779 0.032062 0.008038
v -0.065791 0.033345 0.009563
v -0.065749 0.035004 0.010665
v -0.065656 0.036904 0.011258
v -0.065519 0.038892 0.011291
v -0.065351 0.040805 0.010763
v -0.065164 0.042491 0.009717
v -0.064973 0.043810 0.008237
v -0.064795 0.044658 0.006442
v -0.064643 0.044965 0.004480
v -0.064530 0.044706 0.002507
v -0.064465 0.043903 0.000685
v -0.064453 0.042620 -0.000839
v -0.064495 0.040961 -0.001942
v -0.064588 0.039061 -0.002534
v -0.064724 0.037074 -0.002568
v -0.064893 0.035160 -0.002040
v -0.065080 0.033475 -0.000993
v -0.065270 0.032155 0.000487
v -0.065449 0.031307 0.002281
v -0.069310 0.031230 0.003984
v -0.069441 0.031490 0.005955
v -0.069531 0.032295 0.007775
v -0.069572 0.033580 0.009297
v -0.069563 0.035241 0.010398
v -0.069502 0.037143 0.010988
v -0.069396 0.039132 0.011019
v -0.069252 0.041048 0.010489
v -0.069083 0.042734 0.009442
v -0.068902 0.044054 0.007961
v -0.068724 0.044902 0.006166
v -0.068563 0.045208 0.004204
v -0.068432 0.044948 0.002233
v -0.068343 0.044143 0.000413
v -0.068301 0.042858 -0.001109
v -0.068311 0.041197 -0.002210
v -0.068371 0.039295 -0.002800
v -0.068477 0.037306 -0.002831
v -0.068621 0.035390 -0.002301
v -0.068790 0.033704 -0.001254
v -0.068971 0.032384 0.000228
v -0.069149 0.031536 0.002022
v -0.073051 0.031407 0.003697
v -0.073197 0.031667 0.005667
v -0.073310 0.032474 0.007485
v -0.073379 0.033760 0.009005
v -0.073399 0.035422 0.010103
v -0.073370 0.037326 0.010691
v -0.073292 0.039317 0.010720
v -0.073172 0.041233 0.010188
v -0.073021 0.042920 0.009139
v -0.072850 0.044241 0.007657
v -0.072673 0.045089 0.005863
v -0.072504 0.045395 0.003901
v -0.072358 0.045134 0.001931
v -0.072245 0.044328 0.000113
v -0.072176 0.043041 -0.001407
v -0.072156 0.041379 -0.002505
v -0.072185 0.039475 -0.003092
v -0.072263 0.037485 -0.003122
v -0.072383 0.035568 -0.002590
v -0.072534 0.033881 -0.001541
v -0.072705 0.032560 -0.000059
v -0.072882 0.031713 0.001735
v -0.076801 0.031531 0.003388
v -0.076962 0.031793 0.005356
v -0.077095 0.032600 0.007173
v -0.077190 0.033887 0.008691
v -0.077239 0.035550 0.009787
v -0.077239 0.037455 0.010372
v -0.077188 0.039446 0.010398
v -0.077092 0.041364 0.009865
v -0.076958 0.043051 0.008814
v -0.076797 0.044372 0.007331
v -0.076622 0.045220 0.005537
v -0.076448 0.045526 0.003576
v -0.076287 0.045264 0.001607
v -0.076154 0.044457 -0.000210
v -0.076059 0.043170 -0.001727
v -0.076010 0.041507 -0.002823
v -0.076010 0.039602 -0.003408
v -0.076060 0.037610 -0.003435
v -0.076156 0.035693 -0.002901
v -0.076290 0.034006 -0.001851
v -0.076451 0.032685 -0.000368
v -0.076626 0.031837 0.001427
v -0.080539 0.031604 0.003061
v -0.080712 0.031866 0.005028
v -0.080865 0.032673 0.006843
v -0.080984 0.033961 0.008359
v -0.081061 0.035625 0.009452
v -0.081089 0.037530 0.010035
v -0.081065 0.039523 0.010059
v -0.080993 0.041440 0.009523
v -0.080876 0.043128 0.008471
v -0.080726 0.044449 0.006987
v -0.080554 0.045297 0.005192
v -0.080374 0.045602 0.003232
v -0.080201 0.045341 0.001264
v -0.080048 0.044533 -0.000551
v -0.079929 0.043246 -0.002067
v -0.079852 0.041582 -0.003160
v -0.079824 0.039676 -0.003742
v -0.079848 0.037684 -0.003766
v -0.079921 0.035767 -0.003231
v -0.080037 0.034079 -0.002178
v -0.080187 0.032758 -0.000695
v -0.080359 0.031910 0.001100
v -0.084242 0.031627 0.002720
v -0.084427 0.031889 0.004687
v -0.084598 0.032696 0.006500
v -0.084741 0.033984 0.008013
v -0.084844 0.035648 0.009104
v -0.084900 0.037554 0.009684
v -0.084903 0.039546 0.009706
v -0.084854 0.041464 0.009168
v -0.084756 0.043152 0.008114
v -0.084617 0.044473 0.006629
v -0.084449 0.045321 0.004834
v -0.084265 0.045626 0.002874
v -0.084080 0.045364 0.000907
v -0.083910 0.044557 -0.000906
v -0.083767 0.043269 -0.002420
v -0.083663 0.041605 -0.003510
v -0.083608 0.039699 -0.004090
v -0.083605 0.037707 -0.004112
v -0.083654 0.035789 -0.003574
v -0.083752 0.034101 -0.002520
v -0.083891 0.032780 -0.001035
v -0.084059 0.031932 0.000760
v -0.087890 0.031600 0.002371
v -0.088085 0.031862 0.004336
v -0.088273 0.032669 0.006148
v -0.088439 0.033957 0.007659
v -0.088568 0.035621 0.008747
v -0.088652 0.037526 0.009325
v -0.088682 0.039518 0.009344
v -0.088656 0.041436 0.008803
v -0.088577 0.043124 0.007748
v -0.088451 0.044445 0.006262
v -0.088288 0.045293 0.004466
v -0.088101 0.045598 0.002506
v -0.087906 0.045336 0.000540
v -0.087718 0.044529 -0.001271
v -0.087553 0.043241 -0.002783
v -0.087423 0.041577 -0.003871
v -0.087340 0.039672 -0.004448
v -0.087310 0.037680 -0.004467
v -0.087335 0.035762 -0.003927
v -0.087414 0.034074 -0.002871
v -0.087540 0.032753 -0.001385
v -0.087703 0.031905 0.000411
v -0.091459 0.031525 0.002017
v -0.091663 0.031786 0.003982
v -0.091868 0.032593 0.005792
v -0.092056 0.033881 0.007301
v -0.092212 0.035544 0.008386
v -0.092323 0.037449 0.008961
v -0.092381 0.039440 0.008977
v -0.092381 0.041357 0.008434
v -0.092322 0.043045 0.007376
v -0.092209 0.044366 0.005889
v -0.092053 0.045213 0.004093
v -0.091864 0.045518 0.002133
v -0.091660 0.045257 0.000168
v -0.091455 0.044450 -0.001642
v -0.091267 0.043162 -0.003151
v -0.091111 0.041499 -0.004236
v -0.091000 0.039594 -0.004811
v -0.090942 0.037603 -0.004827
v -0.090943 0.035686 -0.004284
v -0.091001 0.033998 -0.003226
v -0.091114 0.032677 -0.001739
v -0.091270 0.031830 0.000057
v -0.094927 0.031402 0.001664
v -0.095141 0.031663 0.003627
v -0.095361 0.032470 0.005436
v -0.095572 0.033757 0.006942
v -0.095754 0.035419 0.008025
v -0.095895 0.037323 0.008597
v -0.095981 0.039313 0.008610
v -0.096007 0.041229 0.008065
v -0.095970 0.042916 0.007004
v -0.095873 0.044236 0.005515
v -0.095724 0.045083 0.003718
v -0.095535 0.045388 0.001758
v -0.095322 0.045127 -0.000205
v -0.095101 0.044321 -0.002014
v -0.094891 0.043034 -0.003520
v -0.094708 0.041371 -0.004603
v -0.094568 0.039468 -0.005174
v -0.094481 0.037477 -0.005188
v -0.094455 0.035561 -0.004642
v -0.094492 0.033875 -0.003582
v -0.094589 0.032554 -0.002093
v -0.094738 0.031707 -0.000296
v -0.098272 0.031233 0.001315
v -0.098494 0.031494 0.003278
v -0.098731 0.032300 0.005085
v -0.098964 0.033586 0.006589
v -0.099174 0.035247 0.007669
v -0.099345 0.037149 0.008237
v -0.099462 0.039138 0.008247
v -0.099516 0.041052 0.007699
v -0.099503 0.042738 0.006636
v -0.099423 0.044057 0.005145
v -0.099284 0.044904 0.003347
v -0.099096 0.045209 0.001387
v -0.098874 0.044948 -0.000575
v -0.098638 0.044142 -0.002382
v -0.098405 0.042857 -0.003886
v -0.098194 0.041195 -0.004966
v -0.098023 0.039293 -0.005534
v -0.097906 0.037304 -0.005545
v -0.097852 0.035390 -0.004996
v -0.097865 0.033704 -0.003934
v -0.097945 0.032385 -0.002443
v -0.098084 0.031538 -0.000645
v -0.101460 0.031021 0.000978
v -0.101692 0.031281 0.002939
v -0.101950 0.032086 0.004744
v -0.102211 0.033369 0.006245
v -0.102456 0.035028 0.007321
v -0.102663 0.036928 0.007885
v -0.102817 0.038914 0.007892
v -0.102905 0.040827 0.007340
v -0.102919 0.042510 0.006274
v -0.102859 0.043828 0.004781
v -0.102729 0.044674 0.002982
v -0.102540 0.044979 0.001022
v -0.102308 0.044719 -0.000939
v -0.102050 0.043914 -0.002744
v -0.101789 0.042631 -0.004245
v -0.101544 0.040972 -0.005321
v -0.101337 0.039072 -0.005885
v -0.101183 0.037086 -0.005892
v -0.101095 0.035173 -0.005340
v -0.101081 0.033490 -0.004274
v -0.101141 0.032172 -0.002781
v -0.101271 0.031326 -0.000982
v -0.104045 0.030790 0.000691
v -0.104298 0.031048 0.002650
v -0.104589 0.031850 0.004451
v -0.104894 0.033130 0.005947
v -0.105189 0.034784 0.007018
v -0.105448 0.036679 0.007576
v -0.105653 0.038661 0.007576
v -0.105785 0.040569 0.007019
v -0.105835 0.042249 0.005949
v -0.105798 0.043565 0.004454
v -0.105677 0.044410 0.002653
v -0.105482 0.044716 0.000694
v -0.105229 0.044457 -0.001265
v -0.104938 0.043655 -0.003066
v -0.104633 0.042376 -0.004562
v -0.104339 0.040721 -0.005632
v -0.104079 0.038826 -0.006191
v -0.103875 0.036844 -0.006191
v -0.103742 0.034936 -0.005634
v -0.103692 0.033256 -0.004564
v -0.103730 0.031940 -0.003068
v -0.103850 0.031095 -0.001268
v -0.106581 0.030493 0.000387
v -0.106857 0.030749 0.002344
v -0.107184 0.031546 0.004140
v -0.107534 0.032821 0.005631
v -0.107880 0.034470 0.006695
v -0.108194 0.036358 0.007246
v -0.108450 0.038334 0.007241
v -0.108627 0.040237 0.006678
v -0.108711 0.041913 0.005604
v -0.108696 0.043227 0.004105
v -0.108582 0.044070 0.002304
v -0.108378 0.044377 0.000346
v -0.108102 0.044121 -0.001611
v -0.107776 0.043323 -0.003407
v -0.107425 0.042048 -0.004898
v -0.107079 0.040400 -0.005962
v -0.106766 0.038511 -0.006513
v -0.106510 0.036535 -0.006507
v -0.106333 0.034632 -0.005944
v -0.106249 0.032956 -0.004870
v -0.106264 0.031643 -0.003372
v -0.106378 0.030799 -0.001571
v -0.109088 0.030135 0.000066
v -0.109385 0.030388 0.002020
v -0.109745 0.031181 0.003812
v -0.110137 0.032450 0.005297
v -0.110531 0.034092 0.006355
v -0.110894 0.035973 0.006900
v -0.111197 0.037943 0.006888
v -0.111416 0.039840 0.006320
v -0.111532 0.041511 0.005241
v -0.111536 0.042821 0.003740
v -0.111429 0.043664 0.001938
v -0.111218 0.043971 -0.000019
v -0.110920 0.043718 -0.001973
v -0.110561 0.042925 -0.003765
v -0.110168 0.041656 -0.005250
v -0.109775 0.040014 -0.006308
v -0.109412 0.038133 -0.006853
v -0.109109 0.036163 -0.006840
v -0.108890 0.034266 -0.006272
v -0.108774 0.032595 -0.005194
v -0.108769 0.031285 -0.003693
v -0.108877 0.030442 -0.001891
v -0.111571 0.029720 -0.000271
v -0.111888 0.029971 0.001681
v -0.112277 0.030759 0.003468
v -0.112708 0.032022 0.004948
v -0.113145 0.033656 0.006000
v -0.113553 0.035530 0.006539
v -0.113899 0.037493 0.006521
v -0.114155 0.039383 0.005947
v -0.114300 0.041050 0.004865
v -0.114323 0.042357 0.003361
v -0.114221 0.043199 0.001558
v -0.114003 0.043507 -0.000398
v -0.113686 0.043257 -0.002349
v -0.113297 0.042468 -0.004137
v -0.112866 0.041206 -0.005617
v -0.112429 0.039571 -0.006669
v -0.112021 0.037697 -0.007207
v -0.111675 0.035735 -0.007189
v -0.111419 0.033844 -0.006616
v -0.111274 0.032178 -0.005533
v -0.111251 0.030870 -0.004030
v -0.111353 0.030029 -0.002227
v -0.114036 0.029255 -0.000623
v -0.114369 0.029502 0.001326
v -0.114786 0.030286 0.003110
v -0.115250 0.031542 0.004585
v -0.115726 0.033169 0.005631
v -0.116175 0.035036 0.006164
v -0.116559 0.036991 0.006140
v -0.116849 0.038876 0.005562
v -0.117020 0.040537 0.004476
v -0.117058 0.041841 0.002970
v -0.116962 0.042682 0.001166
v -0.116737 0.042991 -0.000789
v -0.116404 0.042744 -0.002738
v -0.115987 0.041961 -0.004522
v -0.115523 0.040704 -0.005997
v -0.115047 0.039077 -0.007043
v -0.114598 0.037210 -0.007576
v -0.114214 0.035255 -0.007552
v -0.113924 0.033371 -0.006974
v -0.113753 0.031709 -0.005888
v -0.113715 0.030405 -0.004382
v -0.113811 0.029565 -0.002578
v -0.116487 0.028744 -0.000988
v -0.116836 0.028988 0.000958
v -0.117275 0.029767 0.002739
v -0.117770 0.031017 0.004209
v -0.118280 0.032638 0.005250
v -0.118763 0.034497 0.005778
v -0.119181 0.036445 0.005749
v -0.119500 0.038323 0.005166
v -0.119694 0.039980 0.004076
v -0.119747 0.041281 0.002568
v -0.119655 0.042121 0.000764
v -0.119425 0.042431 -0.001191
v -0.119076 0.042187 -0.003137
v -0.118636 0.041409 -0.004918
v -0.118142 0.040158 -0.006388
v -0.117632 0.038538 -0.007429
v -0.117148 0.036678 -0.007957
v -0.116730 0.034731 -0.007928
v -0.116411 0.032852 -0.007345
v -0.116218 0.031195 -0.006255
v -0.116165 0.029895 -0.004747
v -0.116257 0.029055 -0.002943
v -0.118929 0.028193 -0.001366
v -0.119291 0.028435 0.000578
v -0.119751 0.029209 0.002356
v -0.120271 0.030453 0.003822
v -0.120809 0.032067 0.004859
v -0.121323 0.033920 0.005381
v -0.121770 0.035862 0.005348
v -0.122114 0.037734 0.004761
v -0.122327 0.039387 0.003669
v -0.122392 0.040685 0.002159
v -0.122303 0.041523 0.000353
v -0.122069 0.041835 -0.001600
v -0.121707 0.041594 -0.003545
v -0.121248 0.040819 -0.005322
v -0.120727 0.039575 -0.006789
v -0.120189 0.037961 -0.007825
v -0.119675 0.036108 -0.008348
v -0.119228 0.034167 -0.008315
v -0.118885 0.032294 -0.007728
v -0.118671 0.030642 -0.006635
v -0.118606 0.029344 -0.005125
v -0.118695 0.028505 -0.003320
v -0.121368 0.027608 -0.001755
v -0.121740 0.027846 0.000188
v -0.122216 0.028617 0.001963
v -0.122757 0.029856 0.003426
v -0.123320 0.031465 0.004458
v -0.123858 0.033311 0.004977
v -0.124329 0.035247 0.004940
v -0.124693 0.037115 0.004350
v -0.124922 0.038763 0.003255
v -0.124997 0.040059 0.001743
v -0.124912 0.040897 -0.000063
v -0.124673 0.041209 -0.002016
v -0.124301 0.040971 -0.003959
v -0.123825 0.040200 -0.005733
v -0.123284 0.038961 -0.007196
v -0.122722 0.037352 -0.008229
v -0.122183 0.035506 -0.008748
v -0.121713 0.033570 -0.008711
v -0.121348 0.031702 -0.008121
v -0.121120 0.030054 -0.007025
v -0.121045 0.028758 -0.005514
v -0.121130 0.027920 -0.003708
v -0.123808 0.026993 -0.002153
v -0.124188 0.027229 -0.000212
v -0.124677 0.027996 0.001561
v -0.125235 0.029232 0.003021
v -0.125816 0.030836 0.004051
v -0.126373 0.032678 0.004567
v -0.126862 0.034609 0.004526
v -0.127242 0.036472 0.003934
v -0.127484 0.038118 0.002836
v -0.127567 0.039412 0.001323
v -0.127484 0.040249 -0.000483
v -0.127242 0.040562 -0.002436
v -0.126862 0.040325 -0.004377
v -0.126373 0.039558 -0.006150
v -0.125816 0.038323 -0.007610
v -0.125235 0.036719 -0.008640
v -0.124677 0.034877 -0.009155
v -0.124188 0.032946 -0.009115
v -0.123808 0.031082 -0.008522
v -0.123566 0.029437 -0.007425
v -0.123484 0.028143 -0.005912
v -0.123566 0.027306 -0.004106
v -0.126253 0.026354 -0.002559
v -0.126639 0.026589 -0.000619
v -0.127137 0.027354 0.001152
v -0.127706 0.028587 0.002611
v -0.128301 0.030187 0.003638
v -0.128872 0.032025 0.004151
v -0.129374 0.033953 0.004109
v -0.129766 0.035814 0.003514
v -0.130016 0.037457 0.002415
v -0.130105 0.038749 0.000902
v -0.130024 0.039586 -0.000905
v -0.129780 0.039899 -0.002857
v -0.129394 0.039664 -0.004798
v -0.128896 0.038899 -0.006569
v -0.128327 0.037667 -0.008027
v -0.127732 0.036067 -0.009055
v -0.127161 0.034228 -0.009568
v -0.126659 0.032301 -0.009526
v -0.126267 0.030440 -0.008931
v -0.126017 0.028797 -0.007832
v -0.125928 0.027505 -0.006318
v -0.126009 0.026668 -0.004512
v -0.128708 0.025698 -0.002972
v -0.129098 0.025933 -0.001032
v -0.129601 0.026696 0.000738
v -0.130178 0.027926 0.002195
v -0.130780 0.029525 0.003221
v -0.131360 0.031361 0.003733
v -0.131869 0.033286 0.003689
v -0.132268 0.035145 0.003094
v -0.132524 0.036787 0.001994
v -0.132616 0.038078 0.000479
v -0.132536 0.038915 -0.001327
v -0.132291 0.039229 -0.003279
v -0.131901 0.038994 -0.005219
v -0.131397 0.038231 -0.006989
v -0.130821 0.037001 -0.008447
v -0.130219 0.035403 -0.009473
v -0.129639 0.033566 -0.009985
v -0.129129 0.031641 -0.009941
v -0.128730 0.029782 -0.009345
v -0.128475 0.028140 -0.008245
v -0.128383 0.026849 -0.006731
v -0.128463 0.026012 -0.004924
v -0.131177 0.025031 -0.003390
v -0.131568 0.025265 -0.001450
v -0.132073 0.026028 0.000320
v -0.132652 0.027258 0.001777
v -0.133257 0.028855 0.002802
v -0.133840 0.030691 0.003314
v -0.134352 0.032616 0.003270
v -0.134753 0.034474 0.002673
v -0.135011 0.036115 0.001573
v -0.135103 0.037406 0.000059
v -0.135024 0.038243 -0.001748
v -0.134779 0.038557 -0.003700
v -0.134388 0.038323 -0.005640
v -0.133882 0.037560 -0.007409
v -0.133304 0.036330 -0.008866
v -0.132699 0.034733 -0.009892
v -0.132116 0.032897 -0.010403
v -0.131604 0.030972 -0.010359
v -0.131202 0.029114 -0.009763
v -0.130945 0.027473 -0.008663
v -0.130852 0.026182 -0.007148
v -0.130932 0.025345 -0.005342
v -0.133665 0.024359 -0.003810
v -0.134055 0.024593 -0.001870
v -0.134558 0.025357 -0.000100
v -0.135135 0.026587 0.001357
v -0.135737 0.028185 0.002383
v -0.136316 0.030022 0.002895
v -0.136826 0.031947 0.002851
v -0.137225 0.033806 0.002255
v -0.137481 0.035448 0.001156
v -0.137573 0.036739 -0.000359
v -0.137493 0.037576 -0.002165
v -0.137248 0.037889 -0.004118
v -0.136858 0.037655 -0.006057
v -0.136354 0.036892 -0.007828
v -0.135778 0.035661 -0.009285
v -0.135176 0.034063 -0.010311
v -0.134596 0.032227 -0.010823
v -0.134086 0.030302 -0.010779
v -0.133687 0.028443 -0.010183
v -0.133432 0.026801 -0.009083
v -0.133340 0.025510 -0.007569
v -0.133420 0.024673 -0.005762
v -0.136175 0.023689 -0.004232
v -0.136562 0.023924 -0.002292
v -0.137060 0.024688 -0.000521
v -0.137629 0.025921 0.000938
v -0.138223 0.027521 0.001965
v -0.138795 0.029360 0.002478
v -0.139297 0.031287 0.002436
v -0.139689 0.033148 0.001841
v -0.139939 0.034791 0.000742
v -0.140027 0.036083 -0.000771
v -0.139946 0.036920 -0.002578
v -0.139703 0.037234 -0.004530
v -0.139316 0.036998 -0.006471
v -0.138818 0.036234 -0.008242
v -0.138249 0.035001 -0.009700
v -0.137655 0.033401 -0.010728
v -0.137084 0.031563 -0.011241
v -0.136582 0.029635 -0.011198
v -0.136190 0.027774 -0.010604
v -0.135939 0.026131 -0.009505
v -0.135851 0.024839 -0.007991
v -0.135932 0.024002 -0.006185
v -0.138713 0.023026 -0.004654
v -0.139094 0.023263 -0.002713
v -0.139583 0.024030 -0.000940
v -0.140140 0.025265 0.000520
v -0.140721 0.026869 0.001550
v -0.141279 0.028711 0.002066
v -0.141767 0.030642 0.002025
v -0.142148 0.032506 0.001433
v -0.142389 0.034151 0.000335
v -0.142472 0.035445 -0.001178
v -0.142389 0.036282 -0.002984
v -0.142148 0.036595 -0.004937
v -0.141767 0.036359 -0.006878
v -0.141279 0.035591 -0.008651
v -0.140721 0.034356 -0.010111
v -0.140140 0.032752 -0.011141
v -0.139583 0.030910 -0.011656
v -0.139094 0.028979 -0.011616
v -0.138713 0.027115 -0.011023
v -0.138472 0.025470 -0.009926
v -0.138389 0.024176 -0.008413
v -0.138472 0.023339 -0.006607
v -0.141282 0.022378 -0.005073
v -0.141655 0.022617 -0.003131
v -0.142131 0.023388 -0.001356
v -0.142672 0.024627 0.000107
v -0.143234 0.026236 0.001140
v -0.143773 0.028083 0.001658
v -0.144243 0.030018 0.001621
v -0.144607 0.031886 0.001031
v -0.144836 0.033535 -0.000064
v -0.144911 0.034830 -0.001576
v -0.144826 0.035668 -0.003382
v -0.144588 0.035980 -0.005335
v -0.144215 0.035741 -0.007278
v -0.143739 0.034971 -0.009052
v -0.143198 0.033731 -0.010515
v -0.142636 0.032123 -0.011548
v -0.142097 0.030276 -0.012067
v -0.141627 0.028340 -0.012030
v -0.141263 0.026473 -0.011439
v -0.141034 0.024824 -0.010344
v -0.140959 0.023528 -0.008832
v -0.141044 0.022691 -0.007027
v -0.143887 0.021753 -0.005488
v -0.144249 0.021994 -0.003544
v -0.144708 0.022769 -0.001767
v -0.145229 0.024013 -0.000301
v -0.145767 0.025627 0.000736
v -0.146281 0.027480 0.001258
v -0.146727 0.029422 0.001225
v -0.147071 0.031294 0.000638
v -0.147284 0.032947 -0.000455
v -0.147349 0.034245 -0.001965
v -0.147261 0.035083 -0.003770
v -0.147026 0.035394 -0.005724
v -0.146665 0.035153 -0.007669
v -0.146205 0.034379 -0.009446
v -0.145685 0.033134 -0.010912
v -0.145146 0.031520 -0.011949
v -0.144633 0.029667 -0.012471
v -0.144186 0.027726 -0.012438
v -0.143842 0.025853 -0.011851
v -0.143629 0.024201 -0.010758
v -0.143564 0.022903 -0.009248
v -0.143653 0.022064 -0.007442
v -0.146476 0.021169 -0.005889
v -0.146832 0.021411 -0.003944
v -0.147283 0.022188 -0.002165
v -0.147791 0.023435 -0.000697
v -0.148317 0.025052 0.000341
v -0.148817 0.026908 0.000866
v -0.149250 0.028853 0.000834
v -0.149583 0.030728 0.000249
v -0.149787 0.032382 -0.000842
v -0.149846 0.033682 -0.002352
v -0.149756 0.034521 -0.004157
v -0.149524 0.034831 -0.006111
v -0.149168 0.034589 -0.008056
v -0.148717 0.033812 -0.009835
v -0.148209 0.032565 -0.011303
v -0.147683 0.030948 -0.012341
v -0.147183 0.029092 -0.012866
v -0.146750 0.027147 -0.012834
v -0.146417 0.025272 -0.012249
v -0.146213 0.023618 -0.011158
v -0.146154 0.022318 -0.009648
v -0.146244 0.021479 -0.007843
v -0.010000 0.020000 0.000000
v -0.148000 0.028000 -0.006000
f 1 2 24
f 1 24 23
f 2 3 25
f 2 25 24
f 3 4 26
f 3 26 25
f 4 5 27
f 4 27 26
f 5 6 28
f 5 28 27
f 6 7 29
f 6 29 28
f 7 8 30
f 7 30 29
f 8 9 31
f 8 31 30
f 9 10 32
f 9 32 31
f 10 11 33
f 10 33 32
f 11 12 34
f 11 34 33
f 12 13 35
f 12 35 34
f 13 14 36
f 13 36 35
f 14 15 37
f 14 37 36
f 15 16 38
f 15 38 37
f 16 17 39
f 16 39 38
f 17 18 40
f 17 40 39
f 18 19 41
f 18 41 40
f 19 20 42
f 19 42 41
f 20 21 43
f 20 43 42
f 21 22 44
f 21 44 43
f 22 1 23
f 22 23 44
f 23 24 46
f 23 46 45
f 24 25 47
f 24 47 46
f 25 26 48
f 25 48 47
f 26 27 49
f 26 49 48
f 27 28 50
f 27 50 49
f 28 29 51
f 28 51 50
f 29 30 52
f 29 52 51
f 30 31 53
f 30 53 52
f 31 32 54
f 31 54 53
f 32 33 55
f 32 55 54
f 33 34 56
f 33 56 55
f 34 35 57
f 34 57 56
f 35 36 58
f 35 58 57
f 36 37 59
f 36 59 58
f 37 38 60
f 37 60 59
f 38 39 61
f 38 61 60
f 39 40 62
f 39 62 61
f 40 41 63
f 40 63 62
f 41 42 64
f 41 64 63
f 42 43 65
f 42 65 64
f 43 44 66
f 43 66 65
f 44 23 45
f 44 45 66
f 45 46 68
f 45 68 67
f 46 47 69
f 46 69 68
f 47 48 70
f 47 70 69
f 48 49 71
f 48 71 70
f 49 50 72
f 49 72 71
f 50 51 73
f 50 73 72
f 51 52 74
f 51 74 73
f 52 53 75
f 52 75 74
f 53 54 76
f 53 76 75
f 54 55 77
f 54 77 76
f 55 56 78
f 55 78 77
f 56 57 79
f 56 79 78
f 57 58 80
f 57 80 79
f 58 59 81
f 58 81 80
f 59 60 82
f 59 82 81
f 60 61 83
f 60 83 82
f 61 62 84
f 61 84 83
f 62 63 85
f 62 85 84
f 63 64 86
f 63 86 85
f 64 65 87
f 64 87 86
f 65 66 88
f 65 88 87
f 66 45 67
f 66 67 88
f 67 68 90
f 67 90 89
f 68 69 91
f 68 91 90
f 69 70 92
f 69 92 91
f 70 71 93
f 70 93 92
f 71 72 94
f 71 94 93
f 72 73 95
f 72 95 94
f 73 74 96
f 73 96 95
f 74 75 97
f 74 97 96
f 75 76 98
f 75 98 97
f 76 77 99
f 76 99 98
f 77 78 100
f 77 100 99
f 78 79 101
f 78 101 100
f 79 80 102
f 79 102 101
f 80 81 103
f 80 103 102
f 81 82 104
f 81 104 103
f 82 83 105
f 82 105 104
f 83 84 106
f 83 106 105
f 84 85 107
f 84 107 106
f 85 86 108
f 85 108 107
f 86 87 109
f 86 109 108
f 87 88 110
f 87 110 109
f 88 67 89
f 88 89 110
f 89 90 112
f 89 112 111
f 90 91 113
f 90 113 112
f 91 92 114
f 91 114 113
f 92 93 115
f 92 115 114
f 93 94 116
f 93 116 115
f 94 95 117
f 94 117 116
f 95 96 118
f 95 118 117
f 96 97 119
f 96 119 118
f 97 98 120
f 97 120 119
f 98 99 121
f 98 121 120
f 99 100 122
f 99 122 121
f 100 101 123
f 100 123 122
f 101 102 124
f 101 124 123
f 102 103 125
f 102 125 124
f 103 104 126
f 103 126 125
f 104 105 127
f 104 127 126
f 105 106 128
f 105 128 127
f 106 107 129
f 106 129 128
f 107 108 130
f 107 130 129
f 108 109 131
f 108 131 130
f 109 110 132
f 109 132 131
f 110 89 111
f 110 111 132
f 111 112 134
f 111 134 133
f 112 113 135
f 112 135 134
f 113 114 136
f 113 136 135
f 114 115 137
f 114 137 136
f 115 116 138
f 115 138 137
f 116 117 139
f 116 139 138
f 117 118 140
f 117 140 139
f 118 119 141
f 118 141 140
f 119 120 142
f 119 142 141
f 120 121 143
f 120 143 142
f 121 122 144
f 121 144 143
f 122 123 145
f 122 145 144
f 123 124 146
f 123 146 145
f 124 125 147
f 124 147 146
f 125 126 148
f 125 148 147
f 126 127 149
f 126 149 148
f 127 128 150
f 127 150 149
f 128 129 151
f 128 151 150
f 129 130 152
f 129 152 151
f 130 131 153
f 130 153 152
f 131 132 154
f 131 154 153
f 132 111 133
f 132 133 154
f 133 134 156
f 133 156 155
f 134 135 157
f 134 157 156
f 135 136 158
f 135 158 157
f 136 137 159
f 136 159 158
f 137 138 160
f 137 160 159
f 138 139 161
f 138 161 160
f 139 140 162
f 139 162 161
f 140 141 163
f 140 163 162
f 141 142 164
f 141 164 163
f 142 143 165
f 142 165 164
f 143 144 166
f 143 166 165
f 144 145 167
f 144 167 166
f 145 146 168
f 145 168 167
f 146 147 169
f 146 169 168
f 147 148 170
f 147 170 169
f 148 149 171
f 148 171 170
f 149 150 172
f 149 172 171
f 150 151 173
f 150 173 172
f 151 152 174
f 151 174 173
f 152 153 175
f 152 175 174
f 153 154 176
f 153 176 175
f 154 133 155
f 154 155 176
f 155 156 178
f 155 178 177
f 156 157 179
f 156 179 178
f 157 158 180
f 157 180 179
f 158 159 181
f 158 181 180
f 159 160 182
f 159 182 181
f 160 161 183
f 160 183 182
f 161 162 184
f 161 184 183
f 162 163 185
f 162 185 184
f 163 164 186
f 163 186 185
f 164 165 187
f 164 187 186
f 165 166 188
f 165 188 187
f 166 167 189
f 166 189 188
f 167 168 190
f 167 190 189
f 168 169 191
f 168 191 190
f 169 170 192
f 169 192 191
f 170 171 193
f 170 193 192
f 171 172 194
f 171 194 193
f 172 173 195
f 172 195 194
f 173 174 196
f 173 196 195
f 174 175 197
f 174 197 196
f 175 176 198
f 175 198 197
f 176 155 177
f 176 177 198
f 177 178 200
f 177 200 199
f 178 179 201
f 178 201 200
f 179 180 202
f 179 202 201
f 180 181 203
f 180 203 202
f 181 182 204
f 181 204 203
f 182 183 205
f 182 205 204
f 183 184 206
f 183 206 205
f 184 185 207
f 184 207 206
f 185 186 208
f 185 208 207
f 186 187 209
f 186 209 208
f 187 188 210
f 187 210 209
f 188 189 211
f 188 211 210
f 189 190 212
f 189 212 211
f 190 191 213
f 190 213 212
f 191 192 214
f 191 214 213
f 192 193 215
f 192 215 214
f 193 194 216
f 193 216 215
f 194 195 217
f 194 217 216
f 195 196 218
f 195 218 217
f 196 197 219
f 196 219 218
f 197 198 220
f 197 220 219
f 198 177 199
f 198 199 220
f 199 200 222
f 199 222 221
f 200 201 223
f 200 223 222
f 201 202 224
f 201 224 223
f 202 203 225
f 202 225 224
f 203 204 226
f 203 226 225
f 204 205 227
f 204 227 226
f 205 206 228
f 205 228 227
f 206 207 229
f 206 229 228
f 207 208 230
f 207 230 229
f 208 209 231
f 208 231 230
f 209 210 232
f 209 232 231
f 210 211 233
f 210 233 232
f 211 212 234
f 211 234 233
f 212 213 235
f 212 235 234
f 213 214 236
f 213 236 235
f 214 215 237
f 214 237 236
f 215 216 238
f 215 238 237
f 216 217 239
f 216 239 238
f 217 218 240
f 217 240 239
f 218 219 241
f 218 241 240
f 219 220 242
f 219 242 241
f 220 199 221
f 220 221 242
f 221 222 244
f 221 244 243
f 222 223 245
f 222 245 244
f 223 224 246
f 223 246 245
f 224 225 247
f 224 247 246
f 225 226 248
f 225 248 247
f 226 227 249
f 226 249 248
f 227 228 250
f 227 250 249
f 228 229 251
f 228 251 250
f 229 230 252
f 229 252 251
f 230 231 253
f 230 253 252
f 231 232 254
f 231 254 253
f 232 233 255
f 232 255 254
f 233 234 256
f 233 256 255
f 234 235 257
f 234 257 256
f 235 236 258
f 235 258 257
f 236 237 259
f 236 259 258
f 237 238 260
f 237 260 259
f 238 239 261
f 238 261 260
f 239 240 262
f 239 262 261
f 240 241 263
f 240 263 262
f 241 242 264
f 241 264 263
f 242 221 243
f 242 243 264
f 243 244 266
f 243 266 265
f 244 245 267
f 244 267 266
f 245 246 268
f 245 268 267
f 246 247 269
f 246 269 268
f 247 248 270
f 247 270 269
f 248 249 271
f 248 271 270
f 249 250 272
f 249 272 271
f 250 251 273
f 250 273 272
f 251 252 274
f 251 274 273
f 252 253 275
f 252 275 274
f 253 254 276
f 253 276 275
f 254 255 277
f 254 277 276
f 255 256 278
f 255 278 277
f 256 257 279
f 256 279 278
f 257 258 280
f 257 280 279
f 258 259 281
f 258 281 280
f 259 260 282
f 259 282 281
f 260 261 283
f 260 283 282
f 261 262 284
f 261 284 283
f 262 263 285
f 262 285 284
f 263 264 286
f 263 286 285
f 264 243 265
f 264 265 286
f 265 266 288
f 265 288 287
f 266 267 289
f 266 289 288
f 267 268 290
f 267 290 289
f 268 269 291
f 268 291 290
f 269 270 292
f 269 292 291
f 270 271 293
f 270 293 292
f 271 272 294
f 271 294 293
f 272 273 295
f 272 295 294
f 273 274 296
f 273 296 295
f 274 275 297
f 274 297 296
f 275 276 298
f 275 298 297
f 276 277 299
f 276 299 298
f 277 278 300
f 277 300 299
f 278 279 301
f 278 301 300
f 279 280 302
f 279 302 301
f 280 281 303
f 280 303 302
f 281 282 304
f 281 304 303
f 282 283 305
f 282 305 304
f 283 284 306
f 283 306 305
f 284 285 307
f 284 307 306
f 285 286 308
f 285 308 307
f 286 265 287
f 286 287 308
f 287 288 310
f 287 310 309
f 288 289 311
f 288 311 310
f 289 290 312
f 289 312 311
f 290 291 313
f 290 313 312
f 291 292 314
f 291 314 313
f 292 293 315
f 292 315 314
f 293 294 316
f 293 316 315
f 294 295 317
f 294 317 316
f 295 296 318
f 295 318 317
f 296 297 319
f 296 319 318
f 297 298 320
f 297 320 319
f 298 299 321
f 298 321 320
f 299 300 322
f 299 322 321
f 300 301 323
f 300 323 322
f 301 302 324
f 301 324 323
f 302 303 325
f 302 325 324
f 303 304 326
f 303 326 325
f 304 305 327
f 304 327 326
f 305 306 328
f 305 328 327
f 306 307 329
f 306 329 328
f 307 308 330
f 307 330 329
f 308 287 309
f 308 309 330
f 309 310 332
f 309 332 331
f 310 311 333
f 310 333 332
f 311 312 334
f 311 334 333
f 312 313 335
f 312 335 334
f 313 314 336
f 313 336 335
f 314 315 337
f 314 337 336
f 315 316 338
f 315 338 337
f 316 317 339
f 316 339 338
f 317 318 340
f 317 340 339
f 318 319 341
f 318 341 340
f 319 320 342
f 319 342 341
f 320 321 343
f 320 343 342
f 321 322 344
f 321 344 343
f 322 323 345
f 322 345 344
f 323 324 346
f 323 346 345
f 324 325 347
f 324 347 346
f 325 326 348
f 325 348 347
f 326 327 349
f 326 349 348
f 327 328 350
f 327 350 349
f 328 329 351
f 328 351 350
f 329 330 352
f 329 352 351
f 330 309 331
f 330 331 352
f 331 332 354
f 331 354 353
f 332 333 355
f 332 355 354
f 333 334 356
f 333 356 355
f 334 335 357
f 334 357 356
f 335 336 358
f 335 358 357
f 336 337 359
f 336 359 358
f 337 338 360
f 337 360 359
f 338 339 361
f 338 361 360
f 339 340 362
f 339 362 361
f 340 341 363
f 340 363 362
f 341 342 364
f 341 364 363
f 342 343 365
f 342 365 364
f 343 344 366
f 343 366 365
f 344 345 367
f 344 367 366
f 345 346 368
f 345 368 367
f 346 347 369
f 346 369 368
f 347 348 370
f 347 370 369
f 348 349 371
f 348 371 370
f 349 350 372
f 349 372 371
f 350 351 373
f 350 373 372
f 351 352 374
f 351 374 373
f 352 331 353
f 352 353 374
f 353 354 376
f 353 376 375
f 354 355 377
f 354 377 376
f 355 356 378
f 355 378 377
f 356 357 379
f 356 379 378
f 357 358 380
f 357 380 379
f 358 359 381
f 358 381 380
f 359 360 382
f 359 382 381
f 360 361 383
f 360 383 382
f 361 362 384
f 361 384 383
f 362 363 385
f 362 385 384
f 363 364 386
f 363 386 385
f 364 365 387
f 364 387 386
f 365 366 388
f 365 388 387
f 366 367 389
f 366 389 388
f 367 368 390
f 367 390 389
f 368 369 391
f 368 391 390
f 369 370 392
f 369 392 391
f 370 371 393
f 370 393 392
f 371 372 394
f 371 394 393
f 372 373 395
f 372 395 394
f 373 374 396
f 373 396 395
f 374 353 375
f 374 375 396
f 375 376 398
f 375 398 397
f 376 377 399
f 376 399 398
f 377 378 400
f 377 400 399
f 378 379 401
f 378 401 400
f 379 380 402
f 379 402 401
f 380 381 403
f 380 403 402
f 381 382 404
f 381 404 403
f 382 383 405
f 382 405 404
f 383 384 406
f 383 406 405
f 384 385 407
f 384 407 406
f 385 386 408
f 385 408 407
f 386 387 409
f 386 409 408
f 387 388 410
f 387 410 409
f 388 389 411
f 388 411 410
f 389 390 412
f 389 412 411
f 390 391 413
f 390 413 412
f 391 392 414
f 391 414 413
f 392 393 415
f 392 415 414
f 393 394 416
f 393 416 415
f 394 395 417
f 394 417 416
f 395 396 418
f 395 418 417
f 396 375 397
f 396 397 418
f 397 398 420
f 397 420 419
f 398 399 421
f 398 421 420
f 399 400 422
f 399 422 421
f 400 401 423
f 400 423 422
f 401 402 424
f 401 424 423
f 402 403 425
f 402 425 424
f 403 404 426
f 403 426 425
f 404 405 427
f 404 427 426
f 405 406 428
f 405 428 427
f 406 407 429
f 406 429 428
f 407 408 430
f 407 430 429
f 408 409 431
f 408 431 430
f 409 410 432
f 409 432 431
f 410 411 433
f 410 433 432
f 411 412 434
f 411 434 433
f 412 413 435
f 412 435 434
f 413 414 436
f 413 436 435
f 414 415 437
f 414 437 436
f 415 416 438
f 415 438 437
f 416 417 439
f 416 439 438
f 417 418 440
f 417 440 439
f 418 397 419
f 418 419 440
f 419 420 442
f 419 442 441
f 420 421 443
f 420 443 442
f 421 422 444
f 421 444 443
f 422 423 445
f 422 445 444
f 423 424 446
f 423 446 445
f 424 425 447
f 424 447 446
f 425 426 448
f 425 448 447
f 426 427 449
f 426 449 448
f 427 428 450
f 427 450 449
f 428 429 451
f 428 451 450
f 429 430 452
f 429 452 451
f 430 431 453
f 430 453 452
f 431 432 454
f 431 454 453
f 432 433 455
f 432 455 454
f 433 434 456
f 433 456 455
f 434 435 457
f 434 457 456
f 435 436 458
f 435 458 457
f 436 437 459
f 436 459 458
f 437 438 460
f 437 460 459
f 438 439 461
f 438 461 460
f 439 440 462
f 439 462 461
f 440 419 441
f 440 441 462
f 441 442 464
f 441 464 463
f 442 443 465
f 442 465 464
f 443 444 466
f 443 466 465
f 444 445 467
f 444 467 466
f 445 446 468
f 445 468 467
f 446 447 469
f 446 469 468
f 447 448 470
f 447 470 469
f 448 449 471
f 448 471 470
f 449 450 472
f 449 472 471
f 450 451 473
f 450 473 472
f 451 452 474
f 451 474 473
f 452 453 475
f 452 475 474
f 453 454 476
f 453 476 475
f 454 455 477
f 454 477 476
f 455 456 478
f 455 478 477
f 456 457 479
f 456 479 478
f 457 458 480
f 457 480 479
f 458 459 481
f 458 481 480
f 459 460 482
f 459 482 481
f 460 461 483
f 460 483 482
f 461 462 484
f 461 484 483
f 462 441 463
f 462 463 484
f 463 464 486
f 463 486 485
f 464 465 487
f 464 487 486
f 465 466 488
f 465 488 487
f 466 467 489
f 466 489 488
f 467 468 490
f 467 490 489
f 468 469 491
f 468 491 490
f 469 470 492
f 469 492 491
f 470 471 493
f 470 493 492
f 471 472 494
f 471 494 493
f 472 473 495
f 472 495 494
f 473 474 496
f 473 496 495
f 474 475 497
f 474 497 496
f 475 476 498
f 475 498 497
f 476 477 499
f 476 499 498
f 477 478 500
f 477 500 499
f 478 479 501
f 478 501 500
f 479 480 502
f 479 502 501
f 480 481 503
f 480 503 502
f 481 482 504
f 481 504 503
f 482 483 505
f 482 505 504
f 483 484 506
f 483 506 505
f 484 463 485
f 484 485 506
f 485 486 508
f 485 508 507
f 486 487 509
f 486 509 508
f 487 488 510
f 487 510 509
f 488 489 511
f 488 511 510
f 489 490 512
f 489 512 511
f 490 491 513
f 490 513 512
f 491 492 514
f 491 514 513
f 492 493 515
f 492 515 514
f 493 494 516
f 493 516 515
f 494 495 517
f 494 517 516
f 495 496 518
f 495 518 517
f 496 497 519
f 496 519 518
f 497 498 520
f 497 520 519
f 498 499 521
f 498 521 520
f 499 500 522
f 499 522 521
f 500 501 523
f 500 523 522
f 501 502 524
f 501 524 523
f 502 503 525
f 502 525 524
f 503 504 526
f 503 526 525
f 504 505 527
f 504 527 526
f 505 506 528
f 505 528 527
f 506 485 507
f 506 507 528
f 507 508 530
f 507 530 529
f 508 509 531
f 508 531 530
f 509 510 532
f 509 532 531
f 510 511 533
f 510 533 532
f 511 512 534
f 511 534 533
f 512 513 535
f 512 535 534
f 513 514 536
f 513 536 535
f 514 515 537
f 514 537 536
f 515 516 538
f 515 538 537
f 516 517 539
f 516 539 538
f 517 518 540
f 517 540 539
f 518 519 541
f 518 541 540
f 519 520 542
f 519 542 541
f 520 521 543
f 520 543 542
f 521 522 544
f 521 544 543
f 522 523 545
f 522 545 544
f 523 524 546
f 523 546 545
f 524 525 547
f 524 547 546
f 525 526 548
f 525 548 547
f 526 527 549
f 526 549 548
f 527 528 550
f 527 550 549
f 528 507 529
f 528 529 550
f 529 530 552
f 529 552 551
f 530 531 553
f 530 553 552
f 531 532 554
f 531 554 553
f 532 533 555
f 532 555 554
f 533 534 556
f 533 556 555
f 534 535 557
f 534 557 556
f 535 536 558
f 535 558 557
f 536 537 559
f 536 559 558
f 537 538 560
f 537 560 559
f 538 539 561
f 538 561 560
f 539 540 562
f 539 562 561
f 540 541 563
f 540 563 562
f 541 542 564
f 541 564 563
f 542 543 565
f 542 565 564
f 543 544 566
f 543 566 565
f 544 545 567
f 544 567 566
f 545 546 568
f 545 568 567
f 546 547 569
f 546 569 568
f 547 548 570
f 547 570 569
f 548 549 571
f 548 571 570
f 549 550 572
f 549 572 571
f 550 529 551
f 550 551 572
f 551 552 574
f 551 574 573
f 552 553 575
f 552 575 574
f 553 554 576
f 553 576 575
f 554 555 577
f 554 577 576
f 555 556 578
f 555 578 577
f 556 557 579
f 556 579 578
f 557 558 580
f 557 580 579
f 558 559 581
f 558 581 580
f 559 560 582
f 559 582 581
f 560 561 583
f 560 583 582
f 561 562 584
f 561 584 583
f 562 563 585
f 562 585 584
f 563 564 586
f 563 586 585
f 564 565 587
f 564 587 586
f 565 566 588
f 565 588 587
f 566 567 589
f 566 589 588
f 567 568 590
f 567 590 589
f 568 569 591
f 568 591 590
f 569 570 592
f 569 592 591
f 570 571 593
f 570 593 592
f 571 572 594
f 571 594 593
f 572 551 573
f 572 573 594
f 573 574 596
f 573 596 595
f 574 575 597
f 574 597 596
f 575 576 598
f 575 598 597
f 576 577 599
f 576 599 598
f 577 578 600
f 577 600 599
f 578 579 601
f 578 601 600
f 579 580 602
f 579 602 601
f 580 581 603
f 580 603 602
f 581 582 604
f 581 604 603
f 582 583 605
f 582 605 604
f 583 584 606
f 583 606 605
f 584 585 607
f 584 607 606
f 585 586 608
f 585 608 607
f 586 587 609
f 586 609 608
f 587 588 610
f 587 610 609
f 588 589 611
f 588 611 610
f 589 590 612
f 589 612 611
f 590 591 613
f 590 613 612
f 591 592 614
f 591 614 613
f 592 593 615
f 592 615 614
f 593 594 616
f 593 616 615
f 594 573 595
f 594 595 616
f 595 596 618
f 595 618 617
f 596 597 619
f 596 619 618
f 597 598 620
f 597 620 619
f 598 599 621
f 598 621 620
f 599 600 622
f 599 622 621
f 600 601 623
f 600 623 622
f 601 602 624
f 601 624 623
f 602 603 625
f 602 625 624
f 603 604 626
f 603 626 625
f 604 605 627
f 604 627 626
f 605 606 628
f 605 628 627
f 606 607 629
f 606 629 628
f 607 608 630
f 607 630 629
f 608 609 631
f 608 631 630
f 609 610 632
f 609 632 631
f 610 611 633
f 610 633 632
f 611 612 634
f 611 634 633
f 612 613 635
f 612 635 634
f 613 614 636
f 613 636 635
f 614 615 637
f 614 637 636
f 615 616 638
f 615 638 637
f 616 595 617
f 616 617 638
f 617 618 640
f 617 640 639
f 618 619 641
f 618 641 640
f 619 620 642
f 619 642 641
f 620 621 643
f 620 643 642
f 621 622 644
f 621 644 643
f 622 623 645
f 622 645 644
f 623 624 646
f 623 646 645
f 624 625 647
f 624 647 646
f 625 626 648
f 625 648 647
f 626 627 649
f 626 649 648
f 627 628 650
f 627 650 649
f 628 629 651
f 628 651 650
f 629 630 652
f 629 652 651
f 630 631 653
f 630 653 652
f 631 632 654
f 631 654 653
f 632 633 655
f 632 655 654
f 633 634 656
f 633 656 655
f 634 635 657
f 634 657 656
f 635 636 658
f 635 658 657
f 636 637 659
f 636 659 658
f 637 638 660
f 637 660 659
f 638 617 639
f 638 639 660
f 639 640 662
f 639 662 661
f 640 641 663
f 640 663 662
f 641 642 664
f 641 664 663
f 642 643 665
f 642 665 664
f 643 644 666
f 643 666 665
f 644 645 667
f 644 667 666
f 645 646 668
f 645 668 667
f 646 647 669
f 646 669 668
f 647 648 670
f 647 670 669
f 648 649 671
f 648 671 670
f 649 650 672
f 649 672 671
f 650 651 673
f 650 673 672
f 651 652 674
f 651 674 673
f 652 653 675
f 652 675 674
f 653 654 676
f 653 676 675
f 654 655 677
f 654 677 676
f 655 656 678
f 655 678 677
f 656 657 679
f 656 679 678
f 657 658 680
f 657 680 679
f 658 659 681
f 658 681 680
f 659 660 682
f 659 682 681
f 660 639 661
f 660 661 682
f 661 662 684
f 661 684 683
f 662 663 685
f 662 685 684
f 663 664 686
f 663 686 685
f 664 665 687
f 664 687 686
f 665 666 688
f 665 688 687
f 666 667 689
f 666 689 688
f 667 668 690
f 667 690 689
f 668 669 691
f 668 691 690
f 669 670 692
f 669 692 691
f 670 671 693
f 670 693 692
f 671 672 694
f 671 694 693
f 672 673 695
f 672 695 694
f 673 674 696
f 673 696 695
f 674 675 697
f 674 697 696
f 675 676 698
f 675 698 697
f 676 677 699
f 676 699 698
f 677 678 700
f 677 700 699
f 678 679 701
f 678 701 700
f 679 680 702
f 679 702 701
f 680 681 703
f 680 703 702
f 681 682 704
f 681 704 703
f 682 661 683
f 682 683 704
f 683 684 706
f 683 706 705
f 684 685 707
f 684 707 706
f 685 686 708
f 685 708 707
f 686 687 709
f 686 709 708
f 687 688 710
f 687 710 709
f 688 689 711
f 688 711 710
f 689 690 712
f 689 712 711
f 690 691 713
f 690 713 712
f 691 692 714
f 691 714 713
f 692 693 715
f 692 715 714
f 693 694 716
f 693 716 715
f 694 695 717
f 694 717 716
f 695 696 718
f 695 718 717
f 696 697 719
f 696 719 718
f 697 698 720
f 697 720 719
f 698 699 721
f 698 721 720
f 699 700 722
f 699 722 721
f 700 701 723
f 700 723 722
f 701 702 724
f 701 724 723
f 702 703 725
f 702 725 724
f 703 704 726
f 703 726 725
f 704 683 705
f 704 705 726
f 705 706 728
f 705 728 727
f 706 707 729
f 706 729 728
f 707 708 730
f 707 730 729
f 708 709 731
f 708 731 730
f 709 710 732
f 709 732 731
f 710 711 733
f 710 733 732
f 711 712 734
f 711 734 733
f 712 713 735
f 712 735 734
f 713 714 736
f 713 736 735
f 714 715 737
f 714 737 736
f 715 716 738
f 715 738 737
f 716 717 739
f 716 739 738
f 717 718 740
f 717 740 739
f 718 719 741
f 718 741 740
f 719 720 742
f 719 742 741
f 720 721 743
f 720 743 742
f 721 722 744
f 721 744 743
f 722 723 745
f 722 745 744
f 723 724 746
f 723 746 745
f 724 725 747
f 724 747 746
f 725 726 748
f 725 748 747
f 726 705 727
f 726 727 748
f 727 728 750
f 727 750 749
f 728 729 751
f 728 751 750
f 729 730 752
f 729 752 751
f 730 731 753
f 730 753 752
f 731 732 754
f 731 754 753
f 732 733 755
f 732 755 754
f 733 734 756
f 733 756 755
f 734 735 757
f 734 757 756
f 735 736 758
f 735 758 757
f 736 737 759
f 736 759 758
f 737 738 760
f 737 760 759
f 738 739 761
f 738 761 760
f 739 740 762
f 739 762 761
f 740 741 763
f 740 763 762
f 741 742 764
f 741 764 763
f 742 743 765
f 742 765 764
f 743 744 766
f 743 766 765
f 744 745 767
f 744 767 766
f 745 746 768
f 745 768 767
f 746 747 769
f 746 769 768
f 747 748 770
f 747 770 769
f 748 727 749
f 748 749 770
f 749 750 772
f 749 772 771
f 750 751 773
f 750 773 772
f 751 752 774
f 751 774 773
f 752 753 775
f 752 775 774
f 753 754 776
f 753 776 775
f 754 755 777
f 754 777 776
f 755 756 778
f 755 778 777
f 756 757 779
f 756 779 778
f 757 758 780
f 757 780 779
f 758 759 781
f 758 781 780
f 759 760 782
f 759 782 781
f 760 761 783
f 760 783 782
f 761 762 784
f 761 784 783
f 762 763 785
f 762 785 784
f 763 764 786
f 763 786 785
f 764 765 787
f 764 787 786
f 765 766 788
f 765 788 787
f 766 767 789
f 766 789 788
f 767 768 790
f 767 790 789
f 768 769 791
f 768 791 790
f 769 770 792
f 769 792 791
f 770 749 771
f 770 771 792
f 771 772 794
f 771 794 793
f 772 773 795
f 772 795 794
f 773 774 796
f 773 796 795
f 774 775 797
f 774 797 796
f 775 776 798
f 775 798 797
f 776 777 799
f 776 799 798
f 777 778 800
f 777 800 799
f 778 779 801
f 778 801 800
f 779 780 802
f 779 802 801
f 780 781 803
f 780 803 802
f 781 782 804
f 781 804 803
f 782 783 805
f 782 805 804
f 783 784 806
f 783 806 805
f 784 785 807
f 784 807 806
f 785 786 808
f 785 808 807
f 786 787 809
f 786 809 808
f 787 788 810
f 787 810 809
f 788 789 811
f 788 811 810
f 789 790 812
f 789 812 811
f 790 791 813
f 790 813 812
f 791 792 814
f 791 814 813
f 792 771 793
f 792 793 814
f 793 794 816
f 793 816 815
f 794 795 817
f 794 817 816
f 795 796 818
f 795 818 817
f 796 797 819
f 796 819 818
f 797 798 820
f 797 820 819
f 798 799 821
f 798 821 820
f 799 800 822
f 799 822 821
f 800 801 823
f 800 823 822
f 801 802 824
f 801 824 823
f 802 803 825
f 802 825 824
f 803 804 826
f 803 826 825
f 804 805 827
f 804 827 826
f 805 806 828
f 805 828 827
f 806 807 829
f 806 829 828
f 807 808 830
f 807 830 829
f 808 809 831
f 808 831 830
f 809 810 832
f 809 832 831
f 810 811 833
f 810 833 832
f 811 812 834
f 811 834 833
f 812 813 835
f 812 835 834
f 813 814 836
f 813 836 835
f 814 793 815
f 814 815 836
f 815 816 838
f 815 838 837
f 816 817 839
f 816 839 838
f 817 818 840
f 817 840 839
f 818 819 841
f 818 841 840
f 819 820 842
f 819 842 841
f 820 821 843
f 820 843 842
f 821 822 844
f 821 844 843
f 822 823 845
f 822 845 844
f 823 824 846
f 823 846 845
f 824 825 847
f 824 847 846
f 825 826 848
f 825 848 847
f 826 827 849
f 826 849 848
f 827 828 850
f 827 850 849
f 828 829 851
f 828 851 850
f 829 830 852
f 829 852 851
f 830 831 853
f 830 853 852
f 831 832 854
f 831 854 853
f 832 833 855
f 832 855 854
f 833 834 856
f 833 856 855
f 834 835 857
f 834 857 856
f 835 836 858
f 835 858 857
f 836 815 837
f 836 837 858
f 837 838 860
f 837 860 859
f 838 839 861
f 838 861 860
f 839 840 862
f 839 862 861
f 840 841 863
f 840 863 862
f 841 842 864
f 841 864 863
f 842 843 865
f 842 865 864
f 843 844 866
f 843 866 865
f 844 845 867
f 844 867 866
f 845 846 868
f 845 868 867
f 846 847 869
f 846 869 868
f 847 848 870
f 847 870 869
f 848 849 871
f 848 871 870
f 849 850 872
f 849 872 871
f 850 851 873
f 850 873 872
f 851 852 874
f 851 874 873
f 852 853 875
f 852 875 874
f 853 854 876
f 853 876 875
f 854 855 877
f 854 877 876
f 855 856 878
f 855 878 877
f 856 857 879
f 856 879 878
f 857 858 880
f 857 880 879
f 858 837 859
f 858 859 880
f 859 860 882
f 859 882 881
f 860 861 883
f 860 883 882
f 861 862 884
f 861 884 883
f 862 863 885
f 862 885 884
f 863 864 886
f 863 886 885
f 864 865 887
f 864 887 886
f 865 866 888
f 865 888 887
f 866 867 889
f 866 889 888
f 867 868 890
f 867 890 889
f 868 869 891
f 868 891 890
f 869 870 892
f 869 892 891
f 870 871 893
f 870 893 892
f 871 872 894
f 871 894 893
f 872 873 895
f 872 895 894
f 873 874 896
f 873 896 895
f 874 875 897
f 874 897 896
f 875 876 898
f 875 898 897
f 876 877 899
f 876 899 898
f 877 878 900
f 877 900 899
f 878 879 901
f 878 901 900
f 879 880 902
f 879 902 901
f 880 859 881
f 880 881 902
f 881 882 904
f 881 904 903
f 882 883 905
f 882 905 904
f 883 884 906
f 883 906 905
f 884 885 907
f 884 907 906
f 885 886 908
f 885 908 907
f 886 887 909
f 886 909 908
f 887 888 910
f 887 910 909
f 888 889 911
f 888 911 910
f 889 890 912
f 889 912 911
f 890 891 913
f 890 913 912
f 891 892 914
f 891 914 913
f 892 893 915
f 892 915 914
f 893 894 916
f 893 916 915
f 894 895 917
f 894 917 916
f 895 896 918
f 895 918 917
f 896 897 919
f 896 919 918
f 897 898 920
f 897 920 919
f 898 899 921
f 898 921 920
f 899 900 922
f 899 922 921
f 900 901 923
f 900 923 922
f 901 902 924
f 901 924 923
f 902 881 903
f 902 903 924
f 903 904 926
f 903 926 925
f 904 905 927
f 904 927 926
f 905 906 928
f 905 928 927
f 906 907 929
f 906 929 928
f 907 908 930
f 907 930 929
f 908 909 931
f 908 931 930
f 909 910 932
f 909 932 931
f 910 911 933
f 910 933 932
f 911 912 934
f 911 934 933
f 912 913 935
f 912 935 934
f 913 914 936
f 913 936 935
f 914 915 937
f 914 937 936
f 915 916 938
f 915 938 937
f 916 917 939
f 916 939 938
f 917 918 940
f 917 940 939
f 918 919 941
f 918 941 940
f 919 920 942
f 919 942 941
f 920 921 943
f 920 943 942
f 921 922 944
f 921 944 943
f 922 923 945
f 922 945 944
f 923 924 946
f 923 946 945
f 924 903 925
f 924 925 946
f 925 926 948
f 925 948 947
f 926 927 949
f 926 949 948
f 927 928 950
f 927 950 949
f 928 929 951
f 928 951 950
f 929 930 952
f 929 952 951
f 930 931 953
f 930 953 952
f 931 932 954
f 931 954 953
f 932 933 955
f 932 955 954
f 933 934 956
f 933 956 955
f 934 935 957
f 934 957 956
f 935 936 958
f 935 958 957
f 936 937 959
f 936 959 958
f 937 938 960
f 937 960 959
f 938 939 961
f 938 961 960
f 939 940 962
f 939 962 961
f 940 941 963
f 940 963 962
f 941 942 964
f 941 964 963
f 942 943 965
f 942 965 964
f 943 944 966
f 943 966 965
f 944 945 967
f 944 967 966
f 945 946 968
f 945 968 967
f 946 925 947
f 946 947 968
f 947 948 970
f 947 970 969
f 948 949 971
f 948 971 970
f 949 950 972
f 949 972 971
f 950 951 973
f 950 973 972
f 951 952 974
f 951 974 973
f 952 953 975
f 952 975 974
f 953 954 976
f 953 976 975
f 954 955 977
f 954 977 976
f 955 956 978
f 955 978 977
f 956 957 979
f 956 979 978
f 957 958 980
f 957 980 979
f 958 959 981
f 958 981 980
f 959 960 982
f 959 982 981
f 960 961 983
f 960 983 982
f 961 962 984
f 961 984 983
f 962 963 985
f 962 985 984
f 963 964 986
f 963 986 985
f 964 965 987
f 964 987 986
f 965 966 988
f 965 988 987
f 966 967 989
f 966 989 988
f 967 968 990
f 967 990 989
f 968 947 969
f 968 969 990
f 969 970 992
f 969 992 991
f 970 971 993
f 970 993 992
f 971 972 994
f 971 994 993
f 972 973 995
f 972 995 994
f 973 974 996
f 973 996 995
f 974 975 997
f 974 997 996
f 975 976 998
f 975 998 997
f 976 977 999
f 976 999 998
f 977 978 1000
f 977 1000 999
f 978 979 1001
f 978 1001 1000
f 979 980 1002
f 979 1002 1001
f 980 981 1003
f 980 1003 1002
f 981 982 1004
f 981 1004 1003
f 982 983 1005
f 982 1005 1004
f 983 984 1006
f 983 1006 1005
f 984 985 1007
f 984 1007 1006
f 985 986 1008
f 985 1008 1007
f 986 987 1009
f 986 1009 1008
f 987 988 1010
f 987 1010 1009
f 988 989 1011
f 988 1011 1010
f 989 990 1012
f 989 1012 1011
f 990 969 991
f 990 991 1012
f 991 992 1014
f 991 1014 1013
f 992 993 1015
f 992 1015 1014
f 993 994 1016
f 993 1016 1015
f 994 995 1017
f 994 1017 1016
f 995 996 1018
f 995 1018 1017
f 996 997 1019
f 996 1019 1018
f 997 998 1020
f 997 1020 1019
f 998 999 1021
f 998 1021 1020
f 999 1000 1022
f 999 1022 1021
f 1000 1001 1023
f 1000 1023 1022
f 1001 1002 1024
f 1001 1024 1023
f 1002 1003 1025
f 1002 1025 1024
f 1003 1004 1026
f 1003 1026 1025
f 1004 1005 1027
f 1004 1027 1026
f 1005 1006 1028
f 1005 1028 1027
f 1006 1007 1029
f 1006 1029 1028
f 1007 1008 1030
f 1007 1030 1029
f 1008 1009 1031
f 1008 1031 1030
f 1009 1010 1032
f 1009 1032 1031
f 1010 1011 1033
f 1010 1033 1032
f 1011 1012 1034
f 1011 1034 1033
f 1012 991 1013
f 1012 1013 1034
f 1013 1014 1036
f 1013 1036 1035
f 1014 1015 1037
f 1014 1037 1036
f 1015 1016 1038
f 1015 1038 1037
f 1016 1017 1039
f 1016 1039 1038
f 1017 1018 1040
f 1017 1040 1039
f 1018 1019 1041
f 1018 1041 1040
f 1019 1020 1042
f 1019 1042 1041
f 1020 1021 1043
f 1020 1043 1042
f 1021 1022 1044
f 1021 1044 1043
f 1022 1023 1045
f 1022 1045 1044
f 1023 1024 1046
f 1023 1046 1045
f 1024 1025 1047
f 1024 1047 1046
f 1025 1026 1048
f 1025 1048 1047
f 1026 1027 1049
f 1026 1049 1048
f 1027 1028 1050
f 1027 1050 1049
f 1028 1029 1051
f 1028 1051 1050
f 1029 1030 1052
f 1029 1052 1051
f 1030 1031 1053
f 1030 1053 1052
f 1031 1032 1054
f 1031 1054 1053
f 1032 1033 1055
f 1032 1055 1054
f 1033 1034 1056
f 1033 1056 1055
f 1034 1013 1035
f 1034 1035 1056
f 1035 1036 1058
f 1035 1058 1057
f 1036 1037 1059
f 1036 1059 1058
f 1037 1038 1060
f 1037 1060 1059
f 1038 1039 1061
f 1038 1061 1060
f 1039 1040 1062
f 1039 1062 1061
f 1040 1041 1063
f 1040 1063 1062
f 1041 1042 1064
f 1041 1064 1063
f 1042 1043 1065
f 1042 1065 1064
f 1043 1044 1066
f 1043 1066 1065
f 1044 1045 1067
f 1044 1067 1066
f 1045 1046 1068
f 1045 1068 1067
f 1046 1047 1069
f 1046 1069 1068
f 1047 1048 1070
f 1047 1070 1069
f 1048 1049 1071
f 1048 1071 1070
f 1049 1050 1072
f 1049 1072 1071
f 1050 1051 1073
f 1050 1073 1072
f 1051 1052 1074
f 1051 1074 1073
f 1052 1053 1075
f 1052 1075 1074
f 1053 1054 1076
f 1053 1076 1075
f 1054 1055 1077
f 1054 1077 1076
f 1055 1056 1078
f 1055 1078 1077
f 1056 1035 1057
f 1056 1057 1078
f 1057 1058 1080
f 1057 1080 1079
f 1058 1059 1081
f 1058 1081 1080
f 1059 1060 1082
f 1059 1082 1081
f 1060 1061 1083
f 1060 1083 1082
f 1061 1062 1084
f 1061 1084 1083
f 1062 1063 1085
f 1062 1085 1084
f 1063 1064 1086
f 1063 1086 1085
f 1064 1065 1087
f 1064 1087 1086
f 1065 1066 1088
f 1065 1088 1087
f 1066 1067 1089
f 1066 1089 1088
f 1067 1068 1090
f 1067 1090 1089
f 1068 1069 1091
f 1068 1091 1090
f 1069 1070 1092
f 1069 1092 1091
f 1070 1071 1093
f 1070 1093 1092
f 1071 1072 1094
f 1071 1094 1093
f 1072 1073 1095
f 1072 1095 1094
f 1073 1074 1096
f 1073 1096 1095
f 1074 1075 1097
f 1074 1097 1096
f 1075 1076 1098
f 1075 1098 1097
f 1076 1077 1099
f 1076 1099 1098
f 1077 1078 1100
f 1077 1100 1099
f 1078 1057 1079
f 1078 1079 1100
f 1079 1080 1102
f 1079 1102 1101
f 1080 1081 1103
f 1080 1103 1102
f 1081 1082 1104
f 1081 1104 1103
f 1082 1083 1105
f 1082 1105 1104
f 1083 1084 1106
f 1083 1106 1105
f 1084 1085 1107
f 1084 1107 1106
f 1085 1086 1108
f 1085 1108 1107
f 1086 1087 1109
f 1086 1109 1108
f 1087 1088 1110
f 1087 1110 1109
f 1088 1089 1111
f 1088 1111 1110
f 1089 1090 1112
f 1089 1112 1111
f 1090 1091 1113
f 1090 1113 1112
f 1091 1092 1114
f 1091 1114 1113
f 1092 1093 1115
f 1092 1115 1114
f 1093 1094 1116
f 1093 1116 1115
f 1094 1095 1117
f 1094 1117 1116
f 1095 1096 1118
f 1095 1118 1117
f 1096 1097 1119
f 1096 1119 1118
f 1097 1098 1120
f 1097 1120 1119
f 1098 1099 1121
f 1098 1121 1120
f 1099 1100 1122
f 1099 1122 1121
f 1100 1079 1101
f 1100 1101 1122
f 1101 1102 1124
f 1101 1124 1123
f 1102 1103 1125
f 1102 1125 1124
f 1103 1104 1126
f 1103 1126 1125
f 1104 1105 1127
f 1104 1127 1126
f 1105 1106 1128
f 1105 1128 1127
f 1106 1107 1129
f 1106 1129 1128
f 1107 1108 1130
f 1107 1130 1129
f 1108 1109 1131
f 1108 1131 1130
f 1109 1110 1132
f 1109 1132 1131
f 1110 1111 1133
f 1110 1133 1132
f 1111 1112 1134
f 1111 1134 1133
f 1112 1113 1135
f 1112 1135 1134
f 1113 1114 1136
f 1113 1136 1135
f 1114 1115 1137
f 1114 1137 1136
f 1115 1116 1138
f 1115 1138 1137
f 1116 1117 1139
f 1116 1139 1138
f 1117 1118 1140
f 1117 1140 1139
f 1118 1119 1141
f 1118 1141 1140
f 1119 1120 1142
f 1119 1142 1141
f 1120 1121 1143
f 1120 1143 1142
f 1121 1122 1144
f 1121 1144 1143
f 1122 1101 1123
f 1122 1123 1144
f 1123 1124 1146
f 1123 1146 1145
f 1124 1125 1147
f 1124 1147 1146
f 1125 1126 1148
f 1125 1148 1147
f 1126 1127 1149
f 1126 1149 1148
f 1127 1128 1150
f 1127 1150 1149
f 1128 1129 1151
f 1128 1151 1150
f 1129 1130 1152
f 1129 1152 1151
f 1130 1131 1153
f 1130 1153 1152
f 1131 1132 1154
f 1131 1154 1153
f 1132 1133 1155
f 1132 1155 1154
f 1133 1134 1156
f 1133 1156 1155
f 1134 1135 1157
f 1134 1157 1156
f 1135 1136 1158
f 1135 1158 1157
f 1136 1137 1159
f 1136 1159 1158
f 1137 1138 1160
f 1137 1160 1159
f 1138 1139 1161
f 1138 1161 1160
f 1139 1140 1162
f 1139 1162 1161
f 1140 1141 1163
f 1140 1163 1162
f 1141 1142 1164
f 1141 1164 1163
f 1142 1143 1165
f 1142 1165 1164
f 1143 1144 1166
f 1143 1166 1165
f 1144 1123 1145
f 1144 1145 1166
f 1145 1146 1168
f 1145 1168 1167
f 1146 1147 1169
f 1146 1169 1168
f 1147 1148 1170
f 1147 1170 1169
f 1148 1149 1171
f 1148 1171 1170
f 1149 1150 1172
f 1149 1172 1171
f 1150 1151 1173
f 1150 1173 1172
f 1151 1152 1174
f 1151 1174 1173
f 1152 1153 1175
f 1152 1175 1174
f 1153 1154 1176
f 1153 1176 1175
f 1154 1155 1177
f 1154 1177 1176
f 1155 1156 1178
f 1155 1178 1177
f 1156 1157 1179
f 1156 1179 1178
f 1157 1158 1180
f 1157 1180 1179
f 1158 1159 1181
f 1158 1181 1180
f 1159 1160 1182
f 1159 1182 1181
f 1160 1161 1183
f 1160 1183 1182
f 1161 1162 1184
f 1161 1184 1183
f 1162 1163 1185
f 1162 1185 1184
f 1163 1164 1186
f 1163 1186 1185
f 1164 1165 1187
f 1164 1187 1186
f 1165 1166 1188
f 1165 1188 1187
f 1166 1145 1167
f 1166 1167 1188
f 1167 1168 1190
f 1167 1190 1189
f 1168 1169 1191
f 1168 1191 1190
f 1169 1170 1192
f 1169 1192 1191
f 1170 1171 1193
f 1170 1193 1192
f 1171 1172 1194
f 1171 1194 1193
f 1172 1173 1195
f 1172 1195 1194
f 1173 1174 1196
f 1173 1196 1195
f 1174 1175 1197
f 1174 1197 1196
f 1175 1176 1198
f 1175 1198 1197
f 1176 1177 1199
f 1176 1199 1198
f 1177 1178 1200
f 1177 1200 1199
f 1178 1179 1201
f 1178 1201 1200
f 1179 1180 1202
f 1179 1202 1201
f 1180 1181 1203
f 1180 1203 1202
f 1181 1182 1204
f 1181 1204 1203
f 1182 1183 1205
f 1182 1205 1204
f 1183 1184 1206
f 1183 1206 1205
f 1184 1185 1207
f 1184 1207 1206
f 1185 1186 1208
f 1185 1208 1207
f 1186 1187 1209
f 1186 1209 1208
f 1187 1188 1210
f 1187 1210 1209
f 1188 1167 1189
f 1188 1189 1210
f 1211 2 1
f 1212 1189 1190
f 1211 3 2
f 1212 1190 1191
f 1211 4 3
f 1212 1191 1192
f 1211 5 4
f 1212 1192 1193
f 1211 6 5
f 1212 1193 1194
f 1211 7 6
f 1212 1194 1195
f 1211 8 7
f 1212 1195 1196
f 1211 9 8
f 1212 1196 1197
f 1211 10 9
f 1212 1197 1198
f 1211 11 10
f 1212 1198 1199
f 1211 12 11
f 1212 1199 1200
f 1211 13 12
f 1212 1200 1201
f 1211 14 13
f 1212 1201 1202
f 1211 15 14
f 1212 1202 1203
f 1211 16 15
f 1212 1203 1204
f 1211 17 16
f 1212 1204 1205
f 1211 18 17
f 1212 1205 1206
f 1211 19 18
f 1212 1206 1207
f 1211 20 19
f 1212 1207 1208
f 1211 21 20
f 1212 1208 1209
f 1211 22 21
f 1212 1209 1210
f 1211 1 22
f 1212 1210 1189
