v 0.018000 0.0595 0.068000
v 0.018000 0.0595 2.132000
v 0.018000 0.0205 0.068000
v 0.018000 0.0205 2.132000
v 0.018000 0.0595 0.068000
v 0.018000 0.0595 2.132000
v 0.021000 0.0625 2.132000
v 0.021000 0.0625 0.068000
v 0.021000 0.0595 0.065000
v 0.018000 0.0595 0.068000
v 0.018000 0.0205 0.068000
v 0.021000 0.0205 0.065000
v 0.021000 0.0595 2.135000
v 0.018000 0.0595 2.132000
v 0.018000 0.0205 2.132000
v 0.021000 0.0205 2.135000
v 0.018000 0.0205 0.068000
v 0.018000 0.0205 2.132000
v 0.021000 0.0175 2.132000
v 0.021000 0.0175 0.068000
v 0.021000 0.0595 0.065000
v 0.018000 0.0595 0.068000
v 0.021000 0.0625 0.068000
v 0.021000 0.0595 2.135000
v 0.018000 0.0595 2.132000
v 0.021000 0.0625 2.132000
v 0.021000 0.0625 0.068000
v 0.021000 0.0625 2.132000
v 0.909000 0.0625 2.132000
v 0.909000 0.0625 0.068000
v 0.021000 0.0595 0.065000
v 0.021000 0.0205 0.065000
v 0.909000 0.0595 0.065000
v 0.909000 0.0205 0.065000
v 0.021000 0.0205 0.065000
v 0.018000 0.0205 0.068000
v 0.021000 0.0175 0.068000
v 0.021000 0.0595 2.135000
v 0.021000 0.0205 2.135000
v 0.909000 0.0595 2.135000
v 0.909000 0.0205 2.135000
v 0.021000 0.0175 2.132000
v 0.018000 0.0205 2.132000
v 0.021000 0.0205 2.135000
v 0.021000 0.0175 0.068000
v 0.021000 0.0175 2.132000
v 0.909000 0.0175 2.132000
v 0.909000 0.0175 0.068000
v 0.021000 0.0595 0.065000
v 0.021000 0.0625 0.068000
v 0.909000 0.0625 0.068000
v 0.909000 0.0595 0.065000
v 0.021000 0.0595 2.135000
v 0.021000 0.0625 2.132000
v 0.909000 0.0625 2.132000
v 0.909000 0.0595 2.135000
v 0.912000 0.0595 0.068000
v 0.912000 0.0595 2.132000
v 0.909000 0.0625 2.132000
v 0.909000 0.0625 0.068000
v 0.021000 0.0205 0.065000
v 0.021000 0.0175 0.068000
v 0.909000 0.0175 0.068000
v 0.909000 0.0205 0.065000
v 0.909000 0.0595 0.065000
v 0.912000 0.0595 0.068000
v 0.912000 0.0205 0.068000
v 0.909000 0.0205 0.065000
v 0.021000 0.0175 2.132000
v 0.021000 0.0205 2.135000
v 0.909000 0.0175 2.132000
v 0.909000 0.0205 2.135000
v 0.909000 0.0595 2.135000
v 0.912000 0.0595 2.132000
v 0.912000 0.0205 2.132000
v 0.909000 0.0205 2.135000
v 0.912000 0.0205 0.068000
v 0.912000 0.0205 2.132000
v 0.909000 0.0175 2.132000
v 0.909000 0.0175 0.068000
v 0.909000 0.0595 0.065000
v 0.912000 0.0595 0.068000
v 0.909000 0.0625 0.068000
v 0.909000 0.0595 2.135000
v 0.912000 0.0595 2.132000
v 0.909000 0.0625 2.132000
v 0.912000 0.0595 0.068000
v 0.912000 0.0595 2.132000
v 0.912000 0.0205 0.068000
v 0.912000 0.0205 2.132000
v 0.909000 0.0205 0.065000
v 0.912000 0.0205 0.068000
v 0.909000 0.0175 0.068000
v 0.909000 0.0175 2.132000
v 0.912000 0.0205 2.132000
v 0.909000 0.0205 2.135000
f 1 3 2
f 3 4 2
f 5 6 7
f 8 5 7
f 10 9 12
f 11 10 12
f 13 14 16
f 14 15 16
f 18 17 19
f 17 20 19
f 21 22 23
f 25 24 26
f 27 28 29
f 30 27 29
f 32 31 34
f 31 33 34
f 36 35 37
f 38 39 41
f 40 38 41
f 43 42 44
f 46 45 47
f 45 48 47
f 49 50 52
f 50 51 52
f 54 53 56
f 55 54 56
f 58 57 59
f 57 60 59
f 62 61 64
f 63 62 64
f 65 66 68
f 66 67 68
f 70 69 72
f 69 71 72
f 74 73 76
f 75 74 76
f 77 78 79
f 80 77 79
f 82 81 83
f 84 85 86
f 89 87 88
f 90 89 88
f 91 92 93
f 94 95 96
