v 0.000000 0.007500 0.000000
v 0.000000 0.007500 2.100000
v 0.000000 0.052500 0.000000
v 0.000000 0.052500 2.100000
v 0.000000 0.007500 0.000000
v 0.900000 0.007500 0.000000
v 0.000000 0.007500 2.100000
v 0.900000 0.007500 2.100000
v 0.222500 0.007500 2.015000
v 0.347500 0.007500 2.015000
v 0.222500 0.007500 1.065000
v 0.347500 0.007500 1.065000
v 0.000000 0.007500 2.100000
v 0.000000 0.052500 2.100000
v 0.900000 0.007500 2.100000
v 0.900000 0.052500 2.100000
v 0.000000 0.052500 0.000000
v 0.900000 0.052500 0.000000
v 0.000000 0.052500 2.100000
v 0.900000 0.052500 2.100000
v 0.222500 0.052500 2.015000
v 0.347500 0.052500 2.015000
v 0.222500 0.052500 1.065000
v 0.347500 0.052500 1.065000
v 0.000000 0.007500 0.000000
v 0.000000 0.052500 0.000000
v 0.900000 0.007500 0.000000
v 0.900000 0.052500 0.000000
v 0.900000 0.007500 0.000000
v 0.900000 0.007500 2.100000
v 0.900000 0.052500 0.000000
v 0.900000 0.052500 2.100000
v 0.222500 0.007500 2.015000
v 0.222500 0.052500 2.015000
v 0.347500 0.007500 2.015000
v 0.347500 0.052500 2.015000
v 0.347500 0.007500 2.015000
v 0.347500 0.052500 2.015000
v 0.347500 0.007500 1.065000
v 0.347500 0.052500 1.065000
v 0.222500 0.007500 1.065000
v 0.222500 0.052500 1.065000
v 0.347500 0.007500 1.065000
v 0.347500 0.052500 1.065000
v 0.222500 0.007500 2.015000
v 0.222500 0.052500 2.015000
v 0.222500 0.007500 1.065000
v 0.222500 0.052500 1.065000
f 2 3 1
f 2 4 3
f 12 5 6
f 12 11 5
f 7 5 11
f 9 7 11
f 10 7 9
f 8 10 12
f 8 12 6
f 8 7 10
f 16 14 13
f 16 13 15
f 24 18 17
f 24 17 23
f 19 23 17
f 21 23 19
f 22 21 19
f 20 24 22
f 20 18 24
f 20 22 19
f 28 25 26
f 28 27 25
f 30 29 31
f 30 31 32
f 36 33 34
f 36 35 33
f 37 40 39
f 37 38 40
f 44 42 41
f 44 41 43
f 45 47 48
f 45 48 46
