# WC4 lever_handle visual geometry in rigid-body frame
o lever_handle
v -0.1100000000 -0.0050000000 0.0400000000
v 0.0100000000 -0.0050000000 0.0400000000
v 0.0100000000 -0.0050000000 0.0200000000
v -0.1100000000 -0.0050000000 0.0200000000
v -0.1100000000 0.0050000000 0.0400000000
v 0.0100000000 0.0050000000 0.0400000000
v 0.0100000000 0.0050000000 0.0200000000
v -0.1100000000 0.0050000000 0.0200000000
v -0.0100000000 -0.0050000000 0.0300000000
v 0.0100000000 -0.0050000000 0.0300000000
v 0.0100000000 -0.0050000000 0.0000000000
v -0.0100000000 -0.0050000000 0.0000000000
v -0.0100000000 0.0050000000 0.0300000000
v 0.0100000000 0.0050000000 0.0300000000
v 0.0100000000 0.0050000000 0.0000000000
v -0.0100000000 0.0050000000 0.0000000000
f 1 3 2
f 1 4 3
f 5 6 7
f 5 7 8
f 1 2 6
f 1 6 5
f 2 3 7
f 2 7 6
f 3 4 8
f 3 8 7
f 4 1 5
f 4 5 8
f 9 11 10
f 9 12 11
f 13 14 15
f 13 15 16
f 9 10 14
f 9 14 13
f 10 11 15
f 10 15 14
f 11 12 16
f 11 16 15
f 12 9 13
f 12 13 16
