o mesh
v -0.008357 -0.015978 -0.001000
v -0.008699 -0.015812 0.000723
v -0.009146 -0.015174 0.002307
v -0.009662 -0.014118 0.003623
v -0.010206 -0.012728 0.004564
v -0.010733 -0.011116 0.005054
v -0.011200 -0.009415 0.005054
v -0.011571 -0.007761 0.004564
v -0.011814 -0.006288 0.003623
v -0.011910 -0.005116 0.002307
v -0.011851 -0.004339 0.000723
v -0.011643 -0.004022 -0.001000
v -0.011301 -0.004188 -0.002723
v -0.010854 -0.004826 -0.004307
v -0.010338 -0.005882 -0.005623
v -0.009794 -0.007272 -0.006564
v -0.009267 -0.008884 -0.007054
v -0.008800 -0.010585 -0.007054
v -0.008429 -0.012239 -0.006564
v -0.008186 -0.013712 -0.005623
v -0.008090 -0.014884 -0.004307
v -0.008149 -0.015661 -0.002723
v -0.009975 -0.016423 -0.001278
v -0.010324 -0.016258 0.000444
v -0.010782 -0.015624 0.002026
v -0.011311 -0.014571 0.003340
v -0.011867 -0.013184 0.004279
v -0.012406 -0.011576 0.004767
v -0.012885 -0.009878 0.004765
v -0.013264 -0.008226 0.004273
v -0.013513 -0.006755 0.003331
v -0.013611 -0.005583 0.002015
v -0.013551 -0.004806 0.000431
v -0.013338 -0.004487 -0.001291
v -0.012988 -0.004652 -0.003013
v -0.012530 -0.005286 -0.004595
v -0.012002 -0.006339 -0.005909
v -0.011445 -0.007726 -0.006848
v -0.010906 -0.009334 -0.007336
v -0.010427 -0.011032 -0.007334
v -0.010048 -0.012684 -0.006842
v -0.009799 -0.014155 -0.005900
v -0.009701 -0.015327 -0.004583
v -0.009761 -0.016104 -0.003000
v -0.011542 -0.016876 -0.001561
v -0.011906 -0.016716 0.000159
v -0.012383 -0.016087 0.001737
v -0.012934 -0.015040 0.003047
v -0.013513 -0.013660 0.003981
v -0.014075 -0.012059 0.004465
v -0.014574 -0.010366 0.004460
v -0.014969 -0.008719 0.003965
v -0.015228 -0.007250 0.003021
v -0.015330 -0.006080 0.001704
v -0.015268 -0.005303 0.000121
v -0.015045 -0.004981 -0.001600
v -0.014681 -0.005141 -0.003319
v -0.014204 -0.005771 -0.004898
v -0.013653 -0.006817 -0.006207
v -0.013074 -0.008197 -0.007142
v -0.012512 -0.009799 -0.007626
v -0.012013 -0.011491 -0.007621
v -0.011618 -0.013139 -0.007126
v -0.011359 -0.014607 -0.006181
v -0.011257 -0.015777 -0.004864
v -0.011319 -0.016554 -0.003281
v -0.013109 -0.017348 -0.001855
v -0.013485 -0.017191 -0.000138
v -0.013977 -0.016567 0.001437
v -0.014545 -0.015525 0.002743
v -0.015143 -0.014150 0.003675
v -0.015722 -0.012554 0.004156
v -0.016236 -0.010866 0.004147
v -0.016644 -0.009223 0.003650
v -0.016911 -0.007757 0.002704
v -0.017017 -0.006588 0.001386
v -0.016952 -0.005810 -0.000196
v -0.016723 -0.005486 -0.001916
v -0.016347 -0.005643 -0.003633
v -0.015855 -0.006268 -0.005209
v -0.015287 -0.007309 -0.006515
v -0.014689 -0.008684 -0.007446
v -0.014109 -0.010280 -0.007927
v -0.013595 -0.011968 -0.007918
v -0.013188 -0.013611 -0.007421
v -0.012921 -0.015077 -0.006475
v -0.012815 -0.016246 -0.005158
v -0.012880 -0.017024 -0.003575
v -0.014681 -0.017835 -0.002160
v -0.015065 -0.017681 -0.000445
v -0.015567 -0.017060 0.001129
v -0.016148 -0.016022 0.002433
v -0.016759 -0.014651 0.003361
v -0.017351 -0.013059 0.003840
v -0.017876 -0.011375 0.003829
v -0.018293 -0.009734 0.003330
v -0.018566 -0.008270 0.002383
v -0.018674 -0.007102 0.001065
v -0.018608 -0.006323 -0.000517
v -0.018373 -0.005998 -0.002236
v -0.017989 -0.006153 -0.003952
v -0.017487 -0.006774 -0.005525
v -0.016906 -0.007812 -0.006829
v -0.016295 -0.009182 -0.007758
v -0.015703 -0.010774 -0.008236
v -0.015177 -0.012459 -0.008225
v -0.014761 -0.014100 -0.007726
v -0.014488 -0.015563 -0.006779
v -0.014380 -0.016732 -0.005461
v -0.014446 -0.017510 -0.003879
v -0.016261 -0.018335 -0.002472
v -0.016650 -0.018182 -0.000758
v -0.017159 -0.017563 0.000814
v -0.017747 -0.016528 0.002117
v -0.018365 -0.015160 0.003044
v -0.018965 -0.013570 0.003521
v -0.019498 -0.011887 0.003509
v -0.019919 -0.010248 0.003008
v -0.020196 -0.008786 0.002061
v -0.020305 -0.007618 0.000742
v -0.020238 -0.006839 -0.000840
v -0.020001 -0.006513 -0.002558
v -0.019612 -0.006666 -0.004272
v -0.019103 -0.007285 -0.005844
v -0.018515 -0.008320 -0.007147
v -0.017896 -0.009688 -0.008074
v -0.017296 -0.011278 -0.008551
v -0.016764 -0.012961 -0.008539
v -0.016342 -0.014600 -0.008038
v -0.016066 -0.016062 -0.007091
v -0.015956 -0.017230 -0.005772
v -0.016023 -0.018009 -0.004190
v -0.017853 -0.018843 -0.002790
v -0.018243 -0.018691 -0.001076
v -0.018755 -0.018073 0.000496
v -0.019345 -0.017038 0.001798
v -0.019966 -0.015671 0.002724
v -0.020569 -0.014082 0.003201
v -0.021103 -0.012400 0.003188
v -0.021527 -0.010762 0.002688
v -0.021804 -0.009299 0.001740
v -0.021914 -0.008131 0.000421
v -0.021847 -0.007353 -0.001161
v -0.021608 -0.007026 -0.002879
v -0.021218 -0.007178 -0.004593
v -0.020707 -0.007797 -0.006164
v -0.020116 -0.008832 -0.007466
v -0.019495 -0.010199 -0.008393
v -0.018892 -0.011788 -0.008869
v -0.018358 -0.013470 -0.008857
v -0.017935 -0.015108 -0.008356
v -0.017657 -0.016570 -0.007408
v -0.017547 -0.017738 -0.006090
v -0.017614 -0.018517 -0.004508
v -0.019461 -0.019357 -0.003111
v -0.019850 -0.019204 -0.001396
v -0.020359 -0.018585 0.000176
v -0.020946 -0.017549 0.001478
v -0.021565 -0.016181 0.002405
v -0.022165 -0.014592 0.002882
v -0.022697 -0.012909 0.002870
v -0.023119 -0.011270 0.002370
v -0.023396 -0.009807 0.001422
v -0.023505 -0.008639 0.000104
v -0.023438 -0.007861 -0.001478
v -0.023200 -0.007535 -0.003196
v -0.022811 -0.007687 -0.004911
v -0.022302 -0.008307 -0.006483
v -0.021715 -0.009342 -0.007785
v -0.021096 -0.010710 -0.008713
v -0.020496 -0.012300 -0.009189
v -0.019964 -0.013982 -0.009177
v -0.019542 -0.015621 -0.008677
v -0.019266 -0.017084 -0.007729
v -0.019156 -0.018252 -0.006411
v -0.019223 -0.019031 -0.004829
v -0.021088 -0.019872 -0.003432
v -0.021472 -0.019717 -0.001717
v -0.021975 -0.019096 -0.000144
v -0.022555 -0.018058 0.001160
v -0.023166 -0.016687 0.002089
v -0.023758 -0.015095 0.002567
v -0.024284 -0.013411 0.002556
v -0.024700 -0.011770 0.002057
v -0.024973 -0.010306 0.001110
v -0.025081 -0.009138 -0.000208
v -0.025015 -0.008359 -0.001790
v -0.024780 -0.008034 -0.003509
v -0.024396 -0.008189 -0.005224
v -0.023894 -0.008810 -0.006798
v -0.023313 -0.009848 -0.008101
v -0.022702 -0.011218 -0.009030
v -0.022110 -0.012810 -0.009508
v -0.021585 -0.014495 -0.009498
v -0.021169 -0.016136 -0.008998
v -0.020895 -0.017600 -0.008052
v -0.020788 -0.018768 -0.006733
v -0.020854 -0.019546 -0.005151
v -0.022739 -0.020383 -0.003752
v -0.023115 -0.020227 -0.002035
v -0.023606 -0.019602 -0.000460
v -0.024174 -0.018560 0.000846
v -0.024772 -0.017186 0.001778
v -0.025352 -0.015590 0.002258
v -0.025866 -0.013901 0.002250
v -0.026273 -0.012258 0.001752
v -0.026541 -0.010792 0.000806
v -0.026646 -0.009623 -0.000511
v -0.026582 -0.008845 -0.002094
v -0.026352 -0.008522 -0.003813
v -0.025976 -0.008679 -0.005530
v -0.025484 -0.009303 -0.007106
v -0.024917 -0.010345 -0.008412
v -0.024319 -0.011720 -0.009343
v -0.023739 -0.013316 -0.009824
v -0.023225 -0.015004 -0.009815
v -0.022817 -0.016647 -0.009318
v -0.022550 -0.018113 -0.008372
v -0.022445 -0.019282 -0.007055
v -0.022509 -0.020060 -0.005472
v -0.024416 -0.020889 -0.004068
v -0.024781 -0.020728 -0.002349
v -0.025257 -0.020099 -0.000770
v -0.025808 -0.019052 0.000539
v -0.026388 -0.017672 0.001474
v -0.026950 -0.016071 0.001958
v -0.027448 -0.014378 0.001952
v -0.027843 -0.012731 0.001457
v -0.028102 -0.011263 0.000512
v -0.028205 -0.010092 -0.000805
v -0.028142 -0.009315 -0.002388
v -0.027920 -0.008994 -0.004109
v -0.027555 -0.009154 -0.005828
v -0.027078 -0.009783 -0.007406
v -0.026528 -0.010830 -0.008715
v -0.025948 -0.012210 -0.009650
v -0.025386 -0.013812 -0.010134
v -0.024887 -0.015504 -0.010128
v -0.024492 -0.017152 -0.009633
v -0.024233 -0.018620 -0.008689
v -0.024131 -0.019790 -0.007372
v -0.024194 -0.020567 -0.005789
v -0.026124 -0.021382 -0.004376
v -0.026474 -0.021218 -0.002654
v -0.026931 -0.020583 -0.001073
v -0.027460 -0.019530 0.000241
v -0.028016 -0.018143 0.001179
v -0.028556 -0.016535 0.001667
v -0.029034 -0.014836 0.001665
v -0.029413 -0.013185 0.001173
v -0.029662 -0.011714 0.000230
v -0.029760 -0.010542 -0.001086
v -0.029700 -0.009766 -0.002670
v -0.029486 -0.009447 -0.004392
v -0.029137 -0.009612 -0.006114
v -0.028679 -0.010246 -0.007696
v -0.028150 -0.011300 -0.009009
v -0.027594 -0.012687 -0.009948
v -0.027055 -0.014295 -0.010436
v -0.026576 -0.015993 -0.010434
v -0.026197 -0.017645 -0.009941
v -0.025948 -0.019116 -0.008999
v -0.025850 -0.020287 -0.007682
v -0.025910 -0.021064 -0.006099
v -0.027865 -0.021861 -0.004675
v -0.028198 -0.021691 -0.002950
v -0.028632 -0.021050 -0.001364
v -0.029134 -0.019989 -0.000046
v -0.029662 -0.018594 0.000897
v -0.030174 -0.016979 0.001390
v -0.030628 -0.015274 0.001391
v -0.030988 -0.013617 0.000902
v -0.031224 -0.012142 -0.000038
v -0.031317 -0.010970 -0.001354
v -0.031260 -0.010194 -0.002938
v -0.031057 -0.009879 -0.004662
v -0.030725 -0.010048 -0.006387
v -0.030290 -0.010690 -0.007973
v -0.029789 -0.011750 -0.009291
v -0.029261 -0.013145 -0.010234
v -0.028749 -0.014760 -0.010727
v -0.028294 -0.016466 -0.010729
v -0.027935 -0.018123 -0.010239
v -0.027699 -0.019597 -0.009299
v -0.027605 -0.020770 -0.007983
v -0.027663 -0.021545 -0.006399
v -0.029644 -0.022319 -0.004961
v -0.029955 -0.022144 -0.003233
v -0.030363 -0.021496 -0.001643
v -0.030833 -0.020427 -0.000320
v -0.031328 -0.019023 0.000629
v -0.031808 -0.017400 0.001126
v -0.032234 -0.015687 0.001133
v -0.032571 -0.014024 0.000647
v -0.032792 -0.012546 -0.000291
v -0.032879 -0.011372 -0.001606
v -0.032826 -0.010598 -0.003191
v -0.032636 -0.010286 -0.004917
v -0.032324 -0.010461 -0.006645
v -0.031917 -0.011109 -0.008235
v -0.031447 -0.012178 -0.009558
v -0.030952 -0.013581 -0.010507
v -0.030472 -0.015205 -0.011004
v -0.030046 -0.016918 -0.011011
v -0.029709 -0.018580 -0.010525
v -0.029488 -0.020059 -0.009587
v -0.029400 -0.021232 -0.008272
v -0.029454 -0.022007 -0.006687
v -0.031462 -0.022753 -0.005231
v -0.031750 -0.022572 -0.003500
v -0.032127 -0.021916 -0.001905
v -0.032561 -0.020838 -0.000577
v -0.033019 -0.019426 0.000377
v -0.033462 -0.017794 0.000880
v -0.033855 -0.016073 0.000891
v -0.034167 -0.014405 0.000409
v -0.034371 -0.012922 -0.000527
v -0.034452 -0.011747 -0.001841
v -0.034402 -0.010974 -0.003426
v -0.034226 -0.010665 -0.005155
v -0.033939 -0.010846 -0.006887
v -0.033562 -0.011502 -0.008481
v -0.033128 -0.012580 -0.009809
v -0.032670 -0.013992 -0.010763
v -0.032227 -0.015624 -0.011266
v -0.031834 -0.017345 -0.011277
v -0.031522 -0.019013 -0.010795
v -0.031318 -0.020495 -0.009859
v -0.031237 -0.021671 -0.008545
v -0.031287 -0.022444 -0.006960
v -0.033324 -0.023157 -0.005483
v -0.033585 -0.022970 -0.003748
v -0.033927 -0.022307 -0.002149
v -0.034322 -0.021220 -0.000815
v -0.034737 -0.019799 0.000144
v -0.035140 -0.018157 0.000652
v -0.035497 -0.016429 0.000668
v -0.035780 -0.014754 0.000189
v -0.035966 -0.013268 -0.000744
v -0.036039 -0.012091 -0.002057
v -0.035994 -0.011319 -0.003643
v -0.035834 -0.011014 -0.005374
v -0.035573 -0.011201 -0.007109
v -0.035231 -0.011865 -0.008708
v -0.034836 -0.012951 -0.010042
v -0.034421 -0.014373 -0.011001
v -0.034018 -0.016014 -0.011509
v -0.033661 -0.017742 -0.011525
v -0.033378 -0.019417 -0.011047
v -0.033193 -0.020903 -0.010113
v -0.033119 -0.022080 -0.008800
v -0.033164 -0.022852 -0.007214
v -0.035232 -0.023527 -0.005713
v -0.035464 -0.023335 -0.003975
v -0.035768 -0.022663 -0.002371
v -0.036119 -0.021568 -0.001033
v -0.036488 -0.020138 -0.000068
v -0.036846 -0.018488 0.000445
v -0.037164 -0.016752 0.000465
v -0.037415 -0.015071 -0.000009
v -0.037580 -0.013581 -0.000941
v -0.037645 -0.012403 -0.002253
v -0.037605 -0.011632 -0.003840
v -0.037463 -0.011331 -0.005573
v -0.037231 -0.011523 -0.007311
v -0.036927 -0.012195 -0.008915
v -0.036576 -0.013290 -0.010253
v -0.036206 -0.014720 -0.011218
v -0.035848 -0.016370 -0.011732
v -0.035531 -0.018106 -0.011752
v -0.035279 -0.019787 -0.011277
v -0.035115 -0.021277 -0.010346
v -0.035049 -0.022455 -0.009033
v -0.035090 -0.023226 -0.007446
v -0.037187 -0.023859 -0.005919
v -0.037389 -0.023660 -0.004177
v -0.037652 -0.022982 -0.002570
v -0.037956 -0.021879 -0.001227
v -0.038275 -0.020439 -0.000257
v -0.038585 -0.018781 0.000261
v -0.038860 -0.017038 0.000286
v -0.039078 -0.015352 -0.000186
v -0.039220 -0.013858 -0.001115
v -0.039277 -0.012679 -0.002427
v -0.039242 -0.011909 -0.004014
v -0.039119 -0.011611 -0.005749
v -0.038918 -0.011810 -0.007491
v -0.038654 -0.012488 -0.009099
v -0.038351 -0.013591 -0.010442
v -0.038031 -0.015031 -0.011412
v -0.037721 -0.016689 -0.011930
v -0.037446 -0.018432 -0.011954
v -0.037229 -0.020118 -0.011483
v -0.037086 -0.021612 -0.010554
v -0.037030 -0.022791 -0.009242
v -0.037065 -0.023561 -0.007654
v -0.039195 -0.024147 -0.006098
v -0.039363 -0.023943 -0.004353
v -0.039583 -0.023258 -0.002742
v -0.039836 -0.022147 -0.001394
v -0.040103 -0.020700 -0.000420
v -0.040361 -0.019035 0.000102
v -0.040590 -0.017285 0.000130
v -0.040771 -0.015594 -0.000338
v -0.040890 -0.014097 -0.001266
v -0.040937 -0.012916 -0.002577
v -0.040908 -0.012148 -0.004165
v -0.040805 -0.011853 -0.005902
v -0.040637 -0.012057 -0.007647
v -0.040417 -0.012742 -0.009258
v -0.040164 -0.013853 -0.010606
v -0.039897 -0.015300 -0.011580
v -0.039639 -0.016965 -0.012102
v -0.039410 -0.018715 -0.012130
v -0.039229 -0.020406 -0.011662
v -0.039110 -0.021903 -0.010734
v -0.039063 -0.023084 -0.009423
v -0.039092 -0.023852 -0.007835
v -0.041630 -0.024435 -0.006278
v -0.041770 -0.024228 -0.004531
v -0.041954 -0.023539 -0.002917
v -0.042165 -0.022423 -0.001567
v -0.042388 -0.020971 -0.000589
v -0.042603 -0.019300 -0.000064
v -0.042794 -0.017546 -0.000034
v -0.042946 -0.015850 -0.000500
v -0.043044 -0.014352 -0.001426
v -0.043083 -0.013170 -0.002737
v -0.043058 -0.012402 -0.004325
v -0.042972 -0.012110 -0.006064
v -0.042831 -0.012317 -0.007811
v -0.042648 -0.013007 -0.009425
v -0.042436 -0.014123 -0.010775
v -0.042214 -0.015575 -0.011753
v -0.041998 -0.017246 -0.012278
v -0.041807 -0.019000 -0.012308
v -0.041656 -0.020695 -0.011842
v -0.041557 -0.022194 -0.010916
v -0.041519 -0.023375 -0.009605
v -0.041543 -0.024143 -0.008016
v -0.044130 -0.024679 -0.006431
v -0.044245 -0.024469 -0.004682
v -0.044395 -0.023776 -0.003066
v -0.044568 -0.022656 -0.001714
v -0.044750 -0.021200 -0.000734
v -0.044926 -0.019525 -0.000206
v -0.045082 -0.017767 -0.000174
v -0.045205 -0.016069 -0.000639
v -0.045285 -0.014569 -0.001564
v -0.045316 -0.013387 -0.002874
v -0.045295 -0.012620 -0.004463
v -0.045225 -0.012329 -0.006202
v -0.045109 -0.012539 -0.007951
v -0.044959 -0.013232 -0.009567
v -0.044786 -0.014352 -0.010920
v -0.044604 -0.015808 -0.011899
v -0.044428 -0.017483 -0.012427
v -0.044272 -0.019240 -0.012459
v -0.044149 -0.020938 -0.011994
v -0.044069 -0.022439 -0.011069
v -0.044038 -0.023621 -0.009759
v -0.044059 -0.024388 -0.008170
v -0.046685 -0.024879 -0.006557
v -0.046777 -0.024667 -0.004807
v -0.046897 -0.023972 -0.003190
v -0.047036 -0.022849 -0.001836
v -0.047181 -0.021389 -0.000854
v -0.047321 -0.019712 -0.000325
v -0.047445 -0.017952 -0.000291
v -0.047543 -0.016252 -0.000755
v -0.047606 -0.014750 -0.001680
v -0.047631 -0.013568 -0.002990
v -0.047614 -0.012801 -0.004579
v -0.047557 -0.012512 -0.006319
v -0.047464 -0.012723 -0.008068
v -0.047344 -0.013419 -0.009686
v -0.047206 -0.014542 -0.011040
v -0.047061 -0.016001 -0.012022
v -0.046921 -0.017679 -0.012551
v -0.046797 -0.019439 -0.012585
v -0.046699 -0.021138 -0.012121
v -0.046635 -0.022640 -0.011196
v -0.046611 -0.023822 -0.009886
v -0.046628 -0.024589 -0.008297
v -0.049288 -0.025038 -0.006658
v -0.049360 -0.024825 -0.004908
v -0.049452 -0.024128 -0.003290
v -0.049559 -0.023003 -0.001934
v -0.049671 -0.021541 -0.000951
v -0.049779 -0.019862 -0.000421
v -0.049874 -0.018100 -0.000386
v -0.049949 -0.016399 -0.000850
v -0.049997 -0.014896 -0.001774
v -0.050016 -0.013713 -0.003083
v -0.050002 -0.012947 -0.004673
v -0.049958 -0.012658 -0.006413
v -0.049886 -0.012872 -0.008164
v -0.049793 -0.013569 -0.009782
v -0.049687 -0.014694 -0.011138
v -0.049575 -0.016155 -0.012120
v -0.049467 -0.017835 -0.012650
v -0.049372 -0.019597 -0.012685
v -0.049297 -0.021298 -0.012222
v -0.049248 -0.022801 -0.011298
v -0.049230 -0.023983 -0.009988
v -0.049244 -0.024750 -0.008399
v -0.051932 -0.025159 -0.006736
v -0.051985 -0.024945 -0.004985
v -0.052052 -0.024247 -0.003366
v -0.052130 -0.023120 -0.002010
v -0.052212 -0.021657 -0.001026
v -0.052290 -0.019976 -0.000495
v -0.052359 -0.018213 -0.000460
v -0.052413 -0.016511 -0.000923
v -0.052448 -0.015008 -0.001846
v -0.052461 -0.013825 -0.003156
v -0.052451 -0.013059 -0.004746
v -0.052418 -0.012771 -0.006486
v -0.052365 -0.012985 -0.008237
v -0.052298 -0.013684 -0.009857
v -0.052220 -0.014810 -0.011213
v -0.052138 -0.016273 -0.012196
v -0.052060 -0.017954 -0.012727
v -0.051991 -0.019717 -0.012763
v -0.051937 -0.021419 -0.012300
v -0.051902 -0.022922 -0.011376
v -0.051889 -0.024105 -0.010067
v -0.051899 -0.024871 -0.008477
v -0.054610 -0.025244 -0.006792
v -0.054645 -0.025029 -0.005041
v -0.054690 -0.024330 -0.003421
v -0.054741 -0.023203 -0.002064
v -0.054794 -0.021739 -0.001080
v -0.054846 -0.020057 -0.000549
v -0.054891 -0.018293 -0.000513
v -0.054926 -0.016590 -0.000975
v -0.054949 -0.015087 -0.001899
v -0.054957 -0.013904 -0.003208
v -0.054949 -0.013138 -0.004798
v -0.054927 -0.012851 -0.006539
v -0.054892 -0.013065 -0.008290
v -0.054847 -0.013765 -0.009910
v -0.054796 -0.014892 -0.011267
v -0.054742 -0.016356 -0.012251
v -0.054691 -0.018038 -0.012782
v -0.054646 -0.019802 -0.012818
v -0.054611 -0.021504 -0.012356
v -0.054588 -0.023008 -0.011432
v -0.054580 -0.024191 -0.010123
v -0.054588 -0.024957 -0.008533
v -0.057313 -0.025295 -0.006826
v -0.057332 -0.025080 -0.005075
v -0.057356 -0.024380 -0.003455
v -0.057383 -0.023253 -0.002098
v -0.057411 -0.021788 -0.001114
v -0.057437 -0.020106 -0.000582
v -0.057461 -0.018341 -0.000546
v -0.057478 -0.016638 -0.001008
v -0.057490 -0.015135 -0.001932
v -0.057493 -0.013952 -0.003241
v -0.057488 -0.013186 -0.004831
v -0.057476 -0.012899 -0.006572
v -0.057458 -0.013114 -0.008324
v -0.057434 -0.013814 -0.009944
v -0.057407 -0.014942 -0.011301
v -0.057379 -0.016406 -0.012285
v -0.057352 -0.018088 -0.012817
v -0.057329 -0.019853 -0.012853
v -0.057311 -0.021556 -0.012390
v -0.057300 -0.023059 -0.011467
v -0.057297 -0.024242 -0.010157
v -0.057301 -0.025008 -0.008567
v -0.060035 -0.025314 -0.006841
v -0.060039 -0.025099 -0.005089
v -0.060043 -0.024399 -0.003469
v -0.060048 -0.023271 -0.002112
v -0.060052 -0.021807 -0.001128
v -0.060055 -0.020124 -0.000596
v -0.060058 -0.018360 -0.000560
v -0.060060 -0.016656 -0.001022
v -0.060061 -0.015153 -0.001946
v -0.060060 -0.013970 -0.003255
v -0.060058 -0.013204 -0.004845
v -0.060055 -0.012917 -0.006586
v -0.060052 -0.013132 -0.008338
v -0.060048 -0.013832 -0.009958
v -0.060043 -0.014960 -0.011315
v -0.060039 -0.016425 -0.012299
v -0.060035 -0.018108 -0.012831
v -0.060033 -0.019872 -0.012867
v -0.060031 -0.021575 -0.012405
v -0.060030 -0.023079 -0.011482
v -0.060031 -0.024262 -0.010172
v -0.060033 -0.025028 -0.008582
v -0.062768 -0.025304 -0.006836
v -0.062758 -0.025089 -0.005085
v -0.062743 -0.024389 -0.003465
v -0.062727 -0.023261 -0.002108
v -0.062709 -0.021796 -0.001124
v -0.062691 -0.020113 -0.000592
v -0.062675 -0.018349 -0.000556
v -0.062662 -0.016646 -0.001018
v -0.062653 -0.015142 -0.001942
v -0.062649 -0.013960 -0.003251
v -0.062649 -0.013194 -0.004841
v -0.062655 -0.012907 -0.006582
v -0.062666 -0.013122 -0.008334
v -0.062680 -0.013822 -0.009954
v -0.062697 -0.014950 -0.011311
v -0.062715 -0.016415 -0.012295
v -0.062732 -0.018097 -0.012827
v -0.062748 -0.019862 -0.012863
v -0.062761 -0.021565 -0.012401
v -0.062770 -0.023068 -0.011477
v -0.062775 -0.024251 -0.010167
v -0.062774 -0.025017 -0.008577
v -0.065503 -0.025265 -0.006814
v -0.065480 -0.025050 -0.005062
v -0.065448 -0.024350 -0.003443
v -0.065412 -0.023223 -0.002086
v -0.065373 -0.021758 -0.001102
v -0.065335 -0.020076 -0.000570
v -0.065302 -0.018312 -0.000534
v -0.065275 -0.016609 -0.000997
v -0.065257 -0.015106 -0.001921
v -0.065249 -0.013923 -0.003230
v -0.065253 -0.013157 -0.004820
v -0.065267 -0.012870 -0.006561
v -0.065291 -0.013085 -0.008313
v -0.065322 -0.013785 -0.009933
v -0.065358 -0.014913 -0.011289
v -0.065397 -0.016377 -0.012273
v -0.065435 -0.018060 -0.012805
v -0.065468 -0.019824 -0.012841
v -0.065495 -0.021526 -0.012378
v -0.065513 -0.023030 -0.011455
v -0.065521 -0.024213 -0.010145
v -0.065518 -0.024978 -0.008555
v -0.068233 -0.025201 -0.006775
v -0.068197 -0.024986 -0.005023
v -0.068150 -0.024287 -0.003404
v -0.068094 -0.023159 -0.002047
v -0.068036 -0.021695 -0.001064
v -0.067980 -0.020013 -0.000532
v -0.067930 -0.018250 -0.000497
v -0.067890 -0.016547 -0.000960
v -0.067863 -0.015044 -0.001883
v -0.067853 -0.013861 -0.003193
v -0.067859 -0.013096 -0.004783
v -0.067881 -0.012808 -0.006524
v -0.067917 -0.013023 -0.008275
v -0.067965 -0.013723 -0.009895
v -0.068020 -0.014850 -0.011251
v -0.068078 -0.016314 -0.012235
v -0.068134 -0.017996 -0.012766
v -0.068185 -0.019760 -0.012802
v -0.068224 -0.021462 -0.012339
v -0.068251 -0.022965 -0.011415
v -0.068261 -0.024148 -0.010105
v -0.068255 -0.024914 -0.008516
v -0.070950 -0.025112 -0.006719
v -0.070902 -0.024898 -0.004969
v -0.070839 -0.024199 -0.003349
v -0.070766 -0.023072 -0.001993
v -0.070689 -0.021609 -0.001010
v -0.070615 -0.019927 -0.000479
v -0.070549 -0.018164 -0.000444
v -0.070497 -0.016462 -0.000907
v -0.070463 -0.014959 -0.001831
v -0.070450 -0.013777 -0.003141
v -0.070458 -0.013011 -0.004731
v -0.070488 -0.012723 -0.006472
v -0.070536 -0.012938 -0.008223
v -0.070599 -0.013637 -0.009842
v -0.070672 -0.014764 -0.011198
v -0.070749 -0.016227 -0.012181
v -0.070823 -0.017908 -0.012712
v -0.070889 -0.019672 -0.012747
v -0.070941 -0.021374 -0.012284
v -0.070975 -0.022877 -0.011360
v -0.070988 -0.024059 -0.010050
v -0.070980 -0.024825 -0.008460
v -0.073646 -0.025001 -0.006650
v -0.073586 -0.024787 -0.004899
v -0.073508 -0.024089 -0.003280
v -0.073418 -0.022963 -0.001924
v -0.073324 -0.021500 -0.000942
v -0.073233 -0.019819 -0.000411
v -0.073152 -0.018057 -0.000376
v -0.073089 -0.016355 -0.000840
v -0.073047 -0.014852 -0.001764
v -0.073031 -0.013670 -0.003074
v -0.073042 -0.012904 -0.004664
v -0.073079 -0.012617 -0.006405
v -0.073139 -0.012831 -0.008155
v -0.073217 -0.013529 -0.009774
v -0.073306 -0.014655 -0.011130
v -0.073401 -0.016118 -0.012113
v -0.073492 -0.017799 -0.012643
v -0.073572 -0.019561 -0.012678
v -0.073636 -0.021263 -0.012214
v -0.073677 -0.022766 -0.011290
v -0.073693 -0.023948 -0.009980
v -0.073682 -0.024714 -0.008390
v -0.076311 -0.024870 -0.006566
v -0.076240 -0.024657 -0.004815
v -0.076148 -0.023959 -0.003197
v -0.076042 -0.022833 -0.001842
v -0.075931 -0.021372 -0.000860
v -0.075824 -0.019692 -0.000330
v -0.075729 -0.017930 -0.000296
v -0.075655 -0.016229 -0.000759
v -0.075607 -0.014726 -0.001684
v -0.075588 -0.013544 -0.002994
v -0.075602 -0.012778 -0.004584
v -0.075646 -0.012490 -0.006324
v -0.075717 -0.012704 -0.008075
v -0.075809 -0.013402 -0.009693
v -0.075915 -0.014527 -0.011048
v -0.076026 -0.015989 -0.012030
v -0.076133 -0.017669 -0.012560
v -0.076228 -0.019431 -0.012594
v -0.076302 -0.021132 -0.012131
v -0.076350 -0.022634 -0.011206
v -0.076369 -0.023816 -0.009896
v -0.076355 -0.024582 -0.008306
v -0.078939 -0.024720 -0.006469
v -0.078858 -0.024507 -0.004719
v -0.078752 -0.023810 -0.003102
v -0.078630 -0.022686 -0.001747
v -0.078503 -0.021225 -0.000765
v -0.078380 -0.019546 -0.000236
v -0.078272 -0.017785 -0.000202
v -0.078187 -0.016084 -0.000667
v -0.078132 -0.014582 -0.001591
v -0.078112 -0.013400 -0.002902
v -0.078128 -0.012634 -0.004491
v -0.078178 -0.012346 -0.006231
v -0.078260 -0.012559 -0.007981
v -0.078366 -0.013256 -0.009599
v -0.078488 -0.014381 -0.010954
v -0.078615 -0.015841 -0.011935
v -0.078738 -0.017520 -0.012464
v -0.078846 -0.019282 -0.012498
v -0.078931 -0.020982 -0.012034
v -0.078986 -0.022484 -0.011109
v -0.079006 -0.023666 -0.009799
v -0.078990 -0.024432 -0.008209
v -0.081521 -0.024554 -0.006361
v -0.081429 -0.024341 -0.004611
v -0.081310 -0.023645 -0.002994
v -0.081173 -0.022522 -0.001640
v -0.081030 -0.021062 -0.000659
v -0.080892 -0.019384 -0.000131
v -0.080771 -0.017623 -0.000098
v -0.080675 -0.015924 -0.000562
v -0.080614 -0.014422 -0.001487
v -0.080592 -0.013240 -0.002798
v -0.080611 -0.012474 -0.004387
v -0.080669 -0.012185 -0.006127
v -0.080761 -0.012398 -0.007877
v -0.080880 -0.013094 -0.009494
v -0.081017 -0.014217 -0.010848
v -0.081160 -0.015677 -0.011829
v -0.081298 -0.017355 -0.012357
v -0.081420 -0.019116 -0.012390
v -0.081515 -0.020815 -0.011926
v -0.081576 -0.022317 -0.011001
v -0.081598 -0.023499 -0.009690
v -0.081579 -0.024265 -0.008101
v -0.084050 -0.024372 -0.006241
v -0.083947 -0.024161 -0.004493
v -0.083814 -0.023465 -0.002876
v -0.083662 -0.022343 -0.001523
v -0.083503 -0.020884 -0.000543
v -0.083351 -0.019207 -0.000015
v -0.083217 -0.017448 0.000018
v -0.083112 -0.015749 -0.000447
v -0.083045 -0.014247 -0.001373
v -0.083021 -0.013066 -0.002683
v -0.083042 -0.012299 -0.004273
v -0.083107 -0.012010 -0.006012
v -0.083210 -0.012222 -0.007761
v -0.083343 -0.012917 -0.009378
v -0.083494 -0.014040 -0.010731
v -0.083653 -0.015498 -0.011711
v -0.083806 -0.017175 -0.012239
v -0.083940 -0.018935 -0.012271
v -0.084045 -0.020634 -0.011806
v -0.084112 -0.022135 -0.010881
v -0.084136 -0.023317 -0.009571
v -0.084114 -0.024083 -0.007981
v -0.086529 -0.024176 -0.006111
v -0.086413 -0.023966 -0.004363
v -0.086263 -0.023272 -0.002748
v -0.086092 -0.022151 -0.001395
v -0.085914 -0.020694 -0.000416
v -0.085742 -0.019018 0.000110
v -0.085592 -0.017260 0.000142
v -0.085474 -0.015562 -0.000324
v -0.085399 -0.014061 -0.001250
v -0.085373 -0.012880 -0.002560
v -0.085398 -0.012113 -0.004149
v -0.085471 -0.011824 -0.005889
v -0.085587 -0.012034 -0.007637
v -0.085737 -0.012728 -0.009252
v -0.085908 -0.013849 -0.010605
v -0.086086 -0.015306 -0.011584
v -0.086258 -0.016982 -0.012110
v -0.086408 -0.018740 -0.012142
v -0.086526 -0.020438 -0.011676
v -0.086601 -0.021939 -0.010750
v -0.086627 -0.023120 -0.009440
v -0.086602 -0.023887 -0.007851
v -0.088739 -0.023975 -0.005977
v -0.088602 -0.023766 -0.004230
v -0.088427 -0.023074 -0.002616
v -0.088226 -0.021956 -0.001266
v -0.088017 -0.020502 -0.000288
v -0.087816 -0.018829 0.000236
v -0.087640 -0.017073 0.000266
v -0.087503 -0.015377 -0.000201
v -0.087415 -0.013878 -0.001127
v -0.087385 -0.012697 -0.002438
v -0.087414 -0.011930 -0.004027
v -0.087500 -0.011639 -0.005766
v -0.087636 -0.011848 -0.007513
v -0.087812 -0.012539 -0.009127
v -0.088012 -0.013658 -0.010477
v -0.088221 -0.015112 -0.011454
v -0.088422 -0.016785 -0.011979
v -0.088598 -0.018541 -0.012009
v -0.088736 -0.020237 -0.011542
v -0.088823 -0.021736 -0.010615
v -0.088854 -0.022917 -0.009304
v -0.088825 -0.023684 -0.007715
v -0.090928 -0.023739 -0.005819
v -0.090770 -0.023533 -0.004074
v -0.090567 -0.022844 -0.002462
v -0.090335 -0.021729 -0.001114
v -0.090093 -0.020278 -0.000139
v -0.089860 -0.018608 0.000383
v -0.089656 -0.016856 0.000411
v -0.089497 -0.015162 -0.000058
v -0.089396 -0.013664 -0.000986
v -0.089361 -0.012484 -0.002297
v -0.089394 -0.011716 -0.003886
v -0.089494 -0.011424 -0.005623
v -0.089652 -0.011631 -0.007369
v -0.089855 -0.012320 -0.008981
v -0.090087 -0.013435 -0.010329
v -0.090329 -0.014886 -0.011303
v -0.090562 -0.016556 -0.011826
v -0.090766 -0.018308 -0.011854
v -0.090925 -0.020002 -0.011385
v -0.091026 -0.021500 -0.010457
v -0.091062 -0.022680 -0.009145
v -0.091028 -0.023447 -0.007557
v -0.093085 -0.023474 -0.005642
v -0.092908 -0.023270 -0.003898
v -0.092679 -0.022584 -0.002288
v -0.092418 -0.021472 -0.000943
v -0.092145 -0.020025 0.000029
v -0.091884 -0.018359 0.000549
v -0.091654 -0.016609 0.000575
v -0.091475 -0.014918 0.000104
v -0.091361 -0.013422 -0.000825
v -0.091321 -0.012242 -0.002137
v -0.091359 -0.011475 -0.003725
v -0.091471 -0.011181 -0.005462
v -0.091649 -0.011385 -0.007205
v -0.091878 -0.012071 -0.008815
v -0.092139 -0.013183 -0.010161
v -0.092411 -0.014630 -0.011133
v -0.092673 -0.016296 -0.011653
v -0.092903 -0.018046 -0.011678
v -0.093082 -0.019737 -0.011208
v -0.093196 -0.021233 -0.010279
v -0.093235 -0.022413 -0.008967
v -0.093198 -0.023181 -0.007378
v -0.095212 -0.023183 -0.005447
v -0.095016 -0.022981 -0.003705
v -0.094764 -0.022298 -0.002097
v -0.094477 -0.021190 -0.000754
v -0.094177 -0.019746 0.000215
v -0.093889 -0.018084 0.000732
v -0.093636 -0.016337 0.000756
v -0.093439 -0.014649 0.000283
v -0.093313 -0.013154 -0.000647
v -0.093269 -0.011975 -0.001959
v -0.093311 -0.011207 -0.003547
v -0.093435 -0.010912 -0.005282
v -0.093630 -0.011114 -0.007025
v -0.093882 -0.011797 -0.008632
v -0.094170 -0.012905 -0.009975
v -0.094470 -0.014348 -0.010945
v -0.094758 -0.016011 -0.011462
v -0.095011 -0.017757 -0.011486
v -0.095208 -0.019446 -0.011013
v -0.095333 -0.020940 -0.010083
v -0.095377 -0.022120 -0.008771
v -0.095335 -0.022888 -0.007183
v -0.097310 -0.022868 -0.005237
v -0.097098 -0.022668 -0.003497
v -0.096825 -0.021989 -0.001891
v -0.096514 -0.020884 -0.000551
v -0.096190 -0.019444 0.000416
v -0.095878 -0.017785 0.000931
v -0.095605 -0.016042 0.000953
v -0.095391 -0.014355 0.000479
v -0.095255 -0.012862 -0.000452
v -0.095208 -0.011684 -0.001765
v -0.095253 -0.010915 -0.003353
v -0.095387 -0.010619 -0.005088
v -0.095599 -0.010819 -0.006828
v -0.095871 -0.011498 -0.008434
v -0.096182 -0.012603 -0.009774
v -0.096507 -0.014043 -0.010741
v -0.096819 -0.015702 -0.011256
v -0.097092 -0.017445 -0.011277
v -0.097306 -0.019132 -0.010803
v -0.097441 -0.020625 -0.009872
v -0.097489 -0.021803 -0.008560
v -0.097443 -0.022572 -0.006972
v -0.099381 -0.022534 -0.005014
v -0.099155 -0.022336 -0.003275
v -0.098865 -0.021659 -0.001671
v -0.098533 -0.020558 -0.000333
v -0.098187 -0.019121 0.000631
v -0.097855 -0.017466 0.001144
v -0.097563 -0.015725 0.001163
v -0.097336 -0.014041 0.000688
v -0.097191 -0.012550 -0.000244
v -0.097140 -0.011372 -0.001557
v -0.097189 -0.010603 -0.003145
v -0.097331 -0.010305 -0.004878
v -0.097557 -0.010503 -0.006618
v -0.097848 -0.011180 -0.008221
v -0.098179 -0.012281 -0.009559
v -0.098525 -0.013718 -0.010524
v -0.098858 -0.015373 -0.011037
v -0.099149 -0.017113 -0.011056
v -0.099377 -0.018798 -0.010580
v -0.099522 -0.020289 -0.009648
v -0.099572 -0.021467 -0.008335
v -0.099524 -0.022236 -0.006748
v -0.101428 -0.022183 -0.004780
v -0.101191 -0.021987 -0.003042
v -0.100885 -0.021313 -0.001440
v -0.100535 -0.020215 -0.000104
v -0.100171 -0.018781 0.000858
v -0.099821 -0.017129 0.001369
v -0.099514 -0.015391 0.001386
v -0.099274 -0.013709 0.000909
v -0.099122 -0.012219 -0.000024
v -0.099069 -0.011041 -0.001337
v -0.099120 -0.010272 -0.002924
v -0.099270 -0.009973 -0.004657
v -0.099508 -0.010168 -0.006395
v -0.099814 -0.010843 -0.007997
v -0.100163 -0.011941 -0.009333
v -0.100527 -0.013375 -0.010295
v -0.100877 -0.015027 -0.010806
v -0.101185 -0.016765 -0.010824
v -0.101424 -0.018447 -0.010346
v -0.101576 -0.019937 -0.009413
v -0.101629 -0.021114 -0.008100
v -0.101579 -0.021884 -0.006513
v -0.103454 -0.021819 -0.004537
v -0.103206 -0.021625 -0.002801
v -0.102888 -0.020953 -0.001200
v -0.102524 -0.019857 0.000134
v -0.102144 -0.018426 0.001095
v -0.101780 -0.016776 0.001604
v -0.101460 -0.015041 0.001620
v -0.101211 -0.013361 0.001141
v -0.101052 -0.011872 0.000208
v -0.100997 -0.010695 -0.001106
v -0.101049 -0.009925 -0.002693
v -0.101206 -0.009625 -0.004425
v -0.101454 -0.009818 -0.006162
v -0.101772 -0.010491 -0.007762
v -0.102136 -0.011586 -0.009096
v -0.102515 -0.013017 -0.010057
v -0.102880 -0.014667 -0.010566
v -0.103200 -0.016403 -0.010582
v -0.103449 -0.018083 -0.010104
v -0.103608 -0.019572 -0.009170
v -0.103663 -0.020749 -0.007856
v -0.103610 -0.021519 -0.006269
v -0.105459 -0.021444 -0.004287
v -0.105204 -0.021252 -0.002552
v -0.104876 -0.020582 -0.000953
v -0.104501 -0.019488 0.000380
v -0.104109 -0.018059 0.001339
v -0.103733 -0.016412 0.001847
v -0.103404 -0.014678 0.001861
v -0.103146 -0.012999 0.001382
v -0.102983 -0.011511 0.000448
v -0.102926 -0.010334 -0.000866
v -0.102980 -0.009564 -0.002453
v -0.103142 -0.009263 -0.004184
v -0.103397 -0.009456 -0.005920
v -0.103726 -0.010126 -0.007519
v -0.104101 -0.011220 -0.008852
v -0.104492 -0.012648 -0.009811
v -0.104868 -0.014296 -0.010319
v -0.105198 -0.016030 -0.010333
v -0.105455 -0.017709 -0.009854
v -0.105618 -0.019197 -0.008920
v -0.105675 -0.020373 -0.007606
v -0.105621 -0.021143 -0.006019
v -0.107448 -0.021063 -0.004033
v -0.107187 -0.020872 -0.002298
v -0.106851 -0.020203 -0.000700
v -0.106468 -0.019111 0.000632
v -0.106068 -0.017684 0.001590
v -0.105684 -0.016037 0.002096
v -0.105347 -0.014305 0.002110
v -0.105085 -0.012627 0.001630
v -0.104918 -0.011140 0.000695
v -0.104859 -0.009964 -0.000619
v -0.104915 -0.009193 -0.002206
v -0.105080 -0.008892 -0.003937
v -0.105341 -0.009083 -0.005671
v -0.105676 -0.009752 -0.007270
v -0.106060 -0.010844 -0.008602
v -0.106459 -0.012271 -0.009560
v -0.106843 -0.013917 -0.010066
v -0.107180 -0.015650 -0.010080
v -0.107443 -0.017327 -0.009600
v -0.107610 -0.018815 -0.008665
v -0.107668 -0.019991 -0.007351
v -0.107613 -0.020761 -0.005764
v -0.109421 -0.020678 -0.003776
v -0.109157 -0.020487 -0.002042
v -0.108817 -0.019819 -0.000444
v -0.108429 -0.018728 0.000887
v -0.108024 -0.017302 0.001844
v -0.107635 -0.015656 0.002350
v -0.107294 -0.013925 0.002363
v -0.107028 -0.012248 0.001883
v -0.106859 -0.010761 0.000948
v -0.106800 -0.009585 -0.000366
v -0.106856 -0.008814 -0.001953
v -0.107023 -0.008512 -0.003684
v -0.107287 -0.008703 -0.005418
v -0.107627 -0.009371 -0.007016
v -0.108015 -0.010462 -0.008347
v -0.108420 -0.011888 -0.009304
v -0.108809 -0.013534 -0.009810
v -0.109150 -0.015265 -0.009823
v -0.109416 -0.016942 -0.009343
v -0.109586 -0.018429 -0.008408
v -0.109645 -0.019605 -0.007094
v -0.109588 -0.020376 -0.005507
v -0.111382 -0.020292 -0.003519
v -0.111117 -0.020101 -0.001785
v -0.110776 -0.019433 -0.000187
v -0.110386 -0.018342 0.001144
v -0.109979 -0.016917 0.002101
v -0.109589 -0.015272 0.002607
v -0.109246 -0.013541 0.002620
v -0.108979 -0.011864 0.002139
v -0.108809 -0.010377 0.001204
v -0.108750 -0.009201 -0.000110
v -0.108806 -0.008430 -0.001697
v -0.108974 -0.008128 -0.003427
v -0.109239 -0.008318 -0.005162
v -0.109581 -0.008986 -0.006759
v -0.109970 -0.010077 -0.008090
v -0.110377 -0.011503 -0.009047
v -0.110767 -0.013148 -0.009553
v -0.111110 -0.014879 -0.009566
v -0.111377 -0.016556 -0.009085
v -0.111547 -0.018043 -0.008150
v -0.111606 -0.019219 -0.006836
v -0.111550 -0.019989 -0.005249
v -0.113333 -0.019907 -0.003263
v -0.113069 -0.019717 -0.001528
v -0.112729 -0.019048 0.000069
v -0.112341 -0.017957 0.001401
v -0.111936 -0.016531 0.002358
v -0.111547 -0.014886 0.002864
v -0.111206 -0.013154 0.002877
v -0.110940 -0.011477 0.002397
v -0.110771 -0.009990 0.001461
v -0.110712 -0.008814 0.000147
v -0.110768 -0.008044 -0.001439
v -0.110935 -0.007742 -0.003170
v -0.111199 -0.007932 -0.004904
v -0.111539 -0.008600 -0.006502
v -0.111927 -0.009692 -0.007833
v -0.112332 -0.011118 -0.008791
v -0.112721 -0.012763 -0.009297
v -0.113062 -0.014494 -0.009310
v -0.113328 -0.016171 -0.008829
v -0.113497 -0.017658 -0.007894
v -0.113556 -0.018835 -0.006580
v -0.113500 -0.019605 -0.004993
v -0.115276 -0.019528 -0.003010
v -0.115015 -0.019336 -0.001275
v -0.114680 -0.018668 0.000323
v -0.114297 -0.017575 0.001655
v -0.113897 -0.016148 0.002613
v -0.113513 -0.014502 0.003120
v -0.113176 -0.012770 0.003134
v -0.112913 -0.011092 0.002654
v -0.112746 -0.009605 0.001719
v -0.112688 -0.008428 0.000405
v -0.112744 -0.007658 -0.001182
v -0.112908 -0.007356 -0.002913
v -0.113169 -0.007548 -0.004648
v -0.113505 -0.008217 -0.006246
v -0.113888 -0.009309 -0.007578
v -0.114288 -0.010736 -0.008536
v -0.114672 -0.012382 -0.009043
v -0.115009 -0.014114 -0.009056
v -0.115271 -0.015792 -0.008576
v -0.115439 -0.017279 -0.007641
v -0.115497 -0.018456 -0.006327
v -0.115441 -0.019226 -0.004741
v -0.117215 -0.019156 -0.002762
v -0.116959 -0.018964 -0.001026
v -0.116631 -0.018293 0.000573
v -0.116256 -0.017200 0.001906
v -0.115864 -0.015771 0.002865
v -0.115488 -0.014123 0.003372
v -0.115159 -0.012390 0.003387
v -0.114901 -0.010711 0.002908
v -0.114738 -0.009223 0.001973
v -0.114681 -0.008046 0.000659
v -0.114735 -0.007276 -0.000928
v -0.114897 -0.006975 -0.002659
v -0.115152 -0.007167 -0.004394
v -0.115481 -0.007838 -0.005993
v -0.115856 -0.008931 -0.007327
v -0.116247 -0.010360 -0.008286
v -0.116623 -0.012008 -0.008793
v -0.116953 -0.013742 -0.008808
v -0.117210 -0.015420 -0.008328
v -0.117374 -0.016908 -0.007394
v -0.117430 -0.018085 -0.006080
v -0.117376 -0.018855 -0.004493
v -0.119150 -0.018795 -0.002521
v -0.118903 -0.018601 -0.000784
v -0.118584 -0.017929 0.000816
v -0.118220 -0.016833 0.002150
v -0.117841 -0.015402 0.003111
v -0.117476 -0.013752 0.003620
v -0.117156 -0.012017 0.003636
v -0.116907 -0.010336 0.003157
v -0.116748 -0.008847 0.002223
v -0.116693 -0.007671 0.000910
v -0.116746 -0.006901 -0.000677
v -0.116903 -0.006601 -0.002409
v -0.117150 -0.006795 -0.004146
v -0.117469 -0.007467 -0.005746
v -0.117833 -0.008563 -0.007081
v -0.118212 -0.009993 -0.008041
v -0.118576 -0.011643 -0.008550
v -0.118896 -0.013379 -0.008566
v -0.119146 -0.015059 -0.008088
v -0.119304 -0.016548 -0.007154
v -0.119360 -0.017725 -0.005840
v -0.119307 -0.018495 -0.004253
v -0.121086 -0.018447 -0.002289
v -0.120848 -0.018251 -0.000551
v -0.120542 -0.017577 0.001051
v -0.120193 -0.016478 0.002387
v -0.119829 -0.015044 0.003349
v -0.119479 -0.013392 0.003860
v -0.119172 -0.011654 0.003877
v -0.118932 -0.009972 0.003400
v -0.118780 -0.008482 0.002467
v -0.118727 -0.007305 0.001153
v -0.118778 -0.006535 -0.000434
v -0.118928 -0.006237 -0.002167
v -0.119166 -0.006432 -0.003904
v -0.119472 -0.007107 -0.005506
v -0.119821 -0.008205 -0.006842
v -0.120185 -0.009639 -0.007805
v -0.120535 -0.011291 -0.008315
v -0.120842 -0.013029 -0.008333
v -0.121082 -0.014711 -0.007855
v -0.121234 -0.016201 -0.006922
v -0.121287 -0.017378 -0.005609
v -0.121236 -0.018148 -0.004021
v -0.123054 -0.018109 -0.002064
v -0.122822 -0.017913 -0.000326
v -0.122523 -0.017237 0.001277
v -0.122182 -0.016137 0.002614
v -0.121826 -0.014702 0.003577
v -0.121484 -0.013048 0.004089
v -0.121184 -0.011309 0.004107
v -0.120950 -0.009626 0.003631
v -0.120801 -0.008136 0.002698
v -0.120749 -0.006958 0.001384
v -0.120799 -0.006189 -0.000203
v -0.120946 -0.005891 -0.001936
v -0.121178 -0.006087 -0.003674
v -0.121477 -0.006763 -0.005277
v -0.121818 -0.007863 -0.006614
v -0.122174 -0.009298 -0.007577
v -0.122516 -0.010952 -0.008089
v -0.122816 -0.012691 -0.008107
v -0.123050 -0.014374 -0.007631
v -0.123199 -0.015864 -0.006698
v -0.123251 -0.017042 -0.005384
v -0.123201 -0.017811 -0.003797
v -0.010000 -0.010000 -0.001000
v -0.122000 -0.012000 -0.002000
f 1 2 24
f 1 24 23
f 2 3 25
f 2 25 24
f 3 4 26
f 3 26 25
f 4 5 27
f 4 27 26
f 5 6 28
f 5 28 27
f 6 7 29
f 6 29 28
f 7 8 30
f 7 30 29
f 8 9 31
f 8 31 30
f 9 10 32
f 9 32 31
f 10 11 33
f 10 33 32
f 11 12 34
f 11 34 33
f 12 13 35
f 12 35 34
f 13 14 36
f 13 36 35
f 14 15 37
f 14 37 36
f 15 16 38
f 15 38 37
f 16 17 39
f 16 39 38
f 17 18 40
f 17 40 39
f 18 19 41
f 18 41 40
f 19 20 42
f 19 42 41
f 20 21 43
f 20 43 42
f 21 22 44
f 21 44 43
f 22 1 23
f 22 23 44
f 23 24 46
f 23 46 45
f 24 25 47
f 24 47 46
f 25 26 48
f 25 48 47
f 26 27 49
f 26 49 48
f 27 28 50
f 27 50 49
f 28 29 51
f 28 51 50
f 29 30 52
f 29 52 51
f 30 31 53
f 30 53 52
f 31 32 54
f 31 54 53
f 32 33 55
f 32 55 54
f 33 34 56
f 33 56 55
f 34 35 57
f 34 57 56
f 35 36 58
f 35 58 57
f 36 37 59
f 36 59 58
f 37 38 60
f 37 60 59
f 38 39 61
f 38 61 60
f 39 40 62
f 39 62 61
f 40 41 63
f 40 63 62
f 41 42 64
f 41 64 63
f 42 43 65
f 42 65 64
f 43 44 66
f 43 66 65
f 44 23 45
f 44 45 66
f 45 46 68
f 45 68 67
f 46 47 69
f 46 69 68
f 47 48 70
f 47 70 69
f 48 49 71
f 48 71 70
f 49 50 72
f 49 72 71
f 50 51 73
f 50 73 72
f 51 52 74
f 51 74 73
f 52 53 75
f 52 75 74
f 53 54 76
f 53 76 75
f 54 55 77
f 54 77 76
f 55 56 78
f 55 78 77
f 56 57 79
f 56 79 78
f 57 58 80
f 57 80 79
f 58 59 81
f 58 81 80
f 59 60 82
f 59 82 81
f 60 61 83
f 60 83 82
f 61 62 84
f 61 84 83
f 62 63 85
f 62 85 84
f 63 64 86
f 63 86 85
f 64 65 87
f 64 87 86
f 65 66 88
f 65 88 87
f 66 45 67
f 66 67 88
f 67 68 90
f 67 90 89
f 68 69 91
f 68 91 90
f 69 70 92
f 69 92 91
f 70 71 93
f 70 93 92
f 71 72 94
f 71 94 93
f 72 73 95
f 72 95 94
f 73 74 96
f 73 96 95
f 74 75 97
f 74 97 96
f 75 76 98
f 75 98 97
f 76 77 99
f 76 99 98
f 77 78 100
f 77 100 99
f 78 79 101
f 78 101 100
f 79 80 102
f 79 102 101
f 80 81 103
f 80 103 102
f 81 82 104
f 81 104 103
f 82 83 105
f 82 105 104
f 83 84 106
f 83 106 105
f 84 85 107
f 84 107 106
f 85 86 108
f 85 108 107
f 86 87 109
f 86 109 108
f 87 88 110
f 87 110 109
f 88 67 89
f 88 89 110
f 89 90 112
f 89 112 111
f 90 91 113
f 90 113 112
f 91 92 114
f 91 114 113
f 92 93 115
f 92 115 114
f 93 94 116
f 93 116 115
f 94 95 117
f 94 117 116
f 95 96 118
f 95 118 117
f 96 97 119
f 96 119 118
f 97 98 120
f 97 120 119
f 98 99 121
f 98 121 120
f 99 100 122
f 99 122 121
f 100 101 123
f 100 123 122
f 101 102 124
f 101 124 123
f 102 103 125
f 102 125 124
f 103 104 126
f 103 126 125
f 104 105 127
f 104 127 126
f 105 106 128
f 105 128 127
f 106 107 129
f 106 129 128
f 107 108 130
f 107 130 129
f 108 109 131
f 108 131 130
f 109 110 132
f 109 132 131
f 110 89 111
f 110 111 132
f 111 112 134
f 111 134 133
f 112 113 135
f 112 135 134
f 113 114 136
f 113 136 135
f 114 115 137
f 114 137 136
f 115 116 138
f 115 138 137
f 116 117 139
f 116 139 138
f 117 118 140
f 117 140 139
f 118 119 141
f 118 141 140
f 119 120 142
f 119 142 141
f 120 121 143
f 120 143 142
f 121 122 144
f 121 144 143
f 122 123 145
f 122 145 144
f 123 124 146
f 123 146 145
f 124 125 147
f 124 147 146
f 125 126 148
f 125 148 147
f 126 127 149
f 126 149 148
f 127 128 150
f 127 150 149
f 128 129 151
f 128 151 150
f 129 130 152
f 129 152 151
f 130 131 153
f 130 153 152
f 131 132 154
f 131 154 153
f 132 111 133
f 132 133 154
f 133 134 156
f 133 156 155
f 134 135 157
f 134 157 156
f 135 136 158
f 135 158 157
f 136 137 159
f 136 159 158
f 137 138 160
f 137 160 159
f 138 139 161
f 138 161 160
f 139 140 162
f 139 162 161
f 140 141 163
f 140 163 162
f 141 142 164
f 141 164 163
f 142 143 165
f 142 165 164
f 143 144 166
f 143 166 165
f 144 145 167
f 144 167 166
f 145 146 168
f 145 168 167
f 146 147 169
f 146 169 168
f 147 148 170
f 147 170 169
f 148 149 171
f 148 171 170
f 149 150 172
f 149 172 171
f 150 151 173
f 150 173 172
f 151 152 174
f 151 174 173
f 152 153 175
f 152 175 174
f 153 154 176
f 153 176 175
f 154 133 155
f 154 155 176
f 155 156 178
f 155 178 177
f 156 157 179
f 156 179 178
f 157 158 180
f 157 180 179
f 158 159 181
f 158 181 180
f 159 160 182
f 159 182 181
f 160 161 183
f 160 183 182
f 161 162 184
f 161 184 183
f 162 163 185
f 162 185 184
f 163 164 186
f 163 186 185
f 164 165 187
f 164 187 186
f 165 166 188
f 165 188 187
f 166 167 189
f 166 189 188
f 167 168 190
f 167 190 189
f 168 169 191
f 168 191 190
f 169 170 192
f 169 192 191
f 170 171 193
f 170 193 192
f 171 172 194
f 171 194 193
f 172 173 195
f 172 195 194
f 173 174 196
f 173 196 195
f 174 175 197
f 174 197 196
f 175 176 198
f 175 198 197
f 176 155 177
f 176 177 198
f 177 178 200
f 177 200 199
f 178 179 201
f 178 201 200
f 179 180 202
f 179 202 201
f 180 181 203
f 180 203 202
f 181 182 204
f 181 204 203
f 182 183 205
f 182 205 204
f 183 184 206
f 183 206 205
f 184 185 207
f 184 207 206
f 185 186 208
f 185 208 207
f 186 187 209
f 186 209 208
f 187 188 210
f 187 210 209
f 188 189 211
f 188 211 210
f 189 190 212
f 189 212 211
f 190 191 213
f 190 213 212
f 191 192 214
f 191 214 213
f 192 193 215
f 192 215 214
f 193 194 216
f 193 216 215
f 194 195 217
f 194 217 216
f 195 196 218
f 195 218 217
f 196 197 219
f 196 219 218
f 197 198 220
f 197 220 219
f 198 177 199
f 198 199 220
f 199 200 222
f 199 222 221
f 200 201 223
f 200 223 222
f 201 202 224
f 201 224 223
f 202 203 225
f 202 225 224
f 203 204 226
f 203 226 225
f 204 205 227
f 204 227 226
f 205 206 228
f 205 228 227
f 206 207 229
f 206 229 228
f 207 208 230
f 207 230 229
f 208 209 231
f 208 231 230
f 209 210 232
f 209 232 231
f 210 211 233
f 210 233 232
f 211 212 234
f 211 234 233
f 212 213 235
f 212 235 234
f 213 214 236
f 213 236 235
f 214 215 237
f 214 237 236
f 215 216 238
f 215 238 237
f 216 217 239
f 216 239 238
f 217 218 240
f 217 240 239
f 218 219 241
f 218 241 240
f 219 220 242
f 219 242 241
f 220 199 221
f 220 221 242
f 221 222 244
f 221 244 243
f 222 223 245
f 222 245 244
f 223 224 246
f 223 246 245
f 224 225 247
f 224 247 246
f 225 226 248
f 225 248 247
f 226 227 249
f 226 249 248
f 227 228 250
f 227 250 249
f 228 229 251
f 228 251 250
f 229 230 252
f 229 252 251
f 230 231 253
f 230 253 252
f 231 232 254
f 231 254 253
f 232 233 255
f 232 255 254
f 233 234 256
f 233 256 255
f 234 235 257
f 234 257 256
f 235 236 258
f 235 258 257
f 236 237 259
f 236 259 258
f 237 238 260
f 237 260 259
f 238 239 261
f 238 261 260
f 239 240 262
f 239 262 261
f 240 241 263
f 240 263 262
f 241 242 264
f 241 264 263
f 242 221 243
f 242 243 264
f 243 244 266
f 243 266 265
f 244 245 267
f 244 267 266
f 245 246 268
f 245 268 267
f 246 247 269
f 246 269 268
f 247 248 270
f 247 270 269
f 248 249 271
f 248 271 270
f 249 250 272
f 249 272 271
f 250 251 273
f 250 273 272
f 251 252 274
f 251 274 273
f 252 253 275
f 252 275 274
f 253 254 276
f 253 276 275
f 254 255 277
f 254 277 276
f 255 256 278
f 255 278 277
f 256 257 279
f 256 279 278
f 257 258 280
f 257 280 279
f 258 259 281
f 258 281 280
f 259 260 282
f 259 282 281
f 260 261 283
f 260 283 282
f 261 262 284
f 261 284 283
f 262 263 285
f 262 285 284
f 263 264 286
f 263 286 285
f 264 243 265
f 264 265 286
f 265 266 288
f 265 288 287
f 266 267 289
f 266 289 288
f 267 268 290
f 267 290 289
f 268 269 291
f 268 291 290
f 269 270 292
f 269 292 291
f 270 271 293
f 270 293 292
f 271 272 294
f 271 294 293
f 272 273 295
f 272 295 294
f 273 274 296
f 273 296 295
f 274 275 297
f 274 297 296
f 275 276 298
f 275 298 297
f 276 277 299
f 276 299 298
f 277 278 300
f 277 300 299
f 278 279 301
f 278 301 300
f 279 280 302
f 279 302 301
f 280 281 303
f 280 303 302
f 281 282 304
f 281 304 303
f 282 283 305
f 282 305 304
f 283 284 306
f 283 306 305
f 284 285 307
f 284 307 306
f 285 286 308
f 285 308 307
f 286 265 287
f 286 287 308
f 287 288 310
f 287 310 309
f 288 289 311
f 288 311 310
f 289 290 312
f 289 312 311
f 290 291 313
f 290 313 312
f 291 292 314
f 291 314 313
f 292 293 315
f 292 315 314
f 293 294 316
f 293 316 315
f 294 295 317
f 294 317 316
f 295 296 318
f 295 318 317
f 296 297 319
f 296 319 318
f 297 298 320
f 297 320 319
f 298 299 321
f 298 321 320
f 299 300 322
f 299 322 321
f 300 301 323
f 300 323 322
f 301 302 324
f 301 324 323
f 302 303 325
f 302 325 324
f 303 304 326
f 303 326 325
f 304 305 327
f 304 327 326
f 305 306 328
f 305 328 327
f 306 307 329
f 306 329 328
f 307 308 330
f 307 330 329
f 308 287 309
f 308 309 330
f 309 310 332
f 309 332 331
f 310 311 333
f 310 333 332
f 311 312 334
f 311 334 333
f 312 313 335
f 312 335 334
f 313 314 336
f 313 336 335
f 314 315 337
f 314 337 336
f 315 316 338
f 315 338 337
f 316 317 339
f 316 339 338
f 317 318 340
f 317 340 339
f 318 319 341
f 318 341 340
f 319 320 342
f 319 342 341
f 320 321 343
f 320 343 342
f 321 322 344
f 321 344 343
f 322 323 345
f 322 345 344
f 323 324 346
f 323 346 345
f 324 325 347
f 324 347 346
f 325 326 348
f 325 348 347
f 326 327 349
f 326 349 348
f 327 328 350
f 327 350 349
f 328 329 351
f 328 351 350
f 329 330 352
f 329 352 351
f 330 309 331
f 330 331 352
f 331 332 354
f 331 354 353
f 332 333 355
f 332 355 354
f 333 334 356
f 333 356 355
f 334 335 357
f 334 357 356
f 335 336 358
f 335 358 357
f 336 337 359
f 336 359 358
f 337 338 360
f 337 360 359
f 338 339 361
f 338 361 360
f 339 340 362
f 339 362 361
f 340 341 363
f 340 363 362
f 341 342 364
f 341 364 363
f 342 343 365
f 342 365 364
f 343 344 366
f 343 366 365
f 344 345 367
f 344 367 366
f 345 346 368
f 345 368 367
f 346 347 369
f 346 369 368
f 347 348 370
f 347 370 369
f 348 349 371
f 348 371 370
f 349 350 372
f 349 372 371
f 350 351 373
f 350 373 372
f 351 352 374
f 351 374 373
f 352 331 353
f 352 353 374
f 353 354 376
f 353 376 375
f 354 355 377
f 354 377 376
f 355 356 378
f 355 378 377
f 356 357 379
f 356 379 378
f 357 358 380
f 357 380 379
f 358 359 381
f 358 381 380
f 359 360 382
f 359 382 381
f 360 361 383
f 360 383 382
f 361 362 384
f 361 384 383
f 362 363 385
f 362 385 384
f 363 364 386
f 363 386 385
f 364 365 387
f 364 387 386
f 365 366 388
f 365 388 387
f 366 367 389
f 366 389 388
f 367 368 390
f 367 390 389
f 368 369 391
f 368 391 390
f 369 370 392
f 369 392 391
f 370 371 393
f 370 393 392
f 371 372 394
f 371 394 393
f 372 373 395
f 372 395 394
f 373 374 396
f 373 396 395
f 374 353 375
f 374 375 396
f 375 376 398
f 375 398 397
f 376 377 399
f 376 399 398
f 377 378 400
f 377 400 399
f 378 379 401
f 378 401 400
f 379 380 402
f 379 402 401
f 380 381 403
f 380 403 402
f 381 382 404
f 381 404 403
f 382 383 405
f 382 405 404
f 383 384 406
f 383 406 405
f 384 385 407
f 384 407 406
f 385 386 408
f 385 408 407
f 386 387 409
f 386 409 408
f 387 388 410
f 387 410 409
f 388 389 411
f 388 411 410
f 389 390 412
f 389 412 411
f 390 391 413
f 390 413 412
f 391 392 414
f 391 414 413
f 392 393 415
f 392 415 414
f 393 394 416
f 393 416 415
f 394 395 417
f 394 417 416
f 395 396 418
f 395 418 417
f 396 375 397
f 396 397 418
f 397 398 420
f 397 420 419
f 398 399 421
f 398 421 420
f 399 400 422
f 399 422 421
f 400 401 423
f 400 423 422
f 401 402 424
f 401 424 423
f 402 403 425
f 402 425 424
f 403 404 426
f 403 426 425
f 404 405 427
f 404 427 426
f 405 406 428
f 405 428 427
f 406 407 429
f 406 429 428
f 407 408 430
f 407 430 429
f 408 409 431
f 408 431 430
f 409 410 432
f 409 432 431
f 410 411 433
f 410 433 432
f 411 412 434
f 411 434 433
f 412 413 435
f 412 435 434
f 413 414 436
f 413 436 435
f 414 415 437
f 414 437 436
f 415 416 438
f 415 438 437
f 416 417 439
f 416 439 438
f 417 418 440
f 417 440 439
f 418 397 419
f 418 419 440
f 419 420 442
f 419 442 441
f 420 421 443
f 420 443 442
f 421 422 444
f 421 444 443
f 422 423 445
f 422 445 444
f 423 424 446
f 423 446 445
f 424 425 447
f 424 447 446
f 425 426 448
f 425 448 447
f 426 427 449
f 426 449 448
f 427 428 450
f 427 450 449
f 428 429 451
f 428 451 450
f 429 430 452
f 429 452 451
f 430 431 453
f 430 453 452
f 431 432 454
f 431 454 453
f 432 433 455
f 432 455 454
f 433 434 456
f 433 456 455
f 434 435 457
f 434 457 456
f 435 436 458
f 435 458 457
f 436 437 459
f 436 459 458
f 437 438 460
f 437 460 459
f 438 439 461
f 438 461 460
f 439 440 462
f 439 462 461
f 440 419 441
f 440 441 462
f 441 442 464
f 441 464 463
f 442 443 465
f 442 465 464
f 443 444 466
f 443 466 465
f 444 445 467
f 444 467 466
f 445 446 468
f 445 468 467
f 446 447 469
f 446 469 468
f 447 448 470
f 447 470 469
f 448 449 471
f 448 471 470
f 449 450 472
f 449 472 471
f 450 451 473
f 450 473 472
f 451 452 474
f 451 474 473
f 452 453 475
f 452 475 474
f 453 454 476
f 453 476 475
f 454 455 477
f 454 477 476
f 455 456 478
f 455 478 477
f 456 457 479
f 456 479 478
f 457 458 480
f 457 480 479
f 458 459 481
f 458 481 480
f 459 460 482
f 459 482 481
f 460 461 483
f 460 483 482
f 461 462 484
f 461 484 483
f 462 441 463
f 462 463 484
f 463 464 486
f 463 486 485
f 464 465 487
f 464 487 486
f 465 466 488
f 465 488 487
f 466 467 489
f 466 489 488
f 467 468 490
f 467 490 489
f 468 469 491
f 468 491 490
f 469 470 492
f 469 492 491
f 470 471 493
f 470 493 492
f 471 472 494
f 471 494 493
f 472 473 495
f 472 495 494
f 473 474 496
f 473 496 495
f 474 475 497
f 474 497 496
f 475 476 498
f 475 498 497
f 476 477 499
f 476 499 498
f 477 478 500
f 477 500 499
f 478 479 501
f 478 501 500
f 479 480 502
f 479 502 501
f 480 481 503
f 480 503 502
f 481 482 504
f 481 504 503
f 482 483 505
f 482 505 504
f 483 484 506
f 483 506 505
f 484 463 485
f 484 485 506
f 485 486 508
f 485 508 507
f 486 487 509
f 486 509 508
f 487 488 510
f 487 510 509
f 488 489 511
f 488 511 510
f 489 490 512
f 489 512 511
f 490 491 513
f 490 513 512
f 491 492 514
f 491 514 513
f 492 493 515
f 492 515 514
f 493 494 516
f 493 516 515
f 494 495 517
f 494 517 516
f 495 496 518
f 495 518 517
f 496 497 519
f 496 519 518
f 497 498 520
f 497 520 519
f 498 499 521
f 498 521 520
f 499 500 522
f 499 522 521
f 500 501 523
f 500 523 522
f 501 502 524
f 501 524 523
f 502 503 525
f 502 525 524
f 503 504 526
f 503 526 525
f 504 505 527
f 504 527 526
f 505 506 528
f 505 528 527
f 506 485 507
f 506 507 528
f 507 508 530
f 507 530 529
f 508 509 531
f 508 531 530
f 509 510 532
f 509 532 531
f 510 511 533
f 510 533 532
f 511 512 534
f 511 534 533
f 512 513 535
f 512 535 534
f 513 514 536
f 513 536 535
f 514 515 537
f 514 537 536
f 515 516 538
f 515 538 537
f 516 517 539
f 516 539 538
f 517 518 540
f 517 540 539
f 518 519 541
f 518 541 540
f 519 520 542
f 519 542 541
f 520 521 543
f 520 543 542
f 521 522 544
f 521 544 543
f 522 523 545
f 522 545 544
f 523 524 546
f 523 546 545
f 524 525 547
f 524 547 546
f 525 526 548
f 525 548 547
f 526 527 549
f 526 549 548
f 527 528 550
f 527 550 549
f 528 507 529
f 528 529 550
f 529 530 552
f 529 552 551
f 530 531 553
f 530 553 552
f 531 532 554
f 531 554 553
f 532 533 555
f 532 555 554
f 533 534 556
f 533 556 555
f 534 535 557
f 534 557 556
f 535 536 558
f 535 558 557
f 536 537 559
f 536 559 558
f 537 538 560
f 537 560 559
f 538 539 561
f 538 561 560
f 539 540 562
f 539 562 561
f 540 541 563
f 540 563 562
f 541 542 564
f 541 564 563
f 542 543 565
f 542 565 564
f 543 544 566
f 543 566 565
f 544 545 567
f 544 567 566
f 545 546 568
f 545 568 567
f 546 547 569
f 546 569 568
f 547 548 570
f 547 570 569
f 548 549 571
f 548 571 570
f 549 550 572
f 549 572 571
f 550 529 551
f 550 551 572
f 551 552 574
f 551 574 573
f 552 553 575
f 552 575 574
f 553 554 576
f 553 576 575
f 554 555 577
f 554 577 576
f 555 556 578
f 555 578 577
f 556 557 579
f 556 579 578
f 557 558 580
f 557 580 579
f 558 559 581
f 558 581 580
f 559 560 582
f 559 582 581
f 560 561 583
f 560 583 582
f 561 562 584
f 561 584 583
f 562 563 585
f 562 585 584
f 563 564 586
f 563 586 585
f 564 565 587
f 564 587 586
f 565 566 588
f 565 588 587
f 566 567 589
f 566 589 588
f 567 568 590
f 567 590 589
f 568 569 591
f 568 591 590
f 569 570 592
f 569 592 591
f 570 571 593
f 570 593 592
f 571 572 594
f 571 594 593
f 572 551 573
f 572 573 594
f 573 574 596
f 573 596 595
f 574 575 597
f 574 597 596
f 575 576 598
f 575 598 597
f 576 577 599
f 576 599 598
f 577 578 600
f 577 600 599
f 578 579 601
f 578 601 600
f 579 580 602
f 579 602 601
f 580 581 603
f 580 603 602
f 581 582 604
f 581 604 603
f 582 583 605
f 582 605 604
f 583 584 606
f 583 606 605
f 584 585 607
f 584 607 606
f 585 586 608
f 585 608 607
f 586 587 609
f 586 609 608
f 587 588 610
f 587 610 609
f 588 589 611
f 588 611 610
f 589 590 612
f 589 612 611
f 590 591 613
f 590 613 612
f 591 592 614
f 591 614 613
f 592 593 615
f 592 615 614
f 593 594 616
f 593 616 615
f 594 573 595
f 594 595 616
f 595 596 618
f 595 618 617
f 596 597 619
f 596 619 618
f 597 598 620
f 597 620 619
f 598 599 621
f 598 621 620
f 599 600 622
f 599 622 621
f 600 601 623
f 600 623 622
f 601 602 624
f 601 624 623
f 602 603 625
f 602 625 624
f 603 604 626
f 603 626 625
f 604 605 627
f 604 627 626
f 605 606 628
f 605 628 627
f 606 607 629
f 606 629 628
f 607 608 630
f 607 630 629
f 608 609 631
f 608 631 630
f 609 610 632
f 609 632 631
f 610 611 633
f 610 633 632
f 611 612 634
f 611 634 633
f 612 613 635
f 612 635 634
f 613 614 636
f 613 636 635
f 614 615 637
f 614 637 636
f 615 616 638
f 615 638 637
f 616 595 617
f 616 617 638
f 617 618 640
f 617 640 639
f 618 619 641
f 618 641 640
f 619 620 642
f 619 642 641
f 620 621 643
f 620 643 642
f 621 622 644
f 621 644 643
f 622 623 645
f 622 645 644
f 623 624 646
f 623 646 645
f 624 625 647
f 624 647 646
f 625 626 648
f 625 648 647
f 626 627 649
f 626 649 648
f 627 628 650
f 627 650 649
f 628 629 651
f 628 651 650
f 629 630 652
f 629 652 651
f 630 631 653
f 630 653 652
f 631 632 654
f 631 654 653
f 632 633 655
f 632 655 654
f 633 634 656
f 633 656 655
f 634 635 657
f 634 657 656
f 635 636 658
f 635 658 657
f 636 637 659
f 636 659 658
f 637 638 660
f 637 660 659
f 638 617 639
f 638 639 660
f 639 640 662
f 639 662 661
f 640 641 663
f 640 663 662
f 641 642 664
f 641 664 663
f 642 643 665
f 642 665 664
f 643 644 666
f 643 666 665
f 644 645 667
f 644 667 666
f 645 646 668
f 645 668 667
f 646 647 669
f 646 669 668
f 647 648 670
f 647 670 669
f 648 649 671
f 648 671 670
f 649 650 672
f 649 672 671
f 650 651 673
f 650 673 672
f 651 652 674
f 651 674 673
f 652 653 675
f 652 675 674
f 653 654 676
f 653 676 675
f 654 655 677
f 654 677 676
f 655 656 678
f 655 678 677
f 656 657 679
f 656 679 678
f 657 658 680
f 657 680 679
f 658 659 681
f 658 681 680
f 659 660 682
f 659 682 681
f 660 639 661
f 660 661 682
f 661 662 684
f 661 684 683
f 662 663 685
f 662 685 684
f 663 664 686
f 663 686 685
f 664 665 687
f 664 687 686
f 665 666 688
f 665 688 687
f 666 667 689
f 666 689 688
f 667 668 690
f 667 690 689
f 668 669 691
f 668 691 690
f 669 670 692
f 669 692 691
f 670 671 693
f 670 693 692
f 671 672 694
f 671 694 693
f 672 673 695
f 672 695 694
f 673 674 696
f 673 696 695
f 674 675 697
f 674 697 696
f 675 676 698
f 675 698 697
f 676 677 699
f 676 699 698
f 677 678 700
f 677 700 699
f 678 679 701
f 678 701 700
f 679 680 702
f 679 702 701
f 680 681 703
f 680 703 702
f 681 682 704
f 681 704 703
f 682 661 683
f 682 683 704
f 683 684 706
f 683 706 705
f 684 685 707
f 684 707 706
f 685 686 708
f 685 708 707
f 686 687 709
f 686 709 708
f 687 688 710
f 687 710 709
f 688 689 711
f 688 711 710
f 689 690 712
f 689 712 711
f 690 691 713
f 690 713 712
f 691 692 714
f 691 714 713
f 692 693 715
f 692 715 714
f 693 694 716
f 693 716 715
f 694 695 717
f 694 717 716
f 695 696 718
f 695 718 717
f 696 697 719
f 696 719 718
f 697 698 720
f 697 720 719
f 698 699 721
f 698 721 720
f 699 700 722
f 699 722 721
f 700 701 723
f 700 723 722
f 701 702 724
f 701 724 723
f 702 703 725
f 702 725 724
f 703 704 726
f 703 726 725
f 704 683 705
f 704 705 726
f 705 706 728
f 705 728 727
f 706 707 729
f 706 729 728
f 707 708 730
f 707 730 729
f 708 709 731
f 708 731 730
f 709 710 732
f 709 732 731
f 710 711 733
f 710 733 732
f 711 712 734
f 711 734 733
f 712 713 735
f 712 735 734
f 713 714 736
f 713 736 735
f 714 715 737
f 714 737 736
f 715 716 738
f 715 738 737
f 716 717 739
f 716 739 738
f 717 718 740
f 717 740 739
f 718 719 741
f 718 741 740
f 719 720 742
f 719 742 741
f 720 721 743
f 720 743 742
f 721 722 744
f 721 744 743
f 722 723 745
f 722 745 744
f 723 724 746
f 723 746 745
f 724 725 747
f 724 747 746
f 725 726 748
f 725 748 747
f 726 705 727
f 726 727 748
f 727 728 750
f 727 750 749
f 728 729 751
f 728 751 750
f 729 730 752
f 729 752 751
f 730 731 753
f 730 753 752
f 731 732 754
f 731 754 753
f 732 733 755
f 732 755 754
f 733 734 756
f 733 756 755
f 734 735 757
f 734 757 756
f 735 736 758
f 735 758 757
f 736 737 759
f 736 759 758
f 737 738 760
f 737 760 759
f 738 739 761
f 738 761 760
f 739 740 762
f 739 762 761
f 740 741 763
f 740 763 762
f 741 742 764
f 741 764 763
f 742 743 765
f 742 765 764
f 743 744 766
f 743 766 765
f 744 745 767
f 744 767 766
f 745 746 768
f 745 768 767
f 746 747 769
f 746 769 768
f 747 748 770
f 747 770 769
f 748 727 749
f 748 749 770
f 749 750 772
f 749 772 771
f 750 751 773
f 750 773 772
f 751 752 774
f 751 774 773
f 752 753 775
f 752 775 774
f 753 754 776
f 753 776 775
f 754 755 777
f 754 777 776
f 755 756 778
f 755 778 777
f 756 757 779
f 756 779 778
f 757 758 780
f 757 780 779
f 758 759 781
f 758 781 780
f 759 760 782
f 759 782 781
f 760 761 783
f 760 783 782
f 761 762 784
f 761 784 783
f 762 763 785
f 762 785 784
f 763 764 786
f 763 786 785
f 764 765 787
f 764 787 786
f 765 766 788
f 765 788 787
f 766 767 789
f 766 789 788
f 767 768 790
f 767 790 789
f 768 769 791
f 768 791 790
f 769 770 792
f 769 792 791
f 770 749 771
f 770 771 792
f 771 772 794
f 771 794 793
f 772 773 795
f 772 795 794
f 773 774 796
f 773 796 795
f 774 775 797
f 774 797 796
f 775 776 798
f 775 798 797
f 776 777 799
f 776 799 798
f 777 778 800
f 777 800 799
f 778 779 801
f 778 801 800
f 779 780 802
f 779 802 801
f 780 781 803
f 780 803 802
f 781 782 804
f 781 804 803
f 782 783 805
f 782 805 804
f 783 784 806
f 783 806 805
f 784 785 807
f 784 807 806
f 785 786 808
f 785 808 807
f 786 787 809
f 786 809 808
f 787 788 810
f 787 810 809
f 788 789 811
f 788 811 810
f 789 790 812
f 789 812 811
f 790 791 813
f 790 813 812
f 791 792 814
f 791 814 813
f 792 771 793
f 792 793 814
f 793 794 816
f 793 816 815
f 794 795 817
f 794 817 816
f 795 796 818
f 795 818 817
f 796 797 819
f 796 819 818
f 797 798 820
f 797 820 819
f 798 799 821
f 798 821 820
f 799 800 822
f 799 822 821
f 800 801 823
f 800 823 822
f 801 802 824
f 801 824 823
f 802 803 825
f 802 825 824
f 803 804 826
f 803 826 825
f 804 805 827
f 804 827 826
f 805 806 828
f 805 828 827
f 806 807 829
f 806 829 828
f 807 808 830
f 807 830 829
f 808 809 831
f 808 831 830
f 809 810 832
f 809 832 831
f 810 811 833
f 810 833 832
f 811 812 834
f 811 834 833
f 812 813 835
f 812 835 834
f 813 814 836
f 813 836 835
f 814 793 815
f 814 815 836
f 815 816 838
f 815 838 837
f 816 817 839
f 816 839 838
f 817 818 840
f 817 840 839
f 818 819 841
f 818 841 840
f 819 820 842
f 819 842 841
f 820 821 843
f 820 843 842
f 821 822 844
f 821 844 843
f 822 823 845
f 822 845 844
f 823 824 846
f 823 846 845
f 824 825 847
f 824 847 846
f 825 826 848
f 825 848 847
f 826 827 849
f 826 849 848
f 827 828 850
f 827 850 849
f 828 829 851
f 828 851 850
f 829 830 852
f 829 852 851
f 830 831 853
f 830 853 852
f 831 832 854
f 831 854 853
f 832 833 855
f 832 855 854
f 833 834 856
f 833 856 855
f 834 835 857
f 834 857 856
f 835 836 858
f 835 858 857
f 836 815 837
f 836 837 858
f 837 838 860
f 837 860 859
f 838 839 861
f 838 861 860
f 839 840 862
f 839 862 861
f 840 841 863
f 840 863 862
f 841 842 864
f 841 864 863
f 842 843 865
f 842 865 864
f 843 844 866
f 843 866 865
f 844 845 867
f 844 867 866
f 845 846 868
f 845 868 867
f 846 847 869
f 846 869 868
f 847 848 870
f 847 870 869
f 848 849 871
f 848 871 870
f 849 850 872
f 849 872 871
f 850 851 873
f 850 873 872
f 851 852 874
f 851 874 873
f 852 853 875
f 852 875 874
f 853 854 876
f 853 876 875
f 854 855 877
f 854 877 876
f 855 856 878
f 855 878 877
f 856 857 879
f 856 879 878
f 857 858 880
f 857 880 879
f 858 837 859
f 858 859 880
f 859 860 882
f 859 882 881
f 860 861 883
f 860 883 882
f 861 862 884
f 861 884 883
f 862 863 885
f 862 885 884
f 863 864 886
f 863 886 885
f 864 865 887
f 864 887 886
f 865 866 888
f 865 888 887
f 866 867 889
f 866 889 888
f 867 868 890
f 867 890 889
f 868 869 891
f 868 891 890
f 869 870 892
f 869 892 891
f 870 871 893
f 870 893 892
f 871 872 894
f 871 894 893
f 872 873 895
f 872 895 894
f 873 874 896
f 873 896 895
f 874 875 897
f 874 897 896
f 875 876 898
f 875 898 897
f 876 877 899
f 876 899 898
f 877 878 900
f 877 900 899
f 878 879 901
f 878 901 900
f 879 880 902
f 879 902 901
f 880 859 881
f 880 881 902
f 881 882 904
f 881 904 903
f 882 883 905
f 882 905 904
f 883 884 906
f 883 906 905
f 884 885 907
f 884 907 906
f 885 886 908
f 885 908 907
f 886 887 909
f 886 909 908
f 887 888 910
f 887 910 909
f 888 889 911
f 888 911 910
f 889 890 912
f 889 912 911
f 890 891 913
f 890 913 912
f 891 892 914
f 891 914 913
f 892 893 915
f 892 915 914
f 893 894 916
f 893 916 915
f 894 895 917
f 894 917 916
f 895 896 918
f 895 918 917
f 896 897 919
f 896 919 918
f 897 898 920
f 897 920 919
f 898 899 921
f 898 921 920
f 899 900 922
f 899 922 921
f 900 901 923
f 900 923 922
f 901 902 924
f 901 924 923
f 902 881 903
f 902 903 924
f 903 904 926
f 903 926 925
f 904 905 927
f 904 927 926
f 905 906 928
f 905 928 927
f 906 907 929
f 906 929 928
f 907 908 930
f 907 930 929
f 908 909 931
f 908 931 930
f 909 910 932
f 909 932 931
f 910 911 933
f 910 933 932
f 911 912 934
f 911 934 933
f 912 913 935
f 912 935 934
f 913 914 936
f 913 936 935
f 914 915 937
f 914 937 936
f 915 916 938
f 915 938 937
f 916 917 939
f 916 939 938
f 917 918 940
f 917 940 939
f 918 919 941
f 918 941 940
f 919 920 942
f 919 942 941
f 920 921 943
f 920 943 942
f 921 922 944
f 921 944 943
f 922 923 945
f 922 945 944
f 923 924 946
f 923 946 945
f 924 903 925
f 924 925 946
f 925 926 948
f 925 948 947
f 926 927 949
f 926 949 948
f 927 928 950
f 927 950 949
f 928 929 951
f 928 951 950
f 929 930 952
f 929 952 951
f 930 931 953
f 930 953 952
f 931 932 954
f 931 954 953
f 932 933 955
f 932 955 954
f 933 934 956
f 933 956 955
f 934 935 957
f 934 957 956
f 935 936 958
f 935 958 957
f 936 937 959
f 936 959 958
f 937 938 960
f 937 960 959
f 938 939 961
f 938 961 960
f 939 940 962
f 939 962 961
f 940 941 963
f 940 963 962
f 941 942 964
f 941 964 963
f 942 943 965
f 942 965 964
f 943 944 966
f 943 966 965
f 944 945 967
f 944 967 966
f 945 946 968
f 945 968 967
f 946 925 947
f 946 947 968
f 947 948 970
f 947 970 969
f 948 949 971
f 948 971 970
f 949 950 972
f 949 972 971
f 950 951 973
f 950 973 972
f 951 952 974
f 951 974 973
f 952 953 975
f 952 975 974
f 953 954 976
f 953 976 975
f 954 955 977
f 954 977 976
f 955 956 978
f 955 978 977
f 956 957 979
f 956 979 978
f 957 958 980
f 957 980 979
f 958 959 981
f 958 981 980
f 959 960 982
f 959 982 981
f 960 961 983
f 960 983 982
f 961 962 984
f 961 984 983
f 962 963 985
f 962 985 984
f 963 964 986
f 963 986 985
f 964 965 987
f 964 987 986
f 965 966 988
f 965 988 987
f 966 967 989
f 966 989 988
f 967 968 990
f 967 990 989
f 968 947 969
f 968 969 990
f 969 970 992
f 969 992 991
f 970 971 993
f 970 993 992
f 971 972 994
f 971 994 993
f 972 973 995
f 972 995 994
f 973 974 996
f 973 996 995
f 974 975 997
f 974 997 996
f 975 976 998
f 975 998 997
f 976 977 999
f 976 999 998
f 977 978 1000
f 977 1000 999
f 978 979 1001
f 978 1001 1000
f 979 980 1002
f 979 1002 1001
f 980 981 1003
f 980 1003 1002
f 981 982 1004
f 981 1004 1003
f 982 983 1005
f 982 1005 1004
f 983 984 1006
f 983 1006 1005
f 984 985 1007
f 984 1007 1006
f 985 986 1008
f 985 1008 1007
f 986 987 1009
f 986 1009 1008
f 987 988 1010
f 987 1010 1009
f 988 989 1011
f 988 1011 1010
f 989 990 1012
f 989 1012 1011
f 990 969 991
f 990 991 1012
f 991 992 1014
f 991 1014 1013
f 992 993 1015
f 992 1015 1014
f 993 994 1016
f 993 1016 1015
f 994 995 1017
f 994 1017 1016
f 995 996 1018
f 995 1018 1017
f 996 997 1019
f 996 1019 1018
f 997 998 1020
f 997 1020 1019
f 998 999 1021
f 998 1021 1020
f 999 1000 1022
f 999 1022 1021
f 1000 1001 1023
f 1000 1023 1022
f 1001 1002 1024
f 1001 1024 1023
f 1002 1003 1025
f 1002 1025 1024
f 1003 1004 1026
f 1003 1026 1025
f 1004 1005 1027
f 1004 1027 1026
f 1005 1006 1028
f 1005 1028 1027
f 1006 1007 1029
f 1006 1029 1028
f 1007 1008 1030
f 1007 1030 1029
f 1008 1009 1031
f 1008 1031 1030
f 1009 1010 1032
f 1009 1032 1031
f 1010 1011 1033
f 1010 1033 1032
f 1011 1012 1034
f 1011 1034 1033
f 1012 991 1013
f 1012 1013 1034
f 1013 1014 1036
f 1013 1036 1035
f 1014 1015 1037
f 1014 1037 1036
f 1015 1016 1038
f 1015 1038 1037
f 1016 1017 1039
f 1016 1039 1038
f 1017 1018 1040
f 1017 1040 1039
f 1018 1019 1041
f 1018 1041 1040
f 1019 1020 1042
f 1019 1042 1041
f 1020 1021 1043
f 1020 1043 1042
f 1021 1022 1044
f 1021 1044 1043
f 1022 1023 1045
f 1022 1045 1044
f 1023 1024 1046
f 1023 1046 1045
f 1024 1025 1047
f 1024 1047 1046
f 1025 1026 1048
f 1025 1048 1047
f 1026 1027 1049
f 1026 1049 1048
f 1027 1028 1050
f 1027 1050 1049
f 1028 1029 1051
f 1028 1051 1050
f 1029 1030 1052
f 1029 1052 1051
f 1030 1031 1053
f 1030 1053 1052
f 1031 1032 1054
f 1031 1054 1053
f 1032 1033 1055
f 1032 1055 1054
f 1033 1034 1056
f 1033 1056 1055
f 1034 1013 1035
f 1034 1035 1056
f 1035 1036 1058
f 1035 1058 1057
f 1036 1037 1059
f 1036 1059 1058
f 1037 1038 1060
f 1037 1060 1059
f 1038 1039 1061
f 1038 1061 1060
f 1039 1040 1062
f 1039 1062 1061
f 1040 1041 1063
f 1040 1063 1062
f 1041 1042 1064
f 1041 1064 1063
f 1042 1043 1065
f 1042 1065 1064
f 1043 1044 1066
f 1043 1066 1065
f 1044 1045 1067
f 1044 1067 1066
f 1045 1046 1068
f 1045 1068 1067
f 1046 1047 1069
f 1046 1069 1068
f 1047 1048 1070
f 1047 1070 1069
f 1048 1049 1071
f 1048 1071 1070
f 1049 1050 1072
f 1049 1072 1071
f 1050 1051 1073
f 1050 1073 1072
f 1051 1052 1074
f 1051 1074 1073
f 1052 1053 1075
f 1052 1075 1074
f 1053 1054 1076
f 1053 1076 1075
f 1054 1055 1077
f 1054 1077 1076
f 1055 1056 1078
f 1055 1078 1077
f 1056 1035 1057
f 1056 1057 1078
f 1057 1058 1080
f 1057 1080 1079
f 1058 1059 1081
f 1058 1081 1080
f 1059 1060 1082
f 1059 1082 1081
f 1060 1061 1083
f 1060 1083 1082
f 1061 1062 1084
f 1061 1084 1083
f 1062 1063 1085
f 1062 1085 1084
f 1063 1064 1086
f 1063 1086 1085
f 1064 1065 1087
f 1064 1087 1086
f 1065 1066 1088
f 1065 1088 1087
f 1066 1067 1089
f 1066 1089 1088
f 1067 1068 1090
f 1067 1090 1089
f 1068 1069 1091
f 1068 1091 1090
f 1069 1070 1092
f 1069 1092 1091
f 1070 1071 1093
f 1070 1093 1092
f 1071 1072 1094
f 1071 1094 1093
f 1072 1073 1095
f 1072 1095 1094
f 1073 1074 1096
f 1073 1096 1095
f 1074 1075 1097
f 1074 1097 1096
f 1075 1076 1098
f 1075 1098 1097
f 1076 1077 1099
f 1076 1099 1098
f 1077 1078 1100
f 1077 1100 1099
f 1078 1057 1079
f 1078 1079 1100
f 1079 1080 1102
f 1079 1102 1101
f 1080 1081 1103
f 1080 1103 1102
f 1081 1082 1104
f 1081 1104 1103
f 1082 1083 1105
f 1082 1105 1104
f 1083 1084 1106
f 1083 1106 1105
f 1084 1085 1107
f 1084 1107 1106
f 1085 1086 1108
f 1085 1108 1107
f 1086 1087 1109
f 1086 1109 1108
f 1087 1088 1110
f 1087 1110 1109
f 1088 1089 1111
f 1088 1111 1110
f 1089 1090 1112
f 1089 1112 1111
f 1090 1091 1113
f 1090 1113 1112
f 1091 1092 1114
f 1091 1114 1113
f 1092 1093 1115
f 1092 1115 1114
f 1093 1094 1116
f 1093 1116 1115
f 1094 1095 1117
f 1094 1117 1116
f 1095 1096 1118
f 1095 1118 1117
f 1096 1097 1119
f 1096 1119 1118
f 1097 1098 1120
f 1097 1120 1119
f 1098 1099 1121
f 1098 1121 1120
f 1099 1100 1122
f 1099 1122 1121
f 1100 1079 1101
f 1100 1101 1122
f 1101 1102 1124
f 1101 1124 1123
f 1102 1103 1125
f 1102 1125 1124
f 1103 1104 1126
f 1103 1126 1125
f 1104 1105 1127
f 1104 1127 1126
f 1105 1106 1128
f 1105 1128 1127
f 1106 1107 1129
f 1106 1129 1128
f 1107 1108 1130
f 1107 1130 1129
f 1108 1109 1131
f 1108 1131 1130
f 1109 1110 1132
f 1109 1132 1131
f 1110 1111 1133
f 1110 1133 1132
f 1111 1112 1134
f 1111 1134 1133
f 1112 1113 1135
f 1112 1135 1134
f 1113 1114 1136
f 1113 1136 1135
f 1114 1115 1137
f 1114 1137 1136
f 1115 1116 1138
f 1115 1138 1137
f 1116 1117 1139
f 1116 1139 1138
f 1117 1118 1140
f 1117 1140 1139
f 1118 1119 1141
f 1118 1141 1140
f 1119 1120 1142
f 1119 1142 1141
f 1120 1121 1143
f 1120 1143 1142
f 1121 1122 1144
f 1121 1144 1143
f 1122 1101 1123
f 1122 1123 1144
f 1123 1124 1146
f 1123 1146 1145
f 1124 1125 1147
f 1124 1147 1146
f 1125 1126 1148
f 1125 1148 1147
f 1126 1127 1149
f 1126 1149 1148
f 1127 1128 1150
f 1127 1150 1149
f 1128 1129 1151
f 1128 1151 1150
f 1129 1130 1152
f 1129 1152 1151
f 1130 1131 1153
f 1130 1153 1152
f 1131 1132 1154
f 1131 1154 1153
f 1132 1133 1155
f 1132 1155 1154
f 1133 1134 1156
f 1133 1156 1155
f 1134 1135 1157
f 1134 1157 1156
f 1135 1136 1158
f 1135 1158 1157
f 1136 1137 1159
f 1136 1159 1158
f 1137 1138 1160
f 1137 1160 1159
f 1138 1139 1161
f 1138 1161 1160
f 1139 1140 1162
f 1139 1162 1161
f 1140 1141 1163
f 1140 1163 1162
f 1141 1142 1164
f 1141 1164 1163
f 1142 1143 1165
f 1142 1165 1164
f 1143 1144 1166
f 1143 1166 1165
f 1144 1123 1145
f 1144 1145 1166
f 1145 1146 1168
f 1145 1168 1167
f 1146 1147 1169
f 1146 1169 1168
f 1147 1148 1170
f 1147 1170 1169
f 1148 1149 1171
f 1148 1171 1170
f 1149 1150 1172
f 1149 1172 1171
f 1150 1151 1173
f 1150 1173 1172
f 1151 1152 1174
f 1151 1174 1173
f 1152 1153 1175
f 1152 1175 1174
f 1153 1154 1176
f 1153 1176 1175
f 1154 1155 1177
f 1154 1177 1176
f 1155 1156 1178
f 1155 1178 1177
f 1156 1157 1179
f 1156 1179 1178
f 1157 1158 1180
f 1157 1180 1179
f 1158 1159 1181
f 1158 1181 1180
f 1159 1160 1182
f 1159 1182 1181
f 1160 1161 1183
f 1160 1183 1182
f 1161 1162 1184
f 1161 1184 1183
f 1162 1163 1185
f 1162 1185 1184
f 1163 1164 1186
f 1163 1186 1185
f 1164 1165 1187
f 1164 1187 1186
f 1165 1166 1188
f 1165 1188 1187
f 1166 1145 1167
f 1166 1167 1188
f 1167 1168 1190
f 1167 1190 1189
f 1168 1169 1191
f 1168 1191 1190
f 1169 1170 1192
f 1169 1192 1191
f 1170 1171 1193
f 1170 1193 1192
f 1171 1172 1194
f 1171 1194 1193
f 1172 1173 1195
f 1172 1195 1194
f 1173 1174 1196
f 1173 1196 1195
f 1174 1175 1197
f 1174 1197 1196
f 1175 1176 1198
f 1175 1198 1197
f 1176 1177 1199
f 1176 1199 1198
f 1177 1178 1200
f 1177 1200 1199
f 1178 1179 1201
f 1178 1201 1200
f 1179 1180 1202
f 1179 1202 1201
f 1180 1181 1203
f 1180 1203 1202
f 1181 1182 1204
f 1181 1204 1203
f 1182 1183 1205
f 1182 1205 1204
f 1183 1184 1206
f 1183 1206 1205
f 1184 1185 1207
f 1184 1207 1206
f 1185 1186 1208
f 1185 1208 1207
f 1186 1187 1209
f 1186 1209 1208
f 1187 1188 1210
f 1187 1210 1209
f 1188 1167 1189
f 1188 1189 1210
f 1211 2 1
f 1212 1189 1190
f 1211 3 2
f 1212 1190 1191
f 1211 4 3
f 1212 1191 1192
f 1211 5 4
f 1212 1192 1193
f 1211 6 5
f 1212 1193 1194
f 1211 7 6
f 1212 1194 1195
f 1211 8 7
f 1212 1195 1196
f 1211 9 8
f 1212 1196 1197
f 1211 10 9
f 1212 1197 1198
f 1211 11 10
f 1212 1198 1199
f 1211 12 11
f 1212 1199 1200
f 1211 13 12
f 1212 1200 1201
f 1211 14 13
f 1212 1201 1202
f 1211 15 14
f 1212 1202 1203
f 1211 16 15
f 1212 1203 1204
f 1211 17 16
f 1212 1204 1205
f 1211 18 17
f 1212 1205 1206
f 1211 19 18
f 1212 1206 1207
f 1211 20 19
f 1212 1207 1208
f 1211 21 20
f 1212 1208 1209
f 1211 22 21
f 1212 1209 1210
f 1211 1 22
f 1212 1210 1189
