v 0.045000 0 -0.003000
v 0.045000 0 0.003000
v 0.044964 -0.001789 0.003000
v 0.044858 -0.003575 0.003000
v 0.044680 -0.005356 0.003000
v 0.044432 -0.007128 0.003000
v 0.044113 -0.008889 0.003000
v 0.043725 -0.010635 0.003000
v 0.043268 -0.012365 0.003000
v 0.042742 -0.014076 0.003000
v 0.042149 -0.015764 0.003000
v 0.041488 -0.017427 0.003000
v 0.040763 -0.019063 0.003000
v 0.039973 -0.020668 0.003000
v 0.039119 -0.022241 0.003000
v 0.038204 -0.023779 0.003000
v 0.037229 -0.025279 0.003000
v 0.036194 -0.026739 0.003000
v 0.035103 -0.028157 0.003000
v 0.033955 -0.02953 0.003000
v 0.032755 -0.030857 0.003000
v 0.031502 -0.032135 0.003000
v 0.030199 -0.033362 0.003000
v 0.028849 -0.034536 0.003000
v 0.027453 -0.035655 0.003000
v 0.026014 -0.036719 0.003000
v 0.024534 -0.037724 0.003000
v 0.023015 -0.038669 0.003000
v 0.021459 -0.039554 0.003000
v 0.019870 -0.040376 0.003000
v 0.018249 -0.041134 0.003000
v 0.016599 -0.041827 0.003000
v 0.014923 -0.042454 0.003000
v 0.013223 -0.043013 0.003000
v 0.011503 -0.043505 0.003000
v 0.009764 -0.043928 0.003000
v 0.008010 -0.044281 0.003000
v 0.006243 -0.044565 0.003000
v 0.004466 -0.044778 0.003000
v 0.002683 -0.04492 0.003000
v 0.000895 -0.044991 0.003000
v -0.000895 -0.044991 0.003000
v -0.002683 -0.04492 0.003000
v -0.004466 -0.044778 0.003000
v -0.006243 -0.044565 0.003000
v -0.008010 -0.044281 0.003000
v -0.009764 -0.043928 0.003000
v -0.011503 -0.043505 0.003000
v -0.013223 -0.043013 0.003000
v -0.014923 -0.042454 0.003000
v -0.016599 -0.041827 0.003000
v -0.018249 -0.041134 0.003000
v -0.019870 -0.040376 0.003000
v -0.021459 -0.039554 0.003000
v -0.023015 -0.038669 0.003000
v -0.024534 -0.037724 0.003000
v -0.026014 -0.036719 0.003000
v -0.027453 -0.035655 0.003000
v -0.028849 -0.034536 0.003000
v -0.030199 -0.033362 0.003000
v -0.031502 -0.032135 0.003000
v -0.032755 -0.030857 0.003000
v -0.033955 -0.02953 0.003000
v -0.035103 -0.028157 0.003000
v -0.036194 -0.026739 0.003000
v -0.037229 -0.025279 0.003000
v -0.038204 -0.023779 0.003000
v -0.039119 -0.022241 0.003000
v -0.039973 -0.020668 0.003000
v -0.040763 -0.019063 0.003000
v -0.041488 -0.017427 0.003000
v -0.042149 -0.015764 0.003000
v -0.042742 -0.014076 0.003000
v -0.043268 -0.012365 0.003000
v -0.043725 -0.010635 0.003000
v -0.044113 -0.008889 0.003000
v -0.044432 -0.007128 0.003000
v -0.044680 -0.005356 0.003000
v -0.044858 -0.003575 0.003000
v -0.044964 -0.001789 0.003000
v -0.045000 0 0.003000
v -0.044964 0.001789 0.003000
v -0.044858 0.003575 0.003000
v -0.044680 0.005356 0.003000
v -0.044432 0.007128 0.003000
v -0.044113 0.008889 0.003000
v -0.043725 0.010635 0.003000
v -0.043268 0.012365 0.003000
v -0.042742 0.014076 0.003000
v -0.042149 0.015764 0.003000
v -0.041488 0.017427 0.003000
v -0.040763 0.019063 0.003000
v -0.039973 0.020668 0.003000
v -0.039119 0.022241 0.003000
v -0.038204 0.023779 0.003000
v -0.037229 0.025279 0.003000
v -0.036194 0.026739 0.003000
v -0.035103 0.028157 0.003000
v -0.033955 0.02953 0.003000
v -0.032755 0.030857 0.003000
v -0.031502 0.032135 0.003000
v -0.030199 0.033362 0.003000
v -0.028849 0.034536 0.003000
v -0.027453 0.035655 0.003000
v -0.026014 0.036719 0.003000
v -0.024534 0.037724 0.003000
v -0.023015 0.038669 0.003000
v -0.021459 0.039554 0.003000
v -0.019870 0.040376 0.003000
v -0.018249 0.041134 0.003000
v -0.016599 0.041827 0.003000
v -0.014923 0.042454 0.003000
v -0.013223 0.043013 0.003000
v -0.011503 0.043505 0.003000
v -0.009764 0.043928 0.003000
v -0.008010 0.044281 0.003000
v -0.006243 0.044565 0.003000
v -0.004466 0.044778 0.003000
v -0.002683 0.04492 0.003000
v -0.000895 0.044991 0.003000
v 0.000895 0.044991 0.003000
v 0.002683 0.04492 0.003000
v 0.004466 0.044778 0.003000
v 0.006243 0.044565 0.003000
v 0.008010 0.044281 0.003000
v 0.009764 0.043928 0.003000
v 0.011503 0.043505 0.003000
v 0.013223 0.043013 0.003000
v 0.014923 0.042454 0.003000
v 0.016599 0.041827 0.003000
v 0.018249 0.041134 0.003000
v 0.019870 0.040376 0.003000
v 0.021459 0.039554 0.003000
v 0.023015 0.038669 0.003000
v 0.024534 0.037724 0.003000
v 0.026014 0.036719 0.003000
v 0.027453 0.035655 0.003000
v 0.028849 0.034536 0.003000
v 0.030199 0.033362 0.003000
v 0.031502 0.032135 0.003000
v 0.032755 0.030857 0.003000
v 0.033955 0.02953 0.003000
v 0.035103 0.028157 0.003000
v 0.036194 0.026739 0.003000
v 0.037229 0.025279 0.003000
v 0.038204 0.023779 0.003000
v 0.039119 0.022241 0.003000
v 0.039973 0.020668 0.003000
v 0.040763 0.019063 0.003000
v 0.041488 0.017427 0.003000
v 0.042149 0.015764 0.003000
v 0.042742 0.014076 0.003000
v 0.043268 0.012365 0.003000
v 0.043725 0.010635 0.003000
v 0.044113 0.008889 0.003000
v 0.044432 0.007128 0.003000
v 0.044680 0.005356 0.003000
v 0.044858 0.003575 0.003000
v 0.044964 0.001789 0.003000
v 0.045000 0 0.003000
v 0.045000 0 -0.003000
v 0.044964 -0.001789 -0.003000
v 0.044858 -0.003575 -0.003000
v 0.044680 -0.005356 -0.003000
v 0.044432 -0.007128 -0.003000
v 0.044113 -0.008889 -0.003000
v 0.043725 -0.010635 -0.003000
v 0.043268 -0.012365 -0.003000
v 0.042742 -0.014076 -0.003000
v 0.042149 -0.015764 -0.003000
v 0.041488 -0.017427 -0.003000
v 0.040763 -0.019063 -0.003000
v 0.039973 -0.020668 -0.003000
v 0.039119 -0.022241 -0.003000
v 0.038204 -0.023779 -0.003000
v 0.037229 -0.025279 -0.003000
v 0.036194 -0.026739 -0.003000
v 0.035103 -0.028157 -0.003000
v 0.033955 -0.02953 -0.003000
v 0.032755 -0.030857 -0.003000
v 0.031502 -0.032135 -0.003000
v 0.030199 -0.033362 -0.003000
v 0.028849 -0.034536 -0.003000
v 0.027453 -0.035655 -0.003000
v 0.026014 -0.036719 -0.003000
v 0.024534 -0.037724 -0.003000
v 0.023015 -0.038669 -0.003000
v 0.021459 -0.039554 -0.003000
v 0.019870 -0.040376 -0.003000
v 0.018249 -0.041134 -0.003000
v 0.016599 -0.041827 -0.003000
v 0.014923 -0.042454 -0.003000
v 0.013223 -0.043013 -0.003000
v 0.011503 -0.043505 -0.003000
v 0.009764 -0.043928 -0.003000
v 0.008010 -0.044281 -0.003000
v 0.006243 -0.044565 -0.003000
v 0.004466 -0.044778 -0.003000
v 0.002683 -0.04492 -0.003000
v 0.000895 -0.044991 -0.003000
v -0.000895 -0.044991 -0.003000
v -0.002683 -0.04492 -0.003000
v -0.004466 -0.044778 -0.003000
v -0.006243 -0.044565 -0.003000
v -0.008010 -0.044281 -0.003000
v -0.009764 -0.043928 -0.003000
v -0.011503 -0.043505 -0.003000
v -0.013223 -0.043013 -0.003000
v -0.014923 -0.042454 -0.003000
v -0.016599 -0.041827 -0.003000
v -0.018249 -0.041134 -0.003000
v -0.019870 -0.040376 -0.003000
v -0.021459 -0.039554 -0.003000
v -0.023015 -0.038669 -0.003000
v -0.024534 -0.037724 -0.003000
v -0.026014 -0.036719 -0.003000
v -0.027453 -0.035655 -0.003000
v -0.028849 -0.034536 -0.003000
v -0.030199 -0.033362 -0.003000
v -0.031502 -0.032135 -0.003000
v -0.032755 -0.030857 -0.003000
v -0.033955 -0.02953 -0.003000
v -0.035103 -0.028157 -0.003000
v -0.036194 -0.026739 -0.003000
v -0.037229 -0.025279 -0.003000
v -0.038204 -0.023779 -0.003000
v -0.039119 -0.022241 -0.003000
v -0.039973 -0.020668 -0.003000
v -0.040763 -0.019063 -0.003000
v -0.041488 -0.017427 -0.003000
v -0.042149 -0.015764 -0.003000
v -0.042742 -0.014076 -0.003000
v -0.043268 -0.012365 -0.003000
v -0.043725 -0.010635 -0.003000
v -0.044113 -0.008889 -0.003000
v -0.044432 -0.007128 -0.003000
v -0.044680 -0.005356 -0.003000
v -0.044858 -0.003575 -0.003000
v -0.044964 -0.001789 -0.003000
v -0.045000 0 -0.003000
v -0.044964 0.001789 -0.003000
v -0.044858 0.003575 -0.003000
v -0.044680 0.005356 -0.003000
v -0.044432 0.007128 -0.003000
v -0.044113 0.008889 -0.003000
v -0.043725 0.010635 -0.003000
v -0.043268 0.012365 -0.003000
v -0.042742 0.014076 -0.003000
v -0.042149 0.015764 -0.003000
v -0.041488 0.017427 -0.003000
v -0.040763 0.019063 -0.003000
v -0.039973 0.020668 -0.003000
v -0.039119 0.022241 -0.003000
v -0.038204 0.023779 -0.003000
v -0.037229 0.025279 -0.003000
v -0.036194 0.026739 -0.003000
v -0.035103 0.028157 -0.003000
v -0.033955 0.02953 -0.003000
v -0.032755 0.030857 -0.003000
v -0.031502 0.032135 -0.003000
v -0.030199 0.033362 -0.003000
v -0.028849 0.034536 -0.003000
v -0.027453 0.035655 -0.003000
v -0.026014 0.036719 -0.003000
v -0.024534 0.037724 -0.003000
v -0.023015 0.038669 -0.003000
v -0.021459 0.039554 -0.003000
v -0.019870 0.040376 -0.003000
v -0.018249 0.041134 -0.003000
v -0.016599 0.041827 -0.003000
v -0.014923 0.042454 -0.003000
v -0.013223 0.043013 -0.003000
v -0.011503 0.043505 -0.003000
v -0.009764 0.043928 -0.003000
v -0.008010 0.044281 -0.003000
v -0.006243 0.044565 -0.003000
v -0.004466 0.044778 -0.003000
v -0.002683 0.04492 -0.003000
v -0.000895 0.044991 -0.003000
v 0.000895 0.044991 -0.003000
v 0.002683 0.04492 -0.003000
v 0.004466 0.044778 -0.003000
v 0.006243 0.044565 -0.003000
v 0.008010 0.044281 -0.003000
v 0.009764 0.043928 -0.003000
v 0.011503 0.043505 -0.003000
v 0.013223 0.043013 -0.003000
v 0.014923 0.042454 -0.003000
v 0.016599 0.041827 -0.003000
v 0.018249 0.041134 -0.003000
v 0.019870 0.040376 -0.003000
v 0.021459 0.039554 -0.003000
v 0.023015 0.038669 -0.003000
v 0.024534 0.037724 -0.003000
v 0.026014 0.036719 -0.003000
v 0.027453 0.035655 -0.003000
v 0.028849 0.034536 -0.003000
v 0.030199 0.033362 -0.003000
v 0.031502 0.032135 -0.003000
v 0.032755 0.030857 -0.003000
v 0.033955 0.02953 -0.003000
v 0.035103 0.028157 -0.003000
v 0.036194 0.026739 -0.003000
v 0.037229 0.025279 -0.003000
v 0.038204 0.023779 -0.003000
v 0.039119 0.022241 -0.003000
v 0.039973 0.020668 -0.003000
v 0.040763 0.019063 -0.003000
v 0.041488 0.017427 -0.003000
v 0.042149 0.015764 -0.003000
v 0.042742 0.014076 -0.003000
v 0.043268 0.012365 -0.003000
v 0.043725 0.010635 -0.003000
v 0.044113 0.008889 -0.003000
v 0.044432 0.007128 -0.003000
v 0.044680 0.005356 -0.003000
v 0.044858 0.003575 -0.003000
v 0.044964 0.001789 -0.003000
v 0.014000 0 -0.003000
v 0.014000 0 0.003000
v 0.013989 -0.000557 0.003000
v 0.013956 -0.001112 0.003000
v 0.013900 -0.001666 0.003000
v 0.013823 -0.002218 0.003000
v 0.013724 -0.002765 0.003000
v 0.013603 -0.003309 0.003000
v 0.013461 -0.003847 0.003000
v 0.013297 -0.004379 0.003000
v 0.013113 -0.004904 0.003000
v 0.012908 -0.005422 0.003000
v 0.012682 -0.005931 0.003000
v 0.012436 -0.00643 0.003000
v 0.012170 -0.006919 0.003000
v 0.011886 -0.007398 0.003000
v 0.011582 -0.007865 0.003000
v 0.011260 -0.008319 0.003000
v 0.010921 -0.00876 0.003000
v 0.010564 -0.009187 0.003000
v 0.010190 -0.0096 0.003000
v 0.009801 -0.009997 0.003000
v 0.009395 -0.010379 0.003000
v 0.008975 -0.010744 0.003000
v 0.008541 -0.011093 0.003000
v 0.008093 -0.011424 0.003000
v 0.007633 -0.011736 0.003000
v 0.007160 -0.012031 0.003000
v 0.006676 -0.012306 0.003000
v 0.006182 -0.012561 0.003000
v 0.005677 -0.012797 0.003000
v 0.005164 -0.013013 0.003000
v 0.004643 -0.013208 0.003000
v 0.004114 -0.013382 0.003000
v 0.003579 -0.013535 0.003000
v 0.003038 -0.013666 0.003000
v 0.002492 -0.013776 0.003000
v 0.001942 -0.013865 0.003000
v 0.001390 -0.013931 0.003000
v 0.000835 -0.013975 0.003000
v 0.000278 -0.013997 0.003000
v -0.000278 -0.013997 0.003000
v -0.000835 -0.013975 0.003000
v -0.001390 -0.013931 0.003000
v -0.001942 -0.013865 0.003000
v -0.002492 -0.013776 0.003000
v -0.003038 -0.013666 0.003000
v -0.003579 -0.013535 0.003000
v -0.004114 -0.013382 0.003000
v -0.004643 -0.013208 0.003000
v -0.005164 -0.013013 0.003000
v -0.005677 -0.012797 0.003000
v -0.006182 -0.012561 0.003000
v -0.006676 -0.012306 0.003000
v -0.007160 -0.012031 0.003000
v -0.007633 -0.011736 0.003000
v -0.008093 -0.011424 0.003000
v -0.008541 -0.011093 0.003000
v -0.008975 -0.010744 0.003000
v -0.009395 -0.010379 0.003000
v -0.009801 -0.009997 0.003000
v -0.010190 -0.0096 0.003000
v -0.010564 -0.009187 0.003000
v -0.010921 -0.00876 0.003000
v -0.011260 -0.008319 0.003000
v -0.011582 -0.007865 0.003000
v -0.011886 -0.007398 0.003000
v -0.012170 -0.006919 0.003000
v -0.012436 -0.00643 0.003000
v -0.012682 -0.005931 0.003000
v -0.012908 -0.005422 0.003000
v -0.013113 -0.004904 0.003000
v -0.013297 -0.004379 0.003000
v -0.013461 -0.003847 0.003000
v -0.013603 -0.003309 0.003000
v -0.013724 -0.002765 0.003000
v -0.013823 -0.002218 0.003000
v -0.013900 -0.001666 0.003000
v -0.013956 -0.001112 0.003000
v -0.013989 -0.000557 0.003000
v -0.014000 0 0.003000
v -0.013989 0.000557 0.003000
v -0.013956 0.001112 0.003000
v -0.013900 0.001666 0.003000
v -0.013823 0.002218 0.003000
v -0.013724 0.002765 0.003000
v -0.013603 0.003309 0.003000
v -0.013461 0.003847 0.003000
v -0.013297 0.004379 0.003000
v -0.013113 0.004904 0.003000
v -0.012908 0.005422 0.003000
v -0.012682 0.005931 0.003000
v -0.012436 0.00643 0.003000
v -0.012170 0.006919 0.003000
v -0.011886 0.007398 0.003000
v -0.011582 0.007865 0.003000
v -0.011260 0.008319 0.003000
v -0.010921 0.00876 0.003000
v -0.010564 0.009187 0.003000
v -0.010190 0.0096 0.003000
v -0.009801 0.009997 0.003000
v -0.009395 0.010379 0.003000
v -0.008975 0.010744 0.003000
v -0.008541 0.011093 0.003000
v -0.008093 0.011424 0.003000
v -0.007633 0.011736 0.003000
v -0.007160 0.012031 0.003000
v -0.006676 0.012306 0.003000
v -0.006182 0.012561 0.003000
v -0.005677 0.012797 0.003000
v -0.005164 0.013013 0.003000
v -0.004643 0.013208 0.003000
v -0.004114 0.013382 0.003000
v -0.003579 0.013535 0.003000
v -0.003038 0.013666 0.003000
v -0.002492 0.013776 0.003000
v -0.001942 0.013865 0.003000
v -0.001390 0.013931 0.003000
v -0.000835 0.013975 0.003000
v -0.000278 0.013997 0.003000
v 0.000278 0.013997 0.003000
v 0.000835 0.013975 0.003000
v 0.001390 0.013931 0.003000
v 0.001942 0.013865 0.003000
v 0.002492 0.013776 0.003000
v 0.003038 0.013666 0.003000
v 0.003579 0.013535 0.003000
v 0.004114 0.013382 0.003000
v 0.004643 0.013208 0.003000
v 0.005164 0.013013 0.003000
v 0.005677 0.012797 0.003000
v 0.006182 0.012561 0.003000
v 0.006676 0.012306 0.003000
v 0.007160 0.012031 0.003000
v 0.007633 0.011736 0.003000
v 0.008093 0.011424 0.003000
v 0.008541 0.011093 0.003000
v 0.008975 0.010744 0.003000
v 0.009395 0.010379 0.003000
v 0.009801 0.009997 0.003000
v 0.010190 0.0096 0.003000
v 0.010564 0.009187 0.003000
v 0.010921 0.00876 0.003000
v 0.011260 0.008319 0.003000
v 0.011582 0.007865 0.003000
v 0.011886 0.007398 0.003000
v 0.012170 0.006919 0.003000
v 0.012436 0.00643 0.003000
v 0.012682 0.005931 0.003000
v 0.012908 0.005422 0.003000
v 0.013113 0.004904 0.003000
v 0.013297 0.004379 0.003000
v 0.013461 0.003847 0.003000
v 0.013603 0.003309 0.003000
v 0.013724 0.002765 0.003000
v 0.013823 0.002218 0.003000
v 0.013900 0.001666 0.003000
v 0.013956 0.001112 0.003000
v 0.013989 0.000557 0.003000
v 0.014000 0 0.003000
v 0.014000 0 -0.003000
v 0.013989 -0.000557 -0.003000
v 0.013956 -0.001112 -0.003000
v 0.013900 -0.001666 -0.003000
v 0.013823 -0.002218 -0.003000
v 0.013724 -0.002765 -0.003000
v 0.013603 -0.003309 -0.003000
v 0.013461 -0.003847 -0.003000
v 0.013297 -0.004379 -0.003000
v 0.013113 -0.004904 -0.003000
v 0.012908 -0.005422 -0.003000
v 0.012682 -0.005931 -0.003000
v 0.012436 -0.00643 -0.003000
v 0.012170 -0.006919 -0.003000
v 0.011886 -0.007398 -0.003000
v 0.011582 -0.007865 -0.003000
v 0.011260 -0.008319 -0.003000
v 0.010921 -0.00876 -0.003000
v 0.010564 -0.009187 -0.003000
v 0.010190 -0.0096 -0.003000
v 0.009801 -0.009997 -0.003000
v 0.009395 -0.010379 -0.003000
v 0.008975 -0.010744 -0.003000
v 0.008541 -0.011093 -0.003000
v 0.008093 -0.011424 -0.003000
v 0.007633 -0.011736 -0.003000
v 0.007160 -0.012031 -0.003000
v 0.006676 -0.012306 -0.003000
v 0.006182 -0.012561 -0.003000
v 0.005677 -0.012797 -0.003000
v 0.005164 -0.013013 -0.003000
v 0.004643 -0.013208 -0.003000
v 0.004114 -0.013382 -0.003000
v 0.003579 -0.013535 -0.003000
v 0.003038 -0.013666 -0.003000
v 0.002492 -0.013776 -0.003000
v 0.001942 -0.013865 -0.003000
v 0.001390 -0.013931 -0.003000
v 0.000835 -0.013975 -0.003000
v 0.000278 -0.013997 -0.003000
v -0.000278 -0.013997 -0.003000
v -0.000835 -0.013975 -0.003000
v -0.001390 -0.013931 -0.003000
v -0.001942 -0.013865 -0.003000
v -0.002492 -0.013776 -0.003000
v -0.003038 -0.013666 -0.003000
v -0.003579 -0.013535 -0.003000
v -0.004114 -0.013382 -0.003000
v -0.004643 -0.013208 -0.003000
v -0.005164 -0.013013 -0.003000
v -0.005677 -0.012797 -0.003000
v -0.006182 -0.012561 -0.003000
v -0.006676 -0.012306 -0.003000
v -0.007160 -0.012031 -0.003000
v -0.007633 -0.011736 -0.003000
v -0.008093 -0.011424 -0.003000
v -0.008541 -0.011093 -0.003000
v -0.008975 -0.010744 -0.003000
v -0.009395 -0.010379 -0.003000
v -0.009801 -0.009997 -0.003000
v -0.010190 -0.0096 -0.003000
v -0.010564 -0.009187 -0.003000
v -0.010921 -0.00876 -0.003000
v -0.011260 -0.008319 -0.003000
v -0.011582 -0.007865 -0.003000
v -0.011886 -0.007398 -0.003000
v -0.012170 -0.006919 -0.003000
v -0.012436 -0.00643 -0.003000
v -0.012682 -0.005931 -0.003000
v -0.012908 -0.005422 -0.003000
v -0.013113 -0.004904 -0.003000
v -0.013297 -0.004379 -0.003000
v -0.013461 -0.003847 -0.003000
v -0.013603 -0.003309 -0.003000
v -0.013724 -0.002765 -0.003000
v -0.013823 -0.002218 -0.003000
v -0.013900 -0.001666 -0.003000
v -0.013956 -0.001112 -0.003000
v -0.013989 -0.000557 -0.003000
v -0.014000 0 -0.003000
v -0.013989 0.000557 -0.003000
v -0.013956 0.001112 -0.003000
v -0.013900 0.001666 -0.003000
v -0.013823 0.002218 -0.003000
v -0.013724 0.002765 -0.003000
v -0.013603 0.003309 -0.003000
v -0.013461 0.003847 -0.003000
v -0.013297 0.004379 -0.003000
v -0.013113 0.004904 -0.003000
v -0.012908 0.005422 -0.003000
v -0.012682 0.005931 -0.003000
v -0.012436 0.00643 -0.003000
v -0.012170 0.006919 -0.003000
v -0.011886 0.007398 -0.003000
v -0.011582 0.007865 -0.003000
v -0.011260 0.008319 -0.003000
v -0.010921 0.00876 -0.003000
v -0.010564 0.009187 -0.003000
v -0.010190 0.0096 -0.003000
v -0.009801 0.009997 -0.003000
v -0.009395 0.010379 -0.003000
v -0.008975 0.010744 -0.003000
v -0.008541 0.011093 -0.003000
v -0.008093 0.011424 -0.003000
v -0.007633 0.011736 -0.003000
v -0.007160 0.012031 -0.003000
v -0.006676 0.012306 -0.003000
v -0.006182 0.012561 -0.003000
v -0.005677 0.012797 -0.003000
v -0.005164 0.013013 -0.003000
v -0.004643 0.013208 -0.003000
v -0.004114 0.013382 -0.003000
v -0.003579 0.013535 -0.003000
v -0.003038 0.013666 -0.003000
v -0.002492 0.013776 -0.003000
v -0.001942 0.013865 -0.003000
v -0.001390 0.013931 -0.003000
v -0.000835 0.013975 -0.003000
v -0.000278 0.013997 -0.003000
v 0.000278 0.013997 -0.003000
v 0.000835 0.013975 -0.003000
v 0.001390 0.013931 -0.003000
v 0.001942 0.013865 -0.003000
v 0.002492 0.013776 -0.003000
v 0.003038 0.013666 -0.003000
v 0.003579 0.013535 -0.003000
v 0.004114 0.013382 -0.003000
v 0.004643 0.013208 -0.003000
v 0.005164 0.013013 -0.003000
v 0.005677 0.012797 -0.003000
v 0.006182 0.012561 -0.003000
v 0.006676 0.012306 -0.003000
v 0.007160 0.012031 -0.003000
v 0.007633 0.011736 -0.003000
v 0.008093 0.011424 -0.003000
v 0.008541 0.011093 -0.003000
v 0.008975 0.010744 -0.003000
v 0.009395 0.010379 -0.003000
v 0.009801 0.009997 -0.003000
v 0.010190 0.0096 -0.003000
v 0.010564 0.009187 -0.003000
v 0.010921 0.00876 -0.003000
v 0.011260 0.008319 -0.003000
v 0.011582 0.007865 -0.003000
v 0.011886 0.007398 -0.003000
v 0.012170 0.006919 -0.003000
v 0.012436 0.00643 -0.003000
v 0.012682 0.005931 -0.003000
v 0.012908 0.005422 -0.003000
v 0.013113 0.004904 -0.003000
v 0.013297 0.004379 -0.003000
v 0.013461 0.003847 -0.003000
v 0.013603 0.003309 -0.003000
v 0.013724 0.002765 -0.003000
v 0.013823 0.002218 -0.003000
v 0.013900 0.001666 -0.003000
v 0.013956 0.001112 -0.003000
v 0.013989 0.000557 -0.003000
v 0.045000 0 -0.003000
v 0.044964 -0.001789 -0.003000
v 0.044858 -0.003575 -0.003000
v 0.044680 -0.005356 -0.003000
v 0.044432 -0.007128 -0.003000
v 0.044113 -0.008889 -0.003000
v 0.043725 -0.010635 -0.003000
v 0.043268 -0.012365 -0.003000
v 0.042742 -0.014076 -0.003000
v 0.042149 -0.015764 -0.003000
v 0.041488 -0.017427 -0.003000
v 0.040763 -0.019063 -0.003000
v 0.039973 -0.020668 -0.003000
v 0.039119 -0.022241 -0.003000
v 0.038204 -0.023779 -0.003000
v 0.037229 -0.025279 -0.003000
v 0.036194 -0.026739 -0.003000
v 0.035103 -0.028157 -0.003000
v 0.033955 -0.02953 -0.003000
v 0.032755 -0.030857 -0.003000
v 0.031502 -0.032135 -0.003000
v 0.030199 -0.033362 -0.003000
v 0.028849 -0.034536 -0.003000
v 0.027453 -0.035655 -0.003000
v 0.026014 -0.036719 -0.003000
v 0.024534 -0.037724 -0.003000
v 0.023015 -0.038669 -0.003000
v 0.021459 -0.039554 -0.003000
v 0.019870 -0.040376 -0.003000
v 0.018249 -0.041134 -0.003000
v 0.016599 -0.041827 -0.003000
v 0.014923 -0.042454 -0.003000
v 0.013223 -0.043013 -0.003000
v 0.011503 -0.043505 -0.003000
v 0.009764 -0.043928 -0.003000
v 0.008010 -0.044281 -0.003000
v 0.006243 -0.044565 -0.003000
v 0.004466 -0.044778 -0.003000
v 0.002683 -0.04492 -0.003000
v 0.000895 -0.044991 -0.003000
v -0.000895 -0.044991 -0.003000
v -0.002683 -0.04492 -0.003000
v -0.004466 -0.044778 -0.003000
v -0.006243 -0.044565 -0.003000
v -0.008010 -0.044281 -0.003000
v -0.009764 -0.043928 -0.003000
v -0.011503 -0.043505 -0.003000
v -0.013223 -0.043013 -0.003000
v -0.014923 -0.042454 -0.003000
v -0.016599 -0.041827 -0.003000
v -0.018249 -0.041134 -0.003000
v -0.019870 -0.040376 -0.003000
v -0.021459 -0.039554 -0.003000
v -0.023015 -0.038669 -0.003000
v -0.024534 -0.037724 -0.003000
v -0.026014 -0.036719 -0.003000
v -0.027453 -0.035655 -0.003000
v -0.028849 -0.034536 -0.003000
v -0.030199 -0.033362 -0.003000
v -0.031502 -0.032135 -0.003000
v -0.032755 -0.030857 -0.003000
v -0.033955 -0.02953 -0.003000
v -0.035103 -0.028157 -0.003000
v -0.036194 -0.026739 -0.003000
v -0.037229 -0.025279 -0.003000
v -0.038204 -0.023779 -0.003000
v -0.039119 -0.022241 -0.003000
v -0.039973 -0.020668 -0.003000
v -0.040763 -0.019063 -0.003000
v -0.041488 -0.017427 -0.003000
v -0.042149 -0.015764 -0.003000
v -0.042742 -0.014076 -0.003000
v -0.043268 -0.012365 -0.003000
v -0.043725 -0.010635 -0.003000
v -0.044113 -0.008889 -0.003000
v -0.044432 -0.007128 -0.003000
v -0.044680 -0.005356 -0.003000
v -0.044858 -0.003575 -0.003000
v -0.044964 -0.001789 -0.003000
v -0.045000 0 -0.003000
v -0.044964 0.001789 -0.003000
v -0.044858 0.003575 -0.003000
v -0.044680 0.005356 -0.003000
v -0.044432 0.007128 -0.003000
v -0.044113 0.008889 -0.003000
v -0.043725 0.010635 -0.003000
v -0.043268 0.012365 -0.003000
v -0.042742 0.014076 -0.003000
v -0.042149 0.015764 -0.003000
v -0.041488 0.017427 -0.003000
v -0.040763 0.019063 -0.003000
v -0.039973 0.020668 -0.003000
v -0.039119 0.022241 -0.003000
v -0.038204 0.023779 -0.003000
v -0.037229 0.025279 -0.003000
v -0.036194 0.026739 -0.003000
v -0.035103 0.028157 -0.003000
v -0.033955 0.02953 -0.003000
v -0.032755 0.030857 -0.003000
v -0.031502 0.032135 -0.003000
v -0.030199 0.033362 -0.003000
v -0.028849 0.034536 -0.003000
v -0.027453 0.035655 -0.003000
v -0.026014 0.036719 -0.003000
v -0.024534 0.037724 -0.003000
v -0.023015 0.038669 -0.003000
v -0.021459 0.039554 -0.003000
v -0.019870 0.040376 -0.003000
v -0.018249 0.041134 -0.003000
v -0.016599 0.041827 -0.003000
v -0.014923 0.042454 -0.003000
v -0.013223 0.043013 -0.003000
v -0.011503 0.043505 -0.003000
v -0.009764 0.043928 -0.003000
v -0.008010 0.044281 -0.003000
v -0.006243 0.044565 -0.003000
v -0.004466 0.044778 -0.003000
v -0.002683 0.04492 -0.003000
v -0.000895 0.044991 -0.003000
v 0.000895 0.044991 -0.003000
v 0.002683 0.04492 -0.003000
v 0.004466 0.044778 -0.003000
v 0.006243 0.044565 -0.003000
v 0.008010 0.044281 -0.003000
v 0.009764 0.043928 -0.003000
v 0.011503 0.043505 -0.003000
v 0.013223 0.043013 -0.003000
v 0.014923 0.042454 -0.003000
v 0.016599 0.041827 -0.003000
v 0.018249 0.041134 -0.003000
v 0.019870 0.040376 -0.003000
v 0.021459 0.039554 -0.003000
v 0.023015 0.038669 -0.003000
v 0.024534 0.037724 -0.003000
v 0.026014 0.036719 -0.003000
v 0.027453 0.035655 -0.003000
v 0.028849 0.034536 -0.003000
v 0.030199 0.033362 -0.003000
v 0.031502 0.032135 -0.003000
v 0.032755 0.030857 -0.003000
v 0.033955 0.02953 -0.003000
v 0.035103 0.028157 -0.003000
v 0.036194 0.026739 -0.003000
v 0.037229 0.025279 -0.003000
v 0.038204 0.023779 -0.003000
v 0.039119 0.022241 -0.003000
v 0.039973 0.020668 -0.003000
v 0.040763 0.019063 -0.003000
v 0.041488 0.017427 -0.003000
v 0.042149 0.015764 -0.003000
v 0.042742 0.014076 -0.003000
v 0.043268 0.012365 -0.003000
v 0.043725 0.010635 -0.003000
v 0.044113 0.008889 -0.003000
v 0.044432 0.007128 -0.003000
v 0.044680 0.005356 -0.003000
v 0.044858 0.003575 -0.003000
v 0.044964 0.001789 -0.003000
v 0.014000 0 -0.003000
v 0.013989 -0.000557 -0.003000
v 0.013956 -0.001112 -0.003000
v 0.013900 -0.001666 -0.003000
v 0.013823 -0.002218 -0.003000
v 0.013724 -0.002765 -0.003000
v 0.013603 -0.003309 -0.003000
v 0.013461 -0.003847 -0.003000
v 0.013297 -0.004379 -0.003000
v 0.013113 -0.004904 -0.003000
v 0.012908 -0.005422 -0.003000
v 0.012682 -0.005931 -0.003000
v 0.012436 -0.00643 -0.003000
v 0.012170 -0.006919 -0.003000
v 0.011886 -0.007398 -0.003000
v 0.011582 -0.007865 -0.003000
v 0.011260 -0.008319 -0.003000
v 0.010921 -0.00876 -0.003000
v 0.010564 -0.009187 -0.003000
v 0.010190 -0.0096 -0.003000
v 0.009801 -0.009997 -0.003000
v 0.009395 -0.010379 -0.003000
v 0.008975 -0.010744 -0.003000
v 0.008541 -0.011093 -0.003000
v 0.008093 -0.011424 -0.003000
v 0.007633 -0.011736 -0.003000
v 0.007160 -0.012031 -0.003000
v 0.006676 -0.012306 -0.003000
v 0.006182 -0.012561 -0.003000
v 0.005677 -0.012797 -0.003000
v 0.005164 -0.013013 -0.003000
v 0.004643 -0.013208 -0.003000
v 0.004114 -0.013382 -0.003000
v 0.003579 -0.013535 -0.003000
v 0.003038 -0.013666 -0.003000
v 0.002492 -0.013776 -0.003000
v 0.001942 -0.013865 -0.003000
v 0.001390 -0.013931 -0.003000
v 0.000835 -0.013975 -0.003000
v 0.000278 -0.013997 -0.003000
v -0.000278 -0.013997 -0.003000
v -0.000835 -0.013975 -0.003000
v -0.001390 -0.013931 -0.003000
v -0.001942 -0.013865 -0.003000
v -0.002492 -0.013776 -0.003000
v -0.003038 -0.013666 -0.003000
v -0.003579 -0.013535 -0.003000
v -0.004114 -0.013382 -0.003000
v -0.004643 -0.013208 -0.003000
v -0.005164 -0.013013 -0.003000
v -0.005677 -0.012797 -0.003000
v -0.006182 -0.012561 -0.003000
v -0.006676 -0.012306 -0.003000
v -0.007160 -0.012031 -0.003000
v -0.007633 -0.011736 -0.003000
v -0.008093 -0.011424 -0.003000
v -0.008541 -0.011093 -0.003000
v -0.008975 -0.010744 -0.003000
v -0.009395 -0.010379 -0.003000
v -0.009801 -0.009997 -0.003000
v -0.010190 -0.0096 -0.003000
v -0.010564 -0.009187 -0.003000
v -0.010921 -0.00876 -0.003000
v -0.011260 -0.008319 -0.003000
v -0.011582 -0.007865 -0.003000
v -0.011886 -0.007398 -0.003000
v -0.012170 -0.006919 -0.003000
v -0.012436 -0.00643 -0.003000
v -0.012682 -0.005931 -0.003000
v -0.012908 -0.005422 -0.003000
v -0.013113 -0.004904 -0.003000
v -0.013297 -0.004379 -0.003000
v -0.013461 -0.003847 -0.003000
v -0.013603 -0.003309 -0.003000
v -0.013724 -0.002765 -0.003000
v -0.013823 -0.002218 -0.003000
v -0.013900 -0.001666 -0.003000
v -0.013956 -0.001112 -0.003000
v -0.013989 -0.000557 -0.003000
v -0.014000 0 -0.003000
v -0.013989 0.000557 -0.003000
v -0.013956 0.001112 -0.003000
v -0.013900 0.001666 -0.003000
v -0.013823 0.002218 -0.003000
v -0.013724 0.002765 -0.003000
v -0.013603 0.003309 -0.003000
v -0.013461 0.003847 -0.003000
v -0.013297 0.004379 -0.003000
v -0.013113 0.004904 -0.003000
v -0.012908 0.005422 -0.003000
v -0.012682 0.005931 -0.003000
v -0.012436 0.00643 -0.003000
v -0.012170 0.006919 -0.003000
v -0.011886 0.007398 -0.003000
v -0.011582 0.007865 -0.003000
v -0.011260 0.008319 -0.003000
v -0.010921 0.00876 -0.003000
v -0.010564 0.009187 -0.003000
v -0.010190 0.0096 -0.003000
v -0.009801 0.009997 -0.003000
v -0.009395 0.010379 -0.003000
v -0.008975 0.010744 -0.003000
v -0.008541 0.011093 -0.003000
v -0.008093 0.011424 -0.003000
v -0.007633 0.011736 -0.003000
v -0.007160 0.012031 -0.003000
v -0.006676 0.012306 -0.003000
v -0.006182 0.012561 -0.003000
v -0.005677 0.012797 -0.003000
v -0.005164 0.013013 -0.003000
v -0.004643 0.013208 -0.003000
v -0.004114 0.013382 -0.003000
v -0.003579 0.013535 -0.003000
v -0.003038 0.013666 -0.003000
v -0.002492 0.013776 -0.003000
v -0.001942 0.013865 -0.003000
v -0.001390 0.013931 -0.003000
v -0.000835 0.013975 -0.003000
v -0.000278 0.013997 -0.003000
v 0.000278 0.013997 -0.003000
v 0.000835 0.013975 -0.003000
v 0.001390 0.013931 -0.003000
v 0.001942 0.013865 -0.003000
v 0.002492 0.013776 -0.003000
v 0.003038 0.013666 -0.003000
v 0.003579 0.013535 -0.003000
v 0.004114 0.013382 -0.003000
v 0.004643 0.013208 -0.003000
v 0.005164 0.013013 -0.003000
v 0.005677 0.012797 -0.003000
v 0.006182 0.012561 -0.003000
v 0.006676 0.012306 -0.003000
v 0.007160 0.012031 -0.003000
v 0.007633 0.011736 -0.003000
v 0.008093 0.011424 -0.003000
v 0.008541 0.011093 -0.003000
v 0.008975 0.010744 -0.003000
v 0.009395 0.010379 -0.003000
v 0.009801 0.009997 -0.003000
v 0.010190 0.0096 -0.003000
v 0.010564 0.009187 -0.003000
v 0.010921 0.00876 -0.003000
v 0.011260 0.008319 -0.003000
v 0.011582 0.007865 -0.003000
v 0.011886 0.007398 -0.003000
v 0.012170 0.006919 -0.003000
v 0.012436 0.00643 -0.003000
v 0.012682 0.005931 -0.003000
v 0.012908 0.005422 -0.003000
v 0.013113 0.004904 -0.003000
v 0.013297 0.004379 -0.003000
v 0.013461 0.003847 -0.003000
v 0.013603 0.003309 -0.003000
v 0.013724 0.002765 -0.003000
v 0.013823 0.002218 -0.003000
v 0.013900 0.001666 -0.003000
v 0.013956 0.001112 -0.003000
v 0.013989 0.000557 -0.003000
v 0.045000 0 0.003000
v 0.044964 -0.001789 0.003000
v 0.044858 -0.003575 0.003000
v 0.044680 -0.005356 0.003000
v 0.044432 -0.007128 0.003000
v 0.044113 -0.008889 0.003000
v 0.043725 -0.010635 0.003000
v 0.043268 -0.012365 0.003000
v 0.042742 -0.014076 0.003000
v 0.042149 -0.015764 0.003000
v 0.041488 -0.017427 0.003000
v 0.040763 -0.019063 0.003000
v 0.039973 -0.020668 0.003000
v 0.039119 -0.022241 0.003000
v 0.038204 -0.023779 0.003000
v 0.037229 -0.025279 0.003000
v 0.036194 -0.026739 0.003000
v 0.035103 -0.028157 0.003000
v 0.033955 -0.02953 0.003000
v 0.032755 -0.030857 0.003000
v 0.031502 -0.032135 0.003000
v 0.030199 -0.033362 0.003000
v 0.028849 -0.034536 0.003000
v 0.027453 -0.035655 0.003000
v 0.026014 -0.036719 0.003000
v 0.024534 -0.037724 0.003000
v 0.023015 -0.038669 0.003000
v 0.021459 -0.039554 0.003000
v 0.019870 -0.040376 0.003000
v 0.018249 -0.041134 0.003000
v 0.016599 -0.041827 0.003000
v 0.014923 -0.042454 0.003000
v 0.013223 -0.043013 0.003000
v 0.011503 -0.043505 0.003000
v 0.009764 -0.043928 0.003000
v 0.008010 -0.044281 0.003000
v 0.006243 -0.044565 0.003000
v 0.004466 -0.044778 0.003000
v 0.002683 -0.04492 0.003000
v 0.000895 -0.044991 0.003000
v -0.000895 -0.044991 0.003000
v -0.002683 -0.04492 0.003000
v -0.004466 -0.044778 0.003000
v -0.006243 -0.044565 0.003000
v -0.008010 -0.044281 0.003000
v -0.009764 -0.043928 0.003000
v -0.011503 -0.043505 0.003000
v -0.013223 -0.043013 0.003000
v -0.014923 -0.042454 0.003000
v -0.016599 -0.041827 0.003000
v -0.018249 -0.041134 0.003000
v -0.019870 -0.040376 0.003000
v -0.021459 -0.039554 0.003000
v -0.023015 -0.038669 0.003000
v -0.024534 -0.037724 0.003000
v -0.026014 -0.036719 0.003000
v -0.027453 -0.035655 0.003000
v -0.028849 -0.034536 0.003000
v -0.030199 -0.033362 0.003000
v -0.031502 -0.032135 0.003000
v -0.032755 -0.030857 0.003000
v -0.033955 -0.02953 0.003000
v -0.035103 -0.028157 0.003000
v -0.036194 -0.026739 0.003000
v -0.037229 -0.025279 0.003000
v -0.038204 -0.023779 0.003000
v -0.039119 -0.022241 0.003000
v -0.039973 -0.020668 0.003000
v -0.040763 -0.019063 0.003000
v -0.041488 -0.017427 0.003000
v -0.042149 -0.015764 0.003000
v -0.042742 -0.014076 0.003000
v -0.043268 -0.012365 0.003000
v -0.043725 -0.010635 0.003000
v -0.044113 -0.008889 0.003000
v -0.044432 -0.007128 0.003000
v -0.044680 -0.005356 0.003000
v -0.044858 -0.003575 0.003000
v -0.044964 -0.001789 0.003000
v -0.045000 0 0.003000
v -0.044964 0.001789 0.003000
v -0.044858 0.003575 0.003000
v -0.044680 0.005356 0.003000
v -0.044432 0.007128 0.003000
v -0.044113 0.008889 0.003000
v -0.043725 0.010635 0.003000
v -0.043268 0.012365 0.003000
v -0.042742 0.014076 0.003000
v -0.042149 0.015764 0.003000
v -0.041488 0.017427 0.003000
v -0.040763 0.019063 0.003000
v -0.039973 0.020668 0.003000
v -0.039119 0.022241 0.003000
v -0.038204 0.023779 0.003000
v -0.037229 0.025279 0.003000
v -0.036194 0.026739 0.003000
v -0.035103 0.028157 0.003000
v -0.033955 0.02953 0.003000
v -0.032755 0.030857 0.003000
v -0.031502 0.032135 0.003000
v -0.030199 0.033362 0.003000
v -0.028849 0.034536 0.003000
v -0.027453 0.035655 0.003000
v -0.026014 0.036719 0.003000
v -0.024534 0.037724 0.003000
v -0.023015 0.038669 0.003000
v -0.021459 0.039554 0.003000
v -0.019870 0.040376 0.003000
v -0.018249 0.041134 0.003000
v -0.016599 0.041827 0.003000
v -0.014923 0.042454 0.003000
v -0.013223 0.043013 0.003000
v -0.011503 0.043505 0.003000
v -0.009764 0.043928 0.003000
v -0.008010 0.044281 0.003000
v -0.006243 0.044565 0.003000
v -0.004466 0.044778 0.003000
v -0.002683 0.04492 0.003000
v -0.000895 0.044991 0.003000
v 0.000895 0.044991 0.003000
v 0.002683 0.04492 0.003000
v 0.004466 0.044778 0.003000
v 0.006243 0.044565 0.003000
v 0.008010 0.044281 0.003000
v 0.009764 0.043928 0.003000
v 0.011503 0.043505 0.003000
v 0.013223 0.043013 0.003000
v 0.014923 0.042454 0.003000
v 0.016599 0.041827 0.003000
v 0.018249 0.041134 0.003000
v 0.019870 0.040376 0.003000
v 0.021459 0.039554 0.003000
v 0.023015 0.038669 0.003000
v 0.024534 0.037724 0.003000
v 0.026014 0.036719 0.003000
v 0.027453 0.035655 0.003000
v 0.028849 0.034536 0.003000
v 0.030199 0.033362 0.003000
v 0.031502 0.032135 0.003000
v 0.032755 0.030857 0.003000
v 0.033955 0.02953 0.003000
v 0.035103 0.028157 0.003000
v 0.036194 0.026739 0.003000
v 0.037229 0.025279 0.003000
v 0.038204 0.023779 0.003000
v 0.039119 0.022241 0.003000
v 0.039973 0.020668 0.003000
v 0.040763 0.019063 0.003000
v 0.041488 0.017427 0.003000
v 0.042149 0.015764 0.003000
v 0.042742 0.014076 0.003000
v 0.043268 0.012365 0.003000
v 0.043725 0.010635 0.003000
v 0.044113 0.008889 0.003000
v 0.044432 0.007128 0.003000
v 0.044680 0.005356 0.003000
v 0.044858 0.003575 0.003000
v 0.044964 0.001789 0.003000
v 0.014000 0 0.003000
v 0.013989 -0.000557 0.003000
v 0.013956 -0.001112 0.003000
v 0.013900 -0.001666 0.003000
v 0.013823 -0.002218 0.003000
v 0.013724 -0.002765 0.003000
v 0.013603 -0.003309 0.003000
v 0.013461 -0.003847 0.003000
v 0.013297 -0.004379 0.003000
v 0.013113 -0.004904 0.003000
v 0.012908 -0.005422 0.003000
v 0.012682 -0.005931 0.003000
v 0.012436 -0.00643 0.003000
v 0.012170 -0.006919 0.003000
v 0.011886 -0.007398 0.003000
v 0.011582 -0.007865 0.003000
v 0.011260 -0.008319 0.003000
v 0.010921 -0.00876 0.003000
v 0.010564 -0.009187 0.003000
v 0.010190 -0.0096 0.003000
v 0.009801 -0.009997 0.003000
v 0.009395 -0.010379 0.003000
v 0.008975 -0.010744 0.003000
v 0.008541 -0.011093 0.003000
v 0.008093 -0.011424 0.003000
v 0.007633 -0.011736 0.003000
v 0.007160 -0.012031 0.003000
v 0.006676 -0.012306 0.003000
v 0.006182 -0.012561 0.003000
v 0.005677 -0.012797 0.003000
v 0.005164 -0.013013 0.003000
v 0.004643 -0.013208 0.003000
v 0.004114 -0.013382 0.003000
v 0.003579 -0.013535 0.003000
v 0.003038 -0.013666 0.003000
v 0.002492 -0.013776 0.003000
v 0.001942 -0.013865 0.003000
v 0.001390 -0.013931 0.003000
v 0.000835 -0.013975 0.003000
v 0.000278 -0.013997 0.003000
v -0.000278 -0.013997 0.003000
v -0.000835 -0.013975 0.003000
v -0.001390 -0.013931 0.003000
v -0.001942 -0.013865 0.003000
v -0.002492 -0.013776 0.003000
v -0.003038 -0.013666 0.003000
v -0.003579 -0.013535 0.003000
v -0.004114 -0.013382 0.003000
v -0.004643 -0.013208 0.003000
v -0.005164 -0.013013 0.003000
v -0.005677 -0.012797 0.003000
v -0.006182 -0.012561 0.003000
v -0.006676 -0.012306 0.003000
v -0.007160 -0.012031 0.003000
v -0.007633 -0.011736 0.003000
v -0.008093 -0.011424 0.003000
v -0.008541 -0.011093 0.003000
v -0.008975 -0.010744 0.003000
v -0.009395 -0.010379 0.003000
v -0.009801 -0.009997 0.003000
v -0.010190 -0.0096 0.003000
v -0.010564 -0.009187 0.003000
v -0.010921 -0.00876 0.003000
v -0.011260 -0.008319 0.003000
v -0.011582 -0.007865 0.003000
v -0.011886 -0.007398 0.003000
v -0.012170 -0.006919 0.003000
v -0.012436 -0.00643 0.003000
v -0.012682 -0.005931 0.003000
v -0.012908 -0.005422 0.003000
v -0.013113 -0.004904 0.003000
v -0.013297 -0.004379 0.003000
v -0.013461 -0.003847 0.003000
v -0.013603 -0.003309 0.003000
v -0.013724 -0.002765 0.003000
v -0.013823 -0.002218 0.003000
v -0.013900 -0.001666 0.003000
v -0.013956 -0.001112 0.003000
v -0.013989 -0.000557 0.003000
v -0.014000 0 0.003000
v -0.013989 0.000557 0.003000
v -0.013956 0.001112 0.003000
v -0.013900 0.001666 0.003000
v -0.013823 0.002218 0.003000
v -0.013724 0.002765 0.003000
v -0.013603 0.003309 0.003000
v -0.013461 0.003847 0.003000
v -0.013297 0.004379 0.003000
v -0.013113 0.004904 0.003000
v -0.012908 0.005422 0.003000
v -0.012682 0.005931 0.003000
v -0.012436 0.00643 0.003000
v -0.012170 0.006919 0.003000
v -0.011886 0.007398 0.003000
v -0.011582 0.007865 0.003000
v -0.011260 0.008319 0.003000
v -0.010921 0.00876 0.003000
v -0.010564 0.009187 0.003000
v -0.010190 0.0096 0.003000
v -0.009801 0.009997 0.003000
v -0.009395 0.010379 0.003000
v -0.008975 0.010744 0.003000
v -0.008541 0.011093 0.003000
v -0.008093 0.011424 0.003000
v -0.007633 0.011736 0.003000
v -0.007160 0.012031 0.003000
v -0.006676 0.012306 0.003000
v -0.006182 0.012561 0.003000
v -0.005677 0.012797 0.003000
v -0.005164 0.013013 0.003000
v -0.004643 0.013208 0.003000
v -0.004114 0.013382 0.003000
v -0.003579 0.013535 0.003000
v -0.003038 0.013666 0.003000
v -0.002492 0.013776 0.003000
v -0.001942 0.013865 0.003000
v -0.001390 0.013931 0.003000
v -0.000835 0.013975 0.003000
v -0.000278 0.013997 0.003000
v 0.000278 0.013997 0.003000
v 0.000835 0.013975 0.003000
v 0.001390 0.013931 0.003000
v 0.001942 0.013865 0.003000
v 0.002492 0.013776 0.003000
v 0.003038 0.013666 0.003000
v 0.003579 0.013535 0.003000
v 0.004114 0.013382 0.003000
v 0.004643 0.013208 0.003000
v 0.005164 0.013013 0.003000
v 0.005677 0.012797 0.003000
v 0.006182 0.012561 0.003000
v 0.006676 0.012306 0.003000
v 0.007160 0.012031 0.003000
v 0.007633 0.011736 0.003000
v 0.008093 0.011424 0.003000
v 0.008541 0.011093 0.003000
v 0.008975 0.010744 0.003000
v 0.009395 0.010379 0.003000
v 0.009801 0.009997 0.003000
v 0.010190 0.0096 0.003000
v 0.010564 0.009187 0.003000
v 0.010921 0.00876 0.003000
v 0.011260 0.008319 0.003000
v 0.011582 0.007865 0.003000
v 0.011886 0.007398 0.003000
v 0.012170 0.006919 0.003000
v 0.012436 0.00643 0.003000
v 0.012682 0.005931 0.003000
v 0.012908 0.005422 0.003000
v 0.013113 0.004904 0.003000
v 0.013297 0.004379 0.003000
v 0.013461 0.003847 0.003000
v 0.013603 0.003309 0.003000
v 0.013724 0.002765 0.003000
v 0.013823 0.002218 0.003000
v 0.013900 0.001666 0.003000
v 0.013956 0.001112 0.003000
v 0.013989 0.000557 0.003000
f 1 2 162
f 2 3 162
f 3 4 163
f 162 3 163
f 4 5 164
f 163 4 164
f 5 6 165
f 164 5 165
f 6 7 166
f 165 6 166
f 7 8 167
f 166 7 167
f 8 9 168
f 167 8 168
f 9 10 169
f 168 9 169
f 10 11 170
f 169 10 170
f 11 12 171
f 170 11 171
f 12 13 172
f 171 12 172
f 13 14 173
f 172 13 173
f 14 15 174
f 173 14 174
f 15 16 175
f 174 15 175
f 16 17 176
f 175 16 176
f 17 18 177
f 176 17 177
f 18 19 178
f 177 18 178
f 19 20 179
f 178 19 179
f 20 21 180
f 179 20 180
f 21 22 181
f 180 21 181
f 181 22 182
f 22 23 182
f 182 23 183
f 23 24 183
f 183 24 184
f 24 25 184
f 184 25 185
f 25 26 185
f 185 26 186
f 26 27 186
f 186 27 187
f 27 28 187
f 28 29 188
f 187 28 188
f 29 30 189
f 188 29 189
f 30 31 190
f 189 30 190
f 31 32 191
f 190 31 191
f 32 33 192
f 191 32 192
f 33 34 193
f 192 33 193
f 34 35 194
f 193 34 194
f 35 36 195
f 194 35 195
f 36 37 196
f 195 36 196
f 37 38 197
f 196 37 197
f 38 39 198
f 197 38 198
f 39 40 199
f 198 39 199
f 40 41 200
f 199 40 200
f 41 42 201
f 200 41 201
f 42 43 202
f 201 42 202
f 43 44 203
f 202 43 203
f 44 45 204
f 203 44 204
f 45 46 205
f 204 45 205
f 46 47 206
f 205 46 206
f 206 47 207
f 47 48 207
f 207 48 208
f 48 49 208
f 208 49 209
f 49 50 209
f 209 50 210
f 50 51 210
f 210 51 211
f 51 52 211
f 211 52 212
f 52 53 212
f 212 53 213
f 53 54 213
f 213 54 214
f 54 55 214
f 214 55 215
f 55 56 215
f 215 56 216
f 56 57 216
f 216 57 217
f 57 58 217
f 217 58 218
f 58 59 218
f 218 59 219
f 59 60 219
f 219 60 220
f 60 61 220
f 220 61 221
f 61 62 221
f 62 63 222
f 221 62 222
f 63 64 223
f 222 63 223
f 64 65 224
f 223 64 224
f 65 66 225
f 224 65 225
f 66 67 226
f 225 66 226
f 67 68 227
f 226 67 227
f 68 69 228
f 227 68 228
f 69 70 229
f 228 69 229
f 70 71 230
f 229 70 230
f 71 72 231
f 230 71 231
f 231 72 232
f 72 73 232
f 232 73 233
f 73 74 233
f 233 74 234
f 74 75 234
f 234 75 235
f 75 76 235
f 76 77 235
f 235 77 236
f 236 77 237
f 77 78 237
f 78 79 237
f 237 79 238
f 238 79 239
f 79 80 239
f 80 81 239
f 239 81 240
f 240 81 241
f 81 82 241
f 241 82 242
f 82 83 242
f 242 83 243
f 83 84 243
f 243 84 244
f 84 85 244
f 244 85 245
f 85 86 245
f 245 86 246
f 86 87 246
f 246 87 247
f 87 88 247
f 247 88 248
f 88 89 248
f 248 89 249
f 89 90 249
f 249 90 250
f 90 91 250
f 91 92 250
f 250 92 251
f 251 92 252
f 92 93 252
f 252 93 253
f 93 94 253
f 253 94 254
f 94 95 254
f 254 95 255
f 95 96 255
f 96 97 256
f 255 96 256
f 256 97 257
f 97 98 257
f 257 98 258
f 98 99 258
f 258 99 259
f 99 100 259
f 100 101 259
f 259 101 260
f 101 102 261
f 260 101 261
f 102 103 262
f 261 102 262
f 103 104 263
f 104 105 263
f 262 103 263
f 263 105 264
f 105 106 265
f 264 105 265
f 106 107 266
f 265 106 266
f 107 108 267
f 266 107 267
f 108 109 268
f 267 108 268
f 109 110 269
f 268 109 269
f 110 111 270
f 269 110 270
f 111 112 271
f 270 111 271
f 112 113 272
f 271 112 272
f 113 114 273
f 272 113 273
f 114 115 274
f 273 114 274
f 115 116 275
f 274 115 275
f 116 117 276
f 275 116 276
f 117 118 277
f 276 117 277
f 118 119 278
f 277 118 278
f 119 120 279
f 278 119 279
f 120 121 280
f 279 120 280
f 121 122 281
f 280 121 281
f 122 123 282
f 281 122 282
f 282 123 283
f 123 124 283
f 283 124 284
f 124 125 284
f 284 125 285
f 125 126 285
f 285 126 286
f 126 127 286
f 286 127 287
f 127 128 287
f 287 128 288
f 128 129 288
f 129 130 289
f 288 129 289
f 130 131 290
f 289 130 290
f 131 132 291
f 290 131 291
f 132 133 292
f 291 132 292
f 133 134 293
f 292 133 293
f 134 135 294
f 293 134 294
f 135 136 295
f 294 135 295
f 136 137 296
f 295 136 296
f 137 138 297
f 296 137 297
f 138 139 298
f 297 138 298
f 139 140 299
f 298 139 299
f 140 141 300
f 299 140 300
f 141 142 301
f 300 141 301
f 142 143 302
f 301 142 302
f 143 144 303
f 302 143 303
f 144 145 304
f 303 144 304
f 145 146 305
f 304 145 305
f 146 147 306
f 305 146 306
f 147 148 307
f 148 149 307
f 306 147 307
f 307 149 308
f 149 150 308
f 308 150 309
f 309 150 310
f 150 151 310
f 310 151 311
f 151 152 311
f 152 153 311
f 311 153 312
f 312 153 313
f 153 154 313
f 154 155 313
f 313 155 314
f 314 155 315
f 155 156 315
f 156 157 315
f 315 157 316
f 316 157 317
f 157 158 317
f 317 158 318
f 158 159 318
f 159 160 318
f 318 160 161
f 320 319 480
f 321 320 480
f 322 321 481
f 321 480 481
f 323 322 482
f 322 481 482
f 324 323 483
f 323 482 483
f 325 324 484
f 324 483 484
f 326 325 485
f 325 484 485
f 327 326 486
f 326 485 486
f 328 327 487
f 327 486 487
f 329 328 488
f 328 487 488
f 330 329 489
f 329 488 489
f 331 330 490
f 330 489 490
f 332 331 491
f 331 490 491
f 333 332 492
f 332 491 492
f 334 333 493
f 333 492 493
f 335 334 494
f 334 493 494
f 336 335 495
f 335 494 495
f 337 336 496
f 336 495 496
f 338 337 497
f 337 496 497
f 339 338 498
f 338 497 498
f 340 339 499
f 339 498 499
f 340 499 500
f 341 340 500
f 341 500 501
f 342 341 501
f 342 501 502
f 343 342 502
f 343 502 503
f 344 343 503
f 344 503 504
f 345 344 504
f 345 504 505
f 346 345 505
f 347 346 506
f 346 505 506
f 348 347 507
f 347 506 507
f 349 348 508
f 348 507 508
f 350 349 509
f 349 508 509
f 351 350 510
f 350 509 510
f 352 351 511
f 351 510 511
f 353 352 512
f 352 511 512
f 354 353 513
f 353 512 513
f 355 354 514
f 354 513 514
f 356 355 515
f 355 514 515
f 357 356 516
f 356 515 516
f 358 357 517
f 357 516 517
f 359 358 518
f 358 517 518
f 360 359 519
f 359 518 519
f 361 360 520
f 360 519 520
f 362 361 521
f 361 520 521
f 363 362 522
f 362 521 522
f 364 363 523
f 363 522 523
f 365 364 524
f 364 523 524
f 365 524 525
f 366 365 525
f 366 525 526
f 367 366 526
f 367 526 527
f 368 367 527
f 368 527 528
f 369 368 528
f 369 528 529
f 370 369 529
f 370 529 530
f 371 370 530
f 371 530 531
f 372 371 531
f 372 531 532
f 373 372 532
f 373 532 533
f 374 373 533
f 374 533 534
f 375 374 534
f 375 534 535
f 376 375 535
f 376 535 536
f 377 376 536
f 377 536 537
f 378 377 537
f 378 537 538
f 379 378 538
f 379 538 539
f 380 379 539
f 380 539 540
f 381 380 540
f 382 381 541
f 381 540 541
f 383 382 542
f 382 541 542
f 384 383 543
f 383 542 543
f 385 384 544
f 384 543 544
f 386 385 545
f 385 544 545
f 387 386 546
f 386 545 546
f 388 387 547
f 387 546 547
f 389 388 548
f 388 547 548
f 390 389 549
f 389 548 549
f 390 549 550
f 391 390 550
f 391 550 551
f 392 391 551
f 392 551 552
f 393 392 552
f 393 552 553
f 394 393 553
f 394 553 554
f 395 394 554
f 395 554 555
f 396 395 555
f 396 555 556
f 397 396 556
f 397 556 557
f 398 397 557
f 398 557 558
f 399 398 558
f 399 558 559
f 400 399 559
f 400 559 560
f 401 400 560
f 401 560 561
f 402 401 561
f 402 561 562
f 403 402 562
f 403 562 563
f 404 403 563
f 404 563 564
f 405 404 564
f 405 564 565
f 406 405 565
f 406 565 566
f 407 406 566
f 408 407 566
f 408 566 567
f 408 567 568
f 409 408 568
f 410 409 568
f 410 568 569
f 410 569 570
f 411 410 570
f 411 570 571
f 412 411 571
f 412 571 572
f 413 412 572
f 414 413 573
f 413 572 573
f 415 414 574
f 414 573 574
f 415 574 575
f 416 415 575
f 417 416 575
f 417 575 576
f 417 576 577
f 418 417 577
f 419 418 577
f 419 577 578
f 420 419 579
f 419 578 579
f 421 420 580
f 420 579 580
f 422 421 581
f 423 422 581
f 421 580 581
f 424 423 582
f 423 581 582
f 424 582 583
f 425 424 584
f 424 583 584
f 426 425 585
f 427 426 585
f 425 584 585
f 427 585 586
f 428 427 587
f 427 586 587
f 429 428 588
f 428 587 588
f 430 429 589
f 431 430 589
f 429 588 589
f 431 589 590
f 432 431 591
f 431 590 591
f 433 432 592
f 432 591 592
f 434 433 593
f 433 592 593
f 435 434 594
f 436 435 594
f 434 593 594
f 436 594 595
f 437 436 596
f 438 437 596
f 436 595 596
f 438 596 597
f 439 438 598
f 438 597 598
f 440 439 599
f 439 598 599
f 441 440 600
f 440 599 600
f 441 600 601
f 442 441 601
f 442 601 602
f 443 442 602
f 443 602 603
f 444 443 603
f 444 603 604
f 445 444 604
f 445 604 605
f 446 445 605
f 446 605 606
f 447 446 606
f 448 447 607
f 447 606 607
f 449 448 608
f 448 607 608
f 450 449 609
f 449 608 609
f 451 450 610
f 450 609 610
f 452 451 611
f 451 610 611
f 453 452 612
f 452 611 612
f 454 453 613
f 453 612 613
f 455 454 614
f 454 613 614
f 456 455 615
f 455 614 615
f 457 456 616
f 456 615 616
f 458 457 617
f 459 458 617
f 457 616 617
f 459 617 618
f 460 459 619
f 459 618 619
f 461 460 620
f 460 619 620
f 462 461 621
f 463 462 621
f 461 620 621
f 463 621 622
f 464 463 623
f 463 622 623
f 465 464 624
f 464 623 624
f 466 465 625
f 465 624 625
f 466 625 626
f 467 466 626
f 467 626 627
f 468 467 627
f 468 627 628
f 469 468 628
f 470 469 628
f 470 628 629
f 470 629 630
f 471 470 630
f 471 630 631
f 472 471 631
f 473 472 631
f 473 631 632
f 473 632 633
f 474 473 633
f 474 633 634
f 475 474 634
f 475 634 635
f 476 475 635
f 476 635 636
f 477 476 636
f 477 636 479
f 478 477 479
f 736 894 893
f 735 736 893
f 894 736 895
f 736 737 895
f 735 893 892
f 734 735 892
f 737 738 896
f 895 737 896
f 734 892 891
f 733 734 891
f 738 739 897
f 896 738 897
f 733 891 890
f 732 733 890
f 739 740 898
f 897 739 898
f 732 890 889
f 731 732 889
f 740 741 899
f 898 740 899
f 731 889 888
f 730 731 888
f 741 742 900
f 899 741 900
f 730 888 887
f 729 730 887
f 742 743 901
f 900 742 901
f 729 887 886
f 728 729 886
f 743 744 902
f 901 743 902
f 728 886 885
f 727 728 885
f 744 745 903
f 902 744 903
f 727 885 884
f 726 727 884
f 745 746 904
f 903 745 904
f 726 884 883
f 725 726 883
f 746 747 905
f 904 746 905
f 724 725 882
f 725 883 882
f 747 748 906
f 905 747 906
f 724 882 881
f 723 724 881
f 748 749 907
f 906 748 907
f 722 723 880
f 723 881 880
f 749 750 908
f 907 749 908
f 722 880 879
f 721 722 879
f 750 751 909
f 908 750 909
f 721 879 878
f 720 721 878
f 751 752 910
f 909 751 910
f 720 878 877
f 719 720 877
f 752 753 911
f 910 752 911
f 719 877 876
f 718 719 876
f 911 753 912
f 753 754 912
f 718 876 875
f 717 718 875
f 754 755 913
f 912 754 913
f 717 875 874
f 716 717 874
f 913 755 914
f 755 756 914
f 716 874 873
f 715 716 873
f 756 757 915
f 914 756 915
f 715 873 872
f 714 715 872
f 757 758 916
f 915 757 916
f 714 872 871
f 713 714 871
f 758 759 917
f 916 758 917
f 713 871 870
f 712 713 870
f 759 760 918
f 917 759 918
f 712 870 869
f 711 712 869
f 760 761 919
f 918 760 919
f 711 869 868
f 710 711 868
f 761 762 920
f 919 761 920
f 710 868 867
f 709 710 867
f 762 763 921
f 920 762 921
f 709 867 866
f 708 709 866
f 921 763 922
f 763 764 922
f 707 708 865
f 708 866 865
f 764 765 923
f 922 764 923
f 706 707 864
f 707 865 864
f 923 765 924
f 765 766 924
f 705 706 863
f 706 864 863
f 766 767 925
f 924 766 925
f 704 705 862
f 705 863 862
f 767 768 926
f 925 767 926
f 703 704 861
f 704 862 861
f 926 768 927
f 768 769 927
f 703 861 860
f 702 703 860
f 769 770 928
f 927 769 928
f 702 860 859
f 701 702 859
f 928 770 929
f 770 771 929
f 701 859 858
f 700 701 858
f 771 772 930
f 929 771 930
f 700 858 857
f 699 700 857
f 772 773 931
f 930 772 931
f 698 699 856
f 699 857 856
f 931 773 932
f 773 774 932
f 697 698 855
f 698 856 855
f 774 775 933
f 932 774 933
f 855 854 696
f 697 855 696
f 933 775 776
f 934 933 776
f 854 853 695
f 696 854 695
f 934 776 777
f 935 934 777
f 853 852 694
f 695 853 694
f 935 777 778
f 936 935 778
f 852 851 693
f 694 852 693
f 936 778 779
f 937 936 779
f 851 850 692
f 693 851 692
f 937 779 780
f 938 937 780
f 692 850 691
f 850 849 691
f 938 780 781
f 939 938 781
f 849 848 690
f 691 849 690
f 940 939 782
f 939 781 782
f 690 848 689
f 848 847 689
f 941 940 783
f 940 782 783
f 847 846 688
f 689 847 688
f 942 941 784
f 941 783 784
f 846 845 687
f 688 846 687
f 943 942 785
f 942 784 785
f 845 844 686
f 687 845 686
f 944 943 786
f 943 785 786
f 844 843 685
f 686 844 685
f 945 944 787
f 944 786 787
f 843 842 684
f 685 843 684
f 946 945 788
f 945 787 788
f 842 841 683
f 684 842 683
f 947 946 789
f 946 788 789
f 841 840 682
f 683 841 682
f 948 947 790
f 947 789 790
f 840 839 681
f 682 840 681
f 949 948 791
f 948 790 791
f 839 838 680
f 681 839 680
f 950 949 792
f 949 791 792
f 680 838 679
f 838 837 679
f 950 792 793
f 951 950 793
f 679 837 678
f 837 836 678
f 952 951 794
f 951 793 794
f 678 836 677
f 836 835 677
f 795 952 637
f 952 794 637
f 677 835 676
f 835 834 676
f 795 637 638
f 796 795 638
f 676 834 675
f 834 833 675
f 796 638 639
f 797 796 639
f 675 833 674
f 833 832 674
f 797 639 640
f 798 797 640
f 674 832 673
f 832 831 673
f 799 798 641
f 798 640 641
f 673 831 672
f 831 830 672
f 799 641 642
f 800 799 642
f 672 830 671
f 830 829 671
f 800 642 643
f 801 800 643
f 671 829 670
f 829 828 670
f 801 643 644
f 802 801 644
f 828 827 669
f 670 828 669
f 802 644 645
f 803 802 645
f 827 826 668
f 669 827 668
f 804 803 646
f 803 645 646
f 826 825 667
f 668 826 667
f 805 804 647
f 804 646 647
f 667 825 666
f 825 824 666
f 806 805 648
f 805 647 648
f 666 824 665
f 824 823 665
f 806 648 649
f 807 806 649
f 665 823 664
f 823 822 664
f 807 649 650
f 808 807 650
f 664 822 663
f 822 821 663
f 809 808 651
f 808 650 651
f 663 821 662
f 821 820 662
f 809 651 652
f 810 809 652
f 662 820 661
f 820 819 661
f 810 652 653
f 811 810 653
f 661 819 660
f 819 818 660
f 811 653 654
f 812 811 654
f 660 818 659
f 818 817 659
f 812 654 655
f 813 812 655
f 659 817 658
f 817 816 658
f 813 655 656
f 814 813 656
f 658 816 657
f 814 656 657
f 815 814 657
f 816 815 657
f 1210 1052 1209
f 1052 1051 1209
f 1052 1210 1211
f 1053 1052 1211
f 1209 1051 1208
f 1051 1050 1208
f 1054 1053 1212
f 1053 1211 1212
f 1208 1050 1207
f 1050 1049 1207
f 1055 1054 1213
f 1054 1212 1213
f 1207 1049 1206
f 1049 1048 1206
f 1056 1055 1214
f 1055 1213 1214
f 1206 1048 1205
f 1048 1047 1205
f 1057 1056 1215
f 1056 1214 1215
f 1205 1047 1204
f 1047 1046 1204
f 1058 1057 1216
f 1057 1215 1216
f 1204 1046 1203
f 1046 1045 1203
f 1059 1058 1217
f 1058 1216 1217
f 1203 1045 1202
f 1045 1044 1202
f 1060 1059 1218
f 1059 1217 1218
f 1202 1044 1201
f 1044 1043 1201
f 1061 1060 1219
f 1060 1218 1219
f 1201 1043 1200
f 1043 1042 1200
f 1062 1061 1220
f 1061 1219 1220
f 1200 1042 1199
f 1042 1041 1199
f 1063 1062 1221
f 1062 1220 1221
f 1041 1040 1198
f 1199 1041 1198
f 1064 1063 1222
f 1063 1221 1222
f 1198 1040 1197
f 1040 1039 1197
f 1065 1064 1223
f 1064 1222 1223
f 1039 1038 1196
f 1197 1039 1196
f 1066 1065 1224
f 1065 1223 1224
f 1196 1038 1195
f 1038 1037 1195
f 1067 1066 1225
f 1066 1224 1225
f 1195 1037 1194
f 1037 1036 1194
f 1068 1067 1226
f 1067 1225 1226
f 1194 1036 1193
f 1036 1035 1193
f 1069 1068 1227
f 1068 1226 1227
f 1193 1035 1192
f 1035 1034 1192
f 1069 1227 1228
f 1070 1069 1228
f 1192 1034 1191
f 1034 1033 1191
f 1071 1070 1229
f 1070 1228 1229
f 1191 1033 1190
f 1033 1032 1190
f 1071 1229 1230
f 1072 1071 1230
f 1190 1032 1189
f 1032 1031 1189
f 1073 1072 1231
f 1072 1230 1231
f 1189 1031 1188
f 1031 1030 1188
f 1074 1073 1232
f 1073 1231 1232
f 1188 1030 1187
f 1030 1029 1187
f 1075 1074 1233
f 1074 1232 1233
f 1187 1029 1186
f 1029 1028 1186
f 1076 1075 1234
f 1075 1233 1234
f 1186 1028 1185
f 1028 1027 1185
f 1077 1076 1235
f 1076 1234 1235
f 1185 1027 1184
f 1027 1026 1184
f 1078 1077 1236
f 1077 1235 1236
f 1184 1026 1183
f 1026 1025 1183
f 1079 1078 1237
f 1078 1236 1237
f 1183 1025 1182
f 1025 1024 1182
f 1079 1237 1238
f 1080 1079 1238
f 1024 1023 1181
f 1182 1024 1181
f 1081 1080 1239
f 1080 1238 1239
f 1023 1022 1180
f 1181 1023 1180
f 1081 1239 1240
f 1082 1081 1240
f 1022 1021 1179
f 1180 1022 1179
f 1083 1082 1241
f 1082 1240 1241
f 1021 1020 1178
f 1179 1021 1178
f 1084 1083 1242
f 1083 1241 1242
f 1020 1019 1177
f 1178 1020 1177
f 1084 1242 1243
f 1085 1084 1243
f 1177 1019 1176
f 1019 1018 1176
f 1086 1085 1244
f 1085 1243 1244
f 1176 1018 1175
f 1018 1017 1175
f 1086 1244 1245
f 1087 1086 1245
f 1175 1017 1174
f 1017 1016 1174
f 1088 1087 1246
f 1087 1245 1246
f 1174 1016 1173
f 1016 1015 1173
f 1089 1088 1247
f 1088 1246 1247
f 1015 1014 1172
f 1173 1015 1172
f 1089 1247 1248
f 1090 1089 1248
f 1014 1013 1171
f 1172 1014 1171
f 1091 1090 1249
f 1090 1248 1249
f 1170 1171 1012
f 1171 1013 1012
f 1091 1249 1092
f 1249 1250 1092
f 1169 1170 1011
f 1170 1012 1011
f 1092 1250 1093
f 1250 1251 1093
f 1168 1169 1010
f 1169 1011 1010
f 1093 1251 1094
f 1251 1252 1094
f 1167 1168 1009
f 1168 1010 1009
f 1094 1252 1095
f 1252 1253 1095
f 1166 1167 1008
f 1167 1009 1008
f 1095 1253 1096
f 1253 1254 1096
f 1166 1008 1007
f 1165 1166 1007
f 1096 1254 1097
f 1254 1255 1097
f 1164 1165 1006
f 1165 1007 1006
f 1255 1256 1098
f 1097 1255 1098
f 1164 1006 1005
f 1163 1164 1005
f 1256 1257 1099
f 1098 1256 1099
f 1162 1163 1004
f 1163 1005 1004
f 1257 1258 1100
f 1099 1257 1100
f 1161 1162 1003
f 1162 1004 1003
f 1258 1259 1101
f 1100 1258 1101
f 1160 1161 1002
f 1161 1003 1002
f 1259 1260 1102
f 1101 1259 1102
f 1159 1160 1001
f 1160 1002 1001
f 1260 1261 1103
f 1102 1260 1103
f 1158 1159 1000
f 1159 1001 1000
f 1261 1262 1104
f 1103 1261 1104
f 1157 1158 999
f 1158 1000 999
f 1262 1263 1105
f 1104 1262 1105
f 1156 1157 998
f 1157 999 998
f 1263 1264 1106
f 1105 1263 1106
f 1155 1156 997
f 1156 998 997
f 1264 1265 1107
f 1106 1264 1107
f 1154 1155 996
f 1155 997 996
f 1265 1266 1108
f 1107 1265 1108
f 1154 996 995
f 1153 1154 995
f 1108 1266 1109
f 1266 1267 1109
f 1153 995 994
f 1152 1153 994
f 1267 1268 1110
f 1109 1267 1110
f 1152 994 993
f 1151 1152 993
f 1268 1111 953
f 1110 1268 953
f 1151 993 992
f 1150 1151 992
f 953 1111 954
f 1111 1112 954
f 1150 992 991
f 1149 1150 991
f 954 1112 955
f 1112 1113 955
f 1149 991 990
f 1148 1149 990
f 955 1113 956
f 1113 1114 956
f 1148 990 989
f 1147 1148 989
f 1114 1115 957
f 956 1114 957
f 1147 989 988
f 1146 1147 988
f 957 1115 958
f 1115 1116 958
f 1146 988 987
f 1145 1146 987
f 958 1116 959
f 1116 1117 959
f 1145 987 986
f 1144 1145 986
f 959 1117 960
f 1117 1118 960
f 1143 1144 985
f 1144 986 985
f 960 1118 961
f 1118 1119 961
f 1142 1143 984
f 1143 985 984
f 1119 1120 962
f 961 1119 962
f 1141 1142 983
f 1142 984 983
f 1120 1121 963
f 962 1120 963
f 1141 983 982
f 1140 1141 982
f 1121 1122 964
f 963 1121 964
f 1140 982 981
f 1139 1140 981
f 964 1122 965
f 1122 1123 965
f 1139 981 980
f 1138 1139 980
f 965 1123 966
f 1123 1124 966
f 1138 980 979
f 1137 1138 979
f 1124 1125 967
f 966 1124 967
f 1137 979 978
f 1136 1137 978
f 967 1125 968
f 1125 1126 968
f 1136 978 977
f 1135 1136 977
f 968 1126 969
f 1126 1127 969
f 1135 977 976
f 1134 1135 976
f 969 1127 970
f 1127 1128 970
f 1134 976 975
f 1133 1134 975
f 970 1128 971
f 1128 1129 971
f 1133 975 974
f 1132 1133 974
f 971 1129 972
f 1129 1130 972
f 1132 974 973
f 972 1130 973
f 1130 1131 973
f 1131 1132 973
