v 0.004800 0.007350 -0.050650
v 0.004800 0.007350 0.050650
v 0.004800 0.008650 -0.050650
v 0.004800 0.008650 0.050650
v 0.004800 0.007350 -0.050650
v 0.005150 0.007000 -0.050650
v 0.004800 0.007350 0.050650
v 0.005150 0.007000 0.050650
v 0.005150 0.007000 0.015000
v 0.005050 0.007100 0.015000
v 0.004900 0.007250 0.014850
v 0.004850 0.007300 0.014750
v 0.004850 0.007300 -0.014750
v 0.004900 0.007250 -0.014850
v 0.005050 0.007100 -0.015000
v 0.005150 0.007000 -0.015000
v 0.005150 0.007350 -0.051000
v 0.004800 0.007350 -0.050650
v 0.004800 0.008650 -0.050650
v 0.005150 0.008650 -0.051000
v 0.005150 0.007350 0.051000
v 0.004800 0.007350 0.050650
v 0.004800 0.008650 0.050650
v 0.005150 0.008650 0.051000
v 0.004800 0.008650 -0.050650
v 0.004800 0.008650 0.050650
v 0.005150 0.009000 0.050650
v 0.005150 0.009000 -0.050650
v 0.005150 0.007350 -0.051000
v 0.004800 0.007350 -0.050650
v 0.005150 0.007000 -0.050650
v 0.005150 0.007000 -0.050650
v 0.040450 0.007000 -0.050650
v 0.005150 0.007000 -0.015000
v 0.008550 0.007000 -0.015000
v 0.008800 0.007000 -0.014750
v 0.008800 0.007000 0.014750
v 0.008550 0.007000 0.015000
v 0.005150 0.007000 0.015000
v 0.005150 0.007000 0.050650
v 0.040450 0.007000 0.050650
v 0.005050 0.004092 -0.015000
v 0.005050 0.007100 -0.015000
v 0.006260 0.001750 -0.015000
v 0.006302 0.001593 -0.015000
v 0.006340 0.001435 -0.015000
v 0.006374 0.001276 -0.015000
v 0.006403 0.001116 -0.015000
v 0.006429 0.000956 -0.015000
v 0.006451 0.000795 -0.015000
v 0.006469 0.000633 -0.015000
v 0.006483 0.000472 -0.015000
v 0.006493 0.000309 -0.015000
v 0.006498 0.000147 -0.015000
v 0.006500 -0.000016 -0.015000
v 0.006498 -0.000178 -0.015000
v 0.006491 -0.000340 -0.015000
v 0.006481 -0.000503 -0.015000
v 0.006466 -0.000664 -0.015000
v 0.006447 -0.000826 -0.015000
v 0.006425 -0.000987 -0.015000
v 0.006398 -0.001147 -0.015000
v 0.006367 -0.001307 -0.015000
v 0.006333 -0.001465 -0.015000
v 0.006294 -0.001623 -0.015000
v 0.006252 -0.001780 -0.015000
v 0.006205 -0.001936 -0.015000
v 0.006155 -0.002090 -0.015000
v 0.006101 -0.002243 -0.015000
v 0.006043 -0.002395 -0.015000
v 0.005981 -0.002545 -0.015000
v 0.005915 -0.002694 -0.015000
v 0.005846 -0.002841 -0.015000
v 0.005773 -0.002986 -0.015000
v 0.005697 -0.003130 -0.015000
v 0.005617 -0.003271 -0.015000
v 0.005533 -0.003411 -0.015000
v 0.005446 -0.003548 -0.015000
v 0.005356 -0.003683 -0.015000
v 0.005262 -0.003816 -0.015000
v 0.005165 -0.003946 -0.015000
v 0.005065 -0.004074 -0.015000
v 0.004962 -0.004199 -0.015000
v 0.004855 -0.004322 -0.015000
v 0.004746 -0.004442 -0.015000
v 0.004633 -0.004559 -0.015000
v 0.004518 -0.004673 -0.015000
v 0.004399 -0.004785 -0.015000
v 0.004278 -0.004893 -0.015000
v 0.004155 -0.004999 -0.015000
v 0.004028 -0.005101 -0.015000
v 0.003900 -0.005200 -0.015000
v 0.003768 -0.005296 -0.015000
v 0.003635 -0.005389 -0.015000
v 0.003499 -0.005478 -0.015000
v 0.003361 -0.005564 -0.015000
v 0.003221 -0.005646 -0.015000
v 0.003079 -0.005725 -0.015000
v 0.002935 -0.005800 -0.015000
v 0.002789 -0.005871 -0.015000
v 0.002641 -0.005939 -0.015000
v 0.002492 -0.006003 -0.015000
v 0.002341 -0.006064 -0.015000
v 0.002189 -0.006120 -0.015000
v 0.002035 -0.006173 -0.015000
v 0.001880 -0.006222 -0.015000
v 0.001724 -0.006267 -0.015000
v 0.001567 -0.006308 -0.015000
v 0.001409 -0.006346 -0.015000
v 0.001250 -0.006379 -0.015000
v 0.001090 -0.006408 -0.015000
v 0.000929 -0.006433 -0.015000
v 0.000768 -0.006454 -0.015000
v 0.000607 -0.006472 -0.015000
v 0.000445 -0.006485 -0.015000
v 0.000282 -0.006494 -0.015000
v 0.000120 -0.006499 -0.015000
v -0.000042 -0.006500 -0.015000
v -0.000205 -0.006497 -0.015000
v -0.000367 -0.006490 -0.015000
v -0.000529 -0.006478 -0.015000
v -0.000691 -0.006463 -0.015000
v -0.000852 -0.006444 -0.015000
v -0.001013 -0.006421 -0.015000
v -0.001173 -0.006393 -0.015000
v -0.001333 -0.006362 -0.015000
v -0.001491 -0.006327 -0.015000
v -0.001649 -0.006287 -0.015000
v -0.001806 -0.006244 -0.015000
v -0.001961 -0.006197 -0.015000
v -0.002116 -0.006146 -0.015000
v -0.002269 -0.006091 -0.015000
v -0.002420 -0.006033 -0.015000
v -0.002570 -0.005970 -0.015000
v -0.002719 -0.005904 -0.015000
v -0.002865 -0.005834 -0.015000
v -0.003010 -0.005761 -0.015000
v -0.003153 -0.005684 -0.015000
v -0.003294 -0.005603 -0.015000
v -0.003433 -0.005519 -0.015000
v -0.003570 -0.005432 -0.015000
v -0.003705 -0.005341 -0.015000
v -0.003837 -0.005246 -0.015000
v -0.003967 -0.005149 -0.015000
v -0.004095 -0.005048 -0.015000
v -0.004220 -0.004944 -0.015000
v -0.004342 -0.004837 -0.015000
v -0.004461 -0.004727 -0.015000
v -0.004578 -0.004614 -0.015000
v -0.004692 -0.004498 -0.015000
v -0.004803 -0.004380 -0.015000
v -0.004911 -0.004258 -0.015000
v -0.005016 -0.004134 -0.015000
v -0.005118 -0.004007 -0.015000
v -0.005216 -0.003878 -0.015000
v -0.005312 -0.003747 -0.015000
v -0.005404 -0.003613 -0.015000
v -0.005492 -0.003476 -0.015000
v -0.005577 -0.003338 -0.015000
v -0.005659 -0.003198 -0.015000
v -0.005737 -0.003055 -0.015000
v -0.005812 -0.002911 -0.015000
v -0.005883 -0.002765 -0.015000
v -0.005950 -0.002617 -0.015000
v -0.006014 -0.002467 -0.015000
v -0.006073 -0.002316 -0.015000
v -0.006129 -0.002163 -0.015000
v -0.006182 -0.002010 -0.015000
v -0.006230 -0.001854 -0.015000
v -0.006274 -0.001698 -0.015000
v -0.006315 -0.001541 -0.015000
v -0.006351 -0.001382 -0.015000
v -0.006384 -0.001223 -0.015000
v -0.006412 -0.001063 -0.015000
v -0.006437 -0.000903 -0.015000
v -0.006458 -0.000742 -0.015000
v -0.006474 -0.000580 -0.015000
v -0.006487 -0.000418 -0.015000
v -0.006495 -0.000256 -0.015000
v -0.006499 -0.000093 -0.015000
v -0.006500 0.000069 -0.015000
v -0.006496 0.000232 -0.015000
v -0.006488 0.000394 -0.015000
v -0.006476 0.000556 -0.015000
v -0.006460 0.000718 -0.015000
v -0.006440 0.000879 -0.015000
v -0.006416 0.001040 -0.015000
v -0.006388 0.001200 -0.015000
v -0.006356 0.001359 -0.015000
v -0.006320 0.001518 -0.015000
v -0.006280 0.001675 -0.015000
v -0.006237 0.001832 -0.015000
v -0.006189 0.001987 -0.015000
v -0.006137 0.002141 -0.015000
v -0.006082 0.002294 -0.015000
v -0.006023 0.002445 -0.015000
v -0.005960 0.002595 -0.015000
v -0.005893 0.002743 -0.015000
v -0.005822 0.002889 -0.015000
v -0.005748 0.003034 -0.015000
v -0.005671 0.003177 -0.015000
v -0.005590 0.003318 -0.015000
v -0.005505 0.003456 -0.015000
v -0.005417 0.003593 -0.015000
v -0.005325 0.003727 -0.015000
v -0.005231 0.003859 -0.015000
v -0.005132 0.003989 -0.015000
v -0.005031 0.004116 -0.015000
v -0.004927 0.004240 -0.015000
v -0.004819 0.004362 -0.015000
v -0.004709 0.004481 -0.015000
v -0.004595 0.004597 -0.015000
v -0.004479 0.004711 -0.015000
v -0.004360 0.004821 -0.015000
v -0.004238 0.004929 -0.015000
v -0.004113 0.005033 -0.015000
v -0.003986 0.005134 -0.015000
v -0.003857 0.005232 -0.015000
v -0.003725 0.005327 -0.015000
v -0.003590 0.005419 -0.015000
v -0.003454 0.005507 -0.015000
v -0.003315 0.005591 -0.015000
v -0.003174 0.005672 -0.015000
v -0.003031 0.005750 -0.015000
v -0.002887 0.005824 -0.015000
v -0.002740 0.005894 -0.015000
v -0.002592 0.005961 -0.015000
v -0.002442 0.006024 -0.015000
v -0.002291 0.006083 -0.015000
v -0.002138 0.006138 -0.015000
v -0.001984 0.006190 -0.015000
v -0.001829 0.006237 -0.015000
v -0.001672 0.006281 -0.015000
v -0.001515 0.006321 -0.015000
v -0.001356 0.006357 -0.015000
v -0.001197 0.006389 -0.015000
v -0.001037 0.006417 -0.015000
v -0.000876 0.006441 -0.015000
v -0.000715 0.006461 -0.015000
v -0.000553 0.006476 -0.015000
v -0.000391 0.006488 -0.015000
v -0.000229 0.006496 -0.015000
v -0.000066 0.006500 -0.015000
v 0.000096 0.006499 -0.015000
v 0.000259 0.006495 -0.015000
v 0.000421 0.006486 -0.015000
v 0.000583 0.006474 -0.015000
v 0.000745 0.006457 -0.015000
v 0.000906 0.006437 -0.015000
v 0.001066 0.006412 -0.015000
v 0.001226 0.006383 -0.015000
v 0.001385 0.006351 -0.015000
v 0.001544 0.006314 -0.015000
v 0.001701 0.006273 -0.015000
v 0.001857 0.006229 -0.015000
v 0.002013 0.006181 -0.015000
v 0.002166 0.006128 -0.015000
v 0.002319 0.006072 -0.015000
v 0.002470 0.006012 -0.015000
v 0.002619 0.005949 -0.015000
v 0.002767 0.005881 -0.015000
v 0.002913 0.005810 -0.015000
v 0.003058 0.005736 -0.015000
v 0.003200 0.005658 -0.015000
v 0.003341 0.005576 -0.015000
v 0.003479 0.005491 -0.015000
v 0.003615 0.005402 -0.015000
v 0.003749 0.005310 -0.015000
v 0.003881 0.005214 -0.015000
v 0.004010 0.005116 -0.015000
v 0.004136 0.005014 -0.015000
v 0.004260 0.004909 -0.015000
v 0.004382 0.004801 -0.015000
v 0.004500 0.004690 -0.015000
v 0.004616 0.004576 -0.015000
v 0.004729 0.004459 -0.015000
v 0.004839 0.004340 -0.015000
v 0.004946 0.004217 -0.015000
v 0.008550 0.001750 -0.015000
v 0.008550 0.007000 -0.015000
v 0.005150 0.007000 -0.015000
v 0.004500 -0.000000 -0.015000
v 0.004499 0.000112 -0.015000
v 0.004494 0.000224 -0.015000
v 0.004487 0.000336 -0.015000
v 0.004478 0.000448 -0.015000
v 0.004465 0.000560 -0.015000
v 0.004450 0.000671 -0.015000
v 0.004432 0.000781 -0.015000
v 0.004411 0.000892 -0.015000
v 0.004387 0.001001 -0.015000
v 0.004361 0.001110 -0.015000
v 0.004332 0.001219 -0.015000
v 0.004300 0.001326 -0.015000
v 0.004266 0.001433 -0.015000
v 0.004229 0.001539 -0.015000
v 0.004189 0.001644 -0.015000
v 0.004147 0.001748 -0.015000
v 0.004102 0.001851 -0.015000
v 0.004054 0.001952 -0.015000
v 0.004004 0.002053 -0.015000
v 0.003952 0.002152 -0.015000
v 0.003897 0.002250 -0.015000
v 0.003840 0.002346 -0.015000
v 0.003780 0.002441 -0.015000
v 0.003718 0.002535 -0.015000
v 0.003654 0.002627 -0.015000
v 0.003587 0.002717 -0.015000
v 0.003518 0.002806 -0.015000
v 0.003447 0.002893 -0.015000
v 0.003374 0.002978 -0.015000
v 0.003299 0.003061 -0.015000
v 0.003221 0.003142 -0.015000
v 0.003142 0.003221 -0.015000
v 0.003061 0.003299 -0.015000
v 0.002978 0.003374 -0.015000
v 0.002893 0.003447 -0.015000
v 0.002806 0.003518 -0.015000
v 0.002717 0.003587 -0.015000
v 0.002627 0.003654 -0.015000
v 0.002535 0.003718 -0.015000
v 0.002441 0.003780 -0.015000
v 0.002346 0.003840 -0.015000
v 0.002250 0.003897 -0.015000
v 0.002152 0.003952 -0.015000
v 0.002053 0.004004 -0.015000
v 0.001952 0.004054 -0.015000
v 0.001851 0.004102 -0.015000
v 0.001748 0.004147 -0.015000
v 0.001644 0.004189 -0.015000
v 0.001539 0.004229 -0.015000
v 0.001433 0.004266 -0.015000
v 0.001326 0.004300 -0.015000
v 0.001219 0.004332 -0.015000
v 0.001110 0.004361 -0.015000
v 0.001001 0.004387 -0.015000
v 0.000892 0.004411 -0.015000
v 0.000781 0.004432 -0.015000
v 0.000671 0.004450 -0.015000
v 0.000560 0.004465 -0.015000
v 0.000448 0.004478 -0.015000
v 0.000336 0.004487 -0.015000
v 0.000224 0.004494 -0.015000
v 0.000112 0.004499 -0.015000
v 0.000000 0.004500 -0.015000
v -0.000112 0.004499 -0.015000
v -0.000224 0.004494 -0.015000
v -0.000336 0.004487 -0.015000
v -0.000448 0.004478 -0.015000
v -0.000560 0.004465 -0.015000
v -0.000671 0.004450 -0.015000
v -0.000781 0.004432 -0.015000
v -0.000892 0.004411 -0.015000
v -0.001001 0.004387 -0.015000
v -0.001110 0.004361 -0.015000
v -0.001219 0.004332 -0.015000
v -0.001326 0.004300 -0.015000
v -0.001433 0.004266 -0.015000
v -0.001539 0.004229 -0.015000
v -0.001644 0.004189 -0.015000
v -0.001748 0.004147 -0.015000
v -0.001851 0.004102 -0.015000
v -0.001952 0.004054 -0.015000
v -0.002053 0.004004 -0.015000
v -0.002152 0.003952 -0.015000
v -0.002250 0.003897 -0.015000
v -0.002346 0.003840 -0.015000
v -0.002441 0.003780 -0.015000
v -0.002535 0.003718 -0.015000
v -0.002627 0.003654 -0.015000
v -0.002717 0.003587 -0.015000
v -0.002806 0.003518 -0.015000
v -0.002893 0.003447 -0.015000
v -0.002978 0.003374 -0.015000
v -0.003061 0.003299 -0.015000
v -0.003142 0.003221 -0.015000
v -0.003221 0.003142 -0.015000
v -0.003299 0.003061 -0.015000
v -0.003374 0.002978 -0.015000
v -0.003447 0.002893 -0.015000
v -0.003518 0.002806 -0.015000
v -0.003587 0.002717 -0.015000
v -0.003654 0.002627 -0.015000
v -0.003718 0.002535 -0.015000
v -0.003780 0.002441 -0.015000
v -0.003840 0.002346 -0.015000
v -0.003897 0.002250 -0.015000
v -0.003952 0.002152 -0.015000
v -0.004004 0.002053 -0.015000
v -0.004054 0.001952 -0.015000
v -0.004102 0.001851 -0.015000
v -0.004147 0.001748 -0.015000
v -0.004189 0.001644 -0.015000
v -0.004229 0.001539 -0.015000
v -0.004266 0.001433 -0.015000
v -0.004300 0.001326 -0.015000
v -0.004332 0.001219 -0.015000
v -0.004361 0.001110 -0.015000
v -0.004387 0.001001 -0.015000
v -0.004411 0.000892 -0.015000
v -0.004432 0.000781 -0.015000
v -0.004450 0.000671 -0.015000
v -0.004465 0.000560 -0.015000
v -0.004478 0.000448 -0.015000
v -0.004487 0.000336 -0.015000
v -0.004494 0.000224 -0.015000
v -0.004499 0.000112 -0.015000
v -0.004500 -0.000000 -0.015000
v -0.004499 -0.000112 -0.015000
v -0.004494 -0.000224 -0.015000
v -0.004487 -0.000336 -0.015000
v -0.004478 -0.000448 -0.015000
v -0.004465 -0.000560 -0.015000
v -0.004450 -0.000671 -0.015000
v -0.004432 -0.000781 -0.015000
v -0.004411 -0.000892 -0.015000
v -0.004387 -0.001001 -0.015000
v -0.004361 -0.001110 -0.015000
v -0.004332 -0.001219 -0.015000
v -0.004300 -0.001326 -0.015000
v -0.004266 -0.001433 -0.015000
v -0.004229 -0.001539 -0.015000
v -0.004189 -0.001644 -0.015000
v -0.004147 -0.001748 -0.015000
v -0.004102 -0.001851 -0.015000
v -0.004054 -0.001952 -0.015000
v -0.004004 -0.002053 -0.015000
v -0.003952 -0.002152 -0.015000
v -0.003897 -0.002250 -0.015000
v -0.003840 -0.002346 -0.015000
v -0.003780 -0.002441 -0.015000
v -0.003718 -0.002535 -0.015000
v -0.003654 -0.002627 -0.015000
v -0.003587 -0.002717 -0.015000
v -0.003518 -0.002806 -0.015000
v -0.003447 -0.002893 -0.015000
v -0.003374 -0.002978 -0.015000
v -0.003299 -0.003061 -0.015000
v -0.003221 -0.003142 -0.015000
v -0.003142 -0.003221 -0.015000
v -0.003061 -0.003299 -0.015000
v -0.002978 -0.003374 -0.015000
v -0.002893 -0.003447 -0.015000
v -0.002806 -0.003518 -0.015000
v -0.002717 -0.003587 -0.015000
v -0.002627 -0.003654 -0.015000
v -0.002535 -0.003718 -0.015000
v -0.002441 -0.003780 -0.015000
v -0.002346 -0.003840 -0.015000
v -0.002250 -0.003897 -0.015000
v -0.002152 -0.003952 -0.015000
v -0.002053 -0.004004 -0.015000
v -0.001952 -0.004054 -0.015000
v -0.001851 -0.004102 -0.015000
v -0.001748 -0.004147 -0.015000
v -0.001644 -0.004189 -0.015000
v -0.001539 -0.004229 -0.015000
v -0.001433 -0.004266 -0.015000
v -0.001326 -0.004300 -0.015000
v -0.001219 -0.004332 -0.015000
v -0.001110 -0.004361 -0.015000
v -0.001001 -0.004387 -0.015000
v -0.000892 -0.004411 -0.015000
v -0.000781 -0.004432 -0.015000
v -0.000671 -0.004450 -0.015000
v -0.000560 -0.004465 -0.015000
v -0.000448 -0.004478 -0.015000
v -0.000336 -0.004487 -0.015000
v -0.000224 -0.004494 -0.015000
v -0.000112 -0.004499 -0.015000
v 0.000000 -0.004500 -0.015000
v 0.000112 -0.004499 -0.015000
v 0.000224 -0.004494 -0.015000
v 0.000336 -0.004487 -0.015000
v 0.000448 -0.004478 -0.015000
v 0.000560 -0.004465 -0.015000
v 0.000671 -0.004450 -0.015000
v 0.000781 -0.004432 -0.015000
v 0.000892 -0.004411 -0.015000
v 0.001001 -0.004387 -0.015000
v 0.001110 -0.004361 -0.015000
v 0.001219 -0.004332 -0.015000
v 0.001326 -0.004300 -0.015000
v 0.001433 -0.004266 -0.015000
v 0.001539 -0.004229 -0.015000
v 0.001644 -0.004189 -0.015000
v 0.001748 -0.004147 -0.015000
v 0.001851 -0.004102 -0.015000
v 0.001952 -0.004054 -0.015000
v 0.002053 -0.004004 -0.015000
v 0.002152 -0.003952 -0.015000
v 0.002250 -0.003897 -0.015000
v 0.002346 -0.003840 -0.015000
v 0.002441 -0.003780 -0.015000
v 0.002535 -0.003718 -0.015000
v 0.002627 -0.003654 -0.015000
v 0.002717 -0.003587 -0.015000
v 0.002806 -0.003518 -0.015000
v 0.002893 -0.003447 -0.015000
v 0.002978 -0.003374 -0.015000
v 0.003061 -0.003299 -0.015000
v 0.003142 -0.003221 -0.015000
v 0.003221 -0.003142 -0.015000
v 0.003299 -0.003061 -0.015000
v 0.003374 -0.002978 -0.015000
v 0.003447 -0.002893 -0.015000
v 0.003518 -0.002806 -0.015000
v 0.003587 -0.002717 -0.015000
v 0.003654 -0.002627 -0.015000
v 0.003718 -0.002535 -0.015000
v 0.003780 -0.002441 -0.015000
v 0.003840 -0.002346 -0.015000
v 0.003897 -0.002250 -0.015000
v 0.003952 -0.002152 -0.015000
v 0.004004 -0.002053 -0.015000
v 0.004054 -0.001952 -0.015000
v 0.004102 -0.001851 -0.015000
v 0.004147 -0.001748 -0.015000
v 0.004189 -0.001644 -0.015000
v 0.004229 -0.001539 -0.015000
v 0.004266 -0.001433 -0.015000
v 0.004300 -0.001326 -0.015000
v 0.004332 -0.001219 -0.015000
v 0.004361 -0.001110 -0.015000
v 0.004387 -0.001001 -0.015000
v 0.004411 -0.000892 -0.015000
v 0.004432 -0.000781 -0.015000
v 0.004450 -0.000671 -0.015000
v 0.004465 -0.000560 -0.015000
v 0.004478 -0.000448 -0.015000
v 0.004487 -0.000336 -0.015000
v 0.004494 -0.000224 -0.015000
v 0.004499 -0.000112 -0.015000
v 0.005050 0.004092 -0.015000
v 0.005050 0.007100 -0.015000
v 0.004800 0.004383 -0.014750
v 0.004843 0.004336 -0.014793
v 0.004885 0.004288 -0.014835
v 0.004927 0.004239 -0.014877
v 0.004969 0.004191 -0.014919
v 0.005010 0.004142 -0.014960
v 0.004800 0.007250 -0.014750
v 0.004900 0.007250 -0.014850
v 0.004900 0.007250 -0.014850
v 0.004800 0.007250 -0.014750
v 0.004850 0.007300 -0.014750
v 0.004800 0.007250 -0.014750
v 0.004850 0.007300 -0.014750
v 0.004800 0.007250 0.014750
v 0.004850 0.007300 0.014750
v 0.004850 0.007300 0.014750
v 0.004800 0.007250 0.014750
v 0.004900 0.007250 0.014850
v 0.005050 0.004092 0.015000
v 0.005050 0.007100 0.015000
v 0.004800 0.004383 0.014750
v 0.004843 0.004336 0.014793
v 0.004885 0.004288 0.014835
v 0.004927 0.004239 0.014877
v 0.004969 0.004191 0.014919
v 0.005010 0.004142 0.014960
v 0.004800 0.007250 0.014750
v 0.004900 0.007250 0.014850
v 0.005050 0.004092 0.015000
v 0.005050 0.007100 0.015000
v 0.004946 0.004217 0.015000
v 0.004839 0.004340 0.015000
v 0.004729 0.004459 0.015000
v 0.004616 0.004576 0.015000
v 0.004500 0.004690 0.015000
v 0.004382 0.004801 0.015000
v 0.004260 0.004909 0.015000
v 0.004136 0.005014 0.015000
v 0.004010 0.005116 0.015000
v 0.003881 0.005214 0.015000
v 0.003749 0.005310 0.015000
v 0.003615 0.005402 0.015000
v 0.003479 0.005491 0.015000
v 0.003341 0.005576 0.015000
v 0.003200 0.005658 0.015000
v 0.003058 0.005736 0.015000
v 0.002913 0.005810 0.015000
v 0.002767 0.005881 0.015000
v 0.002619 0.005949 0.015000
v 0.002470 0.006012 0.015000
v 0.002319 0.006072 0.015000
v 0.002166 0.006128 0.015000
v 0.002013 0.006181 0.015000
v 0.001857 0.006229 0.015000
v 0.001701 0.006273 0.015000
v 0.001544 0.006314 0.015000
v 0.001385 0.006351 0.015000
v 0.001226 0.006383 0.015000
v 0.001066 0.006412 0.015000
v 0.000906 0.006437 0.015000
v 0.000745 0.006457 0.015000
v 0.000583 0.006474 0.015000
v 0.000421 0.006486 0.015000
v 0.000259 0.006495 0.015000
v 0.000096 0.006499 0.015000
v -0.000066 0.006500 0.015000
v -0.000229 0.006496 0.015000
v -0.000391 0.006488 0.015000
v -0.000553 0.006476 0.015000
v -0.000715 0.006461 0.015000
v -0.000876 0.006441 0.015000
v -0.001037 0.006417 0.015000
v -0.001197 0.006389 0.015000
v -0.001356 0.006357 0.015000
v -0.001515 0.006321 0.015000
v -0.001672 0.006281 0.015000
v -0.001829 0.006237 0.015000
v -0.001984 0.006190 0.015000
v -0.002138 0.006138 0.015000
v -0.002291 0.006083 0.015000
v -0.002442 0.006024 0.015000
v -0.002592 0.005961 0.015000
v -0.002740 0.005894 0.015000
v -0.002887 0.005824 0.015000
v -0.003031 0.005750 0.015000
v -0.003174 0.005672 0.015000
v -0.003315 0.005591 0.015000
v -0.003454 0.005507 0.015000
v -0.003590 0.005419 0.015000
v -0.003725 0.005327 0.015000
v -0.003857 0.005232 0.015000
v -0.003986 0.005134 0.015000
v -0.004113 0.005033 0.015000
v -0.004238 0.004929 0.015000
v -0.004360 0.004821 0.015000
v -0.004479 0.004711 0.015000
v -0.004595 0.004597 0.015000
v -0.004709 0.004481 0.015000
v -0.004819 0.004362 0.015000
v -0.004927 0.004240 0.015000
v -0.005031 0.004116 0.015000
v -0.005132 0.003989 0.015000
v -0.005231 0.003859 0.015000
v -0.005325 0.003727 0.015000
v -0.005417 0.003593 0.015000
v -0.005505 0.003456 0.015000
v -0.005590 0.003318 0.015000
v -0.005671 0.003177 0.015000
v -0.005748 0.003034 0.015000
v -0.005822 0.002889 0.015000
v -0.005893 0.002743 0.015000
v -0.005960 0.002595 0.015000
v -0.006023 0.002445 0.015000
v -0.006082 0.002294 0.015000
v -0.006137 0.002141 0.015000
v -0.006189 0.001987 0.015000
v -0.006237 0.001832 0.015000
v -0.006280 0.001675 0.015000
v -0.006320 0.001518 0.015000
v -0.006356 0.001359 0.015000
v -0.006388 0.001200 0.015000
v -0.006416 0.001040 0.015000
v -0.006440 0.000879 0.015000
v -0.006460 0.000718 0.015000
v -0.006476 0.000556 0.015000
v -0.006488 0.000394 0.015000
v -0.006496 0.000232 0.015000
v -0.006500 0.000069 0.015000
v -0.006499 -0.000093 0.015000
v -0.006495 -0.000256 0.015000
v -0.006487 -0.000418 0.015000
v -0.006474 -0.000580 0.015000
v -0.006458 -0.000742 0.015000
v -0.006437 -0.000903 0.015000
v -0.006412 -0.001063 0.015000
v -0.006384 -0.001223 0.015000
v -0.006351 -0.001382 0.015000
v -0.006315 -0.001541 0.015000
v -0.006274 -0.001698 0.015000
v -0.006230 -0.001854 0.015000
v -0.006182 -0.002010 0.015000
v -0.006129 -0.002163 0.015000
v -0.006073 -0.002316 0.015000
v -0.006014 -0.002467 0.015000
v -0.005950 -0.002617 0.015000
v -0.005883 -0.002765 0.015000
v -0.005812 -0.002911 0.015000
v -0.005737 -0.003055 0.015000
v -0.005659 -0.003198 0.015000
v -0.005577 -0.003338 0.015000
v -0.005492 -0.003476 0.015000
v -0.005404 -0.003613 0.015000
v -0.005312 -0.003747 0.015000
v -0.005216 -0.003878 0.015000
v -0.005118 -0.004007 0.015000
v -0.005016 -0.004134 0.015000
v -0.004911 -0.004258 0.015000
v -0.004803 -0.004380 0.015000
v -0.004692 -0.004498 0.015000
v -0.004578 -0.004614 0.015000
v -0.004461 -0.004727 0.015000
v -0.004342 -0.004837 0.015000
v -0.004220 -0.004944 0.015000
v -0.004095 -0.005048 0.015000
v -0.003967 -0.005149 0.015000
v -0.003837 -0.005246 0.015000
v -0.003705 -0.005341 0.015000
v -0.003570 -0.005432 0.015000
v -0.003433 -0.005519 0.015000
v -0.003294 -0.005603 0.015000
v -0.003153 -0.005684 0.015000
v -0.003010 -0.005761 0.015000
v -0.002865 -0.005834 0.015000
v -0.002719 -0.005904 0.015000
v -0.002570 -0.005970 0.015000
v -0.002420 -0.006033 0.015000
v -0.002269 -0.006091 0.015000
v -0.002116 -0.006146 0.015000
v -0.001961 -0.006197 0.015000
v -0.001806 -0.006244 0.015000
v -0.001649 -0.006287 0.015000
v -0.001491 -0.006327 0.015000
v -0.001333 -0.006362 0.015000
v -0.001173 -0.006393 0.015000
v -0.001013 -0.006421 0.015000
v -0.000852 -0.006444 0.015000
v -0.000691 -0.006463 0.015000
v -0.000529 -0.006478 0.015000
v -0.000367 -0.006490 0.015000
v -0.000205 -0.006497 0.015000
v -0.000042 -0.006500 0.015000
v 0.000120 -0.006499 0.015000
v 0.000282 -0.006494 0.015000
v 0.000445 -0.006485 0.015000
v 0.000607 -0.006472 0.015000
v 0.000768 -0.006454 0.015000
v 0.000929 -0.006433 0.015000
v 0.001090 -0.006408 0.015000
v 0.001250 -0.006379 0.015000
v 0.001409 -0.006346 0.015000
v 0.001567 -0.006308 0.015000
v 0.001724 -0.006267 0.015000
v 0.001880 -0.006222 0.015000
v 0.002035 -0.006173 0.015000
v 0.002189 -0.006120 0.015000
v 0.002341 -0.006064 0.015000
v 0.002492 -0.006003 0.015000
v 0.002641 -0.005939 0.015000
v 0.002789 -0.005871 0.015000
v 0.002935 -0.005800 0.015000
v 0.003079 -0.005725 0.015000
v 0.003221 -0.005646 0.015000
v 0.003361 -0.005564 0.015000
v 0.003499 -0.005478 0.015000
v 0.003635 -0.005389 0.015000
v 0.003768 -0.005296 0.015000
v 0.003900 -0.005200 0.015000
v 0.004028 -0.005101 0.015000
v 0.004155 -0.004999 0.015000
v 0.004278 -0.004893 0.015000
v 0.004399 -0.004785 0.015000
v 0.004518 -0.004673 0.015000
v 0.004633 -0.004559 0.015000
v 0.004746 -0.004442 0.015000
v 0.004855 -0.004322 0.015000
v 0.004962 -0.004199 0.015000
v 0.005065 -0.004074 0.015000
v 0.005165 -0.003946 0.015000
v 0.005262 -0.003816 0.015000
v 0.005356 -0.003683 0.015000
v 0.005446 -0.003548 0.015000
v 0.005533 -0.003411 0.015000
v 0.005617 -0.003271 0.015000
v 0.005697 -0.003130 0.015000
v 0.005773 -0.002986 0.015000
v 0.005846 -0.002841 0.015000
v 0.005915 -0.002694 0.015000
v 0.005981 -0.002545 0.015000
v 0.006043 -0.002395 0.015000
v 0.006101 -0.002243 0.015000
v 0.006155 -0.002090 0.015000
v 0.006205 -0.001936 0.015000
v 0.006252 -0.001780 0.015000
v 0.006294 -0.001623 0.015000
v 0.006333 -0.001465 0.015000
v 0.006367 -0.001307 0.015000
v 0.006398 -0.001147 0.015000
v 0.006425 -0.000987 0.015000
v 0.006447 -0.000826 0.015000
v 0.006466 -0.000664 0.015000
v 0.006481 -0.000503 0.015000
v 0.006491 -0.000340 0.015000
v 0.006498 -0.000178 0.015000
v 0.006500 -0.000016 0.015000
v 0.006498 0.000147 0.015000
v 0.006493 0.000309 0.015000
v 0.006483 0.000472 0.015000
v 0.006469 0.000633 0.015000
v 0.006451 0.000795 0.015000
v 0.006429 0.000956 0.015000
v 0.006403 0.001116 0.015000
v 0.006374 0.001276 0.015000
v 0.006340 0.001435 0.015000
v 0.006302 0.001593 0.015000
v 0.006260 0.001750 0.015000
v 0.008550 0.001750 0.015000
v 0.008550 0.007000 0.015000
v 0.005150 0.007000 0.015000
v 0.004500 -0.000000 0.015000
v 0.004499 0.000112 0.015000
v 0.004494 0.000224 0.015000
v 0.004487 0.000336 0.015000
v 0.004478 0.000448 0.015000
v 0.004465 0.000560 0.015000
v 0.004450 0.000671 0.015000
v 0.004432 0.000781 0.015000
v 0.004411 0.000892 0.015000
v 0.004387 0.001001 0.015000
v 0.004361 0.001110 0.015000
v 0.004332 0.001219 0.015000
v 0.004300 0.001326 0.015000
v 0.004266 0.001433 0.015000
v 0.004229 0.001539 0.015000
v 0.004189 0.001644 0.015000
v 0.004147 0.001748 0.015000
v 0.004102 0.001851 0.015000
v 0.004054 0.001952 0.015000
v 0.004004 0.002053 0.015000
v 0.003952 0.002152 0.015000
v 0.003897 0.002250 0.015000
v 0.003840 0.002346 0.015000
v 0.003780 0.002441 0.015000
v 0.003718 0.002535 0.015000
v 0.003654 0.002627 0.015000
v 0.003587 0.002717 0.015000
v 0.003518 0.002806 0.015000
v 0.003447 0.002893 0.015000
v 0.003374 0.002978 0.015000
v 0.003299 0.003061 0.015000
v 0.003221 0.003142 0.015000
v 0.003142 0.003221 0.015000
v 0.003061 0.003299 0.015000
v 0.002978 0.003374 0.015000
v 0.002893 0.003447 0.015000
v 0.002806 0.003518 0.015000
v 0.002717 0.003587 0.015000
v 0.002627 0.003654 0.015000
v 0.002535 0.003718 0.015000
v 0.002441 0.003780 0.015000
v 0.002346 0.003840 0.015000
v 0.002250 0.003897 0.015000
v 0.002152 0.003952 0.015000
v 0.002053 0.004004 0.015000
v 0.001952 0.004054 0.015000
v 0.001851 0.004102 0.015000
v 0.001748 0.004147 0.015000
v 0.001644 0.004189 0.015000
v 0.001539 0.004229 0.015000
v 0.001433 0.004266 0.015000
v 0.001326 0.004300 0.015000
v 0.001219 0.004332 0.015000
v 0.001110 0.004361 0.015000
v 0.001001 0.004387 0.015000
v 0.000892 0.004411 0.015000
v 0.000781 0.004432 0.015000
v 0.000671 0.004450 0.015000
v 0.000560 0.004465 0.015000
v 0.000448 0.004478 0.015000
v 0.000336 0.004487 0.015000
v 0.000224 0.004494 0.015000
v 0.000112 0.004499 0.015000
v 0.000000 0.004500 0.015000
v -0.000112 0.004499 0.015000
v -0.000224 0.004494 0.015000
v -0.000336 0.004487 0.015000
v -0.000448 0.004478 0.015000
v -0.000560 0.004465 0.015000
v -0.000671 0.004450 0.015000
v -0.000781 0.004432 0.015000
v -0.000892 0.004411 0.015000
v -0.001001 0.004387 0.015000
v -0.001110 0.004361 0.015000
v -0.001219 0.004332 0.015000
v -0.001326 0.004300 0.015000
v -0.001433 0.004266 0.015000
v -0.001539 0.004229 0.015000
v -0.001644 0.004189 0.015000
v -0.001748 0.004147 0.015000
v -0.001851 0.004102 0.015000
v -0.001952 0.004054 0.015000
v -0.002053 0.004004 0.015000
v -0.002152 0.003952 0.015000
v -0.002250 0.003897 0.015000
v -0.002346 0.003840 0.015000
v -0.002441 0.003780 0.015000
v -0.002535 0.003718 0.015000
v -0.002627 0.003654 0.015000
v -0.002717 0.003587 0.015000
v -0.002806 0.003518 0.015000
v -0.002893 0.003447 0.015000
v -0.002978 0.003374 0.015000
v -0.003061 0.003299 0.015000
v -0.003142 0.003221 0.015000
v -0.003221 0.003142 0.015000
v -0.003299 0.003061 0.015000
v -0.003374 0.002978 0.015000
v -0.003447 0.002893 0.015000
v -0.003518 0.002806 0.015000
v -0.003587 0.002717 0.015000
v -0.003654 0.002627 0.015000
v -0.003718 0.002535 0.015000
v -0.003780 0.002441 0.015000
v -0.003840 0.002346 0.015000
v -0.003897 0.002250 0.015000
v -0.003952 0.002152 0.015000
v -0.004004 0.002053 0.015000
v -0.004054 0.001952 0.015000
v -0.004102 0.001851 0.015000
v -0.004147 0.001748 0.015000
v -0.004189 0.001644 0.015000
v -0.004229 0.001539 0.015000
v -0.004266 0.001433 0.015000
v -0.004300 0.001326 0.015000
v -0.004332 0.001219 0.015000
v -0.004361 0.001110 0.015000
v -0.004387 0.001001 0.015000
v -0.004411 0.000892 0.015000
v -0.004432 0.000781 0.015000
v -0.004450 0.000671 0.015000
v -0.004465 0.000560 0.015000
v -0.004478 0.000448 0.015000
v -0.004487 0.000336 0.015000
v -0.004494 0.000224 0.015000
v -0.004499 0.000112 0.015000
v -0.004500 -0.000000 0.015000
v -0.004499 -0.000112 0.015000
v -0.004494 -0.000224 0.015000
v -0.004487 -0.000336 0.015000
v -0.004478 -0.000448 0.015000
v -0.004465 -0.000560 0.015000
v -0.004450 -0.000671 0.015000
v -0.004432 -0.000781 0.015000
v -0.004411 -0.000892 0.015000
v -0.004387 -0.001001 0.015000
v -0.004361 -0.001110 0.015000
v -0.004332 -0.001219 0.015000
v -0.004300 -0.001326 0.015000
v -0.004266 -0.001433 0.015000
v -0.004229 -0.001539 0.015000
v -0.004189 -0.001644 0.015000
v -0.004147 -0.001748 0.015000
v -0.004102 -0.001851 0.015000
v -0.004054 -0.001952 0.015000
v -0.004004 -0.002053 0.015000
v -0.003952 -0.002152 0.015000
v -0.003897 -0.002250 0.015000
v -0.003840 -0.002346 0.015000
v -0.003780 -0.002441 0.015000
v -0.003718 -0.002535 0.015000
v -0.003654 -0.002627 0.015000
v -0.003587 -0.002717 0.015000
v -0.003518 -0.002806 0.015000
v -0.003447 -0.002893 0.015000
v -0.003374 -0.002978 0.015000
v -0.003299 -0.003061 0.015000
v -0.003221 -0.003142 0.015000
v -0.003142 -0.003221 0.015000
v -0.003061 -0.003299 0.015000
v -0.002978 -0.003374 0.015000
v -0.002893 -0.003447 0.015000
v -0.002806 -0.003518 0.015000
v -0.002717 -0.003587 0.015000
v -0.002627 -0.003654 0.015000
v -0.002535 -0.003718 0.015000
v -0.002441 -0.003780 0.015000
v -0.002346 -0.003840 0.015000
v -0.002250 -0.003897 0.015000
v -0.002152 -0.003952 0.015000
v -0.002053 -0.004004 0.015000
v -0.001952 -0.004054 0.015000
v -0.001851 -0.004102 0.015000
v -0.001748 -0.004147 0.015000
v -0.001644 -0.004189 0.015000
v -0.001539 -0.004229 0.015000
v -0.001433 -0.004266 0.015000
v -0.001326 -0.004300 0.015000
v -0.001219 -0.004332 0.015000
v -0.001110 -0.004361 0.015000
v -0.001001 -0.004387 0.015000
v -0.000892 -0.004411 0.015000
v -0.000781 -0.004432 0.015000
v -0.000671 -0.004450 0.015000
v -0.000560 -0.004465 0.015000
v -0.000448 -0.004478 0.015000
v -0.000336 -0.004487 0.015000
v -0.000224 -0.004494 0.015000
v -0.000112 -0.004499 0.015000
v 0.000000 -0.004500 0.015000
v 0.000112 -0.004499 0.015000
v 0.000224 -0.004494 0.015000
v 0.000336 -0.004487 0.015000
v 0.000448 -0.004478 0.015000
v 0.000560 -0.004465 0.015000
v 0.000671 -0.004450 0.015000
v 0.000781 -0.004432 0.015000
v 0.000892 -0.004411 0.015000
v 0.001001 -0.004387 0.015000
v 0.001110 -0.004361 0.015000
v 0.001219 -0.004332 0.015000
v 0.001326 -0.004300 0.015000
v 0.001433 -0.004266 0.015000
v 0.001539 -0.004229 0.015000
v 0.001644 -0.004189 0.015000
v 0.001748 -0.004147 0.015000
v 0.001851 -0.004102 0.015000
v 0.001952 -0.004054 0.015000
v 0.002053 -0.004004 0.015000
v 0.002152 -0.003952 0.015000
v 0.002250 -0.003897 0.015000
v 0.002346 -0.003840 0.015000
v 0.002441 -0.003780 0.015000
v 0.002535 -0.003718 0.015000
v 0.002627 -0.003654 0.015000
v 0.002717 -0.003587 0.015000
v 0.002806 -0.003518 0.015000
v 0.002893 -0.003447 0.015000
v 0.002978 -0.003374 0.015000
v 0.003061 -0.003299 0.015000
v 0.003142 -0.003221 0.015000
v 0.003221 -0.003142 0.015000
v 0.003299 -0.003061 0.015000
v 0.003374 -0.002978 0.015000
v 0.003447 -0.002893 0.015000
v 0.003518 -0.002806 0.015000
v 0.003587 -0.002717 0.015000
v 0.003654 -0.002627 0.015000
v 0.003718 -0.002535 0.015000
v 0.003780 -0.002441 0.015000
v 0.003840 -0.002346 0.015000
v 0.003897 -0.002250 0.015000
v 0.003952 -0.002152 0.015000
v 0.004004 -0.002053 0.015000
v 0.004054 -0.001952 0.015000
v 0.004102 -0.001851 0.015000
v 0.004147 -0.001748 0.015000
v 0.004189 -0.001644 0.015000
v 0.004229 -0.001539 0.015000
v 0.004266 -0.001433 0.015000
v 0.004300 -0.001326 0.015000
v 0.004332 -0.001219 0.015000
v 0.004361 -0.001110 0.015000
v 0.004387 -0.001001 0.015000
v 0.004411 -0.000892 0.015000
v 0.004432 -0.000781 0.015000
v 0.004450 -0.000671 0.015000
v 0.004465 -0.000560 0.015000
v 0.004478 -0.000448 0.015000
v 0.004487 -0.000336 0.015000
v 0.004494 -0.000224 0.015000
v 0.004499 -0.000112 0.015000
v 0.005150 0.007350 0.051000
v 0.004800 0.007350 0.050650
v 0.005150 0.007000 0.050650
v 0.005150 0.007350 -0.051000
v 0.005150 0.008650 -0.051000
v 0.040450 0.007350 -0.051000
v 0.040450 0.008650 -0.051000
v 0.005150 0.008650 -0.051000
v 0.004800 0.008650 -0.050650
v 0.005150 0.009000 -0.050650
v 0.005150 0.007350 0.051000
v 0.005150 0.008650 0.051000
v 0.040450 0.007350 0.051000
v 0.040450 0.008650 0.051000
v 0.005150 0.009000 0.050650
v 0.004800 0.008650 0.050650
v 0.005150 0.008650 0.051000
v 0.005150 0.009000 -0.050650
v 0.005150 0.009000 0.050650
v 0.040450 0.009000 0.050650
v 0.040450 0.009000 -0.050650
v 0.005150 0.007350 -0.051000
v 0.005150 0.007000 -0.050650
v 0.040450 0.007000 -0.050650
v 0.040450 0.007350 -0.051000
v 0.040800 0.007350 -0.050650
v 0.040800 0.007350 0.050650
v 0.040450 0.007000 0.050650
v 0.040450 0.007000 -0.050650
v 0.005150 0.007350 0.051000
v 0.005150 0.007000 0.050650
v 0.040450 0.007000 0.050650
v 0.040450 0.007350 0.051000
v 0.008550 0.001750 0.015000
v 0.008550 0.007000 0.015000
v 0.008800 0.001750 0.014750
v 0.008800 0.007000 0.014750
v 0.008800 0.001750 -0.014750
v 0.008800 0.001750 0.014750
v 0.008800 0.007000 -0.014750
v 0.008800 0.007000 0.014750
v 0.008550 0.001750 -0.015000
v 0.008550 0.007000 -0.015000
v 0.008800 0.001750 -0.014750
v 0.008800 0.007000 -0.014750
v 0.006260 0.001750 -0.015000
v 0.008550 0.001750 -0.015000
v 0.006278 0.001683 -0.014933
v 0.006296 0.001615 -0.014865
v 0.006311 0.001558 -0.014808
v 0.006325 0.001500 -0.014750
v 0.008550 0.001500 -0.014750
v 0.004800 0.004383 0.014750
v 0.004800 0.004383 -0.014750
v 0.004800 0.007250 -0.014750
v 0.004800 0.007250 0.014750
v 0.005050 0.004092 0.015000
v 0.004946 0.004217 0.015000
v 0.004839 0.004340 0.015000
v 0.004729 0.004459 0.015000
v 0.004616 0.004576 0.015000
v 0.004500 0.004690 0.015000
v 0.004382 0.004801 0.015000
v 0.004260 0.004909 0.015000
v 0.004136 0.005014 0.015000
v 0.004010 0.005116 0.015000
v 0.003881 0.005214 0.015000
v 0.003749 0.005310 0.015000
v 0.003615 0.005402 0.015000
v 0.003479 0.005491 0.015000
v 0.003341 0.005576 0.015000
v 0.003200 0.005658 0.015000
v 0.003058 0.005736 0.015000
v 0.002913 0.005810 0.015000
v 0.002767 0.005881 0.015000
v 0.002619 0.005949 0.015000
v 0.002470 0.006012 0.015000
v 0.002319 0.006072 0.015000
v 0.002166 0.006128 0.015000
v 0.002013 0.006181 0.015000
v 0.001857 0.006229 0.015000
v 0.001701 0.006273 0.015000
v 0.001544 0.006314 0.015000
v 0.001385 0.006351 0.015000
v 0.001226 0.006383 0.015000
v 0.001066 0.006412 0.015000
v 0.000906 0.006437 0.015000
v 0.000745 0.006457 0.015000
v 0.000583 0.006474 0.015000
v 0.000421 0.006486 0.015000
v 0.000259 0.006495 0.015000
v 0.000096 0.006499 0.015000
v -0.000066 0.006500 0.015000
v -0.000229 0.006496 0.015000
v -0.000391 0.006488 0.015000
v -0.000553 0.006476 0.015000
v -0.000715 0.006461 0.015000
v -0.000876 0.006441 0.015000
v -0.001037 0.006417 0.015000
v -0.001197 0.006389 0.015000
v -0.001356 0.006357 0.015000
v -0.001515 0.006321 0.015000
v -0.001672 0.006281 0.015000
v -0.001829 0.006237 0.015000
v -0.001984 0.006190 0.015000
v -0.002138 0.006138 0.015000
v -0.002291 0.006083 0.015000
v -0.002442 0.006024 0.015000
v -0.002592 0.005961 0.015000
v -0.002740 0.005894 0.015000
v -0.002887 0.005824 0.015000
v -0.003031 0.005750 0.015000
v -0.003174 0.005672 0.015000
v -0.003315 0.005591 0.015000
v -0.003454 0.005507 0.015000
v -0.003590 0.005419 0.015000
v -0.003725 0.005327 0.015000
v -0.003857 0.005232 0.015000
v -0.003986 0.005134 0.015000
v -0.004113 0.005033 0.015000
v -0.004238 0.004929 0.015000
v -0.004360 0.004821 0.015000
v -0.004479 0.004711 0.015000
v -0.004595 0.004597 0.015000
v -0.004709 0.004481 0.015000
v -0.004819 0.004362 0.015000
v -0.004927 0.004240 0.015000
v -0.005031 0.004116 0.015000
v -0.005132 0.003989 0.015000
v -0.005231 0.003859 0.015000
v -0.005325 0.003727 0.015000
v -0.005417 0.003593 0.015000
v -0.005505 0.003456 0.015000
v -0.005590 0.003318 0.015000
v -0.005671 0.003177 0.015000
v -0.005748 0.003034 0.015000
v -0.005822 0.002889 0.015000
v -0.005893 0.002743 0.015000
v -0.005960 0.002595 0.015000
v -0.006023 0.002445 0.015000
v -0.006082 0.002294 0.015000
v -0.006137 0.002141 0.015000
v -0.006189 0.001987 0.015000
v -0.006237 0.001832 0.015000
v -0.006280 0.001675 0.015000
v -0.006320 0.001518 0.015000
v -0.006356 0.001359 0.015000
v -0.006388 0.001200 0.015000
v -0.006416 0.001040 0.015000
v -0.006440 0.000879 0.015000
v -0.006460 0.000718 0.015000
v -0.006476 0.000556 0.015000
v -0.006488 0.000394 0.015000
v -0.006496 0.000232 0.015000
v -0.006500 0.000069 0.015000
v -0.006499 -0.000093 0.015000
v -0.006495 -0.000256 0.015000
v -0.006487 -0.000418 0.015000
v -0.006474 -0.000580 0.015000
v -0.006458 -0.000742 0.015000
v -0.006437 -0.000903 0.015000
v -0.006412 -0.001063 0.015000
v -0.006384 -0.001223 0.015000
v -0.006351 -0.001382 0.015000
v -0.006315 -0.001541 0.015000
v -0.006274 -0.001698 0.015000
v -0.006230 -0.001854 0.015000
v -0.006182 -0.002010 0.015000
v -0.006129 -0.002163 0.015000
v -0.006073 -0.002316 0.015000
v -0.006014 -0.002467 0.015000
v -0.005950 -0.002617 0.015000
v -0.005883 -0.002765 0.015000
v -0.005812 -0.002911 0.015000
v -0.005737 -0.003055 0.015000
v -0.005659 -0.003198 0.015000
v -0.005577 -0.003338 0.015000
v -0.005492 -0.003476 0.015000
v -0.005404 -0.003613 0.015000
v -0.005312 -0.003747 0.015000
v -0.005216 -0.003878 0.015000
v -0.005118 -0.004007 0.015000
v -0.005016 -0.004134 0.015000
v -0.004911 -0.004258 0.015000
v -0.004803 -0.004380 0.015000
v -0.004692 -0.004498 0.015000
v -0.004578 -0.004614 0.015000
v -0.004461 -0.004727 0.015000
v -0.004342 -0.004837 0.015000
v -0.004220 -0.004944 0.015000
v -0.004095 -0.005048 0.015000
v -0.003967 -0.005149 0.015000
v -0.003837 -0.005246 0.015000
v -0.003705 -0.005341 0.015000
v -0.003570 -0.005432 0.015000
v -0.003433 -0.005519 0.015000
v -0.003294 -0.005603 0.015000
v -0.003153 -0.005684 0.015000
v -0.003010 -0.005761 0.015000
v -0.002865 -0.005834 0.015000
v -0.002719 -0.005904 0.015000
v -0.002570 -0.005970 0.015000
v -0.002420 -0.006033 0.015000
v -0.002269 -0.006091 0.015000
v -0.002116 -0.006146 0.015000
v -0.001961 -0.006197 0.015000
v -0.001806 -0.006244 0.015000
v -0.001649 -0.006287 0.015000
v -0.001491 -0.006327 0.015000
v -0.001333 -0.006362 0.015000
v -0.001173 -0.006393 0.015000
v -0.001013 -0.006421 0.015000
v -0.000852 -0.006444 0.015000
v -0.000691 -0.006463 0.015000
v -0.000529 -0.006478 0.015000
v -0.000367 -0.006490 0.015000
v -0.000205 -0.006497 0.015000
v -0.000042 -0.006500 0.015000
v 0.000120 -0.006499 0.015000
v 0.000282 -0.006494 0.015000
v 0.000445 -0.006485 0.015000
v 0.000607 -0.006472 0.015000
v 0.000768 -0.006454 0.015000
v 0.000929 -0.006433 0.015000
v 0.001090 -0.006408 0.015000
v 0.001250 -0.006379 0.015000
v 0.001409 -0.006346 0.015000
v 0.001567 -0.006308 0.015000
v 0.001724 -0.006267 0.015000
v 0.001880 -0.006222 0.015000
v 0.002035 -0.006173 0.015000
v 0.002189 -0.006120 0.015000
v 0.002341 -0.006064 0.015000
v 0.002492 -0.006003 0.015000
v 0.002641 -0.005939 0.015000
v 0.002789 -0.005871 0.015000
v 0.002935 -0.005800 0.015000
v 0.003079 -0.005725 0.015000
v 0.003221 -0.005646 0.015000
v 0.003361 -0.005564 0.015000
v 0.003499 -0.005478 0.015000
v 0.003635 -0.005389 0.015000
v 0.003768 -0.005296 0.015000
v 0.003900 -0.005200 0.015000
v 0.004028 -0.005101 0.015000
v 0.004155 -0.004999 0.015000
v 0.004278 -0.004893 0.015000
v 0.004399 -0.004785 0.015000
v 0.004518 -0.004673 0.015000
v 0.004633 -0.004559 0.015000
v 0.004746 -0.004442 0.015000
v 0.004855 -0.004322 0.015000
v 0.004962 -0.004199 0.015000
v 0.005065 -0.004074 0.015000
v 0.005165 -0.003946 0.015000
v 0.005262 -0.003816 0.015000
v 0.005356 -0.003683 0.015000
v 0.005446 -0.003548 0.015000
v 0.005533 -0.003411 0.015000
v 0.005617 -0.003271 0.015000
v 0.005697 -0.003130 0.015000
v 0.005773 -0.002986 0.015000
v 0.005846 -0.002841 0.015000
v 0.005915 -0.002694 0.015000
v 0.005981 -0.002545 0.015000
v 0.006043 -0.002395 0.015000
v 0.006101 -0.002243 0.015000
v 0.006155 -0.002090 0.015000
v 0.006205 -0.001936 0.015000
v 0.006252 -0.001780 0.015000
v 0.006294 -0.001623 0.015000
v 0.006333 -0.001465 0.015000
v 0.006367 -0.001307 0.015000
v 0.006398 -0.001147 0.015000
v 0.006425 -0.000987 0.015000
v 0.006447 -0.000826 0.015000
v 0.006466 -0.000664 0.015000
v 0.006481 -0.000503 0.015000
v 0.006491 -0.000340 0.015000
v 0.006498 -0.000178 0.015000
v 0.006500 -0.000016 0.015000
v 0.006498 0.000147 0.015000
v 0.006493 0.000309 0.015000
v 0.006483 0.000472 0.015000
v 0.006469 0.000633 0.015000
v 0.006451 0.000795 0.015000
v 0.006429 0.000956 0.015000
v 0.006403 0.001116 0.015000
v 0.006374 0.001276 0.015000
v 0.006340 0.001435 0.015000
v 0.006302 0.001593 0.015000
v 0.006260 0.001750 0.015000
v 0.006278 0.001683 0.014933
v 0.006296 0.001615 0.014865
v 0.006311 0.001558 0.014808
v 0.006325 0.001500 0.014750
v 0.006325 0.001500 -0.014750
v 0.006260 0.001750 -0.015000
v 0.006278 0.001683 -0.014933
v 0.006296 0.001615 -0.014865
v 0.006311 0.001558 -0.014808
v 0.006302 0.001593 -0.015000
v 0.006340 0.001435 -0.015000
v 0.006374 0.001276 -0.015000
v 0.006403 0.001116 -0.015000
v 0.006429 0.000956 -0.015000
v 0.006451 0.000795 -0.015000
v 0.006469 0.000633 -0.015000
v 0.006483 0.000472 -0.015000
v 0.006493 0.000309 -0.015000
v 0.006498 0.000147 -0.015000
v 0.006500 -0.000016 -0.015000
v 0.006498 -0.000178 -0.015000
v 0.006491 -0.000340 -0.015000
v 0.006481 -0.000503 -0.015000
v 0.006466 -0.000664 -0.015000
v 0.006447 -0.000826 -0.015000
v 0.006425 -0.000987 -0.015000
v 0.006398 -0.001147 -0.015000
v 0.006367 -0.001307 -0.015000
v 0.006333 -0.001465 -0.015000
v 0.006294 -0.001623 -0.015000
v 0.006252 -0.001780 -0.015000
v 0.006205 -0.001936 -0.015000
v 0.006155 -0.002090 -0.015000
v 0.006101 -0.002243 -0.015000
v 0.006043 -0.002395 -0.015000
v 0.005981 -0.002545 -0.015000
v 0.005915 -0.002694 -0.015000
v 0.005846 -0.002841 -0.015000
v 0.005773 -0.002986 -0.015000
v 0.005697 -0.003130 -0.015000
v 0.005617 -0.003271 -0.015000
v 0.005533 -0.003411 -0.015000
v 0.005446 -0.003548 -0.015000
v 0.005356 -0.003683 -0.015000
v 0.005262 -0.003816 -0.015000
v 0.005165 -0.003946 -0.015000
v 0.005065 -0.004074 -0.015000
v 0.004962 -0.004199 -0.015000
v 0.004855 -0.004322 -0.015000
v 0.004746 -0.004442 -0.015000
v 0.004633 -0.004559 -0.015000
v 0.004518 -0.004673 -0.015000
v 0.004399 -0.004785 -0.015000
v 0.004278 -0.004893 -0.015000
v 0.004155 -0.004999 -0.015000
v 0.004028 -0.005101 -0.015000
v 0.003900 -0.005200 -0.015000
v 0.003768 -0.005296 -0.015000
v 0.003635 -0.005389 -0.015000
v 0.003499 -0.005478 -0.015000
v 0.003361 -0.005564 -0.015000
v 0.003221 -0.005646 -0.015000
v 0.003079 -0.005725 -0.015000
v 0.002935 -0.005800 -0.015000
v 0.002789 -0.005871 -0.015000
v 0.002641 -0.005939 -0.015000
v 0.002492 -0.006003 -0.015000
v 0.002341 -0.006064 -0.015000
v 0.002189 -0.006120 -0.015000
v 0.002035 -0.006173 -0.015000
v 0.001880 -0.006222 -0.015000
v 0.001724 -0.006267 -0.015000
v 0.001567 -0.006308 -0.015000
v 0.001409 -0.006346 -0.015000
v 0.001250 -0.006379 -0.015000
v 0.001090 -0.006408 -0.015000
v 0.000929 -0.006433 -0.015000
v 0.000768 -0.006454 -0.015000
v 0.000607 -0.006472 -0.015000
v 0.000445 -0.006485 -0.015000
v 0.000282 -0.006494 -0.015000
v 0.000120 -0.006499 -0.015000
v -0.000042 -0.006500 -0.015000
v -0.000205 -0.006497 -0.015000
v -0.000367 -0.006490 -0.015000
v -0.000529 -0.006478 -0.015000
v -0.000691 -0.006463 -0.015000
v -0.000852 -0.006444 -0.015000
v -0.001013 -0.006421 -0.015000
v -0.001173 -0.006393 -0.015000
v -0.001333 -0.006362 -0.015000
v -0.001491 -0.006327 -0.015000
v -0.001649 -0.006287 -0.015000
v -0.001806 -0.006244 -0.015000
v -0.001961 -0.006197 -0.015000
v -0.002116 -0.006146 -0.015000
v -0.002269 -0.006091 -0.015000
v -0.002420 -0.006033 -0.015000
v -0.002570 -0.005970 -0.015000
v -0.002719 -0.005904 -0.015000
v -0.002865 -0.005834 -0.015000
v -0.003010 -0.005761 -0.015000
v -0.003153 -0.005684 -0.015000
v -0.003294 -0.005603 -0.015000
v -0.003433 -0.005519 -0.015000
v -0.003570 -0.005432 -0.015000
v -0.003705 -0.005341 -0.015000
v -0.003837 -0.005246 -0.015000
v -0.003967 -0.005149 -0.015000
v -0.004095 -0.005048 -0.015000
v -0.004220 -0.004944 -0.015000
v -0.004342 -0.004837 -0.015000
v -0.004461 -0.004727 -0.015000
v -0.004578 -0.004614 -0.015000
v -0.004692 -0.004498 -0.015000
v -0.004803 -0.004380 -0.015000
v -0.004911 -0.004258 -0.015000
v -0.005016 -0.004134 -0.015000
v -0.005118 -0.004007 -0.015000
v -0.005216 -0.003878 -0.015000
v -0.005312 -0.003747 -0.015000
v -0.005404 -0.003613 -0.015000
v -0.005492 -0.003476 -0.015000
v -0.005577 -0.003338 -0.015000
v -0.005659 -0.003198 -0.015000
v -0.005737 -0.003055 -0.015000
v -0.005812 -0.002911 -0.015000
v -0.005883 -0.002765 -0.015000
v -0.005950 -0.002617 -0.015000
v -0.006014 -0.002467 -0.015000
v -0.006073 -0.002316 -0.015000
v -0.006129 -0.002163 -0.015000
v -0.006182 -0.002010 -0.015000
v -0.006230 -0.001854 -0.015000
v -0.006274 -0.001698 -0.015000
v -0.006315 -0.001541 -0.015000
v -0.006351 -0.001382 -0.015000
v -0.006384 -0.001223 -0.015000
v -0.006412 -0.001063 -0.015000
v -0.006437 -0.000903 -0.015000
v -0.006458 -0.000742 -0.015000
v -0.006474 -0.000580 -0.015000
v -0.006487 -0.000418 -0.015000
v -0.006495 -0.000256 -0.015000
v -0.006499 -0.000093 -0.015000
v -0.006500 0.000069 -0.015000
v -0.006496 0.000232 -0.015000
v -0.006488 0.000394 -0.015000
v -0.006476 0.000556 -0.015000
v -0.006460 0.000718 -0.015000
v -0.006440 0.000879 -0.015000
v -0.006416 0.001040 -0.015000
v -0.006388 0.001200 -0.015000
v -0.006356 0.001359 -0.015000
v -0.006320 0.001518 -0.015000
v -0.006280 0.001675 -0.015000
v -0.006237 0.001832 -0.015000
v -0.006189 0.001987 -0.015000
v -0.006137 0.002141 -0.015000
v -0.006082 0.002294 -0.015000
v -0.006023 0.002445 -0.015000
v -0.005960 0.002595 -0.015000
v -0.005893 0.002743 -0.015000
v -0.005822 0.002889 -0.015000
v -0.005748 0.003034 -0.015000
v -0.005671 0.003177 -0.015000
v -0.005590 0.003318 -0.015000
v -0.005505 0.003456 -0.015000
v -0.005417 0.003593 -0.015000
v -0.005325 0.003727 -0.015000
v -0.005231 0.003859 -0.015000
v -0.005132 0.003989 -0.015000
v -0.005031 0.004116 -0.015000
v -0.004927 0.004240 -0.015000
v -0.004819 0.004362 -0.015000
v -0.004709 0.004481 -0.015000
v -0.004595 0.004597 -0.015000
v -0.004479 0.004711 -0.015000
v -0.004360 0.004821 -0.015000
v -0.004238 0.004929 -0.015000
v -0.004113 0.005033 -0.015000
v -0.003986 0.005134 -0.015000
v -0.003857 0.005232 -0.015000
v -0.003725 0.005327 -0.015000
v -0.003590 0.005419 -0.015000
v -0.003454 0.005507 -0.015000
v -0.003315 0.005591 -0.015000
v -0.003174 0.005672 -0.015000
v -0.003031 0.005750 -0.015000
v -0.002887 0.005824 -0.015000
v -0.002740 0.005894 -0.015000
v -0.002592 0.005961 -0.015000
v -0.002442 0.006024 -0.015000
v -0.002291 0.006083 -0.015000
v -0.002138 0.006138 -0.015000
v -0.001984 0.006190 -0.015000
v -0.001829 0.006237 -0.015000
v -0.001672 0.006281 -0.015000
v -0.001515 0.006321 -0.015000
v -0.001356 0.006357 -0.015000
v -0.001197 0.006389 -0.015000
v -0.001037 0.006417 -0.015000
v -0.000876 0.006441 -0.015000
v -0.000715 0.006461 -0.015000
v -0.000553 0.006476 -0.015000
v -0.000391 0.006488 -0.015000
v -0.000229 0.006496 -0.015000
v -0.000066 0.006500 -0.015000
v 0.000096 0.006499 -0.015000
v 0.000259 0.006495 -0.015000
v 0.000421 0.006486 -0.015000
v 0.000583 0.006474 -0.015000
v 0.000745 0.006457 -0.015000
v 0.000906 0.006437 -0.015000
v 0.001066 0.006412 -0.015000
v 0.001226 0.006383 -0.015000
v 0.001385 0.006351 -0.015000
v 0.001544 0.006314 -0.015000
v 0.001701 0.006273 -0.015000
v 0.001857 0.006229 -0.015000
v 0.002013 0.006181 -0.015000
v 0.002166 0.006128 -0.015000
v 0.002319 0.006072 -0.015000
v 0.002470 0.006012 -0.015000
v 0.002619 0.005949 -0.015000
v 0.002767 0.005881 -0.015000
v 0.002913 0.005810 -0.015000
v 0.003058 0.005736 -0.015000
v 0.003200 0.005658 -0.015000
v 0.003341 0.005576 -0.015000
v 0.003479 0.005491 -0.015000
v 0.003615 0.005402 -0.015000
v 0.003749 0.005310 -0.015000
v 0.003881 0.005214 -0.015000
v 0.004010 0.005116 -0.015000
v 0.004136 0.005014 -0.015000
v 0.004260 0.004909 -0.015000
v 0.004382 0.004801 -0.015000
v 0.004500 0.004690 -0.015000
v 0.004616 0.004576 -0.015000
v 0.004729 0.004459 -0.015000
v 0.004839 0.004340 -0.015000
v 0.004946 0.004217 -0.015000
v 0.005050 0.004092 -0.015000
v 0.004800 0.004383 -0.014750
v 0.004843 0.004336 -0.014793
v 0.004885 0.004288 -0.014835
v 0.004927 0.004239 -0.014877
v 0.004969 0.004191 -0.014919
v 0.005010 0.004142 -0.014960
v 0.004800 0.004383 0.014750
v 0.004843 0.004336 0.014793
v 0.004885 0.004288 0.014835
v 0.004927 0.004239 0.014877
v 0.004969 0.004191 0.014919
v 0.005010 0.004142 0.014960
v 0.006260 0.001750 0.015000
v 0.008550 0.001750 0.015000
v 0.006278 0.001683 0.014933
v 0.006296 0.001615 0.014865
v 0.006311 0.001558 0.014808
v 0.006325 0.001500 0.014750
v 0.008550 0.001500 0.014750
v 0.005150 0.008650 -0.051000
v 0.005150 0.009000 -0.050650
v 0.040450 0.009000 -0.050650
v 0.040450 0.008650 -0.051000
v 0.040450 0.007350 -0.051000
v 0.040800 0.007350 -0.050650
v 0.040800 0.008650 -0.050650
v 0.040450 0.008650 -0.051000
v 0.005150 0.009000 0.050650
v 0.005150 0.008650 0.051000
v 0.040450 0.009000 0.050650
v 0.040450 0.008650 0.051000
v 0.040450 0.007350 0.051000
v 0.040800 0.007350 0.050650
v 0.040800 0.008650 0.050650
v 0.040450 0.008650 0.051000
v 0.040800 0.008650 -0.050650
v 0.040800 0.008650 0.050650
v 0.040450 0.009000 0.050650
v 0.040450 0.009000 -0.050650
v 0.040450 0.007350 -0.051000
v 0.040800 0.007350 -0.050650
v 0.040450 0.007000 -0.050650
v 0.040800 0.007350 -0.050650
v 0.040800 0.007350 0.050650
v 0.040800 0.008650 -0.050650
v 0.040800 0.008650 0.050650
v 0.040450 0.007350 0.051000
v 0.040800 0.007350 0.050650
v 0.040450 0.007000 0.050650
v 0.008550 0.001750 0.015000
v 0.008800 0.001750 0.014750
v 0.008550 0.001500 0.014750
v 0.008800 0.001750 -0.014750
v 0.008800 0.001750 0.014750
v 0.008550 0.001500 0.014750
v 0.008550 0.001500 -0.014750
v 0.008550 0.001750 -0.015000
v 0.008800 0.001750 -0.014750
v 0.008550 0.001500 -0.014750
v 0.006325 0.001500 -0.014750
v 0.008550 0.001500 -0.014750
v 0.006325 0.001500 0.014750
v 0.008550 0.001500 0.014750
v 0.040450 0.008650 -0.051000
v 0.040800 0.008650 -0.050650
v 0.040450 0.009000 -0.050650
v 0.040450 0.009000 0.050650
v 0.040800 0.008650 0.050650
v 0.040450 0.008650 0.051000
v 0.004500 -0.000000 -0.015000
v 0.004500 -0.000000 0.015000
v 0.004499 0.000112 0.015000
v 0.004494 0.000224 0.015000
v 0.004487 0.000336 0.015000
v 0.004478 0.000448 0.015000
v 0.004465 0.000560 0.015000
v 0.004450 0.000671 0.015000
v 0.004432 0.000781 0.015000
v 0.004411 0.000892 0.015000
v 0.004387 0.001001 0.015000
v 0.004361 0.001110 0.015000
v 0.004332 0.001219 0.015000
v 0.004300 0.001326 0.015000
v 0.004266 0.001433 0.015000
v 0.004229 0.001539 0.015000
v 0.004189 0.001644 0.015000
v 0.004147 0.001748 0.015000
v 0.004102 0.001851 0.015000
v 0.004054 0.001952 0.015000
v 0.004004 0.002053 0.015000
v 0.003952 0.002152 0.015000
v 0.003897 0.002250 0.015000
v 0.003840 0.002346 0.015000
v 0.003780 0.002441 0.015000
v 0.003718 0.002535 0.015000
v 0.003654 0.002627 0.015000
v 0.003587 0.002717 0.015000
v 0.003518 0.002806 0.015000
v 0.003447 0.002893 0.015000
v 0.003374 0.002978 0.015000
v 0.003299 0.003061 0.015000
v 0.003221 0.003142 0.015000
v 0.003142 0.003221 0.015000
v 0.003061 0.003299 0.015000
v 0.002978 0.003374 0.015000
v 0.002893 0.003447 0.015000
v 0.002806 0.003518 0.015000
v 0.002717 0.003587 0.015000
v 0.002627 0.003654 0.015000
v 0.002535 0.003718 0.015000
v 0.002441 0.003780 0.015000
v 0.002346 0.003840 0.015000
v 0.002250 0.003897 0.015000
v 0.002152 0.003952 0.015000
v 0.002053 0.004004 0.015000
v 0.001952 0.004054 0.015000
v 0.001851 0.004102 0.015000
v 0.001748 0.004147 0.015000
v 0.001644 0.004189 0.015000
v 0.001539 0.004229 0.015000
v 0.001433 0.004266 0.015000
v 0.001326 0.004300 0.015000
v 0.001219 0.004332 0.015000
v 0.001110 0.004361 0.015000
v 0.001001 0.004387 0.015000
v 0.000892 0.004411 0.015000
v 0.000781 0.004432 0.015000
v 0.000671 0.004450 0.015000
v 0.000560 0.004465 0.015000
v 0.000448 0.004478 0.015000
v 0.000336 0.004487 0.015000
v 0.000224 0.004494 0.015000
v 0.000112 0.004499 0.015000
v 0.000000 0.004500 0.015000
v -0.000112 0.004499 0.015000
v -0.000224 0.004494 0.015000
v -0.000336 0.004487 0.015000
v -0.000448 0.004478 0.015000
v -0.000560 0.004465 0.015000
v -0.000671 0.004450 0.015000
v -0.000781 0.004432 0.015000
v -0.000892 0.004411 0.015000
v -0.001001 0.004387 0.015000
v -0.001110 0.004361 0.015000
v -0.001219 0.004332 0.015000
v -0.001326 0.004300 0.015000
v -0.001433 0.004266 0.015000
v -0.001539 0.004229 0.015000
v -0.001644 0.004189 0.015000
v -0.001748 0.004147 0.015000
v -0.001851 0.004102 0.015000
v -0.001952 0.004054 0.015000
v -0.002053 0.004004 0.015000
v -0.002152 0.003952 0.015000
v -0.002250 0.003897 0.015000
v -0.002346 0.003840 0.015000
v -0.002441 0.003780 0.015000
v -0.002535 0.003718 0.015000
v -0.002627 0.003654 0.015000
v -0.002717 0.003587 0.015000
v -0.002806 0.003518 0.015000
v -0.002893 0.003447 0.015000
v -0.002978 0.003374 0.015000
v -0.003061 0.003299 0.015000
v -0.003142 0.003221 0.015000
v -0.003221 0.003142 0.015000
v -0.003299 0.003061 0.015000
v -0.003374 0.002978 0.015000
v -0.003447 0.002893 0.015000
v -0.003518 0.002806 0.015000
v -0.003587 0.002717 0.015000
v -0.003654 0.002627 0.015000
v -0.003718 0.002535 0.015000
v -0.003780 0.002441 0.015000
v -0.003840 0.002346 0.015000
v -0.003897 0.002250 0.015000
v -0.003952 0.002152 0.015000
v -0.004004 0.002053 0.015000
v -0.004054 0.001952 0.015000
v -0.004102 0.001851 0.015000
v -0.004147 0.001748 0.015000
v -0.004189 0.001644 0.015000
v -0.004229 0.001539 0.015000
v -0.004266 0.001433 0.015000
v -0.004300 0.001326 0.015000
v -0.004332 0.001219 0.015000
v -0.004361 0.001110 0.015000
v -0.004387 0.001001 0.015000
v -0.004411 0.000892 0.015000
v -0.004432 0.000781 0.015000
v -0.004450 0.000671 0.015000
v -0.004465 0.000560 0.015000
v -0.004478 0.000448 0.015000
v -0.004487 0.000336 0.015000
v -0.004494 0.000224 0.015000
v -0.004499 0.000112 0.015000
v -0.004500 -0.000000 0.015000
v -0.004499 -0.000112 0.015000
v -0.004494 -0.000224 0.015000
v -0.004487 -0.000336 0.015000
v -0.004478 -0.000448 0.015000
v -0.004465 -0.000560 0.015000
v -0.004450 -0.000671 0.015000
v -0.004432 -0.000781 0.015000
v -0.004411 -0.000892 0.015000
v -0.004387 -0.001001 0.015000
v -0.004361 -0.001110 0.015000
v -0.004332 -0.001219 0.015000
v -0.004300 -0.001326 0.015000
v -0.004266 -0.001433 0.015000
v -0.004229 -0.001539 0.015000
v -0.004189 -0.001644 0.015000
v -0.004147 -0.001748 0.015000
v -0.004102 -0.001851 0.015000
v -0.004054 -0.001952 0.015000
v -0.004004 -0.002053 0.015000
v -0.003952 -0.002152 0.015000
v -0.003897 -0.002250 0.015000
v -0.003840 -0.002346 0.015000
v -0.003780 -0.002441 0.015000
v -0.003718 -0.002535 0.015000
v -0.003654 -0.002627 0.015000
v -0.003587 -0.002717 0.015000
v -0.003518 -0.002806 0.015000
v -0.003447 -0.002893 0.015000
v -0.003374 -0.002978 0.015000
v -0.003299 -0.003061 0.015000
v -0.003221 -0.003142 0.015000
v -0.003142 -0.003221 0.015000
v -0.003061 -0.003299 0.015000
v -0.002978 -0.003374 0.015000
v -0.002893 -0.003447 0.015000
v -0.002806 -0.003518 0.015000
v -0.002717 -0.003587 0.015000
v -0.002627 -0.003654 0.015000
v -0.002535 -0.003718 0.015000
v -0.002441 -0.003780 0.015000
v -0.002346 -0.003840 0.015000
v -0.002250 -0.003897 0.015000
v -0.002152 -0.003952 0.015000
v -0.002053 -0.004004 0.015000
v -0.001952 -0.004054 0.015000
v -0.001851 -0.004102 0.015000
v -0.001748 -0.004147 0.015000
v -0.001644 -0.004189 0.015000
v -0.001539 -0.004229 0.015000
v -0.001433 -0.004266 0.015000
v -0.001326 -0.004300 0.015000
v -0.001219 -0.004332 0.015000
v -0.001110 -0.004361 0.015000
v -0.001001 -0.004387 0.015000
v -0.000892 -0.004411 0.015000
v -0.000781 -0.004432 0.015000
v -0.000671 -0.004450 0.015000
v -0.000560 -0.004465 0.015000
v -0.000448 -0.004478 0.015000
v -0.000336 -0.004487 0.015000
v -0.000224 -0.004494 0.015000
v -0.000112 -0.004499 0.015000
v 0.000000 -0.004500 0.015000
v 0.000112 -0.004499 0.015000
v 0.000224 -0.004494 0.015000
v 0.000336 -0.004487 0.015000
v 0.000448 -0.004478 0.015000
v 0.000560 -0.004465 0.015000
v 0.000671 -0.004450 0.015000
v 0.000781 -0.004432 0.015000
v 0.000892 -0.004411 0.015000
v 0.001001 -0.004387 0.015000
v 0.001110 -0.004361 0.015000
v 0.001219 -0.004332 0.015000
v 0.001326 -0.004300 0.015000
v 0.001433 -0.004266 0.015000
v 0.001539 -0.004229 0.015000
v 0.001644 -0.004189 0.015000
v 0.001748 -0.004147 0.015000
v 0.001851 -0.004102 0.015000
v 0.001952 -0.004054 0.015000
v 0.002053 -0.004004 0.015000
v 0.002152 -0.003952 0.015000
v 0.002250 -0.003897 0.015000
v 0.002346 -0.003840 0.015000
v 0.002441 -0.003780 0.015000
v 0.002535 -0.003718 0.015000
v 0.002627 -0.003654 0.015000
v 0.002717 -0.003587 0.015000
v 0.002806 -0.003518 0.015000
v 0.002893 -0.003447 0.015000
v 0.002978 -0.003374 0.015000
v 0.003061 -0.003299 0.015000
v 0.003142 -0.003221 0.015000
v 0.003221 -0.003142 0.015000
v 0.003299 -0.003061 0.015000
v 0.003374 -0.002978 0.015000
v 0.003447 -0.002893 0.015000
v 0.003518 -0.002806 0.015000
v 0.003587 -0.002717 0.015000
v 0.003654 -0.002627 0.015000
v 0.003718 -0.002535 0.015000
v 0.003780 -0.002441 0.015000
v 0.003840 -0.002346 0.015000
v 0.003897 -0.002250 0.015000
v 0.003952 -0.002152 0.015000
v 0.004004 -0.002053 0.015000
v 0.004054 -0.001952 0.015000
v 0.004102 -0.001851 0.015000
v 0.004147 -0.001748 0.015000
v 0.004189 -0.001644 0.015000
v 0.004229 -0.001539 0.015000
v 0.004266 -0.001433 0.015000
v 0.004300 -0.001326 0.015000
v 0.004332 -0.001219 0.015000
v 0.004361 -0.001110 0.015000
v 0.004387 -0.001001 0.015000
v 0.004411 -0.000892 0.015000
v 0.004432 -0.000781 0.015000
v 0.004450 -0.000671 0.015000
v 0.004465 -0.000560 0.015000
v 0.004478 -0.000448 0.015000
v 0.004487 -0.000336 0.015000
v 0.004494 -0.000224 0.015000
v 0.004499 -0.000112 0.015000
v 0.004500 -0.000000 0.015000
v 0.004500 -0.000000 -0.015000
v 0.004499 0.000112 -0.015000
v 0.004494 0.000224 -0.015000
v 0.004487 0.000336 -0.015000
v 0.004478 0.000448 -0.015000
v 0.004465 0.000560 -0.015000
v 0.004450 0.000671 -0.015000
v 0.004432 0.000781 -0.015000
v 0.004411 0.000892 -0.015000
v 0.004387 0.001001 -0.015000
v 0.004361 0.001110 -0.015000
v 0.004332 0.001219 -0.015000
v 0.004300 0.001326 -0.015000
v 0.004266 0.001433 -0.015000
v 0.004229 0.001539 -0.015000
v 0.004189 0.001644 -0.015000
v 0.004147 0.001748 -0.015000
v 0.004102 0.001851 -0.015000
v 0.004054 0.001952 -0.015000
v 0.004004 0.002053 -0.015000
v 0.003952 0.002152 -0.015000
v 0.003897 0.002250 -0.015000
v 0.003840 0.002346 -0.015000
v 0.003780 0.002441 -0.015000
v 0.003718 0.002535 -0.015000
v 0.003654 0.002627 -0.015000
v 0.003587 0.002717 -0.015000
v 0.003518 0.002806 -0.015000
v 0.003447 0.002893 -0.015000
v 0.003374 0.002978 -0.015000
v 0.003299 0.003061 -0.015000
v 0.003221 0.003142 -0.015000
v 0.003142 0.003221 -0.015000
v 0.003061 0.003299 -0.015000
v 0.002978 0.003374 -0.015000
v 0.002893 0.003447 -0.015000
v 0.002806 0.003518 -0.015000
v 0.002717 0.003587 -0.015000
v 0.002627 0.003654 -0.015000
v 0.002535 0.003718 -0.015000
v 0.002441 0.003780 -0.015000
v 0.002346 0.003840 -0.015000
v 0.002250 0.003897 -0.015000
v 0.002152 0.003952 -0.015000
v 0.002053 0.004004 -0.015000
v 0.001952 0.004054 -0.015000
v 0.001851 0.004102 -0.015000
v 0.001748 0.004147 -0.015000
v 0.001644 0.004189 -0.015000
v 0.001539 0.004229 -0.015000
v 0.001433 0.004266 -0.015000
v 0.001326 0.004300 -0.015000
v 0.001219 0.004332 -0.015000
v 0.001110 0.004361 -0.015000
v 0.001001 0.004387 -0.015000
v 0.000892 0.004411 -0.015000
v 0.000781 0.004432 -0.015000
v 0.000671 0.004450 -0.015000
v 0.000560 0.004465 -0.015000
v 0.000448 0.004478 -0.015000
v 0.000336 0.004487 -0.015000
v 0.000224 0.004494 -0.015000
v 0.000112 0.004499 -0.015000
v 0.000000 0.004500 -0.015000
v -0.000112 0.004499 -0.015000
v -0.000224 0.004494 -0.015000
v -0.000336 0.004487 -0.015000
v -0.000448 0.004478 -0.015000
v -0.000560 0.004465 -0.015000
v -0.000671 0.004450 -0.015000
v -0.000781 0.004432 -0.015000
v -0.000892 0.004411 -0.015000
v -0.001001 0.004387 -0.015000
v -0.001110 0.004361 -0.015000
v -0.001219 0.004332 -0.015000
v -0.001326 0.004300 -0.015000
v -0.001433 0.004266 -0.015000
v -0.001539 0.004229 -0.015000
v -0.001644 0.004189 -0.015000
v -0.001748 0.004147 -0.015000
v -0.001851 0.004102 -0.015000
v -0.001952 0.004054 -0.015000
v -0.002053 0.004004 -0.015000
v -0.002152 0.003952 -0.015000
v -0.002250 0.003897 -0.015000
v -0.002346 0.003840 -0.015000
v -0.002441 0.003780 -0.015000
v -0.002535 0.003718 -0.015000
v -0.002627 0.003654 -0.015000
v -0.002717 0.003587 -0.015000
v -0.002806 0.003518 -0.015000
v -0.002893 0.003447 -0.015000
v -0.002978 0.003374 -0.015000
v -0.003061 0.003299 -0.015000
v -0.003142 0.003221 -0.015000
v -0.003221 0.003142 -0.015000
v -0.003299 0.003061 -0.015000
v -0.003374 0.002978 -0.015000
v -0.003447 0.002893 -0.015000
v -0.003518 0.002806 -0.015000
v -0.003587 0.002717 -0.015000
v -0.003654 0.002627 -0.015000
v -0.003718 0.002535 -0.015000
v -0.003780 0.002441 -0.015000
v -0.003840 0.002346 -0.015000
v -0.003897 0.002250 -0.015000
v -0.003952 0.002152 -0.015000
v -0.004004 0.002053 -0.015000
v -0.004054 0.001952 -0.015000
v -0.004102 0.001851 -0.015000
v -0.004147 0.001748 -0.015000
v -0.004189 0.001644 -0.015000
v -0.004229 0.001539 -0.015000
v -0.004266 0.001433 -0.015000
v -0.004300 0.001326 -0.015000
v -0.004332 0.001219 -0.015000
v -0.004361 0.001110 -0.015000
v -0.004387 0.001001 -0.015000
v -0.004411 0.000892 -0.015000
v -0.004432 0.000781 -0.015000
v -0.004450 0.000671 -0.015000
v -0.004465 0.000560 -0.015000
v -0.004478 0.000448 -0.015000
v -0.004487 0.000336 -0.015000
v -0.004494 0.000224 -0.015000
v -0.004499 0.000112 -0.015000
v -0.004500 -0.000000 -0.015000
v -0.004499 -0.000112 -0.015000
v -0.004494 -0.000224 -0.015000
v -0.004487 -0.000336 -0.015000
v -0.004478 -0.000448 -0.015000
v -0.004465 -0.000560 -0.015000
v -0.004450 -0.000671 -0.015000
v -0.004432 -0.000781 -0.015000
v -0.004411 -0.000892 -0.015000
v -0.004387 -0.001001 -0.015000
v -0.004361 -0.001110 -0.015000
v -0.004332 -0.001219 -0.015000
v -0.004300 -0.001326 -0.015000
v -0.004266 -0.001433 -0.015000
v -0.004229 -0.001539 -0.015000
v -0.004189 -0.001644 -0.015000
v -0.004147 -0.001748 -0.015000
v -0.004102 -0.001851 -0.015000
v -0.004054 -0.001952 -0.015000
v -0.004004 -0.002053 -0.015000
v -0.003952 -0.002152 -0.015000
v -0.003897 -0.002250 -0.015000
v -0.003840 -0.002346 -0.015000
v -0.003780 -0.002441 -0.015000
v -0.003718 -0.002535 -0.015000
v -0.003654 -0.002627 -0.015000
v -0.003587 -0.002717 -0.015000
v -0.003518 -0.002806 -0.015000
v -0.003447 -0.002893 -0.015000
v -0.003374 -0.002978 -0.015000
v -0.003299 -0.003061 -0.015000
v -0.003221 -0.003142 -0.015000
v -0.003142 -0.003221 -0.015000
v -0.003061 -0.003299 -0.015000
v -0.002978 -0.003374 -0.015000
v -0.002893 -0.003447 -0.015000
v -0.002806 -0.003518 -0.015000
v -0.002717 -0.003587 -0.015000
v -0.002627 -0.003654 -0.015000
v -0.002535 -0.003718 -0.015000
v -0.002441 -0.003780 -0.015000
v -0.002346 -0.003840 -0.015000
v -0.002250 -0.003897 -0.015000
v -0.002152 -0.003952 -0.015000
v -0.002053 -0.004004 -0.015000
v -0.001952 -0.004054 -0.015000
v -0.001851 -0.004102 -0.015000
v -0.001748 -0.004147 -0.015000
v -0.001644 -0.004189 -0.015000
v -0.001539 -0.004229 -0.015000
v -0.001433 -0.004266 -0.015000
v -0.001326 -0.004300 -0.015000
v -0.001219 -0.004332 -0.015000
v -0.001110 -0.004361 -0.015000
v -0.001001 -0.004387 -0.015000
v -0.000892 -0.004411 -0.015000
v -0.000781 -0.004432 -0.015000
v -0.000671 -0.004450 -0.015000
v -0.000560 -0.004465 -0.015000
v -0.000448 -0.004478 -0.015000
v -0.000336 -0.004487 -0.015000
v -0.000224 -0.004494 -0.015000
v -0.000112 -0.004499 -0.015000
v 0.000000 -0.004500 -0.015000
v 0.000112 -0.004499 -0.015000
v 0.000224 -0.004494 -0.015000
v 0.000336 -0.004487 -0.015000
v 0.000448 -0.004478 -0.015000
v 0.000560 -0.004465 -0.015000
v 0.000671 -0.004450 -0.015000
v 0.000781 -0.004432 -0.015000
v 0.000892 -0.004411 -0.015000
v 0.001001 -0.004387 -0.015000
v 0.001110 -0.004361 -0.015000
v 0.001219 -0.004332 -0.015000
v 0.001326 -0.004300 -0.015000
v 0.001433 -0.004266 -0.015000
v 0.001539 -0.004229 -0.015000
v 0.001644 -0.004189 -0.015000
v 0.001748 -0.004147 -0.015000
v 0.001851 -0.004102 -0.015000
v 0.001952 -0.004054 -0.015000
v 0.002053 -0.004004 -0.015000
v 0.002152 -0.003952 -0.015000
v 0.002250 -0.003897 -0.015000
v 0.002346 -0.003840 -0.015000
v 0.002441 -0.003780 -0.015000
v 0.002535 -0.003718 -0.015000
v 0.002627 -0.003654 -0.015000
v 0.002717 -0.003587 -0.015000
v 0.002806 -0.003518 -0.015000
v 0.002893 -0.003447 -0.015000
v 0.002978 -0.003374 -0.015000
v 0.003061 -0.003299 -0.015000
v 0.003142 -0.003221 -0.015000
v 0.003221 -0.003142 -0.015000
v 0.003299 -0.003061 -0.015000
v 0.003374 -0.002978 -0.015000
v 0.003447 -0.002893 -0.015000
v 0.003518 -0.002806 -0.015000
v 0.003587 -0.002717 -0.015000
v 0.003654 -0.002627 -0.015000
v 0.003718 -0.002535 -0.015000
v 0.003780 -0.002441 -0.015000
v 0.003840 -0.002346 -0.015000
v 0.003897 -0.002250 -0.015000
v 0.003952 -0.002152 -0.015000
v 0.004004 -0.002053 -0.015000
v 0.004054 -0.001952 -0.015000
v 0.004102 -0.001851 -0.015000
v 0.004147 -0.001748 -0.015000
v 0.004189 -0.001644 -0.015000
v 0.004229 -0.001539 -0.015000
v 0.004266 -0.001433 -0.015000
v 0.004300 -0.001326 -0.015000
v 0.004332 -0.001219 -0.015000
v 0.004361 -0.001110 -0.015000
v 0.004387 -0.001001 -0.015000
v 0.004411 -0.000892 -0.015000
v 0.004432 -0.000781 -0.015000
v 0.004450 -0.000671 -0.015000
v 0.004465 -0.000560 -0.015000
v 0.004478 -0.000448 -0.015000
v 0.004487 -0.000336 -0.015000
v 0.004494 -0.000224 -0.015000
v 0.004499 -0.000112 -0.015000
f 2 3 1
f 2 4 3
f 13 5 14
f 15 5 6
f 15 14 5
f 16 15 6
f 12 5 13
f 7 11 10
f 7 12 11
f 7 5 12
f 8 10 9
f 8 7 10
f 20 17 18
f 20 18 19
f 24 22 21
f 24 23 22
f 27 25 26
f 27 28 25
f 31 30 29
f 35 32 33
f 35 34 32
f 36 35 33
f 40 39 38
f 41 37 36
f 41 38 37
f 41 40 38
f 41 36 33
f 56 57 532
f 56 532 533
f 439 149 150
f 440 148 149
f 440 149 439
f 438 150 151
f 438 439 150
f 441 147 148
f 441 148 440
f 437 151 152
f 437 438 151
f 442 146 147
f 442 147 441
f 436 152 153
f 436 437 152
f 443 145 146
f 443 146 442
f 435 153 154
f 435 436 153
f 444 144 145
f 444 145 443
f 243 345 346
f 243 346 242
f 434 435 154
f 434 154 155
f 55 56 533
f 445 143 144
f 445 144 444
f 55 533 282
f 244 344 345
f 433 155 156
f 244 345 243
f 54 55 282
f 54 282 283
f 433 434 155
f 245 344 244
f 446 143 445
f 245 343 344
f 53 283 284
f 446 142 143
f 432 156 157
f 53 54 283
f 246 343 245
f 432 433 156
f 447 142 446
f 246 342 343
f 52 284 285
f 447 141 142
f 52 53 284
f 247 342 246
f 431 157 158
f 431 432 157
f 247 341 342
f 51 285 286
f 448 141 447
f 51 52 285
f 248 341 247
f 448 140 141
f 430 158 159
f 248 340 341
f 50 286 287
f 430 431 158
f 50 51 286
f 449 140 448
f 249 340 248
f 249 339 340
f 49 287 288
f 449 139 140
f 429 430 159
f 429 159 160
f 49 50 287
f 250 339 249
f 250 338 339
f 48 288 289
f 450 139 449
f 48 49 288
f 450 138 139
f 428 160 161
f 251 338 250
f 251 337 338
f 47 289 290
f 428 429 160
f 47 48 289
f 252 336 337
f 252 337 251
f 46 290 291
f 451 137 138
f 451 138 450
f 427 161 162
f 46 47 290
f 253 335 336
f 253 336 252
f 427 428 161
f 45 291 292
f 45 46 291
f 452 137 451
f 254 335 253
f 254 334 335
f 44 292 293
f 44 293 294
f 44 294 295
f 44 295 296
f 44 296 297
f 44 297 298
f 44 298 299
f 44 299 300
f 44 300 301
f 452 136 137
f 426 162 163
f 44 45 292
f 255 334 254
f 426 427 162
f 255 333 334
f 256 333 255
f 453 136 452
f 256 332 333
f 257 332 256
f 257 331 332
f 258 331 257
f 453 135 136
f 425 163 164
f 258 330 331
f 259 330 258
f 425 426 163
f 259 329 330
f 260 329 259
f 260 328 329
f 454 135 453
f 261 328 260
f 261 327 328
f 262 327 261
f 454 134 135
f 262 326 327
f 263 326 262
f 263 325 326
f 424 425 164
f 424 164 165
f 264 325 263
f 264 324 325
f 265 324 264
f 455 134 454
f 265 323 324
f 266 323 265
f 266 322 323
f 267 322 266
f 455 133 134
f 267 321 322
f 268 321 267
f 268 320 321
f 423 165 166
f 269 320 268
f 269 319 320
f 270 319 269
f 423 424 165
f 270 318 319
f 42 44 301
f 42 301 302
f 42 302 303
f 42 303 304
f 42 304 305
f 42 305 306
f 42 306 307
f 42 307 308
f 42 308 309
f 42 309 310
f 271 318 270
f 271 317 318
f 278 42 310
f 456 133 455
f 278 310 311
f 272 317 271
f 272 316 317
f 277 278 311
f 277 311 312
f 273 316 272
f 273 315 316
f 276 277 312
f 276 312 313
f 456 132 133
f 274 315 273
f 274 314 315
f 275 276 313
f 275 314 274
f 275 313 314
f 279 44 42
f 422 166 167
f 422 423 166
f 457 132 456
f 457 131 132
f 280 42 281
f 280 279 42
f 43 281 42
f 421 422 167
f 421 167 168
f 458 130 131
f 458 131 457
f 420 168 169
f 420 421 168
f 459 129 130
f 459 130 458
f 419 420 169
f 419 169 170
f 460 128 129
f 460 129 459
f 418 419 170
f 418 170 171
f 461 128 460
f 461 127 128
f 417 171 172
f 417 418 171
f 462 127 461
f 462 126 127
f 416 172 173
f 416 417 172
f 463 126 462
f 463 125 126
f 415 416 173
f 415 173 174
f 464 125 463
f 464 124 125
f 414 174 175
f 414 415 174
f 465 123 124
f 465 124 464
f 413 414 175
f 413 175 176
f 466 122 123
f 466 123 465
f 412 413 176
f 412 176 177
f 467 122 466
f 467 121 122
f 411 412 177
f 411 177 178
f 468 121 467
f 468 120 121
f 410 411 178
f 410 178 179
f 469 120 468
f 469 119 120
f 409 179 180
f 409 410 179
f 470 118 119
f 470 119 469
f 408 180 181
f 408 409 180
f 471 118 470
f 471 117 118
f 407 181 182
f 407 408 181
f 472 117 471
f 472 116 117
f 406 407 182
f 406 182 183
f 473 116 472
f 473 115 116
f 405 406 183
f 405 183 184
f 474 114 115
f 474 115 473
f 404 184 185
f 404 405 184
f 475 114 474
f 475 113 114
f 403 185 186
f 403 404 185
f 476 112 113
f 476 113 475
f 402 186 187
f 402 403 186
f 477 111 112
f 477 112 476
f 401 187 188
f 401 402 187
f 478 110 111
f 478 111 477
f 400 401 188
f 400 188 189
f 479 110 478
f 479 109 110
f 399 400 189
f 399 189 190
f 480 108 109
f 480 109 479
f 398 399 190
f 398 190 191
f 481 108 480
f 481 107 108
f 397 191 192
f 397 398 191
f 482 107 481
f 482 106 107
f 396 192 193
f 396 397 192
f 483 105 106
f 483 106 482
f 395 193 194
f 395 396 193
f 484 105 483
f 484 104 105
f 394 395 194
f 394 194 195
f 485 104 484
f 485 103 104
f 393 394 195
f 393 195 196
f 486 103 485
f 486 102 103
f 392 196 197
f 392 393 196
f 487 102 486
f 487 101 102
f 391 197 198
f 391 392 197
f 488 101 487
f 488 100 101
f 390 391 198
f 390 198 199
f 489 99 100
f 489 100 488
f 389 199 200
f 389 390 199
f 490 99 489
f 490 98 99
f 388 200 201
f 388 389 200
f 491 98 490
f 491 97 98
f 387 388 201
f 387 201 202
f 492 97 491
f 492 96 97
f 386 202 203
f 386 387 202
f 493 96 492
f 493 95 96
f 385 386 203
f 385 203 204
f 494 94 95
f 494 95 493
f 384 204 205
f 384 385 204
f 495 93 94
f 495 94 494
f 383 384 205
f 383 205 206
f 496 92 93
f 496 93 495
f 382 206 207
f 382 383 206
f 497 91 92
f 497 92 496
f 381 207 208
f 381 382 207
f 498 90 91
f 498 91 497
f 380 208 209
f 380 381 208
f 499 89 90
f 499 90 498
f 379 209 210
f 379 380 209
f 500 89 499
f 88 89 500
f 378 379 210
f 501 88 500
f 211 378 210
f 87 88 501
f 377 378 211
f 502 87 501
f 212 377 211
f 86 87 502
f 376 377 212
f 503 86 502
f 213 376 212
f 375 376 213
f 85 503 504
f 85 86 503
f 214 374 375
f 214 375 213
f 84 504 505
f 84 85 504
f 215 374 214
f 215 373 374
f 83 505 506
f 83 84 505
f 216 373 215
f 216 372 373
f 82 83 506
f 82 506 507
f 217 371 372
f 217 372 216
f 81 82 507
f 81 507 508
f 218 370 371
f 218 371 217
f 80 81 508
f 80 508 509
f 219 369 370
f 219 370 218
f 79 80 509
f 79 509 510
f 220 369 219
f 220 368 369
f 78 79 510
f 78 510 511
f 221 367 368
f 221 368 220
f 77 78 511
f 77 511 512
f 222 366 367
f 222 367 221
f 76 512 513
f 76 77 512
f 223 365 366
f 223 366 222
f 75 513 514
f 75 76 513
f 224 364 365
f 224 365 223
f 74 514 515
f 74 75 514
f 225 363 364
f 225 364 224
f 73 74 515
f 73 515 516
f 226 363 225
f 226 362 363
f 72 73 516
f 72 516 517
f 227 361 362
f 227 362 226
f 71 72 517
f 71 517 518
f 228 360 361
f 228 361 227
f 70 71 518
f 70 518 519
f 229 359 360
f 229 360 228
f 69 70 519
f 69 519 520
f 230 358 359
f 230 359 229
f 68 69 520
f 68 520 521
f 231 357 358
f 231 358 230
f 67 68 521
f 67 521 522
f 232 357 231
f 232 356 357
f 66 67 522
f 66 522 523
f 233 355 356
f 233 356 232
f 65 66 523
f 65 523 524
f 234 354 355
f 234 355 233
f 64 65 524
f 64 524 525
f 235 353 354
f 235 354 234
f 63 64 525
f 63 525 526
f 236 352 353
f 236 353 235
f 62 63 526
f 62 526 527
f 237 351 352
f 237 352 236
f 61 62 527
f 61 527 528
f 238 350 351
f 238 351 237
f 60 61 528
f 60 528 529
f 239 349 350
f 239 350 238
f 59 60 529
f 59 529 530
f 240 348 349
f 240 349 239
f 58 59 530
f 58 530 531
f 241 347 348
f 241 348 240
f 57 58 531
f 57 531 532
f 242 346 347
f 242 347 241
f 535 537 536
f 535 538 537
f 535 539 538
f 535 540 539
f 535 541 540
f 535 536 542
f 535 542 543
f 535 534 541
f 546 544 545
f 550 548 547
f 550 547 549
f 553 551 552
f 555 556 557
f 555 557 558
f 555 558 559
f 555 559 560
f 555 560 561
f 555 562 556
f 555 563 562
f 555 561 554
f 788 1054 787
f 788 1055 1054
f 961 694 695
f 962 695 696
f 962 961 695
f 960 694 961
f 960 693 694
f 963 962 696
f 963 696 697
f 959 693 960
f 959 692 693
f 964 963 697
f 964 697 698
f 958 691 692
f 958 692 959
f 965 698 699
f 965 964 698
f 957 690 691
f 957 691 958
f 966 965 699
f 966 699 700
f 956 689 690
f 956 690 957
f 601 868 867
f 601 602 868
f 967 700 701
f 967 966 700
f 789 1055 788
f 955 689 956
f 789 804 1055
f 600 867 866
f 600 601 867
f 955 688 689
f 968 701 702
f 968 967 701
f 790 805 804
f 790 804 789
f 599 600 866
f 954 687 688
f 954 688 955
f 599 866 865
f 791 806 805
f 969 702 703
f 969 968 702
f 791 805 790
f 598 599 865
f 598 865 864
f 792 807 806
f 953 686 687
f 953 687 954
f 792 806 791
f 597 598 864
f 970 969 703
f 970 703 704
f 597 864 863
f 793 808 807
f 793 807 792
f 596 597 863
f 952 685 686
f 952 686 953
f 596 863 862
f 794 809 808
f 971 704 705
f 971 970 704
f 794 808 793
f 595 596 862
f 595 862 861
f 795 810 809
f 951 684 685
f 951 685 952
f 972 705 706
f 795 809 794
f 594 595 861
f 972 971 705
f 594 861 860
f 796 811 810
f 950 684 951
f 796 810 795
f 593 594 860
f 593 860 859
f 950 683 684
f 973 972 706
f 973 706 707
f 797 812 811
f 797 811 796
f 592 859 858
f 592 593 859
f 798 813 812
f 949 683 950
f 798 812 797
f 949 682 683
f 974 707 708
f 591 592 858
f 591 858 857
f 799 814 813
f 974 973 707
f 799 813 798
f 590 591 857
f 948 682 949
f 590 857 856
f 800 814 799
f 800 815 814
f 800 816 815
f 800 817 816
f 800 818 817
f 800 819 818
f 800 820 819
f 800 821 820
f 800 822 821
f 800 823 822
f 948 681 682
f 589 590 856
f 589 856 855
f 588 589 855
f 975 708 709
f 975 974 708
f 588 855 854
f 587 588 854
f 587 854 853
f 586 587 853
f 947 680 681
f 947 681 948
f 586 853 852
f 585 586 852
f 585 852 851
f 584 585 851
f 976 709 710
f 976 975 709
f 584 851 850
f 583 584 850
f 583 850 849
f 582 583 849
f 582 849 848
f 581 582 848
f 946 679 680
f 946 680 947
f 581 848 847
f 580 581 847
f 977 710 711
f 580 847 846
f 579 580 846
f 579 846 845
f 578 579 845
f 977 976 710
f 578 845 844
f 577 578 844
f 577 844 843
f 945 678 679
f 945 679 946
f 576 577 843
f 576 843 842
f 575 576 842
f 575 842 841
f 574 575 841
f 574 841 840
f 564 823 800
f 564 824 823
f 564 825 824
f 564 826 825
f 564 827 826
f 564 828 827
f 564 829 828
f 564 830 829
f 564 831 830
f 564 832 831
f 978 711 712
f 573 574 840
f 573 840 839
f 566 832 564
f 566 833 832
f 572 573 839
f 572 839 838
f 567 833 566
f 978 977 711
f 567 834 833
f 571 572 838
f 571 838 837
f 568 834 567
f 568 835 834
f 570 571 837
f 570 837 836
f 569 835 568
f 569 570 836
f 569 836 835
f 944 678 945
f 944 677 678
f 801 564 800
f 979 712 713
f 979 978 712
f 802 564 801
f 802 803 564
f 565 564 803
f 943 676 677
f 943 677 944
f 980 713 714
f 980 979 713
f 942 675 676
f 942 676 943
f 981 980 714
f 981 714 715
f 941 674 675
f 941 675 942
f 982 715 716
f 982 981 715
f 940 673 674
f 940 674 941
f 983 982 716
f 983 716 717
f 939 672 673
f 939 673 940
f 984 717 718
f 984 983 717
f 938 671 672
f 938 672 939
f 985 718 719
f 985 984 718
f 937 671 938
f 937 670 671
f 986 985 719
f 986 719 720
f 936 669 670
f 936 670 937
f 987 720 721
f 987 986 720
f 935 668 669
f 935 669 936
f 988 721 722
f 988 987 721
f 934 667 668
f 934 668 935
f 989 988 722
f 989 722 723
f 933 667 934
f 933 666 667
f 990 989 723
f 990 723 724
f 932 665 666
f 932 666 933
f 991 990 724
f 991 724 725
f 931 664 665
f 931 665 932
f 992 725 726
f 992 991 725
f 930 664 931
f 930 663 664
f 993 992 726
f 993 726 727
f 929 663 930
f 929 662 663
f 994 993 727
f 994 727 728
f 928 662 929
f 928 661 662
f 995 728 729
f 995 994 728
f 927 661 928
f 927 660 661
f 996 729 730
f 996 995 729
f 926 660 927
f 926 659 660
f 997 996 730
f 997 730 731
f 925 659 926
f 925 658 659
f 998 997 731
f 998 731 732
f 924 658 925
f 924 657 658
f 999 998 732
f 999 732 733
f 923 657 924
f 923 656 657
f 1000 733 734
f 1000 999 733
f 922 656 923
f 922 655 656
f 1001 734 735
f 1001 1000 734
f 921 655 922
f 921 654 655
f 1002 1001 735
f 1002 735 736
f 920 654 921
f 920 653 654
f 1003 1002 736
f 1003 736 737
f 919 653 920
f 919 652 653
f 1004 1003 737
f 1004 737 738
f 918 652 919
f 918 651 652
f 1005 1004 738
f 1005 738 739
f 917 651 918
f 917 650 651
f 1006 1005 739
f 1006 739 740
f 916 650 917
f 916 649 650
f 1007 1006 740
f 1007 740 741
f 915 649 916
f 915 648 649
f 1008 1007 741
f 1008 741 742
f 914 648 915
f 914 647 648
f 1009 1008 742
f 1009 742 743
f 913 646 647
f 913 647 914
f 1010 743 744
f 1010 1009 743
f 912 646 913
f 912 645 646
f 1011 1010 744
f 1011 744 745
f 911 645 912
f 911 644 645
f 1012 1011 745
f 1012 745 746
f 910 643 644
f 910 644 911
f 1013 746 747
f 1013 1012 746
f 909 643 910
f 909 642 643
f 1014 1013 747
f 1014 747 748
f 908 641 642
f 908 642 909
f 1015 748 749
f 1015 1014 748
f 907 640 641
f 907 641 908
f 1016 749 750
f 1016 1015 749
f 906 639 640
f 906 640 907
f 1017 750 751
f 1017 1016 750
f 905 638 639
f 905 639 906
f 1018 751 752
f 1018 1017 751
f 904 637 638
f 904 638 905
f 1019 752 753
f 1019 1018 752
f 903 636 637
f 903 637 904
f 1020 753 754
f 1020 1019 753
f 902 635 636
f 902 636 903
f 1021 754 755
f 1021 1020 754
f 901 634 635
f 901 635 902
f 1022 1021 755
f 756 1022 755
f 900 634 901
f 1023 1022 756
f 633 634 900
f 757 1023 756
f 899 633 900
f 1024 1023 757
f 632 633 899
f 758 1024 757
f 898 632 899
f 1025 1024 758
f 631 632 898
f 897 631 898
f 759 1026 1025
f 759 1025 758
f 630 897 896
f 630 631 897
f 760 1027 1026
f 760 1026 759
f 629 630 896
f 629 896 895
f 761 1028 1027
f 761 1027 760
f 628 629 895
f 628 895 894
f 762 1028 761
f 762 1029 1028
f 627 894 893
f 627 628 894
f 763 1029 762
f 763 1030 1029
f 626 893 892
f 626 627 893
f 764 1030 763
f 764 1031 1030
f 625 892 891
f 625 626 892
f 765 1031 764
f 765 1032 1031
f 624 891 890
f 624 625 891
f 766 1032 765
f 766 1033 1032
f 623 890 889
f 623 624 890
f 767 1033 766
f 767 1034 1033
f 622 623 889
f 622 889 888
f 768 1035 1034
f 768 1034 767
f 621 888 887
f 621 622 888
f 769 1036 1035
f 769 1035 768
f 620 887 886
f 620 621 887
f 770 1037 1036
f 770 1036 769
f 619 886 885
f 619 620 886
f 771 1037 770
f 771 1038 1037
f 618 619 885
f 618 885 884
f 772 1039 1038
f 772 1038 771
f 617 884 883
f 617 618 884
f 773 1039 772
f 773 1040 1039
f 616 883 882
f 616 617 883
f 774 1040 773
f 774 1041 1040
f 615 882 881
f 615 616 882
f 775 1041 774
f 775 1042 1041
f 614 881 880
f 614 615 881
f 776 1042 775
f 776 1043 1042
f 613 614 880
f 613 880 879
f 777 1043 776
f 777 1044 1043
f 612 879 878
f 612 613 879
f 778 1044 777
f 778 1045 1044
f 611 612 878
f 611 878 877
f 779 1045 778
f 779 1046 1045
f 610 611 877
f 610 877 876
f 780 1047 1046
f 780 1046 779
f 609 876 875
f 609 610 876
f 781 1047 780
f 781 1048 1047
f 608 875 874
f 608 609 875
f 782 1048 781
f 782 1049 1048
f 607 874 873
f 607 608 874
f 783 1050 1049
f 783 1049 782
f 606 873 872
f 606 607 873
f 784 1050 783
f 784 1051 1050
f 605 606 872
f 605 872 871
f 785 1051 784
f 785 1052 1051
f 604 871 870
f 604 605 871
f 786 1052 785
f 786 1053 1052
f 603 870 869
f 603 604 870
f 787 1053 786
f 787 1054 1053
f 602 869 868
f 602 603 869
f 1058 1056 1057
f 1062 1059 1060
f 1062 1061 1059
f 1065 1063 1064
f 1069 1067 1066
f 1069 1066 1068
f 1072 1070 1071
f 1075 1073 1074
f 1075 1076 1073
f 1080 1078 1077
f 1080 1079 1078
f 1083 1081 1082
f 1083 1084 1081
f 1088 1085 1086
f 1088 1086 1087
f 1090 1089 1091
f 1090 1091 1092
f 1094 1093 1095
f 1094 1095 1096
f 1098 1099 1097
f 1098 1100 1099
f 1102 1103 1101
f 1102 1104 1103
f 1102 1105 1104
f 1102 1106 1105
f 1102 1107 1106
f 1108 1110 1109
f 1108 1111 1110
f 1113 1603 1602
f 1113 1112 1603
f 1600 1113 1601
f 1114 1113 1600
f 1114 1600 1599
f 1598 1114 1599
f 1115 1114 1598
f 1590 1596 1597
f 1590 1597 1591
f 1594 1595 1590
f 1589 1594 1590
f 1589 1593 1594
f 1592 1593 1589
f 1588 1115 1598
f 1588 1592 1589
f 1588 1598 1592
f 1587 1116 1115
f 1587 1115 1588
f 1586 1117 1116
f 1586 1116 1587
f 1585 1118 1117
f 1585 1117 1586
f 1584 1119 1118
f 1584 1118 1585
f 1583 1120 1119
f 1583 1119 1584
f 1582 1121 1120
f 1582 1120 1583
f 1581 1122 1121
f 1581 1121 1582
f 1580 1123 1122
f 1580 1122 1581
f 1579 1124 1123
f 1579 1123 1580
f 1578 1125 1124
f 1578 1124 1579
f 1577 1126 1125
f 1577 1125 1578
f 1576 1127 1126
f 1576 1126 1577
f 1575 1128 1127
f 1575 1127 1576
f 1574 1129 1128
f 1574 1128 1575
f 1573 1130 1129
f 1573 1129 1574
f 1572 1131 1130
f 1572 1130 1573
f 1571 1132 1131
f 1571 1131 1572
f 1570 1133 1132
f 1570 1132 1571
f 1569 1133 1570
f 1569 1134 1133
f 1568 1134 1569
f 1568 1135 1134
f 1567 1135 1568
f 1567 1136 1135
f 1566 1136 1567
f 1566 1137 1136
f 1565 1137 1566
f 1565 1138 1137
f 1564 1139 1138
f 1564 1138 1565
f 1563 1140 1139
f 1563 1139 1564
f 1562 1141 1140
f 1562 1140 1563
f 1561 1142 1141
f 1561 1141 1562
f 1560 1143 1142
f 1560 1142 1561
f 1559 1144 1143
f 1559 1143 1560
f 1558 1145 1144
f 1558 1144 1559
f 1557 1146 1145
f 1557 1145 1558
f 1556 1147 1146
f 1556 1146 1557
f 1555 1148 1147
f 1555 1147 1556
f 1554 1149 1148
f 1554 1148 1555
f 1553 1150 1149
f 1553 1149 1554
f 1552 1151 1150
f 1552 1150 1553
f 1551 1152 1151
f 1551 1151 1552
f 1550 1153 1152
f 1550 1152 1551
f 1549 1154 1153
f 1549 1153 1550
f 1548 1155 1154
f 1548 1154 1549
f 1547 1156 1155
f 1547 1155 1548
f 1546 1157 1156
f 1546 1156 1547
f 1545 1157 1546
f 1545 1158 1157
f 1544 1158 1545
f 1544 1159 1158
f 1543 1159 1544
f 1543 1160 1159
f 1542 1160 1543
f 1542 1161 1160
f 1541 1161 1542
f 1541 1162 1161
f 1540 1162 1541
f 1540 1163 1162
f 1539 1163 1540
f 1539 1164 1163
f 1538 1164 1539
f 1538 1165 1164
f 1537 1165 1538
f 1537 1166 1165
f 1536 1166 1537
f 1536 1167 1166
f 1535 1167 1536
f 1535 1168 1167
f 1534 1168 1535
f 1534 1169 1168
f 1533 1169 1534
f 1533 1170 1169
f 1532 1170 1533
f 1532 1171 1170
f 1531 1171 1532
f 1531 1172 1171
f 1530 1173 1172
f 1530 1172 1531
f 1529 1174 1173
f 1529 1173 1530
f 1528 1175 1174
f 1528 1174 1529
f 1527 1176 1175
f 1527 1175 1528
f 1526 1177 1176
f 1526 1176 1527
f 1525 1178 1177
f 1525 1177 1526
f 1524 1179 1178
f 1524 1178 1525
f 1523 1180 1179
f 1523 1179 1524
f 1522 1181 1180
f 1522 1182 1181
f 1522 1180 1523
f 1521 1182 1522
f 1520 1182 1521
f 1520 1183 1182
f 1519 1183 1520
f 1519 1184 1183
f 1518 1184 1519
f 1518 1185 1184
f 1517 1185 1518
f 1517 1186 1185
f 1516 1186 1517
f 1516 1187 1186
f 1515 1187 1516
f 1515 1188 1187
f 1515 1189 1188
f 1514 1189 1515
f 1513 1189 1514
f 1513 1190 1189
f 1512 1190 1513
f 1512 1191 1190
f 1511 1191 1512
f 1511 1192 1191
f 1510 1192 1511
f 1510 1193 1192
f 1509 1193 1510
f 1509 1194 1193
f 1508 1194 1509
f 1508 1195 1194
f 1507 1195 1508
f 1507 1196 1195
f 1506 1196 1507
f 1506 1197 1196
f 1505 1197 1506
f 1505 1198 1197
f 1504 1198 1505
f 1504 1199 1198
f 1503 1199 1504
f 1503 1200 1199
f 1503 1201 1200
f 1502 1201 1503
f 1501 1201 1502
f 1501 1202 1201
f 1500 1202 1501
f 1500 1203 1202
f 1499 1203 1500
f 1499 1204 1203
f 1498 1204 1499
f 1498 1205 1204
f 1497 1205 1498
f 1497 1206 1205
f 1496 1207 1206
f 1496 1206 1497
f 1495 1208 1207
f 1495 1207 1496
f 1494 1208 1495
f 1494 1209 1208
f 1493 1209 1494
f 1493 1210 1209
f 1492 1210 1493
f 1492 1211 1210
f 1491 1211 1492
f 1491 1212 1211
f 1490 1213 1212
f 1490 1212 1491
f 1489 1214 1213
f 1489 1213 1490
f 1488 1215 1214
f 1488 1214 1489
f 1487 1216 1215
f 1487 1215 1488
f 1486 1217 1216
f 1486 1216 1487
f 1485 1218 1217
f 1485 1217 1486
f 1484 1219 1218
f 1484 1218 1485
f 1483 1220 1219
f 1483 1219 1484
f 1482 1221 1220
f 1482 1220 1483
f 1481 1222 1221
f 1481 1221 1482
f 1480 1223 1222
f 1480 1222 1481
f 1479 1224 1223
f 1479 1223 1480
f 1478 1225 1224
f 1478 1224 1479
f 1477 1226 1225
f 1477 1225 1478
f 1476 1227 1226
f 1476 1226 1477
f 1475 1228 1227
f 1475 1227 1476
f 1474 1229 1228
f 1474 1228 1475
f 1473 1230 1229
f 1473 1229 1474
f 1472 1231 1230
f 1472 1230 1473
f 1471 1232 1231
f 1471 1231 1472
f 1470 1233 1232
f 1470 1232 1471
f 1469 1234 1233
f 1469 1233 1470
f 1468 1234 1469
f 1468 1235 1234
f 1467 1235 1468
f 1467 1236 1235
f 1466 1236 1467
f 1466 1237 1236
f 1465 1237 1466
f 1465 1238 1237
f 1464 1238 1465
f 1464 1239 1238
f 1463 1239 1464
f 1463 1240 1239
f 1462 1240 1463
f 1462 1241 1240
f 1461 1242 1241
f 1461 1243 1242
f 1461 1241 1462
f 1460 1243 1461
f 1459 1244 1243
f 1459 1243 1460
f 1458 1245 1244
f 1458 1244 1459
f 1457 1246 1245
f 1457 1245 1458
f 1456 1247 1246
f 1456 1246 1457
f 1455 1248 1247
f 1455 1249 1248
f 1455 1247 1456
f 1454 1249 1455
f 1453 1250 1249
f 1453 1249 1454
f 1452 1251 1250
f 1452 1250 1453
f 1451 1252 1251
f 1451 1253 1252
f 1451 1251 1452
f 1450 1253 1451
f 1449 1254 1253
f 1449 1253 1450
f 1448 1255 1254
f 1448 1254 1449
f 1447 1256 1255
f 1447 1255 1448
f 1446 1257 1256
f 1446 1258 1257
f 1446 1256 1447
f 1445 1258 1446
f 1444 1258 1445
f 1444 1259 1258
f 1444 1260 1259
f 1443 1260 1444
f 1442 1260 1443
f 1442 1261 1260
f 1441 1261 1442
f 1441 1262 1261
f 1441 1263 1262
f 1440 1263 1441
f 1439 1263 1440
f 1439 1264 1263
f 1439 1265 1264
f 1438 1265 1439
f 1437 1265 1438
f 1437 1266 1265
f 1437 1267 1266
f 1436 1267 1437
f 1435 1267 1436
f 1435 1268 1267
f 1434 1268 1435
f 1434 1269 1268
f 1433 1269 1434
f 1433 1270 1269
f 1432 1270 1433
f 1432 1271 1270
f 1431 1271 1432
f 1431 1272 1271
f 1430 1272 1431
f 1430 1273 1272
f 1429 1274 1273
f 1429 1273 1430
f 1429 1275 1274
f 1428 1275 1429
f 1427 1276 1275
f 1427 1275 1428
f 1426 1277 1276
f 1426 1276 1427
f 1425 1278 1277
f 1425 1277 1426
f 1424 1279 1278
f 1424 1278 1425
f 1423 1280 1279
f 1423 1279 1424
f 1422 1281 1280
f 1422 1282 1281
f 1422 1280 1423
f 1421 1282 1422
f 1420 1283 1282
f 1420 1282 1421
f 1419 1284 1283
f 1419 1283 1420
f 1418 1284 1419
f 1418 1285 1284
f 1417 1285 1418
f 1417 1286 1285
f 1417 1287 1286
f 1416 1287 1417
f 1415 1287 1416
f 1415 1288 1287
f 1414 1288 1415
f 1414 1289 1288
f 1413 1289 1414
f 1413 1290 1289
f 1412 1290 1413
f 1412 1291 1290
f 1411 1291 1412
f 1411 1292 1291
f 1410 1292 1411
f 1410 1293 1292
f 1409 1293 1410
f 1409 1294 1293
f 1408 1294 1409
f 1408 1295 1294
f 1407 1295 1408
f 1407 1296 1295
f 1406 1296 1407
f 1406 1297 1296
f 1405 1297 1406
f 1405 1298 1297
f 1404 1298 1405
f 1404 1299 1298
f 1403 1299 1404
f 1403 1300 1299
f 1402 1300 1403
f 1402 1301 1300
f 1401 1301 1402
f 1401 1302 1301
f 1400 1302 1401
f 1400 1303 1302
f 1399 1303 1400
f 1399 1304 1303
f 1398 1304 1399
f 1398 1305 1304
f 1398 1306 1305
f 1397 1306 1398
f 1396 1306 1397
f 1396 1307 1306
f 1395 1307 1396
f 1395 1308 1307
f 1394 1308 1395
f 1394 1309 1308
f 1394 1310 1309
f 1393 1310 1394
f 1392 1310 1393
f 1392 1311 1310
f 1391 1311 1392
f 1391 1312 1311
f 1390 1312 1391
f 1390 1313 1312
f 1389 1314 1313
f 1389 1315 1314
f 1389 1313 1390
f 1388 1315 1389
f 1387 1316 1315
f 1387 1315 1388
f 1386 1317 1316
f 1386 1318 1317
f 1386 1316 1387
f 1385 1318 1386
f 1384 1319 1318
f 1384 1318 1385
f 1383 1320 1319
f 1383 1319 1384
f 1382 1321 1320
f 1382 1322 1321
f 1382 1320 1383
f 1381 1322 1382
f 1380 1323 1322
f 1380 1322 1381
f 1379 1324 1323
f 1379 1323 1380
f 1378 1325 1324
f 1378 1324 1379
f 1377 1326 1325
f 1377 1325 1378
f 1376 1327 1326
f 1376 1326 1377
f 1375 1328 1327
f 1375 1329 1328
f 1375 1327 1376
f 1374 1329 1375
f 1373 1330 1329
f 1373 1329 1374
f 1372 1331 1330
f 1372 1332 1331
f 1372 1330 1373
f 1371 1333 1332
f 1371 1332 1372
f 1370 1333 1371
f 1369 1334 1333
f 1369 1333 1370
f 1368 1334 1369
f 1368 1335 1334
f 1367 1335 1368
f 1367 1336 1335
f 1367 1337 1336
f 1366 1337 1367
f 1365 1337 1366
f 1365 1338 1337
f 1364 1338 1365
f 1364 1339 1338
f 1363 1339 1364
f 1363 1340 1339
f 1362 1340 1363
f 1362 1341 1340
f 1361 1341 1362
f 1361 1342 1341
f 1360 1343 1342
f 1360 1342 1361
f 1346 1351 1350
f 1346 1345 1351
f 1359 1344 1343
f 1359 1343 1360
f 1348 1346 1349
f 1347 1346 1348
f 1358 1345 1344
f 1358 1344 1359
f 1352 1351 1345
f 1352 1345 1358
f 1357 1356 1352
f 1357 1352 1358
f 1354 1355 1357
f 1353 1354 1357
f 1349 1346 1350
f 1356 1357 1355
f 1596 1590 1595
f 1601 1113 1602
f 1605 1604 1606
f 1605 1606 1607
f 1605 1607 1608
f 1605 1608 1609
f 1605 1609 1610
f 1614 1611 1612
f 1614 1612 1613
f 1618 1616 1615
f 1618 1617 1616
f 1622 1619 1620
f 1622 1621 1619
f 1626 1623 1624
f 1626 1624 1625
f 1629 1628 1627
f 1629 1627 1630
f 1633 1631 1632
f 1635 1634 1636
f 1635 1636 1637
f 1640 1639 1638
f 1643 1642 1641
f 1646 1644 1645
f 1646 1647 1644
f 1650 1648 1649
f 1654 1651 1652
f 1654 1653 1651
f 1657 1656 1655
f 1660 1659 1658
f 1916 1661 1662
f 1916 1662 1663
f 1917 1663 1664
f 1917 1916 1663
f 1918 1664 1665
f 1918 1917 1664
f 1919 1665 1666
f 1919 1918 1665
f 1920 1666 1667
f 1920 1919 1666
f 1921 1667 1668
f 1921 1920 1667
f 1922 1668 1669
f 1922 1921 1668
f 1923 1669 1670
f 1923 1922 1669
f 1924 1670 1671
f 1924 1923 1670
f 1925 1671 1672
f 1925 1924 1671
f 1926 1672 1673
f 1926 1925 1672
f 1927 1673 1674
f 1927 1926 1673
f 1928 1674 1675
f 1928 1927 1674
f 1929 1675 1676
f 1929 1928 1675
f 1930 1676 1677
f 1930 1929 1676
f 1931 1677 1678
f 1931 1930 1677
f 1932 1678 1679
f 1932 1931 1678
f 1933 1679 1680
f 1933 1932 1679
f 1934 1680 1681
f 1934 1933 1680
f 1935 1681 1682
f 1935 1934 1681
f 1936 1682 1683
f 1936 1935 1682
f 1937 1683 1684
f 1937 1936 1683
f 1938 1684 1685
f 1938 1937 1684
f 1939 1938 1685
f 1939 1685 1686
f 1940 1939 1686
f 1940 1686 1687
f 1941 1940 1687
f 1941 1687 1688
f 1942 1941 1688
f 1942 1688 1689
f 1943 1942 1689
f 1943 1689 1690
f 1944 1943 1690
f 1944 1690 1691
f 1945 1944 1691
f 1945 1691 1692
f 1946 1945 1692
f 1946 1692 1693
f 1947 1946 1693
f 1947 1693 1694
f 1948 1694 1695
f 1948 1947 1694
f 1949 1695 1696
f 1949 1948 1695
f 1950 1696 1697
f 1950 1949 1696
f 1951 1697 1698
f 1951 1950 1697
f 1952 1698 1699
f 1952 1951 1698
f 1953 1699 1700
f 1953 1952 1699
f 1954 1700 1701
f 1954 1953 1700
f 1955 1701 1702
f 1955 1954 1701
f 1956 1702 1703
f 1956 1955 1702
f 1957 1703 1704
f 1957 1956 1703
f 1958 1704 1705
f 1958 1957 1704
f 1959 1705 1706
f 1959 1958 1705
f 1960 1706 1707
f 1960 1959 1706
f 1961 1707 1708
f 1961 1960 1707
f 1962 1708 1709
f 1962 1961 1708
f 1963 1709 1710
f 1963 1962 1709
f 1964 1963 1710
f 1964 1710 1711
f 1965 1964 1711
f 1965 1711 1712
f 1965 1712 1713
f 1966 1965 1713
f 1967 1966 1713
f 1967 1713 1714
f 1967 1714 1715
f 1968 1967 1715
f 1969 1968 1715
f 1969 1715 1716
f 1970 1969 1716
f 1970 1716 1717
f 1971 1970 1717
f 1971 1717 1718
f 1972 1971 1718
f 1972 1718 1719
f 1973 1972 1719
f 1973 1719 1720
f 1974 1973 1720
f 1974 1720 1721
f 1975 1974 1721
f 1975 1721 1722
f 1976 1975 1722
f 1976 1722 1723
f 1977 1976 1723
f 1977 1723 1724
f 1978 1977 1724
f 1978 1724 1725
f 1979 1978 1725
f 1979 1725 1726
f 1979 1726 1727
f 1980 1979 1727
f 1981 1980 1727
f 1981 1727 1728
f 1981 1728 1729
f 1982 1981 1729
f 1983 1729 1730
f 1983 1982 1729
f 1984 1730 1731
f 1984 1731 1732
f 1984 1983 1730
f 1985 1984 1732
f 1986 1732 1733
f 1986 1733 1734
f 1986 1985 1732
f 1987 1986 1734
f 1988 1734 1735
f 1988 1735 1736
f 1988 1987 1734
f 1989 1988 1736
f 1990 1989 1736
f 1990 1736 1737
f 1990 1737 1738
f 1991 1990 1738
f 1992 1991 1738
f 1992 1738 1739
f 1992 1739 1740
f 1993 1992 1740
f 1993 1740 1741
f 1994 1993 1741
f 1995 1994 1741
f 1995 1741 1742
f 1995 1742 1743
f 1996 1995 1743
f 1997 1996 1743
f 1997 1743 1744
f 1997 1744 1745
f 1998 1997 1745
f 1999 1998 1745
f 1999 1745 1746
f 1999 1746 1747
f 2000 1999 1747
f 2001 2000 1747
f 2001 1747 1748
f 2001 1748 1749
f 2002 2001 1749
f 2003 2002 1749
f 2003 1749 1750
f 2003 1750 1751
f 2004 2003 1751
f 2005 2004 1751
f 2005 1751 1752
f 2005 1752 1753
f 2006 2005 1753
f 2007 2006 1753
f 2007 1753 1754
f 2007 1754 1755
f 2008 2007 1755
f 2008 1755 1756
f 2009 2008 1756
f 2010 2009 1756
f 2010 1756 1757
f 2011 2010 1757
f 2011 1757 1758
f 2012 2011 1758
f 2012 1758 1759
f 2012 1759 1760
f 2013 2012 1760
f 2014 2013 1760
f 2014 1760 1761
f 2015 1761 1762
f 2015 2014 1761
f 2016 1762 1763
f 2016 1763 1764
f 2016 2015 1762
f 2017 2016 1764
f 2018 1764 1765
f 2018 2017 1764
f 2019 1765 1766
f 2019 2018 1765
f 2020 1766 1767
f 2020 2019 1766
f 2021 1767 1768
f 2021 2020 1767
f 2022 1768 1769
f 2022 1769 1770
f 2022 2021 1768
f 2023 2022 1770
f 2024 1770 1771
f 2024 2023 1770
f 2025 1771 1772
f 2025 1772 1773
f 2025 2024 1771
f 2026 2025 1773
f 2027 1773 1774
f 2027 2026 1773
f 2028 1774 1775
f 2028 2027 1774
f 2029 1775 1776
f 2029 1776 1777
f 2029 2028 1775
f 2030 2029 1777
f 2031 1777 1778
f 2031 2030 1777
f 2032 1778 1779
f 2032 2031 1778
f 2033 1779 1780
f 2033 1780 1781
f 2033 2032 1779
f 2034 2033 1781
f 2035 1781 1782
f 2035 1782 1783
f 2035 2034 1781
f 2036 2035 1783
f 2037 1783 1784
f 2037 1784 1785
f 2037 2036 1783
f 2038 1785 1786
f 2038 2037 1785
f 2039 2038 1786
f 2040 1786 1787
f 2040 2039 1786
f 2041 2040 1787
f 2041 1787 1788
f 2042 2041 1788
f 2042 1788 1789
f 2042 1789 1790
f 2043 2042 1790
f 2044 2043 1790
f 2044 1790 1791
f 2045 2044 1791
f 2045 1791 1792
f 2045 1792 1793
f 2046 2045 1793
f 2046 1793 1794
f 2047 2046 1794
f 2048 2047 1794
f 2048 1794 1795
f 2049 1795 1796
f 2049 2048 1795
f 2050 1796 1797
f 2050 1797 1798
f 2050 2049 1796
f 2051 2050 1798
f 2052 1798 1799
f 2052 1799 1800
f 2052 2051 1798
f 2053 1800 1801
f 2053 2052 1800
f 2054 1801 1802
f 2054 2053 1801
f 2055 2054 1802
f 2056 1802 1803
f 2056 2055 1802
f 2057 1803 1804
f 2057 1804 1805
f 2057 2056 1803
f 2058 1805 1806
f 2058 2057 1805
f 2059 2058 1806
f 2060 1806 1807
f 2060 2059 1806
f 2061 1807 1808
f 2061 1808 1809
f 2061 2060 1807
f 2062 1809 1810
f 2062 2061 1809
f 2063 2062 1810
f 2064 1810 1811
f 2064 1811 1812
f 2064 2063 1810
f 2065 2064 1812
f 2065 1812 1813
f 2066 2065 1813
f 2066 1813 1814
f 2067 2066 1814
f 2067 1814 1815
f 2068 2067 1815
f 2069 2068 1815
f 2069 1815 1816
f 2069 1816 1817
f 2070 2069 1817
f 2070 1817 1818
f 2071 2070 1818
f 2072 2071 1818
f 2072 1818 1819
f 2073 2072 1819
f 2073 1819 1820
f 2073 1820 1821
f 2074 2073 1821
f 2075 2074 1821
f 2075 1821 1822
f 2075 1822 1823
f 2076 2075 1823
f 2077 2076 1823
f 2077 1823 1824
f 2077 1824 1825
f 2078 2077 1825
f 2078 1825 1826
f 2079 2078 1826
f 2079 1826 1827
f 2080 2079 1827
f 2081 2080 1827
f 2081 1827 1828
f 2082 1828 1829
f 2082 2081 1828
f 2082 1829 1830
f 2083 2082 1830
f 2084 1830 1831
f 2084 2083 1830
f 2085 1831 1832
f 2085 1832 1833
f 2085 2084 1831
f 2086 2085 1833
f 2087 1833 1834
f 2087 1834 1835
f 2087 2086 1833
f 2088 1835 1836
f 2088 2087 1835
f 2089 2088 1836
f 2090 2089 1836
f 2090 1836 1837
f 2090 1837 1838
f 2091 2090 1838
f 2091 1838 1839
f 2092 2091 1839
f 2092 1839 1840
f 2093 2092 1840
f 2094 2093 1840
f 2094 1840 1841
f 2094 1841 1842
f 2095 2094 1842
f 2095 1842 1843
f 2096 2095 1843
f 2096 1843 1844
f 2097 2096 1844
f 2098 2097 1844
f 2098 1844 1845
f 2098 1845 1846
f 2099 2098 1846
f 2099 1846 1847
f 2100 2099 1847
f 2100 1847 1848
f 2101 2100 1848
f 2102 2101 1848
f 2102 1848 1849
f 2102 1849 1850
f 2103 2102 1850
f 2103 1850 1851
f 2104 2103 1851
f 2104 1851 1852
f 2105 2104 1852
f 2105 1852 1853
f 2106 2105 1853
f 2107 2106 1853
f 2107 1853 1854
f 2108 2107 1854
f 2108 1854 1855
f 2108 1855 1856
f 2109 2108 1856
f 2110 2109 1856
f 2110 1856 1857
f 2111 2110 1857
f 2111 1857 1858
f 2111 1858 1859
f 2112 2111 1859
f 2113 2112 1859
f 2113 1859 1860
f 2113 1860 1861
f 2114 2113 1861
f 2115 2114 1861
f 2115 1861 1862
f 2116 1862 1863
f 2116 1863 1864
f 2116 2115 1862
f 2117 2116 1864
f 2118 1864 1865
f 2118 2117 1864
f 2119 1865 1866
f 2119 2118 1865
f 2120 1866 1867
f 2120 2119 1866
f 2121 1867 1868
f 2121 2120 1867
f 2122 1868 1869
f 2122 1869 1870
f 2122 2121 1868
f 2123 2122 1870
f 2124 1870 1871
f 2124 1871 1872
f 2124 2123 1870
f 2125 1872 1873
f 2125 2124 1872
f 2126 2125 1873
f 2127 1873 1874
f 2127 2126 1873
f 2128 1874 1875
f 2128 1875 1876
f 2128 2127 1874
f 2129 2128 1876
f 2130 1876 1877
f 2130 2129 1876
f 2131 1877 1878
f 2131 1878 1879
f 2131 2130 1877
f 2132 2131 1879
f 2133 1879 1880
f 2133 1880 1881
f 2133 2132 1879
f 2134 2133 1881
f 2135 1881 1882
f 2135 1882 1883
f 2135 2134 1881
f 2136 2135 1883
f 2137 1883 1884
f 2137 1884 1885
f 2137 2136 1883
f 2138 2137 1885
f 2139 1885 1886
f 2139 1886 1887
f 2139 2138 1885
f 2140 2139 1887
f 2141 2140 1887
f 2141 1887 1888
f 2142 2141 1888
f 2142 1888 1889
f 2143 2142 1889
f 2143 1889 1890
f 2143 1890 1891
f 2144 2143 1891
f 2145 2144 1891
f 2145 1891 1892
f 2146 2145 1892
f 2146 1892 1893
f 2147 2146 1893
f 2147 1893 1894
f 2147 1894 1895
f 2148 2147 1895
f 2149 2148 1895
f 2149 1895 1896
f 2150 1896 1897
f 2150 2149 1896
f 2150 1897 1898
f 2151 2150 1898
f 2152 1898 1899
f 2152 1899 1900
f 2152 2151 1898
f 2153 2152 1900
f 2154 1900 1901
f 2154 1901 1902
f 2154 2153 1900
f 2155 2154 1902
f 2156 1902 1903
f 2156 1903 1904
f 2156 2155 1902
f 2157 2156 1904
f 2158 1904 1905
f 2158 2157 1904
f 2159 1905 1906
f 2159 2158 1905
f 2160 1906 1907
f 2160 1907 1908
f 2160 2159 1906
f 2161 2160 1908
f 2162 1908 1909
f 2162 2161 1908
f 2163 1909 1910
f 2163 1910 1911
f 2163 2162 1909
f 2164 1911 1912
f 2164 2163 1911
f 2165 2164 1912
f 2166 2165 1912
f 2166 1912 1913
f 1915 2166 1913
f 1915 1913 1914
