v -0.129000 -0.008800 -0.002800
v -0.129000 -0.008800 0.002800
v -0.129000 -0.003200 -0.002800
v -0.129000 -0.003200 0.002800
v -0.129000 -0.008800 -0.002800
v -0.129000 -0.008800 0.002800
v -0.125800 -0.012000 0.002800
v -0.125800 -0.012000 -0.002800
v -0.125800 -0.008800 -0.006000
v -0.129000 -0.008800 -0.002800
v -0.129000 -0.003200 -0.002800
v -0.125800 -0.003200 -0.006000
v -0.125800 -0.008800 0.006000
v -0.129000 -0.008800 0.002800
v -0.129000 -0.003200 0.002800
v -0.125800 -0.003200 0.006000
v -0.129000 -0.003200 -0.002800
v -0.129000 -0.003200 0.002800
v -0.125800 0.000000 0.002800
v -0.125800 0.000000 -0.002800
v -0.125800 -0.008800 -0.006000
v -0.129000 -0.008800 -0.002800
v -0.125800 -0.012000 -0.002800
v -0.125800 -0.008800 0.006000
v -0.129000 -0.008800 0.002800
v -0.125800 -0.012000 0.002800
v -0.125800 -0.012000 -0.002800
v -0.125800 -0.012000 0.002800
v -0.014200 -0.012000 0.002800
v -0.014200 -0.012000 -0.002800
v -0.125800 -0.008800 -0.006000
v -0.125800 -0.003200 -0.006000
v -0.014200 -0.008800 -0.006000
v -0.014200 -0.003200 -0.006000
v -0.125800 -0.003200 -0.006000
v -0.129000 -0.003200 -0.002800
v -0.125800 0.000000 -0.002800
v -0.125800 -0.008800 0.006000
v -0.125800 -0.003200 0.006000
v -0.014200 -0.008800 0.006000
v -0.014200 -0.003200 0.006000
v -0.125800 0.000000 0.002800
v -0.129000 -0.003200 0.002800
v -0.125800 -0.003200 0.006000
v -0.125800 0.000000 -0.002800
v -0.036000 0.000000 -0.002800
v -0.125800 0.000000 0.002800
v -0.036000 0.000000 0.002800
v -0.036000 0.000000 0.003000
v -0.004000 0.000000 0.003000
v -0.004000 0.000000 -0.003000
v -0.036000 0.000000 -0.003000
v -0.125800 -0.008800 -0.006000
v -0.125800 -0.012000 -0.002800
v -0.014200 -0.012000 -0.002800
v -0.014200 -0.008800 -0.006000
v -0.125800 -0.008800 0.006000
v -0.125800 -0.012000 0.002800
v -0.014200 -0.012000 0.002800
v -0.014200 -0.008800 0.006000
v -0.012200 -0.010000 -0.002800
v -0.014200 -0.012000 -0.002800
v -0.012200 -0.010000 0.002800
v -0.014200 -0.012000 0.002800
v -0.125800 -0.003200 -0.006000
v -0.014200 -0.003200 -0.006000
v -0.125800 0.000000 -0.002800
v -0.036000 0.000000 -0.002800
v -0.036200 -0.000200 -0.003000
v -0.036200 -0.002000 -0.004800
v -0.036000 -0.002200 -0.005000
v -0.014200 -0.002200 -0.005000
v -0.014200 -0.008800 -0.006000
v -0.014200 -0.003200 -0.006000
v -0.012400 -0.008800 -0.004200
v -0.013200 -0.008000 -0.005000
v -0.013200 -0.003200 -0.005000
v -0.125800 0.000000 0.002800
v -0.125800 -0.003200 0.006000
v -0.036000 0.000000 0.002800
v -0.036200 -0.000200 0.003000
v -0.036200 -0.002000 0.004800
v -0.036000 -0.002200 0.005000
v -0.014200 -0.002200 0.005000
v -0.014200 -0.003200 0.006000
v -0.014200 -0.008800 0.006000
v -0.014200 -0.003200 0.006000
v -0.012400 -0.008800 0.004200
v -0.013200 -0.008000 0.005000
v -0.013200 -0.003200 0.005000
v -0.014200 -0.008800 -0.006000
v -0.012400 -0.008800 -0.004200
v -0.014200 -0.012000 -0.002800
v -0.012200 -0.010000 -0.002800
v -0.012400 -0.010000 -0.003000
v -0.014200 -0.008800 0.006000
v -0.012400 -0.008800 0.004200
v -0.014200 -0.012000 0.002800
v -0.012200 -0.010000 0.002800
v -0.012400 -0.010000 0.003000
v -0.012400 -0.010000 -0.003000
v -0.004000 -0.010000 -0.003000
v -0.012200 -0.010000 -0.002800
v -0.012200 -0.010000 0.002800
v -0.012400 -0.010000 0.003000
v -0.004000 -0.010000 0.003000
v -0.014200 -0.003200 -0.006000
v -0.013200 -0.003200 -0.005000
v -0.014200 -0.002200 -0.005000
v -0.036000 -0.002200 -0.005000
v -0.036000 -0.002000 -0.005000
v -0.014200 -0.002200 -0.005000
v -0.013200 -0.003200 -0.005000
v -0.013200 -0.008000 -0.005000
v -0.004000 -0.008000 -0.005000
v -0.004000 -0.002000 -0.005000
v -0.036000 -0.002200 -0.005000
v -0.036000 -0.002000 -0.005000
v -0.036200 -0.002000 -0.004800
v -0.036000 -0.002000 -0.005000
v -0.036200 -0.002000 -0.004800
v -0.036000 0.000000 -0.003000
v -0.036200 -0.000200 -0.003000
v -0.036200 -0.000200 -0.003000
v -0.036000 0.000000 -0.003000
v -0.036000 0.000000 -0.002800
v -0.013200 -0.008000 -0.005000
v -0.004000 -0.008000 -0.005000
v -0.012400 -0.008800 -0.004200
v -0.012400 -0.010000 -0.003000
v -0.004000 -0.010000 -0.003000
v -0.014200 -0.002200 0.005000
v -0.013200 -0.003200 0.005000
v -0.014200 -0.003200 0.006000
v -0.036000 -0.002200 0.005000
v -0.036000 -0.002000 0.005000
v -0.014200 -0.002200 0.005000
v -0.013200 -0.003200 0.005000
v -0.013200 -0.008000 0.005000
v -0.004000 -0.008000 0.005000
v -0.004000 -0.002000 0.005000
v -0.036000 -0.002200 0.005000
v -0.036000 -0.002000 0.005000
v -0.036200 -0.002000 0.004800
v -0.036000 0.000000 0.003000
v -0.036200 -0.000200 0.003000
v -0.036000 -0.002000 0.005000
v -0.036200 -0.002000 0.004800
v -0.036200 -0.000200 0.003000
v -0.036000 0.000000 0.002800
v -0.036000 0.000000 0.003000
v -0.013200 -0.008000 0.005000
v -0.004000 -0.008000 0.005000
v -0.012400 -0.008800 0.004200
v -0.012400 -0.010000 0.003000
v -0.004000 -0.010000 0.003000
v -0.002000 -0.008000 -0.003000
v -0.002000 -0.008000 0.003000
v -0.004000 -0.010000 0.003000
v -0.004000 -0.010000 -0.003000
v -0.036000 -0.002000 -0.005000
v -0.036000 0.000000 -0.003000
v -0.004000 0.000000 -0.003000
v -0.004000 -0.002000 -0.005000
v -0.004000 -0.008000 -0.005000
v -0.002000 -0.008000 -0.003000
v -0.002000 -0.002000 -0.003000
v -0.004000 -0.002000 -0.005000
v -0.004000 -0.008000 -0.005000
v -0.002000 -0.008000 -0.003000
v -0.004000 -0.010000 -0.003000
v -0.036000 0.000000 0.003000
v -0.036000 -0.002000 0.005000
v -0.004000 0.000000 0.003000
v -0.004000 -0.002000 0.005000
v -0.004000 -0.008000 0.005000
v -0.002000 -0.008000 0.003000
v -0.002000 -0.002000 0.003000
v -0.004000 -0.002000 0.005000
v -0.004000 -0.008000 0.005000
v -0.002000 -0.008000 0.003000
v -0.004000 -0.010000 0.003000
v -0.002000 -0.002000 -0.003000
v -0.002000 -0.002000 0.003000
v -0.004000 0.000000 0.003000
v -0.004000 0.000000 -0.003000
v -0.002000 -0.008000 -0.003000
v -0.002000 -0.008000 0.003000
v -0.002000 -0.002000 -0.003000
v -0.002000 -0.002000 0.003000
v -0.004000 -0.002000 -0.005000
v -0.002000 -0.002000 -0.003000
v -0.004000 0.000000 -0.003000
v -0.004000 0.000000 0.003000
v -0.002000 -0.002000 0.003000
v -0.004000 -0.002000 0.005000
f 2 3 1
f 2 4 3
f 7 6 5
f 7 5 8
f 12 9 10
f 12 10 11
f 16 14 13
f 16 15 14
f 19 17 18
f 19 20 17
f 23 22 21
f 26 24 25
f 29 28 27
f 29 27 30
f 34 31 32
f 34 33 31
f 37 35 36
f 41 39 38
f 41 38 40
f 44 42 43
f 48 46 45
f 48 45 47
f 51 52 46
f 50 48 49
f 50 46 48
f 50 51 46
f 56 54 53
f 56 55 54
f 60 57 58
f 60 58 59
f 64 62 61
f 64 61 63
f 69 67 68
f 70 65 67
f 70 67 69
f 71 65 70
f 66 71 72
f 66 65 71
f 73 76 75
f 74 77 76
f 74 76 73
f 81 80 78
f 82 78 79
f 82 81 78
f 83 82 79
f 85 84 83
f 85 83 79
f 86 88 89
f 87 89 90
f 87 86 89
f 95 91 92
f 93 95 94
f 93 91 95
f 100 97 96
f 98 99 100
f 98 100 96
f 102 103 101
f 106 104 103
f 106 105 104
f 106 103 102
f 109 108 107
f 112 110 111
f 115 114 113
f 116 113 112
f 116 115 113
f 116 112 111
f 118 117 119
f 122 120 121
f 122 121 123
f 126 125 124
f 131 130 129
f 128 129 127
f 128 131 129
f 134 133 132
f 137 136 135
f 140 138 139
f 141 137 138
f 141 138 140
f 141 136 137
f 143 144 142
f 147 145 146
f 147 146 148
f 151 150 149
f 156 154 155
f 153 152 154
f 153 154 156
f 159 157 158
f 159 160 157
f 164 161 162
f 164 162 163
f 168 166 165
f 168 167 166
f 171 169 170
f 175 172 173
f 175 174 172
f 179 176 177
f 179 177 178
f 182 181 180
f 185 184 183
f 185 183 186
f 188 187 189
f 188 189 190
f 193 192 191
f 196 195 194
