v 0.010000 0.016000 0.021000
v 0.010000 0.016000 2.049000
v 0.010000 0.054000 0.021000
v 0.010000 0.054000 2.049000
v 0.010000 0.016000 0.021000
v 0.010700 0.015300 0.021000
v 0.010000 0.016000 2.049000
v 0.010700 0.015300 2.049000
v 0.011000 0.016000 0.020000
v 0.010000 0.016000 0.021000
v 0.010000 0.054000 0.021000
v 0.011000 0.054000 0.020000
v 0.011000 0.016000 2.050000
v 0.010000 0.016000 2.049000
v 0.010000 0.054000 2.049000
v 0.011000 0.054000 2.050000
v 0.010000 0.054000 0.021000
v 0.010000 0.054000 2.049000
v 0.011000 0.055000 2.049000
v 0.011000 0.055000 0.021000
v 0.011000 0.016000 0.020000
v 0.010000 0.016000 0.021000
v 0.011000 0.015300 0.020700
v 0.010800 0.015400 0.020800
v 0.010700 0.015300 0.021000
v 0.011000 0.016000 2.050000
v 0.010000 0.016000 2.049000
v 0.011000 0.015300 2.049300
v 0.010800 0.015400 2.049200
v 0.010700 0.015300 2.049000
v 0.010000 0.014600 0.020800
v 0.010800 0.015400 0.020800
v 0.010000 0.014600 2.049200
v 0.010800 0.015400 2.049200
v 0.010700 0.015300 2.049000
v 0.010700 0.015300 0.021000
v 0.011000 0.016000 0.020000
v 0.011000 0.054000 0.020000
v 0.829000 0.016000 0.020000
v 0.829000 0.054000 0.020000
v 0.011000 0.054000 0.020000
v 0.010000 0.054000 0.021000
v 0.011000 0.055000 0.021000
v 0.011000 0.016000 2.050000
v 0.011000 0.054000 2.050000
v 0.829000 0.016000 2.050000
v 0.829000 0.054000 2.050000
v 0.011000 0.055000 2.049000
v 0.010000 0.054000 2.049000
v 0.011000 0.054000 2.050000
v 0.011000 0.055000 0.021000
v 0.011000 0.055000 2.049000
v 0.829000 0.055000 2.049000
v 0.829000 0.055000 0.021000
v 0.010800 0.014600 0.020000
v 0.010800 0.015400 0.020800
v 0.011000 0.015300 0.020700
v 0.829000 0.015300 0.020700
v 0.829200 0.015400 0.020800
v 0.829200 0.014600 0.020000
v 0.011000 0.016000 0.020000
v 0.829000 0.016000 0.020000
v 0.011000 0.015300 0.020700
v 0.829000 0.015300 0.020700
v 0.010800 0.015400 2.049200
v 0.010800 0.014600 2.050000
v 0.011000 0.015300 2.049300
v 0.829000 0.015300 2.049300
v 0.829200 0.015400 2.049200
v 0.829200 0.014600 2.050000
v 0.011000 0.016000 2.050000
v 0.829000 0.016000 2.050000
v 0.011000 0.015300 2.049300
v 0.829000 0.015300 2.049300
v 0.010800 0.014600 0.020000
v 0.010000 0.014600 0.020800
v 0.010800 0.015400 0.020800
v 0.010000 0.009800 0.020800
v 0.010000 0.009800 2.049200
v 0.010000 0.014600 0.020800
v 0.010000 0.014600 2.049200
v 0.010800 0.015400 2.049200
v 0.010000 0.014600 2.049200
v 0.010800 0.014600 2.050000
v 0.011000 0.054000 0.020000
v 0.011000 0.055000 0.021000
v 0.829000 0.055000 0.021000
v 0.829000 0.054000 0.020000
v 0.829000 0.016000 0.020000
v 0.830000 0.016000 0.021000
v 0.830000 0.054000 0.021000
v 0.829000 0.054000 0.020000
v 0.011000 0.055000 2.049000
v 0.011000 0.054000 2.050000
v 0.829000 0.055000 2.049000
v 0.829000 0.054000 2.050000
v 0.829000 0.016000 2.050000
v 0.830000 0.016000 2.049000
v 0.830000 0.054000 2.049000
v 0.829000 0.054000 2.050000
v 0.830000 0.054000 0.021000
v 0.830000 0.054000 2.049000
v 0.829000 0.055000 2.049000
v 0.829000 0.055000 0.021000
v 0.829000 0.016000 0.020000
v 0.830000 0.016000 0.021000
v 0.829000 0.015300 0.020700
v 0.829200 0.015400 0.020800
v 0.829300 0.015300 0.021000
v 0.829200 0.014600 0.020000
v 0.830000 0.014600 0.020800
v 0.829200 0.015400 0.020800
v 0.010800 0.009800 0.020000
v 0.010800 0.014600 0.020000
v 0.829200 0.009800 0.020000
v 0.829200 0.014600 0.020000
v 0.829000 0.016000 2.050000
v 0.830000 0.016000 2.049000
v 0.829000 0.015300 2.049300
v 0.829200 0.015400 2.049200
v 0.829300 0.015300 2.049000
v 0.829200 0.015400 2.049200
v 0.830000 0.014600 2.049200
v 0.829200 0.014600 2.050000
v 0.010800 0.009800 2.050000
v 0.010800 0.014600 2.050000
v 0.829200 0.009800 2.050000
v 0.829200 0.014600 2.050000
v 0.010800 0.009800 0.020000
v 0.010000 0.009800 0.020800
v 0.010000 0.014600 0.020800
v 0.010800 0.014600 0.020000
v 0.010000 0.009800 0.020800
v 0.010800 0.009000 0.020800
v 0.010000 0.009800 2.049200
v 0.010800 0.009000 2.049200
v 0.010800 0.009800 2.050000
v 0.010000 0.009800 2.049200
v 0.010000 0.014600 2.049200
v 0.010800 0.014600 2.050000
v 0.829000 0.054000 0.020000
v 0.830000 0.054000 0.021000
v 0.829000 0.055000 0.021000
v 0.830000 0.016000 0.021000
v 0.830000 0.016000 2.049000
v 0.830000 0.054000 0.021000
v 0.830000 0.054000 2.049000
v 0.829000 0.055000 2.049000
v 0.830000 0.054000 2.049000
v 0.829000 0.054000 2.050000
v 0.830000 0.016000 0.021000
v 0.829300 0.015300 0.021000
v 0.830000 0.016000 2.049000
v 0.829300 0.015300 2.049000
v 0.830000 0.014600 0.020800
v 0.829200 0.015400 0.020800
v 0.830000 0.014600 2.049200
v 0.829200 0.015400 2.049200
v 0.829300 0.015300 2.049000
v 0.829300 0.015300 0.021000
v 0.829200 0.009800 0.020000
v 0.830000 0.009800 0.020800
v 0.830000 0.014600 0.020800
v 0.829200 0.014600 0.020000
v 0.010800 0.009800 0.020000
v 0.010800 0.009000 0.020800
v 0.829200 0.009000 0.020800
v 0.829200 0.009800 0.020000
v 0.829200 0.009800 2.050000
v 0.830000 0.009800 2.049200
v 0.830000 0.014600 2.049200
v 0.829200 0.014600 2.050000
v 0.010800 0.009800 2.050000
v 0.010800 0.009000 2.049200
v 0.829200 0.009000 2.049200
v 0.829200 0.009800 2.050000
v 0.010800 0.009800 0.020000
v 0.010000 0.009800 0.020800
v 0.010800 0.009000 0.020800
v 0.010800 0.009800 2.050000
v 0.010000 0.009800 2.049200
v 0.010800 0.009000 2.049200
v 0.010800 0.009000 0.020800
v 0.010800 0.009000 2.049200
v 0.829200 0.009000 2.049200
v 0.829200 0.009000 0.020800
v 0.141200 0.009000 0.274200
v 0.141200 0.009000 0.290700
v 0.698800 0.009000 0.274200
v 0.698800 0.009000 0.290700
v 0.708800 0.009000 0.290700
v 0.709300 0.009000 0.291200
v 0.709300 0.009000 1.848800
v 0.708800 0.009000 1.849300
v 0.698800 0.009000 1.849300
v 0.698800 0.009000 1.860800
v 0.141200 0.009000 1.860800
v 0.141200 0.009000 1.849300
v 0.139200 0.009000 1.849300
v 0.138700 0.009000 1.848800
v 0.138700 0.009000 0.291200
v 0.139200 0.009000 0.290700
v 0.830000 0.009800 0.020800
v 0.830000 0.014600 0.020800
v 0.830000 0.014600 2.049200
v 0.830000 0.009800 2.049200
v 0.829200 0.009800 0.020000
v 0.830000 0.009800 0.020800
v 0.829200 0.009000 0.020800
v 0.829200 0.009800 2.050000
v 0.830000 0.009800 2.049200
v 0.829200 0.009000 2.049200
v 0.829200 0.009000 0.020800
v 0.829200 0.009000 2.049200
v 0.830000 0.009800 0.020800
v 0.830000 0.009800 2.049200
v 0.142000 0.009800 0.275000
v 0.141200 0.009000 0.274200
v 0.142000 0.009800 0.290000
v 0.141900 0.009700 0.290000
v 0.141200 0.009000 0.290700
v 0.142000 0.009800 0.275000
v 0.698000 0.009800 0.275000
v 0.141200 0.009000 0.274200
v 0.698800 0.009000 0.274200
v 0.698000 0.009800 0.275000
v 0.698800 0.009000 0.274200
v 0.698000 0.009800 0.290000
v 0.698100 0.009700 0.290000
v 0.698800 0.009000 0.290700
v 0.141900 0.009700 0.290000
v 0.698100 0.009700 0.290000
v 0.141200 0.009000 0.290700
v 0.139200 0.009000 0.290700
v 0.139200 0.008500 0.291200
v 0.708800 0.008500 0.291200
v 0.708800 0.009000 0.290700
v 0.698800 0.009000 0.290700
v 0.708800 0.009000 0.290700
v 0.709300 0.009000 0.291200
v 0.708800 0.008500 0.291200
v 0.709300 0.009000 1.848800
v 0.708800 0.008500 1.848800
v 0.708800 0.008500 0.291200
v 0.709300 0.009000 0.291200
v 0.708800 0.009000 1.849300
v 0.709300 0.009000 1.848800
v 0.708800 0.008500 1.848800
v 0.139200 0.009000 1.849300
v 0.141200 0.009000 1.849300
v 0.139200 0.008500 1.848800
v 0.708800 0.008500 1.848800
v 0.708800 0.009000 1.849300
v 0.698800 0.009000 1.849300
v 0.698100 0.009700 1.850000
v 0.141900 0.009700 1.850000
v 0.698000 0.009800 1.850000
v 0.698100 0.009700 1.850000
v 0.698000 0.009800 1.860000
v 0.698800 0.009000 1.860800
v 0.698800 0.009000 1.849300
v 0.142000 0.009800 1.860000
v 0.698000 0.009800 1.860000
v 0.141200 0.009000 1.860800
v 0.698800 0.009000 1.860800
v 0.142000 0.009800 1.850000
v 0.141900 0.009700 1.850000
v 0.142000 0.009800 1.860000
v 0.141200 0.009000 1.860800
v 0.141200 0.009000 1.849300
v 0.139200 0.009000 1.849300
v 0.138700 0.009000 1.848800
v 0.139200 0.008500 1.848800
v 0.139200 0.008500 0.291200
v 0.139200 0.008500 1.848800
v 0.138700 0.009000 0.291200
v 0.138700 0.009000 1.848800
v 0.139200 0.009000 0.290700
v 0.138700 0.009000 0.291200
v 0.139200 0.008500 0.291200
v 0.142000 0.009800 0.290000
v 0.141900 0.009700 0.290000
v 0.698100 0.009700 0.290000
v 0.698000 0.009800 0.290000
v 0.698000 0.014600 0.290000
v 0.698400 0.015000 0.290000
v 0.141600 0.015000 0.290000
v 0.142000 0.014600 0.290000
v 0.142000 0.009800 0.275000
v 0.142000 0.009800 0.290000
v 0.142000 0.014600 0.275000
v 0.142000 0.014600 0.290000
v 0.142000 0.014600 0.275000
v 0.142000 0.009800 0.275000
v 0.698000 0.009800 0.275000
v 0.698000 0.014600 0.275000
v 0.698000 0.009800 0.275000
v 0.698000 0.009800 0.290000
v 0.698000 0.014600 0.275000
v 0.698000 0.014600 0.290000
v 0.708800 0.008500 0.291200
v 0.139200 0.008500 0.291200
v 0.139200 0.008500 1.848800
v 0.708800 0.008500 1.848800
v 0.166800 0.008500 0.318800
v 0.166800 0.008500 1.821200
v 0.681200 0.008500 0.318800
v 0.681200 0.008500 1.821200
v 0.142000 0.009800 1.850000
v 0.141900 0.009700 1.850000
v 0.698100 0.009700 1.850000
v 0.698000 0.009800 1.850000
v 0.698000 0.014600 1.850000
v 0.698400 0.015000 1.850000
v 0.141600 0.015000 1.850000
v 0.142000 0.014600 1.850000
v 0.698000 0.009800 1.850000
v 0.698000 0.009800 1.860000
v 0.698000 0.014600 1.850000
v 0.698000 0.014600 1.860000
v 0.142000 0.014600 1.860000
v 0.142000 0.009800 1.860000
v 0.698000 0.009800 1.860000
v 0.698000 0.014600 1.860000
v 0.142000 0.009800 1.850000
v 0.142000 0.009800 1.860000
v 0.142000 0.014600 1.850000
v 0.142000 0.014600 1.860000
v 0.141600 0.015000 0.274600
v 0.141600 0.015000 0.290000
v 0.142000 0.014600 0.275000
v 0.142000 0.014600 0.290000
v 0.698400 0.015000 0.274600
v 0.698400 0.015000 0.290000
v 0.141600 0.015000 0.274600
v 0.141600 0.015000 0.290000
v 0.142000 0.014600 0.275000
v 0.698000 0.014600 0.275000
v 0.141600 0.015000 0.274600
v 0.698400 0.015000 0.274600
v 0.698400 0.015000 0.274600
v 0.698400 0.015000 0.290000
v 0.698000 0.014600 0.275000
v 0.698000 0.014600 0.290000
v 0.168000 0.009700 0.320000
v 0.166800 0.008500 0.318800
v 0.168000 0.009700 1.820000
v 0.166800 0.008500 1.821200
v 0.168000 0.009700 1.820000
v 0.680000 0.009700 1.820000
v 0.166800 0.008500 1.821200
v 0.681200 0.008500 1.821200
v 0.680000 0.009700 0.320000
v 0.681200 0.008500 0.318800
v 0.680000 0.009700 1.820000
v 0.681200 0.008500 1.821200
v 0.698400 0.015000 1.850000
v 0.698400 0.015000 1.860400
v 0.698000 0.014600 1.850000
v 0.698000 0.014600 1.860000
v 0.698400 0.015000 1.850000
v 0.698400 0.015000 1.860400
v 0.141600 0.015000 1.850000
v 0.141600 0.015000 1.860400
v 0.141600 0.015000 1.850000
v 0.141600 0.015000 1.860400
v 0.142000 0.014600 1.850000
v 0.142000 0.014600 1.860000
v 0.142000 0.014600 1.860000
v 0.698000 0.014600 1.860000
v 0.141600 0.015000 1.860400
v 0.698400 0.015000 1.860400
v 0.168000 0.009700 0.320000
v 0.680000 0.009700 0.320000
v 0.166800 0.008500 0.318800
v 0.681200 0.008500 0.318800
v 0.168000 0.009700 0.320000
v 0.168000 0.009700 1.820000
v 0.168000 0.026000 0.320000
v 0.168000 0.026000 1.820000
v 0.168000 0.009700 1.820000
v 0.680000 0.009700 1.820000
v 0.680000 0.026000 1.820000
v 0.168000 0.026000 1.820000
v 0.680000 0.009700 0.320000
v 0.680000 0.009700 1.820000
v 0.680000 0.026000 0.320000
v 0.680000 0.026000 1.820000
v 0.168000 0.009700 0.320000
v 0.168000 0.026000 0.320000
v 0.680000 0.009700 0.320000
v 0.680000 0.026000 0.320000
v 0.168000 0.026000 0.320000
v 0.680000 0.026000 0.320000
v 0.168000 0.026000 1.820000
v 0.680000 0.026000 1.820000
f 2 3 1
f 2 4 3
f 8 5 6
f 8 7 5
f 12 9 10
f 12 10 11
f 16 14 13
f 16 15 14
f 19 17 18
f 19 20 17
f 24 22 21
f 23 24 21
f 25 22 24
f 29 26 27
f 28 26 29
f 30 29 27
f 36 32 31
f 35 31 33
f 35 36 31
f 34 35 33
f 40 37 38
f 40 39 37
f 43 41 42
f 47 45 44
f 47 44 46
f 50 48 49
f 53 51 52
f 53 54 51
f 55 56 57
f 60 57 58
f 60 58 59
f 60 55 57
f 62 63 61
f 62 64 63
f 66 67 65
f 70 68 67
f 70 69 68
f 70 67 66
f 72 71 73
f 72 73 74
f 77 75 76
f 79 80 78
f 79 81 80
f 84 82 83
f 88 85 86
f 88 86 87
f 92 90 89
f 92 91 90
f 96 93 94
f 96 95 93
f 100 97 98
f 100 98 99
f 103 102 101
f 103 101 104
f 108 105 106
f 107 105 108
f 109 108 106
f 112 111 110
f 116 113 114
f 116 115 113
f 120 118 117
f 119 120 117
f 121 118 120
f 124 123 122
f 128 126 125
f 128 125 127
f 132 129 130
f 132 130 131
f 136 133 134
f 136 135 133
f 140 138 137
f 140 139 138
f 143 142 141
f 145 144 146
f 145 146 147
f 150 149 148
f 154 152 151
f 154 151 153
f 160 155 156
f 157 155 160
f 159 157 160
f 158 157 159
f 164 162 161
f 164 163 162
f 168 166 165
f 168 167 166
f 172 169 170
f 172 170 171
f 176 173 174
f 176 174 175
f 179 178 177
f 182 180 181
f 201 183 187
f 201 187 202
f 188 202 187
f 189 183 186
f 189 187 183
f 191 190 189
f 192 189 186
f 192 191 189
f 197 199 198
f 197 200 199
f 184 201 200
f 184 183 201
f 184 200 197
f 196 194 193
f 196 195 194
f 185 197 196
f 185 184 197
f 185 196 193
f 185 192 186
f 185 193 192
f 206 203 204
f 206 204 205
f 209 207 208
f 212 211 210
f 214 213 215
f 214 215 216
f 220 218 217
f 220 217 219
f 221 218 220
f 223 222 224
f 223 224 225
f 229 226 227
f 229 228 226
f 230 229 227
f 233 235 234
f 238 235 233
f 232 233 231
f 232 238 233
f 236 235 238
f 237 236 238
f 241 239 240
f 243 244 245
f 243 245 242
f 248 247 246
f 250 249 251
f 254 250 251
f 255 256 250
f 255 250 254
f 252 254 251
f 253 254 252
f 259 257 258
f 260 258 261
f 260 259 258
f 263 264 262
f 263 265 264
f 268 267 266
f 269 270 267
f 269 267 268
f 273 271 272
f 275 276 274
f 275 277 276
f 280 279 278
f 283 282 281
f 283 281 284
f 285 281 288
f 285 284 281
f 286 288 287
f 286 285 288
f 290 289 291
f 290 291 292
f 296 293 294
f 296 294 295
f 298 299 297
f 298 300 299
f 307 302 301
f 307 305 302
f 306 303 302
f 306 302 305
f 308 303 306
f 304 303 308
f 304 308 301
f 308 307 301
f 311 309 310
f 311 312 309
f 313 316 309
f 313 309 312
f 314 315 316
f 314 316 313
f 318 319 317
f 318 320 319
f 324 322 321
f 324 323 322
f 326 325 327
f 326 327 328
f 330 331 329
f 330 332 331
f 334 335 333
f 334 336 335
f 338 339 337
f 338 340 339
f 342 341 343
f 342 343 344
f 348 346 345
f 348 345 347
f 350 351 349
f 350 352 351
f 355 353 354
f 356 355 354
f 360 357 359
f 358 357 360
f 362 363 361
f 362 364 363
f 368 367 365
f 366 368 365
f 370 369 371
f 370 371 372
f 374 373 375
f 374 375 376
f 378 377 379
f 378 379 380
f 383 382 381
f 383 381 384
f 386 387 385
f 386 388 387
f 392 390 389
f 392 389 391
f 396 393 394
f 396 395 393
