o mesh
v 0.010000 0 -0.023560
v 0.009848 -0.001736 -0.023560
v 0.009397 -0.00342 -0.023560
v 0.008660 -0.005 -0.023560
v 0.007660 -0.006428 -0.023560
v 0.006428 -0.00766 -0.023560
v 0.005000 -0.00866 -0.023560
v 0.003420 -0.009397 -0.023560
v 0.001736 -0.009848 -0.023560
v 0.000000 -0.01 -0.023560
v -0.001736 -0.009848 -0.023560
v -0.003420 -0.009397 -0.023560
v -0.005000 -0.00866 -0.023560
v -0.006428 -0.00766 -0.023560
v -0.007660 -0.006428 -0.023560
v -0.008660 -0.005 -0.023560
v -0.009397 -0.00342 -0.023560
v -0.009848 -0.001736 -0.023560
v -0.010000 0 -0.023560
v -0.009848 0.001736 -0.023560
v -0.009397 0.00342 -0.023560
v -0.008660 0.005 -0.023560
v -0.007660 0.006428 -0.023560
v -0.006428 0.00766 -0.023560
v -0.005000 0.00866 -0.023560
v -0.003420 0.009397 -0.023560
v -0.001736 0.009848 -0.023560
v -0.000000 0.01 -0.023560
v 0.001736 0.009848 -0.023560
v 0.003420 0.009397 -0.023560
v 0.005000 0.00866 -0.023560
v 0.006428 0.00766 -0.023560
v 0.007660 0.006428 -0.023560
v 0.008660 0.005 -0.023560
v 0.009397 0.00342 -0.023560
v 0.009848 0.001736 -0.023560
v 0.010000 0 0.023560
v 0.009848 -0.001736 0.023560
v 0.009397 -0.00342 0.023560
v 0.008660 -0.005 0.023560
v 0.007660 -0.006428 0.023560
v 0.006428 -0.00766 0.023560
v 0.005000 -0.00866 0.023560
v 0.003420 -0.009397 0.023560
v 0.001736 -0.009848 0.023560
v 0.000000 -0.01 0.023560
v -0.001736 -0.009848 0.023560
v -0.003420 -0.009397 0.023560
v -0.005000 -0.00866 0.023560
v -0.006428 -0.00766 0.023560
v -0.007660 -0.006428 0.023560
v -0.008660 -0.005 0.023560
v -0.009397 -0.00342 0.023560
v -0.009848 -0.001736 0.023560
v -0.010000 0 0.023560
v -0.009848 0.001736 0.023560
v -0.009397 0.00342 0.023560
v -0.008660 0.005 0.023560
v -0.007660 0.006428 0.023560
v -0.006428 0.00766 0.023560
v -0.005000 0.00866 0.023560
v -0.003420 0.009397 0.023560
v -0.001736 0.009848 0.023560
v -0.000000 0.01 0.023560
v 0.001736 0.009848 0.023560
v 0.003420 0.009397 0.023560
v 0.005000 0.00866 0.023560
v 0.006428 0.00766 0.023560
v 0.007660 0.006428 0.023560
v 0.008660 0.005 0.023560
v 0.009397 0.00342 0.023560
v 0.009848 0.001736 0.023560
v 0.005600 0 0.023560
v 0.005515 -0.000972 0.023560
v 0.005262 -0.001915 0.023560
v 0.004850 -0.0028 0.023560
v 0.004290 -0.0036 0.023560
v 0.003600 -0.00429 0.023560
v 0.002800 -0.00485 0.023560
v 0.001915 -0.005262 0.023560
v 0.000972 -0.005515 0.023560
v 0.000000 -0.0056 0.023560
v -0.000972 -0.005515 0.023560
v -0.001915 -0.005262 0.023560
v -0.002800 -0.00485 0.023560
v -0.003600 -0.00429 0.023560
v -0.004290 -0.0036 0.023560
v -0.004850 -0.0028 0.023560
v -0.005262 -0.001915 0.023560
v -0.005515 -0.000972 0.023560
v -0.005600 0 0.023560
v -0.005515 0.000972 0.023560
v -0.005262 0.001915 0.023560
v -0.004850 0.0028 0.023560
v -0.004290 0.0036 0.023560
v -0.003600 0.00429 0.023560
v -0.002800 0.00485 0.023560
v -0.001915 0.005262 0.023560
v -0.000972 0.005515 0.023560
v -0.000000 0.0056 0.023560
v 0.000972 0.005515 0.023560
v 0.001915 0.005262 0.023560
v 0.002800 0.00485 0.023560
v 0.003600 0.00429 0.023560
v 0.004290 0.0036 0.023560
v 0.004850 0.0028 0.023560
v 0.005262 0.001915 0.023560
v 0.005515 0.000972 0.023560
v 0.005600 0 -0.023560
v 0.005515 -0.000972 -0.023560
v 0.005262 -0.001915 -0.023560
v 0.004850 -0.0028 -0.023560
v 0.004290 -0.0036 -0.023560
v 0.003600 -0.00429 -0.023560
v 0.002800 -0.00485 -0.023560
v 0.001915 -0.005262 -0.023560
v 0.000972 -0.005515 -0.023560
v 0.000000 -0.0056 -0.023560
v -0.000972 -0.005515 -0.023560
v -0.001915 -0.005262 -0.023560
v -0.002800 -0.00485 -0.023560
v -0.003600 -0.00429 -0.023560
v -0.004290 -0.0036 -0.023560
v -0.004850 -0.0028 -0.023560
v -0.005262 -0.001915 -0.023560
v -0.005515 -0.000972 -0.023560
v -0.005600 0 -0.023560
v -0.005515 0.000972 -0.023560
v -0.005262 0.001915 -0.023560
v -0.004850 0.0028 -0.023560
v -0.004290 0.0036 -0.023560
v -0.003600 0.00429 -0.023560
v -0.002800 0.00485 -0.023560
v -0.001915 0.005262 -0.023560
v -0.000972 0.005515 -0.023560
v -0.000000 0.0056 -0.023560
v 0.000972 0.005515 -0.023560
v 0.001915 0.005262 -0.023560
v 0.002800 0.00485 -0.023560
v 0.003600 0.00429 -0.023560
v 0.004290 0.0036 -0.023560
v 0.004850 0.0028 -0.023560
v 0.005262 0.001915 -0.023560
v 0.005515 0.000972 -0.023560
f 37 2 1
f 37 38 2
f 38 3 2
f 38 39 3
f 39 4 3
f 39 40 4
f 40 5 4
f 40 41 5
f 41 6 5
f 41 42 6
f 42 7 6
f 42 43 7
f 43 8 7
f 43 44 8
f 44 9 8
f 44 45 9
f 45 10 9
f 45 46 10
f 46 11 10
f 46 47 11
f 47 12 11
f 47 48 12
f 48 13 12
f 48 49 13
f 49 14 13
f 49 50 14
f 50 15 14
f 50 51 15
f 51 16 15
f 51 52 16
f 52 17 16
f 52 53 17
f 53 18 17
f 53 54 18
f 54 19 18
f 54 55 19
f 55 20 19
f 55 56 20
f 56 21 20
f 56 57 21
f 57 22 21
f 57 58 22
f 58 23 22
f 58 59 23
f 59 24 23
f 59 60 24
f 60 25 24
f 60 61 25
f 61 26 25
f 61 62 26
f 62 27 26
f 62 63 27
f 63 28 27
f 63 64 28
f 64 29 28
f 64 65 29
f 65 30 29
f 65 66 30
f 66 31 30
f 66 67 31
f 67 32 31
f 67 68 32
f 68 33 32
f 68 69 33
f 69 34 33
f 69 70 34
f 70 35 34
f 70 71 35
f 71 36 35
f 71 72 36
f 72 1 36
f 72 37 1
f 73 38 37
f 73 74 38
f 74 39 38
f 74 75 39
f 75 40 39
f 75 76 40
f 76 41 40
f 76 77 41
f 77 42 41
f 77 78 42
f 78 43 42
f 78 79 43
f 79 44 43
f 79 80 44
f 80 45 44
f 80 81 45
f 81 46 45
f 81 82 46
f 82 47 46
f 82 83 47
f 83 48 47
f 83 84 48
f 84 49 48
f 84 85 49
f 85 50 49
f 85 86 50
f 86 51 50
f 86 87 51
f 87 52 51
f 87 88 52
f 88 53 52
f 88 89 53
f 89 54 53
f 89 90 54
f 90 55 54
f 90 91 55
f 91 56 55
f 91 92 56
f 92 57 56
f 92 93 57
f 93 58 57
f 93 94 58
f 94 59 58
f 94 95 59
f 95 60 59
f 95 96 60
f 96 61 60
f 96 97 61
f 97 62 61
f 97 98 62
f 98 63 62
f 98 99 63
f 99 64 63
f 99 100 64
f 100 65 64
f 100 101 65
f 101 66 65
f 101 102 66
f 102 67 66
f 102 103 67
f 103 68 67
f 103 104 68
f 104 69 68
f 104 105 69
f 105 70 69
f 105 106 70
f 106 71 70
f 106 107 71
f 107 72 71
f 107 108 72
f 108 37 72
f 108 73 37
f 109 74 73
f 109 110 74
f 110 75 74
f 110 111 75
f 111 76 75
f 111 112 76
f 112 77 76
f 112 113 77
f 113 78 77
f 113 114 78
f 114 79 78
f 114 115 79
f 115 80 79
f 115 116 80
f 116 81 80
f 116 117 81
f 117 82 81
f 117 118 82
f 118 83 82
f 118 119 83
f 119 84 83
f 119 120 84
f 120 85 84
f 120 121 85
f 121 86 85
f 121 122 86
f 122 87 86
f 122 123 87
f 123 88 87
f 123 124 88
f 124 89 88
f 124 125 89
f 125 90 89
f 125 126 90
f 126 91 90
f 126 127 91
f 127 92 91
f 127 128 92
f 128 93 92
f 128 129 93
f 129 94 93
f 129 130 94
f 130 95 94
f 130 131 95
f 131 96 95
f 131 132 96
f 132 97 96
f 132 133 97
f 133 98 97
f 133 134 98
f 134 99 98
f 134 135 99
f 135 100 99
f 135 136 100
f 136 101 100
f 136 137 101
f 137 102 101
f 137 138 102
f 138 103 102
f 138 139 103
f 139 104 103
f 139 140 104
f 140 105 104
f 140 141 105
f 141 106 105
f 141 142 106
f 142 107 106
f 142 143 107
f 143 108 107
f 143 144 108
f 144 73 108
f 144 109 73
f 1 110 109
f 1 2 110
f 2 111 110
f 2 3 111
f 3 112 111
f 3 4 112
f 4 113 112
f 4 5 113
f 5 114 113
f 5 6 114
f 6 115 114
f 6 7 115
f 7 116 115
f 7 8 116
f 8 117 116
f 8 9 117
f 9 118 117
f 9 10 118
f 10 119 118
f 10 11 119
f 11 120 119
f 11 12 120
f 12 121 120
f 12 13 121
f 13 122 121
f 13 14 122
f 14 123 122
f 14 15 123
f 15 124 123
f 15 16 124
f 16 125 124
f 16 17 125
f 17 126 125
f 17 18 126
f 18 127 126
f 18 19 127
f 19 128 127
f 19 20 128
f 20 129 128
f 20 21 129
f 21 130 129
f 21 22 130
f 22 131 130
f 22 23 131
f 23 132 131
f 23 24 132
f 24 133 132
f 24 25 133
f 25 134 133
f 25 26 134
f 26 135 134
f 26 27 135
f 27 136 135
f 27 28 136
f 28 137 136
f 28 29 137
f 29 138 137
f 29 30 138
f 30 139 138
f 30 31 139
f 31 140 139
f 31 32 140
f 32 141 140
f 32 33 141
f 33 142 141
f 33 34 142
f 34 143 142
f 34 35 143
f 35 144 143
f 35 36 144
f 36 109 144
f 36 1 109
