v 0.015000 0.014000 0.001500
v 0.015000 0.014000 2.048500
v 0.015000 0.056000 0.001500
v 0.015000 0.056000 2.048500
v 0.015000 0.014000 0.001500
v 0.015000 0.014000 2.048500
v 0.016500 0.012500 2.048500
v 0.016500 0.012500 0.001500
v 0.016500 0.014000 0.000000
v 0.015000 0.014000 0.001500
v 0.015000 0.056000 0.001500
v 0.016500 0.056000 -0.000000
v 0.016500 0.014000 2.050000
v 0.015000 0.014000 2.048500
v 0.015000 0.056000 2.048500
v 0.016500 0.056000 2.050000
v 0.015000 0.056000 0.001500
v 0.015000 0.056000 2.048500
v 0.016500 0.057500 2.048500
v 0.016500 0.057500 0.001500
v 0.016500 0.014000 0.000000
v 0.015000 0.014000 0.001500
v 0.016500 0.012500 0.001500
v 0.016500 0.014000 2.050000
v 0.015000 0.014000 2.048500
v 0.016500 0.012500 2.048500
v 0.016500 0.012500 0.001500
v 0.016500 0.012500 2.048500
v 0.895000 0.012500 2.048500
v 0.895000 0.012500 0.001500
v 0.302250 0.012500 1.696500
v 0.609250 0.012500 1.696500
v 0.299250 0.012500 1.693500
v 0.299250 0.012500 1.246500
v 0.302250 0.012500 1.243500
v 0.609250 0.012500 1.243500
v 0.612250 0.012500 1.246500
v 0.612250 0.012500 1.693500
v 0.016500 0.014000 0.000000
v 0.016500 0.056000 -0.000000
v 0.895000 0.014000 0.000000
v 0.895000 0.056000 0.000000
v 0.016500 0.056000 -0.000000
v 0.015000 0.056000 0.001500
v 0.016500 0.057500 0.001500
v 0.016500 0.014000 2.050000
v 0.016500 0.056000 2.050000
v 0.895000 0.014000 2.050000
v 0.895000 0.056000 2.050000
v 0.016500 0.057500 2.048500
v 0.015000 0.056000 2.048500
v 0.016500 0.056000 2.050000
v 0.016500 0.057500 0.001500
v 0.016500 0.057500 2.048500
v 0.895000 0.057500 2.048500
v 0.895000 0.057500 0.001500
v 0.302250 0.057500 1.696500
v 0.609250 0.057500 1.696500
v 0.299250 0.057500 1.693500
v 0.299250 0.057500 1.246500
v 0.302250 0.057500 1.243500
v 0.609250 0.057500 1.243500
v 0.612250 0.057500 1.246500
v 0.612250 0.057500 1.693500
v 0.016500 0.014000 0.000000
v 0.016500 0.012500 0.001500
v 0.895000 0.012500 0.001500
v 0.895000 0.014000 0.000000
v 0.016500 0.014000 2.050000
v 0.016500 0.012500 2.048500
v 0.895000 0.012500 2.048500
v 0.895000 0.014000 2.050000
v 0.896500 0.014000 0.001500
v 0.895000 0.012500 0.001500
v 0.895000 0.012500 2.048500
v 0.896500 0.014000 2.048500
v 0.302250 0.012500 1.696500
v 0.302250 0.014000 1.695000
v 0.609250 0.012500 1.696500
v 0.609250 0.014000 1.695000
v 0.302250 0.012500 1.696500
v 0.302250 0.014000 1.695000
v 0.299250 0.012500 1.693500
v 0.300750 0.014000 1.693500
v 0.609250 0.012500 1.696500
v 0.609250 0.014000 1.695000
v 0.612250 0.012500 1.693500
v 0.610750 0.014000 1.693500
v 0.299250 0.012500 1.693500
v 0.300750 0.014000 1.693500
v 0.299250 0.012500 1.246500
v 0.300750 0.014000 1.246500
v 0.612250 0.012500 1.693500
v 0.610750 0.014000 1.693500
v 0.612250 0.012500 1.246500
v 0.610750 0.014000 1.246500
v 0.302250 0.012500 1.243500
v 0.302250 0.014000 1.245000
v 0.299250 0.012500 1.246500
v 0.300750 0.014000 1.246500
v 0.612250 0.012500 1.246500
v 0.610750 0.014000 1.246500
v 0.609250 0.012500 1.243500
v 0.609250 0.014000 1.245000
v 0.302250 0.012500 1.243500
v 0.302250 0.014000 1.245000
v 0.609250 0.012500 1.243500
v 0.609250 0.014000 1.245000
v 0.016500 0.056000 -0.000000
v 0.016500 0.057500 0.001500
v 0.895000 0.057500 0.001500
v 0.895000 0.056000 0.000000
v 0.896500 0.014000 0.001500
v 0.895000 0.014000 0.000000
v 0.895000 0.056000 0.000000
v 0.896500 0.056000 0.001500
v 0.016500 0.057500 2.048500
v 0.016500 0.056000 2.050000
v 0.895000 0.056000 2.050000
v 0.895000 0.057500 2.048500
v 0.895000 0.014000 2.050000
v 0.896500 0.014000 2.048500
v 0.895000 0.056000 2.050000
v 0.896500 0.056000 2.048500
v 0.896500 0.056000 0.001500
v 0.895000 0.057500 0.001500
v 0.895000 0.057500 2.048500
v 0.896500 0.056000 2.048500
v 0.302250 0.057500 1.696500
v 0.302250 0.056000 1.695000
v 0.609250 0.057500 1.696500
v 0.609250 0.056000 1.695000
v 0.302250 0.057500 1.696500
v 0.302250 0.056000 1.695000
v 0.299250 0.057500 1.693500
v 0.300750 0.056000 1.693500
v 0.609250 0.057500 1.696500
v 0.609250 0.056000 1.695000
v 0.612250 0.057500 1.693500
v 0.610750 0.056000 1.693500
v 0.299250 0.057500 1.693500
v 0.300750 0.056000 1.693500
v 0.299250 0.057500 1.246500
v 0.300750 0.056000 1.246500
v 0.612250 0.057500 1.693500
v 0.610750 0.056000 1.693500
v 0.612250 0.057500 1.246500
v 0.610750 0.056000 1.246500
v 0.302250 0.057500 1.243500
v 0.302250 0.056000 1.245000
v 0.299250 0.057500 1.246500
v 0.300750 0.056000 1.246500
v 0.612250 0.057500 1.246500
v 0.610750 0.056000 1.246500
v 0.609250 0.057500 1.243500
v 0.609250 0.056000 1.245000
v 0.302250 0.057500 1.243500
v 0.302250 0.056000 1.245000
v 0.609250 0.057500 1.243500
v 0.609250 0.056000 1.245000
v 0.896500 0.014000 0.001500
v 0.895000 0.012500 0.001500
v 0.895000 0.014000 0.000000
v 0.895000 0.014000 2.050000
v 0.895000 0.012500 2.048500
v 0.896500 0.014000 2.048500
v 0.896500 0.014000 0.001500
v 0.896500 0.014000 2.048500
v 0.896500 0.056000 0.001500
v 0.896500 0.056000 2.048500
v 0.302250 0.014000 1.695000
v 0.609250 0.014000 1.695000
v 0.609250 0.056000 1.695000
v 0.302250 0.056000 1.695000
v 0.302250 0.014000 1.695000
v 0.302250 0.056000 1.695000
v 0.300750 0.056000 1.693500
v 0.300750 0.014000 1.693500
v 0.609250 0.014000 1.695000
v 0.609250 0.056000 1.695000
v 0.610750 0.056000 1.693500
v 0.610750 0.014000 1.693500
v 0.300750 0.014000 1.693500
v 0.300750 0.014000 1.246500
v 0.300750 0.056000 1.246500
v 0.300750 0.056000 1.693500
v 0.610750 0.014000 1.693500
v 0.610750 0.014000 1.246500
v 0.610750 0.056000 1.246500
v 0.610750 0.056000 1.693500
v 0.302250 0.014000 1.245000
v 0.302250 0.056000 1.245000
v 0.300750 0.056000 1.246500
v 0.300750 0.014000 1.246500
v 0.610750 0.014000 1.246500
v 0.610750 0.056000 1.246500
v 0.609250 0.056000 1.245000
v 0.609250 0.014000 1.245000
v 0.302250 0.014000 1.245000
v 0.609250 0.014000 1.245000
v 0.609250 0.056000 1.245000
v 0.302250 0.056000 1.245000
v 0.896500 0.056000 0.001500
v 0.895000 0.057500 0.001500
v 0.895000 0.056000 0.000000
v 0.896500 0.056000 2.048500
v 0.895000 0.056000 2.050000
v 0.895000 0.057500 2.048500
f 2 3 1
f 2 4 3
f 7 6 5
f 7 5 8
f 12 9 10
f 12 10 11
f 16 14 13
f 16 15 14
f 19 17 18
f 19 20 17
f 23 22 21
f 26 24 25
f 34 27 35
f 36 27 30
f 36 35 27
f 37 36 30
f 28 33 31
f 28 34 33
f 28 27 34
f 29 31 32
f 29 38 37
f 29 32 38
f 29 28 31
f 29 37 30
f 42 39 40
f 42 41 39
f 45 43 44
f 49 47 46
f 49 46 48
f 52 50 51
f 60 61 53
f 62 56 53
f 62 53 61
f 63 56 62
f 54 57 59
f 54 59 60
f 54 60 53
f 55 58 57
f 55 63 64
f 55 64 58
f 55 57 54
f 55 56 63
f 68 66 65
f 68 67 66
f 72 69 70
f 72 70 71
f 75 74 73
f 76 75 73
f 80 77 78
f 80 79 77
f 84 82 81
f 84 81 83
f 88 85 86
f 88 87 85
f 92 90 89
f 92 89 91
f 96 93 94
f 96 95 93
f 100 97 98
f 100 99 97
f 104 101 102
f 104 103 101
f 108 106 105
f 108 105 107
f 111 109 110
f 112 109 111
f 116 113 114
f 116 114 115
f 120 117 118
f 120 118 119
f 124 121 122
f 124 123 121
f 128 125 126
f 128 126 127
f 132 130 129
f 132 129 131
f 136 133 134
f 136 135 133
f 140 138 137
f 140 137 139
f 144 141 142
f 144 143 141
f 148 146 145
f 148 145 147
f 152 150 149
f 152 149 151
f 156 154 153
f 156 153 155
f 160 157 158
f 160 159 157
f 163 161 162
f 166 164 165
f 168 167 169
f 168 169 170
f 173 172 171
f 173 171 174
f 177 176 175
f 177 175 178
f 181 179 180
f 181 182 179
f 183 184 185
f 183 185 186
f 187 189 188
f 187 190 189
f 193 191 192
f 193 194 191
f 197 195 196
f 197 198 195
f 201 199 200
f 201 202 199
f 205 204 203
f 208 207 206
